G75*
%MOIN*%
%OFA0B0*%
%FSLAX25Y25*%
%IPPOS*%
%LPD*%
%AMOC8*
5,1,8,0,0,1.08239X$1,22.5*
%
%ADD10R,0.05906X0.03937*%
%ADD11R,0.09000X0.07000*%
%ADD12R,0.05906X0.02756*%
%ADD13C,0.01800*%
%ADD14C,0.00600*%
%ADD15R,0.07087X0.06693*%
%ADD16R,0.07098X0.06299*%
%ADD17OC8,0.06300*%
%ADD18C,0.06300*%
%ADD19R,0.05906X0.08661*%
%ADD20R,0.05906X0.05118*%
%ADD21R,0.05118X0.05906*%
%ADD22R,0.02600X0.06000*%
%ADD23C,0.05906*%
%ADD24R,0.06299X0.05118*%
%ADD25R,0.03937X0.05512*%
%ADD26C,0.00500*%
%ADD27R,0.02953X0.02953*%
%ADD28R,0.07874X0.07874*%
%ADD29C,0.07874*%
%ADD30C,0.05000*%
%ADD31R,0.03150X0.05906*%
%ADD32R,0.09843X0.11811*%
%ADD33C,0.01000*%
%ADD34C,0.03200*%
%ADD35C,0.03200*%
%ADD36C,0.02400*%
%ADD37C,0.01600*%
%ADD38C,0.05000*%
D10*
X0103886Y0031058D03*
X0103897Y0042877D03*
X0103916Y0071115D03*
X0103927Y0082934D03*
X0103887Y0111101D03*
X0103898Y0122920D03*
D11*
X0093270Y0117017D03*
X0093299Y0077031D03*
X0093269Y0036973D03*
D12*
X0091520Y0031095D03*
X0091485Y0042873D03*
X0091550Y0071153D03*
X0091514Y0082930D03*
X0091521Y0111139D03*
X0091486Y0122916D03*
D13*
X0094999Y0119493D03*
X0094999Y0116993D03*
X0094999Y0114493D03*
X0095028Y0079507D03*
X0095028Y0077007D03*
X0095028Y0074507D03*
X0094998Y0039450D03*
X0094998Y0036950D03*
X0094998Y0034450D03*
D14*
X0097880Y0033682D02*
X0088786Y0033682D01*
X0088786Y0040257D01*
X0097901Y0040257D01*
X0101172Y0038800D01*
X0106699Y0038800D01*
X0106660Y0035099D01*
X0101187Y0035139D01*
X0097880Y0033682D01*
X0097986Y0033729D02*
X0088786Y0033729D01*
X0088786Y0034327D02*
X0099345Y0034327D01*
X0100704Y0034926D02*
X0088786Y0034926D01*
X0088786Y0035524D02*
X0106664Y0035524D01*
X0106670Y0036123D02*
X0088786Y0036123D01*
X0088786Y0036721D02*
X0106677Y0036721D01*
X0106683Y0037320D02*
X0088786Y0037320D01*
X0088786Y0037918D02*
X0106690Y0037918D01*
X0106696Y0038517D02*
X0088786Y0038517D01*
X0088786Y0039115D02*
X0100464Y0039115D01*
X0099120Y0039714D02*
X0088786Y0039714D01*
X0072100Y0055100D02*
X0072100Y0136021D01*
X0059100Y0150021D01*
X0045100Y0150021D01*
X0032600Y0136121D01*
X0005100Y0136121D01*
X0005100Y0174250D01*
X0016911Y0186061D01*
X0088786Y0120300D02*
X0097902Y0120300D01*
X0101173Y0118843D01*
X0106700Y0118843D01*
X0106660Y0115143D01*
X0101188Y0115182D01*
X0097881Y0113725D01*
X0088786Y0113725D01*
X0088786Y0120300D01*
X0088786Y0119914D02*
X0098769Y0119914D01*
X0100113Y0119316D02*
X0088786Y0119316D01*
X0088786Y0118717D02*
X0106698Y0118717D01*
X0106692Y0118119D02*
X0088786Y0118119D01*
X0088786Y0117520D02*
X0106686Y0117520D01*
X0106679Y0116922D02*
X0088786Y0116922D01*
X0088786Y0116323D02*
X0106673Y0116323D01*
X0106666Y0115725D02*
X0088786Y0115725D01*
X0088786Y0115126D02*
X0101061Y0115126D01*
X0099702Y0114528D02*
X0088786Y0114528D01*
X0088786Y0113929D02*
X0098343Y0113929D01*
X0097931Y0080314D02*
X0088815Y0080314D01*
X0088815Y0073739D01*
X0097910Y0073739D01*
X0101217Y0075196D01*
X0106689Y0075157D01*
X0106729Y0078857D01*
X0101202Y0078857D01*
X0097931Y0080314D01*
X0099054Y0079814D02*
X0088815Y0079814D01*
X0088815Y0079215D02*
X0100398Y0079215D01*
X0100830Y0075026D02*
X0088815Y0075026D01*
X0088815Y0075624D02*
X0106694Y0075624D01*
X0106701Y0076223D02*
X0088815Y0076223D01*
X0088815Y0076821D02*
X0106707Y0076821D01*
X0106713Y0077420D02*
X0088815Y0077420D01*
X0088815Y0078018D02*
X0106720Y0078018D01*
X0106726Y0078617D02*
X0088815Y0078617D01*
X0088815Y0074427D02*
X0099472Y0074427D01*
X0098113Y0073829D02*
X0088815Y0073829D01*
X0072100Y0055100D02*
X0059100Y0041100D01*
X0045100Y0041100D01*
X0032600Y0055000D01*
X0005100Y0055000D01*
X0005100Y0016911D01*
X0016911Y0005100D01*
X0162580Y0005100D02*
X0174391Y0016911D01*
X0174391Y0174250D01*
X0162580Y0186061D01*
D15*
X0106333Y0096752D03*
X0090191Y0096752D03*
X0090193Y0056753D03*
X0106334Y0056753D03*
X0106338Y0016755D03*
X0090196Y0016755D03*
D16*
X0082997Y0031348D03*
X0082997Y0042545D03*
X0083027Y0071415D03*
X0083027Y0082612D03*
X0083002Y0111397D03*
X0083002Y0122594D03*
D17*
X0085733Y0139954D03*
D18*
X0085733Y0149954D03*
D19*
X0115402Y0118000D03*
X0140598Y0118000D03*
X0140608Y0078010D03*
X0115412Y0078010D03*
X0115422Y0038020D03*
X0140618Y0038020D03*
D20*
X0156000Y0149260D03*
X0156000Y0156740D03*
X0134000Y0165260D03*
X0134000Y0172740D03*
D21*
X0139760Y0156000D03*
X0147240Y0156000D03*
X0161760Y0098500D03*
X0169240Y0098500D03*
X0169240Y0061000D03*
X0161760Y0061000D03*
X0161760Y0031000D03*
X0169240Y0031000D03*
D22*
X0162500Y0118294D03*
X0157500Y0118294D03*
X0152500Y0118294D03*
X0147500Y0118294D03*
X0147500Y0141706D03*
X0152500Y0141706D03*
X0157500Y0141706D03*
X0162500Y0141706D03*
D23*
X0122000Y0169547D02*
X0122000Y0175453D01*
X0112000Y0175453D02*
X0112000Y0169547D01*
X0102000Y0169547D02*
X0102000Y0175453D01*
X0092000Y0175453D02*
X0092000Y0169547D01*
D24*
X0166000Y0156740D03*
X0166000Y0149260D03*
D25*
X0156240Y0107331D03*
X0148760Y0107331D03*
X0152500Y0098669D03*
X0148760Y0069331D03*
X0156240Y0069331D03*
X0152500Y0060669D03*
X0148760Y0039331D03*
X0156240Y0039331D03*
X0152500Y0030669D03*
D26*
X0162726Y0005100D02*
X0017100Y0005100D01*
X0017100Y0186021D02*
X0162726Y0186021D01*
D27*
X0025300Y0160900D03*
X0017300Y0160900D03*
X0009300Y0160900D03*
X0009300Y0030400D03*
X0017300Y0030400D03*
X0025300Y0030400D03*
D28*
X0079980Y0161970D03*
D29*
X0080000Y0177000D03*
D30*
X0152500Y0087500D03*
X0165000Y0087500D03*
X0165000Y0050000D03*
X0152500Y0050000D03*
X0152500Y0020000D03*
X0165000Y0020000D03*
D31*
X0155906Y0165110D03*
X0150000Y0165110D03*
X0144094Y0165110D03*
D32*
X0150000Y0176134D03*
D33*
X0166924Y0011990D02*
X0012567Y0011990D01*
X0011569Y0012988D02*
X0085553Y0012988D01*
X0085553Y0012953D02*
X0086197Y0012308D01*
X0094195Y0012308D01*
X0094839Y0012953D01*
X0094839Y0017925D01*
X0100400Y0022750D01*
X0101040Y0024031D01*
X0101142Y0025460D01*
X0100688Y0026819D01*
X0099750Y0027900D01*
X0098469Y0028540D01*
X0097040Y0028642D01*
X0095681Y0028188D01*
X0093820Y0026573D01*
X0093820Y0028617D01*
X0094928Y0028617D01*
X0095573Y0029261D01*
X0095573Y0032929D01*
X0094928Y0033573D01*
X0092295Y0033573D01*
X0092219Y0033648D01*
X0087646Y0033648D01*
X0087646Y0034954D01*
X0087002Y0035598D01*
X0078992Y0035598D01*
X0078348Y0034954D01*
X0078348Y0027743D01*
X0078992Y0027099D01*
X0087002Y0027099D01*
X0087646Y0027743D01*
X0087646Y0029048D01*
X0087680Y0029048D01*
X0088112Y0028617D01*
X0089220Y0028617D01*
X0089220Y0022582D01*
X0088838Y0022250D01*
X0088779Y0022132D01*
X0088324Y0021677D01*
X0088023Y0021476D01*
X0087839Y0021201D01*
X0086197Y0021201D01*
X0085553Y0020557D01*
X0085553Y0012953D01*
X0085553Y0013987D02*
X0010570Y0013987D01*
X0009571Y0014985D02*
X0085553Y0014985D01*
X0085553Y0015984D02*
X0008573Y0015984D01*
X0007574Y0016982D02*
X0085553Y0016982D01*
X0085553Y0017981D02*
X0006900Y0017981D01*
X0006900Y0017657D02*
X0006900Y0028292D01*
X0007368Y0027824D01*
X0011232Y0027824D01*
X0011876Y0028468D01*
X0011876Y0032332D01*
X0011232Y0032976D01*
X0007368Y0032976D01*
X0006900Y0032508D01*
X0006900Y0053200D01*
X0031798Y0053200D01*
X0043300Y0040410D01*
X0043300Y0040354D01*
X0043794Y0039861D01*
X0044260Y0039342D01*
X0044315Y0039339D01*
X0044354Y0039300D01*
X0045052Y0039300D01*
X0045749Y0039263D01*
X0045790Y0039300D01*
X0058393Y0039300D01*
X0058422Y0039274D01*
X0059133Y0039300D01*
X0059846Y0039300D01*
X0059873Y0039327D01*
X0059912Y0039329D01*
X0060396Y0039851D01*
X0060900Y0040354D01*
X0060900Y0040393D01*
X0073200Y0053639D01*
X0073200Y0044547D01*
X0077502Y0040245D01*
X0078348Y0040245D01*
X0078348Y0038940D01*
X0078992Y0038296D01*
X0087002Y0038296D01*
X0087646Y0038940D01*
X0087646Y0040573D01*
X0087898Y0040573D01*
X0088076Y0040395D01*
X0094893Y0040395D01*
X0095538Y0041039D01*
X0095538Y0044706D01*
X0094893Y0045351D01*
X0088076Y0045351D01*
X0087898Y0045173D01*
X0087646Y0045173D01*
X0087646Y0046150D01*
X0087002Y0046795D01*
X0078992Y0046795D01*
X0078348Y0046150D01*
X0078348Y0045905D01*
X0077800Y0046453D01*
X0077800Y0123978D01*
X0078353Y0123425D01*
X0078353Y0118989D01*
X0078997Y0118345D01*
X0087007Y0118345D01*
X0087651Y0118989D01*
X0087651Y0120294D01*
X0092116Y0120294D01*
X0092260Y0120438D01*
X0094894Y0120438D01*
X0095538Y0121083D01*
X0095538Y0124750D01*
X0094894Y0125394D01*
X0088077Y0125394D01*
X0087651Y0124968D01*
X0087651Y0126199D01*
X0087007Y0126844D01*
X0082406Y0126844D01*
X0082289Y0127126D01*
X0081529Y0127885D01*
X0080537Y0128296D01*
X0079463Y0128296D01*
X0078471Y0127885D01*
X0077800Y0127215D01*
X0077800Y0155953D01*
X0076820Y0156933D01*
X0084373Y0156933D01*
X0085017Y0157577D01*
X0085017Y0161699D01*
X0087893Y0164575D01*
X0087893Y0157205D01*
X0084892Y0154204D01*
X0084888Y0154204D01*
X0083326Y0153557D01*
X0082130Y0152362D01*
X0081483Y0150800D01*
X0081483Y0149109D01*
X0082130Y0147547D01*
X0083326Y0146351D01*
X0084888Y0145704D01*
X0086578Y0145704D01*
X0088140Y0146351D01*
X0089336Y0147547D01*
X0089983Y0149109D01*
X0089983Y0149113D01*
X0094545Y0153675D01*
X0095093Y0154998D01*
X0095093Y0166909D01*
X0095436Y0167252D01*
X0096053Y0168741D01*
X0096053Y0176259D01*
X0095436Y0177748D01*
X0094296Y0178889D01*
X0092806Y0179505D01*
X0091194Y0179505D01*
X0089704Y0178889D01*
X0088564Y0177748D01*
X0087947Y0176259D01*
X0087947Y0172840D01*
X0087893Y0172709D01*
X0087893Y0172211D01*
X0082689Y0167007D01*
X0075587Y0167007D01*
X0074943Y0166363D01*
X0074943Y0158810D01*
X0064689Y0169064D01*
X0064289Y0170029D01*
X0063529Y0170789D01*
X0062537Y0171200D01*
X0061463Y0171200D01*
X0060471Y0170789D01*
X0059711Y0170029D01*
X0059300Y0169037D01*
X0059300Y0167963D01*
X0059711Y0166971D01*
X0060471Y0166211D01*
X0061436Y0165811D01*
X0073200Y0154047D01*
X0073200Y0137482D01*
X0060900Y0150728D01*
X0060900Y0150767D01*
X0060396Y0151271D01*
X0059912Y0151792D01*
X0059873Y0151794D01*
X0059846Y0151821D01*
X0059133Y0151821D01*
X0058422Y0151848D01*
X0058393Y0151821D01*
X0045790Y0151821D01*
X0045749Y0151858D01*
X0045052Y0151821D01*
X0044354Y0151821D01*
X0044315Y0151782D01*
X0044260Y0151779D01*
X0043794Y0151260D01*
X0043300Y0150767D01*
X0043300Y0150712D01*
X0031798Y0137921D01*
X0006900Y0137921D01*
X0006900Y0158792D01*
X0007368Y0158324D01*
X0011232Y0158324D01*
X0011876Y0158968D01*
X0011876Y0162832D01*
X0011232Y0163476D01*
X0007368Y0163476D01*
X0006900Y0163008D01*
X0006900Y0173504D01*
X0017667Y0184271D01*
X0085019Y0184271D01*
X0082262Y0181515D01*
X0081002Y0182037D01*
X0078998Y0182037D01*
X0077147Y0181270D01*
X0075730Y0179853D01*
X0074963Y0178002D01*
X0074963Y0175998D01*
X0075730Y0174147D01*
X0077147Y0172730D01*
X0078998Y0171963D01*
X0081002Y0171963D01*
X0082853Y0172730D01*
X0084270Y0174147D01*
X0085037Y0175998D01*
X0085037Y0177784D01*
X0087953Y0180700D01*
X0128547Y0180700D01*
X0131700Y0177547D01*
X0131700Y0176399D01*
X0130592Y0176399D01*
X0129947Y0175755D01*
X0129947Y0169725D01*
X0130461Y0169212D01*
X0130126Y0169019D01*
X0129847Y0168740D01*
X0129649Y0168398D01*
X0129547Y0168016D01*
X0129547Y0165760D01*
X0133500Y0165760D01*
X0133500Y0164760D01*
X0129547Y0164760D01*
X0129547Y0162503D01*
X0129649Y0162122D01*
X0129847Y0161780D01*
X0130126Y0161500D01*
X0130468Y0161303D01*
X0130850Y0161201D01*
X0133500Y0161201D01*
X0133500Y0164760D01*
X0134500Y0164760D01*
X0134500Y0165760D01*
X0138453Y0165760D01*
X0138453Y0167499D01*
X0140842Y0165110D01*
X0138807Y0163076D01*
X0138453Y0162721D01*
X0138453Y0164760D01*
X0134500Y0164760D01*
X0134500Y0161201D01*
X0137150Y0161201D01*
X0137460Y0161284D01*
X0137460Y0160053D01*
X0136745Y0160053D01*
X0136101Y0159408D01*
X0136101Y0152592D01*
X0136745Y0151947D01*
X0137700Y0151947D01*
X0137700Y0146503D01*
X0137300Y0145537D01*
X0137300Y0144463D01*
X0137711Y0143471D01*
X0138471Y0142711D01*
X0139463Y0142300D01*
X0140537Y0142300D01*
X0141529Y0142711D01*
X0142289Y0143471D01*
X0142700Y0144463D01*
X0142700Y0145537D01*
X0142300Y0146503D01*
X0142300Y0151947D01*
X0142775Y0151947D01*
X0143419Y0152592D01*
X0143419Y0159408D01*
X0142775Y0160053D01*
X0142290Y0160053D01*
X0143294Y0161057D01*
X0146125Y0161057D01*
X0146769Y0161702D01*
X0146769Y0168519D01*
X0146560Y0168728D01*
X0147535Y0168728D01*
X0147325Y0168519D01*
X0147325Y0161702D01*
X0147970Y0161057D01*
X0152030Y0161057D01*
X0152675Y0161702D01*
X0152675Y0168519D01*
X0152465Y0168728D01*
X0153440Y0168728D01*
X0153231Y0168519D01*
X0153231Y0165646D01*
X0153181Y0165507D01*
X0153231Y0164552D01*
X0153231Y0161702D01*
X0153875Y0161057D01*
X0155129Y0161057D01*
X0154480Y0160789D01*
X0154091Y0160399D01*
X0152592Y0160399D01*
X0151947Y0159755D01*
X0151947Y0153725D01*
X0152592Y0153081D01*
X0159408Y0153081D01*
X0160053Y0153725D01*
X0160053Y0159755D01*
X0159408Y0160399D01*
X0157929Y0160399D01*
X0157539Y0160789D01*
X0156891Y0161057D01*
X0157936Y0161057D01*
X0158580Y0161702D01*
X0158580Y0164045D01*
X0162458Y0168345D01*
X0162789Y0168675D01*
X0162816Y0168742D01*
X0162865Y0168795D01*
X0163021Y0169236D01*
X0163200Y0169668D01*
X0163200Y0169740D01*
X0163224Y0169808D01*
X0163200Y0170274D01*
X0163200Y0177401D01*
X0162789Y0178394D01*
X0162029Y0179153D01*
X0161037Y0179564D01*
X0159963Y0179564D01*
X0158971Y0179153D01*
X0158211Y0178394D01*
X0157800Y0177401D01*
X0157800Y0171242D01*
X0156240Y0169513D01*
X0156319Y0169649D01*
X0156421Y0170031D01*
X0156421Y0175634D01*
X0150500Y0175634D01*
X0150500Y0176634D01*
X0149500Y0176634D01*
X0149500Y0183539D01*
X0144881Y0183539D01*
X0144500Y0183437D01*
X0144158Y0183240D01*
X0143878Y0182960D01*
X0143681Y0182618D01*
X0143579Y0182237D01*
X0143579Y0176634D01*
X0149500Y0176634D01*
X0149500Y0175634D01*
X0143579Y0175634D01*
X0143579Y0170031D01*
X0143681Y0169649D01*
X0143878Y0169307D01*
X0144023Y0169163D01*
X0143294Y0169163D01*
X0138053Y0174405D01*
X0138053Y0175755D01*
X0137408Y0176399D01*
X0136300Y0176399D01*
X0136300Y0179453D01*
X0131481Y0184271D01*
X0161824Y0184271D01*
X0172591Y0173504D01*
X0172591Y0140161D01*
X0172453Y0140300D01*
X0171689Y0141064D01*
X0171289Y0142029D01*
X0170529Y0142789D01*
X0169537Y0143200D01*
X0168463Y0143200D01*
X0167471Y0142789D01*
X0166711Y0142029D01*
X0166300Y0141037D01*
X0166300Y0139963D01*
X0166711Y0138971D01*
X0167471Y0138211D01*
X0168436Y0137811D01*
X0169200Y0137047D01*
X0169200Y0102553D01*
X0166225Y0102553D01*
X0165581Y0101908D01*
X0165581Y0095092D01*
X0166225Y0094447D01*
X0169200Y0094447D01*
X0169200Y0065053D01*
X0166225Y0065053D01*
X0165581Y0064408D01*
X0165581Y0057592D01*
X0166225Y0056947D01*
X0169200Y0056947D01*
X0169200Y0036278D01*
X0168618Y0035053D01*
X0166225Y0035053D01*
X0165581Y0034408D01*
X0165581Y0027592D01*
X0166225Y0026947D01*
X0172255Y0026947D01*
X0172591Y0027284D01*
X0172591Y0017657D01*
X0161785Y0006850D01*
X0017707Y0006850D01*
X0006900Y0017657D01*
X0006900Y0018979D02*
X0085553Y0018979D01*
X0085553Y0019978D02*
X0006900Y0019978D01*
X0006900Y0020976D02*
X0085972Y0020976D01*
X0088621Y0021975D02*
X0006900Y0021975D01*
X0006900Y0022973D02*
X0089220Y0022973D01*
X0089220Y0023972D02*
X0006900Y0023972D01*
X0006900Y0024970D02*
X0089220Y0024970D01*
X0089220Y0025969D02*
X0006900Y0025969D01*
X0006900Y0026967D02*
X0089220Y0026967D01*
X0089220Y0027966D02*
X0087646Y0027966D01*
X0087646Y0028964D02*
X0087764Y0028964D01*
X0087646Y0033957D02*
X0100308Y0033957D01*
X0100478Y0034126D02*
X0099834Y0033482D01*
X0099834Y0028634D01*
X0100478Y0027989D01*
X0103136Y0027989D01*
X0104440Y0026686D01*
X0103992Y0021201D01*
X0102339Y0021201D01*
X0101694Y0020557D01*
X0101694Y0012953D01*
X0102339Y0012308D01*
X0110337Y0012308D01*
X0110981Y0012953D01*
X0110981Y0020557D01*
X0110337Y0021201D01*
X0109410Y0021201D01*
X0109890Y0027069D01*
X0109933Y0027174D01*
X0109933Y0027601D01*
X0109968Y0028026D01*
X0109933Y0028135D01*
X0109933Y0028248D01*
X0109888Y0028358D01*
X0110037Y0028358D01*
X0110140Y0028401D01*
X0110252Y0028410D01*
X0110633Y0028605D01*
X0111029Y0028769D01*
X0111108Y0028848D01*
X0111208Y0028899D01*
X0111486Y0029226D01*
X0111788Y0029528D01*
X0111831Y0029632D01*
X0114347Y0032589D01*
X0118830Y0032589D01*
X0119474Y0033234D01*
X0119474Y0042806D01*
X0118830Y0043451D01*
X0112013Y0043451D01*
X0111369Y0042806D01*
X0111369Y0037423D01*
X0108251Y0033758D01*
X0107663Y0033758D01*
X0107295Y0034126D01*
X0100478Y0034126D01*
X0099834Y0032958D02*
X0095543Y0032958D01*
X0095573Y0031960D02*
X0099834Y0031960D01*
X0099834Y0030961D02*
X0095573Y0030961D01*
X0095573Y0029963D02*
X0099834Y0029963D01*
X0099834Y0028964D02*
X0095276Y0028964D01*
X0095425Y0027966D02*
X0093820Y0027966D01*
X0093820Y0026967D02*
X0094274Y0026967D01*
X0099619Y0027966D02*
X0103160Y0027966D01*
X0104159Y0026967D02*
X0100559Y0026967D01*
X0100972Y0025969D02*
X0104382Y0025969D01*
X0104300Y0024970D02*
X0101107Y0024970D01*
X0101011Y0023972D02*
X0104219Y0023972D01*
X0104137Y0022973D02*
X0100512Y0022973D01*
X0099506Y0021975D02*
X0104055Y0021975D01*
X0102114Y0020976D02*
X0098356Y0020976D01*
X0097205Y0019978D02*
X0101694Y0019978D01*
X0101694Y0018979D02*
X0096054Y0018979D01*
X0094904Y0017981D02*
X0101694Y0017981D01*
X0101694Y0016982D02*
X0094839Y0016982D01*
X0094839Y0015984D02*
X0101694Y0015984D01*
X0101694Y0014985D02*
X0094839Y0014985D01*
X0094839Y0013987D02*
X0101694Y0013987D01*
X0101694Y0012988D02*
X0094839Y0012988D01*
X0109473Y0021975D02*
X0149421Y0021975D01*
X0149448Y0022039D02*
X0148900Y0020716D01*
X0148900Y0019284D01*
X0149448Y0017961D01*
X0150461Y0016948D01*
X0151784Y0016400D01*
X0153216Y0016400D01*
X0154539Y0016948D01*
X0155552Y0017961D01*
X0156100Y0019284D01*
X0156100Y0020716D01*
X0155552Y0022039D01*
X0154800Y0022791D01*
X0154800Y0026813D01*
X0154924Y0026813D01*
X0155568Y0027458D01*
X0155568Y0033881D01*
X0154924Y0034525D01*
X0150076Y0034525D01*
X0149431Y0033881D01*
X0149431Y0027458D01*
X0149589Y0027300D01*
X0121503Y0027300D01*
X0120537Y0027700D01*
X0119463Y0027700D01*
X0118471Y0027289D01*
X0117711Y0026529D01*
X0117300Y0025537D01*
X0117300Y0024463D01*
X0117711Y0023471D01*
X0118471Y0022711D01*
X0119463Y0022300D01*
X0120537Y0022300D01*
X0121503Y0022700D01*
X0150109Y0022700D01*
X0149448Y0022039D01*
X0149008Y0020976D02*
X0110562Y0020976D01*
X0110981Y0019978D02*
X0148900Y0019978D01*
X0149026Y0018979D02*
X0110981Y0018979D01*
X0110981Y0017981D02*
X0149440Y0017981D01*
X0150427Y0016982D02*
X0110981Y0016982D01*
X0110981Y0015984D02*
X0170918Y0015984D01*
X0171917Y0016982D02*
X0167073Y0016982D01*
X0167039Y0016948D02*
X0168052Y0017961D01*
X0168600Y0019284D01*
X0168600Y0020716D01*
X0168052Y0022039D01*
X0167455Y0022636D01*
X0167489Y0022715D01*
X0167300Y0023196D01*
X0167300Y0023713D01*
X0166965Y0024047D01*
X0165419Y0027980D01*
X0165419Y0034408D01*
X0164775Y0035053D01*
X0163771Y0035053D01*
X0162713Y0036111D01*
X0159309Y0039515D01*
X0159309Y0039913D01*
X0160029Y0040211D01*
X0160789Y0040971D01*
X0161200Y0041963D01*
X0161200Y0043037D01*
X0160789Y0044029D01*
X0160029Y0044789D01*
X0159037Y0045200D01*
X0157963Y0045200D01*
X0156971Y0044789D01*
X0156211Y0044029D01*
X0155862Y0043187D01*
X0153816Y0043187D01*
X0153172Y0042542D01*
X0153172Y0036119D01*
X0153816Y0035475D01*
X0156843Y0035475D01*
X0158101Y0034217D01*
X0158101Y0027592D01*
X0158745Y0026947D01*
X0160882Y0026947D01*
X0162568Y0022659D01*
X0161948Y0022039D01*
X0161400Y0020716D01*
X0161400Y0019284D01*
X0161948Y0017961D01*
X0162961Y0016948D01*
X0164284Y0016400D01*
X0165716Y0016400D01*
X0167039Y0016948D01*
X0168060Y0017981D02*
X0172591Y0017981D01*
X0172591Y0018979D02*
X0168474Y0018979D01*
X0168600Y0019978D02*
X0172591Y0019978D01*
X0172591Y0020976D02*
X0168492Y0020976D01*
X0168079Y0021975D02*
X0172591Y0021975D01*
X0172591Y0022973D02*
X0167388Y0022973D01*
X0167041Y0023972D02*
X0172591Y0023972D01*
X0172591Y0024970D02*
X0166602Y0024970D01*
X0166210Y0025969D02*
X0172591Y0025969D01*
X0172591Y0026967D02*
X0172275Y0026967D01*
X0166205Y0026967D02*
X0165817Y0026967D01*
X0165581Y0027966D02*
X0165424Y0027966D01*
X0165419Y0028964D02*
X0165581Y0028964D01*
X0165581Y0029963D02*
X0165419Y0029963D01*
X0165419Y0030961D02*
X0165581Y0030961D01*
X0165581Y0031960D02*
X0165419Y0031960D01*
X0165419Y0032958D02*
X0165581Y0032958D01*
X0165581Y0033957D02*
X0165419Y0033957D01*
X0164872Y0034955D02*
X0166128Y0034955D01*
X0169046Y0035954D02*
X0162870Y0035954D01*
X0161871Y0036952D02*
X0169200Y0036952D01*
X0169200Y0037951D02*
X0160873Y0037951D01*
X0159874Y0038949D02*
X0169200Y0038949D01*
X0169200Y0039948D02*
X0159394Y0039948D01*
X0160765Y0040946D02*
X0169200Y0040946D01*
X0169200Y0041945D02*
X0161193Y0041945D01*
X0161200Y0042943D02*
X0169200Y0042943D01*
X0169200Y0043942D02*
X0160825Y0043942D01*
X0159664Y0044940D02*
X0169200Y0044940D01*
X0169200Y0045939D02*
X0110379Y0045939D01*
X0110279Y0046039D02*
X0109287Y0046450D01*
X0108213Y0046450D01*
X0107221Y0046039D01*
X0107127Y0045945D01*
X0100489Y0045945D01*
X0099845Y0045301D01*
X0099845Y0040452D01*
X0100489Y0039808D01*
X0107306Y0039808D01*
X0107950Y0040452D01*
X0107950Y0041159D01*
X0108213Y0041050D01*
X0109287Y0041050D01*
X0110279Y0041461D01*
X0111039Y0042221D01*
X0111450Y0043213D01*
X0111450Y0044287D01*
X0111039Y0045279D01*
X0110279Y0046039D01*
X0111179Y0044940D02*
X0157336Y0044940D01*
X0156175Y0043942D02*
X0111450Y0043942D01*
X0111506Y0042943D02*
X0111338Y0042943D01*
X0111369Y0041945D02*
X0110763Y0041945D01*
X0111369Y0040946D02*
X0107950Y0040946D01*
X0107446Y0039948D02*
X0111369Y0039948D01*
X0111369Y0038949D02*
X0087646Y0038949D01*
X0087646Y0039948D02*
X0100349Y0039948D01*
X0099845Y0040946D02*
X0095445Y0040946D01*
X0095538Y0041945D02*
X0099845Y0041945D01*
X0099845Y0042943D02*
X0095538Y0042943D01*
X0095538Y0043942D02*
X0099845Y0043942D01*
X0099845Y0044940D02*
X0095303Y0044940D01*
X0100483Y0045939D02*
X0087646Y0045939D01*
X0086194Y0052307D02*
X0085549Y0052951D01*
X0085549Y0060555D01*
X0086194Y0061199D01*
X0089250Y0061199D01*
X0089250Y0068675D01*
X0088141Y0068675D01*
X0087701Y0069115D01*
X0087677Y0069115D01*
X0087677Y0067810D01*
X0087032Y0067165D01*
X0079023Y0067165D01*
X0078378Y0067810D01*
X0078378Y0075020D01*
X0079023Y0075664D01*
X0087032Y0075664D01*
X0087677Y0075020D01*
X0087677Y0073715D01*
X0092240Y0073715D01*
X0092324Y0073630D01*
X0094958Y0073630D01*
X0095602Y0072986D01*
X0095602Y0069319D01*
X0094958Y0068675D01*
X0093850Y0068675D01*
X0093850Y0061199D01*
X0094191Y0061199D01*
X0094836Y0060555D01*
X0094836Y0059276D01*
X0094865Y0059226D01*
X0095052Y0059039D01*
X0095245Y0058574D01*
X0095469Y0058189D01*
X0095500Y0057958D01*
X0095600Y0057716D01*
X0095600Y0057217D01*
X0095661Y0056770D01*
X0095600Y0056541D01*
X0095600Y0056284D01*
X0095413Y0055832D01*
X0095295Y0055385D01*
X0095148Y0055192D01*
X0095052Y0054961D01*
X0094836Y0054745D01*
X0094836Y0052951D01*
X0094191Y0052307D01*
X0086194Y0052307D01*
X0085572Y0052929D02*
X0077800Y0052929D01*
X0077800Y0053927D02*
X0085549Y0053927D01*
X0085549Y0054926D02*
X0077800Y0054926D01*
X0077800Y0055924D02*
X0085549Y0055924D01*
X0085549Y0056923D02*
X0077800Y0056923D01*
X0077800Y0057921D02*
X0085549Y0057921D01*
X0085549Y0058920D02*
X0077800Y0058920D01*
X0077800Y0059918D02*
X0085549Y0059918D01*
X0085911Y0060917D02*
X0077800Y0060917D01*
X0077800Y0061915D02*
X0089250Y0061915D01*
X0089250Y0062914D02*
X0077800Y0062914D01*
X0077800Y0063912D02*
X0089250Y0063912D01*
X0089250Y0064911D02*
X0077800Y0064911D01*
X0077800Y0065909D02*
X0089250Y0065909D01*
X0089250Y0066908D02*
X0077800Y0066908D01*
X0077800Y0067906D02*
X0078378Y0067906D01*
X0078378Y0068905D02*
X0077800Y0068905D01*
X0077800Y0069903D02*
X0078378Y0069903D01*
X0078378Y0070902D02*
X0077800Y0070902D01*
X0077800Y0071900D02*
X0078378Y0071900D01*
X0078378Y0072899D02*
X0077800Y0072899D01*
X0077800Y0073897D02*
X0078378Y0073897D01*
X0078378Y0074896D02*
X0077800Y0074896D01*
X0077800Y0075894D02*
X0110062Y0075894D01*
X0109211Y0074896D02*
X0087677Y0074896D01*
X0087677Y0073897D02*
X0100221Y0073897D01*
X0100507Y0074184D02*
X0099863Y0073540D01*
X0099863Y0068691D01*
X0100507Y0068047D01*
X0103166Y0068047D01*
X0104444Y0066769D01*
X0103989Y0061199D01*
X0102335Y0061199D01*
X0101691Y0060555D01*
X0101691Y0052951D01*
X0102335Y0052307D01*
X0110333Y0052307D01*
X0110978Y0052951D01*
X0110978Y0060555D01*
X0110333Y0061199D01*
X0109407Y0061199D01*
X0109893Y0067153D01*
X0109937Y0067258D01*
X0109937Y0067685D01*
X0109971Y0068110D01*
X0109937Y0068218D01*
X0109937Y0068332D01*
X0109902Y0068415D01*
X0110074Y0068415D01*
X0110177Y0068458D01*
X0110287Y0068467D01*
X0110670Y0068662D01*
X0111066Y0068826D01*
X0111145Y0068905D01*
X0111244Y0068955D01*
X0111522Y0069282D01*
X0111826Y0069586D01*
X0111868Y0069689D01*
X0114331Y0072579D01*
X0118820Y0072579D01*
X0119464Y0073224D01*
X0119464Y0082796D01*
X0118820Y0083441D01*
X0112766Y0083441D01*
X0112766Y0083471D01*
X0112355Y0084464D01*
X0111595Y0085223D01*
X0110603Y0085634D01*
X0109529Y0085634D01*
X0108563Y0085234D01*
X0107980Y0085234D01*
X0107980Y0085358D01*
X0107335Y0086003D01*
X0100519Y0086003D01*
X0099874Y0085358D01*
X0099874Y0080510D01*
X0100519Y0079866D01*
X0107335Y0079866D01*
X0107980Y0080510D01*
X0107980Y0080634D01*
X0108563Y0080634D01*
X0109529Y0080234D01*
X0110603Y0080234D01*
X0111359Y0080547D01*
X0111359Y0077417D01*
X0108290Y0073815D01*
X0107693Y0073815D01*
X0107324Y0074184D01*
X0100507Y0074184D01*
X0099863Y0072899D02*
X0095602Y0072899D01*
X0095602Y0071900D02*
X0099863Y0071900D01*
X0099863Y0070902D02*
X0095602Y0070902D01*
X0095602Y0069903D02*
X0099863Y0069903D01*
X0099863Y0068905D02*
X0095188Y0068905D01*
X0093850Y0067906D02*
X0103307Y0067906D01*
X0104305Y0066908D02*
X0093850Y0066908D01*
X0093850Y0065909D02*
X0104374Y0065909D01*
X0104292Y0064911D02*
X0093850Y0064911D01*
X0093850Y0063912D02*
X0104210Y0063912D01*
X0104129Y0062914D02*
X0093850Y0062914D01*
X0093850Y0061915D02*
X0104047Y0061915D01*
X0102053Y0060917D02*
X0094474Y0060917D01*
X0094836Y0059918D02*
X0101691Y0059918D01*
X0101691Y0058920D02*
X0095101Y0058920D01*
X0095515Y0057921D02*
X0101691Y0057921D01*
X0101691Y0056923D02*
X0095640Y0056923D01*
X0095451Y0055924D02*
X0101691Y0055924D01*
X0101691Y0054926D02*
X0095017Y0054926D01*
X0094836Y0053927D02*
X0101691Y0053927D01*
X0101713Y0052929D02*
X0094813Y0052929D01*
X0089250Y0067906D02*
X0087677Y0067906D01*
X0087677Y0068905D02*
X0087911Y0068905D01*
X0087032Y0078362D02*
X0079023Y0078362D01*
X0078378Y0079006D01*
X0078378Y0086217D01*
X0079023Y0086861D01*
X0087032Y0086861D01*
X0087677Y0086217D01*
X0087677Y0084979D01*
X0088106Y0085408D01*
X0094923Y0085408D01*
X0095567Y0084764D01*
X0095567Y0081097D01*
X0094923Y0080452D01*
X0092289Y0080452D01*
X0092149Y0080312D01*
X0087677Y0080312D01*
X0087677Y0079006D01*
X0087032Y0078362D01*
X0087560Y0078890D02*
X0111359Y0078890D01*
X0111359Y0079888D02*
X0107358Y0079888D01*
X0110912Y0076893D02*
X0077800Y0076893D01*
X0077800Y0077891D02*
X0111359Y0077891D01*
X0108360Y0073897D02*
X0107611Y0073897D01*
X0112051Y0069903D02*
X0145291Y0069903D01*
X0145291Y0069815D02*
X0148276Y0069815D01*
X0148276Y0073587D01*
X0146594Y0073587D01*
X0146212Y0073484D01*
X0145870Y0073287D01*
X0145591Y0073008D01*
X0145394Y0072666D01*
X0145291Y0072284D01*
X0145291Y0069815D01*
X0145291Y0068846D02*
X0145291Y0066377D01*
X0145394Y0065996D01*
X0145591Y0065654D01*
X0145870Y0065375D01*
X0146212Y0065177D01*
X0146594Y0065075D01*
X0148276Y0065075D01*
X0148276Y0068846D01*
X0149244Y0068846D01*
X0149244Y0065075D01*
X0150926Y0065075D01*
X0151307Y0065177D01*
X0151649Y0065375D01*
X0151929Y0065654D01*
X0152126Y0065996D01*
X0152228Y0066377D01*
X0152228Y0068846D01*
X0149244Y0068846D01*
X0149244Y0069815D01*
X0148276Y0069815D01*
X0148276Y0068846D01*
X0145291Y0068846D01*
X0145291Y0067906D02*
X0109955Y0067906D01*
X0109873Y0066908D02*
X0145291Y0066908D01*
X0145444Y0065909D02*
X0109791Y0065909D01*
X0109710Y0064911D02*
X0157407Y0064911D01*
X0156843Y0065475D02*
X0158101Y0064217D01*
X0158101Y0057592D01*
X0158745Y0056947D01*
X0160882Y0056947D01*
X0162568Y0052659D01*
X0161948Y0052039D01*
X0161400Y0050716D01*
X0161400Y0049284D01*
X0161948Y0047961D01*
X0162961Y0046948D01*
X0164284Y0046400D01*
X0165716Y0046400D01*
X0167039Y0046948D01*
X0168052Y0047961D01*
X0168600Y0049284D01*
X0168600Y0050716D01*
X0168052Y0052039D01*
X0167455Y0052636D01*
X0167489Y0052715D01*
X0167300Y0053196D01*
X0167300Y0053713D01*
X0166965Y0054047D01*
X0165419Y0057980D01*
X0165419Y0064408D01*
X0164775Y0065053D01*
X0163771Y0065053D01*
X0162713Y0066111D01*
X0159493Y0069331D01*
X0160263Y0070101D01*
X0160529Y0070211D01*
X0161289Y0070971D01*
X0161700Y0071963D01*
X0161700Y0073037D01*
X0161289Y0074029D01*
X0160529Y0074789D01*
X0159537Y0075200D01*
X0158463Y0075200D01*
X0157471Y0074789D01*
X0156711Y0074029D01*
X0156362Y0073187D01*
X0153816Y0073187D01*
X0153172Y0072542D01*
X0153172Y0066119D01*
X0153816Y0065475D01*
X0156843Y0065475D01*
X0158101Y0063912D02*
X0155537Y0063912D01*
X0155568Y0063881D02*
X0154924Y0064525D01*
X0150076Y0064525D01*
X0149431Y0063881D01*
X0149431Y0062300D01*
X0121503Y0062300D01*
X0120537Y0062700D01*
X0119463Y0062700D01*
X0118471Y0062289D01*
X0117711Y0061529D01*
X0117300Y0060537D01*
X0117300Y0059463D01*
X0117711Y0058471D01*
X0118471Y0057711D01*
X0119463Y0057300D01*
X0120537Y0057300D01*
X0121503Y0057700D01*
X0149431Y0057700D01*
X0149431Y0057458D01*
X0150076Y0056813D01*
X0150200Y0056813D01*
X0150200Y0052791D01*
X0149448Y0052039D01*
X0148900Y0050716D01*
X0148900Y0049284D01*
X0149448Y0047961D01*
X0150461Y0046948D01*
X0151784Y0046400D01*
X0153216Y0046400D01*
X0154539Y0046948D01*
X0155552Y0047961D01*
X0156100Y0049284D01*
X0156100Y0050716D01*
X0155552Y0052039D01*
X0154800Y0052791D01*
X0154800Y0056813D01*
X0154924Y0056813D01*
X0155568Y0057458D01*
X0155568Y0063881D01*
X0155568Y0062914D02*
X0158101Y0062914D01*
X0158101Y0061915D02*
X0155568Y0061915D01*
X0155568Y0060917D02*
X0158101Y0060917D01*
X0158101Y0059918D02*
X0155568Y0059918D01*
X0155568Y0058920D02*
X0158101Y0058920D01*
X0158101Y0057921D02*
X0155568Y0057921D01*
X0155033Y0056923D02*
X0160892Y0056923D01*
X0161284Y0055924D02*
X0154800Y0055924D01*
X0154800Y0054926D02*
X0161677Y0054926D01*
X0162070Y0053927D02*
X0154800Y0053927D01*
X0154800Y0052929D02*
X0162462Y0052929D01*
X0161903Y0051930D02*
X0155597Y0051930D01*
X0156011Y0050932D02*
X0161489Y0050932D01*
X0161400Y0049933D02*
X0156100Y0049933D01*
X0155955Y0048934D02*
X0161545Y0048934D01*
X0161973Y0047936D02*
X0155527Y0047936D01*
X0154514Y0046937D02*
X0162986Y0046937D01*
X0167014Y0046937D02*
X0169200Y0046937D01*
X0169200Y0047936D02*
X0168027Y0047936D01*
X0168455Y0048934D02*
X0169200Y0048934D01*
X0169200Y0049933D02*
X0168600Y0049933D01*
X0168511Y0050932D02*
X0169200Y0050932D01*
X0169200Y0051930D02*
X0168097Y0051930D01*
X0167405Y0052929D02*
X0169200Y0052929D01*
X0169200Y0053927D02*
X0167085Y0053927D01*
X0166620Y0054926D02*
X0169200Y0054926D01*
X0169200Y0055924D02*
X0166227Y0055924D01*
X0165835Y0056923D02*
X0169200Y0056923D01*
X0165581Y0057921D02*
X0165442Y0057921D01*
X0165419Y0058920D02*
X0165581Y0058920D01*
X0165581Y0059918D02*
X0165419Y0059918D01*
X0165419Y0060917D02*
X0165581Y0060917D01*
X0165581Y0061915D02*
X0165419Y0061915D01*
X0165419Y0062914D02*
X0165581Y0062914D01*
X0165581Y0063912D02*
X0165419Y0063912D01*
X0164917Y0064911D02*
X0166083Y0064911D01*
X0169200Y0065909D02*
X0162914Y0065909D01*
X0161916Y0066908D02*
X0169200Y0066908D01*
X0169200Y0067906D02*
X0160917Y0067906D01*
X0159919Y0068905D02*
X0169200Y0068905D01*
X0169200Y0069903D02*
X0160065Y0069903D01*
X0161220Y0070902D02*
X0169200Y0070902D01*
X0169200Y0071900D02*
X0161674Y0071900D01*
X0161700Y0072899D02*
X0169200Y0072899D01*
X0169200Y0073897D02*
X0161344Y0073897D01*
X0160271Y0074896D02*
X0169200Y0074896D01*
X0169200Y0075894D02*
X0144661Y0075894D01*
X0144661Y0074896D02*
X0157729Y0074896D01*
X0156656Y0073897D02*
X0144661Y0073897D01*
X0144661Y0073224D02*
X0144661Y0082796D01*
X0144017Y0083441D01*
X0137200Y0083441D01*
X0136556Y0082796D01*
X0136556Y0079310D01*
X0136481Y0079279D01*
X0135721Y0078519D01*
X0135310Y0077527D01*
X0135310Y0076453D01*
X0135721Y0075461D01*
X0136481Y0074701D01*
X0136556Y0074670D01*
X0136556Y0073224D01*
X0137200Y0072579D01*
X0144017Y0072579D01*
X0144661Y0073224D01*
X0144336Y0072899D02*
X0145528Y0072899D01*
X0145291Y0071900D02*
X0113753Y0071900D01*
X0112902Y0070902D02*
X0145291Y0070902D01*
X0148276Y0070902D02*
X0149244Y0070902D01*
X0149244Y0071900D02*
X0148276Y0071900D01*
X0148276Y0072899D02*
X0149244Y0072899D01*
X0149244Y0073587D02*
X0149244Y0069815D01*
X0152228Y0069815D01*
X0152228Y0072284D01*
X0152126Y0072666D01*
X0151929Y0073008D01*
X0151649Y0073287D01*
X0151307Y0073484D01*
X0150926Y0073587D01*
X0149244Y0073587D01*
X0151991Y0072899D02*
X0153528Y0072899D01*
X0153172Y0071900D02*
X0152228Y0071900D01*
X0152228Y0070902D02*
X0153172Y0070902D01*
X0153172Y0069903D02*
X0152228Y0069903D01*
X0153172Y0068905D02*
X0149244Y0068905D01*
X0148276Y0068905D02*
X0111145Y0068905D01*
X0109628Y0063912D02*
X0149463Y0063912D01*
X0149431Y0062914D02*
X0109547Y0062914D01*
X0109465Y0061915D02*
X0118097Y0061915D01*
X0117457Y0060917D02*
X0110616Y0060917D01*
X0110978Y0059918D02*
X0117300Y0059918D01*
X0117525Y0058920D02*
X0110978Y0058920D01*
X0110978Y0057921D02*
X0118261Y0057921D01*
X0110978Y0056923D02*
X0149967Y0056923D01*
X0150200Y0055924D02*
X0110978Y0055924D01*
X0110978Y0054926D02*
X0150200Y0054926D01*
X0150200Y0053927D02*
X0110978Y0053927D01*
X0110955Y0052929D02*
X0150200Y0052929D01*
X0149403Y0051930D02*
X0077800Y0051930D01*
X0077800Y0050932D02*
X0148989Y0050932D01*
X0148900Y0049933D02*
X0077800Y0049933D01*
X0077800Y0048934D02*
X0149045Y0048934D01*
X0149473Y0047936D02*
X0077800Y0047936D01*
X0077800Y0046937D02*
X0150486Y0046937D01*
X0150926Y0043587D02*
X0149244Y0043587D01*
X0149244Y0039815D01*
X0148276Y0039815D01*
X0148276Y0043587D01*
X0146594Y0043587D01*
X0146212Y0043484D01*
X0145870Y0043287D01*
X0145591Y0043008D01*
X0145394Y0042666D01*
X0145291Y0042284D01*
X0145291Y0039815D01*
X0148276Y0039815D01*
X0148276Y0038846D01*
X0149244Y0038846D01*
X0149244Y0035075D01*
X0150926Y0035075D01*
X0151307Y0035177D01*
X0151649Y0035375D01*
X0151929Y0035654D01*
X0152126Y0035996D01*
X0152228Y0036377D01*
X0152228Y0038846D01*
X0149244Y0038846D01*
X0149244Y0039815D01*
X0152228Y0039815D01*
X0152228Y0042284D01*
X0152126Y0042666D01*
X0151929Y0043008D01*
X0151649Y0043287D01*
X0151307Y0043484D01*
X0150926Y0043587D01*
X0151966Y0042943D02*
X0153573Y0042943D01*
X0153172Y0041945D02*
X0152228Y0041945D01*
X0152228Y0040946D02*
X0153172Y0040946D01*
X0153172Y0039948D02*
X0152228Y0039948D01*
X0153172Y0038949D02*
X0149244Y0038949D01*
X0148276Y0038949D02*
X0144671Y0038949D01*
X0145291Y0038846D02*
X0145291Y0036377D01*
X0145394Y0035996D01*
X0145591Y0035654D01*
X0145870Y0035375D01*
X0146212Y0035177D01*
X0146594Y0035075D01*
X0148276Y0035075D01*
X0148276Y0038846D01*
X0145291Y0038846D01*
X0145291Y0037951D02*
X0144671Y0037951D01*
X0144671Y0036952D02*
X0145291Y0036952D01*
X0145418Y0035954D02*
X0144671Y0035954D01*
X0144671Y0034955D02*
X0157363Y0034955D01*
X0158101Y0033957D02*
X0155492Y0033957D01*
X0155568Y0032958D02*
X0158101Y0032958D01*
X0158101Y0031960D02*
X0155568Y0031960D01*
X0155568Y0030961D02*
X0158101Y0030961D01*
X0158101Y0029963D02*
X0155568Y0029963D01*
X0155568Y0028964D02*
X0158101Y0028964D01*
X0158101Y0027966D02*
X0155568Y0027966D01*
X0155078Y0026967D02*
X0158725Y0026967D01*
X0161267Y0025969D02*
X0154800Y0025969D01*
X0154800Y0024970D02*
X0161659Y0024970D01*
X0162052Y0023972D02*
X0154800Y0023972D01*
X0154800Y0022973D02*
X0162445Y0022973D01*
X0161921Y0021975D02*
X0155579Y0021975D01*
X0155992Y0020976D02*
X0161508Y0020976D01*
X0161400Y0019978D02*
X0156100Y0019978D01*
X0155974Y0018979D02*
X0161526Y0018979D01*
X0161940Y0017981D02*
X0155560Y0017981D01*
X0154573Y0016982D02*
X0162927Y0016982D01*
X0167923Y0012988D02*
X0110981Y0012988D01*
X0110981Y0013987D02*
X0168921Y0013987D01*
X0169920Y0014985D02*
X0110981Y0014985D01*
X0109555Y0022973D02*
X0118208Y0022973D01*
X0117503Y0023972D02*
X0109637Y0023972D01*
X0109718Y0024970D02*
X0117300Y0024970D01*
X0117479Y0025969D02*
X0109800Y0025969D01*
X0109881Y0026967D02*
X0118149Y0026967D01*
X0112962Y0030961D02*
X0149431Y0030961D01*
X0149431Y0029963D02*
X0112113Y0029963D01*
X0111263Y0028964D02*
X0149431Y0028964D01*
X0149431Y0027966D02*
X0109963Y0027966D01*
X0113811Y0031960D02*
X0149431Y0031960D01*
X0149431Y0032958D02*
X0144396Y0032958D01*
X0144671Y0033234D02*
X0144671Y0042806D01*
X0144027Y0043451D01*
X0137210Y0043451D01*
X0136566Y0042806D01*
X0136566Y0040320D01*
X0135607Y0040320D01*
X0134956Y0039669D01*
X0133991Y0039269D01*
X0133231Y0038509D01*
X0132820Y0037517D01*
X0132820Y0036443D01*
X0133231Y0035451D01*
X0133991Y0034691D01*
X0134983Y0034280D01*
X0136057Y0034280D01*
X0136566Y0034491D01*
X0136566Y0033234D01*
X0137210Y0032589D01*
X0144027Y0032589D01*
X0144671Y0033234D01*
X0144671Y0033957D02*
X0149507Y0033957D01*
X0149244Y0035954D02*
X0148276Y0035954D01*
X0148276Y0036952D02*
X0149244Y0036952D01*
X0149244Y0037951D02*
X0148276Y0037951D01*
X0148276Y0039948D02*
X0149244Y0039948D01*
X0149244Y0040946D02*
X0148276Y0040946D01*
X0148276Y0041945D02*
X0149244Y0041945D01*
X0149244Y0042943D02*
X0148276Y0042943D01*
X0145554Y0042943D02*
X0144534Y0042943D01*
X0144671Y0041945D02*
X0145291Y0041945D01*
X0145291Y0040946D02*
X0144671Y0040946D01*
X0144671Y0039948D02*
X0145291Y0039948D01*
X0152228Y0037951D02*
X0153172Y0037951D01*
X0153172Y0036952D02*
X0152228Y0036952D01*
X0152102Y0035954D02*
X0153337Y0035954D01*
X0136841Y0032958D02*
X0119199Y0032958D01*
X0119474Y0033957D02*
X0136566Y0033957D01*
X0133726Y0034955D02*
X0119474Y0034955D01*
X0119474Y0035954D02*
X0133023Y0035954D01*
X0132820Y0036952D02*
X0119474Y0036952D01*
X0119474Y0037951D02*
X0133000Y0037951D01*
X0133671Y0038949D02*
X0119474Y0038949D01*
X0119474Y0039948D02*
X0135235Y0039948D01*
X0136566Y0040946D02*
X0119474Y0040946D01*
X0119474Y0041945D02*
X0136566Y0041945D01*
X0136703Y0042943D02*
X0119337Y0042943D01*
X0111369Y0037951D02*
X0006900Y0037951D01*
X0006900Y0038949D02*
X0078348Y0038949D01*
X0078348Y0039948D02*
X0060493Y0039948D01*
X0061414Y0040946D02*
X0076801Y0040946D01*
X0075802Y0041945D02*
X0062341Y0041945D01*
X0063268Y0042943D02*
X0074804Y0042943D01*
X0073805Y0043942D02*
X0064195Y0043942D01*
X0065122Y0044940D02*
X0073200Y0044940D01*
X0073200Y0045939D02*
X0066050Y0045939D01*
X0066977Y0046937D02*
X0073200Y0046937D01*
X0073200Y0047936D02*
X0067904Y0047936D01*
X0068831Y0048934D02*
X0073200Y0048934D01*
X0073200Y0049933D02*
X0069758Y0049933D01*
X0070686Y0050932D02*
X0073200Y0050932D01*
X0073200Y0051930D02*
X0071613Y0051930D01*
X0072540Y0052929D02*
X0073200Y0052929D01*
X0078314Y0045939D02*
X0078348Y0045939D01*
X0078350Y0034955D02*
X0006900Y0034955D01*
X0006900Y0033957D02*
X0078348Y0033957D01*
X0078348Y0032958D02*
X0027250Y0032958D01*
X0027232Y0032976D02*
X0027876Y0032332D01*
X0027876Y0028468D01*
X0027232Y0027824D01*
X0023368Y0027824D01*
X0022724Y0028468D01*
X0022724Y0032332D01*
X0023368Y0032976D01*
X0027232Y0032976D01*
X0027876Y0031960D02*
X0078348Y0031960D01*
X0078348Y0030961D02*
X0027876Y0030961D01*
X0027876Y0029963D02*
X0078348Y0029963D01*
X0078348Y0028964D02*
X0027876Y0028964D01*
X0027374Y0027966D02*
X0078348Y0027966D01*
X0087645Y0034955D02*
X0109270Y0034955D01*
X0108421Y0033957D02*
X0107464Y0033957D01*
X0110119Y0035954D02*
X0006900Y0035954D01*
X0006900Y0036952D02*
X0110969Y0036952D01*
X0119139Y0072899D02*
X0136881Y0072899D01*
X0136556Y0073897D02*
X0119464Y0073897D01*
X0119464Y0074896D02*
X0136286Y0074896D01*
X0135541Y0075894D02*
X0119464Y0075894D01*
X0119464Y0076893D02*
X0135310Y0076893D01*
X0135461Y0077891D02*
X0119464Y0077891D01*
X0119464Y0078890D02*
X0136091Y0078890D01*
X0136556Y0079888D02*
X0119464Y0079888D01*
X0119464Y0080887D02*
X0136556Y0080887D01*
X0136556Y0081885D02*
X0119464Y0081885D01*
X0119377Y0082884D02*
X0136643Y0082884D01*
X0144574Y0082884D02*
X0169200Y0082884D01*
X0169200Y0083882D02*
X0112596Y0083882D01*
X0111937Y0084881D02*
X0150028Y0084881D01*
X0150461Y0084448D02*
X0151784Y0083900D01*
X0153216Y0083900D01*
X0154539Y0084448D01*
X0155552Y0085461D01*
X0156100Y0086784D01*
X0156100Y0088216D01*
X0155552Y0089539D01*
X0154800Y0090291D01*
X0154800Y0094813D01*
X0154924Y0094813D01*
X0155568Y0095458D01*
X0155568Y0101881D01*
X0154924Y0102525D01*
X0150076Y0102525D01*
X0149851Y0102300D01*
X0121503Y0102300D01*
X0120537Y0102700D01*
X0119463Y0102700D01*
X0118471Y0102289D01*
X0117711Y0101529D01*
X0117300Y0100537D01*
X0117300Y0099463D01*
X0117711Y0098471D01*
X0118471Y0097711D01*
X0119463Y0097300D01*
X0120537Y0097300D01*
X0121503Y0097700D01*
X0149431Y0097700D01*
X0149431Y0095458D01*
X0150076Y0094813D01*
X0150200Y0094813D01*
X0150200Y0090291D01*
X0149448Y0089539D01*
X0148900Y0088216D01*
X0148900Y0086784D01*
X0149448Y0085461D01*
X0150461Y0084448D01*
X0149275Y0085879D02*
X0107459Y0085879D01*
X0110332Y0092305D02*
X0102334Y0092305D01*
X0101689Y0092950D01*
X0101689Y0100554D01*
X0102334Y0101198D01*
X0103990Y0101198D01*
X0104445Y0106725D01*
X0103137Y0108033D01*
X0100479Y0108033D01*
X0099834Y0108677D01*
X0099834Y0113526D01*
X0100479Y0114170D01*
X0107295Y0114170D01*
X0107664Y0113801D01*
X0108259Y0113801D01*
X0111349Y0117415D01*
X0111349Y0121615D01*
X0111289Y0121471D01*
X0110529Y0120711D01*
X0109537Y0120300D01*
X0108463Y0120300D01*
X0107951Y0120512D01*
X0107951Y0120496D01*
X0107307Y0119852D01*
X0100490Y0119852D01*
X0099845Y0120496D01*
X0099845Y0125344D01*
X0100490Y0125989D01*
X0107307Y0125989D01*
X0107849Y0125446D01*
X0108463Y0125700D01*
X0109537Y0125700D01*
X0110529Y0125289D01*
X0111289Y0124529D01*
X0111700Y0123537D01*
X0111700Y0123137D01*
X0111993Y0123431D01*
X0118810Y0123431D01*
X0119454Y0122786D01*
X0119454Y0113214D01*
X0118810Y0112569D01*
X0114310Y0112569D01*
X0111834Y0109672D01*
X0111792Y0109572D01*
X0111487Y0109267D01*
X0111206Y0108939D01*
X0111109Y0108889D01*
X0111032Y0108812D01*
X0110634Y0108647D01*
X0110249Y0108451D01*
X0110140Y0108443D01*
X0110040Y0108401D01*
X0109891Y0108401D01*
X0109938Y0108287D01*
X0109938Y0108173D01*
X0109973Y0108064D01*
X0109938Y0107639D01*
X0109938Y0107213D01*
X0109894Y0107108D01*
X0109408Y0101198D01*
X0110332Y0101198D01*
X0110976Y0100554D01*
X0110976Y0092950D01*
X0110332Y0092305D01*
X0110895Y0092869D02*
X0150200Y0092869D01*
X0150200Y0091870D02*
X0077800Y0091870D01*
X0077800Y0090872D02*
X0150200Y0090872D01*
X0149782Y0089873D02*
X0077800Y0089873D01*
X0077800Y0088875D02*
X0149173Y0088875D01*
X0148900Y0087876D02*
X0077800Y0087876D01*
X0077800Y0086878D02*
X0148900Y0086878D01*
X0154972Y0084881D02*
X0162528Y0084881D01*
X0162961Y0084448D02*
X0164284Y0083900D01*
X0165716Y0083900D01*
X0167039Y0084448D01*
X0168052Y0085461D01*
X0168600Y0086784D01*
X0168600Y0088216D01*
X0168052Y0089539D01*
X0167455Y0090136D01*
X0167489Y0090215D01*
X0167300Y0090696D01*
X0167300Y0091213D01*
X0166965Y0091547D01*
X0165419Y0095480D01*
X0165419Y0101908D01*
X0164775Y0102553D01*
X0164060Y0102553D01*
X0164060Y0102764D01*
X0162713Y0104111D01*
X0159309Y0107515D01*
X0159309Y0110542D01*
X0158664Y0111187D01*
X0157066Y0111187D01*
X0154800Y0113453D01*
X0154059Y0114194D01*
X0154256Y0114194D01*
X0154900Y0114838D01*
X0154900Y0121749D01*
X0154800Y0121849D01*
X0154800Y0124997D01*
X0155200Y0125963D01*
X0155200Y0127037D01*
X0154789Y0128029D01*
X0154029Y0128789D01*
X0153037Y0129200D01*
X0151963Y0129200D01*
X0150971Y0128789D01*
X0150211Y0128029D01*
X0149800Y0127037D01*
X0149800Y0125963D01*
X0150200Y0124997D01*
X0150200Y0121849D01*
X0150100Y0121749D01*
X0150100Y0114838D01*
X0150138Y0114800D01*
X0149862Y0114800D01*
X0149900Y0114838D01*
X0149900Y0121749D01*
X0149256Y0122394D01*
X0145744Y0122394D01*
X0145100Y0121749D01*
X0145100Y0114838D01*
X0145200Y0114738D01*
X0145200Y0111547D01*
X0145665Y0111082D01*
X0145591Y0111008D01*
X0145394Y0110666D01*
X0145291Y0110284D01*
X0145291Y0107815D01*
X0148276Y0107815D01*
X0148276Y0106846D01*
X0149244Y0106846D01*
X0149244Y0103075D01*
X0150926Y0103075D01*
X0151307Y0103177D01*
X0151649Y0103375D01*
X0151929Y0103654D01*
X0152126Y0103996D01*
X0152228Y0104377D01*
X0152228Y0106846D01*
X0149244Y0106846D01*
X0149244Y0107815D01*
X0152228Y0107815D01*
X0152228Y0109519D01*
X0153172Y0108576D01*
X0153172Y0104119D01*
X0153816Y0103475D01*
X0156843Y0103475D01*
X0158255Y0102063D01*
X0158101Y0101908D01*
X0158101Y0095092D01*
X0158745Y0094447D01*
X0160882Y0094447D01*
X0162568Y0090159D01*
X0161948Y0089539D01*
X0161400Y0088216D01*
X0161400Y0086784D01*
X0161948Y0085461D01*
X0162961Y0084448D01*
X0161775Y0085879D02*
X0155725Y0085879D01*
X0156100Y0086878D02*
X0161400Y0086878D01*
X0161400Y0087876D02*
X0156100Y0087876D01*
X0155827Y0088875D02*
X0161673Y0088875D01*
X0162282Y0089873D02*
X0155218Y0089873D01*
X0154800Y0090872D02*
X0162288Y0090872D01*
X0161895Y0091870D02*
X0154800Y0091870D01*
X0154800Y0092869D02*
X0161503Y0092869D01*
X0161110Y0093868D02*
X0154800Y0093868D01*
X0154977Y0094866D02*
X0158326Y0094866D01*
X0158101Y0095865D02*
X0155568Y0095865D01*
X0155568Y0096863D02*
X0158101Y0096863D01*
X0158101Y0097862D02*
X0155568Y0097862D01*
X0155568Y0098860D02*
X0158101Y0098860D01*
X0158101Y0099859D02*
X0155568Y0099859D01*
X0155568Y0100857D02*
X0158101Y0100857D01*
X0158101Y0101856D02*
X0155568Y0101856D01*
X0157464Y0102854D02*
X0109544Y0102854D01*
X0109462Y0101856D02*
X0118037Y0101856D01*
X0117433Y0100857D02*
X0110673Y0100857D01*
X0110976Y0099859D02*
X0117300Y0099859D01*
X0117550Y0098860D02*
X0110976Y0098860D01*
X0110976Y0097862D02*
X0118320Y0097862D01*
X0110976Y0096863D02*
X0149431Y0096863D01*
X0149431Y0095865D02*
X0110976Y0095865D01*
X0110976Y0094866D02*
X0150023Y0094866D01*
X0150200Y0093868D02*
X0110976Y0093868D01*
X0104044Y0101856D02*
X0093821Y0101856D01*
X0093821Y0101283D02*
X0093821Y0108661D01*
X0094929Y0108661D01*
X0095573Y0109305D01*
X0095573Y0112972D01*
X0094929Y0113617D01*
X0092295Y0113617D01*
X0092215Y0113697D01*
X0087651Y0113697D01*
X0087651Y0115003D01*
X0087007Y0115647D01*
X0078997Y0115647D01*
X0078353Y0115003D01*
X0078353Y0107792D01*
X0078997Y0107148D01*
X0087007Y0107148D01*
X0087651Y0107792D01*
X0087651Y0109097D01*
X0087676Y0109097D01*
X0088112Y0108661D01*
X0089221Y0108661D01*
X0089221Y0101258D01*
X0089194Y0101198D01*
X0086192Y0101198D01*
X0085548Y0100554D01*
X0085548Y0092950D01*
X0086192Y0092305D01*
X0094190Y0092305D01*
X0094834Y0092950D01*
X0094834Y0095243D01*
X0095052Y0095461D01*
X0095600Y0096784D01*
X0095600Y0098216D01*
X0095052Y0099539D01*
X0094834Y0099757D01*
X0094834Y0100554D01*
X0094190Y0101198D01*
X0093866Y0101198D01*
X0093841Y0101262D01*
X0093821Y0101283D01*
X0094531Y0100857D02*
X0101992Y0100857D01*
X0101689Y0099859D02*
X0094834Y0099859D01*
X0095333Y0098860D02*
X0101689Y0098860D01*
X0101689Y0097862D02*
X0095600Y0097862D01*
X0095600Y0096863D02*
X0101689Y0096863D01*
X0101689Y0095865D02*
X0095219Y0095865D01*
X0094834Y0094866D02*
X0101689Y0094866D01*
X0101689Y0093868D02*
X0094834Y0093868D01*
X0094753Y0092869D02*
X0101770Y0092869D01*
X0100395Y0085879D02*
X0087677Y0085879D01*
X0085628Y0092869D02*
X0077800Y0092869D01*
X0077800Y0093868D02*
X0085548Y0093868D01*
X0085548Y0094866D02*
X0077800Y0094866D01*
X0077800Y0095865D02*
X0085548Y0095865D01*
X0085548Y0096863D02*
X0077800Y0096863D01*
X0077800Y0097862D02*
X0085548Y0097862D01*
X0085548Y0098860D02*
X0077800Y0098860D01*
X0077800Y0099859D02*
X0085548Y0099859D01*
X0085851Y0100857D02*
X0077800Y0100857D01*
X0077800Y0101856D02*
X0089221Y0101856D01*
X0089221Y0102854D02*
X0077800Y0102854D01*
X0077800Y0103853D02*
X0089221Y0103853D01*
X0089221Y0104851D02*
X0077800Y0104851D01*
X0077800Y0105850D02*
X0089221Y0105850D01*
X0089221Y0106848D02*
X0077800Y0106848D01*
X0077800Y0107847D02*
X0078353Y0107847D01*
X0078353Y0108845D02*
X0077800Y0108845D01*
X0077800Y0109844D02*
X0078353Y0109844D01*
X0078353Y0110842D02*
X0077800Y0110842D01*
X0077800Y0111841D02*
X0078353Y0111841D01*
X0078353Y0112839D02*
X0077800Y0112839D01*
X0077800Y0113838D02*
X0078353Y0113838D01*
X0078353Y0114836D02*
X0077800Y0114836D01*
X0077800Y0115835D02*
X0109998Y0115835D01*
X0110852Y0116833D02*
X0077800Y0116833D01*
X0077800Y0117832D02*
X0111349Y0117832D01*
X0111349Y0118830D02*
X0087493Y0118830D01*
X0087651Y0119829D02*
X0111349Y0119829D01*
X0111349Y0120827D02*
X0110646Y0120827D01*
X0111582Y0123823D02*
X0150200Y0123823D01*
X0150200Y0124821D02*
X0110997Y0124821D01*
X0107475Y0125820D02*
X0149859Y0125820D01*
X0149800Y0126818D02*
X0087032Y0126818D01*
X0087651Y0125820D02*
X0100321Y0125820D01*
X0099845Y0124821D02*
X0095467Y0124821D01*
X0095538Y0123823D02*
X0099845Y0123823D01*
X0099845Y0122824D02*
X0095538Y0122824D01*
X0095538Y0121826D02*
X0099845Y0121826D01*
X0099845Y0120827D02*
X0095283Y0120827D01*
X0087651Y0114836D02*
X0109144Y0114836D01*
X0108290Y0113838D02*
X0107628Y0113838D01*
X0111980Y0109844D02*
X0145291Y0109844D01*
X0145291Y0108845D02*
X0111065Y0108845D01*
X0109955Y0107847D02*
X0145291Y0107847D01*
X0145291Y0106846D02*
X0145291Y0104377D01*
X0145394Y0103996D01*
X0145591Y0103654D01*
X0145870Y0103375D01*
X0146212Y0103177D01*
X0146594Y0103075D01*
X0148276Y0103075D01*
X0148276Y0106846D01*
X0145291Y0106846D01*
X0145291Y0105850D02*
X0109791Y0105850D01*
X0109873Y0106848D02*
X0148276Y0106848D01*
X0149244Y0106848D02*
X0153172Y0106848D01*
X0153172Y0105850D02*
X0152228Y0105850D01*
X0152228Y0104851D02*
X0153172Y0104851D01*
X0153438Y0103853D02*
X0152043Y0103853D01*
X0149244Y0103853D02*
X0148276Y0103853D01*
X0148276Y0104851D02*
X0149244Y0104851D01*
X0149244Y0105850D02*
X0148276Y0105850D01*
X0145291Y0104851D02*
X0109709Y0104851D01*
X0109626Y0103853D02*
X0145476Y0103853D01*
X0145496Y0110842D02*
X0112834Y0110842D01*
X0113688Y0111841D02*
X0145200Y0111841D01*
X0145200Y0112839D02*
X0144277Y0112839D01*
X0144007Y0112569D02*
X0144651Y0113214D01*
X0144651Y0122786D01*
X0144007Y0123431D01*
X0137190Y0123431D01*
X0136546Y0122786D01*
X0136546Y0120027D01*
X0135971Y0119789D01*
X0135211Y0119029D01*
X0134800Y0118037D01*
X0134800Y0116963D01*
X0135211Y0115971D01*
X0135971Y0115211D01*
X0136546Y0114973D01*
X0136546Y0113214D01*
X0137190Y0112569D01*
X0144007Y0112569D01*
X0144651Y0113838D02*
X0145200Y0113838D01*
X0145102Y0114836D02*
X0144651Y0114836D01*
X0144651Y0115835D02*
X0145100Y0115835D01*
X0145100Y0116833D02*
X0144651Y0116833D01*
X0144651Y0117832D02*
X0145100Y0117832D01*
X0145100Y0118830D02*
X0144651Y0118830D01*
X0144651Y0119829D02*
X0145100Y0119829D01*
X0145100Y0120827D02*
X0144651Y0120827D01*
X0144651Y0121826D02*
X0145176Y0121826D01*
X0144613Y0122824D02*
X0150200Y0122824D01*
X0150177Y0121826D02*
X0149823Y0121826D01*
X0149900Y0120827D02*
X0150100Y0120827D01*
X0150100Y0119829D02*
X0149900Y0119829D01*
X0149900Y0118830D02*
X0150100Y0118830D01*
X0150100Y0117832D02*
X0149900Y0117832D01*
X0149900Y0116833D02*
X0150100Y0116833D01*
X0150100Y0115835D02*
X0149900Y0115835D01*
X0149898Y0114836D02*
X0150102Y0114836D01*
X0154415Y0113838D02*
X0160838Y0113838D01*
X0161003Y0113794D02*
X0162350Y0113794D01*
X0162350Y0118144D01*
X0162650Y0118144D01*
X0162650Y0118444D01*
X0162350Y0118444D01*
X0162350Y0122794D01*
X0161003Y0122794D01*
X0160621Y0122691D01*
X0160279Y0122494D01*
X0160000Y0122215D01*
X0159802Y0121873D01*
X0159797Y0121852D01*
X0159400Y0122249D01*
X0159400Y0130582D01*
X0159789Y0130971D01*
X0160200Y0131963D01*
X0160200Y0133037D01*
X0159789Y0134029D01*
X0159029Y0134789D01*
X0158037Y0135200D01*
X0156963Y0135200D01*
X0155971Y0134789D01*
X0155211Y0134029D01*
X0154800Y0133037D01*
X0154800Y0131963D01*
X0155211Y0130971D01*
X0155600Y0130582D01*
X0155600Y0122249D01*
X0155100Y0121749D01*
X0155100Y0114838D01*
X0155744Y0114194D01*
X0159256Y0114194D01*
X0159797Y0114735D01*
X0159802Y0114715D01*
X0160000Y0114373D01*
X0160279Y0114093D01*
X0160621Y0113896D01*
X0161003Y0113794D01*
X0162350Y0113838D02*
X0162650Y0113838D01*
X0162650Y0113794D02*
X0163997Y0113794D01*
X0164379Y0113896D01*
X0164721Y0114093D01*
X0165000Y0114373D01*
X0165198Y0114715D01*
X0165300Y0115096D01*
X0165300Y0118144D01*
X0162650Y0118144D01*
X0162650Y0113794D01*
X0162650Y0114836D02*
X0162350Y0114836D01*
X0162350Y0115835D02*
X0162650Y0115835D01*
X0162650Y0116833D02*
X0162350Y0116833D01*
X0162350Y0117832D02*
X0162650Y0117832D01*
X0162650Y0118444D02*
X0165300Y0118444D01*
X0165300Y0121491D01*
X0165198Y0121873D01*
X0165000Y0122215D01*
X0164721Y0122494D01*
X0164379Y0122691D01*
X0163997Y0122794D01*
X0162650Y0122794D01*
X0162650Y0118444D01*
X0162650Y0118830D02*
X0162350Y0118830D01*
X0162350Y0119829D02*
X0162650Y0119829D01*
X0162650Y0120827D02*
X0162350Y0120827D01*
X0162350Y0121826D02*
X0162650Y0121826D01*
X0165210Y0121826D02*
X0169200Y0121826D01*
X0169200Y0122824D02*
X0159400Y0122824D01*
X0159400Y0123823D02*
X0169200Y0123823D01*
X0169200Y0124821D02*
X0159400Y0124821D01*
X0159400Y0125820D02*
X0169200Y0125820D01*
X0169200Y0126818D02*
X0159400Y0126818D01*
X0159400Y0127817D02*
X0169200Y0127817D01*
X0169200Y0128815D02*
X0159400Y0128815D01*
X0159400Y0129814D02*
X0169200Y0129814D01*
X0169200Y0130812D02*
X0159631Y0130812D01*
X0160137Y0131811D02*
X0169200Y0131811D01*
X0169200Y0132809D02*
X0160200Y0132809D01*
X0159881Y0133808D02*
X0169200Y0133808D01*
X0169200Y0134806D02*
X0158987Y0134806D01*
X0156013Y0134806D02*
X0077800Y0134806D01*
X0077800Y0133808D02*
X0155119Y0133808D01*
X0154800Y0132809D02*
X0077800Y0132809D01*
X0077800Y0131811D02*
X0154863Y0131811D01*
X0155369Y0130812D02*
X0077800Y0130812D01*
X0077800Y0129814D02*
X0155600Y0129814D01*
X0155600Y0128815D02*
X0153966Y0128815D01*
X0154877Y0127817D02*
X0155600Y0127817D01*
X0155600Y0126818D02*
X0155200Y0126818D01*
X0155141Y0125820D02*
X0155600Y0125820D01*
X0155600Y0124821D02*
X0154800Y0124821D01*
X0154800Y0123823D02*
X0155600Y0123823D01*
X0155600Y0122824D02*
X0154800Y0122824D01*
X0154823Y0121826D02*
X0155177Y0121826D01*
X0155100Y0120827D02*
X0154900Y0120827D01*
X0154900Y0119829D02*
X0155100Y0119829D01*
X0155100Y0118830D02*
X0154900Y0118830D01*
X0154900Y0117832D02*
X0155100Y0117832D01*
X0155100Y0116833D02*
X0154900Y0116833D01*
X0154900Y0115835D02*
X0155100Y0115835D01*
X0155102Y0114836D02*
X0154898Y0114836D01*
X0155413Y0112839D02*
X0169200Y0112839D01*
X0169200Y0111841D02*
X0156412Y0111841D01*
X0159009Y0110842D02*
X0169200Y0110842D01*
X0169200Y0109844D02*
X0159309Y0109844D01*
X0159309Y0108845D02*
X0169200Y0108845D01*
X0169200Y0107847D02*
X0159309Y0107847D01*
X0159975Y0106848D02*
X0169200Y0106848D01*
X0169200Y0105850D02*
X0160974Y0105850D01*
X0161972Y0104851D02*
X0169200Y0104851D01*
X0169200Y0103853D02*
X0162971Y0103853D01*
X0163969Y0102854D02*
X0169200Y0102854D01*
X0165581Y0101856D02*
X0165419Y0101856D01*
X0165419Y0100857D02*
X0165581Y0100857D01*
X0165581Y0099859D02*
X0165419Y0099859D01*
X0165419Y0098860D02*
X0165581Y0098860D01*
X0165581Y0097862D02*
X0165419Y0097862D01*
X0165419Y0096863D02*
X0165581Y0096863D01*
X0165581Y0095865D02*
X0165419Y0095865D01*
X0165660Y0094866D02*
X0165807Y0094866D01*
X0166053Y0093868D02*
X0169200Y0093868D01*
X0169200Y0092869D02*
X0166445Y0092869D01*
X0166838Y0091870D02*
X0169200Y0091870D01*
X0169200Y0090872D02*
X0167300Y0090872D01*
X0167718Y0089873D02*
X0169200Y0089873D01*
X0169200Y0088875D02*
X0168327Y0088875D01*
X0168600Y0087876D02*
X0169200Y0087876D01*
X0169200Y0086878D02*
X0168600Y0086878D01*
X0168225Y0085879D02*
X0169200Y0085879D01*
X0169200Y0084881D02*
X0167472Y0084881D01*
X0169200Y0081885D02*
X0144661Y0081885D01*
X0144661Y0080887D02*
X0169200Y0080887D01*
X0169200Y0079888D02*
X0144661Y0079888D01*
X0144661Y0078890D02*
X0169200Y0078890D01*
X0169200Y0077891D02*
X0144661Y0077891D01*
X0144661Y0076893D02*
X0169200Y0076893D01*
X0153172Y0067906D02*
X0152228Y0067906D01*
X0152228Y0066908D02*
X0153172Y0066908D01*
X0153382Y0065909D02*
X0152076Y0065909D01*
X0149244Y0065909D02*
X0148276Y0065909D01*
X0148276Y0066908D02*
X0149244Y0066908D01*
X0149244Y0067906D02*
X0148276Y0067906D01*
X0148276Y0069903D02*
X0149244Y0069903D01*
X0152228Y0107847D02*
X0153172Y0107847D01*
X0152902Y0108845D02*
X0152228Y0108845D01*
X0164162Y0113838D02*
X0169200Y0113838D01*
X0169200Y0114836D02*
X0165230Y0114836D01*
X0165300Y0115835D02*
X0169200Y0115835D01*
X0169200Y0116833D02*
X0165300Y0116833D01*
X0165300Y0117832D02*
X0169200Y0117832D01*
X0169200Y0118830D02*
X0165300Y0118830D01*
X0165300Y0119829D02*
X0169200Y0119829D01*
X0169200Y0120827D02*
X0165300Y0120827D01*
X0151034Y0128815D02*
X0077800Y0128815D01*
X0077800Y0127817D02*
X0078402Y0127817D01*
X0081598Y0127817D02*
X0150123Y0127817D01*
X0150744Y0137606D02*
X0154256Y0137606D01*
X0154900Y0138251D01*
X0154900Y0145162D01*
X0154461Y0145601D01*
X0155200Y0145601D01*
X0155200Y0145262D01*
X0155100Y0145162D01*
X0155100Y0138251D01*
X0155744Y0137606D01*
X0159256Y0137606D01*
X0159900Y0138251D01*
X0159900Y0145162D01*
X0159800Y0145262D01*
X0159800Y0145992D01*
X0160053Y0146245D01*
X0160053Y0152275D01*
X0159408Y0152919D01*
X0152592Y0152919D01*
X0151947Y0152275D01*
X0151947Y0146245D01*
X0152386Y0145806D01*
X0150744Y0145806D01*
X0150100Y0145162D01*
X0150100Y0138251D01*
X0150744Y0137606D01*
X0150549Y0137802D02*
X0149451Y0137802D01*
X0149256Y0137606D02*
X0149900Y0138251D01*
X0149900Y0145162D01*
X0149540Y0145522D01*
X0149540Y0151947D01*
X0150255Y0151947D01*
X0150899Y0152592D01*
X0150899Y0159408D01*
X0150255Y0160053D01*
X0144225Y0160053D01*
X0143581Y0159408D01*
X0143581Y0152592D01*
X0144225Y0151947D01*
X0144940Y0151947D01*
X0144940Y0141013D01*
X0145100Y0140854D01*
X0145100Y0138251D01*
X0145744Y0137606D01*
X0149256Y0137606D01*
X0149900Y0138801D02*
X0150100Y0138801D01*
X0150100Y0139799D02*
X0149900Y0139799D01*
X0149900Y0140798D02*
X0150100Y0140798D01*
X0150100Y0141796D02*
X0149900Y0141796D01*
X0149900Y0142795D02*
X0150100Y0142795D01*
X0150100Y0143793D02*
X0149900Y0143793D01*
X0149900Y0144792D02*
X0150100Y0144792D01*
X0149540Y0145790D02*
X0150728Y0145790D01*
X0149540Y0146789D02*
X0151947Y0146789D01*
X0151947Y0147787D02*
X0149540Y0147787D01*
X0149540Y0148786D02*
X0151947Y0148786D01*
X0151947Y0149784D02*
X0149540Y0149784D01*
X0149540Y0150783D02*
X0151947Y0150783D01*
X0151947Y0151781D02*
X0149540Y0151781D01*
X0150899Y0152780D02*
X0152452Y0152780D01*
X0151947Y0153778D02*
X0150899Y0153778D01*
X0150899Y0154777D02*
X0151947Y0154777D01*
X0151947Y0155775D02*
X0150899Y0155775D01*
X0150899Y0156774D02*
X0151947Y0156774D01*
X0151947Y0157772D02*
X0150899Y0157772D01*
X0150899Y0158771D02*
X0151947Y0158771D01*
X0151962Y0159769D02*
X0150538Y0159769D01*
X0152675Y0161766D02*
X0153231Y0161766D01*
X0153231Y0162765D02*
X0152675Y0162765D01*
X0152675Y0163763D02*
X0153231Y0163763D01*
X0153220Y0164762D02*
X0152675Y0164762D01*
X0152675Y0165760D02*
X0153231Y0165760D01*
X0153231Y0166759D02*
X0152675Y0166759D01*
X0152675Y0167757D02*
X0153231Y0167757D01*
X0156347Y0169754D02*
X0156458Y0169754D01*
X0156421Y0170753D02*
X0157359Y0170753D01*
X0157800Y0171751D02*
X0156421Y0171751D01*
X0156421Y0172750D02*
X0157800Y0172750D01*
X0157800Y0173748D02*
X0156421Y0173748D01*
X0156421Y0174747D02*
X0157800Y0174747D01*
X0157800Y0175745D02*
X0150500Y0175745D01*
X0150500Y0176634D02*
X0156421Y0176634D01*
X0156421Y0182237D01*
X0156319Y0182618D01*
X0156122Y0182960D01*
X0155842Y0183240D01*
X0155500Y0183437D01*
X0155119Y0183539D01*
X0150500Y0183539D01*
X0150500Y0176634D01*
X0150500Y0176744D02*
X0149500Y0176744D01*
X0149500Y0177742D02*
X0150500Y0177742D01*
X0150500Y0178741D02*
X0149500Y0178741D01*
X0149500Y0179739D02*
X0150500Y0179739D01*
X0150500Y0180738D02*
X0149500Y0180738D01*
X0149500Y0181737D02*
X0150500Y0181737D01*
X0150500Y0182735D02*
X0149500Y0182735D01*
X0143748Y0182735D02*
X0133018Y0182735D01*
X0134016Y0181737D02*
X0143579Y0181737D01*
X0143579Y0180738D02*
X0135015Y0180738D01*
X0136013Y0179739D02*
X0143579Y0179739D01*
X0143579Y0178741D02*
X0136300Y0178741D01*
X0136300Y0177742D02*
X0143579Y0177742D01*
X0143579Y0176744D02*
X0136300Y0176744D01*
X0138053Y0175745D02*
X0149500Y0175745D01*
X0143579Y0174747D02*
X0138053Y0174747D01*
X0138709Y0173748D02*
X0143579Y0173748D01*
X0143579Y0172750D02*
X0139707Y0172750D01*
X0140706Y0171751D02*
X0143579Y0171751D01*
X0143579Y0170753D02*
X0141705Y0170753D01*
X0142703Y0169754D02*
X0143653Y0169754D01*
X0146769Y0167757D02*
X0147325Y0167757D01*
X0147325Y0166759D02*
X0146769Y0166759D01*
X0146769Y0165760D02*
X0147325Y0165760D01*
X0147325Y0164762D02*
X0146769Y0164762D01*
X0146769Y0163763D02*
X0147325Y0163763D01*
X0147325Y0162765D02*
X0146769Y0162765D01*
X0146769Y0161766D02*
X0147325Y0161766D01*
X0143942Y0159769D02*
X0143058Y0159769D01*
X0143005Y0160768D02*
X0154459Y0160768D01*
X0157560Y0160768D02*
X0164449Y0160768D01*
X0164721Y0161039D02*
X0164081Y0160399D01*
X0162395Y0160399D01*
X0161750Y0159755D01*
X0161750Y0153725D01*
X0162395Y0153081D01*
X0169605Y0153081D01*
X0170250Y0153725D01*
X0170250Y0159755D01*
X0169605Y0160399D01*
X0168419Y0160399D01*
X0167779Y0161039D01*
X0166787Y0161450D01*
X0165713Y0161450D01*
X0164721Y0161039D01*
X0161765Y0159769D02*
X0160038Y0159769D01*
X0160053Y0158771D02*
X0161750Y0158771D01*
X0161750Y0157772D02*
X0160053Y0157772D01*
X0160053Y0156774D02*
X0161750Y0156774D01*
X0161750Y0155775D02*
X0160053Y0155775D01*
X0160053Y0154777D02*
X0161750Y0154777D01*
X0161750Y0153778D02*
X0160053Y0153778D01*
X0159548Y0152780D02*
X0162256Y0152780D01*
X0162395Y0152919D02*
X0161750Y0152275D01*
X0161750Y0148263D01*
X0160200Y0146713D01*
X0160200Y0145262D01*
X0160100Y0145162D01*
X0160100Y0138251D01*
X0160744Y0137606D01*
X0164256Y0137606D01*
X0164900Y0138251D01*
X0164900Y0144907D01*
X0165594Y0145601D01*
X0169605Y0145601D01*
X0170250Y0146245D01*
X0170250Y0152275D01*
X0169605Y0152919D01*
X0162395Y0152919D01*
X0161750Y0151781D02*
X0160053Y0151781D01*
X0160053Y0150783D02*
X0161750Y0150783D01*
X0161750Y0149784D02*
X0160053Y0149784D01*
X0160053Y0148786D02*
X0161750Y0148786D01*
X0161275Y0147787D02*
X0160053Y0147787D01*
X0160053Y0146789D02*
X0160276Y0146789D01*
X0160200Y0145790D02*
X0159800Y0145790D01*
X0159900Y0144792D02*
X0160100Y0144792D01*
X0160100Y0143793D02*
X0159900Y0143793D01*
X0159900Y0142795D02*
X0160100Y0142795D01*
X0160100Y0141796D02*
X0159900Y0141796D01*
X0159900Y0140798D02*
X0160100Y0140798D01*
X0160100Y0139799D02*
X0159900Y0139799D01*
X0159900Y0138801D02*
X0160100Y0138801D01*
X0160549Y0137802D02*
X0159451Y0137802D01*
X0155549Y0137802D02*
X0154451Y0137802D01*
X0154900Y0138801D02*
X0155100Y0138801D01*
X0155100Y0139799D02*
X0154900Y0139799D01*
X0154900Y0140798D02*
X0155100Y0140798D01*
X0155100Y0141796D02*
X0154900Y0141796D01*
X0154900Y0142795D02*
X0155100Y0142795D01*
X0155100Y0143793D02*
X0154900Y0143793D01*
X0154900Y0144792D02*
X0155100Y0144792D01*
X0164900Y0144792D02*
X0172591Y0144792D01*
X0172591Y0145790D02*
X0169795Y0145790D01*
X0170250Y0146789D02*
X0172591Y0146789D01*
X0172591Y0147787D02*
X0170250Y0147787D01*
X0170250Y0148786D02*
X0172591Y0148786D01*
X0172591Y0149784D02*
X0170250Y0149784D01*
X0170250Y0150783D02*
X0172591Y0150783D01*
X0172591Y0151781D02*
X0170250Y0151781D01*
X0169744Y0152780D02*
X0172591Y0152780D01*
X0172591Y0153778D02*
X0170250Y0153778D01*
X0170250Y0154777D02*
X0172591Y0154777D01*
X0172591Y0155775D02*
X0170250Y0155775D01*
X0170250Y0156774D02*
X0172591Y0156774D01*
X0172591Y0157772D02*
X0170250Y0157772D01*
X0170250Y0158771D02*
X0172591Y0158771D01*
X0172591Y0159769D02*
X0170235Y0159769D01*
X0168051Y0160768D02*
X0172591Y0160768D01*
X0172591Y0161766D02*
X0158580Y0161766D01*
X0158580Y0162765D02*
X0172591Y0162765D01*
X0172591Y0163763D02*
X0158580Y0163763D01*
X0159227Y0164762D02*
X0172591Y0164762D01*
X0172591Y0165760D02*
X0160128Y0165760D01*
X0161028Y0166759D02*
X0172591Y0166759D01*
X0172591Y0167757D02*
X0161929Y0167757D01*
X0162829Y0168756D02*
X0172591Y0168756D01*
X0172591Y0169754D02*
X0163205Y0169754D01*
X0163200Y0170753D02*
X0172591Y0170753D01*
X0172591Y0171751D02*
X0163200Y0171751D01*
X0163200Y0172750D02*
X0172591Y0172750D01*
X0172347Y0173748D02*
X0163200Y0173748D01*
X0163200Y0174747D02*
X0171348Y0174747D01*
X0170350Y0175745D02*
X0163200Y0175745D01*
X0163200Y0176744D02*
X0169351Y0176744D01*
X0168353Y0177742D02*
X0163059Y0177742D01*
X0162442Y0178741D02*
X0167354Y0178741D01*
X0166356Y0179739D02*
X0156421Y0179739D01*
X0156421Y0178741D02*
X0158558Y0178741D01*
X0157941Y0177742D02*
X0156421Y0177742D01*
X0156421Y0176744D02*
X0157800Y0176744D01*
X0156421Y0180738D02*
X0165357Y0180738D01*
X0164359Y0181737D02*
X0156421Y0181737D01*
X0156252Y0182735D02*
X0163360Y0182735D01*
X0162362Y0183734D02*
X0132019Y0183734D01*
X0129508Y0179739D02*
X0103216Y0179739D01*
X0103043Y0179796D02*
X0103709Y0179579D01*
X0104334Y0179261D01*
X0104901Y0178849D01*
X0105396Y0178354D01*
X0105808Y0177787D01*
X0106127Y0177162D01*
X0106343Y0176495D01*
X0106453Y0175803D01*
X0106453Y0172984D01*
X0102484Y0172984D01*
X0102484Y0172016D01*
X0102484Y0165116D01*
X0103043Y0165204D01*
X0103709Y0165421D01*
X0104334Y0165739D01*
X0104901Y0166151D01*
X0105396Y0166646D01*
X0105808Y0167213D01*
X0106127Y0167838D01*
X0106343Y0168505D01*
X0106453Y0169197D01*
X0106453Y0172016D01*
X0102484Y0172016D01*
X0101516Y0172016D01*
X0101516Y0165116D01*
X0100957Y0165204D01*
X0100291Y0165421D01*
X0099666Y0165739D01*
X0099099Y0166151D01*
X0098604Y0166646D01*
X0098192Y0167213D01*
X0097873Y0167838D01*
X0097657Y0168505D01*
X0097547Y0169197D01*
X0097547Y0172016D01*
X0101516Y0172016D01*
X0101516Y0172984D01*
X0097547Y0172984D01*
X0097547Y0175803D01*
X0097657Y0176495D01*
X0097873Y0177162D01*
X0098192Y0177787D01*
X0098604Y0178354D01*
X0099099Y0178849D01*
X0099666Y0179261D01*
X0100291Y0179579D01*
X0100957Y0179796D01*
X0101516Y0179884D01*
X0101516Y0172984D01*
X0102484Y0172984D01*
X0102484Y0179884D01*
X0103043Y0179796D01*
X0102484Y0179739D02*
X0101516Y0179739D01*
X0100784Y0179739D02*
X0086992Y0179739D01*
X0085994Y0178741D02*
X0089557Y0178741D01*
X0088562Y0177742D02*
X0085037Y0177742D01*
X0085037Y0176744D02*
X0088148Y0176744D01*
X0087947Y0175745D02*
X0084932Y0175745D01*
X0084519Y0174747D02*
X0087947Y0174747D01*
X0087947Y0173748D02*
X0083872Y0173748D01*
X0082873Y0172750D02*
X0087910Y0172750D01*
X0087433Y0171751D02*
X0006900Y0171751D01*
X0006900Y0170753D02*
X0060435Y0170753D01*
X0059597Y0169754D02*
X0006900Y0169754D01*
X0006900Y0168756D02*
X0059300Y0168756D01*
X0059385Y0167757D02*
X0006900Y0167757D01*
X0006900Y0166759D02*
X0059923Y0166759D01*
X0061487Y0165760D02*
X0006900Y0165760D01*
X0006900Y0164762D02*
X0062485Y0164762D01*
X0063484Y0163763D02*
X0006900Y0163763D01*
X0006900Y0158771D02*
X0006921Y0158771D01*
X0006900Y0157772D02*
X0069475Y0157772D01*
X0070474Y0156774D02*
X0006900Y0156774D01*
X0006900Y0155775D02*
X0071472Y0155775D01*
X0072471Y0154777D02*
X0006900Y0154777D01*
X0006900Y0153778D02*
X0073200Y0153778D01*
X0073200Y0152780D02*
X0006900Y0152780D01*
X0006900Y0151781D02*
X0044296Y0151781D01*
X0043316Y0150783D02*
X0006900Y0150783D01*
X0006900Y0149784D02*
X0042466Y0149784D01*
X0041568Y0148786D02*
X0006900Y0148786D01*
X0006900Y0147787D02*
X0040670Y0147787D01*
X0039772Y0146789D02*
X0006900Y0146789D01*
X0006900Y0145790D02*
X0038874Y0145790D01*
X0037976Y0144792D02*
X0006900Y0144792D01*
X0006900Y0143793D02*
X0037078Y0143793D01*
X0036180Y0142795D02*
X0006900Y0142795D01*
X0006900Y0141796D02*
X0035282Y0141796D01*
X0034385Y0140798D02*
X0006900Y0140798D01*
X0006900Y0139799D02*
X0033487Y0139799D01*
X0032589Y0138801D02*
X0006900Y0138801D01*
X0011679Y0158771D02*
X0014921Y0158771D01*
X0014724Y0158968D02*
X0015368Y0158324D01*
X0019232Y0158324D01*
X0019876Y0158968D01*
X0019876Y0162832D01*
X0019232Y0163476D01*
X0015368Y0163476D01*
X0014724Y0162832D01*
X0014724Y0158968D01*
X0014724Y0159769D02*
X0011876Y0159769D01*
X0011876Y0160768D02*
X0014724Y0160768D01*
X0014724Y0161766D02*
X0011876Y0161766D01*
X0011876Y0162765D02*
X0014724Y0162765D01*
X0019876Y0162765D02*
X0022724Y0162765D01*
X0022724Y0162832D02*
X0022724Y0158968D01*
X0023368Y0158324D01*
X0027232Y0158324D01*
X0027876Y0158968D01*
X0027876Y0162832D01*
X0027232Y0163476D01*
X0023368Y0163476D01*
X0022724Y0162832D01*
X0022724Y0161766D02*
X0019876Y0161766D01*
X0019876Y0160768D02*
X0022724Y0160768D01*
X0022724Y0159769D02*
X0019876Y0159769D01*
X0019679Y0158771D02*
X0022921Y0158771D01*
X0027679Y0158771D02*
X0068477Y0158771D01*
X0067478Y0159769D02*
X0027876Y0159769D01*
X0027876Y0160768D02*
X0066480Y0160768D01*
X0065481Y0161766D02*
X0027876Y0161766D01*
X0027876Y0162765D02*
X0064483Y0162765D01*
X0067992Y0165760D02*
X0074943Y0165760D01*
X0074943Y0164762D02*
X0068991Y0164762D01*
X0069989Y0163763D02*
X0074943Y0163763D01*
X0074943Y0162765D02*
X0070988Y0162765D01*
X0071986Y0161766D02*
X0074943Y0161766D01*
X0074943Y0160768D02*
X0072985Y0160768D01*
X0073983Y0159769D02*
X0074943Y0159769D01*
X0076979Y0156774D02*
X0087461Y0156774D01*
X0087893Y0157772D02*
X0085017Y0157772D01*
X0085017Y0158771D02*
X0087893Y0158771D01*
X0087893Y0159769D02*
X0085017Y0159769D01*
X0085017Y0160768D02*
X0087893Y0160768D01*
X0087893Y0161766D02*
X0085085Y0161766D01*
X0086083Y0162765D02*
X0087893Y0162765D01*
X0087893Y0163763D02*
X0087082Y0163763D01*
X0083439Y0167757D02*
X0065995Y0167757D01*
X0066994Y0166759D02*
X0075339Y0166759D01*
X0077127Y0172750D02*
X0006900Y0172750D01*
X0007144Y0173748D02*
X0076128Y0173748D01*
X0075481Y0174747D02*
X0008143Y0174747D01*
X0009141Y0175745D02*
X0075068Y0175745D01*
X0074963Y0176744D02*
X0010140Y0176744D01*
X0011138Y0177742D02*
X0074963Y0177742D01*
X0075269Y0178741D02*
X0012137Y0178741D01*
X0013135Y0179739D02*
X0075683Y0179739D01*
X0076615Y0180738D02*
X0014134Y0180738D01*
X0015132Y0181737D02*
X0078273Y0181737D01*
X0081727Y0181737D02*
X0082484Y0181737D01*
X0083482Y0182735D02*
X0016131Y0182735D01*
X0017130Y0183734D02*
X0084481Y0183734D01*
X0094443Y0178741D02*
X0098991Y0178741D01*
X0098169Y0177742D02*
X0095438Y0177742D01*
X0095852Y0176744D02*
X0097738Y0176744D01*
X0097547Y0175745D02*
X0096053Y0175745D01*
X0096053Y0174747D02*
X0097547Y0174747D01*
X0097547Y0173748D02*
X0096053Y0173748D01*
X0096053Y0172750D02*
X0101516Y0172750D01*
X0102484Y0172750D02*
X0107947Y0172750D01*
X0107947Y0173748D02*
X0106453Y0173748D01*
X0106453Y0174747D02*
X0107947Y0174747D01*
X0107947Y0175745D02*
X0106453Y0175745D01*
X0106262Y0176744D02*
X0108148Y0176744D01*
X0107947Y0176259D02*
X0108564Y0177748D01*
X0109704Y0178889D01*
X0111194Y0179505D01*
X0112806Y0179505D01*
X0114296Y0178889D01*
X0115436Y0177748D01*
X0116053Y0176259D01*
X0116053Y0168741D01*
X0115436Y0167252D01*
X0114296Y0166111D01*
X0112806Y0165494D01*
X0111194Y0165494D01*
X0109704Y0166111D01*
X0108564Y0167252D01*
X0107947Y0168741D01*
X0107947Y0176259D01*
X0108562Y0177742D02*
X0105831Y0177742D01*
X0105009Y0178741D02*
X0109557Y0178741D01*
X0114443Y0178741D02*
X0119557Y0178741D01*
X0119704Y0178889D02*
X0118564Y0177748D01*
X0117947Y0176259D01*
X0117947Y0168741D01*
X0118564Y0167252D01*
X0119704Y0166111D01*
X0121194Y0165494D01*
X0122806Y0165494D01*
X0124296Y0166111D01*
X0125436Y0167252D01*
X0126053Y0168741D01*
X0126053Y0176259D01*
X0125436Y0177748D01*
X0124296Y0178889D01*
X0122806Y0179505D01*
X0121194Y0179505D01*
X0119704Y0178889D01*
X0118562Y0177742D02*
X0115438Y0177742D01*
X0115852Y0176744D02*
X0118148Y0176744D01*
X0117947Y0175745D02*
X0116053Y0175745D01*
X0116053Y0174747D02*
X0117947Y0174747D01*
X0117947Y0173748D02*
X0116053Y0173748D01*
X0116053Y0172750D02*
X0117947Y0172750D01*
X0117947Y0171751D02*
X0116053Y0171751D01*
X0116053Y0170753D02*
X0117947Y0170753D01*
X0117947Y0169754D02*
X0116053Y0169754D01*
X0116053Y0168756D02*
X0117947Y0168756D01*
X0118355Y0167757D02*
X0115645Y0167757D01*
X0114943Y0166759D02*
X0119057Y0166759D01*
X0120552Y0165760D02*
X0113448Y0165760D01*
X0110552Y0165760D02*
X0104363Y0165760D01*
X0105478Y0166759D02*
X0109057Y0166759D01*
X0108355Y0167757D02*
X0106085Y0167757D01*
X0106383Y0168756D02*
X0107947Y0168756D01*
X0107947Y0169754D02*
X0106453Y0169754D01*
X0106453Y0170753D02*
X0107947Y0170753D01*
X0107947Y0171751D02*
X0106453Y0171751D01*
X0102484Y0171751D02*
X0101516Y0171751D01*
X0101516Y0170753D02*
X0102484Y0170753D01*
X0102484Y0169754D02*
X0101516Y0169754D01*
X0101516Y0168756D02*
X0102484Y0168756D01*
X0102484Y0167757D02*
X0101516Y0167757D01*
X0101516Y0166759D02*
X0102484Y0166759D01*
X0102484Y0165760D02*
X0101516Y0165760D01*
X0099637Y0165760D02*
X0095093Y0165760D01*
X0095093Y0164762D02*
X0133500Y0164762D01*
X0133500Y0163763D02*
X0134500Y0163763D01*
X0134500Y0162765D02*
X0133500Y0162765D01*
X0133500Y0161766D02*
X0134500Y0161766D01*
X0136462Y0159769D02*
X0095093Y0159769D01*
X0095093Y0158771D02*
X0136101Y0158771D01*
X0136101Y0157772D02*
X0095093Y0157772D01*
X0095093Y0156774D02*
X0136101Y0156774D01*
X0136101Y0155775D02*
X0095093Y0155775D01*
X0095001Y0154777D02*
X0136101Y0154777D01*
X0136101Y0153778D02*
X0094588Y0153778D01*
X0093650Y0152780D02*
X0136101Y0152780D01*
X0137700Y0151781D02*
X0092651Y0151781D01*
X0091653Y0150783D02*
X0137700Y0150783D01*
X0137700Y0149784D02*
X0090654Y0149784D01*
X0089849Y0148786D02*
X0137700Y0148786D01*
X0137700Y0147787D02*
X0089435Y0147787D01*
X0088578Y0146789D02*
X0137700Y0146789D01*
X0137405Y0145790D02*
X0086786Y0145790D01*
X0086033Y0144604D02*
X0086033Y0140254D01*
X0090383Y0140254D01*
X0090383Y0141880D01*
X0087659Y0144604D01*
X0086033Y0144604D01*
X0085433Y0144604D02*
X0083807Y0144604D01*
X0081083Y0141880D01*
X0081083Y0140254D01*
X0085433Y0140254D01*
X0085433Y0139654D01*
X0086033Y0139654D01*
X0086033Y0135304D01*
X0087659Y0135304D01*
X0090383Y0138028D01*
X0090383Y0139654D01*
X0086033Y0139654D01*
X0086033Y0140254D01*
X0085433Y0140254D01*
X0085433Y0144604D01*
X0085433Y0143793D02*
X0086033Y0143793D01*
X0086033Y0142795D02*
X0085433Y0142795D01*
X0085433Y0141796D02*
X0086033Y0141796D01*
X0086033Y0140798D02*
X0085433Y0140798D01*
X0085433Y0139799D02*
X0077800Y0139799D01*
X0077800Y0138801D02*
X0081083Y0138801D01*
X0081083Y0138028D02*
X0083807Y0135304D01*
X0085433Y0135304D01*
X0085433Y0139654D01*
X0081083Y0139654D01*
X0081083Y0138028D01*
X0081309Y0137802D02*
X0077800Y0137802D01*
X0077800Y0136803D02*
X0082308Y0136803D01*
X0083306Y0135805D02*
X0077800Y0135805D01*
X0077800Y0140798D02*
X0081083Y0140798D01*
X0081083Y0141796D02*
X0077800Y0141796D01*
X0077800Y0142795D02*
X0081997Y0142795D01*
X0082996Y0143793D02*
X0077800Y0143793D01*
X0077800Y0144792D02*
X0137300Y0144792D01*
X0137577Y0143793D02*
X0088470Y0143793D01*
X0089469Y0142795D02*
X0138387Y0142795D01*
X0141613Y0142795D02*
X0144940Y0142795D01*
X0144940Y0143793D02*
X0142423Y0143793D01*
X0142700Y0144792D02*
X0144940Y0144792D01*
X0144940Y0145790D02*
X0142595Y0145790D01*
X0142300Y0146789D02*
X0144940Y0146789D01*
X0144940Y0147787D02*
X0142300Y0147787D01*
X0142300Y0148786D02*
X0144940Y0148786D01*
X0144940Y0149784D02*
X0142300Y0149784D01*
X0142300Y0150783D02*
X0144940Y0150783D01*
X0144940Y0151781D02*
X0142300Y0151781D01*
X0143419Y0152780D02*
X0143581Y0152780D01*
X0143581Y0153778D02*
X0143419Y0153778D01*
X0143419Y0154777D02*
X0143581Y0154777D01*
X0143581Y0155775D02*
X0143419Y0155775D01*
X0143419Y0156774D02*
X0143581Y0156774D01*
X0143581Y0157772D02*
X0143419Y0157772D01*
X0143419Y0158771D02*
X0143581Y0158771D01*
X0139495Y0163763D02*
X0138453Y0163763D01*
X0138453Y0162765D02*
X0138496Y0162765D01*
X0137460Y0160768D02*
X0095093Y0160768D01*
X0095093Y0161766D02*
X0129860Y0161766D01*
X0129547Y0162765D02*
X0095093Y0162765D01*
X0095093Y0163763D02*
X0129547Y0163763D01*
X0129547Y0165760D02*
X0123448Y0165760D01*
X0124943Y0166759D02*
X0129547Y0166759D01*
X0129547Y0167757D02*
X0125645Y0167757D01*
X0126053Y0168756D02*
X0129863Y0168756D01*
X0129947Y0169754D02*
X0126053Y0169754D01*
X0126053Y0170753D02*
X0129947Y0170753D01*
X0129947Y0171751D02*
X0126053Y0171751D01*
X0126053Y0172750D02*
X0129947Y0172750D01*
X0129947Y0173748D02*
X0126053Y0173748D01*
X0126053Y0174747D02*
X0129947Y0174747D01*
X0129947Y0175745D02*
X0126053Y0175745D01*
X0125852Y0176744D02*
X0131700Y0176744D01*
X0131505Y0177742D02*
X0125438Y0177742D01*
X0124443Y0178741D02*
X0130506Y0178741D01*
X0138453Y0166759D02*
X0139193Y0166759D01*
X0138453Y0165760D02*
X0140192Y0165760D01*
X0140493Y0164762D02*
X0134500Y0164762D01*
X0144940Y0141796D02*
X0090383Y0141796D01*
X0090383Y0140798D02*
X0145100Y0140798D01*
X0145100Y0139799D02*
X0086033Y0139799D01*
X0086033Y0138801D02*
X0085433Y0138801D01*
X0085433Y0137802D02*
X0086033Y0137802D01*
X0086033Y0136803D02*
X0085433Y0136803D01*
X0085433Y0135805D02*
X0086033Y0135805D01*
X0088160Y0135805D02*
X0169200Y0135805D01*
X0169200Y0136803D02*
X0089158Y0136803D01*
X0090157Y0137802D02*
X0145549Y0137802D01*
X0145100Y0138801D02*
X0090383Y0138801D01*
X0084680Y0145790D02*
X0077800Y0145790D01*
X0077800Y0146789D02*
X0082888Y0146789D01*
X0082030Y0147787D02*
X0077800Y0147787D01*
X0077800Y0148786D02*
X0081617Y0148786D01*
X0081483Y0149784D02*
X0077800Y0149784D01*
X0077800Y0150783D02*
X0081483Y0150783D01*
X0081890Y0151781D02*
X0077800Y0151781D01*
X0077800Y0152780D02*
X0082548Y0152780D01*
X0083859Y0153778D02*
X0077800Y0153778D01*
X0077800Y0154777D02*
X0085464Y0154777D01*
X0086463Y0155775D02*
X0077800Y0155775D01*
X0073200Y0151781D02*
X0059922Y0151781D01*
X0060884Y0150783D02*
X0073200Y0150783D01*
X0073200Y0149784D02*
X0061777Y0149784D01*
X0062704Y0148786D02*
X0073200Y0148786D01*
X0073200Y0147787D02*
X0063631Y0147787D01*
X0064558Y0146789D02*
X0073200Y0146789D01*
X0073200Y0145790D02*
X0065485Y0145790D01*
X0066412Y0144792D02*
X0073200Y0144792D01*
X0073200Y0143793D02*
X0067340Y0143793D01*
X0068267Y0142795D02*
X0073200Y0142795D01*
X0073200Y0141796D02*
X0069194Y0141796D01*
X0070121Y0140798D02*
X0073200Y0140798D01*
X0073200Y0139799D02*
X0071048Y0139799D01*
X0071976Y0138801D02*
X0073200Y0138801D01*
X0073200Y0137802D02*
X0072903Y0137802D01*
X0077800Y0123823D02*
X0077955Y0123823D01*
X0077800Y0122824D02*
X0078353Y0122824D01*
X0078353Y0121826D02*
X0077800Y0121826D01*
X0077800Y0120827D02*
X0078353Y0120827D01*
X0078353Y0119829D02*
X0077800Y0119829D01*
X0077800Y0118830D02*
X0078512Y0118830D01*
X0087651Y0113838D02*
X0100146Y0113838D01*
X0099834Y0112839D02*
X0095573Y0112839D01*
X0095573Y0111841D02*
X0099834Y0111841D01*
X0099834Y0110842D02*
X0095573Y0110842D01*
X0095573Y0109844D02*
X0099834Y0109844D01*
X0099834Y0108845D02*
X0095114Y0108845D01*
X0093821Y0107847D02*
X0103323Y0107847D01*
X0104322Y0106848D02*
X0093821Y0106848D01*
X0093821Y0105850D02*
X0104373Y0105850D01*
X0104290Y0104851D02*
X0093821Y0104851D01*
X0093821Y0103853D02*
X0104208Y0103853D01*
X0104126Y0102854D02*
X0093821Y0102854D01*
X0089221Y0107847D02*
X0087651Y0107847D01*
X0087651Y0108845D02*
X0087928Y0108845D01*
X0078378Y0085879D02*
X0077800Y0085879D01*
X0077800Y0084881D02*
X0078378Y0084881D01*
X0078378Y0083882D02*
X0077800Y0083882D01*
X0077800Y0082884D02*
X0078378Y0082884D01*
X0078378Y0081885D02*
X0077800Y0081885D01*
X0077800Y0080887D02*
X0078378Y0080887D01*
X0078378Y0079888D02*
X0077800Y0079888D01*
X0077800Y0078890D02*
X0078495Y0078890D01*
X0087677Y0079888D02*
X0100496Y0079888D01*
X0099874Y0080887D02*
X0095357Y0080887D01*
X0095567Y0081885D02*
X0099874Y0081885D01*
X0099874Y0082884D02*
X0095567Y0082884D01*
X0095567Y0083882D02*
X0099874Y0083882D01*
X0099874Y0084881D02*
X0095450Y0084881D01*
X0119080Y0112839D02*
X0136920Y0112839D01*
X0136546Y0113838D02*
X0119454Y0113838D01*
X0119454Y0114836D02*
X0136546Y0114836D01*
X0135347Y0115835D02*
X0119454Y0115835D01*
X0119454Y0116833D02*
X0134854Y0116833D01*
X0134800Y0117832D02*
X0119454Y0117832D01*
X0119454Y0118830D02*
X0135129Y0118830D01*
X0136067Y0119829D02*
X0119454Y0119829D01*
X0119454Y0120827D02*
X0136546Y0120827D01*
X0136546Y0121826D02*
X0119454Y0121826D01*
X0119416Y0122824D02*
X0136584Y0122824D01*
X0164451Y0137802D02*
X0168445Y0137802D01*
X0166881Y0138801D02*
X0164900Y0138801D01*
X0164900Y0139799D02*
X0166368Y0139799D01*
X0166300Y0140798D02*
X0164900Y0140798D01*
X0164900Y0141796D02*
X0166614Y0141796D01*
X0167484Y0142795D02*
X0164900Y0142795D01*
X0164900Y0143793D02*
X0172591Y0143793D01*
X0172591Y0142795D02*
X0170516Y0142795D01*
X0171386Y0141796D02*
X0172591Y0141796D01*
X0172591Y0140798D02*
X0171955Y0140798D01*
X0102484Y0173748D02*
X0101516Y0173748D01*
X0101516Y0174747D02*
X0102484Y0174747D01*
X0102484Y0175745D02*
X0101516Y0175745D01*
X0101516Y0176744D02*
X0102484Y0176744D01*
X0102484Y0177742D02*
X0101516Y0177742D01*
X0101516Y0178741D02*
X0102484Y0178741D01*
X0097547Y0171751D02*
X0096053Y0171751D01*
X0096053Y0170753D02*
X0097547Y0170753D01*
X0097547Y0169754D02*
X0096053Y0169754D01*
X0096053Y0168756D02*
X0097617Y0168756D01*
X0097915Y0167757D02*
X0095645Y0167757D01*
X0095093Y0166759D02*
X0098522Y0166759D01*
X0086435Y0170753D02*
X0063565Y0170753D01*
X0064403Y0169754D02*
X0085436Y0169754D01*
X0084438Y0168756D02*
X0064997Y0168756D01*
X0032042Y0052929D02*
X0006900Y0052929D01*
X0006900Y0051930D02*
X0032940Y0051930D01*
X0033838Y0050932D02*
X0006900Y0050932D01*
X0006900Y0049933D02*
X0034736Y0049933D01*
X0035634Y0048934D02*
X0006900Y0048934D01*
X0006900Y0047936D02*
X0036532Y0047936D01*
X0037430Y0046937D02*
X0006900Y0046937D01*
X0006900Y0045939D02*
X0038328Y0045939D01*
X0039226Y0044940D02*
X0006900Y0044940D01*
X0006900Y0043942D02*
X0040123Y0043942D01*
X0041021Y0042943D02*
X0006900Y0042943D01*
X0006900Y0041945D02*
X0041919Y0041945D01*
X0042817Y0040946D02*
X0006900Y0040946D01*
X0006900Y0039948D02*
X0043707Y0039948D01*
X0023350Y0032958D02*
X0019250Y0032958D01*
X0019232Y0032976D02*
X0015368Y0032976D01*
X0014724Y0032332D01*
X0014724Y0028468D01*
X0015368Y0027824D01*
X0019232Y0027824D01*
X0019876Y0028468D01*
X0019876Y0032332D01*
X0019232Y0032976D01*
X0019876Y0031960D02*
X0022724Y0031960D01*
X0022724Y0030961D02*
X0019876Y0030961D01*
X0019876Y0029963D02*
X0022724Y0029963D01*
X0022724Y0028964D02*
X0019876Y0028964D01*
X0019374Y0027966D02*
X0023226Y0027966D01*
X0015226Y0027966D02*
X0011374Y0027966D01*
X0011876Y0028964D02*
X0014724Y0028964D01*
X0014724Y0029963D02*
X0011876Y0029963D01*
X0011876Y0030961D02*
X0014724Y0030961D01*
X0014724Y0031960D02*
X0011876Y0031960D01*
X0011250Y0032958D02*
X0015350Y0032958D01*
X0007350Y0032958D02*
X0006900Y0032958D01*
X0006900Y0027966D02*
X0007226Y0027966D01*
X0013566Y0010991D02*
X0165926Y0010991D01*
X0164927Y0009993D02*
X0014564Y0009993D01*
X0015563Y0008994D02*
X0163929Y0008994D01*
X0162930Y0007996D02*
X0016561Y0007996D01*
X0017560Y0006997D02*
X0161932Y0006997D01*
D34*
X0135520Y0036980D03*
X0120000Y0025000D03*
X0108750Y0043750D03*
X0092000Y0057000D03*
X0082000Y0083000D03*
X0092000Y0097500D03*
X0110066Y0082934D03*
X0120000Y0100000D03*
X0137500Y0117500D03*
X0152500Y0126500D03*
X0157500Y0132500D03*
X0169000Y0140500D03*
X0166250Y0158750D03*
X0156010Y0158500D03*
X0160500Y0176864D03*
X0140000Y0145000D03*
X0109000Y0123000D03*
X0080000Y0125596D03*
X0054000Y0155000D03*
X0062000Y0168500D03*
X0138010Y0076990D03*
X0120000Y0060000D03*
X0097500Y0025000D03*
X0158500Y0042500D03*
X0159000Y0072500D03*
D35*
X0115412Y0078010D02*
X0109537Y0071115D01*
X0103916Y0071115D01*
X0107237Y0067795D01*
X0106334Y0056753D01*
X0115422Y0038020D02*
X0109499Y0031058D01*
X0103886Y0031058D01*
X0107233Y0027711D01*
X0106338Y0016755D01*
X0106333Y0096752D02*
X0107238Y0107750D01*
X0103887Y0111101D01*
X0109503Y0111101D01*
X0115402Y0118000D01*
X0091521Y0099781D02*
X0090191Y0096752D01*
X0081470Y0161970D02*
X0091493Y0171993D01*
X0092000Y0172500D01*
X0081470Y0161970D02*
X0079980Y0161970D01*
X0155906Y0165110D02*
X0160500Y0170205D01*
X0160500Y0176864D01*
D36*
X0144094Y0165110D02*
X0136465Y0172740D01*
X0134000Y0172740D01*
X0134000Y0178500D01*
X0129500Y0183000D01*
X0087000Y0183000D01*
X0081000Y0177000D01*
X0080000Y0177000D01*
X0062000Y0168500D02*
X0075500Y0155000D01*
X0075500Y0045500D01*
X0078455Y0042545D01*
X0082997Y0042545D01*
X0083325Y0042873D01*
X0091485Y0042873D01*
X0091267Y0031348D02*
X0082997Y0031348D01*
X0091267Y0031348D02*
X0091520Y0031095D01*
X0091520Y0019782D01*
X0090619Y0018881D01*
X0104521Y0043500D02*
X0108500Y0043500D01*
X0108750Y0043750D01*
X0120000Y0060000D02*
X0151831Y0060000D01*
X0152500Y0060669D01*
X0152500Y0050000D01*
X0158500Y0042500D02*
X0156240Y0040240D01*
X0156240Y0039331D01*
X0161760Y0033811D01*
X0161760Y0031000D01*
X0165000Y0022760D01*
X0165000Y0020000D01*
X0169240Y0031000D02*
X0171500Y0035760D01*
X0171500Y0060000D01*
X0170240Y0060000D01*
X0169240Y0061000D01*
X0171500Y0060000D02*
X0171500Y0097500D01*
X0170240Y0097500D01*
X0169240Y0098500D01*
X0171500Y0097500D02*
X0171500Y0138000D01*
X0169000Y0140500D01*
X0162500Y0141706D02*
X0162500Y0145760D01*
X0166000Y0149260D01*
X0166000Y0156740D02*
X0166250Y0157740D01*
X0156010Y0158500D02*
X0156000Y0158490D01*
X0156000Y0156740D01*
X0156000Y0149260D02*
X0157500Y0147760D01*
X0157500Y0141706D01*
X0147500Y0141706D02*
X0147240Y0141966D01*
X0147240Y0156000D01*
X0140000Y0155760D02*
X0140000Y0145000D01*
X0140000Y0155760D02*
X0139760Y0156000D01*
X0139760Y0160776D01*
X0144094Y0165110D01*
X0152500Y0126500D02*
X0152500Y0118294D01*
X0147500Y0118294D02*
X0147500Y0112500D01*
X0152500Y0112500D01*
X0156240Y0108760D01*
X0156240Y0107331D01*
X0161760Y0101811D01*
X0161760Y0098500D01*
X0165000Y0090260D01*
X0165000Y0087500D01*
X0152500Y0087500D02*
X0152500Y0098669D01*
X0151169Y0100000D01*
X0120000Y0100000D01*
X0110066Y0082934D02*
X0103927Y0082934D01*
X0091514Y0082930D02*
X0091196Y0082612D01*
X0083027Y0082612D01*
X0082388Y0082612D01*
X0082000Y0083000D01*
X0083027Y0071415D02*
X0091287Y0071415D01*
X0091550Y0071153D01*
X0091550Y0059810D01*
X0090193Y0056753D01*
X0120000Y0025000D02*
X0152500Y0025000D01*
X0152500Y0020000D01*
X0152500Y0025000D02*
X0152500Y0030669D01*
X0140618Y0038020D02*
X0136560Y0038020D01*
X0135520Y0036980D01*
X0165000Y0052760D02*
X0161760Y0061000D01*
X0161760Y0063811D01*
X0156240Y0069331D01*
X0159000Y0072091D01*
X0159000Y0072500D01*
X0140608Y0078010D02*
X0139030Y0078010D01*
X0138010Y0076990D01*
X0165000Y0052760D02*
X0165000Y0050000D01*
X0140598Y0118000D02*
X0140500Y0118000D01*
X0137500Y0117500D01*
X0107920Y0122920D02*
X0103898Y0122920D01*
X0091486Y0122916D02*
X0091164Y0122594D01*
X0083002Y0122594D01*
X0080000Y0125596D01*
X0083002Y0111397D02*
X0091262Y0111397D01*
X0091521Y0111139D01*
X0091521Y0099781D01*
X0091521Y0096521D02*
X0090000Y0095000D01*
X0090000Y0095736D01*
X0090191Y0096752D01*
D37*
X0107920Y0122920D02*
X0109000Y0123000D01*
X0157500Y0118294D02*
X0157500Y0132500D01*
X0166250Y0157740D02*
X0166250Y0158750D01*
X0104521Y0043500D02*
X0103897Y0042877D01*
D38*
X0091997Y0056997D02*
X0090193Y0056753D01*
X0091997Y0056997D02*
X0092000Y0057000D01*
X0097500Y0025000D02*
X0091738Y0020000D01*
X0090619Y0018881D01*
X0090196Y0016755D01*
X0090191Y0096752D02*
X0091498Y0096998D01*
X0092000Y0097500D01*
X0085733Y0149954D02*
X0091493Y0155714D01*
X0091493Y0171993D01*
M02*
