G75*
%MOIN*%
%OFA0B0*%
%FSLAX25Y25*%
%IPPOS*%
%LPD*%
%AMOC8*
5,1,8,0,0,1.08239X$1,22.5*
%
%ADD10R,0.05906X0.03937*%
%ADD11R,0.05906X0.02756*%
%ADD12C,0.00600*%
%ADD13R,0.05906X0.08661*%
%ADD14R,0.02600X0.06000*%
%ADD15C,0.00500*%
D10*
X0105266Y0042596D03*
X0105277Y0054414D03*
X0105906Y0076143D03*
X0105917Y0087962D03*
X0107887Y0106819D03*
X0107898Y0118638D03*
D11*
X0095486Y0118634D03*
X0095521Y0106856D03*
X0093504Y0087958D03*
X0093540Y0076180D03*
X0092865Y0054411D03*
X0092900Y0042633D03*
D12*
X0016911Y0016618D02*
X0005100Y0028429D01*
X0005100Y0066518D01*
X0032600Y0066518D01*
X0045100Y0052618D01*
X0059100Y0052618D01*
X0072100Y0066618D01*
X0072100Y0147539D01*
X0059100Y0161539D01*
X0045100Y0161539D01*
X0032600Y0147639D01*
X0005100Y0147639D01*
X0005100Y0185767D01*
X0016911Y0197578D01*
X0092786Y0116018D02*
X0101802Y0116018D01*
X0104873Y0114561D01*
X0110700Y0114561D01*
X0110660Y0110860D01*
X0105188Y0110900D01*
X0101881Y0109443D01*
X0092786Y0109443D01*
X0092786Y0116018D01*
X0092786Y0115871D02*
X0102112Y0115871D01*
X0103374Y0115272D02*
X0092786Y0115272D01*
X0092786Y0114674D02*
X0104636Y0114674D01*
X0104244Y0110484D02*
X0092786Y0110484D01*
X0092786Y0109886D02*
X0102885Y0109886D01*
X0110663Y0111083D02*
X0092786Y0111083D01*
X0092786Y0111681D02*
X0110669Y0111681D01*
X0110675Y0112280D02*
X0092786Y0112280D01*
X0092786Y0112878D02*
X0110682Y0112878D01*
X0110688Y0113477D02*
X0092786Y0113477D01*
X0092786Y0114075D02*
X0110695Y0114075D01*
X0099821Y0085342D02*
X0090805Y0085342D01*
X0090805Y0078767D01*
X0099900Y0078767D01*
X0103207Y0080224D01*
X0108679Y0080184D01*
X0108719Y0083885D01*
X0102892Y0083885D01*
X0099821Y0085342D01*
X0101073Y0084748D02*
X0090805Y0084748D01*
X0090805Y0084150D02*
X0102334Y0084150D01*
X0102608Y0079960D02*
X0090805Y0079960D01*
X0090805Y0079361D02*
X0101249Y0079361D01*
X0108683Y0080559D02*
X0090805Y0080559D01*
X0090805Y0081157D02*
X0108690Y0081157D01*
X0108696Y0081756D02*
X0090805Y0081756D01*
X0090805Y0082354D02*
X0108702Y0082354D01*
X0108709Y0082953D02*
X0090805Y0082953D01*
X0090805Y0083551D02*
X0108715Y0083551D01*
X0099181Y0051794D02*
X0090166Y0051794D01*
X0090166Y0045220D01*
X0099260Y0045220D01*
X0102567Y0046676D01*
X0108040Y0046637D01*
X0108079Y0050338D01*
X0102252Y0050338D01*
X0099181Y0051794D01*
X0100368Y0051231D02*
X0090166Y0051231D01*
X0090166Y0050633D02*
X0101630Y0050633D01*
X0102038Y0046443D02*
X0090166Y0046443D01*
X0090166Y0045845D02*
X0100679Y0045845D01*
X0099321Y0045246D02*
X0090166Y0045246D01*
X0090166Y0047042D02*
X0108044Y0047042D01*
X0108050Y0047640D02*
X0090166Y0047640D01*
X0090166Y0048239D02*
X0108057Y0048239D01*
X0108063Y0048837D02*
X0090166Y0048837D01*
X0090166Y0049436D02*
X0108069Y0049436D01*
X0108076Y0050034D02*
X0090166Y0050034D01*
X0162580Y0016618D02*
X0174391Y0028429D01*
X0174391Y0185767D01*
X0162580Y0197578D01*
D13*
X0141098Y0111518D03*
X0115902Y0111518D03*
X0115902Y0081018D03*
X0141098Y0081018D03*
X0141098Y0050018D03*
X0115902Y0050018D03*
D14*
X0147500Y0129812D03*
X0152500Y0129812D03*
X0157500Y0129812D03*
X0162500Y0129812D03*
X0162500Y0153224D03*
X0157500Y0153224D03*
X0152500Y0153224D03*
X0147500Y0153224D03*
D15*
X0162726Y0197539D02*
X0017100Y0197539D01*
X0017100Y0016618D02*
X0162726Y0016618D01*
M02*
