%
M48
M72
T01C0.0120
T02C0.0197
T03C0.0200
T04C0.0320
T05C0.0394
T06C0.0400
%
T01
X9638Y4599
X9638Y4849
X9638Y5099
X9702Y7953
X9702Y8203
X9702Y8453
X9900Y11021
X9900Y11271
X9900Y11521
T02
X930Y4192
X1680Y4192
X2430Y4192
X2430Y17242
X1680Y17242
X930Y17242
T03
X2500Y18652
X4800Y17652
X5400Y16652
X5500Y18652
X10950Y13152
X8050Y11902
X8000Y10702
X10000Y9652
X8650Y8102
X9150Y6852
X12800Y9902
X14350Y6102
X14000Y2152
X15250Y13802
X15750Y14402
T04
X17000Y15202
X16650Y16602
X16650Y17502
X16650Y18402
X13650Y18402
X13650Y17502
X13650Y16602
X12600Y16352
X12100Y15602
X11600Y16352
X10516Y16645
X8984Y15359
X9149Y14415
X9149Y13415
X8004Y13576
X6499Y16227
X8004Y16576
X6499Y19227
X3904Y19231
X3904Y16231
X8000Y9702
X8000Y6638
X8000Y3189
X12000Y3189
X12100Y5002
X13600Y5002
X15000Y4152
X15500Y3402
X16000Y4152
X17000Y3302
X17000Y6302
X15500Y6902
X15000Y7652
X16000Y7652
X17000Y7802
X15500Y10402
X15000Y11152
X16000Y11152
X17000Y10802
X17000Y12202
X13600Y11152
X12100Y11152
X12000Y9702
X12100Y8102
X12000Y6638
X13600Y8102
T05
X12700Y18402
X11700Y18402
X10700Y18402
X9700Y18402
X8700Y18402
X7700Y18402
T06
X14650Y19252
X15650Y19252
M30
