G75*
%MOIN*%
%OFA0B0*%
%FSLAX25Y25*%
%IPPOS*%
%LPD*%
%AMOC8*
5,1,8,0,0,1.08239X$1,22.5*
%
%ADD10R,0.05906X0.03937*%
%ADD11R,0.05906X0.02756*%
%ADD12C,0.00500*%
%ADD13R,0.02600X0.06000*%
%ADD14C,0.00600*%
D10*
X0105266Y0034578D03*
X0105277Y0046397D03*
X0105906Y0064625D03*
X0105917Y0076444D03*
X0107887Y0095301D03*
X0107898Y0107120D03*
D11*
X0095486Y0107116D03*
X0095521Y0095339D03*
X0093504Y0076440D03*
X0093540Y0064663D03*
X0092865Y0046393D03*
X0092900Y0034615D03*
D12*
X0090166Y0037202D02*
X0099260Y0037202D01*
X0102567Y0038659D01*
X0108040Y0038619D01*
X0108079Y0042320D01*
X0102252Y0042320D01*
X0099181Y0043777D01*
X0090166Y0043777D01*
X0090166Y0037202D01*
X0090166Y0037403D02*
X0099717Y0037403D01*
X0100849Y0037902D02*
X0090166Y0037902D01*
X0090166Y0038400D02*
X0101981Y0038400D01*
X0102108Y0042388D02*
X0090166Y0042388D01*
X0090166Y0041890D02*
X0108074Y0041890D01*
X0108069Y0041391D02*
X0090166Y0041391D01*
X0090166Y0040893D02*
X0108064Y0040893D01*
X0108058Y0040394D02*
X0090166Y0040394D01*
X0090166Y0039896D02*
X0108053Y0039896D01*
X0108048Y0039397D02*
X0090166Y0039397D01*
X0090166Y0038899D02*
X0108043Y0038899D01*
X0101057Y0042887D02*
X0090166Y0042887D01*
X0090166Y0043385D02*
X0100006Y0043385D01*
X0099900Y0067249D02*
X0090805Y0067249D01*
X0090805Y0073824D01*
X0099821Y0073824D01*
X0102892Y0072367D01*
X0108719Y0072367D01*
X0108679Y0068667D01*
X0103207Y0068706D01*
X0099900Y0067249D01*
X0100046Y0067314D02*
X0090805Y0067314D01*
X0090805Y0067812D02*
X0101178Y0067812D01*
X0102310Y0068311D02*
X0090805Y0068311D01*
X0090805Y0068809D02*
X0108681Y0068809D01*
X0108686Y0069308D02*
X0090805Y0069308D01*
X0090805Y0069806D02*
X0108691Y0069806D01*
X0108697Y0070305D02*
X0090805Y0070305D01*
X0090805Y0070803D02*
X0108702Y0070803D01*
X0108707Y0071302D02*
X0090805Y0071302D01*
X0090805Y0071801D02*
X0108712Y0071801D01*
X0108718Y0072299D02*
X0090805Y0072299D01*
X0090805Y0072798D02*
X0101985Y0072798D01*
X0100934Y0073296D02*
X0090805Y0073296D01*
X0090805Y0073795D02*
X0099883Y0073795D01*
X0101881Y0097925D02*
X0092786Y0097925D01*
X0092786Y0104500D01*
X0101802Y0104500D01*
X0104873Y0103043D01*
X0110700Y0103043D01*
X0110660Y0099343D01*
X0105188Y0099382D01*
X0101881Y0097925D01*
X0102553Y0098222D02*
X0092786Y0098222D01*
X0092786Y0098720D02*
X0103685Y0098720D01*
X0104817Y0099219D02*
X0092786Y0099219D01*
X0092786Y0099717D02*
X0110664Y0099717D01*
X0110670Y0100216D02*
X0092786Y0100216D01*
X0092786Y0100714D02*
X0110675Y0100714D01*
X0110680Y0101213D02*
X0092786Y0101213D01*
X0092786Y0101711D02*
X0110686Y0101711D01*
X0110691Y0102210D02*
X0092786Y0102210D01*
X0092786Y0102708D02*
X0110696Y0102708D01*
X0104529Y0103207D02*
X0092786Y0103207D01*
X0092786Y0103705D02*
X0103478Y0103705D01*
X0102427Y0104204D02*
X0092786Y0104204D01*
X0162726Y0186021D02*
X0017100Y0186021D01*
X0017100Y0005100D02*
X0162726Y0005100D01*
D13*
X0162500Y0118294D03*
X0157500Y0118294D03*
X0152500Y0118294D03*
X0147500Y0118294D03*
X0147500Y0141706D03*
X0152500Y0141706D03*
X0157500Y0141706D03*
X0162500Y0141706D03*
D14*
X0016911Y0005100D02*
X0005100Y0016911D01*
X0005100Y0055000D01*
X0032600Y0055000D01*
X0045100Y0041100D01*
X0059100Y0041100D01*
X0072100Y0055100D01*
X0072100Y0136021D01*
X0059100Y0150021D01*
X0045100Y0150021D01*
X0032600Y0136121D01*
X0005100Y0136121D01*
X0005100Y0174250D01*
X0016911Y0186061D01*
X0162580Y0186061D02*
X0174391Y0174250D01*
X0174391Y0016911D01*
X0162580Y0005100D01*
M02*
