%
M48
M72
T01C0.0130
T02C0.0197
T03C0.0200
T04C0.0320
T05C0.0394
T06C0.0400
%
T01
X9623Y3771
X9623Y4008
X9623Y4244
X10173Y4024
X9687Y6776
X9687Y7012
X9687Y7249
X10237Y7029
X9685Y9844
X9685Y10080
X9685Y10316
X10235Y10096
T02
X930Y3040
X1680Y3040
X2430Y3040
X2430Y16090
X1680Y16090
X930Y16090
T03
X2500Y17500
X4800Y16500
X5500Y17500
X5400Y15500
X8050Y10750
X8000Y9550
X10000Y8500
X8650Y6950
X9150Y5700
X12800Y8750
X15400Y8500
X17050Y8000
X15500Y5550
X14500Y5050
X14500Y1500
X15650Y11100
X17050Y11850
X15850Y12850
X10950Y12000
T04
X9249Y11863
X9249Y12863
X8004Y12425
X10000Y14750
X10750Y15250
X10750Y14250
X11950Y14250
X13650Y15450
X13650Y16350
X13650Y17250
X16650Y17250
X16650Y16350
X16650Y15450
X13950Y14250
X17000Y12850
X15900Y10150
X15400Y9400
X14900Y10150
X13750Y9800
X12250Y9800
X12000Y8550
X12250Y6900
X13750Y6900
X14900Y7550
X15400Y6800
X15900Y7550
X17000Y9000
X17000Y9850
X17000Y6000
X17000Y5150
X16000Y4600
X15500Y3850
X15000Y4600
X13700Y3750
X12200Y3750
X12000Y2488
X12000Y5487
X8000Y5487
X8000Y2488
X8000Y8550
X6499Y15076
X8004Y15425
X6499Y18076
X3904Y18079
X3904Y15079
X17000Y2150
T05
X12700Y17250
X11700Y17250
X10700Y17250
X9700Y17250
X8700Y17250
X7700Y17250
T06
X14650Y18100
X15650Y18100
M30
