G75*
%MOIN*%
%OFA0B0*%
%FSLAX25Y25*%
%IPPOS*%
%LPD*%
%AMOC8*
5,1,8,0,0,1.08239X$1,22.5*
%
%ADD10C,0.01800*%
%ADD11C,0.04800*%
%ADD12OC8,0.04800*%
%ADD13OC8,0.06300*%
%ADD14C,0.06300*%
%ADD15C,0.00960*%
%ADD16C,0.05906*%
%ADD17C,0.00600*%
%ADD18C,0.00500*%
%ADD19R,0.04800X0.25000*%
%ADD20R,0.02953X0.02953*%
%ADD21C,0.07400*%
%ADD22C,0.01000*%
%ADD23C,0.03200*%
%ADD24C,0.02400*%
%ADD25C,0.05000*%
%ADD26C,0.03200*%
D10*
X0096378Y0045987D03*
X0096378Y0048487D03*
X0096378Y0050987D03*
X0097018Y0079535D03*
X0097018Y0082035D03*
X0097018Y0084535D03*
X0098999Y0110211D03*
X0098999Y0112711D03*
X0098999Y0115211D03*
D11*
X0082398Y0097016D02*
X0077598Y0097016D01*
X0077597Y0066385D02*
X0082397Y0066385D01*
X0117597Y0066385D02*
X0122397Y0066385D01*
X0121000Y0078618D02*
X0121000Y0083418D01*
X0122398Y0097016D02*
X0117598Y0097016D01*
X0121000Y0109118D02*
X0121000Y0113918D01*
X0136000Y0113918D02*
X0136000Y0109118D01*
X0136000Y0083418D02*
X0136000Y0078618D01*
X0136000Y0052418D02*
X0136000Y0047618D01*
X0121000Y0047618D02*
X0121000Y0052418D01*
X0122403Y0031893D02*
X0117603Y0031893D01*
X0082403Y0031893D02*
X0077603Y0031893D01*
D12*
X0150000Y0041518D03*
X0155000Y0034018D03*
X0160000Y0041518D03*
X0170000Y0033018D03*
X0170000Y0063018D03*
X0155000Y0069018D03*
X0150000Y0076518D03*
X0160000Y0076518D03*
X0170000Y0078018D03*
X0155000Y0104018D03*
X0150000Y0111518D03*
X0160000Y0111518D03*
X0170000Y0108018D03*
X0170000Y0122018D03*
X0170000Y0152018D03*
X0166500Y0166018D03*
X0166500Y0175018D03*
X0166500Y0184018D03*
X0136500Y0184018D03*
X0136500Y0175018D03*
X0136500Y0166018D03*
X0126000Y0163518D03*
X0121000Y0156018D03*
X0116000Y0163518D03*
X0080042Y0165764D03*
X0064993Y0162275D03*
X0039043Y0162311D03*
X0039043Y0192311D03*
X0064993Y0192275D03*
X0080042Y0135764D03*
D13*
X0091493Y0134152D03*
D14*
X0091493Y0144152D03*
D15*
X0088339Y0153445D02*
X0087859Y0152965D01*
X0087997Y0154549D01*
X0089215Y0155571D01*
X0090799Y0155433D01*
X0091821Y0154215D01*
X0091683Y0152631D01*
X0090465Y0151609D01*
X0088881Y0151747D01*
X0087859Y0152965D01*
X0088602Y0153200D01*
X0088688Y0154189D01*
X0089450Y0154828D01*
X0090439Y0154742D01*
X0091078Y0153980D01*
X0090992Y0152991D01*
X0090230Y0152352D01*
X0089241Y0152438D01*
X0088602Y0153200D01*
X0089346Y0153434D01*
X0089380Y0153830D01*
X0089684Y0154084D01*
X0090080Y0154050D01*
X0090334Y0153746D01*
X0090300Y0153350D01*
X0089996Y0153096D01*
X0089600Y0153130D01*
X0089346Y0153434D01*
X0103659Y0166301D02*
X0103179Y0165821D01*
X0103317Y0167405D01*
X0104535Y0168427D01*
X0106119Y0168289D01*
X0107141Y0167071D01*
X0107003Y0165487D01*
X0105785Y0164465D01*
X0104201Y0164603D01*
X0103179Y0165821D01*
X0103922Y0166056D01*
X0104008Y0167045D01*
X0104770Y0167684D01*
X0105759Y0167598D01*
X0106398Y0166836D01*
X0106312Y0165847D01*
X0105550Y0165208D01*
X0104561Y0165294D01*
X0103922Y0166056D01*
X0104666Y0166290D01*
X0104700Y0166686D01*
X0105004Y0166940D01*
X0105400Y0166906D01*
X0105654Y0166602D01*
X0105620Y0166206D01*
X0105316Y0165952D01*
X0104920Y0165986D01*
X0104666Y0166290D01*
D16*
X0107000Y0181065D02*
X0107000Y0186971D01*
X0097000Y0186971D02*
X0097000Y0181065D01*
X0087000Y0181065D02*
X0087000Y0186971D01*
X0077000Y0186971D02*
X0077000Y0181065D01*
X0117000Y0181065D02*
X0117000Y0186971D01*
X0127000Y0186971D02*
X0127000Y0181065D01*
D17*
X0005100Y0028429D02*
X0016911Y0016618D01*
X0005100Y0028429D02*
X0005100Y0066518D01*
X0032600Y0066518D01*
X0045100Y0052618D01*
X0059100Y0052618D01*
X0072100Y0066618D01*
X0072100Y0147539D01*
X0059100Y0161539D01*
X0045100Y0161539D01*
X0032600Y0147639D01*
X0005100Y0147639D01*
X0005100Y0185767D01*
X0016911Y0197578D01*
X0162580Y0197578D02*
X0174391Y0185767D01*
X0174391Y0028429D01*
X0162580Y0016618D01*
D18*
X0162726Y0016618D02*
X0017100Y0016618D01*
X0017100Y0197539D02*
X0162726Y0197539D01*
D19*
X0024300Y0162018D03*
X0016800Y0162018D03*
X0009300Y0162018D03*
X0009300Y0052018D03*
X0016800Y0052018D03*
X0024300Y0052018D03*
D20*
X0024300Y0041918D03*
X0016800Y0041918D03*
X0009300Y0041918D03*
X0009300Y0172418D03*
X0016800Y0172418D03*
X0024300Y0172418D03*
D21*
X0146500Y0192518D03*
X0156500Y0192518D03*
D22*
X0152983Y0195789D02*
X0152431Y0195237D01*
X0151700Y0193473D01*
X0151700Y0191563D01*
X0152431Y0189799D01*
X0153781Y0188449D01*
X0155545Y0187718D01*
X0157455Y0187718D01*
X0159219Y0188449D01*
X0160569Y0189799D01*
X0161300Y0191563D01*
X0161300Y0193473D01*
X0160569Y0195237D01*
X0160017Y0195789D01*
X0161824Y0195789D01*
X0172591Y0185022D01*
X0172591Y0154376D01*
X0171450Y0155518D01*
X0168550Y0155518D01*
X0168267Y0155235D01*
X0140000Y0167048D01*
X0140000Y0167468D01*
X0137950Y0169518D01*
X0135050Y0169518D01*
X0133000Y0167468D01*
X0133000Y0166336D01*
X0132882Y0166218D01*
X0128250Y0166218D01*
X0127450Y0167018D01*
X0126575Y0167018D01*
X0122833Y0171440D01*
X0122789Y0171547D01*
X0122489Y0171848D01*
X0122214Y0172172D01*
X0122111Y0172225D01*
X0122029Y0172307D01*
X0121637Y0172469D01*
X0121259Y0172664D01*
X0121144Y0172673D01*
X0121037Y0172718D01*
X0120612Y0172718D01*
X0133850Y0172718D01*
X0135050Y0171518D01*
X0137950Y0171518D01*
X0140000Y0173568D01*
X0140000Y0176468D01*
X0137950Y0178518D01*
X0135050Y0178518D01*
X0133850Y0177318D01*
X0128544Y0177318D01*
X0129296Y0177629D01*
X0130436Y0178769D01*
X0131053Y0180259D01*
X0131053Y0187777D01*
X0130436Y0189266D01*
X0129296Y0190406D01*
X0127806Y0191023D01*
X0126194Y0191023D01*
X0124704Y0190406D01*
X0123564Y0189266D01*
X0122947Y0187777D01*
X0122947Y0180259D01*
X0123564Y0178769D01*
X0124704Y0177629D01*
X0125456Y0177318D01*
X0119418Y0177318D01*
X0119901Y0177669D01*
X0120396Y0178164D01*
X0120808Y0178731D01*
X0121127Y0179356D01*
X0121343Y0180022D01*
X0121453Y0180715D01*
X0121453Y0183534D01*
X0117484Y0183534D01*
X0117484Y0184502D01*
X0116516Y0184502D01*
X0116516Y0191402D01*
X0115957Y0191314D01*
X0115291Y0191097D01*
X0114666Y0190779D01*
X0114099Y0190367D01*
X0113604Y0189871D01*
X0113192Y0189304D01*
X0112873Y0188680D01*
X0112657Y0188013D01*
X0112547Y0187321D01*
X0112547Y0184502D01*
X0116516Y0184502D01*
X0116516Y0183534D01*
X0112547Y0183534D01*
X0112547Y0180715D01*
X0112657Y0180022D01*
X0112873Y0179356D01*
X0113192Y0178731D01*
X0113604Y0178164D01*
X0114099Y0177669D01*
X0114582Y0177318D01*
X0108544Y0177318D01*
X0109296Y0177629D01*
X0110436Y0178769D01*
X0111053Y0180259D01*
X0111053Y0187777D01*
X0110436Y0189266D01*
X0109296Y0190406D01*
X0107806Y0191023D01*
X0106194Y0191023D01*
X0104704Y0190406D01*
X0103564Y0189266D01*
X0102947Y0187777D01*
X0102947Y0180259D01*
X0103564Y0178769D01*
X0104704Y0177629D01*
X0105456Y0177318D01*
X0102073Y0177318D01*
X0100989Y0180106D01*
X0101053Y0180259D01*
X0101053Y0187777D01*
X0100436Y0189266D01*
X0099296Y0190406D01*
X0097806Y0191023D01*
X0096194Y0191023D01*
X0094704Y0190406D01*
X0093564Y0189266D01*
X0092947Y0187777D01*
X0092947Y0180259D01*
X0093564Y0178769D01*
X0094704Y0177629D01*
X0096194Y0177012D01*
X0097257Y0177012D01*
X0098200Y0174586D01*
X0098200Y0174065D01*
X0098532Y0173733D01*
X0098702Y0173296D01*
X0099179Y0173086D01*
X0099547Y0172718D01*
X0100016Y0172718D01*
X0100446Y0172529D01*
X0100931Y0172718D01*
X0120079Y0172718D01*
X0120079Y0172718D01*
X0111963Y0172718D01*
X0110971Y0172307D01*
X0110211Y0171547D01*
X0108239Y0169575D01*
X0107217Y0169440D01*
X0106910Y0169806D01*
X0104021Y0170059D01*
X0101800Y0168195D01*
X0101547Y0165306D01*
X0103411Y0163085D01*
X0106300Y0162833D01*
X0107770Y0164066D01*
X0109677Y0164318D01*
X0110037Y0164318D01*
X0110205Y0164387D01*
X0110385Y0164411D01*
X0110697Y0164591D01*
X0111029Y0164729D01*
X0111158Y0164857D01*
X0111315Y0164948D01*
X0111535Y0165234D01*
X0113618Y0167318D01*
X0119248Y0167318D01*
X0122500Y0163474D01*
X0122500Y0162068D01*
X0124550Y0160018D01*
X0127450Y0160018D01*
X0128250Y0160818D01*
X0134537Y0160818D01*
X0135529Y0161229D01*
X0136289Y0161988D01*
X0136289Y0161988D01*
X0136818Y0162518D01*
X0137950Y0162518D01*
X0138233Y0162801D01*
X0166500Y0150988D01*
X0166500Y0150568D01*
X0167700Y0149368D01*
X0167700Y0132271D01*
X0162749Y0125520D01*
X0162200Y0124970D01*
X0162200Y0124771D01*
X0162082Y0124610D01*
X0162200Y0123842D01*
X0162200Y0119114D01*
X0162129Y0118259D01*
X0162200Y0118175D01*
X0162200Y0118065D01*
X0162806Y0117459D01*
X0167700Y0111675D01*
X0167700Y0110668D01*
X0166500Y0109468D01*
X0166500Y0106568D01*
X0167700Y0105368D01*
X0167700Y0091935D01*
X0163521Y0080792D01*
X0163200Y0080470D01*
X0163200Y0079935D01*
X0163012Y0079433D01*
X0163200Y0079020D01*
X0163200Y0078833D01*
X0161615Y0080418D01*
X0160300Y0080418D01*
X0160300Y0076818D01*
X0159700Y0076818D01*
X0159700Y0080418D01*
X0158385Y0080418D01*
X0157559Y0079592D01*
X0157795Y0089286D01*
X0157932Y0090051D01*
X0157818Y0090215D01*
X0157823Y0090414D01*
X0157287Y0090977D01*
X0146300Y0106740D01*
X0146300Y0129065D01*
X0152553Y0135318D01*
X0153037Y0135318D01*
X0154029Y0135729D01*
X0154789Y0136488D01*
X0155200Y0137481D01*
X0155200Y0138555D01*
X0154789Y0139547D01*
X0154029Y0140307D01*
X0153037Y0140718D01*
X0151963Y0140718D01*
X0150971Y0140307D01*
X0150211Y0139547D01*
X0150165Y0139435D01*
X0141700Y0130970D01*
X0141700Y0106222D01*
X0141568Y0105484D01*
X0141700Y0105295D01*
X0141700Y0105065D01*
X0142230Y0104536D01*
X0153182Y0088821D01*
X0152931Y0078536D01*
X0151450Y0080018D01*
X0148550Y0080018D01*
X0146500Y0077968D01*
X0146500Y0075068D01*
X0148550Y0073018D01*
X0151450Y0073018D01*
X0152831Y0074399D01*
X0152766Y0071733D01*
X0151500Y0070468D01*
X0151500Y0067568D01*
X0153550Y0065518D01*
X0156450Y0065518D01*
X0158500Y0067568D01*
X0158500Y0070468D01*
X0157364Y0071604D01*
X0157412Y0073590D01*
X0158385Y0072618D01*
X0159700Y0072618D01*
X0159700Y0076218D01*
X0160300Y0076218D01*
X0160300Y0072618D01*
X0161615Y0072618D01*
X0163200Y0074202D01*
X0163200Y0073961D01*
X0163011Y0073487D01*
X0163200Y0073046D01*
X0163200Y0072565D01*
X0163560Y0072205D01*
X0166763Y0064731D01*
X0166500Y0064468D01*
X0166500Y0061568D01*
X0168550Y0059518D01*
X0171450Y0059518D01*
X0172591Y0060659D01*
X0172591Y0035376D01*
X0171450Y0036518D01*
X0168550Y0036518D01*
X0166500Y0034468D01*
X0166500Y0031568D01*
X0168550Y0029518D01*
X0171450Y0029518D01*
X0172591Y0030659D01*
X0172591Y0029174D01*
X0161785Y0018368D01*
X0120103Y0018368D01*
X0120800Y0019065D01*
X0130300Y0028565D01*
X0130300Y0074465D01*
X0130547Y0074218D01*
X0130703Y0074218D01*
X0144046Y0063714D01*
X0144037Y0063718D01*
X0142963Y0063718D01*
X0141971Y0063307D01*
X0141211Y0062547D01*
X0140800Y0061555D01*
X0140800Y0060481D01*
X0141211Y0059488D01*
X0141426Y0059274D01*
X0142203Y0053834D01*
X0142683Y0027453D01*
X0139436Y0024207D01*
X0138471Y0023807D01*
X0137711Y0023047D01*
X0137300Y0022055D01*
X0137300Y0020981D01*
X0137711Y0019988D01*
X0138471Y0019229D01*
X0139463Y0018818D01*
X0140537Y0018818D01*
X0141529Y0019229D01*
X0142289Y0019988D01*
X0142689Y0020954D01*
X0145970Y0024235D01*
X0145994Y0024236D01*
X0146641Y0024906D01*
X0147300Y0025565D01*
X0147300Y0025590D01*
X0147317Y0025607D01*
X0147300Y0026539D01*
X0147300Y0027470D01*
X0147283Y0027488D01*
X0147064Y0039504D01*
X0148550Y0038018D01*
X0151450Y0038018D01*
X0152700Y0039268D01*
X0152700Y0036668D01*
X0151500Y0035468D01*
X0151500Y0032568D01*
X0153550Y0030518D01*
X0156450Y0030518D01*
X0158500Y0032568D01*
X0158500Y0035468D01*
X0157300Y0036668D01*
X0157300Y0038702D01*
X0158385Y0037618D01*
X0159700Y0037618D01*
X0159700Y0041218D01*
X0160300Y0041218D01*
X0160300Y0041818D01*
X0159700Y0041818D01*
X0159700Y0045418D01*
X0158385Y0045418D01*
X0157300Y0044333D01*
X0157300Y0057221D01*
X0157396Y0057344D01*
X0157300Y0058154D01*
X0157300Y0058970D01*
X0157190Y0059081D01*
X0157171Y0059236D01*
X0156530Y0059741D01*
X0155953Y0060318D01*
X0155797Y0060318D01*
X0136893Y0075199D01*
X0137983Y0075651D01*
X0138967Y0076635D01*
X0139500Y0077922D01*
X0139500Y0084114D01*
X0138967Y0085400D01*
X0137983Y0086385D01*
X0136696Y0086918D01*
X0135304Y0086918D01*
X0134017Y0086385D01*
X0133800Y0086168D01*
X0133800Y0106368D01*
X0134017Y0106151D01*
X0135304Y0105618D01*
X0136696Y0105618D01*
X0137983Y0106151D01*
X0138967Y0107135D01*
X0139500Y0108422D01*
X0139500Y0114614D01*
X0138967Y0115900D01*
X0137983Y0116885D01*
X0136696Y0117418D01*
X0135304Y0117418D01*
X0134017Y0116885D01*
X0133800Y0116668D01*
X0133800Y0130985D01*
X0145874Y0141718D01*
X0155997Y0141718D01*
X0156963Y0141318D01*
X0158037Y0141318D01*
X0159029Y0141729D01*
X0159789Y0142488D01*
X0160200Y0143481D01*
X0160200Y0144555D01*
X0159789Y0145547D01*
X0159029Y0146307D01*
X0158037Y0146718D01*
X0156963Y0146718D01*
X0155997Y0146318D01*
X0145068Y0146318D01*
X0144184Y0146370D01*
X0144126Y0146318D01*
X0144047Y0146318D01*
X0143422Y0145692D01*
X0130626Y0134318D01*
X0130547Y0134318D01*
X0129921Y0133692D01*
X0129260Y0133104D01*
X0129255Y0133026D01*
X0129200Y0132970D01*
X0129200Y0132085D01*
X0129148Y0131202D01*
X0129200Y0131143D01*
X0129200Y0101443D01*
X0128537Y0101718D01*
X0127463Y0101718D01*
X0126471Y0101307D01*
X0125711Y0100547D01*
X0125300Y0099555D01*
X0125300Y0099064D01*
X0124381Y0099983D01*
X0123094Y0100516D01*
X0116902Y0100516D01*
X0115616Y0099983D01*
X0114631Y0098998D01*
X0114098Y0097712D01*
X0114098Y0096320D01*
X0114631Y0095033D01*
X0115616Y0094049D01*
X0116902Y0093516D01*
X0123094Y0093516D01*
X0124381Y0094049D01*
X0125365Y0095033D01*
X0125700Y0095841D01*
X0125700Y0067556D01*
X0125364Y0068367D01*
X0124379Y0069352D01*
X0123093Y0069885D01*
X0116900Y0069885D01*
X0115614Y0069352D01*
X0114629Y0068367D01*
X0114097Y0067081D01*
X0114097Y0065689D01*
X0114629Y0064402D01*
X0115614Y0063418D01*
X0116900Y0062885D01*
X0123093Y0062885D01*
X0124379Y0063418D01*
X0125364Y0064402D01*
X0125700Y0065214D01*
X0125700Y0033080D01*
X0125370Y0033876D01*
X0124386Y0034860D01*
X0123099Y0035393D01*
X0116907Y0035393D01*
X0115620Y0034860D01*
X0114636Y0033876D01*
X0114103Y0032589D01*
X0114103Y0031197D01*
X0114636Y0029911D01*
X0115620Y0028926D01*
X0116907Y0028393D01*
X0123099Y0028393D01*
X0123993Y0028763D01*
X0117547Y0022318D01*
X0019953Y0022318D01*
X0011600Y0030670D01*
X0011600Y0038418D01*
X0012156Y0038418D01*
X0012800Y0039062D01*
X0012800Y0064718D01*
X0013300Y0064718D01*
X0013300Y0039062D01*
X0013944Y0038418D01*
X0019656Y0038418D01*
X0020300Y0039062D01*
X0020300Y0064718D01*
X0020800Y0064718D01*
X0020800Y0039062D01*
X0021444Y0038418D01*
X0027156Y0038418D01*
X0027800Y0039062D01*
X0027800Y0064718D01*
X0031798Y0064718D01*
X0043300Y0051927D01*
X0043300Y0051872D01*
X0043794Y0051379D01*
X0044260Y0050860D01*
X0044315Y0050857D01*
X0044354Y0050818D01*
X0045052Y0050818D01*
X0045749Y0050781D01*
X0045790Y0050818D01*
X0058393Y0050818D01*
X0058422Y0050791D01*
X0059133Y0050818D01*
X0059846Y0050818D01*
X0059873Y0050845D01*
X0059912Y0050847D01*
X0060396Y0051369D01*
X0060900Y0051872D01*
X0060900Y0051911D01*
X0073396Y0065369D01*
X0073900Y0065872D01*
X0073900Y0065911D01*
X0073926Y0065939D01*
X0073900Y0066651D01*
X0073900Y0147506D01*
X0073926Y0148218D01*
X0073900Y0148246D01*
X0073900Y0148285D01*
X0073396Y0148788D01*
X0064123Y0158775D01*
X0065240Y0158775D01*
X0069797Y0154218D01*
X0079047Y0154218D01*
X0082700Y0150565D01*
X0082700Y0138055D01*
X0081492Y0139264D01*
X0078592Y0139264D01*
X0076542Y0137213D01*
X0076542Y0134314D01*
X0078592Y0132264D01*
X0081492Y0132264D01*
X0082700Y0133472D01*
X0082700Y0112037D01*
X0082685Y0111103D01*
X0082700Y0111087D01*
X0082700Y0111065D01*
X0083360Y0110405D01*
X0097300Y0096000D01*
X0097300Y0095981D01*
X0097711Y0094988D01*
X0098471Y0094229D01*
X0099463Y0093818D01*
X0100537Y0093818D01*
X0101529Y0094229D01*
X0102289Y0094988D01*
X0102700Y0095981D01*
X0102700Y0097055D01*
X0102289Y0098047D01*
X0101529Y0098807D01*
X0100622Y0099183D01*
X0087300Y0112948D01*
X0087300Y0131769D01*
X0089567Y0129502D01*
X0091193Y0129502D01*
X0091193Y0133852D01*
X0091793Y0133852D01*
X0091793Y0134452D01*
X0096143Y0134452D01*
X0096143Y0135801D01*
X0097920Y0134374D01*
X0100511Y0126601D01*
X0100603Y0126128D01*
X0100735Y0125928D01*
X0100811Y0125700D01*
X0101127Y0125336D01*
X0101393Y0124934D01*
X0101592Y0124799D01*
X0101750Y0124618D01*
X0102181Y0124403D01*
X0105419Y0122218D01*
X0105900Y0073500D01*
X0105900Y0073223D01*
X0093818Y0067058D01*
X0094200Y0067981D01*
X0094200Y0069055D01*
X0093800Y0070021D01*
X0093800Y0094993D01*
X0093820Y0095921D01*
X0093800Y0095942D01*
X0093800Y0095970D01*
X0093144Y0096627D01*
X0082700Y0107525D01*
X0082700Y0107555D01*
X0082289Y0108547D01*
X0081529Y0109307D01*
X0080537Y0109718D01*
X0079463Y0109718D01*
X0078471Y0109307D01*
X0077711Y0108547D01*
X0077300Y0107555D01*
X0077300Y0106481D01*
X0077711Y0105488D01*
X0078471Y0104729D01*
X0079362Y0104360D01*
X0083045Y0100516D01*
X0080956Y0100516D01*
X0080714Y0100616D01*
X0079282Y0100616D01*
X0079041Y0100516D01*
X0076902Y0100516D01*
X0075616Y0099983D01*
X0074631Y0098998D01*
X0074098Y0097712D01*
X0074098Y0096320D01*
X0074631Y0095033D01*
X0075616Y0094049D01*
X0076397Y0093725D01*
X0076397Y0069676D01*
X0075614Y0069352D01*
X0074629Y0068367D01*
X0074097Y0067081D01*
X0074097Y0065689D01*
X0074629Y0064402D01*
X0075614Y0063418D01*
X0076397Y0063094D01*
X0076397Y0062415D01*
X0076327Y0062101D01*
X0076397Y0061706D01*
X0076397Y0061305D01*
X0076520Y0061008D01*
X0076576Y0060691D01*
X0076791Y0060353D01*
X0076945Y0059982D01*
X0077172Y0059754D01*
X0077345Y0059483D01*
X0077674Y0059253D01*
X0077957Y0058969D01*
X0078255Y0058846D01*
X0079421Y0058030D01*
X0077964Y0056573D01*
X0076951Y0055560D01*
X0076403Y0054237D01*
X0076403Y0035184D01*
X0075620Y0034860D01*
X0074636Y0033876D01*
X0074103Y0032589D01*
X0074103Y0031197D01*
X0074636Y0029911D01*
X0075620Y0028926D01*
X0076907Y0028393D01*
X0079046Y0028393D01*
X0079287Y0028293D01*
X0080719Y0028293D01*
X0080961Y0028393D01*
X0083099Y0028393D01*
X0084386Y0028926D01*
X0085370Y0029911D01*
X0085903Y0031197D01*
X0085903Y0032589D01*
X0085370Y0033876D01*
X0084386Y0034860D01*
X0083603Y0035184D01*
X0083603Y0052030D01*
X0087143Y0055570D01*
X0111009Y0067746D01*
X0111539Y0067966D01*
X0111643Y0068070D01*
X0111774Y0068136D01*
X0112146Y0068573D01*
X0112552Y0068979D01*
X0112608Y0069114D01*
X0112703Y0069226D01*
X0112880Y0069772D01*
X0113100Y0070302D01*
X0113100Y0070449D01*
X0113145Y0070588D01*
X0113100Y0071160D01*
X0113100Y0072820D01*
X0113107Y0072837D01*
X0113100Y0073536D01*
X0113100Y0074234D01*
X0113093Y0074251D01*
X0112604Y0123800D01*
X0112670Y0124129D01*
X0112597Y0124509D01*
X0112593Y0124897D01*
X0112461Y0125205D01*
X0112397Y0125535D01*
X0112183Y0125858D01*
X0112032Y0126214D01*
X0111792Y0126449D01*
X0111607Y0126729D01*
X0111286Y0126946D01*
X0111009Y0127217D01*
X0110698Y0127342D01*
X0107028Y0129818D01*
X0104537Y0137291D01*
X0104501Y0137621D01*
X0104313Y0137964D01*
X0104189Y0138336D01*
X0103972Y0138586D01*
X0103812Y0138876D01*
X0103507Y0139122D01*
X0103250Y0139417D01*
X0102954Y0139566D01*
X0095520Y0145535D01*
X0095096Y0146559D01*
X0093900Y0147755D01*
X0092338Y0148402D01*
X0090648Y0148402D01*
X0089086Y0147755D01*
X0087890Y0146559D01*
X0087300Y0145135D01*
X0087300Y0150549D01*
X0087890Y0149846D01*
X0091109Y0149564D01*
X0092117Y0150409D01*
X0089803Y0153167D01*
X0090262Y0153553D01*
X0092576Y0150795D01*
X0093584Y0151641D01*
X0093865Y0154859D01*
X0093020Y0155867D01*
X0090262Y0153553D01*
X0089877Y0154013D01*
X0092634Y0156327D01*
X0091789Y0157334D01*
X0088570Y0157616D01*
X0087562Y0156770D01*
X0089876Y0154013D01*
X0089417Y0153627D01*
X0087103Y0156385D01*
X0086095Y0155539D01*
X0085945Y0153825D01*
X0082300Y0157470D01*
X0080953Y0158818D01*
X0071702Y0158818D01*
X0068492Y0162027D01*
X0068492Y0163724D01*
X0067292Y0164924D01*
X0067292Y0177478D01*
X0057689Y0187082D01*
X0057289Y0188047D01*
X0056529Y0188807D01*
X0055537Y0189218D01*
X0054463Y0189218D01*
X0053471Y0188807D01*
X0052711Y0188047D01*
X0052300Y0187055D01*
X0052300Y0185981D01*
X0052711Y0184988D01*
X0053471Y0184229D01*
X0054436Y0183829D01*
X0062693Y0175573D01*
X0062693Y0164924D01*
X0061493Y0163724D01*
X0061493Y0161608D01*
X0060900Y0162246D01*
X0060900Y0162285D01*
X0060396Y0162788D01*
X0059912Y0163310D01*
X0059873Y0163312D01*
X0059846Y0163339D01*
X0059133Y0163339D01*
X0058422Y0163365D01*
X0058393Y0163339D01*
X0045790Y0163339D01*
X0045749Y0163376D01*
X0045052Y0163339D01*
X0044354Y0163339D01*
X0044315Y0163300D01*
X0044260Y0163297D01*
X0043794Y0162778D01*
X0043300Y0162285D01*
X0043300Y0162229D01*
X0042543Y0161387D01*
X0042543Y0163761D01*
X0040492Y0165811D01*
X0037593Y0165811D01*
X0035543Y0163761D01*
X0035543Y0160861D01*
X0037593Y0158811D01*
X0040226Y0158811D01*
X0031798Y0149439D01*
X0027800Y0149439D01*
X0027800Y0174973D01*
X0027156Y0175618D01*
X0021444Y0175618D01*
X0020800Y0174973D01*
X0020800Y0149439D01*
X0020300Y0149439D01*
X0020300Y0174973D01*
X0019656Y0175618D01*
X0019100Y0175618D01*
X0019100Y0177365D01*
X0025564Y0183829D01*
X0026529Y0184229D01*
X0027289Y0184988D01*
X0027700Y0185981D01*
X0027700Y0187055D01*
X0027289Y0188047D01*
X0026529Y0188807D01*
X0025537Y0189218D01*
X0024463Y0189218D01*
X0023471Y0188807D01*
X0022711Y0188047D01*
X0022311Y0187082D01*
X0015847Y0180618D01*
X0014500Y0179270D01*
X0014500Y0175618D01*
X0013944Y0175618D01*
X0013300Y0174973D01*
X0013300Y0149439D01*
X0012800Y0149439D01*
X0012800Y0174973D01*
X0012156Y0175618D01*
X0006900Y0175618D01*
X0006900Y0185022D01*
X0017667Y0195789D01*
X0037571Y0195789D01*
X0035543Y0193761D01*
X0035543Y0190861D01*
X0037593Y0188811D01*
X0040492Y0188811D01*
X0042543Y0190861D01*
X0042543Y0193761D01*
X0040514Y0195789D01*
X0142983Y0195789D01*
X0142431Y0195237D01*
X0141700Y0193473D01*
X0141700Y0191563D01*
X0142431Y0189799D01*
X0143781Y0188449D01*
X0144342Y0188216D01*
X0144679Y0178110D01*
X0144535Y0177866D01*
X0144710Y0177188D01*
X0144733Y0176489D01*
X0144940Y0176295D01*
X0145011Y0176021D01*
X0145614Y0175665D01*
X0146124Y0175187D01*
X0146408Y0175197D01*
X0163000Y0165412D01*
X0163000Y0164568D01*
X0165050Y0162518D01*
X0167950Y0162518D01*
X0170000Y0164568D01*
X0170000Y0167468D01*
X0167950Y0169518D01*
X0165093Y0169518D01*
X0149257Y0178857D01*
X0148941Y0188333D01*
X0149219Y0188449D01*
X0150569Y0189799D01*
X0151300Y0191563D01*
X0151300Y0193473D01*
X0150569Y0195237D01*
X0150017Y0195789D01*
X0152983Y0195789D01*
X0152445Y0195251D02*
X0150555Y0195251D01*
X0150977Y0194253D02*
X0152023Y0194253D01*
X0151700Y0193254D02*
X0151300Y0193254D01*
X0151300Y0192256D02*
X0151700Y0192256D01*
X0151827Y0191257D02*
X0151173Y0191257D01*
X0150760Y0190259D02*
X0152240Y0190259D01*
X0152969Y0189260D02*
X0150031Y0189260D01*
X0148943Y0188262D02*
X0154232Y0188262D01*
X0148976Y0187263D02*
X0164796Y0187263D01*
X0165050Y0187518D02*
X0163000Y0185468D01*
X0163000Y0182568D01*
X0165050Y0180518D01*
X0167950Y0180518D01*
X0170000Y0182568D01*
X0170000Y0185468D01*
X0167950Y0187518D01*
X0165050Y0187518D01*
X0163797Y0186265D02*
X0149010Y0186265D01*
X0149043Y0185266D02*
X0163000Y0185266D01*
X0163000Y0184268D02*
X0149076Y0184268D01*
X0149110Y0183269D02*
X0163000Y0183269D01*
X0163297Y0182271D02*
X0149143Y0182271D01*
X0149176Y0181272D02*
X0164296Y0181272D01*
X0165050Y0178518D02*
X0163000Y0176468D01*
X0163000Y0173568D01*
X0165050Y0171518D01*
X0167950Y0171518D01*
X0170000Y0173568D01*
X0170000Y0176468D01*
X0167950Y0178518D01*
X0165050Y0178518D01*
X0164809Y0178277D02*
X0150241Y0178277D01*
X0149243Y0179275D02*
X0172591Y0179275D01*
X0172591Y0178277D02*
X0168191Y0178277D01*
X0169189Y0177278D02*
X0172591Y0177278D01*
X0172591Y0176280D02*
X0170000Y0176280D01*
X0170000Y0175281D02*
X0172591Y0175281D01*
X0172591Y0174283D02*
X0170000Y0174283D01*
X0169716Y0173284D02*
X0172591Y0173284D01*
X0172591Y0172286D02*
X0168718Y0172286D01*
X0168177Y0169290D02*
X0172591Y0169290D01*
X0172591Y0168292D02*
X0169176Y0168292D01*
X0170000Y0167293D02*
X0172591Y0167293D01*
X0172591Y0166295D02*
X0170000Y0166295D01*
X0170000Y0165296D02*
X0172591Y0165296D01*
X0172591Y0164297D02*
X0169729Y0164297D01*
X0168731Y0163299D02*
X0172591Y0163299D01*
X0172591Y0162300D02*
X0151360Y0162300D01*
X0153749Y0161302D02*
X0172591Y0161302D01*
X0172591Y0160303D02*
X0156138Y0160303D01*
X0158528Y0159305D02*
X0172591Y0159305D01*
X0172591Y0158306D02*
X0160917Y0158306D01*
X0163306Y0157308D02*
X0172591Y0157308D01*
X0172591Y0156309D02*
X0165696Y0156309D01*
X0168085Y0155311D02*
X0168343Y0155311D01*
X0171657Y0155311D02*
X0172591Y0155311D01*
X0166750Y0150318D02*
X0109452Y0150318D01*
X0110451Y0149320D02*
X0167700Y0149320D01*
X0167700Y0148321D02*
X0111471Y0148321D01*
X0111669Y0148101D02*
X0111072Y0148765D01*
X0111002Y0148768D01*
X0091707Y0168064D01*
X0082692Y0168064D01*
X0081492Y0169264D01*
X0078592Y0169264D01*
X0076542Y0167213D01*
X0076542Y0164314D01*
X0078592Y0162264D01*
X0081492Y0162264D01*
X0082692Y0163464D01*
X0089801Y0163464D01*
X0107649Y0145616D01*
X0107250Y0138020D01*
X0107200Y0137970D01*
X0107200Y0137078D01*
X0107153Y0136187D01*
X0107200Y0136135D01*
X0107200Y0133021D01*
X0106800Y0132055D01*
X0106800Y0130981D01*
X0107211Y0129988D01*
X0107971Y0129229D01*
X0108963Y0128818D01*
X0110037Y0128818D01*
X0111029Y0129229D01*
X0111789Y0129988D01*
X0112200Y0130981D01*
X0112200Y0132055D01*
X0111800Y0133021D01*
X0111800Y0136957D01*
X0112250Y0145516D01*
X0112300Y0145565D01*
X0112300Y0146457D01*
X0112347Y0147348D01*
X0112300Y0147400D01*
X0112300Y0147470D01*
X0111669Y0148101D01*
X0112346Y0147323D02*
X0167700Y0147323D01*
X0167700Y0146324D02*
X0158987Y0146324D01*
X0159881Y0145326D02*
X0167700Y0145326D01*
X0167700Y0144327D02*
X0160200Y0144327D01*
X0160137Y0143329D02*
X0167700Y0143329D01*
X0167700Y0142330D02*
X0159631Y0142330D01*
X0158071Y0141332D02*
X0167700Y0141332D01*
X0167700Y0140333D02*
X0153966Y0140333D01*
X0154877Y0139335D02*
X0167700Y0139335D01*
X0167700Y0138336D02*
X0155200Y0138336D01*
X0155141Y0137338D02*
X0167700Y0137338D01*
X0167700Y0136339D02*
X0154640Y0136339D01*
X0153092Y0135341D02*
X0167700Y0135341D01*
X0167700Y0134342D02*
X0151577Y0134342D01*
X0150579Y0133344D02*
X0167700Y0133344D01*
X0167700Y0132345D02*
X0149580Y0132345D01*
X0148581Y0131347D02*
X0167022Y0131347D01*
X0166290Y0130348D02*
X0147583Y0130348D01*
X0146584Y0129350D02*
X0165558Y0129350D01*
X0164826Y0128351D02*
X0146300Y0128351D01*
X0146300Y0127353D02*
X0164093Y0127353D01*
X0163361Y0126354D02*
X0146300Y0126354D01*
X0146300Y0125356D02*
X0162585Y0125356D01*
X0162121Y0124357D02*
X0146300Y0124357D01*
X0146300Y0123359D02*
X0162200Y0123359D01*
X0162200Y0122360D02*
X0146300Y0122360D01*
X0146300Y0121361D02*
X0162200Y0121361D01*
X0162200Y0120363D02*
X0146300Y0120363D01*
X0146300Y0119364D02*
X0162200Y0119364D01*
X0162138Y0118366D02*
X0146300Y0118366D01*
X0146300Y0117367D02*
X0162884Y0117367D01*
X0163728Y0116369D02*
X0146300Y0116369D01*
X0146300Y0115370D02*
X0158337Y0115370D01*
X0158385Y0115418D02*
X0156100Y0113133D01*
X0156100Y0111818D01*
X0159700Y0111818D01*
X0159700Y0115418D01*
X0158385Y0115418D01*
X0159700Y0115370D02*
X0160300Y0115370D01*
X0160300Y0115418D02*
X0161615Y0115418D01*
X0163900Y0113133D01*
X0163900Y0111818D01*
X0160300Y0111818D01*
X0159700Y0111818D01*
X0159700Y0111218D01*
X0156100Y0111218D01*
X0156100Y0109902D01*
X0158385Y0107618D01*
X0159700Y0107618D01*
X0159700Y0111218D01*
X0160300Y0111218D01*
X0160300Y0111818D01*
X0160300Y0115418D01*
X0160300Y0114372D02*
X0159700Y0114372D01*
X0159700Y0113373D02*
X0160300Y0113373D01*
X0160300Y0112375D02*
X0159700Y0112375D01*
X0159700Y0111376D02*
X0153500Y0111376D01*
X0153500Y0110378D02*
X0156100Y0110378D01*
X0156623Y0109379D02*
X0152811Y0109379D01*
X0153500Y0110068D02*
X0151450Y0108018D01*
X0148550Y0108018D01*
X0146500Y0110068D01*
X0146500Y0112968D01*
X0148550Y0115018D01*
X0151450Y0115018D01*
X0153500Y0112968D01*
X0153500Y0110068D01*
X0153500Y0112375D02*
X0156100Y0112375D01*
X0156340Y0113373D02*
X0153094Y0113373D01*
X0152096Y0114372D02*
X0157339Y0114372D01*
X0160300Y0111376D02*
X0167700Y0111376D01*
X0167410Y0110378D02*
X0163900Y0110378D01*
X0163900Y0109902D02*
X0163900Y0111218D01*
X0160300Y0111218D01*
X0160300Y0107618D01*
X0161615Y0107618D01*
X0163900Y0109902D01*
X0163377Y0109379D02*
X0166500Y0109379D01*
X0166500Y0108381D02*
X0162378Y0108381D01*
X0160300Y0108381D02*
X0159700Y0108381D01*
X0159700Y0109379D02*
X0160300Y0109379D01*
X0160300Y0110378D02*
X0159700Y0110378D01*
X0157622Y0108381D02*
X0151813Y0108381D01*
X0153415Y0107382D02*
X0146300Y0107382D01*
X0146300Y0108381D02*
X0148187Y0108381D01*
X0147189Y0109379D02*
X0146300Y0109379D01*
X0146300Y0110378D02*
X0146500Y0110378D01*
X0146500Y0111376D02*
X0146300Y0111376D01*
X0146300Y0112375D02*
X0146500Y0112375D01*
X0146300Y0113373D02*
X0146906Y0113373D01*
X0146300Y0114372D02*
X0147904Y0114372D01*
X0141700Y0114372D02*
X0139500Y0114372D01*
X0139500Y0113373D02*
X0141700Y0113373D01*
X0141700Y0112375D02*
X0139500Y0112375D01*
X0139500Y0111376D02*
X0141700Y0111376D01*
X0141700Y0110378D02*
X0139500Y0110378D01*
X0139500Y0109379D02*
X0141700Y0109379D01*
X0141700Y0108381D02*
X0139483Y0108381D01*
X0139070Y0107382D02*
X0141700Y0107382D01*
X0141700Y0106384D02*
X0138216Y0106384D01*
X0141637Y0105385D02*
X0133800Y0105385D01*
X0133800Y0104387D02*
X0142333Y0104387D01*
X0143029Y0103388D02*
X0133800Y0103388D01*
X0133800Y0102390D02*
X0143725Y0102390D01*
X0144421Y0101391D02*
X0133800Y0101391D01*
X0133800Y0100393D02*
X0145117Y0100393D01*
X0145813Y0099394D02*
X0133800Y0099394D01*
X0133800Y0098396D02*
X0146509Y0098396D01*
X0147205Y0097397D02*
X0133800Y0097397D01*
X0133800Y0096399D02*
X0147901Y0096399D01*
X0148597Y0095400D02*
X0133800Y0095400D01*
X0133800Y0094402D02*
X0149293Y0094402D01*
X0149988Y0093403D02*
X0133800Y0093403D01*
X0133800Y0092405D02*
X0150684Y0092405D01*
X0151380Y0091406D02*
X0133800Y0091406D01*
X0133800Y0090408D02*
X0152076Y0090408D01*
X0152772Y0089409D02*
X0133800Y0089409D01*
X0133800Y0088411D02*
X0153172Y0088411D01*
X0153148Y0087412D02*
X0133800Y0087412D01*
X0133800Y0086414D02*
X0134087Y0086414D01*
X0137913Y0086414D02*
X0153124Y0086414D01*
X0153099Y0085415D02*
X0138952Y0085415D01*
X0139375Y0084417D02*
X0153075Y0084417D01*
X0153051Y0083418D02*
X0139500Y0083418D01*
X0139500Y0082420D02*
X0153026Y0082420D01*
X0153002Y0081421D02*
X0139500Y0081421D01*
X0139500Y0080423D02*
X0152977Y0080423D01*
X0152953Y0079424D02*
X0152044Y0079424D01*
X0147956Y0079424D02*
X0139500Y0079424D01*
X0139500Y0078426D02*
X0146958Y0078426D01*
X0146500Y0077427D02*
X0139295Y0077427D01*
X0138760Y0076428D02*
X0146500Y0076428D01*
X0146500Y0075430D02*
X0137450Y0075430D01*
X0137869Y0074431D02*
X0147137Y0074431D01*
X0148135Y0073433D02*
X0139137Y0073433D01*
X0140405Y0072434D02*
X0152783Y0072434D01*
X0152807Y0073433D02*
X0151865Y0073433D01*
X0152468Y0071436D02*
X0141674Y0071436D01*
X0142942Y0070437D02*
X0151500Y0070437D01*
X0151500Y0069439D02*
X0144210Y0069439D01*
X0145479Y0068440D02*
X0151500Y0068440D01*
X0151626Y0067442D02*
X0146747Y0067442D01*
X0148016Y0066443D02*
X0152625Y0066443D01*
X0150552Y0064446D02*
X0166500Y0064446D01*
X0166500Y0063448D02*
X0151821Y0063448D01*
X0153089Y0062449D02*
X0166500Y0062449D01*
X0166617Y0061451D02*
X0154357Y0061451D01*
X0155626Y0060452D02*
X0167616Y0060452D01*
X0172384Y0060452D02*
X0172591Y0060452D01*
X0172591Y0059454D02*
X0156894Y0059454D01*
X0157300Y0058455D02*
X0172591Y0058455D01*
X0172591Y0057457D02*
X0157383Y0057457D01*
X0157300Y0056458D02*
X0172591Y0056458D01*
X0172591Y0055460D02*
X0157300Y0055460D01*
X0157300Y0054461D02*
X0172591Y0054461D01*
X0172591Y0053463D02*
X0157300Y0053463D01*
X0157300Y0052464D02*
X0172591Y0052464D01*
X0172591Y0051466D02*
X0157300Y0051466D01*
X0157300Y0050467D02*
X0172591Y0050467D01*
X0172591Y0049469D02*
X0157300Y0049469D01*
X0157300Y0048470D02*
X0172591Y0048470D01*
X0172591Y0047472D02*
X0157300Y0047472D01*
X0157300Y0046473D02*
X0172591Y0046473D01*
X0172591Y0045475D02*
X0157300Y0045475D01*
X0157300Y0044476D02*
X0157443Y0044476D01*
X0159700Y0044476D02*
X0160300Y0044476D01*
X0160300Y0045418D02*
X0160300Y0041818D01*
X0163900Y0041818D01*
X0163900Y0043133D01*
X0161615Y0045418D01*
X0160300Y0045418D01*
X0160300Y0043478D02*
X0159700Y0043478D01*
X0159700Y0042479D02*
X0160300Y0042479D01*
X0160300Y0041481D02*
X0172591Y0041481D01*
X0172591Y0042479D02*
X0163900Y0042479D01*
X0163556Y0043478D02*
X0172591Y0043478D01*
X0172591Y0044476D02*
X0162557Y0044476D01*
X0163900Y0041218D02*
X0160300Y0041218D01*
X0160300Y0037618D01*
X0161615Y0037618D01*
X0163900Y0039902D01*
X0163900Y0041218D01*
X0163900Y0040482D02*
X0172591Y0040482D01*
X0172591Y0039484D02*
X0163481Y0039484D01*
X0162483Y0038485D02*
X0172591Y0038485D01*
X0172591Y0037487D02*
X0157300Y0037487D01*
X0157300Y0038485D02*
X0157517Y0038485D01*
X0157480Y0036488D02*
X0168520Y0036488D01*
X0167522Y0035490D02*
X0158478Y0035490D01*
X0158500Y0034491D02*
X0166523Y0034491D01*
X0166500Y0033492D02*
X0158500Y0033492D01*
X0158426Y0032494D02*
X0166500Y0032494D01*
X0166573Y0031495D02*
X0157427Y0031495D01*
X0152573Y0031495D02*
X0147210Y0031495D01*
X0147228Y0030497D02*
X0167571Y0030497D01*
X0170918Y0027501D02*
X0147282Y0027501D01*
X0147301Y0026503D02*
X0169920Y0026503D01*
X0168921Y0025504D02*
X0147239Y0025504D01*
X0146255Y0024506D02*
X0167923Y0024506D01*
X0166924Y0023507D02*
X0145242Y0023507D01*
X0144244Y0022509D02*
X0165926Y0022509D01*
X0164927Y0021510D02*
X0143245Y0021510D01*
X0142506Y0020512D02*
X0163929Y0020512D01*
X0162930Y0019513D02*
X0141814Y0019513D01*
X0138186Y0019513D02*
X0121248Y0019513D01*
X0120250Y0018515D02*
X0161932Y0018515D01*
X0171917Y0028500D02*
X0147264Y0028500D01*
X0147246Y0029498D02*
X0172591Y0029498D01*
X0172591Y0030497D02*
X0172429Y0030497D01*
X0172478Y0035490D02*
X0172591Y0035490D01*
X0172591Y0036488D02*
X0171480Y0036488D01*
X0160300Y0038485D02*
X0159700Y0038485D01*
X0159700Y0039484D02*
X0160300Y0039484D01*
X0160300Y0040482D02*
X0159700Y0040482D01*
X0152700Y0038485D02*
X0151917Y0038485D01*
X0152700Y0037487D02*
X0147101Y0037487D01*
X0147083Y0038485D02*
X0148083Y0038485D01*
X0147084Y0039484D02*
X0147065Y0039484D01*
X0147119Y0036488D02*
X0152520Y0036488D01*
X0151522Y0035490D02*
X0147137Y0035490D01*
X0147155Y0034491D02*
X0151500Y0034491D01*
X0151500Y0033492D02*
X0147174Y0033492D01*
X0147192Y0032494D02*
X0151574Y0032494D01*
X0142591Y0032494D02*
X0130300Y0032494D01*
X0130300Y0033492D02*
X0142573Y0033492D01*
X0142555Y0034491D02*
X0130300Y0034491D01*
X0130300Y0035490D02*
X0142537Y0035490D01*
X0142518Y0036488D02*
X0130300Y0036488D01*
X0130300Y0037487D02*
X0142500Y0037487D01*
X0142482Y0038485D02*
X0130300Y0038485D01*
X0130300Y0039484D02*
X0142464Y0039484D01*
X0142446Y0040482D02*
X0130300Y0040482D01*
X0130300Y0041481D02*
X0142428Y0041481D01*
X0142409Y0042479D02*
X0130300Y0042479D01*
X0130300Y0043478D02*
X0142391Y0043478D01*
X0142373Y0044476D02*
X0137561Y0044476D01*
X0137983Y0044651D02*
X0136696Y0044118D01*
X0135304Y0044118D01*
X0134017Y0044651D01*
X0133033Y0045635D01*
X0132500Y0046922D01*
X0132500Y0053114D01*
X0133033Y0054400D01*
X0134017Y0055385D01*
X0135304Y0055918D01*
X0136696Y0055918D01*
X0137983Y0055385D01*
X0138967Y0054400D01*
X0139500Y0053114D01*
X0139500Y0046922D01*
X0138967Y0045635D01*
X0137983Y0044651D01*
X0138807Y0045475D02*
X0142355Y0045475D01*
X0142337Y0046473D02*
X0139314Y0046473D01*
X0139500Y0047472D02*
X0142319Y0047472D01*
X0142300Y0048470D02*
X0139500Y0048470D01*
X0139500Y0049469D02*
X0142282Y0049469D01*
X0142264Y0050467D02*
X0139500Y0050467D01*
X0139500Y0051466D02*
X0142246Y0051466D01*
X0142228Y0052464D02*
X0139500Y0052464D01*
X0139356Y0053463D02*
X0142210Y0053463D01*
X0142113Y0054461D02*
X0138906Y0054461D01*
X0137802Y0055460D02*
X0141971Y0055460D01*
X0141828Y0056458D02*
X0130300Y0056458D01*
X0130300Y0055460D02*
X0134198Y0055460D01*
X0133094Y0054461D02*
X0130300Y0054461D01*
X0130300Y0053463D02*
X0132644Y0053463D01*
X0132500Y0052464D02*
X0130300Y0052464D01*
X0130300Y0051466D02*
X0132500Y0051466D01*
X0132500Y0050467D02*
X0130300Y0050467D01*
X0130300Y0049469D02*
X0132500Y0049469D01*
X0132500Y0048470D02*
X0130300Y0048470D01*
X0130300Y0047472D02*
X0132500Y0047472D01*
X0132686Y0046473D02*
X0130300Y0046473D01*
X0130300Y0045475D02*
X0133193Y0045475D01*
X0134439Y0044476D02*
X0130300Y0044476D01*
X0125700Y0044476D02*
X0122561Y0044476D01*
X0122983Y0044651D02*
X0121696Y0044118D01*
X0120304Y0044118D01*
X0119017Y0044651D01*
X0118033Y0045635D01*
X0117500Y0046922D01*
X0117500Y0053114D01*
X0118033Y0054400D01*
X0119017Y0055385D01*
X0120304Y0055918D01*
X0121696Y0055918D01*
X0122983Y0055385D01*
X0123967Y0054400D01*
X0124500Y0053114D01*
X0124500Y0046922D01*
X0123967Y0045635D01*
X0122983Y0044651D01*
X0123807Y0045475D02*
X0125700Y0045475D01*
X0125700Y0046473D02*
X0124314Y0046473D01*
X0124500Y0047472D02*
X0125700Y0047472D01*
X0125700Y0048470D02*
X0124500Y0048470D01*
X0124500Y0049469D02*
X0125700Y0049469D01*
X0125700Y0050467D02*
X0124500Y0050467D01*
X0124500Y0051466D02*
X0125700Y0051466D01*
X0125700Y0052464D02*
X0124500Y0052464D01*
X0124356Y0053463D02*
X0125700Y0053463D01*
X0125700Y0054461D02*
X0123906Y0054461D01*
X0122802Y0055460D02*
X0125700Y0055460D01*
X0125700Y0056458D02*
X0088885Y0056458D01*
X0087033Y0055460D02*
X0119198Y0055460D01*
X0118094Y0054461D02*
X0086035Y0054461D01*
X0085036Y0053463D02*
X0117644Y0053463D01*
X0117500Y0052464D02*
X0084038Y0052464D01*
X0083603Y0051466D02*
X0117500Y0051466D01*
X0117500Y0050467D02*
X0083603Y0050467D01*
X0083603Y0049469D02*
X0117500Y0049469D01*
X0117500Y0048470D02*
X0083603Y0048470D01*
X0083603Y0047472D02*
X0117500Y0047472D01*
X0117686Y0046473D02*
X0083603Y0046473D01*
X0083603Y0045475D02*
X0118193Y0045475D01*
X0119439Y0044476D02*
X0083603Y0044476D01*
X0083603Y0043478D02*
X0125700Y0043478D01*
X0125700Y0042479D02*
X0083603Y0042479D01*
X0083603Y0041481D02*
X0125700Y0041481D01*
X0125700Y0040482D02*
X0083603Y0040482D01*
X0083603Y0039484D02*
X0125700Y0039484D01*
X0125700Y0038485D02*
X0083603Y0038485D01*
X0083603Y0037487D02*
X0125700Y0037487D01*
X0125700Y0036488D02*
X0083603Y0036488D01*
X0083603Y0035490D02*
X0125700Y0035490D01*
X0125700Y0034491D02*
X0124755Y0034491D01*
X0125529Y0033492D02*
X0125700Y0033492D01*
X0130300Y0031495D02*
X0142609Y0031495D01*
X0142627Y0030497D02*
X0130300Y0030497D01*
X0130300Y0029498D02*
X0142645Y0029498D01*
X0142664Y0028500D02*
X0130235Y0028500D01*
X0129236Y0027501D02*
X0142682Y0027501D01*
X0141732Y0026503D02*
X0128238Y0026503D01*
X0127239Y0025504D02*
X0140734Y0025504D01*
X0139735Y0024506D02*
X0126241Y0024506D01*
X0125242Y0023507D02*
X0138171Y0023507D01*
X0137488Y0022509D02*
X0124244Y0022509D01*
X0123245Y0021510D02*
X0137300Y0021510D01*
X0137494Y0020512D02*
X0122247Y0020512D01*
X0118737Y0023507D02*
X0018763Y0023507D01*
X0019762Y0022509D02*
X0117738Y0022509D01*
X0119735Y0024506D02*
X0017765Y0024506D01*
X0016766Y0025504D02*
X0120734Y0025504D01*
X0121732Y0026503D02*
X0015768Y0026503D01*
X0014769Y0027501D02*
X0122731Y0027501D01*
X0123357Y0028500D02*
X0123729Y0028500D01*
X0116649Y0028500D02*
X0083357Y0028500D01*
X0084958Y0029498D02*
X0115048Y0029498D01*
X0114393Y0030497D02*
X0085613Y0030497D01*
X0085903Y0031495D02*
X0114103Y0031495D01*
X0114103Y0032494D02*
X0085903Y0032494D01*
X0085529Y0033492D02*
X0114477Y0033492D01*
X0115251Y0034491D02*
X0084755Y0034491D01*
X0076403Y0035490D02*
X0011600Y0035490D01*
X0011600Y0036488D02*
X0076403Y0036488D01*
X0076403Y0037487D02*
X0011600Y0037487D01*
X0012223Y0038485D02*
X0013877Y0038485D01*
X0013300Y0039484D02*
X0012800Y0039484D01*
X0012800Y0040482D02*
X0013300Y0040482D01*
X0013300Y0041481D02*
X0012800Y0041481D01*
X0012800Y0042479D02*
X0013300Y0042479D01*
X0013300Y0043478D02*
X0012800Y0043478D01*
X0012800Y0044476D02*
X0013300Y0044476D01*
X0013300Y0045475D02*
X0012800Y0045475D01*
X0012800Y0046473D02*
X0013300Y0046473D01*
X0013300Y0047472D02*
X0012800Y0047472D01*
X0012800Y0048470D02*
X0013300Y0048470D01*
X0013300Y0049469D02*
X0012800Y0049469D01*
X0012800Y0050467D02*
X0013300Y0050467D01*
X0013300Y0051466D02*
X0012800Y0051466D01*
X0012800Y0052464D02*
X0013300Y0052464D01*
X0013300Y0053463D02*
X0012800Y0053463D01*
X0012800Y0054461D02*
X0013300Y0054461D01*
X0013300Y0055460D02*
X0012800Y0055460D01*
X0012800Y0056458D02*
X0013300Y0056458D01*
X0013300Y0057457D02*
X0012800Y0057457D01*
X0012800Y0058455D02*
X0013300Y0058455D01*
X0013300Y0059454D02*
X0012800Y0059454D01*
X0012800Y0060452D02*
X0013300Y0060452D01*
X0013300Y0061451D02*
X0012800Y0061451D01*
X0012800Y0062449D02*
X0013300Y0062449D01*
X0013300Y0063448D02*
X0012800Y0063448D01*
X0012800Y0064446D02*
X0013300Y0064446D01*
X0020300Y0064446D02*
X0020800Y0064446D01*
X0020800Y0063448D02*
X0020300Y0063448D01*
X0020300Y0062449D02*
X0020800Y0062449D01*
X0020800Y0061451D02*
X0020300Y0061451D01*
X0020300Y0060452D02*
X0020800Y0060452D01*
X0020800Y0059454D02*
X0020300Y0059454D01*
X0020300Y0058455D02*
X0020800Y0058455D01*
X0020800Y0057457D02*
X0020300Y0057457D01*
X0020300Y0056458D02*
X0020800Y0056458D01*
X0020800Y0055460D02*
X0020300Y0055460D01*
X0020300Y0054461D02*
X0020800Y0054461D01*
X0020800Y0053463D02*
X0020300Y0053463D01*
X0020300Y0052464D02*
X0020800Y0052464D01*
X0020800Y0051466D02*
X0020300Y0051466D01*
X0020300Y0050467D02*
X0020800Y0050467D01*
X0020800Y0049469D02*
X0020300Y0049469D01*
X0020300Y0048470D02*
X0020800Y0048470D01*
X0020800Y0047472D02*
X0020300Y0047472D01*
X0020300Y0046473D02*
X0020800Y0046473D01*
X0020800Y0045475D02*
X0020300Y0045475D01*
X0020300Y0044476D02*
X0020800Y0044476D01*
X0020800Y0043478D02*
X0020300Y0043478D01*
X0020300Y0042479D02*
X0020800Y0042479D01*
X0020800Y0041481D02*
X0020300Y0041481D01*
X0020300Y0040482D02*
X0020800Y0040482D01*
X0020800Y0039484D02*
X0020300Y0039484D01*
X0019723Y0038485D02*
X0021377Y0038485D01*
X0027223Y0038485D02*
X0076403Y0038485D01*
X0076403Y0039484D02*
X0027800Y0039484D01*
X0027800Y0040482D02*
X0076403Y0040482D01*
X0076403Y0041481D02*
X0027800Y0041481D01*
X0027800Y0042479D02*
X0076403Y0042479D01*
X0076403Y0043478D02*
X0027800Y0043478D01*
X0027800Y0044476D02*
X0076403Y0044476D01*
X0076403Y0045475D02*
X0027800Y0045475D01*
X0027800Y0046473D02*
X0076403Y0046473D01*
X0076403Y0047472D02*
X0027800Y0047472D01*
X0027800Y0048470D02*
X0076403Y0048470D01*
X0076403Y0049469D02*
X0027800Y0049469D01*
X0027800Y0050467D02*
X0076403Y0050467D01*
X0076403Y0051466D02*
X0060493Y0051466D01*
X0061414Y0052464D02*
X0076403Y0052464D01*
X0076403Y0053463D02*
X0062341Y0053463D01*
X0063268Y0054461D02*
X0076496Y0054461D01*
X0076910Y0055460D02*
X0064195Y0055460D01*
X0065122Y0056458D02*
X0077849Y0056458D01*
X0077964Y0056573D02*
X0077964Y0056573D01*
X0078848Y0057457D02*
X0066050Y0057457D01*
X0066977Y0058455D02*
X0078813Y0058455D01*
X0077387Y0059454D02*
X0067904Y0059454D01*
X0068831Y0060452D02*
X0076728Y0060452D01*
X0076397Y0061451D02*
X0069758Y0061451D01*
X0070686Y0062449D02*
X0076397Y0062449D01*
X0075584Y0063448D02*
X0071613Y0063448D01*
X0072540Y0064446D02*
X0074611Y0064446D01*
X0074198Y0065445D02*
X0073473Y0065445D01*
X0073908Y0066443D02*
X0074097Y0066443D01*
X0074246Y0067442D02*
X0073900Y0067442D01*
X0073900Y0068440D02*
X0074702Y0068440D01*
X0073900Y0069439D02*
X0075824Y0069439D01*
X0076397Y0070437D02*
X0073900Y0070437D01*
X0073900Y0071436D02*
X0076397Y0071436D01*
X0076397Y0072434D02*
X0073900Y0072434D01*
X0073900Y0073433D02*
X0076397Y0073433D01*
X0076397Y0074431D02*
X0073900Y0074431D01*
X0073900Y0075430D02*
X0076397Y0075430D01*
X0076397Y0076428D02*
X0073900Y0076428D01*
X0073900Y0077427D02*
X0076397Y0077427D01*
X0076397Y0078426D02*
X0073900Y0078426D01*
X0073900Y0079424D02*
X0076397Y0079424D01*
X0076397Y0080423D02*
X0073900Y0080423D01*
X0073900Y0081421D02*
X0076397Y0081421D01*
X0076397Y0082420D02*
X0073900Y0082420D01*
X0073900Y0083418D02*
X0076397Y0083418D01*
X0076397Y0084417D02*
X0073900Y0084417D01*
X0073900Y0085415D02*
X0076397Y0085415D01*
X0076397Y0086414D02*
X0073900Y0086414D01*
X0073900Y0087412D02*
X0076397Y0087412D01*
X0076397Y0088411D02*
X0073900Y0088411D01*
X0073900Y0089409D02*
X0076397Y0089409D01*
X0076397Y0090408D02*
X0073900Y0090408D01*
X0073900Y0091406D02*
X0076397Y0091406D01*
X0076397Y0092405D02*
X0073900Y0092405D01*
X0073900Y0093403D02*
X0076397Y0093403D01*
X0075263Y0094402D02*
X0073900Y0094402D01*
X0073900Y0095400D02*
X0074479Y0095400D01*
X0074098Y0096399D02*
X0073900Y0096399D01*
X0073900Y0097397D02*
X0074098Y0097397D01*
X0073900Y0098396D02*
X0074381Y0098396D01*
X0073900Y0099394D02*
X0075027Y0099394D01*
X0073900Y0100393D02*
X0076605Y0100393D01*
X0073900Y0103388D02*
X0080293Y0103388D01*
X0081250Y0102390D02*
X0073900Y0102390D01*
X0073900Y0101391D02*
X0082206Y0101391D01*
X0079296Y0104387D02*
X0073900Y0104387D01*
X0073900Y0105385D02*
X0077814Y0105385D01*
X0077340Y0106384D02*
X0073900Y0106384D01*
X0073900Y0107382D02*
X0077300Y0107382D01*
X0077642Y0108381D02*
X0073900Y0108381D01*
X0073900Y0109379D02*
X0078646Y0109379D01*
X0081354Y0109379D02*
X0084353Y0109379D01*
X0085319Y0108381D02*
X0082358Y0108381D01*
X0082836Y0107382D02*
X0086285Y0107382D01*
X0087252Y0106384D02*
X0083793Y0106384D01*
X0084750Y0105385D02*
X0088218Y0105385D01*
X0089184Y0104387D02*
X0085707Y0104387D01*
X0086664Y0103388D02*
X0090150Y0103388D01*
X0091117Y0102390D02*
X0087621Y0102390D01*
X0088578Y0101391D02*
X0092083Y0101391D01*
X0093049Y0100393D02*
X0089535Y0100393D01*
X0090492Y0099394D02*
X0094016Y0099394D01*
X0094982Y0098396D02*
X0091448Y0098396D01*
X0092405Y0097397D02*
X0095948Y0097397D01*
X0096915Y0096399D02*
X0093372Y0096399D01*
X0093809Y0095400D02*
X0097540Y0095400D01*
X0098298Y0094402D02*
X0093800Y0094402D01*
X0093800Y0093403D02*
X0105703Y0093403D01*
X0105713Y0092405D02*
X0093800Y0092405D01*
X0093800Y0091406D02*
X0105723Y0091406D01*
X0105733Y0090408D02*
X0093800Y0090408D01*
X0093800Y0089409D02*
X0105743Y0089409D01*
X0105753Y0088411D02*
X0093800Y0088411D01*
X0093800Y0087412D02*
X0105763Y0087412D01*
X0105772Y0086414D02*
X0093800Y0086414D01*
X0093800Y0085415D02*
X0105782Y0085415D01*
X0105792Y0084417D02*
X0093800Y0084417D01*
X0093800Y0083418D02*
X0105802Y0083418D01*
X0105812Y0082420D02*
X0093800Y0082420D01*
X0093800Y0081421D02*
X0105822Y0081421D01*
X0105832Y0080423D02*
X0093800Y0080423D01*
X0093800Y0079424D02*
X0105841Y0079424D01*
X0105851Y0078426D02*
X0093800Y0078426D01*
X0093800Y0077427D02*
X0105861Y0077427D01*
X0105871Y0076428D02*
X0093800Y0076428D01*
X0093800Y0075430D02*
X0105881Y0075430D01*
X0105891Y0074431D02*
X0093800Y0074431D01*
X0093800Y0073433D02*
X0105900Y0073433D01*
X0104355Y0072434D02*
X0093800Y0072434D01*
X0093800Y0071436D02*
X0102398Y0071436D01*
X0100441Y0070437D02*
X0093800Y0070437D01*
X0094041Y0069439D02*
X0098484Y0069439D01*
X0096527Y0068440D02*
X0094200Y0068440D01*
X0093977Y0067442D02*
X0094570Y0067442D01*
X0091387Y0065818D02*
X0085292Y0062708D01*
X0084316Y0063392D01*
X0084379Y0063418D01*
X0085364Y0064402D01*
X0085897Y0065689D01*
X0085897Y0067081D01*
X0085364Y0068367D01*
X0084379Y0069352D01*
X0083597Y0069676D01*
X0083597Y0093724D01*
X0084381Y0094049D01*
X0085365Y0095033D01*
X0085898Y0096320D01*
X0085898Y0097539D01*
X0089200Y0094094D01*
X0089200Y0070021D01*
X0088800Y0069055D01*
X0088800Y0067981D01*
X0089211Y0066988D01*
X0089971Y0066229D01*
X0090963Y0065818D01*
X0091387Y0065818D01*
X0090656Y0065445D02*
X0085796Y0065445D01*
X0085897Y0066443D02*
X0089756Y0066443D01*
X0089023Y0067442D02*
X0085747Y0067442D01*
X0085291Y0068440D02*
X0088800Y0068440D01*
X0088959Y0069439D02*
X0084169Y0069439D01*
X0083597Y0070437D02*
X0089200Y0070437D01*
X0089200Y0071436D02*
X0083597Y0071436D01*
X0083597Y0072434D02*
X0089200Y0072434D01*
X0089200Y0073433D02*
X0083597Y0073433D01*
X0083597Y0074431D02*
X0089200Y0074431D01*
X0089200Y0075430D02*
X0083597Y0075430D01*
X0083597Y0076428D02*
X0089200Y0076428D01*
X0089200Y0077427D02*
X0083597Y0077427D01*
X0083597Y0078426D02*
X0089200Y0078426D01*
X0089200Y0079424D02*
X0083597Y0079424D01*
X0083597Y0080423D02*
X0089200Y0080423D01*
X0089200Y0081421D02*
X0083597Y0081421D01*
X0083597Y0082420D02*
X0089200Y0082420D01*
X0089200Y0083418D02*
X0083597Y0083418D01*
X0083597Y0084417D02*
X0089200Y0084417D01*
X0089200Y0085415D02*
X0083597Y0085415D01*
X0083597Y0086414D02*
X0089200Y0086414D01*
X0089200Y0087412D02*
X0083597Y0087412D01*
X0083597Y0088411D02*
X0089200Y0088411D01*
X0089200Y0089409D02*
X0083597Y0089409D01*
X0083597Y0090408D02*
X0089200Y0090408D01*
X0089200Y0091406D02*
X0083597Y0091406D01*
X0083597Y0092405D02*
X0089200Y0092405D01*
X0089200Y0093403D02*
X0083597Y0093403D01*
X0084734Y0094402D02*
X0088905Y0094402D01*
X0087948Y0095400D02*
X0085517Y0095400D01*
X0085898Y0096399D02*
X0086991Y0096399D01*
X0086034Y0097397D02*
X0085898Y0097397D01*
X0094619Y0105385D02*
X0105585Y0105385D01*
X0105595Y0104387D02*
X0095585Y0104387D01*
X0096552Y0103388D02*
X0105605Y0103388D01*
X0105615Y0102390D02*
X0097518Y0102390D01*
X0098484Y0101391D02*
X0105625Y0101391D01*
X0105634Y0100393D02*
X0099451Y0100393D01*
X0100417Y0099394D02*
X0105644Y0099394D01*
X0105654Y0098396D02*
X0101940Y0098396D01*
X0102558Y0097397D02*
X0105664Y0097397D01*
X0105674Y0096399D02*
X0102700Y0096399D01*
X0102460Y0095400D02*
X0105684Y0095400D01*
X0105694Y0094402D02*
X0101702Y0094402D01*
X0112894Y0094402D02*
X0115263Y0094402D01*
X0114479Y0095400D02*
X0112884Y0095400D01*
X0112874Y0096399D02*
X0114098Y0096399D01*
X0114098Y0097397D02*
X0112864Y0097397D01*
X0112854Y0098396D02*
X0114381Y0098396D01*
X0115027Y0099394D02*
X0112845Y0099394D01*
X0112835Y0100393D02*
X0116605Y0100393D01*
X0112825Y0101391D02*
X0126675Y0101391D01*
X0125647Y0100393D02*
X0123392Y0100393D01*
X0124970Y0099394D02*
X0125300Y0099394D01*
X0125517Y0095400D02*
X0125700Y0095400D01*
X0125700Y0094402D02*
X0124734Y0094402D01*
X0125700Y0093403D02*
X0112904Y0093403D01*
X0112914Y0092405D02*
X0125700Y0092405D01*
X0125700Y0091406D02*
X0112923Y0091406D01*
X0112933Y0090408D02*
X0125700Y0090408D01*
X0125700Y0089409D02*
X0112943Y0089409D01*
X0112953Y0088411D02*
X0125700Y0088411D01*
X0125700Y0087412D02*
X0112963Y0087412D01*
X0112973Y0086414D02*
X0119087Y0086414D01*
X0119017Y0086385D02*
X0118033Y0085400D01*
X0117500Y0084114D01*
X0117500Y0077922D01*
X0118033Y0076635D01*
X0119017Y0075651D01*
X0120304Y0075118D01*
X0121696Y0075118D01*
X0122983Y0075651D01*
X0123967Y0076635D01*
X0124500Y0077922D01*
X0124500Y0084114D01*
X0123967Y0085400D01*
X0122983Y0086385D01*
X0121696Y0086918D01*
X0120304Y0086918D01*
X0119017Y0086385D01*
X0118048Y0085415D02*
X0112983Y0085415D01*
X0112993Y0084417D02*
X0117625Y0084417D01*
X0117500Y0083418D02*
X0113002Y0083418D01*
X0113012Y0082420D02*
X0117500Y0082420D01*
X0117500Y0081421D02*
X0113022Y0081421D01*
X0113032Y0080423D02*
X0117500Y0080423D01*
X0117500Y0079424D02*
X0113042Y0079424D01*
X0113052Y0078426D02*
X0117500Y0078426D01*
X0117705Y0077427D02*
X0113062Y0077427D01*
X0113071Y0076428D02*
X0118240Y0076428D01*
X0119550Y0075430D02*
X0113081Y0075430D01*
X0113091Y0074431D02*
X0125700Y0074431D01*
X0125700Y0073433D02*
X0113101Y0073433D01*
X0113100Y0072434D02*
X0125700Y0072434D01*
X0125700Y0071436D02*
X0113100Y0071436D01*
X0113100Y0070437D02*
X0125700Y0070437D01*
X0125700Y0069439D02*
X0124169Y0069439D01*
X0125291Y0068440D02*
X0125700Y0068440D01*
X0125700Y0064446D02*
X0125382Y0064446D01*
X0125700Y0063448D02*
X0124409Y0063448D01*
X0125700Y0062449D02*
X0100627Y0062449D01*
X0098670Y0061451D02*
X0125700Y0061451D01*
X0125700Y0060452D02*
X0096713Y0060452D01*
X0094756Y0059454D02*
X0125700Y0059454D01*
X0125700Y0058455D02*
X0092799Y0058455D01*
X0090842Y0057457D02*
X0125700Y0057457D01*
X0130300Y0057457D02*
X0141685Y0057457D01*
X0141543Y0058455D02*
X0130300Y0058455D01*
X0130300Y0059454D02*
X0141246Y0059454D01*
X0140812Y0060452D02*
X0130300Y0060452D01*
X0130300Y0061451D02*
X0140800Y0061451D01*
X0141171Y0062449D02*
X0130300Y0062449D01*
X0130300Y0063448D02*
X0142311Y0063448D01*
X0143116Y0064446D02*
X0130300Y0064446D01*
X0130300Y0065445D02*
X0141847Y0065445D01*
X0140579Y0066443D02*
X0130300Y0066443D01*
X0130300Y0067442D02*
X0139311Y0067442D01*
X0138042Y0068440D02*
X0130300Y0068440D01*
X0130300Y0069439D02*
X0136774Y0069439D01*
X0135505Y0070437D02*
X0130300Y0070437D01*
X0130300Y0071436D02*
X0134237Y0071436D01*
X0132969Y0072434D02*
X0130300Y0072434D01*
X0130300Y0073433D02*
X0131700Y0073433D01*
X0130334Y0074431D02*
X0130300Y0074431D01*
X0125700Y0075430D02*
X0122450Y0075430D01*
X0123760Y0076428D02*
X0125700Y0076428D01*
X0125700Y0077427D02*
X0124295Y0077427D01*
X0124500Y0078426D02*
X0125700Y0078426D01*
X0125700Y0079424D02*
X0124500Y0079424D01*
X0124500Y0080423D02*
X0125700Y0080423D01*
X0125700Y0081421D02*
X0124500Y0081421D01*
X0124500Y0082420D02*
X0125700Y0082420D01*
X0125700Y0083418D02*
X0124500Y0083418D01*
X0124375Y0084417D02*
X0125700Y0084417D01*
X0125700Y0085415D02*
X0123952Y0085415D01*
X0122913Y0086414D02*
X0125700Y0086414D01*
X0129200Y0102390D02*
X0112815Y0102390D01*
X0112805Y0103388D02*
X0129200Y0103388D01*
X0129200Y0104387D02*
X0112795Y0104387D01*
X0112785Y0105385D02*
X0129200Y0105385D01*
X0129200Y0106384D02*
X0123216Y0106384D01*
X0122983Y0106151D02*
X0123967Y0107135D01*
X0124500Y0108422D01*
X0124500Y0114614D01*
X0123967Y0115900D01*
X0122983Y0116885D01*
X0121696Y0117418D01*
X0120304Y0117418D01*
X0119017Y0116885D01*
X0118033Y0115900D01*
X0117500Y0114614D01*
X0117500Y0108422D01*
X0118033Y0107135D01*
X0119017Y0106151D01*
X0120304Y0105618D01*
X0121696Y0105618D01*
X0122983Y0106151D01*
X0124070Y0107382D02*
X0129200Y0107382D01*
X0129200Y0108381D02*
X0124483Y0108381D01*
X0124500Y0109379D02*
X0129200Y0109379D01*
X0129200Y0110378D02*
X0124500Y0110378D01*
X0124500Y0111376D02*
X0129200Y0111376D01*
X0129200Y0112375D02*
X0124500Y0112375D01*
X0124500Y0113373D02*
X0129200Y0113373D01*
X0129200Y0114372D02*
X0124500Y0114372D01*
X0124187Y0115370D02*
X0129200Y0115370D01*
X0129200Y0116369D02*
X0123499Y0116369D01*
X0121818Y0117367D02*
X0129200Y0117367D01*
X0129200Y0118366D02*
X0112657Y0118366D01*
X0112647Y0119364D02*
X0129200Y0119364D01*
X0129200Y0120363D02*
X0112638Y0120363D01*
X0112628Y0121361D02*
X0129200Y0121361D01*
X0129200Y0122360D02*
X0112618Y0122360D01*
X0112608Y0123359D02*
X0129200Y0123359D01*
X0129200Y0124357D02*
X0112626Y0124357D01*
X0112432Y0125356D02*
X0129200Y0125356D01*
X0129200Y0126354D02*
X0111889Y0126354D01*
X0110682Y0127353D02*
X0129200Y0127353D01*
X0129200Y0128351D02*
X0109202Y0128351D01*
X0107850Y0129350D02*
X0107722Y0129350D01*
X0107062Y0130348D02*
X0106851Y0130348D01*
X0106800Y0131347D02*
X0106518Y0131347D01*
X0106186Y0132345D02*
X0106920Y0132345D01*
X0107200Y0133344D02*
X0105853Y0133344D01*
X0105520Y0134342D02*
X0107200Y0134342D01*
X0107200Y0135341D02*
X0105187Y0135341D01*
X0104854Y0136339D02*
X0107161Y0136339D01*
X0107200Y0137338D02*
X0104532Y0137338D01*
X0104188Y0138336D02*
X0107266Y0138336D01*
X0107319Y0139335D02*
X0103322Y0139335D01*
X0101998Y0140333D02*
X0107371Y0140333D01*
X0107424Y0141332D02*
X0100755Y0141332D01*
X0099511Y0142330D02*
X0107476Y0142330D01*
X0107529Y0143329D02*
X0098268Y0143329D01*
X0097024Y0144327D02*
X0107582Y0144327D01*
X0107634Y0145326D02*
X0095781Y0145326D01*
X0095193Y0146324D02*
X0106941Y0146324D01*
X0105942Y0147323D02*
X0094333Y0147323D01*
X0092533Y0148321D02*
X0104944Y0148321D01*
X0103945Y0149320D02*
X0087300Y0149320D01*
X0087300Y0150318D02*
X0087494Y0150318D01*
X0087300Y0148321D02*
X0090453Y0148321D01*
X0088653Y0147323D02*
X0087300Y0147323D01*
X0087300Y0146324D02*
X0087793Y0146324D01*
X0087379Y0145326D02*
X0087300Y0145326D01*
X0087300Y0143169D02*
X0087890Y0141745D01*
X0089086Y0140549D01*
X0090648Y0139902D01*
X0091036Y0139902D01*
X0092406Y0138802D01*
X0091793Y0138802D01*
X0091793Y0134452D01*
X0091193Y0134452D01*
X0091193Y0138802D01*
X0089567Y0138802D01*
X0087300Y0136535D01*
X0087300Y0143169D01*
X0087300Y0142330D02*
X0087647Y0142330D01*
X0087300Y0141332D02*
X0088303Y0141332D01*
X0087300Y0140333D02*
X0089607Y0140333D01*
X0089101Y0138336D02*
X0087300Y0138336D01*
X0087300Y0137338D02*
X0088103Y0137338D01*
X0087300Y0139335D02*
X0091742Y0139335D01*
X0091793Y0138336D02*
X0091193Y0138336D01*
X0091193Y0137338D02*
X0091793Y0137338D01*
X0091793Y0136339D02*
X0091193Y0136339D01*
X0091193Y0135341D02*
X0091793Y0135341D01*
X0091793Y0134342D02*
X0097930Y0134342D01*
X0098263Y0133344D02*
X0096143Y0133344D01*
X0096143Y0133852D02*
X0091793Y0133852D01*
X0091793Y0129502D01*
X0093419Y0129502D01*
X0096143Y0132226D01*
X0096143Y0133852D01*
X0096143Y0135341D02*
X0096716Y0135341D01*
X0096143Y0132345D02*
X0098596Y0132345D01*
X0098929Y0131347D02*
X0095264Y0131347D01*
X0094265Y0130348D02*
X0099262Y0130348D01*
X0099595Y0129350D02*
X0087300Y0129350D01*
X0087300Y0130348D02*
X0088721Y0130348D01*
X0087722Y0131347D02*
X0087300Y0131347D01*
X0087300Y0128351D02*
X0099928Y0128351D01*
X0100260Y0127353D02*
X0087300Y0127353D01*
X0087300Y0126354D02*
X0100559Y0126354D01*
X0101110Y0125356D02*
X0087300Y0125356D01*
X0087300Y0124357D02*
X0102248Y0124357D01*
X0103728Y0123359D02*
X0087300Y0123359D01*
X0087300Y0122360D02*
X0105209Y0122360D01*
X0105427Y0121361D02*
X0087300Y0121361D01*
X0087300Y0120363D02*
X0105437Y0120363D01*
X0105447Y0119364D02*
X0087300Y0119364D01*
X0087300Y0118366D02*
X0105457Y0118366D01*
X0105467Y0117367D02*
X0087300Y0117367D01*
X0087300Y0116369D02*
X0105477Y0116369D01*
X0105486Y0115370D02*
X0087300Y0115370D01*
X0087300Y0114372D02*
X0105496Y0114372D01*
X0105506Y0113373D02*
X0087300Y0113373D01*
X0087855Y0112375D02*
X0105516Y0112375D01*
X0105526Y0111376D02*
X0088821Y0111376D01*
X0089788Y0110378D02*
X0105536Y0110378D01*
X0105546Y0109379D02*
X0090754Y0109379D01*
X0091720Y0108381D02*
X0105555Y0108381D01*
X0105565Y0107382D02*
X0092687Y0107382D01*
X0093653Y0106384D02*
X0105575Y0106384D01*
X0112776Y0106384D02*
X0118784Y0106384D01*
X0117930Y0107382D02*
X0112766Y0107382D01*
X0112756Y0108381D02*
X0117517Y0108381D01*
X0117500Y0109379D02*
X0112746Y0109379D01*
X0112736Y0110378D02*
X0117500Y0110378D01*
X0117500Y0111376D02*
X0112726Y0111376D01*
X0112716Y0112375D02*
X0117500Y0112375D01*
X0117500Y0113373D02*
X0112707Y0113373D01*
X0112697Y0114372D02*
X0117500Y0114372D01*
X0117813Y0115370D02*
X0112687Y0115370D01*
X0112677Y0116369D02*
X0118501Y0116369D01*
X0120182Y0117367D02*
X0112667Y0117367D01*
X0111150Y0129350D02*
X0129200Y0129350D01*
X0129200Y0130348D02*
X0111938Y0130348D01*
X0112200Y0131347D02*
X0129157Y0131347D01*
X0129200Y0132345D02*
X0112080Y0132345D01*
X0111800Y0133344D02*
X0129530Y0133344D01*
X0130653Y0134342D02*
X0111800Y0134342D01*
X0111800Y0135341D02*
X0131776Y0135341D01*
X0132900Y0136339D02*
X0111800Y0136339D01*
X0111820Y0137338D02*
X0134023Y0137338D01*
X0135146Y0138336D02*
X0111873Y0138336D01*
X0111925Y0139335D02*
X0136270Y0139335D01*
X0137393Y0140333D02*
X0111978Y0140333D01*
X0112030Y0141332D02*
X0138516Y0141332D01*
X0139640Y0142330D02*
X0112083Y0142330D01*
X0112135Y0143329D02*
X0140763Y0143329D01*
X0141886Y0144327D02*
X0112188Y0144327D01*
X0112240Y0145326D02*
X0143010Y0145326D01*
X0144133Y0146324D02*
X0112300Y0146324D01*
X0108454Y0151317D02*
X0165712Y0151317D01*
X0163323Y0152315D02*
X0122813Y0152315D01*
X0122615Y0152118D02*
X0124900Y0154402D01*
X0124900Y0155718D01*
X0121300Y0155718D01*
X0121300Y0156318D01*
X0120700Y0156318D01*
X0120700Y0159918D01*
X0119385Y0159918D01*
X0117100Y0157633D01*
X0117100Y0156318D01*
X0120700Y0156318D01*
X0120700Y0155718D01*
X0117100Y0155718D01*
X0117100Y0154402D01*
X0119385Y0152118D01*
X0120700Y0152118D01*
X0120700Y0155718D01*
X0121300Y0155718D01*
X0121300Y0152118D01*
X0122615Y0152118D01*
X0121300Y0152315D02*
X0120700Y0152315D01*
X0120700Y0153314D02*
X0121300Y0153314D01*
X0121300Y0154312D02*
X0120700Y0154312D01*
X0120700Y0155311D02*
X0121300Y0155311D01*
X0121300Y0156309D02*
X0153766Y0156309D01*
X0156155Y0155311D02*
X0124900Y0155311D01*
X0124810Y0154312D02*
X0158545Y0154312D01*
X0160934Y0153314D02*
X0123811Y0153314D01*
X0124900Y0156318D02*
X0121300Y0156318D01*
X0121300Y0159918D01*
X0122615Y0159918D01*
X0124900Y0157633D01*
X0124900Y0156318D01*
X0124900Y0157308D02*
X0151377Y0157308D01*
X0148987Y0158306D02*
X0124227Y0158306D01*
X0123228Y0159305D02*
X0146598Y0159305D01*
X0144209Y0160303D02*
X0127735Y0160303D01*
X0124265Y0160303D02*
X0117735Y0160303D01*
X0117450Y0160018D02*
X0119500Y0162068D01*
X0119500Y0164968D01*
X0117450Y0167018D01*
X0114550Y0167018D01*
X0112500Y0164968D01*
X0112500Y0162068D01*
X0114550Y0160018D01*
X0117450Y0160018D01*
X0118772Y0159305D02*
X0100466Y0159305D01*
X0101464Y0158306D02*
X0117773Y0158306D01*
X0117100Y0157308D02*
X0102463Y0157308D01*
X0103461Y0156309D02*
X0120700Y0156309D01*
X0120700Y0157308D02*
X0121300Y0157308D01*
X0121300Y0158306D02*
X0120700Y0158306D01*
X0120700Y0159305D02*
X0121300Y0159305D01*
X0123266Y0161302D02*
X0118734Y0161302D01*
X0119500Y0162300D02*
X0122500Y0162300D01*
X0122500Y0163299D02*
X0119500Y0163299D01*
X0119500Y0164297D02*
X0121803Y0164297D01*
X0120959Y0165296D02*
X0119172Y0165296D01*
X0120114Y0166295D02*
X0118173Y0166295D01*
X0119269Y0167293D02*
X0113594Y0167293D01*
X0113827Y0166295D02*
X0112595Y0166295D01*
X0112828Y0165296D02*
X0111597Y0165296D01*
X0112500Y0164297D02*
X0109523Y0164297D01*
X0106855Y0163299D02*
X0112500Y0163299D01*
X0112500Y0162300D02*
X0097470Y0162300D01*
X0098469Y0161302D02*
X0113266Y0161302D01*
X0114265Y0160303D02*
X0099467Y0160303D01*
X0096472Y0163299D02*
X0103232Y0163299D01*
X0102394Y0164297D02*
X0095473Y0164297D01*
X0094474Y0165296D02*
X0101556Y0165296D01*
X0101634Y0166295D02*
X0093476Y0166295D01*
X0092477Y0167293D02*
X0101721Y0167293D01*
X0101915Y0168292D02*
X0082464Y0168292D01*
X0077620Y0168292D02*
X0067292Y0168292D01*
X0067292Y0169290D02*
X0103105Y0169290D01*
X0098729Y0173284D02*
X0067292Y0173284D01*
X0067292Y0172286D02*
X0110949Y0172286D01*
X0109951Y0171287D02*
X0067292Y0171287D01*
X0067292Y0170289D02*
X0108952Y0170289D01*
X0109943Y0178277D02*
X0113522Y0178277D01*
X0112915Y0179275D02*
X0110645Y0179275D01*
X0111053Y0180274D02*
X0112617Y0180274D01*
X0112547Y0181272D02*
X0111053Y0181272D01*
X0111053Y0182271D02*
X0112547Y0182271D01*
X0112547Y0183269D02*
X0111053Y0183269D01*
X0111053Y0184268D02*
X0116516Y0184268D01*
X0117484Y0184268D02*
X0122947Y0184268D01*
X0122947Y0185266D02*
X0121453Y0185266D01*
X0121453Y0184502D02*
X0121453Y0187321D01*
X0121343Y0188013D01*
X0121127Y0188680D01*
X0120808Y0189304D01*
X0120396Y0189871D01*
X0119901Y0190367D01*
X0119334Y0190779D01*
X0118709Y0191097D01*
X0118043Y0191314D01*
X0117484Y0191402D01*
X0117484Y0184502D01*
X0121453Y0184502D01*
X0121453Y0183269D02*
X0122947Y0183269D01*
X0122947Y0182271D02*
X0121453Y0182271D01*
X0121453Y0181272D02*
X0122947Y0181272D01*
X0122947Y0180274D02*
X0121383Y0180274D01*
X0121085Y0179275D02*
X0123355Y0179275D01*
X0124057Y0178277D02*
X0120478Y0178277D01*
X0120612Y0172718D02*
X0120612Y0172718D01*
X0122051Y0172286D02*
X0134282Y0172286D01*
X0134822Y0169290D02*
X0124653Y0169290D01*
X0125498Y0168292D02*
X0133824Y0168292D01*
X0133000Y0167293D02*
X0126342Y0167293D01*
X0128173Y0166295D02*
X0132958Y0166295D01*
X0136601Y0162300D02*
X0139430Y0162300D01*
X0141820Y0161302D02*
X0135603Y0161302D01*
X0140000Y0167293D02*
X0159810Y0167293D01*
X0161503Y0166295D02*
X0141803Y0166295D01*
X0139176Y0168292D02*
X0158117Y0168292D01*
X0156424Y0169290D02*
X0138177Y0169290D01*
X0138718Y0172286D02*
X0151344Y0172286D01*
X0149651Y0173284D02*
X0139716Y0173284D01*
X0140000Y0174283D02*
X0147958Y0174283D01*
X0146024Y0175281D02*
X0140000Y0175281D01*
X0140000Y0176280D02*
X0144944Y0176280D01*
X0144686Y0177278D02*
X0139189Y0177278D01*
X0138191Y0178277D02*
X0144673Y0178277D01*
X0144640Y0179275D02*
X0130645Y0179275D01*
X0131053Y0180274D02*
X0144607Y0180274D01*
X0144574Y0181272D02*
X0138704Y0181272D01*
X0137950Y0180518D02*
X0140000Y0182568D01*
X0140000Y0185468D01*
X0137950Y0187518D01*
X0135050Y0187518D01*
X0133000Y0185468D01*
X0133000Y0182568D01*
X0135050Y0180518D01*
X0137950Y0180518D01*
X0139703Y0182271D02*
X0144540Y0182271D01*
X0144507Y0183269D02*
X0140000Y0183269D01*
X0140000Y0184268D02*
X0144474Y0184268D01*
X0144440Y0185266D02*
X0140000Y0185266D01*
X0139203Y0186265D02*
X0144407Y0186265D01*
X0144374Y0187263D02*
X0138204Y0187263D01*
X0134796Y0187263D02*
X0131053Y0187263D01*
X0131053Y0186265D02*
X0133797Y0186265D01*
X0133000Y0185266D02*
X0131053Y0185266D01*
X0131053Y0184268D02*
X0133000Y0184268D01*
X0133000Y0183269D02*
X0131053Y0183269D01*
X0131053Y0182271D02*
X0133297Y0182271D01*
X0134296Y0181272D02*
X0131053Y0181272D01*
X0129943Y0178277D02*
X0134809Y0178277D01*
X0130852Y0188262D02*
X0144232Y0188262D01*
X0142969Y0189260D02*
X0130438Y0189260D01*
X0129443Y0190259D02*
X0142240Y0190259D01*
X0141827Y0191257D02*
X0118216Y0191257D01*
X0117484Y0191257D02*
X0116516Y0191257D01*
X0115784Y0191257D02*
X0088216Y0191257D01*
X0088043Y0191314D02*
X0088709Y0191097D01*
X0089334Y0190779D01*
X0089901Y0190367D01*
X0090396Y0189871D01*
X0090808Y0189304D01*
X0091127Y0188680D01*
X0091343Y0188013D01*
X0091453Y0187321D01*
X0091453Y0184502D01*
X0087484Y0184502D01*
X0086516Y0184502D01*
X0086516Y0191402D01*
X0085957Y0191314D01*
X0085291Y0191097D01*
X0084666Y0190779D01*
X0084099Y0190367D01*
X0083604Y0189871D01*
X0083192Y0189304D01*
X0082873Y0188680D01*
X0082657Y0188013D01*
X0082547Y0187321D01*
X0082547Y0184502D01*
X0086516Y0184502D01*
X0086516Y0183534D01*
X0082547Y0183534D01*
X0082547Y0180715D01*
X0082657Y0180022D01*
X0082873Y0179356D01*
X0083192Y0178731D01*
X0083604Y0178164D01*
X0084099Y0177669D01*
X0084666Y0177257D01*
X0085291Y0176939D01*
X0085957Y0176722D01*
X0086516Y0176633D01*
X0086516Y0183533D01*
X0087484Y0183533D01*
X0087484Y0176633D01*
X0088043Y0176722D01*
X0088709Y0176939D01*
X0089334Y0177257D01*
X0089901Y0177669D01*
X0090396Y0178164D01*
X0090808Y0178731D01*
X0091127Y0179356D01*
X0091343Y0180022D01*
X0091453Y0180715D01*
X0091453Y0183534D01*
X0087484Y0183534D01*
X0087484Y0184502D01*
X0087484Y0191402D01*
X0088043Y0191314D01*
X0087484Y0191257D02*
X0086516Y0191257D01*
X0085784Y0191257D02*
X0068492Y0191257D01*
X0068492Y0190825D02*
X0066442Y0188775D01*
X0063543Y0188775D01*
X0061493Y0190825D01*
X0061493Y0193724D01*
X0063543Y0195775D01*
X0066442Y0195775D01*
X0068492Y0193724D01*
X0068492Y0190825D01*
X0067926Y0190259D02*
X0074557Y0190259D01*
X0074704Y0190406D02*
X0073564Y0189266D01*
X0072947Y0187777D01*
X0072947Y0180259D01*
X0073564Y0178769D01*
X0074704Y0177629D01*
X0076194Y0177012D01*
X0077806Y0177012D01*
X0079296Y0177629D01*
X0080436Y0178769D01*
X0081053Y0180259D01*
X0081053Y0187777D01*
X0080436Y0189266D01*
X0079296Y0190406D01*
X0077806Y0191023D01*
X0076194Y0191023D01*
X0074704Y0190406D01*
X0073562Y0189260D02*
X0066928Y0189260D01*
X0068492Y0192256D02*
X0141700Y0192256D01*
X0141700Y0193254D02*
X0068492Y0193254D01*
X0067964Y0194253D02*
X0142023Y0194253D01*
X0142445Y0195251D02*
X0066966Y0195251D01*
X0063019Y0195251D02*
X0041052Y0195251D01*
X0042051Y0194253D02*
X0062021Y0194253D01*
X0061493Y0193254D02*
X0042543Y0193254D01*
X0042543Y0192256D02*
X0061493Y0192256D01*
X0061493Y0191257D02*
X0042543Y0191257D01*
X0041940Y0190259D02*
X0062059Y0190259D01*
X0063057Y0189260D02*
X0040942Y0189260D01*
X0037144Y0189260D02*
X0011138Y0189260D01*
X0010140Y0188262D02*
X0022926Y0188262D01*
X0022386Y0187263D02*
X0009141Y0187263D01*
X0008143Y0186265D02*
X0021494Y0186265D01*
X0020496Y0185266D02*
X0007144Y0185266D01*
X0006900Y0184268D02*
X0019497Y0184268D01*
X0018499Y0183269D02*
X0006900Y0183269D01*
X0006900Y0182271D02*
X0017500Y0182271D01*
X0016502Y0181272D02*
X0006900Y0181272D01*
X0006900Y0180274D02*
X0015503Y0180274D01*
X0014505Y0179275D02*
X0006900Y0179275D01*
X0006900Y0178277D02*
X0014500Y0178277D01*
X0014500Y0177278D02*
X0006900Y0177278D01*
X0006900Y0176280D02*
X0014500Y0176280D01*
X0013608Y0175281D02*
X0012492Y0175281D01*
X0012800Y0174283D02*
X0013300Y0174283D01*
X0013300Y0173284D02*
X0012800Y0173284D01*
X0012800Y0172286D02*
X0013300Y0172286D01*
X0013300Y0171287D02*
X0012800Y0171287D01*
X0012800Y0170289D02*
X0013300Y0170289D01*
X0013300Y0169290D02*
X0012800Y0169290D01*
X0012800Y0168292D02*
X0013300Y0168292D01*
X0013300Y0167293D02*
X0012800Y0167293D01*
X0012800Y0166295D02*
X0013300Y0166295D01*
X0013300Y0165296D02*
X0012800Y0165296D01*
X0012800Y0164297D02*
X0013300Y0164297D01*
X0013300Y0163299D02*
X0012800Y0163299D01*
X0012800Y0162300D02*
X0013300Y0162300D01*
X0013300Y0161302D02*
X0012800Y0161302D01*
X0012800Y0160303D02*
X0013300Y0160303D01*
X0013300Y0159305D02*
X0012800Y0159305D01*
X0012800Y0158306D02*
X0013300Y0158306D01*
X0013300Y0157308D02*
X0012800Y0157308D01*
X0012800Y0156309D02*
X0013300Y0156309D01*
X0013300Y0155311D02*
X0012800Y0155311D01*
X0012800Y0154312D02*
X0013300Y0154312D01*
X0013300Y0153314D02*
X0012800Y0153314D01*
X0012800Y0152315D02*
X0013300Y0152315D01*
X0013300Y0151317D02*
X0012800Y0151317D01*
X0012800Y0150318D02*
X0013300Y0150318D01*
X0020300Y0150318D02*
X0020800Y0150318D01*
X0020800Y0151317D02*
X0020300Y0151317D01*
X0020300Y0152315D02*
X0020800Y0152315D01*
X0020800Y0153314D02*
X0020300Y0153314D01*
X0020300Y0154312D02*
X0020800Y0154312D01*
X0020800Y0155311D02*
X0020300Y0155311D01*
X0020300Y0156309D02*
X0020800Y0156309D01*
X0020800Y0157308D02*
X0020300Y0157308D01*
X0020300Y0158306D02*
X0020800Y0158306D01*
X0020800Y0159305D02*
X0020300Y0159305D01*
X0020300Y0160303D02*
X0020800Y0160303D01*
X0020800Y0161302D02*
X0020300Y0161302D01*
X0020300Y0162300D02*
X0020800Y0162300D01*
X0020800Y0163299D02*
X0020300Y0163299D01*
X0020300Y0164297D02*
X0020800Y0164297D01*
X0020800Y0165296D02*
X0020300Y0165296D01*
X0020300Y0166295D02*
X0020800Y0166295D01*
X0020800Y0167293D02*
X0020300Y0167293D01*
X0020300Y0168292D02*
X0020800Y0168292D01*
X0020800Y0169290D02*
X0020300Y0169290D01*
X0020300Y0170289D02*
X0020800Y0170289D01*
X0020800Y0171287D02*
X0020300Y0171287D01*
X0020300Y0172286D02*
X0020800Y0172286D01*
X0020800Y0173284D02*
X0020300Y0173284D01*
X0020300Y0174283D02*
X0020800Y0174283D01*
X0021108Y0175281D02*
X0019992Y0175281D01*
X0019100Y0176280D02*
X0061985Y0176280D01*
X0062693Y0175281D02*
X0027492Y0175281D01*
X0027800Y0174283D02*
X0062693Y0174283D01*
X0062693Y0173284D02*
X0027800Y0173284D01*
X0027800Y0172286D02*
X0062693Y0172286D01*
X0062693Y0171287D02*
X0027800Y0171287D01*
X0027800Y0170289D02*
X0062693Y0170289D01*
X0062693Y0169290D02*
X0027800Y0169290D01*
X0027800Y0168292D02*
X0062693Y0168292D01*
X0062693Y0167293D02*
X0027800Y0167293D01*
X0027800Y0166295D02*
X0062693Y0166295D01*
X0062693Y0165296D02*
X0041008Y0165296D01*
X0042006Y0164297D02*
X0062066Y0164297D01*
X0061493Y0163299D02*
X0059922Y0163299D01*
X0060884Y0162300D02*
X0061493Y0162300D01*
X0064558Y0158306D02*
X0065708Y0158306D01*
X0065485Y0157308D02*
X0066707Y0157308D01*
X0066412Y0156309D02*
X0067705Y0156309D01*
X0067340Y0155311D02*
X0068704Y0155311D01*
X0068267Y0154312D02*
X0069702Y0154312D01*
X0069194Y0153314D02*
X0079951Y0153314D01*
X0080950Y0152315D02*
X0070121Y0152315D01*
X0071048Y0151317D02*
X0081948Y0151317D01*
X0082700Y0150318D02*
X0071976Y0150318D01*
X0072903Y0149320D02*
X0082700Y0149320D01*
X0082700Y0148321D02*
X0073863Y0148321D01*
X0073900Y0147323D02*
X0082700Y0147323D01*
X0082700Y0146324D02*
X0073900Y0146324D01*
X0073900Y0145326D02*
X0082700Y0145326D01*
X0082700Y0144327D02*
X0073900Y0144327D01*
X0073900Y0143329D02*
X0082700Y0143329D01*
X0082700Y0142330D02*
X0073900Y0142330D01*
X0073900Y0141332D02*
X0082700Y0141332D01*
X0082700Y0140333D02*
X0073900Y0140333D01*
X0073900Y0139335D02*
X0082700Y0139335D01*
X0082700Y0138336D02*
X0082419Y0138336D01*
X0077665Y0138336D02*
X0073900Y0138336D01*
X0073900Y0137338D02*
X0076666Y0137338D01*
X0076542Y0136339D02*
X0073900Y0136339D01*
X0073900Y0135341D02*
X0076542Y0135341D01*
X0076542Y0134342D02*
X0073900Y0134342D01*
X0073900Y0133344D02*
X0077512Y0133344D01*
X0078511Y0132345D02*
X0073900Y0132345D01*
X0073900Y0131347D02*
X0082700Y0131347D01*
X0082700Y0132345D02*
X0081573Y0132345D01*
X0082572Y0133344D02*
X0082700Y0133344D01*
X0082700Y0130348D02*
X0073900Y0130348D01*
X0073900Y0129350D02*
X0082700Y0129350D01*
X0082700Y0128351D02*
X0073900Y0128351D01*
X0073900Y0127353D02*
X0082700Y0127353D01*
X0082700Y0126354D02*
X0073900Y0126354D01*
X0073900Y0125356D02*
X0082700Y0125356D01*
X0082700Y0124357D02*
X0073900Y0124357D01*
X0073900Y0123359D02*
X0082700Y0123359D01*
X0082700Y0122360D02*
X0073900Y0122360D01*
X0073900Y0121361D02*
X0082700Y0121361D01*
X0082700Y0120363D02*
X0073900Y0120363D01*
X0073900Y0119364D02*
X0082700Y0119364D01*
X0082700Y0118366D02*
X0073900Y0118366D01*
X0073900Y0117367D02*
X0082700Y0117367D01*
X0082700Y0116369D02*
X0073900Y0116369D01*
X0073900Y0115370D02*
X0082700Y0115370D01*
X0082700Y0114372D02*
X0073900Y0114372D01*
X0073900Y0113373D02*
X0082700Y0113373D01*
X0082700Y0112375D02*
X0073900Y0112375D01*
X0073900Y0111376D02*
X0082689Y0111376D01*
X0083386Y0110378D02*
X0073900Y0110378D01*
X0091193Y0130348D02*
X0091793Y0130348D01*
X0091793Y0131347D02*
X0091193Y0131347D01*
X0091193Y0132345D02*
X0091793Y0132345D01*
X0091793Y0133344D02*
X0091193Y0133344D01*
X0092008Y0150318D02*
X0102947Y0150318D01*
X0101948Y0151317D02*
X0093198Y0151317D01*
X0092139Y0151317D02*
X0091355Y0151317D01*
X0091301Y0152315D02*
X0090517Y0152315D01*
X0090463Y0153314D02*
X0089977Y0153314D01*
X0090234Y0154312D02*
X0091167Y0154312D01*
X0091424Y0155311D02*
X0092357Y0155311D01*
X0092614Y0156309D02*
X0096956Y0156309D01*
X0097954Y0155311D02*
X0093487Y0155311D01*
X0093818Y0154312D02*
X0098953Y0154312D01*
X0099951Y0153314D02*
X0093730Y0153314D01*
X0093643Y0152315D02*
X0100950Y0152315D01*
X0104460Y0155311D02*
X0117100Y0155311D01*
X0117190Y0154312D02*
X0105458Y0154312D01*
X0106457Y0153314D02*
X0118189Y0153314D01*
X0119187Y0152315D02*
X0107455Y0152315D01*
X0095957Y0157308D02*
X0091811Y0157308D01*
X0093960Y0159305D02*
X0071215Y0159305D01*
X0070216Y0160303D02*
X0092962Y0160303D01*
X0091963Y0161302D02*
X0069218Y0161302D01*
X0068492Y0162300D02*
X0078555Y0162300D01*
X0077557Y0163299D02*
X0068492Y0163299D01*
X0067919Y0164297D02*
X0076558Y0164297D01*
X0076542Y0165296D02*
X0067292Y0165296D01*
X0067292Y0166295D02*
X0076542Y0166295D01*
X0076622Y0167293D02*
X0067292Y0167293D01*
X0067292Y0174283D02*
X0098200Y0174283D01*
X0097930Y0175281D02*
X0067292Y0175281D01*
X0067292Y0176280D02*
X0097541Y0176280D01*
X0095552Y0177278D02*
X0089363Y0177278D01*
X0090478Y0178277D02*
X0094057Y0178277D01*
X0093355Y0179275D02*
X0091085Y0179275D01*
X0091383Y0180274D02*
X0092947Y0180274D01*
X0092947Y0181272D02*
X0091453Y0181272D01*
X0091453Y0182271D02*
X0092947Y0182271D01*
X0092947Y0183269D02*
X0091453Y0183269D01*
X0092947Y0184268D02*
X0087484Y0184268D01*
X0086516Y0184268D02*
X0081053Y0184268D01*
X0081053Y0185266D02*
X0082547Y0185266D01*
X0082547Y0186265D02*
X0081053Y0186265D01*
X0081053Y0187263D02*
X0082547Y0187263D01*
X0082738Y0188262D02*
X0080852Y0188262D01*
X0080438Y0189260D02*
X0083169Y0189260D01*
X0083991Y0190259D02*
X0079443Y0190259D01*
X0073148Y0188262D02*
X0057074Y0188262D01*
X0057614Y0187263D02*
X0072947Y0187263D01*
X0072947Y0186265D02*
X0058506Y0186265D01*
X0059504Y0185266D02*
X0072947Y0185266D01*
X0072947Y0184268D02*
X0060503Y0184268D01*
X0061501Y0183269D02*
X0072947Y0183269D01*
X0072947Y0182271D02*
X0062500Y0182271D01*
X0063498Y0181272D02*
X0072947Y0181272D01*
X0072947Y0180274D02*
X0064497Y0180274D01*
X0065495Y0179275D02*
X0073355Y0179275D01*
X0074057Y0178277D02*
X0066494Y0178277D01*
X0067292Y0177278D02*
X0075552Y0177278D01*
X0078448Y0177278D02*
X0084637Y0177278D01*
X0083522Y0178277D02*
X0079943Y0178277D01*
X0080645Y0179275D02*
X0082915Y0179275D01*
X0082617Y0180274D02*
X0081053Y0180274D01*
X0081053Y0181272D02*
X0082547Y0181272D01*
X0082547Y0182271D02*
X0081053Y0182271D01*
X0081053Y0183269D02*
X0082547Y0183269D01*
X0086516Y0183269D02*
X0087484Y0183269D01*
X0087484Y0182271D02*
X0086516Y0182271D01*
X0086516Y0181272D02*
X0087484Y0181272D01*
X0087484Y0180274D02*
X0086516Y0180274D01*
X0086516Y0179275D02*
X0087484Y0179275D01*
X0087484Y0178277D02*
X0086516Y0178277D01*
X0086516Y0177278D02*
X0087484Y0177278D01*
X0087484Y0185266D02*
X0086516Y0185266D01*
X0086516Y0186265D02*
X0087484Y0186265D01*
X0087484Y0187263D02*
X0086516Y0187263D01*
X0086516Y0188262D02*
X0087484Y0188262D01*
X0087484Y0189260D02*
X0086516Y0189260D01*
X0086516Y0190259D02*
X0087484Y0190259D01*
X0090009Y0190259D02*
X0094557Y0190259D01*
X0093562Y0189260D02*
X0090831Y0189260D01*
X0091262Y0188262D02*
X0093148Y0188262D01*
X0092947Y0187263D02*
X0091453Y0187263D01*
X0091453Y0186265D02*
X0092947Y0186265D01*
X0092947Y0185266D02*
X0091453Y0185266D01*
X0099443Y0190259D02*
X0104557Y0190259D01*
X0103562Y0189260D02*
X0100438Y0189260D01*
X0100852Y0188262D02*
X0103148Y0188262D01*
X0102947Y0187263D02*
X0101053Y0187263D01*
X0101053Y0186265D02*
X0102947Y0186265D01*
X0102947Y0185266D02*
X0101053Y0185266D01*
X0101053Y0184268D02*
X0102947Y0184268D01*
X0102947Y0183269D02*
X0101053Y0183269D01*
X0101053Y0182271D02*
X0102947Y0182271D01*
X0102947Y0181272D02*
X0101053Y0181272D01*
X0101053Y0180274D02*
X0102947Y0180274D01*
X0103355Y0179275D02*
X0101312Y0179275D01*
X0101700Y0178277D02*
X0104057Y0178277D01*
X0111053Y0185266D02*
X0112547Y0185266D01*
X0112547Y0186265D02*
X0111053Y0186265D01*
X0111053Y0187263D02*
X0112547Y0187263D01*
X0112738Y0188262D02*
X0110852Y0188262D01*
X0110438Y0189260D02*
X0113169Y0189260D01*
X0113991Y0190259D02*
X0109443Y0190259D01*
X0116516Y0190259D02*
X0117484Y0190259D01*
X0117484Y0189260D02*
X0116516Y0189260D01*
X0116516Y0188262D02*
X0117484Y0188262D01*
X0117484Y0187263D02*
X0116516Y0187263D01*
X0116516Y0186265D02*
X0117484Y0186265D01*
X0117484Y0185266D02*
X0116516Y0185266D01*
X0121453Y0186265D02*
X0122947Y0186265D01*
X0122947Y0187263D02*
X0121453Y0187263D01*
X0121262Y0188262D02*
X0123148Y0188262D01*
X0123562Y0189260D02*
X0120831Y0189260D01*
X0120009Y0190259D02*
X0124557Y0190259D01*
X0122963Y0171287D02*
X0153037Y0171287D01*
X0154731Y0170289D02*
X0123808Y0170289D01*
X0144192Y0165296D02*
X0163000Y0165296D01*
X0163271Y0164297D02*
X0146581Y0164297D01*
X0148971Y0163299D02*
X0164269Y0163299D01*
X0163786Y0170289D02*
X0172591Y0170289D01*
X0172591Y0171287D02*
X0162093Y0171287D01*
X0160400Y0172286D02*
X0164282Y0172286D01*
X0163284Y0173284D02*
X0158707Y0173284D01*
X0157013Y0174283D02*
X0163000Y0174283D01*
X0163000Y0175281D02*
X0155320Y0175281D01*
X0153627Y0176280D02*
X0163000Y0176280D01*
X0163811Y0177278D02*
X0151934Y0177278D01*
X0149209Y0180274D02*
X0172591Y0180274D01*
X0172591Y0181272D02*
X0168704Y0181272D01*
X0169703Y0182271D02*
X0172591Y0182271D01*
X0172591Y0183269D02*
X0170000Y0183269D01*
X0170000Y0184268D02*
X0172591Y0184268D01*
X0172347Y0185266D02*
X0170000Y0185266D01*
X0169203Y0186265D02*
X0171348Y0186265D01*
X0170350Y0187263D02*
X0168204Y0187263D01*
X0169351Y0188262D02*
X0158768Y0188262D01*
X0160031Y0189260D02*
X0168353Y0189260D01*
X0167354Y0190259D02*
X0160760Y0190259D01*
X0161173Y0191257D02*
X0166356Y0191257D01*
X0165357Y0192256D02*
X0161300Y0192256D01*
X0161300Y0193254D02*
X0164359Y0193254D01*
X0163360Y0194253D02*
X0160977Y0194253D01*
X0160555Y0195251D02*
X0162362Y0195251D01*
X0156013Y0146324D02*
X0144957Y0146324D01*
X0145440Y0141332D02*
X0156929Y0141332D01*
X0151034Y0140333D02*
X0144317Y0140333D01*
X0143193Y0139335D02*
X0150064Y0139335D01*
X0149066Y0138336D02*
X0142070Y0138336D01*
X0140947Y0137338D02*
X0148067Y0137338D01*
X0147069Y0136339D02*
X0139823Y0136339D01*
X0138700Y0135341D02*
X0146070Y0135341D01*
X0145072Y0134342D02*
X0137577Y0134342D01*
X0136454Y0133344D02*
X0144073Y0133344D01*
X0143075Y0132345D02*
X0135330Y0132345D01*
X0134207Y0131347D02*
X0142076Y0131347D01*
X0141700Y0130348D02*
X0133800Y0130348D01*
X0133800Y0129350D02*
X0141700Y0129350D01*
X0141700Y0128351D02*
X0133800Y0128351D01*
X0133800Y0127353D02*
X0141700Y0127353D01*
X0141700Y0126354D02*
X0133800Y0126354D01*
X0133800Y0125356D02*
X0141700Y0125356D01*
X0141700Y0124357D02*
X0133800Y0124357D01*
X0133800Y0123359D02*
X0141700Y0123359D01*
X0141700Y0122360D02*
X0133800Y0122360D01*
X0133800Y0121361D02*
X0141700Y0121361D01*
X0141700Y0120363D02*
X0133800Y0120363D01*
X0133800Y0119364D02*
X0141700Y0119364D01*
X0141700Y0118366D02*
X0133800Y0118366D01*
X0133800Y0117367D02*
X0135182Y0117367D01*
X0136818Y0117367D02*
X0141700Y0117367D01*
X0141700Y0116369D02*
X0138499Y0116369D01*
X0139187Y0115370D02*
X0141700Y0115370D01*
X0146548Y0106384D02*
X0152416Y0106384D01*
X0151500Y0105468D02*
X0151500Y0102568D01*
X0153550Y0100518D01*
X0156450Y0100518D01*
X0158500Y0102568D01*
X0158500Y0105468D01*
X0156450Y0107518D01*
X0153550Y0107518D01*
X0151500Y0105468D01*
X0151500Y0105385D02*
X0147244Y0105385D01*
X0147940Y0104387D02*
X0151500Y0104387D01*
X0151500Y0103388D02*
X0148636Y0103388D01*
X0149332Y0102390D02*
X0151678Y0102390D01*
X0152677Y0101391D02*
X0150028Y0101391D01*
X0150724Y0100393D02*
X0167700Y0100393D01*
X0167700Y0101391D02*
X0157323Y0101391D01*
X0158322Y0102390D02*
X0167700Y0102390D01*
X0167700Y0103388D02*
X0158500Y0103388D01*
X0158500Y0104387D02*
X0167700Y0104387D01*
X0167683Y0105385D02*
X0158500Y0105385D01*
X0157584Y0106384D02*
X0166684Y0106384D01*
X0166500Y0107382D02*
X0156585Y0107382D01*
X0163900Y0112375D02*
X0167108Y0112375D01*
X0166263Y0113373D02*
X0163660Y0113373D01*
X0162661Y0114372D02*
X0165418Y0114372D01*
X0164573Y0115370D02*
X0161663Y0115370D01*
X0167700Y0099394D02*
X0151420Y0099394D01*
X0152116Y0098396D02*
X0167700Y0098396D01*
X0167700Y0097397D02*
X0152812Y0097397D01*
X0153508Y0096399D02*
X0167700Y0096399D01*
X0167700Y0095400D02*
X0154204Y0095400D01*
X0154900Y0094402D02*
X0167700Y0094402D01*
X0167700Y0093403D02*
X0155596Y0093403D01*
X0156291Y0092405D02*
X0167700Y0092405D01*
X0167502Y0091406D02*
X0156987Y0091406D01*
X0157822Y0090408D02*
X0167127Y0090408D01*
X0166753Y0089409D02*
X0157817Y0089409D01*
X0157774Y0088411D02*
X0166378Y0088411D01*
X0166004Y0087412D02*
X0157749Y0087412D01*
X0157725Y0086414D02*
X0165630Y0086414D01*
X0165255Y0085415D02*
X0157701Y0085415D01*
X0157676Y0084417D02*
X0164881Y0084417D01*
X0164506Y0083418D02*
X0157652Y0083418D01*
X0157628Y0082420D02*
X0164132Y0082420D01*
X0163757Y0081421D02*
X0157603Y0081421D01*
X0157579Y0080423D02*
X0163200Y0080423D01*
X0163016Y0079424D02*
X0162609Y0079424D01*
X0160300Y0079424D02*
X0159700Y0079424D01*
X0159700Y0078426D02*
X0160300Y0078426D01*
X0160300Y0077427D02*
X0159700Y0077427D01*
X0159700Y0075430D02*
X0160300Y0075430D01*
X0160300Y0074431D02*
X0159700Y0074431D01*
X0159700Y0073433D02*
X0160300Y0073433D01*
X0162431Y0073433D02*
X0163034Y0073433D01*
X0163331Y0072434D02*
X0157384Y0072434D01*
X0157408Y0073433D02*
X0157569Y0073433D01*
X0157532Y0071436D02*
X0163890Y0071436D01*
X0164318Y0070437D02*
X0158500Y0070437D01*
X0158500Y0069439D02*
X0164746Y0069439D01*
X0165174Y0068440D02*
X0158500Y0068440D01*
X0158374Y0067442D02*
X0165602Y0067442D01*
X0166030Y0066443D02*
X0157375Y0066443D01*
X0149284Y0065445D02*
X0166457Y0065445D01*
X0115824Y0069439D02*
X0112773Y0069439D01*
X0112033Y0068440D02*
X0114702Y0068440D01*
X0114246Y0067442D02*
X0110412Y0067442D01*
X0108455Y0066443D02*
X0114097Y0066443D01*
X0114198Y0065445D02*
X0106498Y0065445D01*
X0104541Y0064446D02*
X0114611Y0064446D01*
X0115584Y0063448D02*
X0102584Y0063448D01*
X0088699Y0064446D02*
X0085382Y0064446D01*
X0084409Y0063448D02*
X0086742Y0063448D01*
X0075251Y0034491D02*
X0011600Y0034491D01*
X0011600Y0033492D02*
X0074477Y0033492D01*
X0074103Y0032494D02*
X0011600Y0032494D01*
X0011600Y0031495D02*
X0074103Y0031495D01*
X0074393Y0030497D02*
X0011774Y0030497D01*
X0012772Y0029498D02*
X0075048Y0029498D01*
X0076649Y0028500D02*
X0013771Y0028500D01*
X0027800Y0051466D02*
X0043707Y0051466D01*
X0042817Y0052464D02*
X0027800Y0052464D01*
X0027800Y0053463D02*
X0041919Y0053463D01*
X0041021Y0054461D02*
X0027800Y0054461D01*
X0027800Y0055460D02*
X0040123Y0055460D01*
X0039226Y0056458D02*
X0027800Y0056458D01*
X0027800Y0057457D02*
X0038328Y0057457D01*
X0037430Y0058455D02*
X0027800Y0058455D01*
X0027800Y0059454D02*
X0036532Y0059454D01*
X0035634Y0060452D02*
X0027800Y0060452D01*
X0027800Y0061451D02*
X0034736Y0061451D01*
X0033838Y0062449D02*
X0027800Y0062449D01*
X0027800Y0063448D02*
X0032940Y0063448D01*
X0032042Y0064446D02*
X0027800Y0064446D01*
X0027800Y0150318D02*
X0032589Y0150318D01*
X0033487Y0151317D02*
X0027800Y0151317D01*
X0027800Y0152315D02*
X0034385Y0152315D01*
X0035282Y0153314D02*
X0027800Y0153314D01*
X0027800Y0154312D02*
X0036180Y0154312D01*
X0037078Y0155311D02*
X0027800Y0155311D01*
X0027800Y0156309D02*
X0037976Y0156309D01*
X0038874Y0157308D02*
X0027800Y0157308D01*
X0027800Y0158306D02*
X0039772Y0158306D01*
X0037099Y0159305D02*
X0027800Y0159305D01*
X0027800Y0160303D02*
X0036101Y0160303D01*
X0035543Y0161302D02*
X0027800Y0161302D01*
X0027800Y0162300D02*
X0035543Y0162300D01*
X0035543Y0163299D02*
X0027800Y0163299D01*
X0027800Y0164297D02*
X0036079Y0164297D01*
X0037078Y0165296D02*
X0027800Y0165296D01*
X0019100Y0177278D02*
X0060987Y0177278D01*
X0059988Y0178277D02*
X0020012Y0178277D01*
X0021010Y0179275D02*
X0058990Y0179275D01*
X0057991Y0180274D02*
X0022009Y0180274D01*
X0023007Y0181272D02*
X0056993Y0181272D01*
X0055994Y0182271D02*
X0024006Y0182271D01*
X0025004Y0183269D02*
X0054996Y0183269D01*
X0053432Y0184268D02*
X0026568Y0184268D01*
X0027404Y0185266D02*
X0052596Y0185266D01*
X0052300Y0186265D02*
X0027700Y0186265D01*
X0027614Y0187263D02*
X0052386Y0187263D01*
X0052926Y0188262D02*
X0027074Y0188262D01*
X0035543Y0191257D02*
X0013135Y0191257D01*
X0012137Y0190259D02*
X0036145Y0190259D01*
X0035543Y0192256D02*
X0014134Y0192256D01*
X0015132Y0193254D02*
X0035543Y0193254D01*
X0036035Y0194253D02*
X0016131Y0194253D01*
X0017129Y0195251D02*
X0037033Y0195251D01*
X0042543Y0163299D02*
X0044296Y0163299D01*
X0043316Y0162300D02*
X0042543Y0162300D01*
X0081529Y0162300D02*
X0090965Y0162300D01*
X0089966Y0163299D02*
X0082527Y0163299D01*
X0081464Y0158306D02*
X0094959Y0158306D01*
X0089625Y0154312D02*
X0088842Y0154312D01*
X0088787Y0155311D02*
X0088004Y0155311D01*
X0087949Y0156309D02*
X0087166Y0156309D01*
X0087013Y0156309D02*
X0083461Y0156309D01*
X0084460Y0155311D02*
X0086075Y0155311D01*
X0085988Y0154312D02*
X0085458Y0154312D01*
X0088203Y0157308D02*
X0082463Y0157308D01*
D23*
X0054000Y0166518D03*
X0048000Y0176518D03*
X0055000Y0186518D03*
X0025000Y0186518D03*
X0080500Y0119018D03*
X0080000Y0107018D03*
X0100000Y0096518D03*
X0086500Y0081018D03*
X0091500Y0068518D03*
X0128000Y0099018D03*
X0109500Y0131518D03*
X0152500Y0138018D03*
X0157500Y0144018D03*
X0143500Y0061018D03*
X0140000Y0021518D03*
D24*
X0145000Y0026518D01*
X0144500Y0054018D01*
X0143500Y0061018D01*
X0155000Y0058018D02*
X0131500Y0076518D01*
X0131500Y0132018D01*
X0145000Y0144018D01*
X0157500Y0144018D01*
X0152500Y0138018D02*
X0152000Y0138018D01*
X0144000Y0130018D01*
X0144000Y0106018D01*
X0155500Y0089518D01*
X0155000Y0069018D01*
X0155000Y0058018D02*
X0155000Y0034018D01*
X0128000Y0029518D02*
X0118500Y0020018D01*
X0019000Y0020018D01*
X0009300Y0029718D01*
X0009300Y0041918D01*
X0009300Y0052018D01*
X0016800Y0052018D02*
X0016800Y0041918D01*
X0024300Y0041918D02*
X0024300Y0052018D01*
X0080000Y0107018D02*
X0091500Y0095018D01*
X0091500Y0068518D01*
X0100000Y0096518D02*
X0085000Y0112018D01*
X0085000Y0151518D01*
X0080000Y0156518D01*
X0070749Y0156518D01*
X0064993Y0162275D01*
X0064993Y0176525D01*
X0055000Y0186518D01*
X0080042Y0165764D02*
X0090754Y0165764D01*
X0110000Y0146518D01*
X0109500Y0137018D01*
X0109500Y0131518D01*
X0128000Y0099018D02*
X0128000Y0029518D01*
X0170000Y0063018D02*
X0165500Y0073518D01*
X0165500Y0079518D01*
X0170000Y0091518D01*
X0170000Y0108018D01*
X0170000Y0112518D01*
X0164500Y0119018D01*
X0164500Y0124018D01*
X0170000Y0131518D01*
X0170000Y0152018D01*
X0136500Y0166018D01*
X0136500Y0175018D02*
X0100500Y0175018D01*
X0097000Y0184018D01*
X0146500Y0192518D02*
X0147000Y0177518D01*
X0166500Y0166018D01*
X0024300Y0162018D02*
X0024300Y0172418D01*
X0016800Y0172418D02*
X0016800Y0162018D01*
X0009300Y0162018D02*
X0009300Y0172418D01*
X0016800Y0172418D02*
X0016800Y0178318D01*
X0025000Y0186518D01*
D25*
X0091493Y0144152D02*
X0101000Y0136518D01*
X0104000Y0127518D01*
X0109000Y0124145D01*
X0109500Y0073518D01*
X0109500Y0071018D01*
X0085000Y0058518D01*
X0080003Y0053521D01*
X0080003Y0031893D01*
X0085000Y0058518D02*
X0079997Y0062021D01*
X0079997Y0066385D01*
X0079997Y0097014D01*
X0079998Y0097016D01*
D26*
X0126000Y0163518D02*
X0134000Y0163518D01*
X0136500Y0166018D01*
X0126000Y0163518D02*
X0120500Y0170018D01*
X0112500Y0170018D01*
X0109500Y0167018D01*
X0105160Y0166446D01*
M02*
