G75*
%MOIN*%
%OFA0B0*%
%FSLAX25Y25*%
%IPPOS*%
%LPD*%
%AMOC8*
5,1,8,0,0,1.08239X$1,22.5*
%
%ADD10C,0.03300*%
%ADD11C,0.05200*%
%ADD12OC8,0.05200*%
%ADD13OC8,0.06300*%
%ADD14C,0.06300*%
%ADD15C,0.05937*%
%ADD16C,0.00600*%
%ADD17C,0.00500*%
%ADD18R,0.04800X0.25000*%
%ADD19R,0.03969X0.03969*%
%ADD20C,0.07400*%
%ADD21C,0.01000*%
%ADD22C,0.03200*%
%ADD23C,0.02400*%
%ADD24C,0.05000*%
%ADD25C,0.03200*%
%ADD26C,0.04000*%
D10*
X0096229Y0037714D03*
X0096229Y0040076D03*
X0096229Y0042438D03*
X0101729Y0040238D03*
X0096868Y0067761D03*
X0096868Y0070123D03*
X0096868Y0072486D03*
X0102368Y0070286D03*
X0096849Y0098437D03*
X0096849Y0100799D03*
X0096849Y0103162D03*
X0102349Y0100962D03*
D11*
X0117398Y0085498D02*
X0122598Y0085498D01*
X0122500Y0095400D02*
X0122500Y0100600D01*
X0137500Y0100600D02*
X0137500Y0095400D01*
X0137500Y0071600D02*
X0137500Y0066400D01*
X0122500Y0066400D02*
X0122500Y0071600D01*
X0122597Y0054867D02*
X0117397Y0054867D01*
X0122000Y0040100D02*
X0122000Y0034900D01*
X0122603Y0024875D02*
X0117403Y0024875D01*
X0137000Y0034900D02*
X0137000Y0040100D01*
X0082597Y0054867D02*
X0077397Y0054867D01*
X0077403Y0024875D02*
X0082603Y0024875D01*
X0082598Y0085498D02*
X0077398Y0085498D01*
D12*
X0080042Y0124246D03*
X0100000Y0147500D03*
X0107500Y0152500D03*
X0107500Y0142500D03*
X0119500Y0142500D03*
X0136500Y0154500D03*
X0136500Y0163500D03*
X0136500Y0172500D03*
X0166500Y0172500D03*
X0166500Y0163500D03*
X0166500Y0154500D03*
X0139500Y0142500D03*
X0170000Y0128500D03*
X0159000Y0101500D03*
X0154000Y0094000D03*
X0149000Y0101500D03*
X0170000Y0098500D03*
X0170000Y0090000D03*
X0159000Y0075500D03*
X0154000Y0068000D03*
X0149000Y0075500D03*
X0170000Y0060000D03*
X0170000Y0051500D03*
X0160000Y0046000D03*
X0155000Y0038500D03*
X0150000Y0046000D03*
X0170000Y0021500D03*
X0064993Y0150757D03*
X0080042Y0154246D03*
X0064993Y0180757D03*
X0039043Y0180793D03*
X0039043Y0150793D03*
D13*
X0092493Y0118634D03*
D14*
X0092493Y0128634D03*
D15*
X0097000Y0169531D02*
X0097000Y0175469D01*
X0087000Y0175469D02*
X0087000Y0169531D01*
X0077000Y0169531D02*
X0077000Y0175469D01*
X0107000Y0175469D02*
X0107000Y0169531D01*
X0117000Y0169531D02*
X0117000Y0175469D01*
X0127000Y0175469D02*
X0127000Y0169531D01*
D16*
X0005100Y0016911D02*
X0016911Y0005100D01*
X0005100Y0016911D02*
X0005100Y0055000D01*
X0032600Y0055000D01*
X0045100Y0041100D01*
X0059100Y0041100D01*
X0072100Y0055100D01*
X0072100Y0136021D01*
X0059100Y0150021D01*
X0045100Y0150021D01*
X0032600Y0136121D01*
X0005100Y0136121D01*
X0005100Y0174250D01*
X0016911Y0186061D01*
X0162580Y0186061D02*
X0174391Y0174250D01*
X0174391Y0016911D01*
X0162580Y0005100D01*
D17*
X0162726Y0005100D02*
X0017100Y0005100D01*
X0017100Y0186021D02*
X0162726Y0186021D01*
D18*
X0024300Y0150500D03*
X0016800Y0150500D03*
X0009300Y0150500D03*
X0009300Y0040500D03*
X0016800Y0040500D03*
X0024300Y0040500D03*
D19*
X0024300Y0030400D03*
X0016800Y0030400D03*
X0009300Y0030400D03*
X0009300Y0160900D03*
X0016800Y0160900D03*
X0024300Y0160900D03*
D20*
X0146500Y0181000D03*
X0156500Y0181000D03*
D21*
X0152431Y0178281D02*
X0153781Y0176931D01*
X0155545Y0176200D01*
X0157455Y0176200D01*
X0159219Y0176931D01*
X0160569Y0178281D01*
X0161300Y0180045D01*
X0161300Y0181955D01*
X0160569Y0183719D01*
X0160017Y0184271D01*
X0161824Y0184271D01*
X0172591Y0173504D01*
X0172591Y0134799D01*
X0172575Y0134838D01*
X0172499Y0135154D01*
X0172372Y0135329D01*
X0172289Y0135529D01*
X0172059Y0135760D01*
X0171867Y0136023D01*
X0171683Y0136136D01*
X0171529Y0136289D01*
X0171229Y0136413D01*
X0140200Y0155401D01*
X0140200Y0156033D01*
X0138033Y0158200D01*
X0134967Y0158200D01*
X0132800Y0156033D01*
X0132800Y0152967D01*
X0134967Y0150800D01*
X0137374Y0150800D01*
X0167300Y0132487D01*
X0167300Y0131033D01*
X0166300Y0130033D01*
X0166300Y0128618D01*
X0163471Y0125789D01*
X0162711Y0125029D01*
X0162300Y0124037D01*
X0162300Y0103998D01*
X0160698Y0105600D01*
X0159300Y0105600D01*
X0159300Y0101800D01*
X0158700Y0101800D01*
X0158700Y0105600D01*
X0157302Y0105600D01*
X0154900Y0103198D01*
X0154900Y0101800D01*
X0158700Y0101800D01*
X0158700Y0101200D01*
X0159300Y0101200D01*
X0159300Y0097400D01*
X0160698Y0097400D01*
X0162300Y0099002D01*
X0162300Y0094463D01*
X0162711Y0093471D01*
X0166182Y0090000D01*
X0163471Y0087289D01*
X0162711Y0086529D01*
X0162300Y0085537D01*
X0162300Y0077998D01*
X0160698Y0079600D01*
X0159300Y0079600D01*
X0159300Y0075800D01*
X0158700Y0075800D01*
X0158700Y0079600D01*
X0157302Y0079600D01*
X0154900Y0077198D01*
X0154900Y0075800D01*
X0158700Y0075800D01*
X0158700Y0075200D01*
X0159300Y0075200D01*
X0159300Y0071400D01*
X0160698Y0071400D01*
X0162300Y0073002D01*
X0162300Y0054463D01*
X0162711Y0053471D01*
X0166211Y0049971D01*
X0166971Y0049211D01*
X0167117Y0049150D01*
X0168467Y0047800D01*
X0171533Y0047800D01*
X0172591Y0048859D01*
X0172591Y0024141D01*
X0171533Y0025200D01*
X0168467Y0025200D01*
X0166300Y0023033D01*
X0166300Y0019967D01*
X0168467Y0017800D01*
X0171533Y0017800D01*
X0172591Y0018859D01*
X0172591Y0017657D01*
X0161785Y0006850D01*
X0120103Y0006850D01*
X0120800Y0007547D01*
X0130300Y0017047D01*
X0130300Y0085997D01*
X0130700Y0086963D01*
X0130700Y0088037D01*
X0130289Y0089029D01*
X0129529Y0089789D01*
X0128537Y0090200D01*
X0127463Y0090200D01*
X0126471Y0089789D01*
X0125711Y0089029D01*
X0125300Y0088037D01*
X0125300Y0088029D01*
X0124694Y0088635D01*
X0123334Y0089198D01*
X0116662Y0089198D01*
X0115302Y0088635D01*
X0114261Y0087594D01*
X0113843Y0086583D01*
X0113600Y0111145D01*
X0113600Y0111843D01*
X0113593Y0111860D01*
X0113593Y0111879D01*
X0113319Y0112521D01*
X0113052Y0113166D01*
X0113039Y0113179D01*
X0113032Y0113196D01*
X0112533Y0113685D01*
X0108887Y0117332D01*
X0108963Y0117300D01*
X0110037Y0117300D01*
X0111029Y0117711D01*
X0111789Y0118471D01*
X0112200Y0119463D01*
X0112200Y0120537D01*
X0111789Y0121529D01*
X0111746Y0121573D01*
X0111587Y0126061D01*
X0111571Y0126993D01*
X0111554Y0127009D01*
X0111553Y0127033D01*
X0110871Y0127669D01*
X0083742Y0153870D01*
X0083742Y0155778D01*
X0081575Y0157946D01*
X0078509Y0157946D01*
X0076342Y0155778D01*
X0076342Y0152713D01*
X0078509Y0150546D01*
X0080562Y0150546D01*
X0107022Y0124991D01*
X0107150Y0121381D01*
X0106800Y0120537D01*
X0106800Y0119463D01*
X0106832Y0119387D01*
X0096743Y0129475D01*
X0096743Y0129480D01*
X0096096Y0131042D01*
X0094900Y0132237D01*
X0093338Y0132884D01*
X0091648Y0132884D01*
X0090086Y0132237D01*
X0088890Y0131042D01*
X0088243Y0129480D01*
X0088243Y0127789D01*
X0088890Y0126227D01*
X0090086Y0125031D01*
X0091648Y0124384D01*
X0091652Y0124384D01*
X0092793Y0123243D01*
X0092793Y0118934D01*
X0097102Y0118934D01*
X0106415Y0109621D01*
X0106883Y0062206D01*
X0093818Y0055540D01*
X0094200Y0056463D01*
X0094200Y0057537D01*
X0093800Y0058503D01*
X0093800Y0083475D01*
X0093820Y0084404D01*
X0093800Y0084424D01*
X0093800Y0084453D01*
X0093144Y0085109D01*
X0082700Y0096007D01*
X0082700Y0096037D01*
X0082289Y0097029D01*
X0081529Y0097789D01*
X0080537Y0098200D01*
X0079463Y0098200D01*
X0078471Y0097789D01*
X0077711Y0097029D01*
X0077300Y0096037D01*
X0077300Y0094963D01*
X0077711Y0093971D01*
X0078471Y0093211D01*
X0079362Y0092842D01*
X0082854Y0089198D01*
X0076662Y0089198D01*
X0075302Y0088635D01*
X0074261Y0087594D01*
X0073900Y0086721D01*
X0073900Y0135988D01*
X0073926Y0136700D01*
X0073900Y0136728D01*
X0073900Y0136767D01*
X0073396Y0137271D01*
X0064309Y0147057D01*
X0065440Y0147057D01*
X0069797Y0142700D01*
X0079047Y0142700D01*
X0082700Y0139047D01*
X0082700Y0126820D01*
X0081575Y0127946D01*
X0078509Y0127946D01*
X0076342Y0125778D01*
X0076342Y0122713D01*
X0078509Y0120546D01*
X0081575Y0120546D01*
X0082700Y0121671D01*
X0082700Y0100519D01*
X0082685Y0099585D01*
X0082700Y0099569D01*
X0082700Y0099547D01*
X0083360Y0098887D01*
X0097300Y0084483D01*
X0097300Y0084463D01*
X0097711Y0083471D01*
X0098471Y0082711D01*
X0099463Y0082300D01*
X0100537Y0082300D01*
X0101529Y0082711D01*
X0102289Y0083471D01*
X0102700Y0084463D01*
X0102700Y0085537D01*
X0102289Y0086529D01*
X0101529Y0087289D01*
X0100622Y0087665D01*
X0087300Y0101431D01*
X0087300Y0140953D01*
X0082300Y0145953D01*
X0080953Y0147300D01*
X0071702Y0147300D01*
X0068692Y0150309D01*
X0068692Y0152289D01*
X0067292Y0153689D01*
X0067292Y0165960D01*
X0057689Y0175564D01*
X0057289Y0176529D01*
X0056529Y0177289D01*
X0055537Y0177700D01*
X0054463Y0177700D01*
X0053471Y0177289D01*
X0052711Y0176529D01*
X0052300Y0175537D01*
X0052300Y0174463D01*
X0052711Y0173471D01*
X0053471Y0172711D01*
X0054436Y0172311D01*
X0062693Y0164055D01*
X0062693Y0153689D01*
X0061293Y0152289D01*
X0061293Y0150305D01*
X0060900Y0150728D01*
X0060900Y0150767D01*
X0060396Y0151271D01*
X0059912Y0151792D01*
X0059873Y0151794D01*
X0059846Y0151821D01*
X0059133Y0151821D01*
X0058422Y0151848D01*
X0058393Y0151821D01*
X0045790Y0151821D01*
X0045749Y0151858D01*
X0045052Y0151821D01*
X0044354Y0151821D01*
X0044315Y0151782D01*
X0044260Y0151779D01*
X0043794Y0151260D01*
X0043300Y0150767D01*
X0043300Y0150712D01*
X0042743Y0150092D01*
X0042743Y0152326D01*
X0040575Y0154493D01*
X0037510Y0154493D01*
X0035343Y0152326D01*
X0035343Y0149261D01*
X0037510Y0147093D01*
X0040046Y0147093D01*
X0031798Y0137921D01*
X0027800Y0137921D01*
X0027800Y0163456D01*
X0027156Y0164100D01*
X0021444Y0164100D01*
X0020800Y0163456D01*
X0020800Y0137921D01*
X0020300Y0137921D01*
X0020300Y0163456D01*
X0019656Y0164100D01*
X0019100Y0164100D01*
X0019100Y0165847D01*
X0025564Y0172311D01*
X0026529Y0172711D01*
X0027289Y0173471D01*
X0027700Y0174463D01*
X0027700Y0175537D01*
X0027289Y0176529D01*
X0026529Y0177289D01*
X0025537Y0177700D01*
X0024463Y0177700D01*
X0023471Y0177289D01*
X0022711Y0176529D01*
X0022311Y0175564D01*
X0015847Y0169100D01*
X0014500Y0167753D01*
X0014500Y0164100D01*
X0013944Y0164100D01*
X0013300Y0163456D01*
X0013300Y0137921D01*
X0012800Y0137921D01*
X0012800Y0163456D01*
X0012156Y0164100D01*
X0006900Y0164100D01*
X0006900Y0173504D01*
X0017667Y0184271D01*
X0037288Y0184271D01*
X0035343Y0182326D01*
X0035343Y0179261D01*
X0037510Y0177093D01*
X0040575Y0177093D01*
X0042743Y0179261D01*
X0042743Y0182326D01*
X0040797Y0184271D01*
X0063274Y0184271D01*
X0061293Y0182289D01*
X0061293Y0179224D01*
X0063460Y0177057D01*
X0066525Y0177057D01*
X0068692Y0179224D01*
X0068692Y0182289D01*
X0066711Y0184271D01*
X0142983Y0184271D01*
X0142431Y0183719D01*
X0141700Y0181955D01*
X0141700Y0180045D01*
X0142431Y0178281D01*
X0143781Y0176931D01*
X0144342Y0176698D01*
X0144679Y0166592D01*
X0144535Y0166348D01*
X0144710Y0165670D01*
X0144733Y0164971D01*
X0144940Y0164777D01*
X0145011Y0164503D01*
X0145614Y0164147D01*
X0146124Y0163670D01*
X0146408Y0163679D01*
X0162800Y0154012D01*
X0162800Y0152967D01*
X0164967Y0150800D01*
X0168033Y0150800D01*
X0170200Y0152967D01*
X0170200Y0156033D01*
X0168033Y0158200D01*
X0164967Y0158200D01*
X0164888Y0158121D01*
X0149257Y0167339D01*
X0148941Y0176816D01*
X0149219Y0176931D01*
X0150569Y0178281D01*
X0151300Y0180045D01*
X0151300Y0181955D01*
X0150569Y0183719D01*
X0150017Y0184271D01*
X0152983Y0184271D01*
X0152431Y0183719D01*
X0151700Y0181955D01*
X0151700Y0180045D01*
X0152431Y0178281D01*
X0152240Y0178741D02*
X0150760Y0178741D01*
X0151173Y0179739D02*
X0151827Y0179739D01*
X0151700Y0180738D02*
X0151300Y0180738D01*
X0151300Y0181737D02*
X0151700Y0181737D01*
X0152023Y0182735D02*
X0150977Y0182735D01*
X0150555Y0183734D02*
X0152445Y0183734D01*
X0160555Y0183734D02*
X0162362Y0183734D01*
X0163360Y0182735D02*
X0160977Y0182735D01*
X0161300Y0181737D02*
X0164359Y0181737D01*
X0165357Y0180738D02*
X0161300Y0180738D01*
X0161173Y0179739D02*
X0166356Y0179739D01*
X0167354Y0178741D02*
X0160760Y0178741D01*
X0160031Y0177742D02*
X0168353Y0177742D01*
X0169351Y0176744D02*
X0158768Y0176744D01*
X0162800Y0174033D02*
X0162800Y0170967D01*
X0164967Y0168800D01*
X0168033Y0168800D01*
X0170200Y0170967D01*
X0170200Y0174033D01*
X0168033Y0176200D01*
X0164967Y0176200D01*
X0162800Y0174033D01*
X0162800Y0173748D02*
X0149043Y0173748D01*
X0149076Y0172750D02*
X0162800Y0172750D01*
X0162800Y0171751D02*
X0149110Y0171751D01*
X0149143Y0170753D02*
X0163015Y0170753D01*
X0164013Y0169754D02*
X0149176Y0169754D01*
X0149209Y0168756D02*
X0172591Y0168756D01*
X0172591Y0169754D02*
X0168987Y0169754D01*
X0169985Y0170753D02*
X0172591Y0170753D01*
X0172591Y0171751D02*
X0170200Y0171751D01*
X0170200Y0172750D02*
X0172591Y0172750D01*
X0172347Y0173748D02*
X0170200Y0173748D01*
X0169486Y0174747D02*
X0171348Y0174747D01*
X0170350Y0175745D02*
X0168487Y0175745D01*
X0164513Y0175745D02*
X0148976Y0175745D01*
X0149010Y0174747D02*
X0163514Y0174747D01*
X0164967Y0167200D02*
X0162800Y0165033D01*
X0162800Y0161967D01*
X0164967Y0159800D01*
X0168033Y0159800D01*
X0170200Y0161967D01*
X0170200Y0165033D01*
X0168033Y0167200D01*
X0164967Y0167200D01*
X0164526Y0166759D02*
X0150241Y0166759D01*
X0149243Y0167757D02*
X0172591Y0167757D01*
X0172591Y0166759D02*
X0168474Y0166759D01*
X0169472Y0165760D02*
X0172591Y0165760D01*
X0172591Y0164762D02*
X0170200Y0164762D01*
X0170200Y0163763D02*
X0172591Y0163763D01*
X0172591Y0162765D02*
X0170200Y0162765D01*
X0169999Y0161766D02*
X0172591Y0161766D01*
X0172591Y0160768D02*
X0169000Y0160768D01*
X0168460Y0157772D02*
X0172591Y0157772D01*
X0172591Y0156774D02*
X0169459Y0156774D01*
X0170200Y0155775D02*
X0172591Y0155775D01*
X0172591Y0154777D02*
X0170200Y0154777D01*
X0170200Y0153778D02*
X0172591Y0153778D01*
X0172591Y0152780D02*
X0170012Y0152780D01*
X0169014Y0151781D02*
X0172591Y0151781D01*
X0172591Y0150783D02*
X0147747Y0150783D01*
X0146116Y0151781D02*
X0163986Y0151781D01*
X0162988Y0152780D02*
X0144484Y0152780D01*
X0142852Y0153778D02*
X0162800Y0153778D01*
X0161503Y0154777D02*
X0141221Y0154777D01*
X0140200Y0155775D02*
X0159810Y0155775D01*
X0158117Y0156774D02*
X0139459Y0156774D01*
X0138460Y0157772D02*
X0156424Y0157772D01*
X0154731Y0158771D02*
X0067292Y0158771D01*
X0067292Y0159769D02*
X0153037Y0159769D01*
X0151344Y0160768D02*
X0139000Y0160768D01*
X0138033Y0159800D02*
X0140200Y0161967D01*
X0140200Y0165033D01*
X0138033Y0167200D01*
X0134967Y0167200D01*
X0133567Y0165800D01*
X0128623Y0165800D01*
X0129305Y0166082D01*
X0130449Y0167227D01*
X0131068Y0168722D01*
X0131068Y0176278D01*
X0130449Y0177773D01*
X0129305Y0178918D01*
X0127809Y0179537D01*
X0126191Y0179537D01*
X0124695Y0178918D01*
X0123551Y0177773D01*
X0122931Y0176278D01*
X0122931Y0168722D01*
X0123551Y0167227D01*
X0124695Y0166082D01*
X0125377Y0165800D01*
X0119466Y0165800D01*
X0119911Y0166123D01*
X0120408Y0166620D01*
X0120822Y0167189D01*
X0121141Y0167816D01*
X0121358Y0168485D01*
X0121468Y0169180D01*
X0121468Y0172016D01*
X0117484Y0172016D01*
X0117484Y0172984D01*
X0116516Y0172984D01*
X0116516Y0172016D01*
X0112531Y0172016D01*
X0112531Y0169180D01*
X0112642Y0168485D01*
X0112859Y0167816D01*
X0113178Y0167189D01*
X0113592Y0166620D01*
X0114089Y0166123D01*
X0114534Y0165800D01*
X0108623Y0165800D01*
X0109305Y0166082D01*
X0110449Y0167227D01*
X0111068Y0168722D01*
X0111068Y0176278D01*
X0110449Y0177773D01*
X0109305Y0178918D01*
X0107809Y0179537D01*
X0106191Y0179537D01*
X0104695Y0178918D01*
X0103551Y0177773D01*
X0102931Y0176278D01*
X0102931Y0168722D01*
X0103551Y0167227D01*
X0104695Y0166082D01*
X0105377Y0165800D01*
X0102073Y0165800D01*
X0101001Y0168558D01*
X0101068Y0168722D01*
X0101068Y0176278D01*
X0100449Y0177773D01*
X0099305Y0178918D01*
X0097809Y0179537D01*
X0096191Y0179537D01*
X0094695Y0178918D01*
X0093551Y0177773D01*
X0092931Y0176278D01*
X0092931Y0168722D01*
X0093551Y0167227D01*
X0094695Y0166082D01*
X0096191Y0165463D01*
X0097269Y0165463D01*
X0098200Y0163069D01*
X0098200Y0162547D01*
X0098532Y0162216D01*
X0098702Y0161778D01*
X0099179Y0161569D01*
X0099547Y0161200D01*
X0100016Y0161200D01*
X0100446Y0161011D01*
X0100931Y0161200D01*
X0133567Y0161200D01*
X0134967Y0159800D01*
X0138033Y0159800D01*
X0139999Y0161766D02*
X0149651Y0161766D01*
X0147958Y0162765D02*
X0140200Y0162765D01*
X0140200Y0163763D02*
X0146024Y0163763D01*
X0144944Y0164762D02*
X0140200Y0164762D01*
X0139472Y0165760D02*
X0144686Y0165760D01*
X0144673Y0166759D02*
X0138474Y0166759D01*
X0138033Y0168800D02*
X0140200Y0170967D01*
X0140200Y0174033D01*
X0138033Y0176200D01*
X0134967Y0176200D01*
X0132800Y0174033D01*
X0132800Y0170967D01*
X0134967Y0168800D01*
X0138033Y0168800D01*
X0138987Y0169754D02*
X0144574Y0169754D01*
X0144607Y0168756D02*
X0131068Y0168756D01*
X0131068Y0169754D02*
X0134013Y0169754D01*
X0133015Y0170753D02*
X0131068Y0170753D01*
X0131068Y0171751D02*
X0132800Y0171751D01*
X0132800Y0172750D02*
X0131068Y0172750D01*
X0131068Y0173748D02*
X0132800Y0173748D01*
X0133514Y0174747D02*
X0131068Y0174747D01*
X0131068Y0175745D02*
X0134513Y0175745D01*
X0130875Y0176744D02*
X0144232Y0176744D01*
X0144374Y0175745D02*
X0138487Y0175745D01*
X0139486Y0174747D02*
X0144407Y0174747D01*
X0144440Y0173748D02*
X0140200Y0173748D01*
X0140200Y0172750D02*
X0144474Y0172750D01*
X0144507Y0171751D02*
X0140200Y0171751D01*
X0139985Y0170753D02*
X0144540Y0170753D01*
X0144640Y0167757D02*
X0130669Y0167757D01*
X0129981Y0166759D02*
X0134526Y0166759D01*
X0134000Y0160768D02*
X0067292Y0160768D01*
X0067292Y0161766D02*
X0098729Y0161766D01*
X0098200Y0162765D02*
X0067292Y0162765D01*
X0067292Y0163763D02*
X0097930Y0163763D01*
X0097541Y0164762D02*
X0067292Y0164762D01*
X0067292Y0165760D02*
X0075473Y0165760D01*
X0076191Y0165463D02*
X0077809Y0165463D01*
X0079305Y0166082D01*
X0080449Y0167227D01*
X0081068Y0168722D01*
X0081068Y0176278D01*
X0080449Y0177773D01*
X0079305Y0178918D01*
X0077809Y0179537D01*
X0076191Y0179537D01*
X0074695Y0178918D01*
X0073551Y0177773D01*
X0072931Y0176278D01*
X0072931Y0168722D01*
X0073551Y0167227D01*
X0074695Y0166082D01*
X0076191Y0165463D01*
X0074019Y0166759D02*
X0066494Y0166759D01*
X0065495Y0167757D02*
X0073331Y0167757D01*
X0072931Y0168756D02*
X0064497Y0168756D01*
X0063498Y0169754D02*
X0072931Y0169754D01*
X0072931Y0170753D02*
X0062500Y0170753D01*
X0061501Y0171751D02*
X0072931Y0171751D01*
X0072931Y0172750D02*
X0060503Y0172750D01*
X0059504Y0173748D02*
X0072931Y0173748D01*
X0072931Y0174747D02*
X0058506Y0174747D01*
X0057614Y0175745D02*
X0072931Y0175745D01*
X0073125Y0176744D02*
X0057074Y0176744D01*
X0052926Y0176744D02*
X0027074Y0176744D01*
X0027614Y0175745D02*
X0052386Y0175745D01*
X0052300Y0174747D02*
X0027700Y0174747D01*
X0027404Y0173748D02*
X0052596Y0173748D01*
X0053432Y0172750D02*
X0026568Y0172750D01*
X0025004Y0171751D02*
X0054996Y0171751D01*
X0055994Y0170753D02*
X0024006Y0170753D01*
X0023007Y0169754D02*
X0056993Y0169754D01*
X0057991Y0168756D02*
X0022009Y0168756D01*
X0021010Y0167757D02*
X0058990Y0167757D01*
X0059988Y0166759D02*
X0020012Y0166759D01*
X0019100Y0165760D02*
X0060987Y0165760D01*
X0061985Y0164762D02*
X0019100Y0164762D01*
X0019992Y0163763D02*
X0021108Y0163763D01*
X0020800Y0162765D02*
X0020300Y0162765D01*
X0020300Y0161766D02*
X0020800Y0161766D01*
X0020800Y0160768D02*
X0020300Y0160768D01*
X0020300Y0159769D02*
X0020800Y0159769D01*
X0020800Y0158771D02*
X0020300Y0158771D01*
X0020300Y0157772D02*
X0020800Y0157772D01*
X0020800Y0156774D02*
X0020300Y0156774D01*
X0020300Y0155775D02*
X0020800Y0155775D01*
X0020800Y0154777D02*
X0020300Y0154777D01*
X0020300Y0153778D02*
X0020800Y0153778D01*
X0020800Y0152780D02*
X0020300Y0152780D01*
X0020300Y0151781D02*
X0020800Y0151781D01*
X0020800Y0150783D02*
X0020300Y0150783D01*
X0020300Y0149784D02*
X0020800Y0149784D01*
X0020800Y0148786D02*
X0020300Y0148786D01*
X0020300Y0147787D02*
X0020800Y0147787D01*
X0020800Y0146789D02*
X0020300Y0146789D01*
X0020300Y0145790D02*
X0020800Y0145790D01*
X0020800Y0144792D02*
X0020300Y0144792D01*
X0020300Y0143793D02*
X0020800Y0143793D01*
X0020800Y0142795D02*
X0020300Y0142795D01*
X0020300Y0141796D02*
X0020800Y0141796D01*
X0020800Y0140798D02*
X0020300Y0140798D01*
X0020300Y0139799D02*
X0020800Y0139799D01*
X0020800Y0138801D02*
X0020300Y0138801D01*
X0013300Y0138801D02*
X0012800Y0138801D01*
X0012800Y0139799D02*
X0013300Y0139799D01*
X0013300Y0140798D02*
X0012800Y0140798D01*
X0012800Y0141796D02*
X0013300Y0141796D01*
X0013300Y0142795D02*
X0012800Y0142795D01*
X0012800Y0143793D02*
X0013300Y0143793D01*
X0013300Y0144792D02*
X0012800Y0144792D01*
X0012800Y0145790D02*
X0013300Y0145790D01*
X0013300Y0146789D02*
X0012800Y0146789D01*
X0012800Y0147787D02*
X0013300Y0147787D01*
X0013300Y0148786D02*
X0012800Y0148786D01*
X0012800Y0149784D02*
X0013300Y0149784D01*
X0013300Y0150783D02*
X0012800Y0150783D01*
X0012800Y0151781D02*
X0013300Y0151781D01*
X0013300Y0152780D02*
X0012800Y0152780D01*
X0012800Y0153778D02*
X0013300Y0153778D01*
X0013300Y0154777D02*
X0012800Y0154777D01*
X0012800Y0155775D02*
X0013300Y0155775D01*
X0013300Y0156774D02*
X0012800Y0156774D01*
X0012800Y0157772D02*
X0013300Y0157772D01*
X0013300Y0158771D02*
X0012800Y0158771D01*
X0012800Y0159769D02*
X0013300Y0159769D01*
X0013300Y0160768D02*
X0012800Y0160768D01*
X0012800Y0161766D02*
X0013300Y0161766D01*
X0013300Y0162765D02*
X0012800Y0162765D01*
X0012492Y0163763D02*
X0013608Y0163763D01*
X0014500Y0164762D02*
X0006900Y0164762D01*
X0006900Y0165760D02*
X0014500Y0165760D01*
X0014500Y0166759D02*
X0006900Y0166759D01*
X0006900Y0167757D02*
X0014505Y0167757D01*
X0015503Y0168756D02*
X0006900Y0168756D01*
X0006900Y0169754D02*
X0016502Y0169754D01*
X0017500Y0170753D02*
X0006900Y0170753D01*
X0006900Y0171751D02*
X0018499Y0171751D01*
X0019497Y0172750D02*
X0006900Y0172750D01*
X0007144Y0173748D02*
X0020496Y0173748D01*
X0021494Y0174747D02*
X0008143Y0174747D01*
X0009141Y0175745D02*
X0022386Y0175745D01*
X0022926Y0176744D02*
X0010140Y0176744D01*
X0011138Y0177742D02*
X0036861Y0177742D01*
X0035862Y0178741D02*
X0012137Y0178741D01*
X0013135Y0179739D02*
X0035343Y0179739D01*
X0035343Y0180738D02*
X0014134Y0180738D01*
X0015132Y0181737D02*
X0035343Y0181737D01*
X0035752Y0182735D02*
X0016131Y0182735D01*
X0017129Y0183734D02*
X0036750Y0183734D01*
X0041335Y0183734D02*
X0062737Y0183734D01*
X0061738Y0182735D02*
X0042334Y0182735D01*
X0042743Y0181737D02*
X0061293Y0181737D01*
X0061293Y0180738D02*
X0042743Y0180738D01*
X0042743Y0179739D02*
X0061293Y0179739D01*
X0061776Y0178741D02*
X0042223Y0178741D01*
X0041224Y0177742D02*
X0062774Y0177742D01*
X0067211Y0177742D02*
X0073538Y0177742D01*
X0074519Y0178741D02*
X0068209Y0178741D01*
X0068692Y0179739D02*
X0085684Y0179739D01*
X0085954Y0179827D02*
X0085285Y0179610D01*
X0084658Y0179290D01*
X0084089Y0178877D01*
X0083592Y0178380D01*
X0083178Y0177811D01*
X0082859Y0177184D01*
X0082642Y0176515D01*
X0082531Y0175820D01*
X0082531Y0172984D01*
X0086516Y0172984D01*
X0086516Y0172016D01*
X0087484Y0172016D01*
X0087484Y0165084D01*
X0088046Y0165173D01*
X0088715Y0165390D01*
X0089342Y0165710D01*
X0089911Y0166123D01*
X0090408Y0166620D01*
X0090822Y0167189D01*
X0091141Y0167816D01*
X0091358Y0168485D01*
X0091468Y0169180D01*
X0091468Y0172016D01*
X0087484Y0172016D01*
X0087484Y0172984D01*
X0091468Y0172984D01*
X0091468Y0175820D01*
X0091358Y0176515D01*
X0091141Y0177184D01*
X0090822Y0177811D01*
X0090408Y0178380D01*
X0089911Y0178877D01*
X0089342Y0179290D01*
X0088715Y0179610D01*
X0088046Y0179827D01*
X0087484Y0179916D01*
X0087484Y0172984D01*
X0086516Y0172984D01*
X0086516Y0179916D01*
X0085954Y0179827D01*
X0086516Y0179739D02*
X0087484Y0179739D01*
X0088316Y0179739D02*
X0115684Y0179739D01*
X0115954Y0179827D02*
X0115285Y0179610D01*
X0114658Y0179290D01*
X0114089Y0178877D01*
X0113592Y0178380D01*
X0113178Y0177811D01*
X0112859Y0177184D01*
X0112642Y0176515D01*
X0112531Y0175820D01*
X0112531Y0172984D01*
X0116516Y0172984D01*
X0116516Y0179916D01*
X0115954Y0179827D01*
X0116516Y0179739D02*
X0117484Y0179739D01*
X0117484Y0179916D02*
X0117484Y0172984D01*
X0121468Y0172984D01*
X0121468Y0175820D01*
X0121358Y0176515D01*
X0121141Y0177184D01*
X0120822Y0177811D01*
X0120408Y0178380D01*
X0119911Y0178877D01*
X0119342Y0179290D01*
X0118715Y0179610D01*
X0118046Y0179827D01*
X0117484Y0179916D01*
X0118316Y0179739D02*
X0141827Y0179739D01*
X0141700Y0180738D02*
X0068692Y0180738D01*
X0068692Y0181737D02*
X0141700Y0181737D01*
X0142023Y0182735D02*
X0068247Y0182735D01*
X0067248Y0183734D02*
X0142445Y0183734D01*
X0142240Y0178741D02*
X0129481Y0178741D01*
X0130462Y0177742D02*
X0142969Y0177742D01*
X0148943Y0176744D02*
X0154232Y0176744D01*
X0152969Y0177742D02*
X0150031Y0177742D01*
X0151934Y0165760D02*
X0163528Y0165760D01*
X0162800Y0164762D02*
X0153627Y0164762D01*
X0155320Y0163763D02*
X0162800Y0163763D01*
X0162800Y0162765D02*
X0157013Y0162765D01*
X0158707Y0161766D02*
X0163001Y0161766D01*
X0164000Y0160768D02*
X0160400Y0160768D01*
X0162093Y0159769D02*
X0172591Y0159769D01*
X0172591Y0158771D02*
X0163786Y0158771D01*
X0172591Y0149784D02*
X0149379Y0149784D01*
X0151011Y0148786D02*
X0172591Y0148786D01*
X0172591Y0147787D02*
X0152643Y0147787D01*
X0154274Y0146789D02*
X0172591Y0146789D01*
X0172591Y0145790D02*
X0155906Y0145790D01*
X0157538Y0144792D02*
X0172591Y0144792D01*
X0172591Y0143793D02*
X0159169Y0143793D01*
X0160801Y0142795D02*
X0172591Y0142795D01*
X0172591Y0141796D02*
X0162433Y0141796D01*
X0164065Y0140798D02*
X0172591Y0140798D01*
X0172591Y0139799D02*
X0165696Y0139799D01*
X0167328Y0138801D02*
X0172591Y0138801D01*
X0172591Y0137802D02*
X0168960Y0137802D01*
X0170591Y0136803D02*
X0172591Y0136803D01*
X0172591Y0135805D02*
X0172026Y0135805D01*
X0172588Y0134806D02*
X0172591Y0134806D01*
X0167300Y0131811D02*
X0106582Y0131811D01*
X0105548Y0132809D02*
X0166773Y0132809D01*
X0165141Y0133808D02*
X0104514Y0133808D01*
X0103480Y0134806D02*
X0163509Y0134806D01*
X0161878Y0135805D02*
X0102447Y0135805D01*
X0101413Y0136803D02*
X0160246Y0136803D01*
X0158614Y0137802D02*
X0100379Y0137802D01*
X0099345Y0138801D02*
X0105967Y0138801D01*
X0105967Y0138800D02*
X0109033Y0138800D01*
X0109633Y0139400D01*
X0117367Y0139400D01*
X0117967Y0138800D01*
X0121033Y0138800D01*
X0123200Y0140967D01*
X0123200Y0144033D01*
X0121033Y0146200D01*
X0117967Y0146200D01*
X0117367Y0145600D01*
X0109633Y0145600D01*
X0109033Y0146200D01*
X0105967Y0146200D01*
X0103800Y0144033D01*
X0103800Y0140967D01*
X0105967Y0138800D01*
X0104968Y0139799D02*
X0098311Y0139799D01*
X0097277Y0140798D02*
X0103970Y0140798D01*
X0103800Y0141796D02*
X0096243Y0141796D01*
X0095209Y0142795D02*
X0103800Y0142795D01*
X0103800Y0143793D02*
X0102091Y0143793D01*
X0101698Y0143400D02*
X0104100Y0145802D01*
X0104100Y0147200D01*
X0100300Y0147200D01*
X0100300Y0147800D01*
X0099700Y0147800D01*
X0099700Y0151600D01*
X0098302Y0151600D01*
X0095900Y0149198D01*
X0095900Y0147800D01*
X0099700Y0147800D01*
X0099700Y0147200D01*
X0095900Y0147200D01*
X0095900Y0145802D01*
X0098302Y0143400D01*
X0099700Y0143400D01*
X0099700Y0147200D01*
X0100300Y0147200D01*
X0100300Y0143400D01*
X0101698Y0143400D01*
X0100300Y0143793D02*
X0099700Y0143793D01*
X0099700Y0144792D02*
X0100300Y0144792D01*
X0100300Y0145790D02*
X0099700Y0145790D01*
X0099700Y0146789D02*
X0100300Y0146789D01*
X0100300Y0147787D02*
X0142297Y0147787D01*
X0141198Y0146600D02*
X0139800Y0146600D01*
X0139800Y0142800D01*
X0143600Y0142800D01*
X0143600Y0144198D01*
X0141198Y0146600D01*
X0142008Y0145790D02*
X0145560Y0145790D01*
X0143929Y0146789D02*
X0104100Y0146789D01*
X0104088Y0145790D02*
X0105558Y0145790D01*
X0104559Y0144792D02*
X0103090Y0144792D01*
X0104100Y0147800D02*
X0100300Y0147800D01*
X0100300Y0151600D01*
X0101698Y0151600D01*
X0104100Y0149198D01*
X0104100Y0147800D01*
X0104100Y0148786D02*
X0140665Y0148786D01*
X0139034Y0149784D02*
X0110017Y0149784D01*
X0109033Y0148800D02*
X0105967Y0148800D01*
X0103800Y0150967D01*
X0103800Y0154033D01*
X0105967Y0156200D01*
X0109033Y0156200D01*
X0111200Y0154033D01*
X0111200Y0150967D01*
X0109033Y0148800D01*
X0111015Y0150783D02*
X0137402Y0150783D01*
X0133986Y0151781D02*
X0111200Y0151781D01*
X0111200Y0152780D02*
X0132988Y0152780D01*
X0132800Y0153778D02*
X0111200Y0153778D01*
X0110456Y0154777D02*
X0132800Y0154777D01*
X0132800Y0155775D02*
X0109457Y0155775D01*
X0105543Y0155775D02*
X0083742Y0155775D01*
X0083742Y0154777D02*
X0104544Y0154777D01*
X0103800Y0153778D02*
X0083837Y0153778D01*
X0084871Y0152780D02*
X0103800Y0152780D01*
X0103800Y0151781D02*
X0085905Y0151781D01*
X0086939Y0150783D02*
X0097484Y0150783D01*
X0096486Y0149784D02*
X0087972Y0149784D01*
X0089006Y0148786D02*
X0095900Y0148786D01*
X0095900Y0146789D02*
X0091074Y0146789D01*
X0090040Y0147787D02*
X0099700Y0147787D01*
X0099700Y0148786D02*
X0100300Y0148786D01*
X0100300Y0149784D02*
X0099700Y0149784D01*
X0099700Y0150783D02*
X0100300Y0150783D01*
X0102516Y0150783D02*
X0103985Y0150783D01*
X0103514Y0149784D02*
X0104983Y0149784D01*
X0109442Y0145790D02*
X0117558Y0145790D01*
X0121442Y0145790D02*
X0136992Y0145790D01*
X0137802Y0146600D02*
X0135400Y0144198D01*
X0135400Y0142800D01*
X0139200Y0142800D01*
X0139200Y0146600D01*
X0137802Y0146600D01*
X0139200Y0145790D02*
X0139800Y0145790D01*
X0139800Y0144792D02*
X0139200Y0144792D01*
X0139200Y0143793D02*
X0139800Y0143793D01*
X0139800Y0142800D02*
X0139200Y0142800D01*
X0139200Y0142200D01*
X0139800Y0142200D01*
X0139800Y0142800D01*
X0139800Y0142795D02*
X0150456Y0142795D01*
X0152087Y0141796D02*
X0143600Y0141796D01*
X0143600Y0142200D02*
X0143600Y0140802D01*
X0141198Y0138400D01*
X0139800Y0138400D01*
X0139800Y0142200D01*
X0143600Y0142200D01*
X0143596Y0140798D02*
X0153719Y0140798D01*
X0155351Y0139799D02*
X0142597Y0139799D01*
X0141599Y0138801D02*
X0156982Y0138801D01*
X0157963Y0131200D02*
X0157109Y0130846D01*
X0143983Y0131269D01*
X0143953Y0131300D01*
X0143037Y0131300D01*
X0142122Y0131330D01*
X0142090Y0131300D01*
X0142047Y0131300D01*
X0141400Y0130653D01*
X0140732Y0130026D01*
X0140731Y0129983D01*
X0130700Y0119953D01*
X0130700Y0054547D01*
X0132047Y0053200D01*
X0153497Y0053200D01*
X0154463Y0052800D01*
X0155537Y0052800D01*
X0156529Y0053211D01*
X0157289Y0053971D01*
X0157700Y0054963D01*
X0157700Y0056037D01*
X0157289Y0057029D01*
X0156529Y0057789D01*
X0155537Y0058200D01*
X0154463Y0058200D01*
X0153497Y0057800D01*
X0135300Y0057800D01*
X0135300Y0063367D01*
X0135404Y0063263D01*
X0136764Y0062700D01*
X0138236Y0062700D01*
X0139596Y0063263D01*
X0140637Y0064304D01*
X0141200Y0065664D01*
X0141200Y0072336D01*
X0140637Y0073696D01*
X0139596Y0074737D01*
X0138236Y0075300D01*
X0136764Y0075300D01*
X0135404Y0074737D01*
X0135300Y0074633D01*
X0135300Y0092367D01*
X0135404Y0092263D01*
X0136764Y0091700D01*
X0138236Y0091700D01*
X0139596Y0092263D01*
X0140637Y0093304D01*
X0141166Y0094582D01*
X0142047Y0093700D01*
X0142047Y0093700D01*
X0151311Y0084436D01*
X0151711Y0083471D01*
X0152471Y0082711D01*
X0153463Y0082300D01*
X0154537Y0082300D01*
X0155529Y0082711D01*
X0156289Y0083471D01*
X0156700Y0084463D01*
X0156700Y0085537D01*
X0156289Y0086529D01*
X0155529Y0087289D01*
X0154564Y0087689D01*
X0145300Y0096953D01*
X0145300Y0108700D01*
X0154997Y0108700D01*
X0155963Y0108300D01*
X0157037Y0108300D01*
X0158029Y0108711D01*
X0158789Y0109471D01*
X0159200Y0110463D01*
X0159200Y0111537D01*
X0158789Y0112529D01*
X0158029Y0113289D01*
X0157037Y0113700D01*
X0155963Y0113700D01*
X0154997Y0113300D01*
X0143047Y0113300D01*
X0141700Y0111953D01*
X0140700Y0110953D01*
X0140700Y0102543D01*
X0140637Y0102696D01*
X0139596Y0103737D01*
X0138236Y0104300D01*
X0136764Y0104300D01*
X0135404Y0103737D01*
X0135300Y0103633D01*
X0135300Y0118047D01*
X0143922Y0126669D01*
X0156932Y0126249D01*
X0156971Y0126211D01*
X0157963Y0125800D01*
X0159037Y0125800D01*
X0160029Y0126211D01*
X0160789Y0126971D01*
X0161200Y0127963D01*
X0161200Y0129037D01*
X0160789Y0130029D01*
X0160029Y0130789D01*
X0159037Y0131200D01*
X0157963Y0131200D01*
X0159973Y0130812D02*
X0167080Y0130812D01*
X0166300Y0129814D02*
X0160878Y0129814D01*
X0161200Y0128815D02*
X0166300Y0128815D01*
X0165499Y0127817D02*
X0161139Y0127817D01*
X0160637Y0126818D02*
X0164500Y0126818D01*
X0163502Y0125820D02*
X0159085Y0125820D01*
X0157915Y0125820D02*
X0143073Y0125820D01*
X0142074Y0124821D02*
X0162625Y0124821D01*
X0162300Y0123823D02*
X0141076Y0123823D01*
X0140077Y0122824D02*
X0162300Y0122824D01*
X0162300Y0121826D02*
X0139079Y0121826D01*
X0138080Y0120827D02*
X0162300Y0120827D01*
X0162300Y0119829D02*
X0137081Y0119829D01*
X0136083Y0118830D02*
X0162300Y0118830D01*
X0162300Y0117832D02*
X0135300Y0117832D01*
X0135300Y0116833D02*
X0162300Y0116833D01*
X0162300Y0115835D02*
X0135300Y0115835D01*
X0135300Y0114836D02*
X0162300Y0114836D01*
X0162300Y0113838D02*
X0135300Y0113838D01*
X0135300Y0112839D02*
X0142587Y0112839D01*
X0141588Y0111841D02*
X0135300Y0111841D01*
X0135300Y0110842D02*
X0140700Y0110842D01*
X0140700Y0109844D02*
X0135300Y0109844D01*
X0135300Y0108845D02*
X0140700Y0108845D01*
X0140700Y0107847D02*
X0135300Y0107847D01*
X0135300Y0106848D02*
X0140700Y0106848D01*
X0140700Y0105850D02*
X0135300Y0105850D01*
X0135300Y0104851D02*
X0140700Y0104851D01*
X0140700Y0103853D02*
X0139316Y0103853D01*
X0140478Y0102854D02*
X0140700Y0102854D01*
X0145300Y0102854D02*
X0145300Y0102854D01*
X0145300Y0103033D02*
X0145300Y0099967D01*
X0147467Y0097800D01*
X0150533Y0097800D01*
X0152700Y0099967D01*
X0152700Y0103033D01*
X0150533Y0105200D01*
X0147467Y0105200D01*
X0145300Y0103033D01*
X0145300Y0103853D02*
X0146120Y0103853D01*
X0145300Y0104851D02*
X0147119Y0104851D01*
X0145300Y0105850D02*
X0162300Y0105850D01*
X0162300Y0106848D02*
X0145300Y0106848D01*
X0145300Y0107847D02*
X0162300Y0107847D01*
X0162300Y0108845D02*
X0158164Y0108845D01*
X0158943Y0109844D02*
X0162300Y0109844D01*
X0162300Y0110842D02*
X0159200Y0110842D01*
X0159074Y0111841D02*
X0162300Y0111841D01*
X0162300Y0112839D02*
X0158479Y0112839D01*
X0158700Y0104851D02*
X0159300Y0104851D01*
X0159300Y0103853D02*
X0158700Y0103853D01*
X0158700Y0102854D02*
X0159300Y0102854D01*
X0159300Y0101856D02*
X0158700Y0101856D01*
X0158700Y0101200D02*
X0154900Y0101200D01*
X0154900Y0099802D01*
X0157302Y0097400D01*
X0158700Y0097400D01*
X0158700Y0101200D01*
X0158700Y0100857D02*
X0159300Y0100857D01*
X0159300Y0099859D02*
X0158700Y0099859D01*
X0158700Y0098860D02*
X0159300Y0098860D01*
X0159300Y0097862D02*
X0158700Y0097862D01*
X0156840Y0097862D02*
X0150594Y0097862D01*
X0151593Y0098860D02*
X0155842Y0098860D01*
X0155533Y0097700D02*
X0152467Y0097700D01*
X0150300Y0095533D01*
X0150300Y0092467D01*
X0152467Y0090300D01*
X0155533Y0090300D01*
X0157700Y0092467D01*
X0157700Y0095533D01*
X0155533Y0097700D01*
X0156370Y0096863D02*
X0162300Y0096863D01*
X0162300Y0095865D02*
X0157368Y0095865D01*
X0157700Y0094866D02*
X0162300Y0094866D01*
X0162547Y0093868D02*
X0157700Y0093868D01*
X0157700Y0092869D02*
X0163313Y0092869D01*
X0164311Y0091870D02*
X0157103Y0091870D01*
X0156105Y0090872D02*
X0165310Y0090872D01*
X0166055Y0089873D02*
X0152379Y0089873D01*
X0151895Y0090872D02*
X0151381Y0090872D01*
X0150897Y0091870D02*
X0150382Y0091870D01*
X0150300Y0092869D02*
X0149384Y0092869D01*
X0150300Y0093868D02*
X0148385Y0093868D01*
X0147387Y0094866D02*
X0150300Y0094866D01*
X0150632Y0095865D02*
X0146388Y0095865D01*
X0145390Y0096863D02*
X0151630Y0096863D01*
X0152591Y0099859D02*
X0154900Y0099859D01*
X0154900Y0100857D02*
X0152700Y0100857D01*
X0152700Y0101856D02*
X0154900Y0101856D01*
X0154900Y0102854D02*
X0152700Y0102854D01*
X0151880Y0103853D02*
X0155554Y0103853D01*
X0156553Y0104851D02*
X0150881Y0104851D01*
X0145300Y0101856D02*
X0145300Y0101856D01*
X0145300Y0100857D02*
X0145300Y0100857D01*
X0145300Y0099859D02*
X0145409Y0099859D01*
X0145300Y0098860D02*
X0146407Y0098860D01*
X0147406Y0097862D02*
X0145300Y0097862D01*
X0141880Y0093868D02*
X0140870Y0093868D01*
X0140202Y0092869D02*
X0142878Y0092869D01*
X0143877Y0091870D02*
X0138648Y0091870D01*
X0136352Y0091870D02*
X0135300Y0091870D01*
X0135300Y0090872D02*
X0144875Y0090872D01*
X0145874Y0089873D02*
X0135300Y0089873D01*
X0135300Y0088875D02*
X0146872Y0088875D01*
X0147871Y0087876D02*
X0135300Y0087876D01*
X0135300Y0086878D02*
X0148869Y0086878D01*
X0149868Y0085879D02*
X0135300Y0085879D01*
X0135300Y0084881D02*
X0150866Y0084881D01*
X0151540Y0083882D02*
X0135300Y0083882D01*
X0135300Y0082884D02*
X0152298Y0082884D01*
X0155702Y0082884D02*
X0162300Y0082884D01*
X0162300Y0083882D02*
X0156460Y0083882D01*
X0156700Y0084881D02*
X0162300Y0084881D01*
X0162442Y0085879D02*
X0156558Y0085879D01*
X0155940Y0086878D02*
X0163060Y0086878D01*
X0164058Y0087876D02*
X0154376Y0087876D01*
X0153378Y0088875D02*
X0165057Y0088875D01*
X0168699Y0084881D02*
X0172591Y0084881D01*
X0172591Y0085879D02*
X0169698Y0085879D01*
X0170118Y0086300D02*
X0167700Y0083882D01*
X0167700Y0062933D01*
X0168467Y0063700D01*
X0171533Y0063700D01*
X0172591Y0062641D01*
X0172591Y0087359D01*
X0171533Y0086300D01*
X0170118Y0086300D01*
X0172110Y0086878D02*
X0172591Y0086878D01*
X0172591Y0083882D02*
X0167701Y0083882D01*
X0167700Y0082884D02*
X0172591Y0082884D01*
X0172591Y0081885D02*
X0167700Y0081885D01*
X0167700Y0080887D02*
X0172591Y0080887D01*
X0172591Y0079888D02*
X0167700Y0079888D01*
X0167700Y0078890D02*
X0172591Y0078890D01*
X0172591Y0077891D02*
X0167700Y0077891D01*
X0167700Y0076893D02*
X0172591Y0076893D01*
X0172591Y0075894D02*
X0167700Y0075894D01*
X0167700Y0074896D02*
X0172591Y0074896D01*
X0172591Y0073897D02*
X0167700Y0073897D01*
X0167700Y0072899D02*
X0172591Y0072899D01*
X0172591Y0071900D02*
X0167700Y0071900D01*
X0167700Y0070902D02*
X0172591Y0070902D01*
X0172591Y0069903D02*
X0167700Y0069903D01*
X0167700Y0068905D02*
X0172591Y0068905D01*
X0172591Y0067906D02*
X0167700Y0067906D01*
X0167700Y0066908D02*
X0172591Y0066908D01*
X0172591Y0065909D02*
X0167700Y0065909D01*
X0167700Y0064911D02*
X0172591Y0064911D01*
X0172591Y0063912D02*
X0167700Y0063912D01*
X0172319Y0062914D02*
X0172591Y0062914D01*
X0162300Y0062914D02*
X0138752Y0062914D01*
X0140245Y0063912D02*
X0162300Y0063912D01*
X0162300Y0064911D02*
X0156143Y0064911D01*
X0155533Y0064300D02*
X0152467Y0064300D01*
X0150300Y0066467D01*
X0150300Y0069533D01*
X0152467Y0071700D01*
X0155533Y0071700D01*
X0157700Y0069533D01*
X0157700Y0066467D01*
X0155533Y0064300D01*
X0157142Y0065909D02*
X0162300Y0065909D01*
X0162300Y0066908D02*
X0157700Y0066908D01*
X0157700Y0067906D02*
X0162300Y0067906D01*
X0162300Y0068905D02*
X0157700Y0068905D01*
X0157329Y0069903D02*
X0162300Y0069903D01*
X0162300Y0070902D02*
X0156331Y0070902D01*
X0157302Y0071400D02*
X0154900Y0073802D01*
X0154900Y0075200D01*
X0158700Y0075200D01*
X0158700Y0071400D01*
X0157302Y0071400D01*
X0156801Y0071900D02*
X0150633Y0071900D01*
X0150533Y0071800D02*
X0152700Y0073967D01*
X0152700Y0077033D01*
X0150533Y0079200D01*
X0147467Y0079200D01*
X0145300Y0077033D01*
X0145300Y0073967D01*
X0147467Y0071800D01*
X0150533Y0071800D01*
X0151669Y0070902D02*
X0141200Y0070902D01*
X0141200Y0071900D02*
X0147367Y0071900D01*
X0146369Y0072899D02*
X0140967Y0072899D01*
X0140435Y0073897D02*
X0145370Y0073897D01*
X0145300Y0074896D02*
X0139212Y0074896D01*
X0135788Y0074896D02*
X0135300Y0074896D01*
X0135300Y0075894D02*
X0145300Y0075894D01*
X0145300Y0076893D02*
X0135300Y0076893D01*
X0135300Y0077891D02*
X0146159Y0077891D01*
X0147157Y0078890D02*
X0135300Y0078890D01*
X0135300Y0079888D02*
X0162300Y0079888D01*
X0162300Y0078890D02*
X0161408Y0078890D01*
X0159300Y0078890D02*
X0158700Y0078890D01*
X0158700Y0077891D02*
X0159300Y0077891D01*
X0159300Y0076893D02*
X0158700Y0076893D01*
X0158700Y0075894D02*
X0159300Y0075894D01*
X0159300Y0074896D02*
X0158700Y0074896D01*
X0158700Y0073897D02*
X0159300Y0073897D01*
X0159300Y0072899D02*
X0158700Y0072899D01*
X0158700Y0071900D02*
X0159300Y0071900D01*
X0161199Y0071900D02*
X0162300Y0071900D01*
X0162300Y0072899D02*
X0162197Y0072899D01*
X0155803Y0072899D02*
X0151631Y0072899D01*
X0152630Y0073897D02*
X0154900Y0073897D01*
X0154900Y0074896D02*
X0152700Y0074896D01*
X0152700Y0075894D02*
X0154900Y0075894D01*
X0154900Y0076893D02*
X0152700Y0076893D01*
X0151841Y0077891D02*
X0155593Y0077891D01*
X0156592Y0078890D02*
X0150843Y0078890D01*
X0150671Y0069903D02*
X0141200Y0069903D01*
X0141200Y0068905D02*
X0150300Y0068905D01*
X0150300Y0067906D02*
X0141200Y0067906D01*
X0141200Y0066908D02*
X0150300Y0066908D01*
X0150858Y0065909D02*
X0141200Y0065909D01*
X0140888Y0064911D02*
X0151857Y0064911D01*
X0153790Y0057921D02*
X0135300Y0057921D01*
X0135300Y0058920D02*
X0162300Y0058920D01*
X0162300Y0059918D02*
X0135300Y0059918D01*
X0135300Y0060917D02*
X0162300Y0060917D01*
X0162300Y0061915D02*
X0135300Y0061915D01*
X0135300Y0062914D02*
X0136248Y0062914D01*
X0130700Y0062914D02*
X0130300Y0062914D01*
X0130300Y0063912D02*
X0130700Y0063912D01*
X0130700Y0064911D02*
X0130300Y0064911D01*
X0130300Y0065909D02*
X0130700Y0065909D01*
X0130700Y0066908D02*
X0130300Y0066908D01*
X0130300Y0067906D02*
X0130700Y0067906D01*
X0130700Y0068905D02*
X0130300Y0068905D01*
X0130300Y0069903D02*
X0130700Y0069903D01*
X0130700Y0070902D02*
X0130300Y0070902D01*
X0130300Y0071900D02*
X0130700Y0071900D01*
X0130700Y0072899D02*
X0130300Y0072899D01*
X0130300Y0073897D02*
X0130700Y0073897D01*
X0130700Y0074896D02*
X0130300Y0074896D01*
X0130300Y0075894D02*
X0130700Y0075894D01*
X0130700Y0076893D02*
X0130300Y0076893D01*
X0130300Y0077891D02*
X0130700Y0077891D01*
X0130700Y0078890D02*
X0130300Y0078890D01*
X0130300Y0079888D02*
X0130700Y0079888D01*
X0130700Y0080887D02*
X0130300Y0080887D01*
X0130300Y0081885D02*
X0130700Y0081885D01*
X0130700Y0082884D02*
X0130300Y0082884D01*
X0130300Y0083882D02*
X0130700Y0083882D01*
X0130700Y0084881D02*
X0130300Y0084881D01*
X0130300Y0085879D02*
X0130700Y0085879D01*
X0130665Y0086878D02*
X0130700Y0086878D01*
X0130700Y0087876D02*
X0130700Y0087876D01*
X0130700Y0088875D02*
X0130353Y0088875D01*
X0130700Y0089873D02*
X0129325Y0089873D01*
X0130700Y0090872D02*
X0113800Y0090872D01*
X0113790Y0091870D02*
X0121352Y0091870D01*
X0121764Y0091700D02*
X0123236Y0091700D01*
X0124596Y0092263D01*
X0125637Y0093304D01*
X0126200Y0094664D01*
X0126200Y0101336D01*
X0125637Y0102696D01*
X0124596Y0103737D01*
X0123236Y0104300D01*
X0121764Y0104300D01*
X0120404Y0103737D01*
X0119363Y0102696D01*
X0118800Y0101336D01*
X0118800Y0094664D01*
X0119363Y0093304D01*
X0120404Y0092263D01*
X0121764Y0091700D01*
X0123648Y0091870D02*
X0130700Y0091870D01*
X0130700Y0092869D02*
X0125202Y0092869D01*
X0125870Y0093868D02*
X0130700Y0093868D01*
X0130700Y0094866D02*
X0126200Y0094866D01*
X0126200Y0095865D02*
X0130700Y0095865D01*
X0130700Y0096863D02*
X0126200Y0096863D01*
X0126200Y0097862D02*
X0130700Y0097862D01*
X0130700Y0098860D02*
X0126200Y0098860D01*
X0126200Y0099859D02*
X0130700Y0099859D01*
X0130700Y0100857D02*
X0126200Y0100857D01*
X0125985Y0101856D02*
X0130700Y0101856D01*
X0130700Y0102854D02*
X0125478Y0102854D01*
X0124316Y0103853D02*
X0130700Y0103853D01*
X0130700Y0104851D02*
X0113662Y0104851D01*
X0113672Y0103853D02*
X0120684Y0103853D01*
X0119522Y0102854D02*
X0113682Y0102854D01*
X0113692Y0101856D02*
X0119015Y0101856D01*
X0118800Y0100857D02*
X0113702Y0100857D01*
X0113711Y0099859D02*
X0118800Y0099859D01*
X0118800Y0098860D02*
X0113721Y0098860D01*
X0113731Y0097862D02*
X0118800Y0097862D01*
X0118800Y0096863D02*
X0113741Y0096863D01*
X0113751Y0095865D02*
X0118800Y0095865D01*
X0118800Y0094866D02*
X0113761Y0094866D01*
X0113771Y0093868D02*
X0119130Y0093868D01*
X0119798Y0092869D02*
X0113780Y0092869D01*
X0113810Y0089873D02*
X0126675Y0089873D01*
X0125647Y0088875D02*
X0124114Y0088875D01*
X0125700Y0083367D02*
X0125700Y0073543D01*
X0125637Y0073696D01*
X0124596Y0074737D01*
X0123236Y0075300D01*
X0121764Y0075300D01*
X0120404Y0074737D01*
X0119363Y0073696D01*
X0118800Y0072336D01*
X0118800Y0065664D01*
X0119363Y0064304D01*
X0120404Y0063263D01*
X0121764Y0062700D01*
X0123236Y0062700D01*
X0124596Y0063263D01*
X0125637Y0064304D01*
X0125700Y0064457D01*
X0125700Y0056996D01*
X0124692Y0058004D01*
X0123333Y0058567D01*
X0116661Y0058567D01*
X0115301Y0058004D01*
X0114260Y0056963D01*
X0113697Y0055603D01*
X0113697Y0054131D01*
X0114260Y0052771D01*
X0115301Y0051730D01*
X0116661Y0051167D01*
X0123333Y0051167D01*
X0124692Y0051730D01*
X0125700Y0052738D01*
X0125700Y0027011D01*
X0124699Y0028012D01*
X0123339Y0028575D01*
X0116667Y0028575D01*
X0115307Y0028012D01*
X0114266Y0026971D01*
X0113703Y0025611D01*
X0113703Y0024139D01*
X0114266Y0022779D01*
X0115307Y0021739D01*
X0116667Y0021175D01*
X0123339Y0021175D01*
X0124699Y0021739D01*
X0125700Y0022740D01*
X0125700Y0018953D01*
X0117547Y0010800D01*
X0019953Y0010800D01*
X0011600Y0019153D01*
X0011600Y0026900D01*
X0012156Y0026900D01*
X0012800Y0027544D01*
X0012800Y0053200D01*
X0013300Y0053200D01*
X0013300Y0027544D01*
X0013944Y0026900D01*
X0019656Y0026900D01*
X0020300Y0027544D01*
X0020300Y0053200D01*
X0020800Y0053200D01*
X0020800Y0027544D01*
X0021444Y0026900D01*
X0027156Y0026900D01*
X0027800Y0027544D01*
X0027800Y0053200D01*
X0031798Y0053200D01*
X0043300Y0040410D01*
X0043300Y0040354D01*
X0043794Y0039861D01*
X0044260Y0039342D01*
X0044315Y0039339D01*
X0044354Y0039300D01*
X0045052Y0039300D01*
X0045749Y0039263D01*
X0045790Y0039300D01*
X0058393Y0039300D01*
X0058422Y0039274D01*
X0059133Y0039300D01*
X0059846Y0039300D01*
X0059873Y0039327D01*
X0059912Y0039329D01*
X0060396Y0039851D01*
X0060900Y0040354D01*
X0060900Y0040393D01*
X0073396Y0053851D01*
X0073697Y0054151D01*
X0073697Y0054131D01*
X0074260Y0052771D01*
X0075301Y0051730D01*
X0076397Y0051276D01*
X0076397Y0050898D01*
X0076327Y0050583D01*
X0076397Y0050188D01*
X0076397Y0049787D01*
X0076520Y0049490D01*
X0076576Y0049173D01*
X0076791Y0048835D01*
X0076945Y0048464D01*
X0077172Y0048237D01*
X0077345Y0047965D01*
X0077674Y0047735D01*
X0077957Y0047451D01*
X0078255Y0047328D01*
X0079421Y0046512D01*
X0076951Y0044042D01*
X0076403Y0042719D01*
X0076403Y0028466D01*
X0075307Y0028012D01*
X0074266Y0026971D01*
X0073703Y0025611D01*
X0073703Y0024139D01*
X0074266Y0022779D01*
X0075307Y0021739D01*
X0076667Y0021175D01*
X0083339Y0021175D01*
X0084699Y0021739D01*
X0085740Y0022779D01*
X0086303Y0024139D01*
X0086303Y0025611D01*
X0085740Y0026971D01*
X0084699Y0028012D01*
X0083603Y0028466D01*
X0083603Y0040512D01*
X0087143Y0044052D01*
X0111009Y0056229D01*
X0111539Y0056448D01*
X0111643Y0056552D01*
X0111774Y0056619D01*
X0112146Y0057055D01*
X0112552Y0057461D01*
X0112569Y0057468D01*
X0113058Y0057967D01*
X0113552Y0058461D01*
X0113559Y0058478D01*
X0113572Y0058491D01*
X0113833Y0059139D01*
X0114100Y0059784D01*
X0114100Y0059802D01*
X0114107Y0059819D01*
X0114100Y0060518D01*
X0114100Y0061216D01*
X0114093Y0061233D01*
X0113865Y0084361D01*
X0114261Y0083402D01*
X0115302Y0082361D01*
X0116662Y0081798D01*
X0123334Y0081798D01*
X0124694Y0082361D01*
X0125700Y0083367D01*
X0125700Y0082884D02*
X0125217Y0082884D01*
X0125700Y0081885D02*
X0123545Y0081885D01*
X0125700Y0080887D02*
X0113899Y0080887D01*
X0113889Y0081885D02*
X0116452Y0081885D01*
X0114780Y0082884D02*
X0113879Y0082884D01*
X0113869Y0083882D02*
X0114063Y0083882D01*
X0113965Y0086878D02*
X0113840Y0086878D01*
X0113830Y0087876D02*
X0114544Y0087876D01*
X0113820Y0088875D02*
X0115882Y0088875D01*
X0113909Y0079888D02*
X0125700Y0079888D01*
X0125700Y0078890D02*
X0113919Y0078890D01*
X0113928Y0077891D02*
X0125700Y0077891D01*
X0125700Y0076893D02*
X0113938Y0076893D01*
X0113948Y0075894D02*
X0125700Y0075894D01*
X0125700Y0074896D02*
X0124212Y0074896D01*
X0125435Y0073897D02*
X0125700Y0073897D01*
X0120788Y0074896D02*
X0113958Y0074896D01*
X0113968Y0073897D02*
X0119565Y0073897D01*
X0119033Y0072899D02*
X0113978Y0072899D01*
X0113988Y0071900D02*
X0118800Y0071900D01*
X0118800Y0070902D02*
X0113997Y0070902D01*
X0114007Y0069903D02*
X0118800Y0069903D01*
X0118800Y0068905D02*
X0114017Y0068905D01*
X0114027Y0067906D02*
X0118800Y0067906D01*
X0118800Y0066908D02*
X0114037Y0066908D01*
X0114047Y0065909D02*
X0118800Y0065909D01*
X0119112Y0064911D02*
X0114057Y0064911D01*
X0114066Y0063912D02*
X0119755Y0063912D01*
X0121248Y0062914D02*
X0114076Y0062914D01*
X0114086Y0061915D02*
X0125700Y0061915D01*
X0125700Y0060917D02*
X0114100Y0060917D01*
X0114106Y0059918D02*
X0125700Y0059918D01*
X0125700Y0058920D02*
X0113745Y0058920D01*
X0113013Y0057921D02*
X0115218Y0057921D01*
X0114243Y0056923D02*
X0112033Y0056923D01*
X0110412Y0055924D02*
X0113830Y0055924D01*
X0113697Y0054926D02*
X0108455Y0054926D01*
X0106498Y0053927D02*
X0113781Y0053927D01*
X0114195Y0052929D02*
X0104541Y0052929D01*
X0102584Y0051930D02*
X0115101Y0051930D01*
X0124892Y0051930D02*
X0125700Y0051930D01*
X0125700Y0050932D02*
X0100627Y0050932D01*
X0098670Y0049933D02*
X0125700Y0049933D01*
X0125700Y0048934D02*
X0096713Y0048934D01*
X0094756Y0047936D02*
X0125700Y0047936D01*
X0125700Y0046937D02*
X0092799Y0046937D01*
X0090842Y0045939D02*
X0125700Y0045939D01*
X0125700Y0044940D02*
X0088885Y0044940D01*
X0087033Y0043942D02*
X0125700Y0043942D01*
X0125700Y0042943D02*
X0124389Y0042943D01*
X0124096Y0043237D02*
X0122736Y0043800D01*
X0121264Y0043800D01*
X0119904Y0043237D01*
X0118863Y0042196D01*
X0118300Y0040836D01*
X0118300Y0034164D01*
X0118863Y0032804D01*
X0119904Y0031763D01*
X0121264Y0031200D01*
X0122736Y0031200D01*
X0124096Y0031763D01*
X0125137Y0032804D01*
X0125700Y0034164D01*
X0125700Y0040836D01*
X0125137Y0042196D01*
X0124096Y0043237D01*
X0125241Y0041945D02*
X0125700Y0041945D01*
X0125700Y0040946D02*
X0125654Y0040946D01*
X0125700Y0039948D02*
X0125700Y0039948D01*
X0125700Y0038949D02*
X0125700Y0038949D01*
X0125700Y0037951D02*
X0125700Y0037951D01*
X0125700Y0036952D02*
X0125700Y0036952D01*
X0125700Y0035954D02*
X0125700Y0035954D01*
X0125700Y0034955D02*
X0125700Y0034955D01*
X0125700Y0033957D02*
X0125614Y0033957D01*
X0125700Y0032958D02*
X0125201Y0032958D01*
X0125700Y0031960D02*
X0124292Y0031960D01*
X0125700Y0030961D02*
X0083603Y0030961D01*
X0083603Y0029963D02*
X0125700Y0029963D01*
X0125700Y0028964D02*
X0083603Y0028964D01*
X0084745Y0027966D02*
X0115261Y0027966D01*
X0114265Y0026967D02*
X0085741Y0026967D01*
X0086155Y0025969D02*
X0113851Y0025969D01*
X0113703Y0024970D02*
X0086303Y0024970D01*
X0086234Y0023972D02*
X0113773Y0023972D01*
X0114186Y0022973D02*
X0085820Y0022973D01*
X0084935Y0021975D02*
X0115071Y0021975D01*
X0122731Y0015984D02*
X0014769Y0015984D01*
X0013771Y0016982D02*
X0123729Y0016982D01*
X0124728Y0017981D02*
X0012772Y0017981D01*
X0011774Y0018979D02*
X0125700Y0018979D01*
X0125700Y0019978D02*
X0011600Y0019978D01*
X0011600Y0020976D02*
X0125700Y0020976D01*
X0125700Y0021975D02*
X0124935Y0021975D01*
X0130300Y0021975D02*
X0142700Y0021975D01*
X0142700Y0022973D02*
X0130300Y0022973D01*
X0130300Y0023972D02*
X0142700Y0023972D01*
X0142700Y0024970D02*
X0130300Y0024970D01*
X0130300Y0025969D02*
X0142700Y0025969D01*
X0142700Y0026967D02*
X0130300Y0026967D01*
X0130300Y0027966D02*
X0142700Y0027966D01*
X0142700Y0028964D02*
X0130300Y0028964D01*
X0130300Y0029963D02*
X0142700Y0029963D01*
X0142700Y0030961D02*
X0130300Y0030961D01*
X0130300Y0031960D02*
X0134708Y0031960D01*
X0134904Y0031763D02*
X0136264Y0031200D01*
X0137736Y0031200D01*
X0139096Y0031763D01*
X0140137Y0032804D01*
X0140700Y0034164D01*
X0140700Y0040836D01*
X0140137Y0042196D01*
X0139096Y0043237D01*
X0137736Y0043800D01*
X0136264Y0043800D01*
X0134904Y0043237D01*
X0133863Y0042196D01*
X0133300Y0040836D01*
X0133300Y0034164D01*
X0133863Y0032804D01*
X0134904Y0031763D01*
X0133799Y0032958D02*
X0130300Y0032958D01*
X0130300Y0033957D02*
X0133386Y0033957D01*
X0133300Y0034955D02*
X0130300Y0034955D01*
X0130300Y0035954D02*
X0133300Y0035954D01*
X0133300Y0036952D02*
X0130300Y0036952D01*
X0130300Y0037951D02*
X0133300Y0037951D01*
X0133300Y0038949D02*
X0130300Y0038949D01*
X0130300Y0039948D02*
X0133300Y0039948D01*
X0133346Y0040946D02*
X0130300Y0040946D01*
X0130300Y0041945D02*
X0133759Y0041945D01*
X0134611Y0042943D02*
X0130300Y0042943D01*
X0130300Y0043942D02*
X0142700Y0043942D01*
X0142700Y0044940D02*
X0130300Y0044940D01*
X0130300Y0045939D02*
X0142700Y0045939D01*
X0142700Y0046937D02*
X0130300Y0046937D01*
X0130300Y0047936D02*
X0142700Y0047936D01*
X0142700Y0048934D02*
X0130300Y0048934D01*
X0130300Y0049933D02*
X0142312Y0049933D01*
X0142300Y0049963D02*
X0142700Y0048997D01*
X0142700Y0016503D01*
X0142300Y0015537D01*
X0142300Y0014463D01*
X0142711Y0013471D01*
X0143471Y0012711D01*
X0144463Y0012300D01*
X0145537Y0012300D01*
X0146529Y0012711D01*
X0147289Y0013471D01*
X0147700Y0014463D01*
X0147700Y0015537D01*
X0147300Y0016503D01*
X0147300Y0043467D01*
X0148467Y0042300D01*
X0151533Y0042300D01*
X0153700Y0044467D01*
X0153700Y0047533D01*
X0151533Y0049700D01*
X0148467Y0049700D01*
X0147300Y0048533D01*
X0147300Y0048997D01*
X0147700Y0049963D01*
X0147700Y0051037D01*
X0147289Y0052029D01*
X0146529Y0052789D01*
X0145537Y0053200D01*
X0144463Y0053200D01*
X0143471Y0052789D01*
X0142711Y0052029D01*
X0142300Y0051037D01*
X0142300Y0049963D01*
X0142300Y0050932D02*
X0130300Y0050932D01*
X0130300Y0051930D02*
X0142670Y0051930D01*
X0143808Y0052929D02*
X0130300Y0052929D01*
X0130300Y0053927D02*
X0131320Y0053927D01*
X0130700Y0054926D02*
X0130300Y0054926D01*
X0130300Y0055924D02*
X0130700Y0055924D01*
X0130700Y0056923D02*
X0130300Y0056923D01*
X0130300Y0057921D02*
X0130700Y0057921D01*
X0130700Y0058920D02*
X0130300Y0058920D01*
X0130300Y0059918D02*
X0130700Y0059918D01*
X0130700Y0060917D02*
X0130300Y0060917D01*
X0130300Y0061915D02*
X0130700Y0061915D01*
X0125700Y0062914D02*
X0123752Y0062914D01*
X0125245Y0063912D02*
X0125700Y0063912D01*
X0125700Y0057921D02*
X0124775Y0057921D01*
X0119611Y0042943D02*
X0086035Y0042943D01*
X0085036Y0041945D02*
X0118759Y0041945D01*
X0118346Y0040946D02*
X0084038Y0040946D01*
X0083603Y0039948D02*
X0118300Y0039948D01*
X0118300Y0038949D02*
X0083603Y0038949D01*
X0083603Y0037951D02*
X0118300Y0037951D01*
X0118300Y0036952D02*
X0083603Y0036952D01*
X0083603Y0035954D02*
X0118300Y0035954D01*
X0118300Y0034955D02*
X0083603Y0034955D01*
X0083603Y0033957D02*
X0118386Y0033957D01*
X0118799Y0032958D02*
X0083603Y0032958D01*
X0083603Y0031960D02*
X0119708Y0031960D01*
X0124745Y0027966D02*
X0125700Y0027966D01*
X0130300Y0020976D02*
X0142700Y0020976D01*
X0142700Y0019978D02*
X0130300Y0019978D01*
X0130300Y0018979D02*
X0142700Y0018979D01*
X0142700Y0017981D02*
X0130300Y0017981D01*
X0130235Y0016982D02*
X0142700Y0016982D01*
X0142485Y0015984D02*
X0129236Y0015984D01*
X0128238Y0014985D02*
X0142300Y0014985D01*
X0142497Y0013987D02*
X0127239Y0013987D01*
X0126241Y0012988D02*
X0143194Y0012988D01*
X0146806Y0012988D02*
X0167923Y0012988D01*
X0168921Y0013987D02*
X0147503Y0013987D01*
X0147700Y0014985D02*
X0169920Y0014985D01*
X0170918Y0015984D02*
X0147515Y0015984D01*
X0147300Y0016982D02*
X0171917Y0016982D01*
X0171713Y0017981D02*
X0172591Y0017981D01*
X0168287Y0017981D02*
X0147300Y0017981D01*
X0147300Y0018979D02*
X0167288Y0018979D01*
X0166300Y0019978D02*
X0147300Y0019978D01*
X0147300Y0020976D02*
X0166300Y0020976D01*
X0166300Y0021975D02*
X0147300Y0021975D01*
X0147300Y0022973D02*
X0166300Y0022973D01*
X0167239Y0023972D02*
X0147300Y0023972D01*
X0147300Y0024970D02*
X0168238Y0024970D01*
X0171762Y0024970D02*
X0172591Y0024970D01*
X0172591Y0025969D02*
X0147300Y0025969D01*
X0147300Y0026967D02*
X0172591Y0026967D01*
X0172591Y0027966D02*
X0147300Y0027966D01*
X0147300Y0028964D02*
X0172591Y0028964D01*
X0172591Y0029963D02*
X0147300Y0029963D01*
X0147300Y0030961D02*
X0172591Y0030961D01*
X0172591Y0031960D02*
X0147300Y0031960D01*
X0147300Y0032958D02*
X0172591Y0032958D01*
X0172591Y0033957D02*
X0147300Y0033957D01*
X0147300Y0034955D02*
X0153312Y0034955D01*
X0153467Y0034800D02*
X0156533Y0034800D01*
X0158700Y0036967D01*
X0158700Y0040033D01*
X0156533Y0042200D01*
X0153467Y0042200D01*
X0151300Y0040033D01*
X0151300Y0036967D01*
X0153467Y0034800D01*
X0152314Y0035954D02*
X0147300Y0035954D01*
X0147300Y0036952D02*
X0151315Y0036952D01*
X0151300Y0037951D02*
X0147300Y0037951D01*
X0147300Y0038949D02*
X0151300Y0038949D01*
X0151300Y0039948D02*
X0147300Y0039948D01*
X0147300Y0040946D02*
X0152214Y0040946D01*
X0153212Y0041945D02*
X0147300Y0041945D01*
X0147300Y0042943D02*
X0147824Y0042943D01*
X0152176Y0042943D02*
X0157258Y0042943D01*
X0156788Y0041945D02*
X0158257Y0041945D01*
X0158302Y0041900D02*
X0159700Y0041900D01*
X0159700Y0045700D01*
X0160300Y0045700D01*
X0160300Y0046300D01*
X0164100Y0046300D01*
X0164100Y0047698D01*
X0161698Y0050100D01*
X0160300Y0050100D01*
X0160300Y0046300D01*
X0159700Y0046300D01*
X0159700Y0050100D01*
X0158302Y0050100D01*
X0155900Y0047698D01*
X0155900Y0046300D01*
X0159700Y0046300D01*
X0159700Y0045700D01*
X0155900Y0045700D01*
X0155900Y0044302D01*
X0158302Y0041900D01*
X0157786Y0040946D02*
X0172591Y0040946D01*
X0172591Y0039948D02*
X0158700Y0039948D01*
X0158700Y0038949D02*
X0172591Y0038949D01*
X0172591Y0037951D02*
X0158700Y0037951D01*
X0158685Y0036952D02*
X0172591Y0036952D01*
X0172591Y0035954D02*
X0157686Y0035954D01*
X0156688Y0034955D02*
X0172591Y0034955D01*
X0172591Y0041945D02*
X0161743Y0041945D01*
X0161698Y0041900D02*
X0164100Y0044302D01*
X0164100Y0045700D01*
X0160300Y0045700D01*
X0160300Y0041900D01*
X0161698Y0041900D01*
X0160300Y0041945D02*
X0159700Y0041945D01*
X0159700Y0042943D02*
X0160300Y0042943D01*
X0160300Y0043942D02*
X0159700Y0043942D01*
X0159700Y0044940D02*
X0160300Y0044940D01*
X0160300Y0045939D02*
X0172591Y0045939D01*
X0172591Y0046937D02*
X0164100Y0046937D01*
X0163862Y0047936D02*
X0168331Y0047936D01*
X0167333Y0048934D02*
X0162864Y0048934D01*
X0161865Y0049933D02*
X0166249Y0049933D01*
X0165250Y0050932D02*
X0147700Y0050932D01*
X0147688Y0049933D02*
X0158135Y0049933D01*
X0157136Y0048934D02*
X0152298Y0048934D01*
X0153297Y0047936D02*
X0156138Y0047936D01*
X0155900Y0046937D02*
X0153700Y0046937D01*
X0153700Y0045939D02*
X0159700Y0045939D01*
X0159700Y0046937D02*
X0160300Y0046937D01*
X0160300Y0047936D02*
X0159700Y0047936D01*
X0159700Y0048934D02*
X0160300Y0048934D01*
X0160300Y0049933D02*
X0159700Y0049933D01*
X0163253Y0052929D02*
X0155847Y0052929D01*
X0154153Y0052929D02*
X0146192Y0052929D01*
X0147330Y0051930D02*
X0164252Y0051930D01*
X0162522Y0053927D02*
X0157245Y0053927D01*
X0157685Y0054926D02*
X0162300Y0054926D01*
X0162300Y0055924D02*
X0157700Y0055924D01*
X0157333Y0056923D02*
X0162300Y0056923D01*
X0162300Y0057921D02*
X0156210Y0057921D01*
X0147702Y0048934D02*
X0147300Y0048934D01*
X0153700Y0044940D02*
X0155900Y0044940D01*
X0156260Y0043942D02*
X0153175Y0043942D01*
X0162742Y0042943D02*
X0172591Y0042943D01*
X0172591Y0043942D02*
X0163740Y0043942D01*
X0164100Y0044940D02*
X0172591Y0044940D01*
X0172591Y0047936D02*
X0171669Y0047936D01*
X0142700Y0042943D02*
X0139389Y0042943D01*
X0140241Y0041945D02*
X0142700Y0041945D01*
X0142700Y0040946D02*
X0140654Y0040946D01*
X0140700Y0039948D02*
X0142700Y0039948D01*
X0142700Y0038949D02*
X0140700Y0038949D01*
X0140700Y0037951D02*
X0142700Y0037951D01*
X0142700Y0036952D02*
X0140700Y0036952D01*
X0140700Y0035954D02*
X0142700Y0035954D01*
X0142700Y0034955D02*
X0140700Y0034955D01*
X0140614Y0033957D02*
X0142700Y0033957D01*
X0142700Y0032958D02*
X0140201Y0032958D01*
X0139292Y0031960D02*
X0142700Y0031960D01*
X0125242Y0011990D02*
X0166924Y0011990D01*
X0165926Y0010991D02*
X0124244Y0010991D01*
X0123245Y0009993D02*
X0164927Y0009993D01*
X0163929Y0008994D02*
X0122247Y0008994D01*
X0121248Y0007996D02*
X0162930Y0007996D01*
X0161932Y0006997D02*
X0120250Y0006997D01*
X0117738Y0010991D02*
X0019762Y0010991D01*
X0018763Y0011990D02*
X0118737Y0011990D01*
X0119735Y0012988D02*
X0017765Y0012988D01*
X0016766Y0013987D02*
X0120734Y0013987D01*
X0121732Y0014985D02*
X0015768Y0014985D01*
X0011600Y0021975D02*
X0075071Y0021975D01*
X0074186Y0022973D02*
X0011600Y0022973D01*
X0011600Y0023972D02*
X0073773Y0023972D01*
X0073703Y0024970D02*
X0011600Y0024970D01*
X0011600Y0025969D02*
X0073851Y0025969D01*
X0074265Y0026967D02*
X0027223Y0026967D01*
X0027800Y0027966D02*
X0075261Y0027966D01*
X0076403Y0028964D02*
X0027800Y0028964D01*
X0027800Y0029963D02*
X0076403Y0029963D01*
X0076403Y0030961D02*
X0027800Y0030961D01*
X0027800Y0031960D02*
X0076403Y0031960D01*
X0076403Y0032958D02*
X0027800Y0032958D01*
X0027800Y0033957D02*
X0076403Y0033957D01*
X0076403Y0034955D02*
X0027800Y0034955D01*
X0027800Y0035954D02*
X0076403Y0035954D01*
X0076403Y0036952D02*
X0027800Y0036952D01*
X0027800Y0037951D02*
X0076403Y0037951D01*
X0076403Y0038949D02*
X0027800Y0038949D01*
X0027800Y0039948D02*
X0043707Y0039948D01*
X0042817Y0040946D02*
X0027800Y0040946D01*
X0027800Y0041945D02*
X0041919Y0041945D01*
X0041021Y0042943D02*
X0027800Y0042943D01*
X0027800Y0043942D02*
X0040123Y0043942D01*
X0039226Y0044940D02*
X0027800Y0044940D01*
X0027800Y0045939D02*
X0038328Y0045939D01*
X0037430Y0046937D02*
X0027800Y0046937D01*
X0027800Y0047936D02*
X0036532Y0047936D01*
X0035634Y0048934D02*
X0027800Y0048934D01*
X0027800Y0049933D02*
X0034736Y0049933D01*
X0033838Y0050932D02*
X0027800Y0050932D01*
X0027800Y0051930D02*
X0032940Y0051930D01*
X0032042Y0052929D02*
X0027800Y0052929D01*
X0020800Y0052929D02*
X0020300Y0052929D01*
X0020300Y0051930D02*
X0020800Y0051930D01*
X0020800Y0050932D02*
X0020300Y0050932D01*
X0020300Y0049933D02*
X0020800Y0049933D01*
X0020800Y0048934D02*
X0020300Y0048934D01*
X0020300Y0047936D02*
X0020800Y0047936D01*
X0020800Y0046937D02*
X0020300Y0046937D01*
X0020300Y0045939D02*
X0020800Y0045939D01*
X0020800Y0044940D02*
X0020300Y0044940D01*
X0020300Y0043942D02*
X0020800Y0043942D01*
X0020800Y0042943D02*
X0020300Y0042943D01*
X0020300Y0041945D02*
X0020800Y0041945D01*
X0020800Y0040946D02*
X0020300Y0040946D01*
X0020300Y0039948D02*
X0020800Y0039948D01*
X0020800Y0038949D02*
X0020300Y0038949D01*
X0020300Y0037951D02*
X0020800Y0037951D01*
X0020800Y0036952D02*
X0020300Y0036952D01*
X0020300Y0035954D02*
X0020800Y0035954D01*
X0020800Y0034955D02*
X0020300Y0034955D01*
X0020300Y0033957D02*
X0020800Y0033957D01*
X0020800Y0032958D02*
X0020300Y0032958D01*
X0020300Y0031960D02*
X0020800Y0031960D01*
X0020800Y0030961D02*
X0020300Y0030961D01*
X0020300Y0029963D02*
X0020800Y0029963D01*
X0020800Y0028964D02*
X0020300Y0028964D01*
X0020300Y0027966D02*
X0020800Y0027966D01*
X0021377Y0026967D02*
X0019723Y0026967D01*
X0013877Y0026967D02*
X0012223Y0026967D01*
X0012800Y0027966D02*
X0013300Y0027966D01*
X0013300Y0028964D02*
X0012800Y0028964D01*
X0012800Y0029963D02*
X0013300Y0029963D01*
X0013300Y0030961D02*
X0012800Y0030961D01*
X0012800Y0031960D02*
X0013300Y0031960D01*
X0013300Y0032958D02*
X0012800Y0032958D01*
X0012800Y0033957D02*
X0013300Y0033957D01*
X0013300Y0034955D02*
X0012800Y0034955D01*
X0012800Y0035954D02*
X0013300Y0035954D01*
X0013300Y0036952D02*
X0012800Y0036952D01*
X0012800Y0037951D02*
X0013300Y0037951D01*
X0013300Y0038949D02*
X0012800Y0038949D01*
X0012800Y0039948D02*
X0013300Y0039948D01*
X0013300Y0040946D02*
X0012800Y0040946D01*
X0012800Y0041945D02*
X0013300Y0041945D01*
X0013300Y0042943D02*
X0012800Y0042943D01*
X0012800Y0043942D02*
X0013300Y0043942D01*
X0013300Y0044940D02*
X0012800Y0044940D01*
X0012800Y0045939D02*
X0013300Y0045939D01*
X0013300Y0046937D02*
X0012800Y0046937D01*
X0012800Y0047936D02*
X0013300Y0047936D01*
X0013300Y0048934D02*
X0012800Y0048934D01*
X0012800Y0049933D02*
X0013300Y0049933D01*
X0013300Y0050932D02*
X0012800Y0050932D01*
X0012800Y0051930D02*
X0013300Y0051930D01*
X0013300Y0052929D02*
X0012800Y0052929D01*
X0060493Y0039948D02*
X0076403Y0039948D01*
X0076403Y0040946D02*
X0061414Y0040946D01*
X0062341Y0041945D02*
X0076403Y0041945D01*
X0076496Y0042943D02*
X0063268Y0042943D01*
X0064195Y0043942D02*
X0076910Y0043942D01*
X0077849Y0044940D02*
X0065122Y0044940D01*
X0066050Y0045939D02*
X0078848Y0045939D01*
X0078813Y0046937D02*
X0066977Y0046937D01*
X0067904Y0047936D02*
X0077387Y0047936D01*
X0076728Y0048934D02*
X0068831Y0048934D01*
X0069758Y0049933D02*
X0076397Y0049933D01*
X0076397Y0050932D02*
X0070686Y0050932D01*
X0071613Y0051930D02*
X0075101Y0051930D01*
X0074195Y0052929D02*
X0072540Y0052929D01*
X0073473Y0053927D02*
X0073781Y0053927D01*
X0083597Y0058458D02*
X0083597Y0081907D01*
X0084694Y0082361D01*
X0085735Y0083402D01*
X0086298Y0084762D01*
X0086298Y0085604D01*
X0089200Y0082576D01*
X0089200Y0058503D01*
X0088800Y0057537D01*
X0088800Y0056463D01*
X0089211Y0055471D01*
X0089971Y0054711D01*
X0090963Y0054300D01*
X0091387Y0054300D01*
X0085292Y0051190D01*
X0084585Y0051686D01*
X0084692Y0051730D01*
X0085733Y0052771D01*
X0086297Y0054131D01*
X0086297Y0055603D01*
X0085733Y0056963D01*
X0084692Y0058004D01*
X0083597Y0058458D01*
X0083597Y0058920D02*
X0089200Y0058920D01*
X0089200Y0059918D02*
X0083597Y0059918D01*
X0083597Y0060917D02*
X0089200Y0060917D01*
X0089200Y0061915D02*
X0083597Y0061915D01*
X0083597Y0062914D02*
X0089200Y0062914D01*
X0089200Y0063912D02*
X0083597Y0063912D01*
X0083597Y0064911D02*
X0089200Y0064911D01*
X0089200Y0065909D02*
X0083597Y0065909D01*
X0083597Y0066908D02*
X0089200Y0066908D01*
X0089200Y0067906D02*
X0083597Y0067906D01*
X0083597Y0068905D02*
X0089200Y0068905D01*
X0089200Y0069903D02*
X0083597Y0069903D01*
X0083597Y0070902D02*
X0089200Y0070902D01*
X0089200Y0071900D02*
X0083597Y0071900D01*
X0083597Y0072899D02*
X0089200Y0072899D01*
X0089200Y0073897D02*
X0083597Y0073897D01*
X0083597Y0074896D02*
X0089200Y0074896D01*
X0089200Y0075894D02*
X0083597Y0075894D01*
X0083597Y0076893D02*
X0089200Y0076893D01*
X0089200Y0077891D02*
X0083597Y0077891D01*
X0083597Y0078890D02*
X0089200Y0078890D01*
X0089200Y0079888D02*
X0083597Y0079888D01*
X0083597Y0080887D02*
X0089200Y0080887D01*
X0089200Y0081885D02*
X0083597Y0081885D01*
X0085217Y0082884D02*
X0088905Y0082884D01*
X0087948Y0083882D02*
X0085934Y0083882D01*
X0086298Y0084881D02*
X0086991Y0084881D01*
X0090492Y0087876D02*
X0094016Y0087876D01*
X0094982Y0086878D02*
X0091448Y0086878D01*
X0092405Y0085879D02*
X0095948Y0085879D01*
X0096915Y0084881D02*
X0093372Y0084881D01*
X0093809Y0083882D02*
X0097540Y0083882D01*
X0098298Y0082884D02*
X0093800Y0082884D01*
X0093800Y0081885D02*
X0106689Y0081885D01*
X0106698Y0080887D02*
X0093800Y0080887D01*
X0093800Y0079888D02*
X0106708Y0079888D01*
X0106718Y0078890D02*
X0093800Y0078890D01*
X0093800Y0077891D02*
X0106728Y0077891D01*
X0106738Y0076893D02*
X0093800Y0076893D01*
X0093800Y0075894D02*
X0106748Y0075894D01*
X0106758Y0074896D02*
X0093800Y0074896D01*
X0093800Y0073897D02*
X0106768Y0073897D01*
X0106777Y0072899D02*
X0093800Y0072899D01*
X0093800Y0071900D02*
X0106787Y0071900D01*
X0106797Y0070902D02*
X0093800Y0070902D01*
X0093800Y0069903D02*
X0106807Y0069903D01*
X0106817Y0068905D02*
X0093800Y0068905D01*
X0093800Y0067906D02*
X0106827Y0067906D01*
X0106837Y0066908D02*
X0093800Y0066908D01*
X0093800Y0065909D02*
X0106846Y0065909D01*
X0106856Y0064911D02*
X0093800Y0064911D01*
X0093800Y0063912D02*
X0106866Y0063912D01*
X0106876Y0062914D02*
X0093800Y0062914D01*
X0093800Y0061915D02*
X0106312Y0061915D01*
X0104355Y0060917D02*
X0093800Y0060917D01*
X0093800Y0059918D02*
X0102398Y0059918D01*
X0100441Y0058920D02*
X0093800Y0058920D01*
X0094041Y0057921D02*
X0098484Y0057921D01*
X0096527Y0056923D02*
X0094200Y0056923D01*
X0093977Y0055924D02*
X0094570Y0055924D01*
X0090656Y0053927D02*
X0086212Y0053927D01*
X0086297Y0054926D02*
X0089756Y0054926D01*
X0089023Y0055924D02*
X0086164Y0055924D01*
X0085750Y0056923D02*
X0088800Y0056923D01*
X0088959Y0057921D02*
X0084775Y0057921D01*
X0085799Y0052929D02*
X0088699Y0052929D01*
X0086742Y0051930D02*
X0084892Y0051930D01*
X0101702Y0082884D02*
X0106679Y0082884D01*
X0106669Y0083882D02*
X0102460Y0083882D01*
X0102700Y0084881D02*
X0106659Y0084881D01*
X0106649Y0085879D02*
X0102558Y0085879D01*
X0101940Y0086878D02*
X0106639Y0086878D01*
X0106629Y0087876D02*
X0100417Y0087876D01*
X0099451Y0088875D02*
X0106620Y0088875D01*
X0106610Y0089873D02*
X0098484Y0089873D01*
X0097518Y0090872D02*
X0106600Y0090872D01*
X0106590Y0091870D02*
X0096552Y0091870D01*
X0095585Y0092869D02*
X0106580Y0092869D01*
X0106570Y0093868D02*
X0094619Y0093868D01*
X0093653Y0094866D02*
X0106560Y0094866D01*
X0106551Y0095865D02*
X0092687Y0095865D01*
X0091720Y0096863D02*
X0106541Y0096863D01*
X0106531Y0097862D02*
X0090754Y0097862D01*
X0089788Y0098860D02*
X0106521Y0098860D01*
X0106511Y0099859D02*
X0088821Y0099859D01*
X0087855Y0100857D02*
X0106501Y0100857D01*
X0106491Y0101856D02*
X0087300Y0101856D01*
X0087300Y0102854D02*
X0106482Y0102854D01*
X0106472Y0103853D02*
X0087300Y0103853D01*
X0087300Y0104851D02*
X0106462Y0104851D01*
X0106452Y0105850D02*
X0087300Y0105850D01*
X0087300Y0106848D02*
X0106442Y0106848D01*
X0106432Y0107847D02*
X0087300Y0107847D01*
X0087300Y0108845D02*
X0106422Y0108845D01*
X0106192Y0109844D02*
X0087300Y0109844D01*
X0087300Y0110842D02*
X0105194Y0110842D01*
X0104195Y0111841D02*
X0087300Y0111841D01*
X0087300Y0112839D02*
X0103197Y0112839D01*
X0102198Y0113838D02*
X0087300Y0113838D01*
X0087300Y0114836D02*
X0089715Y0114836D01*
X0090567Y0113984D02*
X0092193Y0113984D01*
X0092193Y0118334D01*
X0092793Y0118334D01*
X0092793Y0113984D01*
X0094419Y0113984D01*
X0097143Y0116708D01*
X0097143Y0118334D01*
X0092793Y0118334D01*
X0092793Y0118934D01*
X0092193Y0118934D01*
X0092193Y0118334D01*
X0087843Y0118334D01*
X0087843Y0116708D01*
X0090567Y0113984D01*
X0092193Y0114836D02*
X0092793Y0114836D01*
X0092793Y0115835D02*
X0092193Y0115835D01*
X0092193Y0116833D02*
X0092793Y0116833D01*
X0092793Y0117832D02*
X0092193Y0117832D01*
X0092193Y0118830D02*
X0087300Y0118830D01*
X0087843Y0118934D02*
X0092193Y0118934D01*
X0092193Y0123284D01*
X0090567Y0123284D01*
X0087843Y0120560D01*
X0087843Y0118934D01*
X0087843Y0119829D02*
X0087300Y0119829D01*
X0087300Y0120827D02*
X0088110Y0120827D01*
X0087300Y0121826D02*
X0089108Y0121826D01*
X0090107Y0122824D02*
X0087300Y0122824D01*
X0087300Y0123823D02*
X0092213Y0123823D01*
X0092193Y0122824D02*
X0092793Y0122824D01*
X0092793Y0121826D02*
X0092193Y0121826D01*
X0092193Y0120827D02*
X0092793Y0120827D01*
X0092793Y0119829D02*
X0092193Y0119829D01*
X0092793Y0118830D02*
X0097206Y0118830D01*
X0097143Y0117832D02*
X0098204Y0117832D01*
X0099203Y0116833D02*
X0097143Y0116833D01*
X0096270Y0115835D02*
X0100201Y0115835D01*
X0101200Y0114836D02*
X0095271Y0114836D01*
X0088716Y0115835D02*
X0087300Y0115835D01*
X0087300Y0116833D02*
X0087843Y0116833D01*
X0087843Y0117832D02*
X0087300Y0117832D01*
X0082700Y0117832D02*
X0073900Y0117832D01*
X0073900Y0118830D02*
X0082700Y0118830D01*
X0082700Y0119829D02*
X0073900Y0119829D01*
X0073900Y0120827D02*
X0078228Y0120827D01*
X0077229Y0121826D02*
X0073900Y0121826D01*
X0073900Y0122824D02*
X0076342Y0122824D01*
X0076342Y0123823D02*
X0073900Y0123823D01*
X0073900Y0124821D02*
X0076342Y0124821D01*
X0076384Y0125820D02*
X0073900Y0125820D01*
X0073900Y0126818D02*
X0077382Y0126818D01*
X0078381Y0127817D02*
X0073900Y0127817D01*
X0073900Y0128815D02*
X0082700Y0128815D01*
X0082700Y0127817D02*
X0081704Y0127817D01*
X0082700Y0129814D02*
X0073900Y0129814D01*
X0073900Y0130812D02*
X0082700Y0130812D01*
X0082700Y0131811D02*
X0073900Y0131811D01*
X0073900Y0132809D02*
X0082700Y0132809D01*
X0082700Y0133808D02*
X0073900Y0133808D01*
X0073900Y0134806D02*
X0082700Y0134806D01*
X0082700Y0135805D02*
X0073900Y0135805D01*
X0073863Y0136803D02*
X0082700Y0136803D01*
X0082700Y0137802D02*
X0072903Y0137802D01*
X0071976Y0138801D02*
X0082700Y0138801D01*
X0081948Y0139799D02*
X0071048Y0139799D01*
X0070121Y0140798D02*
X0080950Y0140798D01*
X0079951Y0141796D02*
X0069194Y0141796D01*
X0069702Y0142795D02*
X0068267Y0142795D01*
X0068704Y0143793D02*
X0067340Y0143793D01*
X0067705Y0144792D02*
X0066412Y0144792D01*
X0066707Y0145790D02*
X0065485Y0145790D01*
X0065708Y0146789D02*
X0064558Y0146789D01*
X0061293Y0150783D02*
X0060884Y0150783D01*
X0061293Y0151781D02*
X0059922Y0151781D01*
X0061783Y0152780D02*
X0042289Y0152780D01*
X0042743Y0151781D02*
X0044296Y0151781D01*
X0043316Y0150783D02*
X0042743Y0150783D01*
X0041290Y0153778D02*
X0062693Y0153778D01*
X0062693Y0154777D02*
X0027800Y0154777D01*
X0027800Y0155775D02*
X0062693Y0155775D01*
X0062693Y0156774D02*
X0027800Y0156774D01*
X0027800Y0157772D02*
X0062693Y0157772D01*
X0062693Y0158771D02*
X0027800Y0158771D01*
X0027800Y0159769D02*
X0062693Y0159769D01*
X0062693Y0160768D02*
X0027800Y0160768D01*
X0027800Y0161766D02*
X0062693Y0161766D01*
X0062693Y0162765D02*
X0027800Y0162765D01*
X0027492Y0163763D02*
X0062693Y0163763D01*
X0067292Y0157772D02*
X0078336Y0157772D01*
X0077337Y0156774D02*
X0067292Y0156774D01*
X0067292Y0155775D02*
X0076342Y0155775D01*
X0076342Y0154777D02*
X0067292Y0154777D01*
X0067292Y0153778D02*
X0076342Y0153778D01*
X0076342Y0152780D02*
X0068202Y0152780D01*
X0068692Y0151781D02*
X0077274Y0151781D01*
X0078273Y0150783D02*
X0068692Y0150783D01*
X0069218Y0149784D02*
X0081351Y0149784D01*
X0082385Y0148786D02*
X0070216Y0148786D01*
X0071215Y0147787D02*
X0083419Y0147787D01*
X0084452Y0146789D02*
X0081464Y0146789D01*
X0082463Y0145790D02*
X0085486Y0145790D01*
X0086520Y0144792D02*
X0083461Y0144792D01*
X0084460Y0143793D02*
X0087554Y0143793D01*
X0088588Y0142795D02*
X0085458Y0142795D01*
X0086457Y0141796D02*
X0089622Y0141796D01*
X0090656Y0140798D02*
X0087300Y0140798D01*
X0087300Y0139799D02*
X0091690Y0139799D01*
X0092723Y0138801D02*
X0087300Y0138801D01*
X0087300Y0137802D02*
X0093757Y0137802D01*
X0094791Y0136803D02*
X0087300Y0136803D01*
X0087300Y0135805D02*
X0095825Y0135805D01*
X0096859Y0134806D02*
X0087300Y0134806D01*
X0087300Y0133808D02*
X0097893Y0133808D01*
X0098927Y0132809D02*
X0093519Y0132809D01*
X0091467Y0132809D02*
X0087300Y0132809D01*
X0087300Y0131811D02*
X0089659Y0131811D01*
X0088795Y0130812D02*
X0087300Y0130812D01*
X0087300Y0129814D02*
X0088381Y0129814D01*
X0088243Y0128815D02*
X0087300Y0128815D01*
X0087300Y0127817D02*
X0088243Y0127817D01*
X0088645Y0126818D02*
X0087300Y0126818D01*
X0087300Y0125820D02*
X0089297Y0125820D01*
X0090592Y0124821D02*
X0087300Y0124821D01*
X0082700Y0120827D02*
X0081856Y0120827D01*
X0082700Y0116833D02*
X0073900Y0116833D01*
X0073900Y0115835D02*
X0082700Y0115835D01*
X0082700Y0114836D02*
X0073900Y0114836D01*
X0073900Y0113838D02*
X0082700Y0113838D01*
X0082700Y0112839D02*
X0073900Y0112839D01*
X0073900Y0111841D02*
X0082700Y0111841D01*
X0082700Y0110842D02*
X0073900Y0110842D01*
X0073900Y0109844D02*
X0082700Y0109844D01*
X0082700Y0108845D02*
X0073900Y0108845D01*
X0073900Y0107847D02*
X0082700Y0107847D01*
X0082700Y0106848D02*
X0073900Y0106848D01*
X0073900Y0105850D02*
X0082700Y0105850D01*
X0082700Y0104851D02*
X0073900Y0104851D01*
X0073900Y0103853D02*
X0082700Y0103853D01*
X0082700Y0102854D02*
X0073900Y0102854D01*
X0073900Y0101856D02*
X0082700Y0101856D01*
X0082700Y0100857D02*
X0073900Y0100857D01*
X0073900Y0099859D02*
X0082689Y0099859D01*
X0083386Y0098860D02*
X0073900Y0098860D01*
X0073900Y0097862D02*
X0078646Y0097862D01*
X0077642Y0096863D02*
X0073900Y0096863D01*
X0073900Y0095865D02*
X0077300Y0095865D01*
X0077340Y0094866D02*
X0073900Y0094866D01*
X0073900Y0093868D02*
X0077814Y0093868D01*
X0079296Y0092869D02*
X0073900Y0092869D01*
X0073900Y0091870D02*
X0080293Y0091870D01*
X0081250Y0090872D02*
X0073900Y0090872D01*
X0073900Y0089873D02*
X0082206Y0089873D01*
X0085707Y0092869D02*
X0089184Y0092869D01*
X0088218Y0093868D02*
X0084750Y0093868D01*
X0083793Y0094866D02*
X0087252Y0094866D01*
X0086285Y0095865D02*
X0082836Y0095865D01*
X0082358Y0096863D02*
X0085319Y0096863D01*
X0084353Y0097862D02*
X0081354Y0097862D01*
X0086664Y0091870D02*
X0090150Y0091870D01*
X0091117Y0090872D02*
X0087621Y0090872D01*
X0088578Y0089873D02*
X0092083Y0089873D01*
X0093049Y0088875D02*
X0089535Y0088875D01*
X0075882Y0088875D02*
X0073900Y0088875D01*
X0073900Y0087876D02*
X0074544Y0087876D01*
X0073965Y0086878D02*
X0073900Y0086878D01*
X0109385Y0116833D02*
X0130700Y0116833D01*
X0130700Y0115835D02*
X0110384Y0115835D01*
X0111382Y0114836D02*
X0130700Y0114836D01*
X0130700Y0113838D02*
X0112381Y0113838D01*
X0113187Y0112839D02*
X0130700Y0112839D01*
X0130700Y0111841D02*
X0113600Y0111841D01*
X0113603Y0110842D02*
X0130700Y0110842D01*
X0130700Y0109844D02*
X0113613Y0109844D01*
X0113623Y0108845D02*
X0130700Y0108845D01*
X0130700Y0107847D02*
X0113633Y0107847D01*
X0113642Y0106848D02*
X0130700Y0106848D01*
X0130700Y0105850D02*
X0113652Y0105850D01*
X0111150Y0117832D02*
X0130700Y0117832D01*
X0130700Y0118830D02*
X0111938Y0118830D01*
X0112200Y0119829D02*
X0130700Y0119829D01*
X0131575Y0120827D02*
X0112080Y0120827D01*
X0111737Y0121826D02*
X0132573Y0121826D01*
X0133572Y0122824D02*
X0111702Y0122824D01*
X0111666Y0123823D02*
X0134570Y0123823D01*
X0135569Y0124821D02*
X0111631Y0124821D01*
X0111596Y0125820D02*
X0136567Y0125820D01*
X0137566Y0126818D02*
X0111574Y0126818D01*
X0110717Y0127817D02*
X0138564Y0127817D01*
X0139563Y0128815D02*
X0109684Y0128815D01*
X0108650Y0129814D02*
X0140561Y0129814D01*
X0141560Y0130812D02*
X0107616Y0130812D01*
X0104096Y0127817D02*
X0098401Y0127817D01*
X0097403Y0128815D02*
X0103062Y0128815D01*
X0102028Y0129814D02*
X0096604Y0129814D01*
X0096191Y0130812D02*
X0100994Y0130812D01*
X0099960Y0131811D02*
X0095327Y0131811D01*
X0099400Y0126818D02*
X0105130Y0126818D01*
X0106164Y0125820D02*
X0100398Y0125820D01*
X0101397Y0124821D02*
X0107028Y0124821D01*
X0107063Y0123823D02*
X0102396Y0123823D01*
X0103394Y0122824D02*
X0107099Y0122824D01*
X0107134Y0121826D02*
X0104393Y0121826D01*
X0105391Y0120827D02*
X0106920Y0120827D01*
X0106800Y0119829D02*
X0106390Y0119829D01*
X0109033Y0138801D02*
X0117967Y0138801D01*
X0121033Y0138801D02*
X0137401Y0138801D01*
X0137802Y0138400D02*
X0135400Y0140802D01*
X0135400Y0142200D01*
X0139200Y0142200D01*
X0139200Y0138400D01*
X0137802Y0138400D01*
X0139200Y0138801D02*
X0139800Y0138801D01*
X0139800Y0139799D02*
X0139200Y0139799D01*
X0139200Y0140798D02*
X0139800Y0140798D01*
X0139800Y0141796D02*
X0139200Y0141796D01*
X0139200Y0142795D02*
X0123200Y0142795D01*
X0123200Y0143793D02*
X0135400Y0143793D01*
X0135993Y0144792D02*
X0122441Y0144792D01*
X0123200Y0141796D02*
X0135400Y0141796D01*
X0135404Y0140798D02*
X0123030Y0140798D01*
X0122032Y0139799D02*
X0136403Y0139799D01*
X0143600Y0143793D02*
X0148824Y0143793D01*
X0147192Y0144792D02*
X0143007Y0144792D01*
X0133541Y0156774D02*
X0082747Y0156774D01*
X0081748Y0157772D02*
X0134540Y0157772D01*
X0124019Y0166759D02*
X0120509Y0166759D01*
X0121111Y0167757D02*
X0123331Y0167757D01*
X0122931Y0168756D02*
X0121401Y0168756D01*
X0121468Y0169754D02*
X0122931Y0169754D01*
X0122931Y0170753D02*
X0121468Y0170753D01*
X0121468Y0171751D02*
X0122931Y0171751D01*
X0122931Y0172750D02*
X0117484Y0172750D01*
X0116516Y0172750D02*
X0111068Y0172750D01*
X0111068Y0173748D02*
X0112531Y0173748D01*
X0112531Y0174747D02*
X0111068Y0174747D01*
X0111068Y0175745D02*
X0112531Y0175745D01*
X0112716Y0176744D02*
X0110875Y0176744D01*
X0110462Y0177742D02*
X0113144Y0177742D01*
X0113953Y0178741D02*
X0109481Y0178741D01*
X0104519Y0178741D02*
X0099481Y0178741D01*
X0100462Y0177742D02*
X0103538Y0177742D01*
X0103125Y0176744D02*
X0100875Y0176744D01*
X0101068Y0175745D02*
X0102931Y0175745D01*
X0102931Y0174747D02*
X0101068Y0174747D01*
X0101068Y0173748D02*
X0102931Y0173748D01*
X0102931Y0172750D02*
X0101068Y0172750D01*
X0101068Y0171751D02*
X0102931Y0171751D01*
X0102931Y0170753D02*
X0101068Y0170753D01*
X0101068Y0169754D02*
X0102931Y0169754D01*
X0102931Y0168756D02*
X0101068Y0168756D01*
X0101312Y0167757D02*
X0103331Y0167757D01*
X0104019Y0166759D02*
X0101700Y0166759D01*
X0095473Y0165760D02*
X0089412Y0165760D01*
X0090509Y0166759D02*
X0094019Y0166759D01*
X0093331Y0167757D02*
X0091111Y0167757D01*
X0091401Y0168756D02*
X0092931Y0168756D01*
X0092931Y0169754D02*
X0091468Y0169754D01*
X0091468Y0170753D02*
X0092931Y0170753D01*
X0092931Y0171751D02*
X0091468Y0171751D01*
X0092931Y0172750D02*
X0087484Y0172750D01*
X0086516Y0172750D02*
X0081068Y0172750D01*
X0081068Y0173748D02*
X0082531Y0173748D01*
X0082531Y0174747D02*
X0081068Y0174747D01*
X0081068Y0175745D02*
X0082531Y0175745D01*
X0082716Y0176744D02*
X0080875Y0176744D01*
X0080462Y0177742D02*
X0083144Y0177742D01*
X0083953Y0178741D02*
X0079481Y0178741D01*
X0086516Y0178741D02*
X0087484Y0178741D01*
X0087484Y0177742D02*
X0086516Y0177742D01*
X0086516Y0176744D02*
X0087484Y0176744D01*
X0087484Y0175745D02*
X0086516Y0175745D01*
X0086516Y0174747D02*
X0087484Y0174747D01*
X0087484Y0173748D02*
X0086516Y0173748D01*
X0086516Y0172016D02*
X0082531Y0172016D01*
X0082531Y0169180D01*
X0082642Y0168485D01*
X0082859Y0167816D01*
X0083178Y0167189D01*
X0083592Y0166620D01*
X0084089Y0166123D01*
X0084658Y0165710D01*
X0085285Y0165390D01*
X0085954Y0165173D01*
X0086516Y0165084D01*
X0086516Y0172016D01*
X0086516Y0171751D02*
X0087484Y0171751D01*
X0087484Y0170753D02*
X0086516Y0170753D01*
X0086516Y0169754D02*
X0087484Y0169754D01*
X0087484Y0168756D02*
X0086516Y0168756D01*
X0086516Y0167757D02*
X0087484Y0167757D01*
X0087484Y0166759D02*
X0086516Y0166759D01*
X0086516Y0165760D02*
X0087484Y0165760D01*
X0084588Y0165760D02*
X0078527Y0165760D01*
X0079981Y0166759D02*
X0083491Y0166759D01*
X0082889Y0167757D02*
X0080669Y0167757D01*
X0081068Y0168756D02*
X0082599Y0168756D01*
X0082531Y0169754D02*
X0081068Y0169754D01*
X0081068Y0170753D02*
X0082531Y0170753D01*
X0082531Y0171751D02*
X0081068Y0171751D01*
X0090047Y0178741D02*
X0094519Y0178741D01*
X0093538Y0177742D02*
X0090856Y0177742D01*
X0091284Y0176744D02*
X0093125Y0176744D01*
X0092931Y0175745D02*
X0091468Y0175745D01*
X0091468Y0174747D02*
X0092931Y0174747D01*
X0092931Y0173748D02*
X0091468Y0173748D01*
X0109981Y0166759D02*
X0113491Y0166759D01*
X0112889Y0167757D02*
X0110669Y0167757D01*
X0111068Y0168756D02*
X0112599Y0168756D01*
X0112531Y0169754D02*
X0111068Y0169754D01*
X0111068Y0170753D02*
X0112531Y0170753D01*
X0112531Y0171751D02*
X0111068Y0171751D01*
X0116516Y0173748D02*
X0117484Y0173748D01*
X0117484Y0174747D02*
X0116516Y0174747D01*
X0116516Y0175745D02*
X0117484Y0175745D01*
X0117484Y0176744D02*
X0116516Y0176744D01*
X0116516Y0177742D02*
X0117484Y0177742D01*
X0117484Y0178741D02*
X0116516Y0178741D01*
X0120047Y0178741D02*
X0124519Y0178741D01*
X0123538Y0177742D02*
X0120856Y0177742D01*
X0121284Y0176744D02*
X0123125Y0176744D01*
X0122931Y0175745D02*
X0121468Y0175745D01*
X0121468Y0174747D02*
X0122931Y0174747D01*
X0122931Y0173748D02*
X0121468Y0173748D01*
X0095912Y0145790D02*
X0092108Y0145790D01*
X0093142Y0144792D02*
X0096910Y0144792D01*
X0097909Y0143793D02*
X0094176Y0143793D01*
X0135300Y0103853D02*
X0135684Y0103853D01*
X0135300Y0081885D02*
X0162300Y0081885D01*
X0162300Y0080887D02*
X0135300Y0080887D01*
X0161160Y0097862D02*
X0162300Y0097862D01*
X0162300Y0098860D02*
X0162158Y0098860D01*
X0162300Y0104851D02*
X0161447Y0104851D01*
X0167700Y0104851D02*
X0172591Y0104851D01*
X0172591Y0103853D02*
X0167700Y0103853D01*
X0167700Y0102854D02*
X0172591Y0102854D01*
X0172591Y0101856D02*
X0171877Y0101856D01*
X0171533Y0102200D02*
X0168467Y0102200D01*
X0167700Y0101433D01*
X0167700Y0122382D01*
X0170118Y0124800D01*
X0171533Y0124800D01*
X0172591Y0125859D01*
X0172591Y0101141D01*
X0171533Y0102200D01*
X0168123Y0101856D02*
X0167700Y0101856D01*
X0167700Y0105850D02*
X0172591Y0105850D01*
X0172591Y0106848D02*
X0167700Y0106848D01*
X0167700Y0107847D02*
X0172591Y0107847D01*
X0172591Y0108845D02*
X0167700Y0108845D01*
X0167700Y0109844D02*
X0172591Y0109844D01*
X0172591Y0110842D02*
X0167700Y0110842D01*
X0167700Y0111841D02*
X0172591Y0111841D01*
X0172591Y0112839D02*
X0167700Y0112839D01*
X0167700Y0113838D02*
X0172591Y0113838D01*
X0172591Y0114836D02*
X0167700Y0114836D01*
X0167700Y0115835D02*
X0172591Y0115835D01*
X0172591Y0116833D02*
X0167700Y0116833D01*
X0167700Y0117832D02*
X0172591Y0117832D01*
X0172591Y0118830D02*
X0167700Y0118830D01*
X0167700Y0119829D02*
X0172591Y0119829D01*
X0172591Y0120827D02*
X0167700Y0120827D01*
X0167700Y0121826D02*
X0172591Y0121826D01*
X0172591Y0122824D02*
X0168143Y0122824D01*
X0169141Y0123823D02*
X0172591Y0123823D01*
X0172591Y0124821D02*
X0171554Y0124821D01*
X0172552Y0125820D02*
X0172591Y0125820D01*
X0039772Y0146789D02*
X0027800Y0146789D01*
X0027800Y0147787D02*
X0036816Y0147787D01*
X0035818Y0148786D02*
X0027800Y0148786D01*
X0027800Y0149784D02*
X0035343Y0149784D01*
X0035343Y0150783D02*
X0027800Y0150783D01*
X0027800Y0151781D02*
X0035343Y0151781D01*
X0035797Y0152780D02*
X0027800Y0152780D01*
X0027800Y0153778D02*
X0036795Y0153778D01*
X0038874Y0145790D02*
X0027800Y0145790D01*
X0027800Y0144792D02*
X0037976Y0144792D01*
X0037078Y0143793D02*
X0027800Y0143793D01*
X0027800Y0142795D02*
X0036180Y0142795D01*
X0035282Y0141796D02*
X0027800Y0141796D01*
X0027800Y0140798D02*
X0034385Y0140798D01*
X0033487Y0139799D02*
X0027800Y0139799D01*
X0027800Y0138801D02*
X0032589Y0138801D01*
D22*
X0054000Y0155000D03*
X0048000Y0165000D03*
X0055000Y0175000D03*
X0025000Y0175000D03*
X0080500Y0107500D03*
X0080000Y0095500D03*
X0100000Y0085000D03*
X0086500Y0069500D03*
X0091500Y0057000D03*
X0128000Y0087500D03*
X0154000Y0085000D03*
X0170500Y0080000D03*
X0155000Y0055500D03*
X0145000Y0050500D03*
X0145000Y0015000D03*
X0156500Y0111000D03*
X0170500Y0118500D03*
X0158500Y0128500D03*
X0109500Y0120000D03*
D23*
X0109288Y0126000D01*
X0080042Y0154246D01*
X0080000Y0145000D02*
X0070749Y0145000D01*
X0064993Y0150757D01*
X0064993Y0165007D01*
X0055000Y0175000D01*
X0025000Y0175000D02*
X0016800Y0166800D01*
X0016800Y0160900D01*
X0016800Y0150500D01*
X0009300Y0150500D02*
X0009300Y0160900D01*
X0024300Y0160900D02*
X0024300Y0150500D01*
X0080000Y0145000D02*
X0085000Y0140000D01*
X0085000Y0100500D01*
X0100000Y0085000D01*
X0091500Y0083500D02*
X0080000Y0095500D01*
X0091500Y0083500D02*
X0091500Y0057000D01*
X0128000Y0087500D02*
X0128000Y0018000D01*
X0118500Y0008500D01*
X0019000Y0008500D01*
X0009300Y0018200D01*
X0009300Y0030400D01*
X0009300Y0040500D01*
X0016800Y0040500D02*
X0016800Y0030400D01*
X0024300Y0030400D02*
X0024300Y0040500D01*
X0133000Y0055500D02*
X0133000Y0119000D01*
X0143000Y0129000D01*
X0158500Y0128500D01*
X0156500Y0111000D02*
X0144000Y0111000D01*
X0143000Y0110000D01*
X0143000Y0096000D01*
X0154000Y0085000D01*
X0155000Y0055500D02*
X0133000Y0055500D01*
X0145000Y0050500D02*
X0145000Y0015000D01*
X0166500Y0154500D02*
X0147000Y0166000D01*
X0146500Y0181000D01*
X0136500Y0163500D02*
X0100500Y0163500D01*
X0097000Y0172500D01*
D24*
X0092493Y0128634D02*
X0110000Y0111127D01*
X0110500Y0060500D01*
X0109500Y0059500D01*
X0085000Y0047000D01*
X0080003Y0042003D01*
X0080003Y0024875D01*
X0085000Y0047000D02*
X0079997Y0050503D01*
X0079997Y0054867D01*
X0079997Y0085497D01*
X0079998Y0085498D01*
D25*
X0136500Y0154500D02*
X0170000Y0134000D01*
X0170000Y0128500D01*
X0165000Y0123500D01*
X0165000Y0095000D01*
X0170000Y0090000D01*
X0165000Y0085000D01*
X0165000Y0055000D01*
X0168500Y0051500D01*
X0170000Y0051500D01*
D26*
X0119500Y0142500D02*
X0107500Y0142500D01*
M02*
