G75*
%MOIN*%
%OFA0B0*%
%FSLAX25Y25*%
%IPPOS*%
%LPD*%
%AMOC8*
5,1,8,0,0,1.08239X$1,22.5*
%
%ADD10C,0.01500*%
%ADD11C,0.01100*%
%ADD12C,0.00600*%
%ADD13R,0.02000X0.01500*%
%ADD14C,0.00400*%
%ADD15C,0.00500*%
D10*
X0035487Y0038268D02*
X0038322Y0038268D01*
X0039740Y0039686D01*
X0034069Y0045357D01*
X0034069Y0039686D01*
X0035487Y0038268D01*
X0039740Y0039686D02*
X0039740Y0045357D01*
X0038322Y0046775D01*
X0035487Y0046775D01*
X0034069Y0045357D01*
X0043277Y0038268D02*
X0048948Y0038268D01*
X0052134Y0038268D02*
X0053552Y0038268D01*
X0053552Y0039686D01*
X0052134Y0039686D01*
X0052134Y0038268D01*
X0057088Y0038268D02*
X0062760Y0038268D01*
X0059924Y0038268D02*
X0059924Y0046775D01*
X0062760Y0043939D01*
X0066296Y0041104D02*
X0066296Y0046775D01*
X0071968Y0046775D02*
X0071968Y0041104D01*
X0069132Y0038268D01*
X0066296Y0041104D01*
X0048948Y0043939D02*
X0046112Y0046775D01*
X0046112Y0038268D01*
D11*
X0066207Y0030004D02*
X0069159Y0030004D01*
X0070144Y0029020D01*
X0069159Y0028036D01*
X0067191Y0028036D01*
X0066207Y0027052D01*
X0067191Y0026068D01*
X0070144Y0026068D01*
X0072652Y0026068D02*
X0075605Y0026068D01*
X0076589Y0027052D01*
X0076589Y0029020D01*
X0075605Y0030004D01*
X0072652Y0030004D01*
X0072652Y0031973D02*
X0072652Y0026068D01*
X0078918Y0026068D02*
X0080886Y0026068D01*
X0079902Y0026068D02*
X0079902Y0031973D01*
X0080886Y0031973D01*
X0083395Y0029020D02*
X0084379Y0030004D01*
X0086347Y0030004D01*
X0087332Y0029020D01*
X0087332Y0027052D01*
X0086347Y0026068D01*
X0084379Y0026068D01*
X0083395Y0027052D01*
X0083395Y0029020D01*
X0089840Y0029020D02*
X0089840Y0026068D01*
X0089840Y0029020D02*
X0090824Y0030004D01*
X0093777Y0030004D01*
X0093777Y0026068D01*
X0096286Y0026068D02*
X0099238Y0026068D01*
X0100223Y0027052D01*
X0100223Y0030004D01*
X0102731Y0029020D02*
X0102731Y0028036D01*
X0106668Y0028036D01*
X0106668Y0027052D02*
X0106668Y0029020D01*
X0105684Y0030004D01*
X0103715Y0030004D01*
X0102731Y0029020D01*
X0103715Y0026068D02*
X0105684Y0026068D01*
X0106668Y0027052D01*
X0109177Y0026068D02*
X0111145Y0028036D01*
X0110161Y0028036D02*
X0113114Y0028036D01*
X0113114Y0026068D02*
X0113114Y0031973D01*
X0110161Y0031973D01*
X0109177Y0030989D01*
X0109177Y0029020D01*
X0110161Y0028036D01*
X0122068Y0031973D02*
X0124036Y0031973D01*
X0123052Y0031973D02*
X0123052Y0027052D01*
X0124036Y0026068D01*
X0125020Y0026068D01*
X0126005Y0027052D01*
X0128513Y0026068D02*
X0128513Y0030004D01*
X0130482Y0031973D01*
X0132450Y0030004D01*
X0132450Y0026068D01*
X0132450Y0029020D02*
X0128513Y0029020D01*
X0098254Y0024099D02*
X0097270Y0024099D01*
X0096286Y0025084D01*
X0096286Y0030004D01*
D12*
X0016911Y0016618D02*
X0005100Y0028429D01*
X0005100Y0066518D01*
X0032600Y0066518D01*
X0045100Y0052618D01*
X0059100Y0052618D01*
X0072100Y0066618D01*
X0072100Y0147539D01*
X0059100Y0161539D01*
X0045100Y0161539D01*
X0032600Y0147639D01*
X0005100Y0147639D01*
X0005100Y0185767D01*
X0016911Y0197578D01*
X0162580Y0197578D02*
X0174391Y0185767D01*
X0174391Y0028429D01*
X0162580Y0016618D01*
X0167000Y0038018D02*
X0173000Y0038018D01*
X0173060Y0038020D01*
X0173121Y0038025D01*
X0173180Y0038034D01*
X0173239Y0038047D01*
X0173298Y0038063D01*
X0173355Y0038083D01*
X0173410Y0038106D01*
X0173465Y0038133D01*
X0173517Y0038162D01*
X0173568Y0038195D01*
X0173617Y0038231D01*
X0173663Y0038269D01*
X0173707Y0038311D01*
X0173749Y0038355D01*
X0173787Y0038401D01*
X0173823Y0038450D01*
X0173856Y0038501D01*
X0173885Y0038553D01*
X0173912Y0038608D01*
X0173935Y0038663D01*
X0173955Y0038720D01*
X0173971Y0038779D01*
X0173984Y0038838D01*
X0173993Y0038897D01*
X0173998Y0038958D01*
X0174000Y0039018D01*
X0174000Y0040518D01*
X0173500Y0041018D01*
X0173500Y0055018D01*
X0174000Y0055518D01*
X0174000Y0057018D01*
X0173998Y0057078D01*
X0173993Y0057139D01*
X0173984Y0057198D01*
X0173971Y0057257D01*
X0173955Y0057316D01*
X0173935Y0057373D01*
X0173912Y0057428D01*
X0173885Y0057483D01*
X0173856Y0057535D01*
X0173823Y0057586D01*
X0173787Y0057635D01*
X0173749Y0057681D01*
X0173707Y0057725D01*
X0173663Y0057767D01*
X0173617Y0057805D01*
X0173568Y0057841D01*
X0173517Y0057874D01*
X0173465Y0057903D01*
X0173410Y0057930D01*
X0173355Y0057953D01*
X0173298Y0057973D01*
X0173239Y0057989D01*
X0173180Y0058002D01*
X0173121Y0058011D01*
X0173060Y0058016D01*
X0173000Y0058018D01*
X0167000Y0058018D01*
X0166940Y0058016D01*
X0166879Y0058011D01*
X0166820Y0058002D01*
X0166761Y0057989D01*
X0166702Y0057973D01*
X0166645Y0057953D01*
X0166590Y0057930D01*
X0166535Y0057903D01*
X0166483Y0057874D01*
X0166432Y0057841D01*
X0166383Y0057805D01*
X0166337Y0057767D01*
X0166293Y0057725D01*
X0166251Y0057681D01*
X0166213Y0057635D01*
X0166177Y0057586D01*
X0166144Y0057535D01*
X0166115Y0057483D01*
X0166088Y0057428D01*
X0166065Y0057373D01*
X0166045Y0057316D01*
X0166029Y0057257D01*
X0166016Y0057198D01*
X0166007Y0057139D01*
X0166002Y0057078D01*
X0166000Y0057018D01*
X0166000Y0055518D01*
X0166500Y0055018D01*
X0166500Y0041018D01*
X0166000Y0040518D01*
X0166000Y0039018D01*
X0166002Y0038958D01*
X0166007Y0038897D01*
X0166016Y0038838D01*
X0166029Y0038779D01*
X0166045Y0038720D01*
X0166065Y0038663D01*
X0166088Y0038608D01*
X0166115Y0038553D01*
X0166144Y0038501D01*
X0166177Y0038450D01*
X0166213Y0038401D01*
X0166251Y0038355D01*
X0166293Y0038311D01*
X0166337Y0038269D01*
X0166383Y0038231D01*
X0166432Y0038195D01*
X0166483Y0038162D01*
X0166535Y0038133D01*
X0166590Y0038106D01*
X0166645Y0038083D01*
X0166702Y0038063D01*
X0166761Y0038047D01*
X0166820Y0038034D01*
X0166879Y0038025D01*
X0166940Y0038020D01*
X0167000Y0038018D01*
X0136200Y0022519D02*
X0135633Y0021952D01*
X0134499Y0021952D01*
X0133931Y0021385D01*
X0134499Y0020818D01*
X0136200Y0020818D01*
X0136200Y0022519D02*
X0135633Y0023086D01*
X0133931Y0023086D01*
X0132517Y0023086D02*
X0131383Y0023086D01*
X0131950Y0023654D02*
X0131950Y0021385D01*
X0131383Y0020818D01*
X0130061Y0021385D02*
X0129494Y0021952D01*
X0127793Y0021952D01*
X0127793Y0022519D02*
X0127793Y0020818D01*
X0129494Y0020818D01*
X0130061Y0021385D01*
X0129494Y0023086D02*
X0128360Y0023086D01*
X0127793Y0022519D01*
X0126378Y0023086D02*
X0126378Y0020818D01*
X0125244Y0020818D02*
X0125244Y0022519D01*
X0124677Y0023086D01*
X0124110Y0022519D01*
X0124110Y0020818D01*
X0122695Y0020818D02*
X0120994Y0020818D01*
X0120427Y0021385D01*
X0120427Y0022519D01*
X0120994Y0023086D01*
X0122695Y0023086D01*
X0122695Y0019684D01*
X0119012Y0021385D02*
X0119012Y0022519D01*
X0118445Y0023086D01*
X0117311Y0023086D01*
X0116743Y0022519D01*
X0116743Y0021952D01*
X0119012Y0021952D01*
X0119012Y0021385D02*
X0118445Y0020818D01*
X0117311Y0020818D01*
X0115329Y0021385D02*
X0115329Y0022519D01*
X0114762Y0023086D01*
X0113060Y0023086D01*
X0113060Y0024221D02*
X0113060Y0020818D01*
X0114762Y0020818D01*
X0115329Y0021385D01*
X0111646Y0021385D02*
X0111646Y0022519D01*
X0111079Y0023086D01*
X0109944Y0023086D01*
X0109377Y0022519D01*
X0109377Y0021952D01*
X0111646Y0021952D01*
X0111646Y0021385D02*
X0111079Y0020818D01*
X0109944Y0020818D01*
X0107963Y0020818D02*
X0106261Y0020818D01*
X0105694Y0021385D01*
X0105694Y0022519D01*
X0106261Y0023086D01*
X0107963Y0023086D01*
X0107963Y0024221D02*
X0107963Y0020818D01*
X0104279Y0021385D02*
X0103712Y0020818D01*
X0102578Y0020818D01*
X0102011Y0021385D01*
X0102011Y0022519D01*
X0102578Y0023086D01*
X0103712Y0023086D01*
X0104279Y0022519D01*
X0104279Y0021385D01*
X0100596Y0020818D02*
X0098895Y0020818D01*
X0098328Y0021385D01*
X0098895Y0021952D01*
X0100029Y0021952D01*
X0100596Y0022519D01*
X0100029Y0023086D01*
X0098328Y0023086D01*
X0096913Y0022519D02*
X0096346Y0021952D01*
X0095212Y0021952D01*
X0094645Y0021385D01*
X0095212Y0020818D01*
X0096913Y0020818D01*
X0096913Y0022519D02*
X0096346Y0023086D01*
X0094645Y0023086D01*
X0093230Y0023654D02*
X0092663Y0024221D01*
X0091529Y0024221D01*
X0090961Y0023654D01*
X0090961Y0022519D01*
X0091529Y0021952D01*
X0091529Y0023086D01*
X0092663Y0023086D01*
X0092663Y0021952D01*
X0091529Y0021952D01*
X0090961Y0021385D02*
X0091529Y0020818D01*
X0092663Y0020818D01*
X0093230Y0021385D01*
X0093230Y0023654D01*
X0089547Y0022519D02*
X0089547Y0021385D01*
X0088980Y0020818D01*
X0087278Y0020818D01*
X0087278Y0020251D02*
X0087278Y0023086D01*
X0088980Y0023086D01*
X0089547Y0022519D01*
X0087278Y0020251D02*
X0087845Y0019684D01*
X0088413Y0019684D01*
X0085864Y0020818D02*
X0085864Y0023086D01*
X0085297Y0023086D01*
X0084729Y0022519D01*
X0084162Y0023086D01*
X0083595Y0022519D01*
X0083595Y0020818D01*
X0084729Y0020818D02*
X0084729Y0022519D01*
X0082181Y0021385D02*
X0081613Y0021952D01*
X0079912Y0021952D01*
X0079912Y0022519D02*
X0079912Y0020818D01*
X0081613Y0020818D01*
X0082181Y0021385D01*
X0081613Y0023086D02*
X0080479Y0023086D01*
X0079912Y0022519D01*
X0078497Y0023086D02*
X0077930Y0023086D01*
X0077930Y0020818D01*
X0078497Y0020818D02*
X0077363Y0020818D01*
X0076042Y0020818D02*
X0074908Y0020818D01*
X0075475Y0020818D02*
X0075475Y0024221D01*
X0076042Y0024221D01*
X0077930Y0024221D02*
X0077930Y0024788D01*
X0073587Y0021385D02*
X0073019Y0021385D01*
X0073019Y0020818D01*
X0073587Y0020818D01*
X0073587Y0021385D01*
X0071745Y0021385D02*
X0071745Y0022519D01*
X0071178Y0023086D01*
X0069476Y0023086D01*
X0068062Y0022519D02*
X0068062Y0021385D01*
X0067495Y0020818D01*
X0066360Y0020818D01*
X0065793Y0021385D01*
X0065793Y0022519D01*
X0066360Y0023086D01*
X0067495Y0023086D01*
X0068062Y0022519D01*
X0069476Y0020818D02*
X0071178Y0020818D01*
X0071745Y0021385D01*
X0064379Y0020818D02*
X0064379Y0023086D01*
X0063812Y0023086D01*
X0063244Y0022519D01*
X0062677Y0023086D01*
X0062110Y0022519D01*
X0062110Y0020818D01*
X0063244Y0020818D02*
X0063244Y0022519D01*
X0125244Y0022519D02*
X0125811Y0023086D01*
X0126378Y0023086D01*
X0167000Y0083018D02*
X0173000Y0083018D01*
X0173060Y0083020D01*
X0173121Y0083025D01*
X0173180Y0083034D01*
X0173239Y0083047D01*
X0173298Y0083063D01*
X0173355Y0083083D01*
X0173410Y0083106D01*
X0173465Y0083133D01*
X0173517Y0083162D01*
X0173568Y0083195D01*
X0173617Y0083231D01*
X0173663Y0083269D01*
X0173707Y0083311D01*
X0173749Y0083355D01*
X0173787Y0083401D01*
X0173823Y0083450D01*
X0173856Y0083501D01*
X0173885Y0083553D01*
X0173912Y0083608D01*
X0173935Y0083663D01*
X0173955Y0083720D01*
X0173971Y0083779D01*
X0173984Y0083838D01*
X0173993Y0083897D01*
X0173998Y0083958D01*
X0174000Y0084018D01*
X0174000Y0085518D01*
X0173500Y0086018D01*
X0173500Y0100018D01*
X0174000Y0100518D01*
X0174000Y0102018D01*
X0173998Y0102078D01*
X0173993Y0102139D01*
X0173984Y0102198D01*
X0173971Y0102257D01*
X0173955Y0102316D01*
X0173935Y0102373D01*
X0173912Y0102428D01*
X0173885Y0102483D01*
X0173856Y0102535D01*
X0173823Y0102586D01*
X0173787Y0102635D01*
X0173749Y0102681D01*
X0173707Y0102725D01*
X0173663Y0102767D01*
X0173617Y0102805D01*
X0173568Y0102841D01*
X0173517Y0102874D01*
X0173465Y0102903D01*
X0173410Y0102930D01*
X0173355Y0102953D01*
X0173298Y0102973D01*
X0173239Y0102989D01*
X0173180Y0103002D01*
X0173121Y0103011D01*
X0173060Y0103016D01*
X0173000Y0103018D01*
X0167000Y0103018D01*
X0166940Y0103016D01*
X0166879Y0103011D01*
X0166820Y0103002D01*
X0166761Y0102989D01*
X0166702Y0102973D01*
X0166645Y0102953D01*
X0166590Y0102930D01*
X0166535Y0102903D01*
X0166483Y0102874D01*
X0166432Y0102841D01*
X0166383Y0102805D01*
X0166337Y0102767D01*
X0166293Y0102725D01*
X0166251Y0102681D01*
X0166213Y0102635D01*
X0166177Y0102586D01*
X0166144Y0102535D01*
X0166115Y0102483D01*
X0166088Y0102428D01*
X0166065Y0102373D01*
X0166045Y0102316D01*
X0166029Y0102257D01*
X0166016Y0102198D01*
X0166007Y0102139D01*
X0166002Y0102078D01*
X0166000Y0102018D01*
X0166000Y0100518D01*
X0166500Y0100018D01*
X0166500Y0086018D01*
X0166000Y0085518D01*
X0166000Y0084018D01*
X0166002Y0083958D01*
X0166007Y0083897D01*
X0166016Y0083838D01*
X0166029Y0083779D01*
X0166045Y0083720D01*
X0166065Y0083663D01*
X0166088Y0083608D01*
X0166115Y0083553D01*
X0166144Y0083501D01*
X0166177Y0083450D01*
X0166213Y0083401D01*
X0166251Y0083355D01*
X0166293Y0083311D01*
X0166337Y0083269D01*
X0166383Y0083231D01*
X0166432Y0083195D01*
X0166483Y0083162D01*
X0166535Y0083133D01*
X0166590Y0083106D01*
X0166645Y0083083D01*
X0166702Y0083063D01*
X0166761Y0083047D01*
X0166820Y0083034D01*
X0166879Y0083025D01*
X0166940Y0083020D01*
X0167000Y0083018D01*
X0167000Y0127018D02*
X0173000Y0127018D01*
X0173060Y0127020D01*
X0173121Y0127025D01*
X0173180Y0127034D01*
X0173239Y0127047D01*
X0173298Y0127063D01*
X0173355Y0127083D01*
X0173410Y0127106D01*
X0173465Y0127133D01*
X0173517Y0127162D01*
X0173568Y0127195D01*
X0173617Y0127231D01*
X0173663Y0127269D01*
X0173707Y0127311D01*
X0173749Y0127355D01*
X0173787Y0127401D01*
X0173823Y0127450D01*
X0173856Y0127501D01*
X0173885Y0127553D01*
X0173912Y0127608D01*
X0173935Y0127663D01*
X0173955Y0127720D01*
X0173971Y0127779D01*
X0173984Y0127838D01*
X0173993Y0127897D01*
X0173998Y0127958D01*
X0174000Y0128018D01*
X0174000Y0129518D01*
X0173500Y0130018D01*
X0173500Y0144018D01*
X0174000Y0144518D01*
X0174000Y0146018D01*
X0173998Y0146078D01*
X0173993Y0146139D01*
X0173984Y0146198D01*
X0173971Y0146257D01*
X0173955Y0146316D01*
X0173935Y0146373D01*
X0173912Y0146428D01*
X0173885Y0146483D01*
X0173856Y0146535D01*
X0173823Y0146586D01*
X0173787Y0146635D01*
X0173749Y0146681D01*
X0173707Y0146725D01*
X0173663Y0146767D01*
X0173617Y0146805D01*
X0173568Y0146841D01*
X0173517Y0146874D01*
X0173465Y0146903D01*
X0173410Y0146930D01*
X0173355Y0146953D01*
X0173298Y0146973D01*
X0173239Y0146989D01*
X0173180Y0147002D01*
X0173121Y0147011D01*
X0173060Y0147016D01*
X0173000Y0147018D01*
X0167000Y0147018D01*
X0166940Y0147016D01*
X0166879Y0147011D01*
X0166820Y0147002D01*
X0166761Y0146989D01*
X0166702Y0146973D01*
X0166645Y0146953D01*
X0166590Y0146930D01*
X0166535Y0146903D01*
X0166483Y0146874D01*
X0166432Y0146841D01*
X0166383Y0146805D01*
X0166337Y0146767D01*
X0166293Y0146725D01*
X0166251Y0146681D01*
X0166213Y0146635D01*
X0166177Y0146586D01*
X0166144Y0146535D01*
X0166115Y0146483D01*
X0166088Y0146428D01*
X0166065Y0146373D01*
X0166045Y0146316D01*
X0166029Y0146257D01*
X0166016Y0146198D01*
X0166007Y0146139D01*
X0166002Y0146078D01*
X0166000Y0146018D01*
X0166000Y0144518D01*
X0166500Y0144018D01*
X0166500Y0130018D01*
X0166000Y0129518D01*
X0166000Y0128018D01*
X0166002Y0127958D01*
X0166007Y0127897D01*
X0166016Y0127838D01*
X0166029Y0127779D01*
X0166045Y0127720D01*
X0166065Y0127663D01*
X0166088Y0127608D01*
X0166115Y0127553D01*
X0166144Y0127501D01*
X0166177Y0127450D01*
X0166213Y0127401D01*
X0166251Y0127355D01*
X0166293Y0127311D01*
X0166337Y0127269D01*
X0166383Y0127231D01*
X0166432Y0127195D01*
X0166483Y0127162D01*
X0166535Y0127133D01*
X0166590Y0127106D01*
X0166645Y0127083D01*
X0166702Y0127063D01*
X0166761Y0127047D01*
X0166820Y0127034D01*
X0166879Y0127025D01*
X0166940Y0127020D01*
X0167000Y0127018D01*
D13*
X0170000Y0126268D03*
X0170000Y0147768D03*
X0170000Y0103768D03*
X0170000Y0082268D03*
X0170000Y0058768D03*
X0170000Y0037268D03*
D14*
X0170351Y0041818D02*
X0170351Y0044153D01*
X0169184Y0045409D02*
X0169184Y0045993D01*
X0168600Y0045993D01*
X0168600Y0045409D01*
X0169184Y0045409D01*
X0169184Y0047204D02*
X0168600Y0047204D01*
X0169184Y0047204D02*
X0171519Y0049540D01*
X0172103Y0049540D01*
X0172103Y0047204D01*
X0172103Y0050795D02*
X0168600Y0050795D01*
X0169768Y0050795D02*
X0168600Y0052547D01*
X0169768Y0050795D02*
X0170935Y0052547D01*
X0172103Y0043569D02*
X0168600Y0043569D01*
X0170351Y0041818D02*
X0172103Y0043569D01*
X0170351Y0087818D02*
X0170351Y0090153D01*
X0169184Y0091409D02*
X0169184Y0091993D01*
X0168600Y0091993D01*
X0168600Y0091409D01*
X0169184Y0091409D01*
X0169184Y0093204D02*
X0168600Y0093204D01*
X0169184Y0093204D02*
X0171519Y0095540D01*
X0172103Y0095540D01*
X0172103Y0093204D01*
X0172103Y0096795D02*
X0168600Y0096795D01*
X0169768Y0096795D02*
X0168600Y0098547D01*
X0169768Y0096795D02*
X0170935Y0098547D01*
X0172103Y0089569D02*
X0168600Y0089569D01*
X0170351Y0087818D02*
X0172103Y0089569D01*
X0169851Y0131818D02*
X0169851Y0134153D01*
X0168684Y0135409D02*
X0168684Y0135993D01*
X0168100Y0135993D01*
X0168100Y0135409D01*
X0168684Y0135409D01*
X0168684Y0137204D02*
X0168100Y0137204D01*
X0168684Y0137204D02*
X0171019Y0139540D01*
X0171603Y0139540D01*
X0171603Y0137204D01*
X0171603Y0140795D02*
X0168100Y0140795D01*
X0169268Y0140795D02*
X0170435Y0142547D01*
X0169268Y0140795D02*
X0168100Y0142547D01*
X0168100Y0133569D02*
X0171603Y0133569D01*
X0169851Y0131818D01*
D15*
X0162726Y0197539D02*
X0017100Y0197539D01*
X0017100Y0016618D02*
X0162726Y0016618D01*
M02*
