G75*
%MOIN*%
%OFA0B0*%
%FSLAX25Y25*%
%IPPOS*%
%LPD*%
%AMOC8*
5,1,8,0,0,1.08239X$1,22.5*
%
%ADD10R,0.05906X0.01969*%
%ADD11R,0.05906X0.02559*%
%ADD12R,0.12992X0.07087*%
%ADD13R,0.02600X0.06000*%
%ADD14C,0.00600*%
%ADD15C,0.00500*%
D10*
X0092833Y0034220D03*
X0092833Y0046031D03*
X0105628Y0046031D03*
X0105628Y0034220D03*
X0106268Y0064267D03*
X0093472Y0064267D03*
X0093472Y0076078D03*
X0106268Y0076078D03*
X0106249Y0094943D03*
X0106249Y0106754D03*
X0093454Y0106754D03*
X0093454Y0094943D03*
D11*
X0106249Y0100849D03*
X0106268Y0070173D03*
X0105628Y0040125D03*
D12*
X0096278Y0040125D03*
X0096917Y0070173D03*
X0096898Y0100849D03*
D13*
X0147500Y0118294D03*
X0152500Y0118294D03*
X0157500Y0118294D03*
X0162500Y0118294D03*
X0162500Y0141706D03*
X0157500Y0141706D03*
X0152500Y0141706D03*
X0147500Y0141706D03*
D14*
X0016911Y0005100D02*
X0005100Y0016911D01*
X0005100Y0055000D01*
X0032600Y0055000D01*
X0045100Y0041100D01*
X0059100Y0041100D01*
X0072100Y0055100D01*
X0072100Y0136021D01*
X0059100Y0150021D01*
X0045100Y0150021D01*
X0032600Y0136121D01*
X0005100Y0136121D01*
X0005100Y0174250D01*
X0016911Y0186061D01*
X0162580Y0186061D02*
X0174391Y0174250D01*
X0174391Y0016911D01*
X0162580Y0005100D01*
D15*
X0162726Y0005100D02*
X0017100Y0005100D01*
X0017100Y0186021D02*
X0162726Y0186021D01*
M02*
