G75*
%MOIN*%
%OFA0B0*%
%FSLAX25Y25*%
%IPPOS*%
%LPD*%
%AMOC8*
5,1,8,0,0,1.08239X$1,22.5*
%
%ADD10C,0.00300*%
%ADD11C,0.01100*%
%ADD12C,0.00500*%
%ADD13C,0.00600*%
%ADD14R,0.07000X0.10000*%
%ADD15R,0.02500X0.02000*%
%ADD16R,0.02000X0.01500*%
%ADD17C,0.00400*%
%ADD18R,0.07400X0.01700*%
%ADD19C,0.00800*%
%ADD20C,0.01200*%
%ADD21R,0.01500X0.02000*%
%ADD22C,0.00200*%
%ADD23C,0.01000*%
%ADD24C,0.01500*%
D10*
X0073275Y0173168D02*
X0075210Y0173168D01*
X0074242Y0173168D02*
X0074242Y0176070D01*
X0073275Y0175103D01*
X0076222Y0175587D02*
X0076705Y0176070D01*
X0077673Y0176070D01*
X0078156Y0175587D01*
X0078156Y0175103D01*
X0076222Y0173168D01*
X0078156Y0173168D01*
X0079168Y0174135D02*
X0080136Y0173168D01*
X0081103Y0174135D01*
X0081103Y0176070D01*
X0079168Y0176070D02*
X0079168Y0174135D01*
X0083775Y0173652D02*
X0084259Y0173168D01*
X0085226Y0173168D01*
X0085710Y0173652D01*
X0085710Y0174619D01*
X0084742Y0174619D01*
X0083775Y0173652D02*
X0083775Y0175587D01*
X0084259Y0176070D01*
X0085226Y0176070D01*
X0085710Y0175587D01*
X0086722Y0176070D02*
X0086722Y0173168D01*
X0088656Y0173168D02*
X0088656Y0176070D01*
X0089668Y0176070D02*
X0091119Y0176070D01*
X0091603Y0175587D01*
X0091603Y0173652D01*
X0091119Y0173168D01*
X0089668Y0173168D01*
X0089668Y0176070D01*
X0086722Y0176070D02*
X0088656Y0173168D01*
X0093900Y0173168D02*
X0095351Y0173168D01*
X0095835Y0173652D01*
X0095835Y0175587D01*
X0095351Y0176070D01*
X0093900Y0176070D01*
X0093900Y0173168D01*
X0096847Y0173168D02*
X0097814Y0173168D01*
X0097330Y0173168D02*
X0097330Y0176070D01*
X0096847Y0176070D02*
X0097814Y0176070D01*
X0098811Y0176070D02*
X0100746Y0173168D01*
X0100746Y0176070D01*
X0098811Y0176070D02*
X0098811Y0173168D01*
X0103775Y0173168D02*
X0105710Y0173168D01*
X0104742Y0173168D02*
X0104742Y0176070D01*
X0103775Y0175103D01*
X0106722Y0175587D02*
X0107205Y0176070D01*
X0108173Y0176070D01*
X0108656Y0175587D01*
X0108656Y0175103D01*
X0106722Y0173168D01*
X0108656Y0173168D01*
X0109668Y0174135D02*
X0110636Y0173168D01*
X0111603Y0174135D01*
X0111603Y0176070D01*
X0113275Y0175587D02*
X0113275Y0173652D01*
X0113759Y0173168D01*
X0114726Y0173168D01*
X0115210Y0173652D01*
X0115210Y0174619D01*
X0114242Y0174619D01*
X0113275Y0175587D02*
X0113759Y0176070D01*
X0114726Y0176070D01*
X0115210Y0175587D01*
X0116222Y0176070D02*
X0116222Y0173168D01*
X0118156Y0173168D02*
X0118156Y0176070D01*
X0119168Y0176070D02*
X0120619Y0176070D01*
X0121103Y0175587D01*
X0121103Y0173652D01*
X0120619Y0173168D01*
X0119168Y0173168D01*
X0119168Y0176070D01*
X0116222Y0176070D02*
X0118156Y0173168D01*
X0124650Y0173168D02*
X0126101Y0173168D01*
X0126585Y0173652D01*
X0126585Y0175587D01*
X0126101Y0176070D01*
X0124650Y0176070D01*
X0124650Y0173168D01*
X0127597Y0173652D02*
X0128080Y0173168D01*
X0129048Y0173168D01*
X0129531Y0173652D01*
X0129531Y0175587D01*
X0129048Y0176070D01*
X0128080Y0176070D01*
X0127597Y0175587D01*
X0127597Y0173652D01*
X0109668Y0174135D02*
X0109668Y0176070D01*
X0112759Y0192668D02*
X0113726Y0192668D01*
X0114210Y0193152D01*
X0114210Y0195087D01*
X0113726Y0195570D01*
X0112759Y0195570D01*
X0112275Y0195087D01*
X0112275Y0193152D01*
X0112759Y0192668D01*
X0115222Y0193152D02*
X0115222Y0195570D01*
X0117156Y0195570D02*
X0117156Y0193152D01*
X0116673Y0192668D01*
X0115705Y0192668D01*
X0115222Y0193152D01*
X0118168Y0195570D02*
X0120103Y0195570D01*
X0119136Y0195570D02*
X0119136Y0192668D01*
X0089174Y0192168D02*
X0089174Y0195070D01*
X0087239Y0195070D02*
X0087239Y0192168D01*
X0086242Y0192168D02*
X0085275Y0192168D01*
X0085759Y0192168D02*
X0085759Y0195070D01*
X0086242Y0195070D02*
X0085275Y0195070D01*
X0087239Y0195070D02*
X0089174Y0192168D01*
D11*
X0075296Y0027658D02*
X0075296Y0026573D01*
X0075296Y0024405D02*
X0075296Y0020068D01*
X0076380Y0020068D02*
X0074211Y0020068D01*
X0071550Y0020068D02*
X0067213Y0024405D01*
X0063632Y0024405D02*
X0063632Y0020068D01*
X0062548Y0020068D02*
X0064716Y0020068D01*
X0067213Y0020068D02*
X0071550Y0024405D01*
X0074211Y0024405D02*
X0075296Y0024405D01*
X0078877Y0023321D02*
X0081045Y0023321D01*
X0078877Y0026573D02*
X0078877Y0020068D01*
X0078877Y0026573D02*
X0083214Y0026573D01*
X0085875Y0026573D02*
X0086959Y0026573D01*
X0086959Y0020068D01*
X0085875Y0020068D02*
X0088043Y0020068D01*
X0090540Y0021152D02*
X0090540Y0023321D01*
X0091624Y0024405D01*
X0093793Y0024405D01*
X0094877Y0023321D01*
X0094877Y0021152D01*
X0093793Y0020068D01*
X0091624Y0020068D01*
X0090540Y0021152D01*
X0097538Y0021152D02*
X0098622Y0020068D01*
X0100791Y0020068D01*
X0101875Y0021152D01*
X0101875Y0023321D01*
X0100791Y0024405D01*
X0098622Y0024405D01*
X0097538Y0023321D01*
X0097538Y0021152D01*
X0104536Y0021152D02*
X0104536Y0023321D01*
X0105620Y0024405D01*
X0108873Y0024405D01*
X0108873Y0026573D02*
X0108873Y0020068D01*
X0105620Y0020068D01*
X0104536Y0021152D01*
X0118532Y0020068D02*
X0122869Y0020068D01*
X0120700Y0020068D02*
X0120700Y0026573D01*
X0118532Y0024405D01*
X0125530Y0025489D02*
X0125530Y0021152D01*
X0129867Y0025489D01*
X0129867Y0021152D01*
X0128782Y0020068D01*
X0126614Y0020068D01*
X0125530Y0021152D01*
X0125530Y0025489D02*
X0126614Y0026573D01*
X0128782Y0026573D01*
X0129867Y0025489D01*
X0132528Y0024405D02*
X0132528Y0021152D01*
X0133612Y0020068D01*
X0134696Y0021152D01*
X0135780Y0020068D01*
X0136865Y0021152D01*
X0136865Y0024405D01*
X0063632Y0024405D02*
X0062548Y0024405D01*
X0063632Y0026573D02*
X0063632Y0027658D01*
X0059887Y0025489D02*
X0059887Y0023321D01*
X0058803Y0022236D01*
X0055550Y0022236D01*
X0055550Y0020068D02*
X0055550Y0026573D01*
X0058803Y0026573D01*
X0059887Y0025489D01*
D12*
X0089978Y0044887D02*
X0089978Y0052087D01*
X0099378Y0052087D01*
X0102578Y0050687D01*
X0108378Y0050687D01*
X0108378Y0046287D01*
X0102778Y0046287D01*
X0099378Y0044887D01*
X0089978Y0044887D01*
X0094577Y0044537D02*
X0094577Y0044218D01*
X0094577Y0040937D02*
X0094577Y0039718D01*
X0104026Y0039718D01*
X0104026Y0040337D01*
X0104026Y0044818D02*
X0104026Y0045737D01*
X0104026Y0051218D02*
X0104026Y0052137D01*
X0104026Y0056618D02*
X0104026Y0057237D01*
X0094577Y0057237D01*
X0094577Y0056018D01*
X0094577Y0052837D02*
X0094577Y0052518D01*
X0095217Y0073265D02*
X0095217Y0074485D01*
X0095217Y0073265D02*
X0104665Y0073265D01*
X0104665Y0073885D01*
X0104665Y0078365D02*
X0104665Y0079285D01*
X0103418Y0079835D02*
X0100018Y0078435D01*
X0090618Y0078435D01*
X0090618Y0085635D01*
X0100018Y0085635D01*
X0103218Y0084235D01*
X0109018Y0084235D01*
X0109018Y0079835D01*
X0103418Y0079835D01*
X0104665Y0084765D02*
X0104665Y0085685D01*
X0104665Y0090165D02*
X0104665Y0090785D01*
X0095217Y0090785D01*
X0095217Y0089565D01*
X0095217Y0086385D02*
X0095217Y0086065D01*
X0095217Y0078085D02*
X0095217Y0077765D01*
X0097198Y0103941D02*
X0097198Y0105161D01*
X0097198Y0103941D02*
X0106647Y0103941D01*
X0106647Y0104561D01*
X0106647Y0109041D02*
X0106647Y0109961D01*
X0105399Y0110511D02*
X0101999Y0109111D01*
X0092599Y0109111D01*
X0092599Y0116311D01*
X0101999Y0116311D01*
X0105199Y0114911D01*
X0110999Y0114911D01*
X0110999Y0110511D01*
X0105399Y0110511D01*
X0106647Y0115441D02*
X0106647Y0116361D01*
X0106647Y0120841D02*
X0106647Y0121461D01*
X0097198Y0121461D01*
X0097198Y0120241D01*
X0097198Y0117061D02*
X0097198Y0116741D01*
X0097198Y0108761D02*
X0097198Y0108441D01*
X0099377Y0128902D02*
X0099377Y0132305D01*
X0098243Y0132305D02*
X0100512Y0132305D01*
X0101834Y0132305D02*
X0104103Y0132305D01*
X0102968Y0132305D02*
X0102968Y0128902D01*
X0122492Y0106415D02*
X0122622Y0106271D01*
X0122756Y0106130D01*
X0122892Y0105993D01*
X0123033Y0105859D01*
X0123176Y0105728D01*
X0123322Y0105601D01*
X0123472Y0105477D01*
X0123624Y0105357D01*
X0123780Y0105241D01*
X0123938Y0105129D01*
X0124098Y0105020D01*
X0124262Y0104916D01*
X0124428Y0104815D01*
X0124596Y0104718D01*
X0124766Y0104626D01*
X0124939Y0104538D01*
X0125114Y0104454D01*
X0125291Y0104374D01*
X0125469Y0104298D01*
X0125650Y0104227D01*
X0125832Y0104160D01*
X0126016Y0104098D01*
X0126201Y0104040D01*
X0126387Y0103987D01*
X0126575Y0103938D01*
X0126764Y0103894D01*
X0126954Y0103854D01*
X0127144Y0103819D01*
X0127336Y0103788D01*
X0127528Y0103763D01*
X0127721Y0103742D01*
X0127914Y0103725D01*
X0128108Y0103713D01*
X0128302Y0103706D01*
X0128496Y0103704D01*
X0128690Y0103706D01*
X0128883Y0103713D01*
X0129077Y0103725D01*
X0129270Y0103742D01*
X0129463Y0103763D01*
X0129655Y0103789D01*
X0129847Y0103819D01*
X0130038Y0103854D01*
X0130228Y0103894D01*
X0130416Y0103938D01*
X0130604Y0103987D01*
X0130791Y0104040D01*
X0130976Y0104098D01*
X0131159Y0104161D01*
X0131342Y0104227D01*
X0131522Y0104299D01*
X0131701Y0104374D01*
X0131877Y0104454D01*
X0132052Y0104538D01*
X0132225Y0104627D01*
X0132395Y0104719D01*
X0132564Y0104816D01*
X0132729Y0104916D01*
X0132893Y0105021D01*
X0133053Y0105130D01*
X0133211Y0105242D01*
X0133367Y0105358D01*
X0133519Y0105478D01*
X0133669Y0105602D01*
X0133815Y0105729D01*
X0133958Y0105860D01*
X0134098Y0105994D01*
X0134235Y0106131D01*
X0134369Y0106272D01*
X0134499Y0106416D01*
X0134508Y0116621D02*
X0134378Y0116765D01*
X0134244Y0116906D01*
X0134108Y0117043D01*
X0133967Y0117177D01*
X0133824Y0117308D01*
X0133678Y0117435D01*
X0133528Y0117559D01*
X0133376Y0117679D01*
X0133220Y0117795D01*
X0133062Y0117907D01*
X0132902Y0118016D01*
X0132738Y0118120D01*
X0132572Y0118221D01*
X0132404Y0118318D01*
X0132234Y0118410D01*
X0132061Y0118498D01*
X0131886Y0118582D01*
X0131709Y0118662D01*
X0131531Y0118738D01*
X0131350Y0118809D01*
X0131168Y0118876D01*
X0130984Y0118938D01*
X0130799Y0118996D01*
X0130613Y0119049D01*
X0130425Y0119098D01*
X0130236Y0119142D01*
X0130046Y0119182D01*
X0129856Y0119217D01*
X0129664Y0119248D01*
X0129472Y0119273D01*
X0129279Y0119294D01*
X0129086Y0119311D01*
X0128892Y0119323D01*
X0128698Y0119330D01*
X0128504Y0119332D01*
X0128310Y0119330D01*
X0128117Y0119323D01*
X0127923Y0119311D01*
X0127730Y0119294D01*
X0127537Y0119273D01*
X0127345Y0119247D01*
X0127153Y0119217D01*
X0126962Y0119182D01*
X0126772Y0119142D01*
X0126584Y0119098D01*
X0126396Y0119049D01*
X0126209Y0118996D01*
X0126024Y0118938D01*
X0125841Y0118875D01*
X0125658Y0118809D01*
X0125478Y0118737D01*
X0125299Y0118662D01*
X0125123Y0118582D01*
X0124948Y0118498D01*
X0124775Y0118409D01*
X0124605Y0118317D01*
X0124436Y0118220D01*
X0124271Y0118120D01*
X0124107Y0118015D01*
X0123947Y0117906D01*
X0123789Y0117794D01*
X0123633Y0117678D01*
X0123481Y0117558D01*
X0123331Y0117434D01*
X0123185Y0117307D01*
X0123042Y0117176D01*
X0122902Y0117042D01*
X0122765Y0116905D01*
X0122631Y0116764D01*
X0122501Y0116620D01*
X0144548Y0112518D02*
X0146127Y0112518D01*
X0146754Y0118018D02*
X0163246Y0118018D01*
X0163873Y0112518D02*
X0165452Y0112518D01*
X0156127Y0112518D02*
X0153873Y0112518D01*
X0163246Y0118018D02*
X0163399Y0117819D01*
X0163547Y0117617D01*
X0163690Y0117412D01*
X0163828Y0117203D01*
X0163961Y0116991D01*
X0164089Y0116776D01*
X0164211Y0116558D01*
X0164329Y0116337D01*
X0164441Y0116113D01*
X0164548Y0115887D01*
X0164649Y0115658D01*
X0164745Y0115427D01*
X0164836Y0115193D01*
X0164921Y0114958D01*
X0165000Y0114720D01*
X0165073Y0114481D01*
X0165141Y0114240D01*
X0165203Y0113998D01*
X0165259Y0113754D01*
X0165310Y0113508D01*
X0165354Y0113262D01*
X0165393Y0113015D01*
X0165425Y0112767D01*
X0165452Y0112518D01*
X0165474Y0112263D01*
X0165489Y0112007D01*
X0165497Y0111751D01*
X0165500Y0111494D01*
X0165496Y0111238D01*
X0165486Y0110982D01*
X0165470Y0110726D01*
X0165448Y0110471D01*
X0165419Y0110216D01*
X0165384Y0109962D01*
X0165343Y0109709D01*
X0165296Y0109457D01*
X0165242Y0109207D01*
X0165183Y0108958D01*
X0165117Y0108710D01*
X0165046Y0108464D01*
X0164968Y0108219D01*
X0164885Y0107977D01*
X0164796Y0107737D01*
X0164700Y0107499D01*
X0164599Y0107263D01*
X0164493Y0107030D01*
X0164380Y0106800D01*
X0164262Y0106572D01*
X0164139Y0106348D01*
X0164010Y0106126D01*
X0163876Y0105908D01*
X0163736Y0105693D01*
X0163591Y0105482D01*
X0163441Y0105274D01*
X0163287Y0105070D01*
X0163127Y0104869D01*
X0162962Y0104673D01*
X0162793Y0104481D01*
X0162618Y0104292D01*
X0162440Y0104109D01*
X0162257Y0103929D01*
X0162069Y0103754D01*
X0161878Y0103584D01*
X0161682Y0103419D01*
X0161482Y0103258D01*
X0161279Y0103102D01*
X0161072Y0102952D01*
X0160861Y0102806D01*
X0160646Y0102665D01*
X0160429Y0102530D01*
X0160208Y0102400D01*
X0159984Y0102276D01*
X0159757Y0102157D01*
X0159527Y0102044D01*
X0159294Y0101936D01*
X0159059Y0101834D01*
X0158821Y0101738D01*
X0158582Y0101648D01*
X0158340Y0101563D01*
X0158096Y0101485D01*
X0151904Y0101485D02*
X0151662Y0101563D01*
X0151422Y0101647D01*
X0151184Y0101736D01*
X0150948Y0101831D01*
X0150714Y0101933D01*
X0150483Y0102039D01*
X0150255Y0102152D01*
X0150029Y0102269D01*
X0149806Y0102392D01*
X0149587Y0102521D01*
X0149370Y0102655D01*
X0149157Y0102794D01*
X0148947Y0102938D01*
X0148741Y0103087D01*
X0148539Y0103241D01*
X0148340Y0103400D01*
X0148145Y0103564D01*
X0147954Y0103733D01*
X0147768Y0103906D01*
X0147585Y0104083D01*
X0147407Y0104265D01*
X0147234Y0104451D01*
X0147065Y0104642D01*
X0146901Y0104836D01*
X0146741Y0105034D01*
X0146586Y0105236D01*
X0146437Y0105442D01*
X0146292Y0105651D01*
X0146152Y0105864D01*
X0146018Y0106080D01*
X0145889Y0106300D01*
X0145765Y0106522D01*
X0145646Y0106747D01*
X0145534Y0106975D01*
X0145426Y0107206D01*
X0145325Y0107439D01*
X0145229Y0107675D01*
X0145138Y0107913D01*
X0145054Y0108153D01*
X0144975Y0108395D01*
X0144902Y0108639D01*
X0144836Y0108885D01*
X0144775Y0109132D01*
X0144720Y0109380D01*
X0144671Y0109630D01*
X0144628Y0109881D01*
X0144592Y0110133D01*
X0144561Y0110385D01*
X0144537Y0110639D01*
X0144519Y0110892D01*
X0144507Y0111147D01*
X0144501Y0111401D01*
X0144501Y0111656D01*
X0144507Y0111910D01*
X0144520Y0112164D01*
X0144539Y0112418D01*
X0144564Y0112671D01*
X0144595Y0112924D01*
X0144632Y0113176D01*
X0144675Y0113426D01*
X0144724Y0113676D01*
X0144780Y0113925D01*
X0144841Y0114172D01*
X0144908Y0114417D01*
X0144981Y0114661D01*
X0145060Y0114903D01*
X0145145Y0115142D01*
X0145236Y0115380D01*
X0145333Y0115616D01*
X0145435Y0115849D01*
X0145543Y0116079D01*
X0145656Y0116307D01*
X0145775Y0116532D01*
X0145899Y0116754D01*
X0146029Y0116973D01*
X0146163Y0117189D01*
X0146303Y0117402D01*
X0146449Y0117611D01*
X0146599Y0117816D01*
X0146754Y0118018D01*
X0146754Y0083018D02*
X0163246Y0083018D01*
X0163873Y0077518D02*
X0165452Y0077518D01*
X0156127Y0077518D02*
X0153873Y0077518D01*
X0163246Y0083018D02*
X0163399Y0082819D01*
X0163547Y0082617D01*
X0163690Y0082412D01*
X0163828Y0082203D01*
X0163961Y0081991D01*
X0164089Y0081776D01*
X0164211Y0081558D01*
X0164329Y0081337D01*
X0164441Y0081113D01*
X0164548Y0080887D01*
X0164649Y0080658D01*
X0164745Y0080427D01*
X0164836Y0080193D01*
X0164921Y0079958D01*
X0165000Y0079720D01*
X0165073Y0079481D01*
X0165141Y0079240D01*
X0165203Y0078998D01*
X0165259Y0078754D01*
X0165310Y0078508D01*
X0165354Y0078262D01*
X0165393Y0078015D01*
X0165425Y0077767D01*
X0165452Y0077518D01*
X0165474Y0077263D01*
X0165489Y0077007D01*
X0165497Y0076751D01*
X0165500Y0076494D01*
X0165496Y0076238D01*
X0165486Y0075982D01*
X0165470Y0075726D01*
X0165448Y0075471D01*
X0165419Y0075216D01*
X0165384Y0074962D01*
X0165343Y0074709D01*
X0165296Y0074457D01*
X0165242Y0074207D01*
X0165183Y0073958D01*
X0165117Y0073710D01*
X0165046Y0073464D01*
X0164968Y0073219D01*
X0164885Y0072977D01*
X0164796Y0072737D01*
X0164700Y0072499D01*
X0164599Y0072263D01*
X0164493Y0072030D01*
X0164380Y0071800D01*
X0164262Y0071572D01*
X0164139Y0071348D01*
X0164010Y0071126D01*
X0163876Y0070908D01*
X0163736Y0070693D01*
X0163591Y0070482D01*
X0163441Y0070274D01*
X0163287Y0070070D01*
X0163127Y0069869D01*
X0162962Y0069673D01*
X0162793Y0069481D01*
X0162618Y0069292D01*
X0162440Y0069109D01*
X0162257Y0068929D01*
X0162069Y0068754D01*
X0161878Y0068584D01*
X0161682Y0068419D01*
X0161482Y0068258D01*
X0161279Y0068102D01*
X0161072Y0067952D01*
X0160861Y0067806D01*
X0160646Y0067665D01*
X0160429Y0067530D01*
X0160208Y0067400D01*
X0159984Y0067276D01*
X0159757Y0067157D01*
X0159527Y0067044D01*
X0159294Y0066936D01*
X0159059Y0066834D01*
X0158821Y0066738D01*
X0158582Y0066648D01*
X0158340Y0066563D01*
X0158096Y0066485D01*
X0151904Y0066485D02*
X0151662Y0066563D01*
X0151422Y0066647D01*
X0151184Y0066736D01*
X0150948Y0066831D01*
X0150714Y0066933D01*
X0150483Y0067039D01*
X0150255Y0067152D01*
X0150029Y0067269D01*
X0149806Y0067392D01*
X0149587Y0067521D01*
X0149370Y0067655D01*
X0149157Y0067794D01*
X0148947Y0067938D01*
X0148741Y0068087D01*
X0148539Y0068241D01*
X0148340Y0068400D01*
X0148145Y0068564D01*
X0147954Y0068733D01*
X0147768Y0068906D01*
X0147585Y0069083D01*
X0147407Y0069265D01*
X0147234Y0069451D01*
X0147065Y0069642D01*
X0146901Y0069836D01*
X0146741Y0070034D01*
X0146586Y0070236D01*
X0146437Y0070442D01*
X0146292Y0070651D01*
X0146152Y0070864D01*
X0146018Y0071080D01*
X0145889Y0071300D01*
X0145765Y0071522D01*
X0145646Y0071747D01*
X0145534Y0071975D01*
X0145426Y0072206D01*
X0145325Y0072439D01*
X0145229Y0072675D01*
X0145138Y0072913D01*
X0145054Y0073153D01*
X0144975Y0073395D01*
X0144902Y0073639D01*
X0144836Y0073885D01*
X0144775Y0074132D01*
X0144720Y0074380D01*
X0144671Y0074630D01*
X0144628Y0074881D01*
X0144592Y0075133D01*
X0144561Y0075385D01*
X0144537Y0075639D01*
X0144519Y0075892D01*
X0144507Y0076147D01*
X0144501Y0076401D01*
X0144501Y0076656D01*
X0144507Y0076910D01*
X0144520Y0077164D01*
X0144539Y0077418D01*
X0144564Y0077671D01*
X0144595Y0077924D01*
X0144632Y0078176D01*
X0144675Y0078426D01*
X0144724Y0078676D01*
X0144780Y0078925D01*
X0144841Y0079172D01*
X0144908Y0079417D01*
X0144981Y0079661D01*
X0145060Y0079903D01*
X0145145Y0080142D01*
X0145236Y0080380D01*
X0145333Y0080616D01*
X0145435Y0080849D01*
X0145543Y0081079D01*
X0145656Y0081307D01*
X0145775Y0081532D01*
X0145899Y0081754D01*
X0146029Y0081973D01*
X0146163Y0082189D01*
X0146303Y0082402D01*
X0146449Y0082611D01*
X0146599Y0082816D01*
X0146754Y0083018D01*
X0146127Y0077518D02*
X0144548Y0077518D01*
X0134508Y0086121D02*
X0134378Y0086265D01*
X0134244Y0086406D01*
X0134108Y0086543D01*
X0133967Y0086677D01*
X0133824Y0086808D01*
X0133678Y0086935D01*
X0133528Y0087059D01*
X0133376Y0087179D01*
X0133220Y0087295D01*
X0133062Y0087407D01*
X0132902Y0087516D01*
X0132738Y0087620D01*
X0132572Y0087721D01*
X0132404Y0087818D01*
X0132234Y0087910D01*
X0132061Y0087998D01*
X0131886Y0088082D01*
X0131709Y0088162D01*
X0131531Y0088238D01*
X0131350Y0088309D01*
X0131168Y0088376D01*
X0130984Y0088438D01*
X0130799Y0088496D01*
X0130613Y0088549D01*
X0130425Y0088598D01*
X0130236Y0088642D01*
X0130046Y0088682D01*
X0129856Y0088717D01*
X0129664Y0088748D01*
X0129472Y0088773D01*
X0129279Y0088794D01*
X0129086Y0088811D01*
X0128892Y0088823D01*
X0128698Y0088830D01*
X0128504Y0088832D01*
X0128310Y0088830D01*
X0128117Y0088823D01*
X0127923Y0088811D01*
X0127730Y0088794D01*
X0127537Y0088773D01*
X0127345Y0088747D01*
X0127153Y0088717D01*
X0126962Y0088682D01*
X0126772Y0088642D01*
X0126584Y0088598D01*
X0126396Y0088549D01*
X0126209Y0088496D01*
X0126024Y0088438D01*
X0125841Y0088375D01*
X0125658Y0088309D01*
X0125478Y0088237D01*
X0125299Y0088162D01*
X0125123Y0088082D01*
X0124948Y0087998D01*
X0124775Y0087909D01*
X0124605Y0087817D01*
X0124436Y0087720D01*
X0124271Y0087620D01*
X0124107Y0087515D01*
X0123947Y0087406D01*
X0123789Y0087294D01*
X0123633Y0087178D01*
X0123481Y0087058D01*
X0123331Y0086934D01*
X0123185Y0086807D01*
X0123042Y0086676D01*
X0122902Y0086542D01*
X0122765Y0086405D01*
X0122631Y0086264D01*
X0122501Y0086120D01*
X0122492Y0075915D02*
X0122622Y0075771D01*
X0122756Y0075630D01*
X0122892Y0075493D01*
X0123033Y0075359D01*
X0123176Y0075228D01*
X0123322Y0075101D01*
X0123472Y0074977D01*
X0123624Y0074857D01*
X0123780Y0074741D01*
X0123938Y0074629D01*
X0124098Y0074520D01*
X0124262Y0074416D01*
X0124428Y0074315D01*
X0124596Y0074218D01*
X0124766Y0074126D01*
X0124939Y0074038D01*
X0125114Y0073954D01*
X0125291Y0073874D01*
X0125469Y0073798D01*
X0125650Y0073727D01*
X0125832Y0073660D01*
X0126016Y0073598D01*
X0126201Y0073540D01*
X0126387Y0073487D01*
X0126575Y0073438D01*
X0126764Y0073394D01*
X0126954Y0073354D01*
X0127144Y0073319D01*
X0127336Y0073288D01*
X0127528Y0073263D01*
X0127721Y0073242D01*
X0127914Y0073225D01*
X0128108Y0073213D01*
X0128302Y0073206D01*
X0128496Y0073204D01*
X0128690Y0073206D01*
X0128883Y0073213D01*
X0129077Y0073225D01*
X0129270Y0073242D01*
X0129463Y0073263D01*
X0129655Y0073289D01*
X0129847Y0073319D01*
X0130038Y0073354D01*
X0130228Y0073394D01*
X0130416Y0073438D01*
X0130604Y0073487D01*
X0130791Y0073540D01*
X0130976Y0073598D01*
X0131159Y0073661D01*
X0131342Y0073727D01*
X0131522Y0073799D01*
X0131701Y0073874D01*
X0131877Y0073954D01*
X0132052Y0074038D01*
X0132225Y0074127D01*
X0132395Y0074219D01*
X0132564Y0074316D01*
X0132729Y0074416D01*
X0132893Y0074521D01*
X0133053Y0074630D01*
X0133211Y0074742D01*
X0133367Y0074858D01*
X0133519Y0074978D01*
X0133669Y0075102D01*
X0133815Y0075229D01*
X0133958Y0075360D01*
X0134098Y0075494D01*
X0134235Y0075631D01*
X0134369Y0075772D01*
X0134499Y0075916D01*
X0134499Y0044916D02*
X0134369Y0044772D01*
X0134235Y0044631D01*
X0134098Y0044494D01*
X0133958Y0044360D01*
X0133815Y0044229D01*
X0133669Y0044102D01*
X0133519Y0043978D01*
X0133367Y0043858D01*
X0133211Y0043742D01*
X0133053Y0043630D01*
X0132893Y0043521D01*
X0132729Y0043416D01*
X0132564Y0043316D01*
X0132395Y0043219D01*
X0132225Y0043127D01*
X0132052Y0043038D01*
X0131877Y0042954D01*
X0131701Y0042874D01*
X0131522Y0042799D01*
X0131342Y0042727D01*
X0131159Y0042661D01*
X0130976Y0042598D01*
X0130791Y0042540D01*
X0130604Y0042487D01*
X0130416Y0042438D01*
X0130228Y0042394D01*
X0130038Y0042354D01*
X0129847Y0042319D01*
X0129655Y0042289D01*
X0129463Y0042263D01*
X0129270Y0042242D01*
X0129077Y0042225D01*
X0128883Y0042213D01*
X0128690Y0042206D01*
X0128496Y0042204D01*
X0128302Y0042206D01*
X0128108Y0042213D01*
X0127914Y0042225D01*
X0127721Y0042242D01*
X0127528Y0042263D01*
X0127336Y0042288D01*
X0127144Y0042319D01*
X0126954Y0042354D01*
X0126764Y0042394D01*
X0126575Y0042438D01*
X0126387Y0042487D01*
X0126201Y0042540D01*
X0126016Y0042598D01*
X0125832Y0042660D01*
X0125650Y0042727D01*
X0125469Y0042798D01*
X0125291Y0042874D01*
X0125114Y0042954D01*
X0124939Y0043038D01*
X0124766Y0043126D01*
X0124596Y0043218D01*
X0124428Y0043315D01*
X0124262Y0043416D01*
X0124098Y0043520D01*
X0123938Y0043629D01*
X0123780Y0043741D01*
X0123624Y0043857D01*
X0123472Y0043977D01*
X0123322Y0044101D01*
X0123176Y0044228D01*
X0123033Y0044359D01*
X0122892Y0044493D01*
X0122756Y0044630D01*
X0122622Y0044771D01*
X0122492Y0044915D01*
X0122501Y0055120D02*
X0122631Y0055264D01*
X0122765Y0055405D01*
X0122902Y0055542D01*
X0123042Y0055676D01*
X0123185Y0055807D01*
X0123331Y0055934D01*
X0123481Y0056058D01*
X0123633Y0056178D01*
X0123789Y0056294D01*
X0123947Y0056406D01*
X0124107Y0056515D01*
X0124271Y0056620D01*
X0124436Y0056720D01*
X0124605Y0056817D01*
X0124775Y0056909D01*
X0124948Y0056998D01*
X0125123Y0057082D01*
X0125299Y0057162D01*
X0125478Y0057237D01*
X0125658Y0057309D01*
X0125841Y0057375D01*
X0126024Y0057438D01*
X0126209Y0057496D01*
X0126396Y0057549D01*
X0126584Y0057598D01*
X0126772Y0057642D01*
X0126962Y0057682D01*
X0127153Y0057717D01*
X0127345Y0057747D01*
X0127537Y0057773D01*
X0127730Y0057794D01*
X0127923Y0057811D01*
X0128117Y0057823D01*
X0128310Y0057830D01*
X0128504Y0057832D01*
X0128698Y0057830D01*
X0128892Y0057823D01*
X0129086Y0057811D01*
X0129279Y0057794D01*
X0129472Y0057773D01*
X0129664Y0057748D01*
X0129856Y0057717D01*
X0130046Y0057682D01*
X0130236Y0057642D01*
X0130425Y0057598D01*
X0130613Y0057549D01*
X0130799Y0057496D01*
X0130984Y0057438D01*
X0131168Y0057376D01*
X0131350Y0057309D01*
X0131531Y0057238D01*
X0131709Y0057162D01*
X0131886Y0057082D01*
X0132061Y0056998D01*
X0132234Y0056910D01*
X0132404Y0056818D01*
X0132572Y0056721D01*
X0132738Y0056620D01*
X0132902Y0056516D01*
X0133062Y0056407D01*
X0133220Y0056295D01*
X0133376Y0056179D01*
X0133528Y0056059D01*
X0133678Y0055935D01*
X0133824Y0055808D01*
X0133967Y0055677D01*
X0134108Y0055543D01*
X0134244Y0055406D01*
X0134378Y0055265D01*
X0134508Y0055121D01*
X0146754Y0048018D02*
X0163246Y0048018D01*
X0163873Y0042518D02*
X0165452Y0042518D01*
X0156127Y0042518D02*
X0153873Y0042518D01*
X0163246Y0048018D02*
X0163399Y0047819D01*
X0163547Y0047617D01*
X0163690Y0047412D01*
X0163828Y0047203D01*
X0163961Y0046991D01*
X0164089Y0046776D01*
X0164211Y0046558D01*
X0164329Y0046337D01*
X0164441Y0046113D01*
X0164548Y0045887D01*
X0164649Y0045658D01*
X0164745Y0045427D01*
X0164836Y0045193D01*
X0164921Y0044958D01*
X0165000Y0044720D01*
X0165073Y0044481D01*
X0165141Y0044240D01*
X0165203Y0043998D01*
X0165259Y0043754D01*
X0165310Y0043508D01*
X0165354Y0043262D01*
X0165393Y0043015D01*
X0165425Y0042767D01*
X0165452Y0042518D01*
X0165474Y0042263D01*
X0165489Y0042007D01*
X0165497Y0041751D01*
X0165500Y0041494D01*
X0165496Y0041238D01*
X0165486Y0040982D01*
X0165470Y0040726D01*
X0165448Y0040471D01*
X0165419Y0040216D01*
X0165384Y0039962D01*
X0165343Y0039709D01*
X0165296Y0039457D01*
X0165242Y0039207D01*
X0165183Y0038958D01*
X0165117Y0038710D01*
X0165046Y0038464D01*
X0164968Y0038219D01*
X0164885Y0037977D01*
X0164796Y0037737D01*
X0164700Y0037499D01*
X0164599Y0037263D01*
X0164493Y0037030D01*
X0164380Y0036800D01*
X0164262Y0036572D01*
X0164139Y0036348D01*
X0164010Y0036126D01*
X0163876Y0035908D01*
X0163736Y0035693D01*
X0163591Y0035482D01*
X0163441Y0035274D01*
X0163287Y0035070D01*
X0163127Y0034869D01*
X0162962Y0034673D01*
X0162793Y0034481D01*
X0162618Y0034292D01*
X0162440Y0034109D01*
X0162257Y0033929D01*
X0162069Y0033754D01*
X0161878Y0033584D01*
X0161682Y0033419D01*
X0161482Y0033258D01*
X0161279Y0033102D01*
X0161072Y0032952D01*
X0160861Y0032806D01*
X0160646Y0032665D01*
X0160429Y0032530D01*
X0160208Y0032400D01*
X0159984Y0032276D01*
X0159757Y0032157D01*
X0159527Y0032044D01*
X0159294Y0031936D01*
X0159059Y0031834D01*
X0158821Y0031738D01*
X0158582Y0031648D01*
X0158340Y0031563D01*
X0158096Y0031485D01*
X0151904Y0031485D02*
X0151662Y0031563D01*
X0151422Y0031647D01*
X0151184Y0031736D01*
X0150948Y0031831D01*
X0150714Y0031933D01*
X0150483Y0032039D01*
X0150255Y0032152D01*
X0150029Y0032269D01*
X0149806Y0032392D01*
X0149587Y0032521D01*
X0149370Y0032655D01*
X0149157Y0032794D01*
X0148947Y0032938D01*
X0148741Y0033087D01*
X0148539Y0033241D01*
X0148340Y0033400D01*
X0148145Y0033564D01*
X0147954Y0033733D01*
X0147768Y0033906D01*
X0147585Y0034083D01*
X0147407Y0034265D01*
X0147234Y0034451D01*
X0147065Y0034642D01*
X0146901Y0034836D01*
X0146741Y0035034D01*
X0146586Y0035236D01*
X0146437Y0035442D01*
X0146292Y0035651D01*
X0146152Y0035864D01*
X0146018Y0036080D01*
X0145889Y0036300D01*
X0145765Y0036522D01*
X0145646Y0036747D01*
X0145534Y0036975D01*
X0145426Y0037206D01*
X0145325Y0037439D01*
X0145229Y0037675D01*
X0145138Y0037913D01*
X0145054Y0038153D01*
X0144975Y0038395D01*
X0144902Y0038639D01*
X0144836Y0038885D01*
X0144775Y0039132D01*
X0144720Y0039380D01*
X0144671Y0039630D01*
X0144628Y0039881D01*
X0144592Y0040133D01*
X0144561Y0040385D01*
X0144537Y0040639D01*
X0144519Y0040892D01*
X0144507Y0041147D01*
X0144501Y0041401D01*
X0144501Y0041656D01*
X0144507Y0041910D01*
X0144520Y0042164D01*
X0144539Y0042418D01*
X0144564Y0042671D01*
X0144595Y0042924D01*
X0144632Y0043176D01*
X0144675Y0043426D01*
X0144724Y0043676D01*
X0144780Y0043925D01*
X0144841Y0044172D01*
X0144908Y0044417D01*
X0144981Y0044661D01*
X0145060Y0044903D01*
X0145145Y0045142D01*
X0145236Y0045380D01*
X0145333Y0045616D01*
X0145435Y0045849D01*
X0145543Y0046079D01*
X0145656Y0046307D01*
X0145775Y0046532D01*
X0145899Y0046754D01*
X0146029Y0046973D01*
X0146163Y0047189D01*
X0146303Y0047402D01*
X0146449Y0047611D01*
X0146599Y0047816D01*
X0146754Y0048018D01*
X0146127Y0042518D02*
X0144548Y0042518D01*
X0162726Y0016618D02*
X0017100Y0016618D01*
X0017100Y0197539D02*
X0162726Y0197539D01*
D13*
X0005100Y0028429D02*
X0016911Y0016618D01*
X0005100Y0028429D02*
X0005100Y0066518D01*
X0032600Y0066518D01*
X0045100Y0052618D01*
X0059100Y0052618D01*
X0072100Y0066618D01*
X0072100Y0147539D01*
X0059100Y0161539D01*
X0045100Y0161539D01*
X0032600Y0147639D01*
X0005100Y0147639D01*
X0005100Y0185767D01*
X0016911Y0197578D01*
X0035043Y0186311D02*
X0035043Y0184811D01*
X0035543Y0184311D01*
X0035543Y0170311D01*
X0035043Y0169811D01*
X0035043Y0168311D01*
X0035045Y0168251D01*
X0035050Y0168190D01*
X0035059Y0168131D01*
X0035072Y0168072D01*
X0035088Y0168013D01*
X0035108Y0167956D01*
X0035131Y0167901D01*
X0035158Y0167846D01*
X0035187Y0167794D01*
X0035220Y0167743D01*
X0035256Y0167694D01*
X0035294Y0167648D01*
X0035336Y0167604D01*
X0035380Y0167562D01*
X0035426Y0167524D01*
X0035475Y0167488D01*
X0035526Y0167455D01*
X0035578Y0167426D01*
X0035633Y0167399D01*
X0035688Y0167376D01*
X0035745Y0167356D01*
X0035804Y0167340D01*
X0035863Y0167327D01*
X0035922Y0167318D01*
X0035983Y0167313D01*
X0036043Y0167311D01*
X0042043Y0167311D01*
X0042103Y0167313D01*
X0042164Y0167318D01*
X0042223Y0167327D01*
X0042282Y0167340D01*
X0042341Y0167356D01*
X0042398Y0167376D01*
X0042453Y0167399D01*
X0042508Y0167426D01*
X0042560Y0167455D01*
X0042611Y0167488D01*
X0042660Y0167524D01*
X0042706Y0167562D01*
X0042750Y0167604D01*
X0042792Y0167648D01*
X0042830Y0167694D01*
X0042866Y0167743D01*
X0042899Y0167794D01*
X0042928Y0167846D01*
X0042955Y0167901D01*
X0042978Y0167956D01*
X0042998Y0168013D01*
X0043014Y0168072D01*
X0043027Y0168131D01*
X0043036Y0168190D01*
X0043041Y0168251D01*
X0043043Y0168311D01*
X0043043Y0169811D01*
X0042543Y0170311D01*
X0042543Y0184311D01*
X0043043Y0184811D01*
X0043043Y0186311D01*
X0043041Y0186371D01*
X0043036Y0186432D01*
X0043027Y0186491D01*
X0043014Y0186550D01*
X0042998Y0186609D01*
X0042978Y0186666D01*
X0042955Y0186721D01*
X0042928Y0186776D01*
X0042899Y0186828D01*
X0042866Y0186879D01*
X0042830Y0186928D01*
X0042792Y0186974D01*
X0042750Y0187018D01*
X0042706Y0187060D01*
X0042660Y0187098D01*
X0042611Y0187134D01*
X0042560Y0187167D01*
X0042508Y0187196D01*
X0042453Y0187223D01*
X0042398Y0187246D01*
X0042341Y0187266D01*
X0042282Y0187282D01*
X0042223Y0187295D01*
X0042164Y0187304D01*
X0042103Y0187309D01*
X0042043Y0187311D01*
X0036043Y0187311D01*
X0035983Y0187309D01*
X0035922Y0187304D01*
X0035863Y0187295D01*
X0035804Y0187282D01*
X0035745Y0187266D01*
X0035688Y0187246D01*
X0035633Y0187223D01*
X0035578Y0187196D01*
X0035526Y0187167D01*
X0035475Y0187134D01*
X0035426Y0187098D01*
X0035380Y0187060D01*
X0035336Y0187018D01*
X0035294Y0186974D01*
X0035256Y0186928D01*
X0035220Y0186879D01*
X0035187Y0186828D01*
X0035158Y0186776D01*
X0035131Y0186721D01*
X0035108Y0186666D01*
X0035088Y0186609D01*
X0035072Y0186550D01*
X0035059Y0186491D01*
X0035050Y0186432D01*
X0035045Y0186371D01*
X0035043Y0186311D01*
X0060993Y0186275D02*
X0060993Y0184775D01*
X0061493Y0184275D01*
X0061493Y0170275D01*
X0060993Y0169775D01*
X0060993Y0168275D01*
X0060995Y0168215D01*
X0061000Y0168154D01*
X0061009Y0168095D01*
X0061022Y0168036D01*
X0061038Y0167977D01*
X0061058Y0167920D01*
X0061081Y0167865D01*
X0061108Y0167810D01*
X0061137Y0167758D01*
X0061170Y0167707D01*
X0061206Y0167658D01*
X0061244Y0167612D01*
X0061286Y0167568D01*
X0061330Y0167526D01*
X0061376Y0167488D01*
X0061425Y0167452D01*
X0061476Y0167419D01*
X0061528Y0167390D01*
X0061583Y0167363D01*
X0061638Y0167340D01*
X0061695Y0167320D01*
X0061754Y0167304D01*
X0061813Y0167291D01*
X0061872Y0167282D01*
X0061933Y0167277D01*
X0061993Y0167275D01*
X0067993Y0167275D01*
X0068053Y0167277D01*
X0068114Y0167282D01*
X0068173Y0167291D01*
X0068232Y0167304D01*
X0068291Y0167320D01*
X0068348Y0167340D01*
X0068403Y0167363D01*
X0068458Y0167390D01*
X0068510Y0167419D01*
X0068561Y0167452D01*
X0068610Y0167488D01*
X0068656Y0167526D01*
X0068700Y0167568D01*
X0068742Y0167612D01*
X0068780Y0167658D01*
X0068816Y0167707D01*
X0068849Y0167758D01*
X0068878Y0167810D01*
X0068905Y0167865D01*
X0068928Y0167920D01*
X0068948Y0167977D01*
X0068964Y0168036D01*
X0068977Y0168095D01*
X0068986Y0168154D01*
X0068991Y0168215D01*
X0068993Y0168275D01*
X0068993Y0169775D01*
X0068493Y0170275D01*
X0068493Y0184275D01*
X0068993Y0184775D01*
X0068993Y0186275D01*
X0068991Y0186335D01*
X0068986Y0186396D01*
X0068977Y0186455D01*
X0068964Y0186514D01*
X0068948Y0186573D01*
X0068928Y0186630D01*
X0068905Y0186685D01*
X0068878Y0186740D01*
X0068849Y0186792D01*
X0068816Y0186843D01*
X0068780Y0186892D01*
X0068742Y0186938D01*
X0068700Y0186982D01*
X0068656Y0187024D01*
X0068610Y0187062D01*
X0068561Y0187098D01*
X0068510Y0187131D01*
X0068458Y0187160D01*
X0068403Y0187187D01*
X0068348Y0187210D01*
X0068291Y0187230D01*
X0068232Y0187246D01*
X0068173Y0187259D01*
X0068114Y0187268D01*
X0068053Y0187273D01*
X0067993Y0187275D01*
X0061993Y0187275D01*
X0061933Y0187273D01*
X0061872Y0187268D01*
X0061813Y0187259D01*
X0061754Y0187246D01*
X0061695Y0187230D01*
X0061638Y0187210D01*
X0061583Y0187187D01*
X0061528Y0187160D01*
X0061476Y0187131D01*
X0061425Y0187098D01*
X0061376Y0187062D01*
X0061330Y0187024D01*
X0061286Y0186982D01*
X0061244Y0186938D01*
X0061206Y0186892D01*
X0061170Y0186843D01*
X0061137Y0186792D01*
X0061108Y0186740D01*
X0061081Y0186685D01*
X0061058Y0186630D01*
X0061038Y0186573D01*
X0061022Y0186514D01*
X0061009Y0186455D01*
X0061000Y0186396D01*
X0060995Y0186335D01*
X0060993Y0186275D01*
X0077042Y0160764D02*
X0083042Y0160764D01*
X0083102Y0160762D01*
X0083163Y0160757D01*
X0083222Y0160748D01*
X0083281Y0160735D01*
X0083340Y0160719D01*
X0083397Y0160699D01*
X0083452Y0160676D01*
X0083507Y0160649D01*
X0083559Y0160620D01*
X0083610Y0160587D01*
X0083659Y0160551D01*
X0083705Y0160513D01*
X0083749Y0160471D01*
X0083791Y0160427D01*
X0083829Y0160381D01*
X0083865Y0160332D01*
X0083898Y0160281D01*
X0083927Y0160229D01*
X0083954Y0160174D01*
X0083977Y0160119D01*
X0083997Y0160062D01*
X0084013Y0160003D01*
X0084026Y0159944D01*
X0084035Y0159885D01*
X0084040Y0159824D01*
X0084042Y0159764D01*
X0084042Y0158264D01*
X0083542Y0157764D01*
X0083542Y0143764D01*
X0084042Y0143264D01*
X0084042Y0141764D01*
X0084040Y0141704D01*
X0084035Y0141643D01*
X0084026Y0141584D01*
X0084013Y0141525D01*
X0083997Y0141466D01*
X0083977Y0141409D01*
X0083954Y0141354D01*
X0083927Y0141299D01*
X0083898Y0141247D01*
X0083865Y0141196D01*
X0083829Y0141147D01*
X0083791Y0141101D01*
X0083749Y0141057D01*
X0083705Y0141015D01*
X0083659Y0140977D01*
X0083610Y0140941D01*
X0083559Y0140908D01*
X0083507Y0140879D01*
X0083452Y0140852D01*
X0083397Y0140829D01*
X0083340Y0140809D01*
X0083281Y0140793D01*
X0083222Y0140780D01*
X0083163Y0140771D01*
X0083102Y0140766D01*
X0083042Y0140764D01*
X0077042Y0140764D01*
X0076982Y0140766D01*
X0076921Y0140771D01*
X0076862Y0140780D01*
X0076803Y0140793D01*
X0076744Y0140809D01*
X0076687Y0140829D01*
X0076632Y0140852D01*
X0076577Y0140879D01*
X0076525Y0140908D01*
X0076474Y0140941D01*
X0076425Y0140977D01*
X0076379Y0141015D01*
X0076335Y0141057D01*
X0076293Y0141101D01*
X0076255Y0141147D01*
X0076219Y0141196D01*
X0076186Y0141247D01*
X0076157Y0141299D01*
X0076130Y0141354D01*
X0076107Y0141409D01*
X0076087Y0141466D01*
X0076071Y0141525D01*
X0076058Y0141584D01*
X0076049Y0141643D01*
X0076044Y0141704D01*
X0076042Y0141764D01*
X0076042Y0143264D01*
X0076542Y0143764D01*
X0076542Y0157764D01*
X0076042Y0158264D01*
X0076042Y0159764D01*
X0076044Y0159824D01*
X0076049Y0159885D01*
X0076058Y0159944D01*
X0076071Y0160003D01*
X0076087Y0160062D01*
X0076107Y0160119D01*
X0076130Y0160174D01*
X0076157Y0160229D01*
X0076186Y0160281D01*
X0076219Y0160332D01*
X0076255Y0160381D01*
X0076293Y0160427D01*
X0076335Y0160471D01*
X0076379Y0160513D01*
X0076425Y0160551D01*
X0076474Y0160587D01*
X0076525Y0160620D01*
X0076577Y0160649D01*
X0076632Y0160676D01*
X0076687Y0160699D01*
X0076744Y0160719D01*
X0076803Y0160735D01*
X0076862Y0160748D01*
X0076921Y0160757D01*
X0076982Y0160762D01*
X0077042Y0160764D01*
X0089628Y0159287D02*
X0099587Y0167643D01*
X0099586Y0167643D02*
X0099654Y0167698D01*
X0099725Y0167749D01*
X0099797Y0167798D01*
X0099872Y0167843D01*
X0099948Y0167885D01*
X0100027Y0167924D01*
X0100107Y0167959D01*
X0100188Y0167990D01*
X0100271Y0168018D01*
X0100354Y0168043D01*
X0100439Y0168064D01*
X0100525Y0168081D01*
X0100611Y0168094D01*
X0100698Y0168103D01*
X0100785Y0168109D01*
X0100872Y0168111D01*
X0100959Y0168109D01*
X0101046Y0168103D01*
X0101133Y0168094D01*
X0101219Y0168081D01*
X0101305Y0168064D01*
X0101390Y0168043D01*
X0101473Y0168018D01*
X0101556Y0167990D01*
X0101637Y0167959D01*
X0101717Y0167924D01*
X0101795Y0167885D01*
X0101872Y0167843D01*
X0101947Y0167798D01*
X0102019Y0167749D01*
X0102090Y0167698D01*
X0102158Y0167643D01*
X0102223Y0167586D01*
X0102286Y0167525D01*
X0102347Y0167462D01*
X0102404Y0167397D01*
X0101330Y0163232D02*
X0098419Y0160789D01*
X0096504Y0159182D02*
X0093670Y0156804D01*
X0092596Y0152639D02*
X0092653Y0152574D01*
X0092714Y0152511D01*
X0092777Y0152450D01*
X0092842Y0152393D01*
X0092910Y0152338D01*
X0092981Y0152287D01*
X0093053Y0152238D01*
X0093128Y0152193D01*
X0093205Y0152151D01*
X0093283Y0152112D01*
X0093363Y0152077D01*
X0093444Y0152046D01*
X0093527Y0152018D01*
X0093610Y0151993D01*
X0093695Y0151972D01*
X0093781Y0151955D01*
X0093867Y0151942D01*
X0093954Y0151933D01*
X0094041Y0151927D01*
X0094128Y0151925D01*
X0094215Y0151927D01*
X0094302Y0151933D01*
X0094389Y0151942D01*
X0094475Y0151955D01*
X0094561Y0151972D01*
X0094646Y0151993D01*
X0094729Y0152018D01*
X0094812Y0152046D01*
X0094893Y0152077D01*
X0094973Y0152112D01*
X0095052Y0152151D01*
X0095128Y0152193D01*
X0095203Y0152238D01*
X0095275Y0152287D01*
X0095346Y0152338D01*
X0095414Y0152393D01*
X0095413Y0152392D02*
X0105372Y0160749D01*
X0105437Y0160806D01*
X0105500Y0160867D01*
X0105561Y0160930D01*
X0105618Y0160995D01*
X0105673Y0161063D01*
X0105724Y0161134D01*
X0105773Y0161206D01*
X0105818Y0161281D01*
X0105860Y0161357D01*
X0105899Y0161436D01*
X0105934Y0161516D01*
X0105965Y0161597D01*
X0105993Y0161680D01*
X0106018Y0161763D01*
X0106039Y0161848D01*
X0106056Y0161934D01*
X0106069Y0162020D01*
X0106078Y0162107D01*
X0106084Y0162194D01*
X0106086Y0162281D01*
X0106084Y0162368D01*
X0106078Y0162455D01*
X0106069Y0162542D01*
X0106056Y0162628D01*
X0106039Y0162714D01*
X0106018Y0162799D01*
X0105993Y0162882D01*
X0105965Y0162965D01*
X0105934Y0163046D01*
X0105899Y0163126D01*
X0105860Y0163204D01*
X0105818Y0163281D01*
X0105773Y0163356D01*
X0105724Y0163428D01*
X0105673Y0163499D01*
X0105618Y0163567D01*
X0110547Y0164518D02*
X0112126Y0164518D01*
X0112752Y0170018D02*
X0129248Y0170018D01*
X0129874Y0164518D02*
X0131453Y0164518D01*
X0141500Y0163018D02*
X0141500Y0169018D01*
X0141502Y0169078D01*
X0141507Y0169139D01*
X0141516Y0169198D01*
X0141529Y0169257D01*
X0141545Y0169316D01*
X0141565Y0169373D01*
X0141588Y0169428D01*
X0141615Y0169483D01*
X0141644Y0169535D01*
X0141677Y0169586D01*
X0141713Y0169635D01*
X0141751Y0169681D01*
X0141793Y0169725D01*
X0141837Y0169767D01*
X0141883Y0169805D01*
X0141932Y0169841D01*
X0141983Y0169874D01*
X0142035Y0169903D01*
X0142090Y0169930D01*
X0142145Y0169953D01*
X0142202Y0169973D01*
X0142261Y0169989D01*
X0142320Y0170002D01*
X0142379Y0170011D01*
X0142440Y0170016D01*
X0142500Y0170018D01*
X0144000Y0170018D01*
X0144500Y0169518D01*
X0158500Y0169518D01*
X0159000Y0170018D01*
X0160500Y0170018D01*
X0160500Y0171018D02*
X0159000Y0171018D01*
X0158500Y0171518D01*
X0144500Y0171518D01*
X0144000Y0171018D01*
X0142500Y0171018D01*
X0142440Y0171020D01*
X0142379Y0171025D01*
X0142320Y0171034D01*
X0142261Y0171047D01*
X0142202Y0171063D01*
X0142145Y0171083D01*
X0142090Y0171106D01*
X0142035Y0171133D01*
X0141983Y0171162D01*
X0141932Y0171195D01*
X0141883Y0171231D01*
X0141837Y0171269D01*
X0141793Y0171311D01*
X0141751Y0171355D01*
X0141713Y0171401D01*
X0141677Y0171450D01*
X0141644Y0171501D01*
X0141615Y0171553D01*
X0141588Y0171608D01*
X0141565Y0171663D01*
X0141545Y0171720D01*
X0141529Y0171779D01*
X0141516Y0171838D01*
X0141507Y0171897D01*
X0141502Y0171958D01*
X0141500Y0172018D01*
X0141500Y0178018D01*
X0141502Y0178078D01*
X0141507Y0178139D01*
X0141516Y0178198D01*
X0141529Y0178257D01*
X0141545Y0178316D01*
X0141565Y0178373D01*
X0141588Y0178428D01*
X0141615Y0178483D01*
X0141644Y0178535D01*
X0141677Y0178586D01*
X0141713Y0178635D01*
X0141751Y0178681D01*
X0141793Y0178725D01*
X0141837Y0178767D01*
X0141883Y0178805D01*
X0141932Y0178841D01*
X0141983Y0178874D01*
X0142035Y0178903D01*
X0142090Y0178930D01*
X0142145Y0178953D01*
X0142202Y0178973D01*
X0142261Y0178989D01*
X0142320Y0179002D01*
X0142379Y0179011D01*
X0142440Y0179016D01*
X0142500Y0179018D01*
X0144000Y0179018D01*
X0144500Y0178518D01*
X0158500Y0178518D01*
X0159000Y0179018D01*
X0160500Y0179018D01*
X0160500Y0180018D02*
X0159000Y0180018D01*
X0158500Y0180518D01*
X0144500Y0180518D01*
X0144000Y0180018D01*
X0142500Y0180018D01*
X0142440Y0180020D01*
X0142379Y0180025D01*
X0142320Y0180034D01*
X0142261Y0180047D01*
X0142202Y0180063D01*
X0142145Y0180083D01*
X0142090Y0180106D01*
X0142035Y0180133D01*
X0141983Y0180162D01*
X0141932Y0180195D01*
X0141883Y0180231D01*
X0141837Y0180269D01*
X0141793Y0180311D01*
X0141751Y0180355D01*
X0141713Y0180401D01*
X0141677Y0180450D01*
X0141644Y0180501D01*
X0141615Y0180553D01*
X0141588Y0180608D01*
X0141565Y0180663D01*
X0141545Y0180720D01*
X0141529Y0180779D01*
X0141516Y0180838D01*
X0141507Y0180897D01*
X0141502Y0180958D01*
X0141500Y0181018D01*
X0141500Y0187018D01*
X0141502Y0187078D01*
X0141507Y0187139D01*
X0141516Y0187198D01*
X0141529Y0187257D01*
X0141545Y0187316D01*
X0141565Y0187373D01*
X0141588Y0187428D01*
X0141615Y0187483D01*
X0141644Y0187535D01*
X0141677Y0187586D01*
X0141713Y0187635D01*
X0141751Y0187681D01*
X0141793Y0187725D01*
X0141837Y0187767D01*
X0141883Y0187805D01*
X0141932Y0187841D01*
X0141983Y0187874D01*
X0142035Y0187903D01*
X0142090Y0187930D01*
X0142145Y0187953D01*
X0142202Y0187973D01*
X0142261Y0187989D01*
X0142320Y0188002D01*
X0142379Y0188011D01*
X0142440Y0188016D01*
X0142500Y0188018D01*
X0144000Y0188018D01*
X0144500Y0187518D01*
X0158500Y0187518D01*
X0159000Y0188018D01*
X0160500Y0188018D01*
X0160560Y0188016D01*
X0160621Y0188011D01*
X0160680Y0188002D01*
X0160739Y0187989D01*
X0160798Y0187973D01*
X0160855Y0187953D01*
X0160910Y0187930D01*
X0160965Y0187903D01*
X0161017Y0187874D01*
X0161068Y0187841D01*
X0161117Y0187805D01*
X0161163Y0187767D01*
X0161207Y0187725D01*
X0161249Y0187681D01*
X0161287Y0187635D01*
X0161323Y0187586D01*
X0161356Y0187535D01*
X0161385Y0187483D01*
X0161412Y0187428D01*
X0161435Y0187373D01*
X0161455Y0187316D01*
X0161471Y0187257D01*
X0161484Y0187198D01*
X0161493Y0187139D01*
X0161498Y0187078D01*
X0161500Y0187018D01*
X0161500Y0181018D01*
X0161498Y0180958D01*
X0161493Y0180897D01*
X0161484Y0180838D01*
X0161471Y0180779D01*
X0161455Y0180720D01*
X0161435Y0180663D01*
X0161412Y0180608D01*
X0161385Y0180553D01*
X0161356Y0180501D01*
X0161323Y0180450D01*
X0161287Y0180401D01*
X0161249Y0180355D01*
X0161207Y0180311D01*
X0161163Y0180269D01*
X0161117Y0180231D01*
X0161068Y0180195D01*
X0161017Y0180162D01*
X0160965Y0180133D01*
X0160910Y0180106D01*
X0160855Y0180083D01*
X0160798Y0180063D01*
X0160739Y0180047D01*
X0160680Y0180034D01*
X0160621Y0180025D01*
X0160560Y0180020D01*
X0160500Y0180018D01*
X0160500Y0179018D02*
X0160560Y0179016D01*
X0160621Y0179011D01*
X0160680Y0179002D01*
X0160739Y0178989D01*
X0160798Y0178973D01*
X0160855Y0178953D01*
X0160910Y0178930D01*
X0160965Y0178903D01*
X0161017Y0178874D01*
X0161068Y0178841D01*
X0161117Y0178805D01*
X0161163Y0178767D01*
X0161207Y0178725D01*
X0161249Y0178681D01*
X0161287Y0178635D01*
X0161323Y0178586D01*
X0161356Y0178535D01*
X0161385Y0178483D01*
X0161412Y0178428D01*
X0161435Y0178373D01*
X0161455Y0178316D01*
X0161471Y0178257D01*
X0161484Y0178198D01*
X0161493Y0178139D01*
X0161498Y0178078D01*
X0161500Y0178018D01*
X0161500Y0172018D01*
X0161498Y0171958D01*
X0161493Y0171897D01*
X0161484Y0171838D01*
X0161471Y0171779D01*
X0161455Y0171720D01*
X0161435Y0171663D01*
X0161412Y0171608D01*
X0161385Y0171553D01*
X0161356Y0171501D01*
X0161323Y0171450D01*
X0161287Y0171401D01*
X0161249Y0171355D01*
X0161207Y0171311D01*
X0161163Y0171269D01*
X0161117Y0171231D01*
X0161068Y0171195D01*
X0161017Y0171162D01*
X0160965Y0171133D01*
X0160910Y0171106D01*
X0160855Y0171083D01*
X0160798Y0171063D01*
X0160739Y0171047D01*
X0160680Y0171034D01*
X0160621Y0171025D01*
X0160560Y0171020D01*
X0160500Y0171018D01*
X0160500Y0170018D02*
X0160560Y0170016D01*
X0160621Y0170011D01*
X0160680Y0170002D01*
X0160739Y0169989D01*
X0160798Y0169973D01*
X0160855Y0169953D01*
X0160910Y0169930D01*
X0160965Y0169903D01*
X0161017Y0169874D01*
X0161068Y0169841D01*
X0161117Y0169805D01*
X0161163Y0169767D01*
X0161207Y0169725D01*
X0161249Y0169681D01*
X0161287Y0169635D01*
X0161323Y0169586D01*
X0161356Y0169535D01*
X0161385Y0169483D01*
X0161412Y0169428D01*
X0161435Y0169373D01*
X0161455Y0169316D01*
X0161471Y0169257D01*
X0161484Y0169198D01*
X0161493Y0169139D01*
X0161498Y0169078D01*
X0161500Y0169018D01*
X0161500Y0163018D01*
X0161498Y0162958D01*
X0161493Y0162897D01*
X0161484Y0162838D01*
X0161471Y0162779D01*
X0161455Y0162720D01*
X0161435Y0162663D01*
X0161412Y0162608D01*
X0161385Y0162553D01*
X0161356Y0162501D01*
X0161323Y0162450D01*
X0161287Y0162401D01*
X0161249Y0162355D01*
X0161207Y0162311D01*
X0161163Y0162269D01*
X0161117Y0162231D01*
X0161068Y0162195D01*
X0161017Y0162162D01*
X0160965Y0162133D01*
X0160910Y0162106D01*
X0160855Y0162083D01*
X0160798Y0162063D01*
X0160739Y0162047D01*
X0160680Y0162034D01*
X0160621Y0162025D01*
X0160560Y0162020D01*
X0160500Y0162018D01*
X0159000Y0162018D01*
X0158500Y0162518D01*
X0144500Y0162518D01*
X0144000Y0162018D01*
X0142500Y0162018D01*
X0142440Y0162020D01*
X0142379Y0162025D01*
X0142320Y0162034D01*
X0142261Y0162047D01*
X0142202Y0162063D01*
X0142145Y0162083D01*
X0142090Y0162106D01*
X0142035Y0162133D01*
X0141983Y0162162D01*
X0141932Y0162195D01*
X0141883Y0162231D01*
X0141837Y0162269D01*
X0141793Y0162311D01*
X0141751Y0162355D01*
X0141713Y0162401D01*
X0141677Y0162450D01*
X0141644Y0162501D01*
X0141615Y0162553D01*
X0141588Y0162608D01*
X0141565Y0162663D01*
X0141545Y0162720D01*
X0141529Y0162779D01*
X0141516Y0162838D01*
X0141507Y0162897D01*
X0141502Y0162958D01*
X0141500Y0163018D01*
X0130993Y0151152D02*
X0097993Y0151152D01*
X0097895Y0151150D01*
X0097797Y0151144D01*
X0097699Y0151135D01*
X0097602Y0151121D01*
X0097505Y0151104D01*
X0097409Y0151083D01*
X0097314Y0151058D01*
X0097220Y0151030D01*
X0097128Y0150997D01*
X0097036Y0150962D01*
X0096946Y0150922D01*
X0096858Y0150880D01*
X0096771Y0150833D01*
X0096687Y0150784D01*
X0096604Y0150731D01*
X0096524Y0150675D01*
X0096445Y0150615D01*
X0096369Y0150553D01*
X0096296Y0150488D01*
X0096225Y0150420D01*
X0096157Y0150349D01*
X0096092Y0150276D01*
X0096030Y0150200D01*
X0095970Y0150121D01*
X0095914Y0150041D01*
X0095861Y0149958D01*
X0095812Y0149874D01*
X0095765Y0149787D01*
X0095723Y0149699D01*
X0095683Y0149609D01*
X0095648Y0149517D01*
X0095615Y0149425D01*
X0095587Y0149331D01*
X0095562Y0149236D01*
X0095541Y0149140D01*
X0095524Y0149043D01*
X0095510Y0148946D01*
X0095501Y0148848D01*
X0095495Y0148750D01*
X0095493Y0148652D01*
X0095493Y0129652D01*
X0095495Y0129554D01*
X0095501Y0129456D01*
X0095510Y0129358D01*
X0095524Y0129261D01*
X0095541Y0129164D01*
X0095562Y0129068D01*
X0095587Y0128973D01*
X0095615Y0128879D01*
X0095648Y0128787D01*
X0095683Y0128695D01*
X0095723Y0128605D01*
X0095765Y0128517D01*
X0095812Y0128430D01*
X0095861Y0128346D01*
X0095914Y0128263D01*
X0095970Y0128183D01*
X0096030Y0128104D01*
X0096092Y0128028D01*
X0096157Y0127955D01*
X0096225Y0127884D01*
X0096296Y0127816D01*
X0096369Y0127751D01*
X0096445Y0127689D01*
X0096524Y0127629D01*
X0096604Y0127573D01*
X0096687Y0127520D01*
X0096771Y0127471D01*
X0096858Y0127424D01*
X0096946Y0127382D01*
X0097036Y0127342D01*
X0097128Y0127307D01*
X0097220Y0127274D01*
X0097314Y0127246D01*
X0097409Y0127221D01*
X0097505Y0127200D01*
X0097602Y0127183D01*
X0097699Y0127169D01*
X0097797Y0127160D01*
X0097895Y0127154D01*
X0097993Y0127152D01*
X0130993Y0127152D01*
X0131285Y0127156D01*
X0131577Y0127166D01*
X0131869Y0127184D01*
X0132160Y0127209D01*
X0132451Y0127241D01*
X0132740Y0127280D01*
X0133029Y0127326D01*
X0133316Y0127379D01*
X0133602Y0127439D01*
X0133887Y0127506D01*
X0134169Y0127580D01*
X0134450Y0127661D01*
X0134729Y0127748D01*
X0135006Y0127843D01*
X0135280Y0127944D01*
X0135551Y0128052D01*
X0135820Y0128166D01*
X0136086Y0128287D01*
X0136350Y0128414D01*
X0136609Y0128547D01*
X0136866Y0128687D01*
X0137119Y0128834D01*
X0137369Y0128986D01*
X0137614Y0129144D01*
X0137856Y0129308D01*
X0138094Y0129478D01*
X0138327Y0129654D01*
X0138556Y0129835D01*
X0138781Y0130022D01*
X0139001Y0130215D01*
X0139216Y0130412D01*
X0139426Y0130615D01*
X0139632Y0130823D01*
X0139832Y0131036D01*
X0140027Y0131254D01*
X0140217Y0131476D01*
X0140401Y0131703D01*
X0140580Y0131934D01*
X0140752Y0132170D01*
X0140920Y0132409D01*
X0141081Y0132653D01*
X0141236Y0132901D01*
X0141385Y0133152D01*
X0141528Y0133407D01*
X0141665Y0133665D01*
X0141796Y0133927D01*
X0141920Y0134191D01*
X0142037Y0134459D01*
X0142148Y0134729D01*
X0142253Y0135002D01*
X0142350Y0135277D01*
X0142441Y0135555D01*
X0142525Y0135835D01*
X0142603Y0136117D01*
X0142673Y0136400D01*
X0142737Y0136686D01*
X0142793Y0136972D01*
X0142843Y0137260D01*
X0142886Y0137549D01*
X0142921Y0137840D01*
X0142949Y0138130D01*
X0142971Y0138422D01*
X0142985Y0138714D01*
X0142992Y0139006D01*
X0142992Y0139298D01*
X0142985Y0139590D01*
X0142971Y0139882D01*
X0142949Y0140174D01*
X0142921Y0140464D01*
X0142886Y0140755D01*
X0142843Y0141044D01*
X0142793Y0141332D01*
X0142737Y0141618D01*
X0142673Y0141904D01*
X0142603Y0142187D01*
X0142525Y0142469D01*
X0142441Y0142749D01*
X0142350Y0143027D01*
X0142253Y0143302D01*
X0142148Y0143575D01*
X0142037Y0143845D01*
X0141920Y0144113D01*
X0141796Y0144377D01*
X0141665Y0144639D01*
X0141528Y0144897D01*
X0141385Y0145152D01*
X0141236Y0145403D01*
X0141081Y0145651D01*
X0140920Y0145895D01*
X0140752Y0146134D01*
X0140580Y0146370D01*
X0140401Y0146601D01*
X0140217Y0146828D01*
X0140027Y0147050D01*
X0139832Y0147268D01*
X0139632Y0147481D01*
X0139426Y0147689D01*
X0139216Y0147892D01*
X0139001Y0148089D01*
X0138781Y0148282D01*
X0138556Y0148469D01*
X0138327Y0148650D01*
X0138094Y0148826D01*
X0137856Y0148996D01*
X0137614Y0149160D01*
X0137369Y0149318D01*
X0137119Y0149470D01*
X0136866Y0149617D01*
X0136609Y0149757D01*
X0136350Y0149890D01*
X0136086Y0150017D01*
X0135820Y0150138D01*
X0135551Y0150252D01*
X0135280Y0150360D01*
X0135006Y0150461D01*
X0134729Y0150556D01*
X0134450Y0150643D01*
X0134169Y0150724D01*
X0133887Y0150798D01*
X0133602Y0150865D01*
X0133316Y0150925D01*
X0133029Y0150978D01*
X0132740Y0151024D01*
X0132451Y0151063D01*
X0132160Y0151095D01*
X0131869Y0151120D01*
X0131577Y0151138D01*
X0131285Y0151148D01*
X0130993Y0151152D01*
X0124098Y0153485D02*
X0124340Y0153563D01*
X0124581Y0153647D01*
X0124819Y0153736D01*
X0125055Y0153832D01*
X0125288Y0153933D01*
X0125519Y0154039D01*
X0125748Y0154152D01*
X0125973Y0154269D01*
X0126196Y0154393D01*
X0126416Y0154521D01*
X0126632Y0154655D01*
X0126845Y0154794D01*
X0127055Y0154938D01*
X0127261Y0155087D01*
X0127464Y0155242D01*
X0127662Y0155401D01*
X0127857Y0155564D01*
X0128048Y0155733D01*
X0128234Y0155906D01*
X0128417Y0156084D01*
X0128595Y0156265D01*
X0128768Y0156452D01*
X0128937Y0156642D01*
X0129102Y0156836D01*
X0129261Y0157034D01*
X0129416Y0157237D01*
X0129566Y0157442D01*
X0129710Y0157652D01*
X0129850Y0157864D01*
X0129984Y0158080D01*
X0130114Y0158300D01*
X0130237Y0158522D01*
X0130356Y0158747D01*
X0130469Y0158975D01*
X0130576Y0159206D01*
X0130678Y0159440D01*
X0130774Y0159675D01*
X0130864Y0159913D01*
X0130948Y0160153D01*
X0131027Y0160395D01*
X0131100Y0160639D01*
X0131166Y0160885D01*
X0131227Y0161132D01*
X0131282Y0161380D01*
X0131331Y0161630D01*
X0131374Y0161881D01*
X0131410Y0162133D01*
X0131441Y0162385D01*
X0131465Y0162639D01*
X0131483Y0162893D01*
X0131495Y0163147D01*
X0131501Y0163401D01*
X0131501Y0163656D01*
X0131495Y0163910D01*
X0131482Y0164164D01*
X0131463Y0164418D01*
X0131438Y0164671D01*
X0131407Y0164924D01*
X0131370Y0165176D01*
X0131327Y0165427D01*
X0131278Y0165676D01*
X0131222Y0165925D01*
X0131161Y0166172D01*
X0131094Y0166417D01*
X0131021Y0166661D01*
X0130942Y0166903D01*
X0130857Y0167143D01*
X0130766Y0167380D01*
X0130669Y0167616D01*
X0130567Y0167849D01*
X0130459Y0168079D01*
X0130346Y0168307D01*
X0130227Y0168532D01*
X0130103Y0168754D01*
X0129973Y0168974D01*
X0129839Y0169189D01*
X0129699Y0169402D01*
X0129553Y0169611D01*
X0129403Y0169816D01*
X0129248Y0170018D01*
X0122126Y0164518D02*
X0119874Y0164518D01*
X0112752Y0170018D02*
X0112597Y0169816D01*
X0112447Y0169611D01*
X0112301Y0169402D01*
X0112161Y0169189D01*
X0112027Y0168974D01*
X0111897Y0168754D01*
X0111773Y0168532D01*
X0111654Y0168307D01*
X0111541Y0168079D01*
X0111433Y0167849D01*
X0111331Y0167616D01*
X0111234Y0167380D01*
X0111143Y0167143D01*
X0111058Y0166903D01*
X0110979Y0166661D01*
X0110906Y0166417D01*
X0110839Y0166172D01*
X0110778Y0165925D01*
X0110722Y0165676D01*
X0110673Y0165427D01*
X0110630Y0165176D01*
X0110593Y0164924D01*
X0110562Y0164671D01*
X0110537Y0164418D01*
X0110518Y0164164D01*
X0110505Y0163910D01*
X0110499Y0163656D01*
X0110499Y0163401D01*
X0110505Y0163147D01*
X0110517Y0162893D01*
X0110535Y0162639D01*
X0110559Y0162385D01*
X0110590Y0162133D01*
X0110626Y0161881D01*
X0110669Y0161630D01*
X0110718Y0161380D01*
X0110773Y0161132D01*
X0110834Y0160885D01*
X0110900Y0160639D01*
X0110973Y0160395D01*
X0111052Y0160153D01*
X0111136Y0159913D01*
X0111226Y0159675D01*
X0111322Y0159440D01*
X0111424Y0159206D01*
X0111531Y0158975D01*
X0111644Y0158747D01*
X0111763Y0158522D01*
X0111886Y0158300D01*
X0112016Y0158080D01*
X0112150Y0157864D01*
X0112290Y0157652D01*
X0112434Y0157442D01*
X0112584Y0157237D01*
X0112739Y0157034D01*
X0112898Y0156836D01*
X0113063Y0156642D01*
X0113232Y0156452D01*
X0113405Y0156265D01*
X0113583Y0156084D01*
X0113766Y0155906D01*
X0113952Y0155733D01*
X0114143Y0155564D01*
X0114338Y0155401D01*
X0114536Y0155242D01*
X0114739Y0155087D01*
X0114945Y0154938D01*
X0115155Y0154794D01*
X0115368Y0154655D01*
X0115584Y0154521D01*
X0115804Y0154393D01*
X0116027Y0154269D01*
X0116252Y0154152D01*
X0116481Y0154039D01*
X0116712Y0153933D01*
X0116945Y0153832D01*
X0117181Y0153736D01*
X0117419Y0153647D01*
X0117660Y0153563D01*
X0117902Y0153485D01*
X0105493Y0146152D02*
X0102493Y0146152D01*
X0103993Y0147652D02*
X0103993Y0144652D01*
X0100993Y0143652D02*
X0100993Y0140152D01*
X0104493Y0140152D01*
X0104493Y0138852D01*
X0097493Y0138852D01*
X0097493Y0140152D01*
X0100993Y0140152D01*
X0100993Y0136152D02*
X0100993Y0134152D01*
X0089382Y0156469D02*
X0089327Y0156537D01*
X0089276Y0156608D01*
X0089227Y0156680D01*
X0089182Y0156755D01*
X0089140Y0156832D01*
X0089101Y0156910D01*
X0089066Y0156990D01*
X0089035Y0157071D01*
X0089007Y0157154D01*
X0088982Y0157237D01*
X0088961Y0157322D01*
X0088944Y0157408D01*
X0088931Y0157494D01*
X0088922Y0157581D01*
X0088916Y0157668D01*
X0088914Y0157755D01*
X0088916Y0157842D01*
X0088922Y0157929D01*
X0088931Y0158016D01*
X0088944Y0158102D01*
X0088961Y0158188D01*
X0088982Y0158273D01*
X0089007Y0158356D01*
X0089035Y0158439D01*
X0089066Y0158520D01*
X0089101Y0158600D01*
X0089140Y0158679D01*
X0089182Y0158755D01*
X0089227Y0158830D01*
X0089276Y0158902D01*
X0089327Y0158973D01*
X0089382Y0159041D01*
X0089439Y0159106D01*
X0089500Y0159169D01*
X0089563Y0159230D01*
X0089628Y0159287D01*
X0145000Y0147718D02*
X0145000Y0135318D01*
X0145002Y0135242D01*
X0145008Y0135166D01*
X0145017Y0135091D01*
X0145031Y0135016D01*
X0145048Y0134942D01*
X0145069Y0134869D01*
X0145093Y0134797D01*
X0145122Y0134726D01*
X0145153Y0134657D01*
X0145188Y0134590D01*
X0145227Y0134525D01*
X0145269Y0134461D01*
X0145314Y0134400D01*
X0145362Y0134341D01*
X0145413Y0134285D01*
X0145467Y0134231D01*
X0145523Y0134180D01*
X0145582Y0134132D01*
X0145643Y0134087D01*
X0145707Y0134045D01*
X0145772Y0134006D01*
X0145839Y0133971D01*
X0145908Y0133940D01*
X0145979Y0133911D01*
X0146051Y0133887D01*
X0146124Y0133866D01*
X0146198Y0133849D01*
X0146273Y0133835D01*
X0146348Y0133826D01*
X0146424Y0133820D01*
X0146500Y0133818D01*
X0163500Y0133818D01*
X0163576Y0133820D01*
X0163652Y0133826D01*
X0163727Y0133835D01*
X0163802Y0133849D01*
X0163876Y0133866D01*
X0163949Y0133887D01*
X0164021Y0133911D01*
X0164092Y0133940D01*
X0164161Y0133971D01*
X0164228Y0134006D01*
X0164293Y0134045D01*
X0164357Y0134087D01*
X0164418Y0134132D01*
X0164477Y0134180D01*
X0164533Y0134231D01*
X0164587Y0134285D01*
X0164638Y0134341D01*
X0164686Y0134400D01*
X0164731Y0134461D01*
X0164773Y0134525D01*
X0164812Y0134590D01*
X0164847Y0134657D01*
X0164878Y0134726D01*
X0164907Y0134797D01*
X0164931Y0134869D01*
X0164952Y0134942D01*
X0164969Y0135016D01*
X0164983Y0135091D01*
X0164992Y0135166D01*
X0164998Y0135242D01*
X0165000Y0135318D01*
X0165000Y0147718D01*
X0164998Y0147794D01*
X0164992Y0147870D01*
X0164983Y0147945D01*
X0164969Y0148020D01*
X0164952Y0148094D01*
X0164931Y0148167D01*
X0164907Y0148239D01*
X0164878Y0148310D01*
X0164847Y0148379D01*
X0164812Y0148446D01*
X0164773Y0148511D01*
X0164731Y0148575D01*
X0164686Y0148636D01*
X0164638Y0148695D01*
X0164587Y0148751D01*
X0164533Y0148805D01*
X0164477Y0148856D01*
X0164418Y0148904D01*
X0164357Y0148949D01*
X0164293Y0148991D01*
X0164228Y0149030D01*
X0164161Y0149065D01*
X0164092Y0149096D01*
X0164021Y0149125D01*
X0163949Y0149149D01*
X0163876Y0149170D01*
X0163802Y0149187D01*
X0163727Y0149201D01*
X0163652Y0149210D01*
X0163576Y0149216D01*
X0163500Y0149218D01*
X0146500Y0149218D01*
X0146424Y0149216D01*
X0146348Y0149210D01*
X0146273Y0149201D01*
X0146198Y0149187D01*
X0146124Y0149170D01*
X0146051Y0149149D01*
X0145979Y0149125D01*
X0145908Y0149096D01*
X0145839Y0149065D01*
X0145772Y0149030D01*
X0145707Y0148991D01*
X0145643Y0148949D01*
X0145582Y0148904D01*
X0145523Y0148856D01*
X0145467Y0148805D01*
X0145413Y0148751D01*
X0145362Y0148695D01*
X0145314Y0148636D01*
X0145269Y0148575D01*
X0145227Y0148511D01*
X0145188Y0148446D01*
X0145153Y0148379D01*
X0145122Y0148310D01*
X0145093Y0148239D01*
X0145069Y0148167D01*
X0145048Y0148094D01*
X0145031Y0148020D01*
X0145017Y0147945D01*
X0145008Y0147870D01*
X0145002Y0147794D01*
X0145000Y0147718D01*
X0145000Y0143518D02*
X0145088Y0143516D01*
X0145177Y0143510D01*
X0145265Y0143500D01*
X0145352Y0143487D01*
X0145439Y0143469D01*
X0145525Y0143448D01*
X0145610Y0143423D01*
X0145693Y0143394D01*
X0145776Y0143361D01*
X0145856Y0143325D01*
X0145935Y0143286D01*
X0146013Y0143243D01*
X0146088Y0143196D01*
X0146161Y0143146D01*
X0146232Y0143093D01*
X0146301Y0143037D01*
X0146367Y0142978D01*
X0146430Y0142916D01*
X0146490Y0142852D01*
X0146548Y0142785D01*
X0146602Y0142715D01*
X0146654Y0142643D01*
X0146702Y0142569D01*
X0146747Y0142492D01*
X0146788Y0142414D01*
X0146826Y0142334D01*
X0146860Y0142253D01*
X0146891Y0142170D01*
X0146918Y0142085D01*
X0146941Y0142000D01*
X0146960Y0141914D01*
X0146976Y0141826D01*
X0146988Y0141739D01*
X0146996Y0141651D01*
X0147000Y0141562D01*
X0147000Y0141474D01*
X0146996Y0141385D01*
X0146988Y0141297D01*
X0146976Y0141210D01*
X0146960Y0141122D01*
X0146941Y0141036D01*
X0146918Y0140951D01*
X0146891Y0140866D01*
X0146860Y0140783D01*
X0146826Y0140702D01*
X0146788Y0140622D01*
X0146747Y0140544D01*
X0146702Y0140467D01*
X0146654Y0140393D01*
X0146602Y0140321D01*
X0146548Y0140251D01*
X0146490Y0140184D01*
X0146430Y0140120D01*
X0146367Y0140058D01*
X0146301Y0139999D01*
X0146232Y0139943D01*
X0146161Y0139890D01*
X0146088Y0139840D01*
X0146013Y0139793D01*
X0145935Y0139750D01*
X0145856Y0139711D01*
X0145776Y0139675D01*
X0145693Y0139642D01*
X0145610Y0139613D01*
X0145525Y0139588D01*
X0145439Y0139567D01*
X0145352Y0139549D01*
X0145265Y0139536D01*
X0145177Y0139526D01*
X0145088Y0139520D01*
X0145000Y0139518D01*
X0112998Y0102016D02*
X0086998Y0102016D01*
X0086938Y0102014D01*
X0086877Y0102009D01*
X0086818Y0102000D01*
X0086759Y0101987D01*
X0086700Y0101971D01*
X0086643Y0101951D01*
X0086588Y0101928D01*
X0086533Y0101901D01*
X0086481Y0101872D01*
X0086430Y0101839D01*
X0086381Y0101803D01*
X0086335Y0101765D01*
X0086291Y0101723D01*
X0086249Y0101679D01*
X0086211Y0101633D01*
X0086175Y0101584D01*
X0086142Y0101533D01*
X0086113Y0101481D01*
X0086086Y0101426D01*
X0086063Y0101371D01*
X0086043Y0101314D01*
X0086027Y0101255D01*
X0086014Y0101196D01*
X0086005Y0101137D01*
X0086000Y0101076D01*
X0085998Y0101016D01*
X0085998Y0093016D01*
X0086000Y0092956D01*
X0086005Y0092895D01*
X0086014Y0092836D01*
X0086027Y0092777D01*
X0086043Y0092718D01*
X0086063Y0092661D01*
X0086086Y0092606D01*
X0086113Y0092551D01*
X0086142Y0092499D01*
X0086175Y0092448D01*
X0086211Y0092399D01*
X0086249Y0092353D01*
X0086291Y0092309D01*
X0086335Y0092267D01*
X0086381Y0092229D01*
X0086430Y0092193D01*
X0086481Y0092160D01*
X0086533Y0092131D01*
X0086588Y0092104D01*
X0086643Y0092081D01*
X0086700Y0092061D01*
X0086759Y0092045D01*
X0086818Y0092032D01*
X0086877Y0092023D01*
X0086938Y0092018D01*
X0086998Y0092016D01*
X0112998Y0092016D01*
X0113058Y0092018D01*
X0113119Y0092023D01*
X0113178Y0092032D01*
X0113237Y0092045D01*
X0113296Y0092061D01*
X0113353Y0092081D01*
X0113408Y0092104D01*
X0113463Y0092131D01*
X0113515Y0092160D01*
X0113566Y0092193D01*
X0113615Y0092229D01*
X0113661Y0092267D01*
X0113705Y0092309D01*
X0113747Y0092353D01*
X0113785Y0092399D01*
X0113821Y0092448D01*
X0113854Y0092499D01*
X0113883Y0092551D01*
X0113910Y0092606D01*
X0113933Y0092661D01*
X0113953Y0092718D01*
X0113969Y0092777D01*
X0113982Y0092836D01*
X0113991Y0092895D01*
X0113996Y0092956D01*
X0113998Y0093016D01*
X0113998Y0101016D01*
X0113996Y0101076D01*
X0113991Y0101137D01*
X0113982Y0101196D01*
X0113969Y0101255D01*
X0113953Y0101314D01*
X0113933Y0101371D01*
X0113910Y0101426D01*
X0113883Y0101481D01*
X0113854Y0101533D01*
X0113821Y0101584D01*
X0113785Y0101633D01*
X0113747Y0101679D01*
X0113705Y0101723D01*
X0113661Y0101765D01*
X0113615Y0101803D01*
X0113566Y0101839D01*
X0113515Y0101872D01*
X0113463Y0101901D01*
X0113408Y0101928D01*
X0113353Y0101951D01*
X0113296Y0101971D01*
X0113237Y0101987D01*
X0113178Y0102000D01*
X0113119Y0102009D01*
X0113058Y0102014D01*
X0112998Y0102016D01*
X0105998Y0097016D02*
X0099998Y0097016D01*
X0099998Y0094516D01*
X0099998Y0097016D02*
X0097498Y0097016D01*
X0099998Y0097016D02*
X0099998Y0099516D01*
X0099998Y0097016D02*
X0103998Y0099516D01*
X0103998Y0094516D01*
X0099998Y0097016D01*
X0112997Y0071385D02*
X0086997Y0071385D01*
X0086937Y0071383D01*
X0086876Y0071378D01*
X0086817Y0071369D01*
X0086758Y0071356D01*
X0086699Y0071340D01*
X0086642Y0071320D01*
X0086587Y0071297D01*
X0086532Y0071270D01*
X0086480Y0071241D01*
X0086429Y0071208D01*
X0086380Y0071172D01*
X0086334Y0071134D01*
X0086290Y0071092D01*
X0086248Y0071048D01*
X0086210Y0071002D01*
X0086174Y0070953D01*
X0086141Y0070902D01*
X0086112Y0070850D01*
X0086085Y0070795D01*
X0086062Y0070740D01*
X0086042Y0070683D01*
X0086026Y0070624D01*
X0086013Y0070565D01*
X0086004Y0070506D01*
X0085999Y0070445D01*
X0085997Y0070385D01*
X0085997Y0062385D01*
X0085999Y0062325D01*
X0086004Y0062264D01*
X0086013Y0062205D01*
X0086026Y0062146D01*
X0086042Y0062087D01*
X0086062Y0062030D01*
X0086085Y0061975D01*
X0086112Y0061920D01*
X0086141Y0061868D01*
X0086174Y0061817D01*
X0086210Y0061768D01*
X0086248Y0061722D01*
X0086290Y0061678D01*
X0086334Y0061636D01*
X0086380Y0061598D01*
X0086429Y0061562D01*
X0086480Y0061529D01*
X0086532Y0061500D01*
X0086587Y0061473D01*
X0086642Y0061450D01*
X0086699Y0061430D01*
X0086758Y0061414D01*
X0086817Y0061401D01*
X0086876Y0061392D01*
X0086937Y0061387D01*
X0086997Y0061385D01*
X0112997Y0061385D01*
X0113057Y0061387D01*
X0113118Y0061392D01*
X0113177Y0061401D01*
X0113236Y0061414D01*
X0113295Y0061430D01*
X0113352Y0061450D01*
X0113407Y0061473D01*
X0113462Y0061500D01*
X0113514Y0061529D01*
X0113565Y0061562D01*
X0113614Y0061598D01*
X0113660Y0061636D01*
X0113704Y0061678D01*
X0113746Y0061722D01*
X0113784Y0061768D01*
X0113820Y0061817D01*
X0113853Y0061868D01*
X0113882Y0061920D01*
X0113909Y0061975D01*
X0113932Y0062030D01*
X0113952Y0062087D01*
X0113968Y0062146D01*
X0113981Y0062205D01*
X0113990Y0062264D01*
X0113995Y0062325D01*
X0113997Y0062385D01*
X0113997Y0070385D01*
X0113995Y0070445D01*
X0113990Y0070506D01*
X0113981Y0070565D01*
X0113968Y0070624D01*
X0113952Y0070683D01*
X0113932Y0070740D01*
X0113909Y0070795D01*
X0113882Y0070850D01*
X0113853Y0070902D01*
X0113820Y0070953D01*
X0113784Y0071002D01*
X0113746Y0071048D01*
X0113704Y0071092D01*
X0113660Y0071134D01*
X0113614Y0071172D01*
X0113565Y0071208D01*
X0113514Y0071241D01*
X0113462Y0071270D01*
X0113407Y0071297D01*
X0113352Y0071320D01*
X0113295Y0071340D01*
X0113236Y0071356D01*
X0113177Y0071369D01*
X0113118Y0071378D01*
X0113057Y0071383D01*
X0112997Y0071385D01*
X0105997Y0066385D02*
X0099997Y0066385D01*
X0099997Y0063885D01*
X0099997Y0066385D02*
X0097497Y0066385D01*
X0099997Y0066385D02*
X0099997Y0068885D01*
X0099997Y0066385D02*
X0103997Y0068885D01*
X0103997Y0063885D01*
X0099997Y0066385D01*
X0087003Y0036893D02*
X0113003Y0036893D01*
X0113063Y0036891D01*
X0113124Y0036886D01*
X0113183Y0036877D01*
X0113242Y0036864D01*
X0113301Y0036848D01*
X0113358Y0036828D01*
X0113413Y0036805D01*
X0113468Y0036778D01*
X0113520Y0036749D01*
X0113571Y0036716D01*
X0113620Y0036680D01*
X0113666Y0036642D01*
X0113710Y0036600D01*
X0113752Y0036556D01*
X0113790Y0036510D01*
X0113826Y0036461D01*
X0113859Y0036410D01*
X0113888Y0036358D01*
X0113915Y0036303D01*
X0113938Y0036248D01*
X0113958Y0036191D01*
X0113974Y0036132D01*
X0113987Y0036073D01*
X0113996Y0036014D01*
X0114001Y0035953D01*
X0114003Y0035893D01*
X0114003Y0027893D01*
X0114001Y0027833D01*
X0113996Y0027772D01*
X0113987Y0027713D01*
X0113974Y0027654D01*
X0113958Y0027595D01*
X0113938Y0027538D01*
X0113915Y0027483D01*
X0113888Y0027428D01*
X0113859Y0027376D01*
X0113826Y0027325D01*
X0113790Y0027276D01*
X0113752Y0027230D01*
X0113710Y0027186D01*
X0113666Y0027144D01*
X0113620Y0027106D01*
X0113571Y0027070D01*
X0113520Y0027037D01*
X0113468Y0027008D01*
X0113413Y0026981D01*
X0113358Y0026958D01*
X0113301Y0026938D01*
X0113242Y0026922D01*
X0113183Y0026909D01*
X0113124Y0026900D01*
X0113063Y0026895D01*
X0113003Y0026893D01*
X0087003Y0026893D01*
X0086943Y0026895D01*
X0086882Y0026900D01*
X0086823Y0026909D01*
X0086764Y0026922D01*
X0086705Y0026938D01*
X0086648Y0026958D01*
X0086593Y0026981D01*
X0086538Y0027008D01*
X0086486Y0027037D01*
X0086435Y0027070D01*
X0086386Y0027106D01*
X0086340Y0027144D01*
X0086296Y0027186D01*
X0086254Y0027230D01*
X0086216Y0027276D01*
X0086180Y0027325D01*
X0086147Y0027376D01*
X0086118Y0027428D01*
X0086091Y0027483D01*
X0086068Y0027538D01*
X0086048Y0027595D01*
X0086032Y0027654D01*
X0086019Y0027713D01*
X0086010Y0027772D01*
X0086005Y0027833D01*
X0086003Y0027893D01*
X0086003Y0035893D01*
X0086005Y0035953D01*
X0086010Y0036014D01*
X0086019Y0036073D01*
X0086032Y0036132D01*
X0086048Y0036191D01*
X0086068Y0036248D01*
X0086091Y0036303D01*
X0086118Y0036358D01*
X0086147Y0036410D01*
X0086180Y0036461D01*
X0086216Y0036510D01*
X0086254Y0036556D01*
X0086296Y0036600D01*
X0086340Y0036642D01*
X0086386Y0036680D01*
X0086435Y0036716D01*
X0086486Y0036749D01*
X0086538Y0036778D01*
X0086593Y0036805D01*
X0086648Y0036828D01*
X0086705Y0036848D01*
X0086764Y0036864D01*
X0086823Y0036877D01*
X0086882Y0036886D01*
X0086943Y0036891D01*
X0087003Y0036893D01*
X0097503Y0031893D02*
X0100003Y0031893D01*
X0100003Y0029393D01*
X0100003Y0031893D02*
X0100003Y0034393D01*
X0100003Y0031893D02*
X0104003Y0034393D01*
X0104003Y0029393D01*
X0100003Y0031893D01*
X0106003Y0031893D01*
X0162580Y0016618D02*
X0174391Y0028429D01*
X0174391Y0185767D01*
X0162580Y0197578D01*
D14*
X0089998Y0097016D03*
X0089997Y0066385D03*
X0090003Y0031893D03*
D15*
X0084753Y0031893D03*
X0115253Y0031893D03*
X0115247Y0066385D03*
X0084747Y0066385D03*
X0084748Y0097016D03*
X0115248Y0097016D03*
D16*
X0080042Y0140014D03*
X0080042Y0161514D03*
X0064993Y0166525D03*
X0064993Y0188025D03*
X0039043Y0188061D03*
X0039043Y0166561D03*
D17*
X0040273Y0173525D02*
X0040273Y0174108D01*
X0040857Y0174108D01*
X0040857Y0173525D01*
X0040273Y0173525D01*
X0040273Y0175320D02*
X0040857Y0175904D01*
X0040857Y0177072D01*
X0040273Y0177655D01*
X0039690Y0177655D01*
X0039106Y0177072D01*
X0039106Y0176488D01*
X0039106Y0177072D02*
X0038522Y0177655D01*
X0037938Y0177655D01*
X0037354Y0177072D01*
X0037354Y0175904D01*
X0037938Y0175320D01*
X0037354Y0178911D02*
X0037354Y0180663D01*
X0037938Y0181246D01*
X0039106Y0181246D01*
X0039690Y0180663D01*
X0039690Y0178911D01*
X0040857Y0178911D02*
X0037354Y0178911D01*
X0039690Y0180079D02*
X0040857Y0181246D01*
X0063405Y0180699D02*
X0063405Y0178948D01*
X0066907Y0178948D01*
X0065740Y0178948D02*
X0065740Y0180699D01*
X0065156Y0181283D01*
X0063988Y0181283D01*
X0063405Y0180699D01*
X0065740Y0180115D02*
X0066907Y0181283D01*
X0066324Y0177692D02*
X0066907Y0177108D01*
X0066907Y0175940D01*
X0066324Y0175357D01*
X0066324Y0174145D02*
X0066907Y0174145D01*
X0066907Y0173561D01*
X0066324Y0173561D01*
X0066324Y0174145D01*
X0063988Y0175357D02*
X0063405Y0175940D01*
X0063405Y0177108D01*
X0063988Y0177692D01*
X0064572Y0177692D01*
X0065156Y0177108D01*
X0065740Y0177692D01*
X0066324Y0177692D01*
X0065156Y0177108D02*
X0065156Y0176524D01*
X0079023Y0154786D02*
X0080191Y0154786D01*
X0080774Y0154202D01*
X0080774Y0152450D01*
X0080774Y0153618D02*
X0081942Y0154786D01*
X0081942Y0152450D02*
X0078439Y0152450D01*
X0078439Y0154202D01*
X0079023Y0154786D01*
X0079023Y0151194D02*
X0079607Y0151194D01*
X0080191Y0150611D01*
X0080774Y0151194D01*
X0081358Y0151194D01*
X0081942Y0150611D01*
X0081942Y0149443D01*
X0081358Y0148859D01*
X0081358Y0147647D02*
X0081942Y0147647D01*
X0081942Y0147064D01*
X0081358Y0147064D01*
X0081358Y0147647D01*
X0079023Y0148859D02*
X0078439Y0149443D01*
X0078439Y0150611D01*
X0079023Y0151194D01*
X0080191Y0150611D02*
X0080191Y0150027D01*
X0147300Y0164618D02*
X0149635Y0164618D01*
X0148468Y0164618D02*
X0148468Y0168121D01*
X0147300Y0166953D01*
X0150891Y0167537D02*
X0150891Y0165202D01*
X0153226Y0167537D01*
X0153226Y0165202D01*
X0152643Y0164618D01*
X0151475Y0164618D01*
X0150891Y0165202D01*
X0150891Y0167537D02*
X0151475Y0168121D01*
X0152643Y0168121D01*
X0153226Y0167537D01*
X0154482Y0167537D02*
X0155066Y0168121D01*
X0156234Y0168121D01*
X0156817Y0167537D01*
X0154482Y0165202D01*
X0155066Y0164618D01*
X0156234Y0164618D01*
X0156817Y0165202D01*
X0156817Y0167537D01*
X0158073Y0168121D02*
X0158073Y0164618D01*
X0158073Y0165785D02*
X0159825Y0165785D01*
X0160409Y0166369D01*
X0160409Y0167537D01*
X0159825Y0168121D01*
X0158073Y0168121D01*
X0159241Y0165785D02*
X0160409Y0164618D01*
X0154482Y0165202D02*
X0154482Y0167537D01*
X0153975Y0173618D02*
X0153391Y0174202D01*
X0153975Y0173618D02*
X0155143Y0173618D01*
X0155726Y0174202D01*
X0155726Y0174785D01*
X0155143Y0175369D01*
X0154559Y0175369D01*
X0155143Y0175369D02*
X0155726Y0175953D01*
X0155726Y0176537D01*
X0155143Y0177121D01*
X0153975Y0177121D01*
X0153391Y0176537D01*
X0152135Y0176537D02*
X0152135Y0175953D01*
X0151551Y0175369D01*
X0152135Y0174785D01*
X0152135Y0174202D01*
X0151551Y0173618D01*
X0150384Y0173618D01*
X0149800Y0174202D01*
X0150968Y0175369D02*
X0151551Y0175369D01*
X0152135Y0176537D02*
X0151551Y0177121D01*
X0150384Y0177121D01*
X0149800Y0176537D01*
X0150384Y0182118D02*
X0149800Y0182702D01*
X0150384Y0182118D02*
X0151551Y0182118D01*
X0152135Y0182702D01*
X0152135Y0183285D01*
X0151551Y0183869D01*
X0150968Y0183869D01*
X0151551Y0183869D02*
X0152135Y0184453D01*
X0152135Y0185037D01*
X0151551Y0185621D01*
X0150384Y0185621D01*
X0149800Y0185037D01*
X0153391Y0185037D02*
X0153975Y0185621D01*
X0155143Y0185621D01*
X0155726Y0185037D01*
X0155726Y0184453D01*
X0155143Y0183869D01*
X0155726Y0183285D01*
X0155726Y0182702D01*
X0155143Y0182118D01*
X0153975Y0182118D01*
X0153391Y0182702D01*
X0154559Y0183869D02*
X0155143Y0183869D01*
X0156982Y0183285D02*
X0158734Y0183285D01*
X0159317Y0183869D01*
X0159317Y0185037D01*
X0158734Y0185621D01*
X0156982Y0185621D01*
X0156982Y0182118D01*
X0158150Y0183285D02*
X0159317Y0182118D01*
X0158734Y0177121D02*
X0159317Y0176537D01*
X0159317Y0175369D01*
X0158734Y0174785D01*
X0156982Y0174785D01*
X0156982Y0173618D02*
X0156982Y0177121D01*
X0158734Y0177121D01*
X0158150Y0174785D02*
X0159317Y0173618D01*
D18*
X0100993Y0136802D03*
D19*
X0115114Y0120770D02*
X0115114Y0117817D01*
X0115114Y0120770D02*
X0119248Y0120770D01*
X0119248Y0124904D01*
X0141886Y0124904D01*
X0141886Y0117817D01*
X0141886Y0105219D02*
X0141886Y0098132D01*
X0115114Y0098132D01*
X0115114Y0105022D01*
X0119248Y0094404D02*
X0119248Y0090270D01*
X0115114Y0090270D01*
X0115114Y0087317D01*
X0119248Y0094404D02*
X0141886Y0094404D01*
X0141886Y0087317D01*
X0141886Y0074719D02*
X0141886Y0067632D01*
X0115114Y0067632D01*
X0115114Y0074522D01*
X0119248Y0063404D02*
X0119248Y0059270D01*
X0115114Y0059270D01*
X0115114Y0056317D01*
X0119248Y0063404D02*
X0141886Y0063404D01*
X0141886Y0056317D01*
X0141886Y0043719D02*
X0141886Y0036632D01*
X0115114Y0036632D01*
X0115114Y0043522D01*
X0128500Y0062321D02*
X0128800Y0062317D01*
X0129099Y0062305D01*
X0129398Y0062286D01*
X0129696Y0062260D01*
X0129994Y0062227D01*
X0130291Y0062186D01*
X0130586Y0062139D01*
X0130880Y0062084D01*
X0131173Y0062022D01*
X0131465Y0061952D01*
X0131754Y0061876D01*
X0132042Y0061793D01*
X0132328Y0061703D01*
X0132611Y0061605D01*
X0132892Y0061501D01*
X0133170Y0061390D01*
X0133445Y0061273D01*
X0133718Y0061149D01*
X0133987Y0061018D01*
X0134253Y0060880D01*
X0134516Y0060737D01*
X0134775Y0060586D01*
X0135030Y0060430D01*
X0135282Y0060267D01*
X0135529Y0060099D01*
X0135772Y0059924D01*
X0136011Y0059744D01*
X0136246Y0059557D01*
X0136475Y0059365D01*
X0136701Y0059168D01*
X0136921Y0058965D01*
X0137136Y0058757D01*
X0137346Y0058543D01*
X0137551Y0058325D01*
X0137751Y0058102D01*
X0137945Y0057874D01*
X0138133Y0057641D01*
X0138316Y0057404D01*
X0138492Y0057162D01*
X0138663Y0056916D01*
X0138828Y0056666D01*
X0138987Y0056412D01*
X0139139Y0056154D01*
X0139286Y0055893D01*
X0139425Y0055628D01*
X0139622Y0044703D02*
X0139488Y0044433D01*
X0139348Y0044166D01*
X0139202Y0043903D01*
X0139049Y0043644D01*
X0138890Y0043388D01*
X0138724Y0043136D01*
X0138553Y0042889D01*
X0138375Y0042645D01*
X0138192Y0042406D01*
X0138003Y0042172D01*
X0137808Y0041942D01*
X0137607Y0041718D01*
X0137401Y0041498D01*
X0137190Y0041283D01*
X0136974Y0041074D01*
X0136752Y0040870D01*
X0136526Y0040671D01*
X0136294Y0040478D01*
X0136059Y0040291D01*
X0135818Y0040109D01*
X0135573Y0039934D01*
X0135324Y0039764D01*
X0135071Y0039601D01*
X0134814Y0039444D01*
X0134554Y0039293D01*
X0134289Y0039148D01*
X0134021Y0039011D01*
X0133750Y0038879D01*
X0133476Y0038755D01*
X0133199Y0038637D01*
X0132919Y0038526D01*
X0132636Y0038422D01*
X0132351Y0038325D01*
X0132064Y0038235D01*
X0131774Y0038152D01*
X0131483Y0038076D01*
X0131190Y0038007D01*
X0130895Y0037945D01*
X0130598Y0037891D01*
X0130301Y0037844D01*
X0130002Y0037804D01*
X0129703Y0037771D01*
X0129403Y0037746D01*
X0129102Y0037728D01*
X0128801Y0037718D01*
X0128500Y0037715D01*
X0117575Y0055628D02*
X0117714Y0055893D01*
X0117861Y0056154D01*
X0118013Y0056412D01*
X0118172Y0056666D01*
X0118337Y0056916D01*
X0118508Y0057162D01*
X0118684Y0057404D01*
X0118867Y0057641D01*
X0119055Y0057874D01*
X0119249Y0058102D01*
X0119449Y0058325D01*
X0119654Y0058543D01*
X0119864Y0058757D01*
X0120079Y0058965D01*
X0120299Y0059168D01*
X0120525Y0059365D01*
X0120754Y0059557D01*
X0120989Y0059744D01*
X0121228Y0059924D01*
X0121471Y0060099D01*
X0121718Y0060267D01*
X0121970Y0060430D01*
X0122225Y0060586D01*
X0122484Y0060737D01*
X0122747Y0060880D01*
X0123013Y0061018D01*
X0123282Y0061149D01*
X0123555Y0061273D01*
X0123830Y0061390D01*
X0124108Y0061501D01*
X0124389Y0061605D01*
X0124672Y0061703D01*
X0124958Y0061793D01*
X0125246Y0061876D01*
X0125535Y0061952D01*
X0125827Y0062022D01*
X0126120Y0062084D01*
X0126414Y0062139D01*
X0126709Y0062186D01*
X0127006Y0062227D01*
X0127304Y0062260D01*
X0127602Y0062286D01*
X0127901Y0062305D01*
X0128200Y0062317D01*
X0128500Y0062321D01*
X0117575Y0044408D02*
X0117714Y0044143D01*
X0117861Y0043882D01*
X0118013Y0043624D01*
X0118172Y0043370D01*
X0118337Y0043120D01*
X0118508Y0042874D01*
X0118684Y0042632D01*
X0118867Y0042395D01*
X0119055Y0042162D01*
X0119249Y0041934D01*
X0119449Y0041711D01*
X0119654Y0041493D01*
X0119864Y0041279D01*
X0120079Y0041071D01*
X0120299Y0040868D01*
X0120525Y0040671D01*
X0120754Y0040479D01*
X0120989Y0040292D01*
X0121228Y0040112D01*
X0121471Y0039937D01*
X0121718Y0039769D01*
X0121970Y0039606D01*
X0122225Y0039450D01*
X0122484Y0039299D01*
X0122747Y0039156D01*
X0123013Y0039018D01*
X0123282Y0038887D01*
X0123555Y0038763D01*
X0123830Y0038646D01*
X0124108Y0038535D01*
X0124389Y0038431D01*
X0124672Y0038333D01*
X0124958Y0038243D01*
X0125246Y0038160D01*
X0125535Y0038084D01*
X0125827Y0038014D01*
X0126120Y0037952D01*
X0126414Y0037897D01*
X0126709Y0037850D01*
X0127006Y0037809D01*
X0127304Y0037776D01*
X0127602Y0037750D01*
X0127901Y0037731D01*
X0128200Y0037719D01*
X0128500Y0037715D01*
X0139425Y0086628D02*
X0139286Y0086893D01*
X0139139Y0087154D01*
X0138987Y0087412D01*
X0138828Y0087666D01*
X0138663Y0087916D01*
X0138492Y0088162D01*
X0138316Y0088404D01*
X0138133Y0088641D01*
X0137945Y0088874D01*
X0137751Y0089102D01*
X0137551Y0089325D01*
X0137346Y0089543D01*
X0137136Y0089757D01*
X0136921Y0089965D01*
X0136701Y0090168D01*
X0136475Y0090365D01*
X0136246Y0090557D01*
X0136011Y0090744D01*
X0135772Y0090924D01*
X0135529Y0091099D01*
X0135282Y0091267D01*
X0135030Y0091430D01*
X0134775Y0091586D01*
X0134516Y0091737D01*
X0134253Y0091880D01*
X0133987Y0092018D01*
X0133718Y0092149D01*
X0133445Y0092273D01*
X0133170Y0092390D01*
X0132892Y0092501D01*
X0132611Y0092605D01*
X0132328Y0092703D01*
X0132042Y0092793D01*
X0131754Y0092876D01*
X0131465Y0092952D01*
X0131173Y0093022D01*
X0130880Y0093084D01*
X0130586Y0093139D01*
X0130291Y0093186D01*
X0129994Y0093227D01*
X0129696Y0093260D01*
X0129398Y0093286D01*
X0129099Y0093305D01*
X0128800Y0093317D01*
X0128500Y0093321D01*
X0117575Y0075408D02*
X0117714Y0075143D01*
X0117861Y0074882D01*
X0118013Y0074624D01*
X0118172Y0074370D01*
X0118337Y0074120D01*
X0118508Y0073874D01*
X0118684Y0073632D01*
X0118867Y0073395D01*
X0119055Y0073162D01*
X0119249Y0072934D01*
X0119449Y0072711D01*
X0119654Y0072493D01*
X0119864Y0072279D01*
X0120079Y0072071D01*
X0120299Y0071868D01*
X0120525Y0071671D01*
X0120754Y0071479D01*
X0120989Y0071292D01*
X0121228Y0071112D01*
X0121471Y0070937D01*
X0121718Y0070769D01*
X0121970Y0070606D01*
X0122225Y0070450D01*
X0122484Y0070299D01*
X0122747Y0070156D01*
X0123013Y0070018D01*
X0123282Y0069887D01*
X0123555Y0069763D01*
X0123830Y0069646D01*
X0124108Y0069535D01*
X0124389Y0069431D01*
X0124672Y0069333D01*
X0124958Y0069243D01*
X0125246Y0069160D01*
X0125535Y0069084D01*
X0125827Y0069014D01*
X0126120Y0068952D01*
X0126414Y0068897D01*
X0126709Y0068850D01*
X0127006Y0068809D01*
X0127304Y0068776D01*
X0127602Y0068750D01*
X0127901Y0068731D01*
X0128200Y0068719D01*
X0128500Y0068715D01*
X0117575Y0086628D02*
X0117714Y0086893D01*
X0117861Y0087154D01*
X0118013Y0087412D01*
X0118172Y0087666D01*
X0118337Y0087916D01*
X0118508Y0088162D01*
X0118684Y0088404D01*
X0118867Y0088641D01*
X0119055Y0088874D01*
X0119249Y0089102D01*
X0119449Y0089325D01*
X0119654Y0089543D01*
X0119864Y0089757D01*
X0120079Y0089965D01*
X0120299Y0090168D01*
X0120525Y0090365D01*
X0120754Y0090557D01*
X0120989Y0090744D01*
X0121228Y0090924D01*
X0121471Y0091099D01*
X0121718Y0091267D01*
X0121970Y0091430D01*
X0122225Y0091586D01*
X0122484Y0091737D01*
X0122747Y0091880D01*
X0123013Y0092018D01*
X0123282Y0092149D01*
X0123555Y0092273D01*
X0123830Y0092390D01*
X0124108Y0092501D01*
X0124389Y0092605D01*
X0124672Y0092703D01*
X0124958Y0092793D01*
X0125246Y0092876D01*
X0125535Y0092952D01*
X0125827Y0093022D01*
X0126120Y0093084D01*
X0126414Y0093139D01*
X0126709Y0093186D01*
X0127006Y0093227D01*
X0127304Y0093260D01*
X0127602Y0093286D01*
X0127901Y0093305D01*
X0128200Y0093317D01*
X0128500Y0093321D01*
X0139622Y0075703D02*
X0139488Y0075433D01*
X0139348Y0075166D01*
X0139202Y0074903D01*
X0139049Y0074644D01*
X0138890Y0074388D01*
X0138724Y0074136D01*
X0138553Y0073889D01*
X0138375Y0073645D01*
X0138192Y0073406D01*
X0138003Y0073172D01*
X0137808Y0072942D01*
X0137607Y0072718D01*
X0137401Y0072498D01*
X0137190Y0072283D01*
X0136974Y0072074D01*
X0136752Y0071870D01*
X0136526Y0071671D01*
X0136294Y0071478D01*
X0136059Y0071291D01*
X0135818Y0071109D01*
X0135573Y0070934D01*
X0135324Y0070764D01*
X0135071Y0070601D01*
X0134814Y0070444D01*
X0134554Y0070293D01*
X0134289Y0070148D01*
X0134021Y0070011D01*
X0133750Y0069879D01*
X0133476Y0069755D01*
X0133199Y0069637D01*
X0132919Y0069526D01*
X0132636Y0069422D01*
X0132351Y0069325D01*
X0132064Y0069235D01*
X0131774Y0069152D01*
X0131483Y0069076D01*
X0131190Y0069007D01*
X0130895Y0068945D01*
X0130598Y0068891D01*
X0130301Y0068844D01*
X0130002Y0068804D01*
X0129703Y0068771D01*
X0129403Y0068746D01*
X0129102Y0068728D01*
X0128801Y0068718D01*
X0128500Y0068715D01*
X0139425Y0117128D02*
X0139286Y0117393D01*
X0139139Y0117654D01*
X0138987Y0117912D01*
X0138828Y0118166D01*
X0138663Y0118416D01*
X0138492Y0118662D01*
X0138316Y0118904D01*
X0138133Y0119141D01*
X0137945Y0119374D01*
X0137751Y0119602D01*
X0137551Y0119825D01*
X0137346Y0120043D01*
X0137136Y0120257D01*
X0136921Y0120465D01*
X0136701Y0120668D01*
X0136475Y0120865D01*
X0136246Y0121057D01*
X0136011Y0121244D01*
X0135772Y0121424D01*
X0135529Y0121599D01*
X0135282Y0121767D01*
X0135030Y0121930D01*
X0134775Y0122086D01*
X0134516Y0122237D01*
X0134253Y0122380D01*
X0133987Y0122518D01*
X0133718Y0122649D01*
X0133445Y0122773D01*
X0133170Y0122890D01*
X0132892Y0123001D01*
X0132611Y0123105D01*
X0132328Y0123203D01*
X0132042Y0123293D01*
X0131754Y0123376D01*
X0131465Y0123452D01*
X0131173Y0123522D01*
X0130880Y0123584D01*
X0130586Y0123639D01*
X0130291Y0123686D01*
X0129994Y0123727D01*
X0129696Y0123760D01*
X0129398Y0123786D01*
X0129099Y0123805D01*
X0128800Y0123817D01*
X0128500Y0123821D01*
X0117575Y0105908D02*
X0117714Y0105643D01*
X0117861Y0105382D01*
X0118013Y0105124D01*
X0118172Y0104870D01*
X0118337Y0104620D01*
X0118508Y0104374D01*
X0118684Y0104132D01*
X0118867Y0103895D01*
X0119055Y0103662D01*
X0119249Y0103434D01*
X0119449Y0103211D01*
X0119654Y0102993D01*
X0119864Y0102779D01*
X0120079Y0102571D01*
X0120299Y0102368D01*
X0120525Y0102171D01*
X0120754Y0101979D01*
X0120989Y0101792D01*
X0121228Y0101612D01*
X0121471Y0101437D01*
X0121718Y0101269D01*
X0121970Y0101106D01*
X0122225Y0100950D01*
X0122484Y0100799D01*
X0122747Y0100656D01*
X0123013Y0100518D01*
X0123282Y0100387D01*
X0123555Y0100263D01*
X0123830Y0100146D01*
X0124108Y0100035D01*
X0124389Y0099931D01*
X0124672Y0099833D01*
X0124958Y0099743D01*
X0125246Y0099660D01*
X0125535Y0099584D01*
X0125827Y0099514D01*
X0126120Y0099452D01*
X0126414Y0099397D01*
X0126709Y0099350D01*
X0127006Y0099309D01*
X0127304Y0099276D01*
X0127602Y0099250D01*
X0127901Y0099231D01*
X0128200Y0099219D01*
X0128500Y0099215D01*
X0117575Y0117128D02*
X0117714Y0117393D01*
X0117861Y0117654D01*
X0118013Y0117912D01*
X0118172Y0118166D01*
X0118337Y0118416D01*
X0118508Y0118662D01*
X0118684Y0118904D01*
X0118867Y0119141D01*
X0119055Y0119374D01*
X0119249Y0119602D01*
X0119449Y0119825D01*
X0119654Y0120043D01*
X0119864Y0120257D01*
X0120079Y0120465D01*
X0120299Y0120668D01*
X0120525Y0120865D01*
X0120754Y0121057D01*
X0120989Y0121244D01*
X0121228Y0121424D01*
X0121471Y0121599D01*
X0121718Y0121767D01*
X0121970Y0121930D01*
X0122225Y0122086D01*
X0122484Y0122237D01*
X0122747Y0122380D01*
X0123013Y0122518D01*
X0123282Y0122649D01*
X0123555Y0122773D01*
X0123830Y0122890D01*
X0124108Y0123001D01*
X0124389Y0123105D01*
X0124672Y0123203D01*
X0124958Y0123293D01*
X0125246Y0123376D01*
X0125535Y0123452D01*
X0125827Y0123522D01*
X0126120Y0123584D01*
X0126414Y0123639D01*
X0126709Y0123686D01*
X0127006Y0123727D01*
X0127304Y0123760D01*
X0127602Y0123786D01*
X0127901Y0123805D01*
X0128200Y0123817D01*
X0128500Y0123821D01*
X0139622Y0106203D02*
X0139488Y0105933D01*
X0139348Y0105666D01*
X0139202Y0105403D01*
X0139049Y0105144D01*
X0138890Y0104888D01*
X0138724Y0104636D01*
X0138553Y0104389D01*
X0138375Y0104145D01*
X0138192Y0103906D01*
X0138003Y0103672D01*
X0137808Y0103442D01*
X0137607Y0103218D01*
X0137401Y0102998D01*
X0137190Y0102783D01*
X0136974Y0102574D01*
X0136752Y0102370D01*
X0136526Y0102171D01*
X0136294Y0101978D01*
X0136059Y0101791D01*
X0135818Y0101609D01*
X0135573Y0101434D01*
X0135324Y0101264D01*
X0135071Y0101101D01*
X0134814Y0100944D01*
X0134554Y0100793D01*
X0134289Y0100648D01*
X0134021Y0100511D01*
X0133750Y0100379D01*
X0133476Y0100255D01*
X0133199Y0100137D01*
X0132919Y0100026D01*
X0132636Y0099922D01*
X0132351Y0099825D01*
X0132064Y0099735D01*
X0131774Y0099652D01*
X0131483Y0099576D01*
X0131190Y0099507D01*
X0130895Y0099445D01*
X0130598Y0099391D01*
X0130301Y0099344D01*
X0130002Y0099304D01*
X0129703Y0099271D01*
X0129403Y0099246D01*
X0129102Y0099228D01*
X0128801Y0099218D01*
X0128500Y0099215D01*
D20*
X0098433Y0156884D02*
X0096504Y0159182D01*
X0094576Y0161480D01*
X0096491Y0163087D02*
X0098419Y0160789D01*
X0100348Y0158491D01*
D21*
X0140750Y0166018D03*
X0140750Y0175018D03*
X0140750Y0184018D03*
X0162250Y0184018D03*
X0162250Y0175018D03*
X0162250Y0166018D03*
D22*
X0165000Y0135218D02*
X0145000Y0135218D01*
D23*
X0132000Y0171518D02*
X0102000Y0171518D01*
X0102000Y0189018D01*
X0132000Y0189018D01*
X0132000Y0171518D01*
X0132000Y0189018D02*
X0132000Y0196518D01*
X0102000Y0196518D01*
X0102000Y0189018D01*
X0072000Y0189018D01*
X0072000Y0196518D01*
X0102000Y0196518D01*
X0102000Y0189018D01*
X0102000Y0171518D01*
X0072000Y0171518D01*
X0072000Y0189018D01*
D24*
X0019646Y0159117D02*
X0013974Y0159117D01*
X0016810Y0161953D02*
X0016810Y0156282D01*
X0019575Y0052785D02*
X0013903Y0052785D01*
M02*
