%
M48
M72
T01C0.0120
T02C0.0197
T03C0.0200
T04C0.0320
T05C0.0394
T06C0.0400
%
T01
X9638Y3797
X9638Y4047
X9638Y4297
X9702Y6802
X9702Y7052
X9702Y7302
X9900Y9869
X9900Y10119
X9900Y10369
T02
X930Y3040
X1680Y3040
X2430Y3040
X2430Y16090
X1680Y16090
X930Y16090
T03
X2500Y17500
X4800Y16500
X5400Y15500
X5500Y17500
X10950Y12000
X8050Y10750
X8000Y9550
X10000Y8500
X8650Y6950
X9150Y5700
X12800Y8750
X13400Y6050
X14000Y1000
X15250Y12650
X15750Y13250
T04
X17000Y14050
X16650Y15450
X16650Y16350
X16650Y17250
X13650Y17250
X13650Y16350
X13650Y15450
X12600Y15200
X12100Y14450
X11600Y15200
X10516Y15493
X8984Y14207
X9149Y13263
X9149Y12263
X8004Y12425
X6499Y15076
X8004Y15425
X6499Y18076
X3904Y18079
X3904Y15079
X8000Y8550
X8000Y5487
X8000Y2488
X12000Y2488
X12050Y4000
X12000Y5487
X11850Y7000
X13350Y7000
X15000Y6500
X15500Y5750
X16000Y6500
X17000Y6650
X17000Y5150
X16000Y3000
X15500Y2250
X15000Y3000
X13550Y4000
X17000Y2150
X12000Y8550
X11900Y10050
X13400Y10050
X15000Y10000
X15500Y9250
X16000Y10000
X17000Y9650
X17000Y11050
T05
X12700Y17250
X11700Y17250
X10700Y17250
X9700Y17250
X8700Y17250
X7700Y17250
T06
X14650Y18100
X15650Y18100
M30
