G75*
%MOIN*%
%OFA0B0*%
%FSLAX25Y25*%
%IPPOS*%
%LPD*%
%AMOC8*
5,1,8,0,0,1.08239X$1,22.5*
%
%ADD10R,0.05906X0.03937*%
%ADD11R,0.05906X0.02756*%
%ADD12C,0.00600*%
%ADD13R,0.07087X0.06693*%
%ADD14R,0.07098X0.06299*%
%ADD15R,0.05906X0.08661*%
%ADD16R,0.05906X0.05118*%
%ADD17R,0.05118X0.05906*%
%ADD18R,0.02600X0.06000*%
%ADD19R,0.06299X0.05118*%
%ADD20R,0.03937X0.05512*%
%ADD21C,0.00500*%
%ADD22R,0.03150X0.05906*%
%ADD23R,0.09843X0.11811*%
D10*
X0103886Y0031058D03*
X0103897Y0042877D03*
X0103916Y0071115D03*
X0103927Y0082934D03*
X0103887Y0111101D03*
X0103898Y0122920D03*
D11*
X0091486Y0122916D03*
X0091521Y0111139D03*
X0091514Y0082930D03*
X0091550Y0071153D03*
X0091485Y0042873D03*
X0091520Y0031095D03*
D12*
X0005100Y0016911D02*
X0005100Y0055000D01*
X0032600Y0055000D01*
X0045100Y0041100D01*
X0059100Y0041100D01*
X0072100Y0055100D01*
X0072100Y0136021D01*
X0059100Y0150021D01*
X0045100Y0150021D01*
X0032600Y0136121D01*
X0005100Y0136121D01*
X0005100Y0174250D01*
X0016911Y0186061D01*
X0088786Y0120300D02*
X0097802Y0120300D01*
X0100873Y0118843D01*
X0106700Y0118843D01*
X0106660Y0115143D01*
X0101188Y0115182D01*
X0097881Y0113725D01*
X0088786Y0113725D01*
X0088786Y0120300D01*
X0088786Y0119914D02*
X0098616Y0119914D01*
X0099877Y0119316D02*
X0088786Y0119316D01*
X0088786Y0118717D02*
X0106698Y0118717D01*
X0106692Y0118119D02*
X0088786Y0118119D01*
X0088786Y0117520D02*
X0106686Y0117520D01*
X0106679Y0116922D02*
X0088786Y0116922D01*
X0088786Y0116323D02*
X0106673Y0116323D01*
X0106666Y0115725D02*
X0088786Y0115725D01*
X0088786Y0115126D02*
X0101061Y0115126D01*
X0099702Y0114528D02*
X0088786Y0114528D01*
X0088786Y0113929D02*
X0098343Y0113929D01*
X0097831Y0080314D02*
X0088815Y0080314D01*
X0088815Y0073739D01*
X0097910Y0073739D01*
X0101217Y0075196D01*
X0106689Y0075157D01*
X0106729Y0078857D01*
X0100902Y0078857D01*
X0097831Y0080314D01*
X0098885Y0079814D02*
X0088815Y0079814D01*
X0088815Y0079215D02*
X0100147Y0079215D01*
X0100830Y0075026D02*
X0088815Y0075026D01*
X0088815Y0075624D02*
X0106694Y0075624D01*
X0106701Y0076223D02*
X0088815Y0076223D01*
X0088815Y0076821D02*
X0106707Y0076821D01*
X0106713Y0077420D02*
X0088815Y0077420D01*
X0088815Y0078018D02*
X0106720Y0078018D01*
X0106726Y0078617D02*
X0088815Y0078617D01*
X0088815Y0074427D02*
X0099472Y0074427D01*
X0098113Y0073829D02*
X0088815Y0073829D01*
X0088786Y0040257D02*
X0097801Y0040257D01*
X0100872Y0038800D01*
X0106699Y0038800D01*
X0106660Y0035099D01*
X0101187Y0035139D01*
X0097880Y0033682D01*
X0088786Y0033682D01*
X0088786Y0040257D01*
X0088786Y0039714D02*
X0098946Y0039714D01*
X0100208Y0039115D02*
X0088786Y0039115D01*
X0088786Y0038517D02*
X0106696Y0038517D01*
X0106690Y0037918D02*
X0088786Y0037918D01*
X0088786Y0037320D02*
X0106683Y0037320D01*
X0106677Y0036721D02*
X0088786Y0036721D01*
X0088786Y0036123D02*
X0106670Y0036123D01*
X0106664Y0035524D02*
X0088786Y0035524D01*
X0088786Y0034926D02*
X0100704Y0034926D01*
X0099345Y0034327D02*
X0088786Y0034327D01*
X0088786Y0033729D02*
X0097986Y0033729D01*
X0162580Y0005100D02*
X0174391Y0016911D01*
X0174391Y0174250D01*
X0162580Y0186061D01*
X0005100Y0016911D02*
X0016911Y0005100D01*
D13*
X0090196Y0016755D03*
X0106338Y0016755D03*
X0106334Y0056753D03*
X0090193Y0056753D03*
X0090191Y0096752D03*
X0106333Y0096752D03*
D14*
X0083027Y0082612D03*
X0083027Y0071415D03*
X0082997Y0042545D03*
X0082997Y0031348D03*
X0083002Y0111397D03*
X0083002Y0122594D03*
D15*
X0115402Y0118000D03*
X0140598Y0118000D03*
X0140608Y0078010D03*
X0115412Y0078010D03*
X0115422Y0038020D03*
X0140618Y0038020D03*
D16*
X0156000Y0149260D03*
X0156000Y0156740D03*
X0134000Y0165260D03*
X0134000Y0172740D03*
D17*
X0139760Y0156000D03*
X0147240Y0156000D03*
X0161760Y0098500D03*
X0169240Y0098500D03*
X0169240Y0061000D03*
X0161760Y0061000D03*
X0161760Y0031000D03*
X0169240Y0031000D03*
D18*
X0162500Y0118294D03*
X0157500Y0118294D03*
X0152500Y0118294D03*
X0147500Y0118294D03*
X0147500Y0141706D03*
X0152500Y0141706D03*
X0157500Y0141706D03*
X0162500Y0141706D03*
D19*
X0166000Y0149260D03*
X0166000Y0156740D03*
D20*
X0156240Y0107331D03*
X0148760Y0107331D03*
X0152500Y0098669D03*
X0148760Y0069331D03*
X0156240Y0069331D03*
X0152500Y0060669D03*
X0148760Y0039331D03*
X0156240Y0039331D03*
X0152500Y0030669D03*
D21*
X0162726Y0005100D02*
X0017100Y0005100D01*
X0017100Y0186021D02*
X0162726Y0186021D01*
D22*
X0155906Y0165110D03*
X0150000Y0165110D03*
X0144094Y0165110D03*
D23*
X0150000Y0176134D03*
M02*
