G75*
%MOIN*%
%OFA0B0*%
%FSLAX25Y25*%
%IPPOS*%
%LPD*%
%AMOC8*
5,1,8,0,0,1.08239X$1,22.5*
%
%ADD10C,0.01800*%
%ADD11C,0.04800*%
%ADD12OC8,0.04800*%
%ADD13OC8,0.06300*%
%ADD14C,0.06300*%
%ADD15C,0.00960*%
%ADD16C,0.05906*%
%ADD17C,0.00600*%
%ADD18C,0.00500*%
%ADD19R,0.04800X0.25000*%
%ADD20R,0.02953X0.02953*%
%ADD21C,0.07400*%
%ADD22C,0.01000*%
%ADD23C,0.03200*%
%ADD24C,0.02400*%
%ADD25C,0.05000*%
%ADD26C,0.03200*%
D10*
X0096378Y0037970D03*
X0096378Y0040470D03*
X0096378Y0042970D03*
X0097018Y0068017D03*
X0097018Y0070517D03*
X0097018Y0073017D03*
X0098999Y0098693D03*
X0098999Y0101193D03*
X0098999Y0103693D03*
D11*
X0119000Y0102900D02*
X0119000Y0098100D01*
X0117598Y0085498D02*
X0122398Y0085498D01*
X0118500Y0072400D02*
X0118500Y0067600D01*
X0117597Y0054867D02*
X0122397Y0054867D01*
X0133500Y0067600D02*
X0133500Y0072400D01*
X0134000Y0098100D02*
X0134000Y0102900D01*
X0082398Y0085498D02*
X0077598Y0085498D01*
X0077597Y0054867D02*
X0082397Y0054867D01*
X0082403Y0024875D02*
X0077603Y0024875D01*
X0117603Y0024875D02*
X0122403Y0024875D01*
X0120500Y0037600D02*
X0120500Y0042400D01*
X0135500Y0042400D02*
X0135500Y0037600D01*
D12*
X0150000Y0030000D03*
X0155000Y0022500D03*
X0160000Y0030000D03*
X0170000Y0021500D03*
X0170000Y0051500D03*
X0155000Y0057500D03*
X0150000Y0065000D03*
X0160000Y0065000D03*
X0170000Y0066500D03*
X0155000Y0092500D03*
X0150000Y0100000D03*
X0160000Y0100000D03*
X0170000Y0096500D03*
X0170000Y0110500D03*
X0170000Y0140500D03*
X0166500Y0154500D03*
X0166500Y0163500D03*
X0166500Y0172500D03*
X0136500Y0172500D03*
X0136500Y0163500D03*
X0136500Y0154500D03*
X0126000Y0152000D03*
X0121000Y0144500D03*
X0116000Y0152000D03*
X0080042Y0154246D03*
X0064993Y0150757D03*
X0039043Y0150793D03*
X0039043Y0180793D03*
X0064993Y0180757D03*
X0080042Y0124246D03*
D13*
X0091493Y0122634D03*
D14*
X0091493Y0132634D03*
D15*
X0088339Y0141927D02*
X0087859Y0141447D01*
X0087997Y0143031D01*
X0089215Y0144053D01*
X0090799Y0143915D01*
X0091821Y0142697D01*
X0091683Y0141113D01*
X0090465Y0140091D01*
X0088881Y0140229D01*
X0087859Y0141447D01*
X0088602Y0141682D01*
X0088688Y0142671D01*
X0089450Y0143310D01*
X0090439Y0143224D01*
X0091078Y0142462D01*
X0090992Y0141473D01*
X0090230Y0140834D01*
X0089241Y0140920D01*
X0088602Y0141682D01*
X0089346Y0141916D01*
X0089380Y0142312D01*
X0089684Y0142566D01*
X0090080Y0142532D01*
X0090334Y0142228D01*
X0090300Y0141832D01*
X0089996Y0141578D01*
X0089600Y0141612D01*
X0089346Y0141916D01*
X0103659Y0154783D02*
X0103179Y0154303D01*
X0103317Y0155887D01*
X0104535Y0156909D01*
X0106119Y0156771D01*
X0107141Y0155553D01*
X0107003Y0153969D01*
X0105785Y0152947D01*
X0104201Y0153085D01*
X0103179Y0154303D01*
X0103922Y0154538D01*
X0104008Y0155527D01*
X0104770Y0156166D01*
X0105759Y0156080D01*
X0106398Y0155318D01*
X0106312Y0154329D01*
X0105550Y0153690D01*
X0104561Y0153776D01*
X0103922Y0154538D01*
X0104666Y0154772D01*
X0104700Y0155168D01*
X0105004Y0155422D01*
X0105400Y0155388D01*
X0105654Y0155084D01*
X0105620Y0154688D01*
X0105316Y0154434D01*
X0104920Y0154468D01*
X0104666Y0154772D01*
D16*
X0107000Y0169547D02*
X0107000Y0175453D01*
X0097000Y0175453D02*
X0097000Y0169547D01*
X0087000Y0169547D02*
X0087000Y0175453D01*
X0077000Y0175453D02*
X0077000Y0169547D01*
X0117000Y0169547D02*
X0117000Y0175453D01*
X0127000Y0175453D02*
X0127000Y0169547D01*
D17*
X0005100Y0016911D02*
X0016911Y0005100D01*
X0005100Y0016911D02*
X0005100Y0055000D01*
X0032600Y0055000D01*
X0045100Y0041100D01*
X0059100Y0041100D01*
X0072100Y0055100D01*
X0072100Y0136021D01*
X0059100Y0150021D01*
X0045100Y0150021D01*
X0032600Y0136121D01*
X0005100Y0136121D01*
X0005100Y0174250D01*
X0016911Y0186061D01*
X0162580Y0186061D02*
X0174391Y0174250D01*
X0174391Y0016911D01*
X0162580Y0005100D01*
D18*
X0162726Y0005100D02*
X0017100Y0005100D01*
X0017100Y0186021D02*
X0162726Y0186021D01*
D19*
X0024300Y0150500D03*
X0016800Y0150500D03*
X0009300Y0150500D03*
X0009300Y0040500D03*
X0016800Y0040500D03*
X0024300Y0040500D03*
D20*
X0024300Y0030400D03*
X0016800Y0030400D03*
X0009300Y0030400D03*
X0009300Y0160900D03*
X0016800Y0160900D03*
X0024300Y0160900D03*
D21*
X0146500Y0181000D03*
X0156500Y0181000D03*
D22*
X0152983Y0184271D02*
X0152431Y0183719D01*
X0151700Y0181955D01*
X0151700Y0180045D01*
X0152431Y0178281D01*
X0153781Y0176931D01*
X0155545Y0176200D01*
X0157455Y0176200D01*
X0159219Y0176931D01*
X0160569Y0178281D01*
X0161300Y0180045D01*
X0161300Y0181955D01*
X0160569Y0183719D01*
X0160017Y0184271D01*
X0161824Y0184271D01*
X0172591Y0173504D01*
X0172591Y0142858D01*
X0171450Y0144000D01*
X0168550Y0144000D01*
X0168267Y0143717D01*
X0140000Y0155530D01*
X0140000Y0155950D01*
X0137950Y0158000D01*
X0135050Y0158000D01*
X0133000Y0155950D01*
X0133000Y0154818D01*
X0132882Y0154700D01*
X0128250Y0154700D01*
X0127450Y0155500D01*
X0126575Y0155500D01*
X0122833Y0159922D01*
X0122789Y0160029D01*
X0122489Y0160330D01*
X0122214Y0160654D01*
X0122111Y0160707D01*
X0122029Y0160789D01*
X0121637Y0160951D01*
X0121259Y0161146D01*
X0121144Y0161156D01*
X0121037Y0161200D01*
X0120612Y0161200D01*
X0133850Y0161200D01*
X0135050Y0160000D01*
X0137950Y0160000D01*
X0140000Y0162050D01*
X0140000Y0164950D01*
X0137950Y0167000D01*
X0135050Y0167000D01*
X0133850Y0165800D01*
X0128544Y0165800D01*
X0129296Y0166111D01*
X0130436Y0167252D01*
X0131053Y0168741D01*
X0131053Y0176259D01*
X0130436Y0177748D01*
X0129296Y0178889D01*
X0127806Y0179505D01*
X0126194Y0179505D01*
X0124704Y0178889D01*
X0123564Y0177748D01*
X0122947Y0176259D01*
X0122947Y0168741D01*
X0123564Y0167252D01*
X0124704Y0166111D01*
X0125456Y0165800D01*
X0119418Y0165800D01*
X0119901Y0166151D01*
X0120396Y0166646D01*
X0120808Y0167213D01*
X0121127Y0167838D01*
X0121343Y0168505D01*
X0121453Y0169197D01*
X0121453Y0172016D01*
X0117484Y0172016D01*
X0117484Y0172984D01*
X0116516Y0172984D01*
X0116516Y0172016D01*
X0112547Y0172016D01*
X0112547Y0169197D01*
X0112657Y0168505D01*
X0112873Y0167838D01*
X0113192Y0167213D01*
X0113604Y0166646D01*
X0114099Y0166151D01*
X0114582Y0165800D01*
X0108544Y0165800D01*
X0109296Y0166111D01*
X0110436Y0167252D01*
X0111053Y0168741D01*
X0111053Y0176259D01*
X0110436Y0177748D01*
X0109296Y0178889D01*
X0107806Y0179505D01*
X0106194Y0179505D01*
X0104704Y0178889D01*
X0103564Y0177748D01*
X0102947Y0176259D01*
X0102947Y0168741D01*
X0103564Y0167252D01*
X0104704Y0166111D01*
X0105456Y0165800D01*
X0102073Y0165800D01*
X0100989Y0168588D01*
X0101053Y0168741D01*
X0101053Y0176259D01*
X0100436Y0177748D01*
X0099296Y0178889D01*
X0097806Y0179505D01*
X0096194Y0179505D01*
X0094704Y0178889D01*
X0093564Y0177748D01*
X0092947Y0176259D01*
X0092947Y0168741D01*
X0093564Y0167252D01*
X0094704Y0166111D01*
X0096194Y0165494D01*
X0097257Y0165494D01*
X0098200Y0163069D01*
X0098200Y0162547D01*
X0098532Y0162216D01*
X0098702Y0161778D01*
X0099179Y0161569D01*
X0099547Y0161200D01*
X0100016Y0161200D01*
X0100446Y0161011D01*
X0100931Y0161200D01*
X0120079Y0161200D01*
X0120079Y0161200D01*
X0111963Y0161200D01*
X0110971Y0160789D01*
X0110211Y0160029D01*
X0108239Y0158057D01*
X0107217Y0157922D01*
X0106910Y0158288D01*
X0104021Y0158541D01*
X0101800Y0156677D01*
X0101547Y0153789D01*
X0103411Y0151568D01*
X0106300Y0151315D01*
X0107770Y0152549D01*
X0109677Y0152800D01*
X0110037Y0152800D01*
X0110205Y0152870D01*
X0110385Y0152893D01*
X0110697Y0153073D01*
X0111029Y0153211D01*
X0111158Y0153340D01*
X0111315Y0153431D01*
X0111535Y0153716D01*
X0113618Y0155800D01*
X0119248Y0155800D01*
X0122500Y0151956D01*
X0122500Y0150550D01*
X0124550Y0148500D01*
X0127450Y0148500D01*
X0128250Y0149300D01*
X0134537Y0149300D01*
X0135529Y0149711D01*
X0136289Y0150471D01*
X0136818Y0151000D01*
X0137950Y0151000D01*
X0138233Y0151283D01*
X0166500Y0139470D01*
X0166500Y0139050D01*
X0167700Y0137850D01*
X0167700Y0120753D01*
X0162749Y0114002D01*
X0162200Y0113453D01*
X0162200Y0113253D01*
X0162082Y0113092D01*
X0162200Y0112324D01*
X0162200Y0107596D01*
X0162129Y0106742D01*
X0162200Y0106657D01*
X0162200Y0106547D01*
X0162806Y0105941D01*
X0167700Y0100157D01*
X0167700Y0099150D01*
X0166500Y0097950D01*
X0166500Y0095050D01*
X0167700Y0093850D01*
X0167700Y0080417D01*
X0163521Y0069274D01*
X0163200Y0068953D01*
X0163200Y0068417D01*
X0163012Y0067916D01*
X0163200Y0067502D01*
X0163200Y0067315D01*
X0161615Y0068900D01*
X0160300Y0068900D01*
X0160300Y0065300D01*
X0159700Y0065300D01*
X0159700Y0068900D01*
X0158385Y0068900D01*
X0157559Y0068074D01*
X0157795Y0077768D01*
X0157932Y0078534D01*
X0157818Y0078697D01*
X0157823Y0078896D01*
X0157287Y0079459D01*
X0146300Y0095222D01*
X0146300Y0117547D01*
X0152553Y0123800D01*
X0153037Y0123800D01*
X0154029Y0124211D01*
X0154789Y0124971D01*
X0155200Y0125963D01*
X0155200Y0127037D01*
X0154789Y0128029D01*
X0154029Y0128789D01*
X0153037Y0129200D01*
X0151963Y0129200D01*
X0150971Y0128789D01*
X0150211Y0128029D01*
X0150165Y0127917D01*
X0141700Y0119453D01*
X0141700Y0094704D01*
X0141568Y0093966D01*
X0141700Y0093778D01*
X0141700Y0093547D01*
X0142230Y0093018D01*
X0153182Y0077303D01*
X0152931Y0067018D01*
X0151450Y0068500D01*
X0148550Y0068500D01*
X0146500Y0066450D01*
X0146500Y0063550D01*
X0148550Y0061500D01*
X0151450Y0061500D01*
X0152831Y0062881D01*
X0152766Y0060215D01*
X0151500Y0058950D01*
X0151500Y0056050D01*
X0153550Y0054000D01*
X0156450Y0054000D01*
X0158500Y0056050D01*
X0158500Y0058950D01*
X0157364Y0060086D01*
X0157412Y0062072D01*
X0158385Y0061100D01*
X0159700Y0061100D01*
X0159700Y0064700D01*
X0160300Y0064700D01*
X0160300Y0061100D01*
X0161615Y0061100D01*
X0163200Y0062685D01*
X0163200Y0062443D01*
X0163011Y0061970D01*
X0163200Y0061528D01*
X0163200Y0061047D01*
X0163560Y0060687D01*
X0166763Y0053213D01*
X0166500Y0052950D01*
X0166500Y0050050D01*
X0168550Y0048000D01*
X0171450Y0048000D01*
X0172591Y0049142D01*
X0172591Y0023858D01*
X0171450Y0025000D01*
X0168550Y0025000D01*
X0166500Y0022950D01*
X0166500Y0020050D01*
X0168550Y0018000D01*
X0171450Y0018000D01*
X0172591Y0019142D01*
X0172591Y0017657D01*
X0161785Y0006850D01*
X0120103Y0006850D01*
X0120800Y0007547D01*
X0130300Y0017047D01*
X0130300Y0066180D01*
X0130533Y0065617D01*
X0131517Y0064633D01*
X0132804Y0064100D01*
X0134196Y0064100D01*
X0135483Y0064633D01*
X0136200Y0065350D01*
X0136200Y0065066D01*
X0136149Y0064180D01*
X0136200Y0064123D01*
X0136200Y0064047D01*
X0136827Y0063420D01*
X0152700Y0045623D01*
X0152700Y0032250D01*
X0151450Y0033500D01*
X0148550Y0033500D01*
X0146992Y0031942D01*
X0146805Y0042223D01*
X0146967Y0042836D01*
X0146789Y0043141D01*
X0146782Y0043494D01*
X0146326Y0043934D01*
X0136700Y0060436D01*
X0136700Y0061037D01*
X0136289Y0062029D01*
X0135529Y0062789D01*
X0134537Y0063200D01*
X0133463Y0063200D01*
X0132471Y0062789D01*
X0131711Y0062029D01*
X0131300Y0061037D01*
X0131300Y0059963D01*
X0131711Y0058971D01*
X0132471Y0058211D01*
X0132737Y0058101D01*
X0142211Y0041859D01*
X0142683Y0015935D01*
X0139436Y0012689D01*
X0138471Y0012289D01*
X0137711Y0011529D01*
X0137300Y0010537D01*
X0137300Y0009463D01*
X0137711Y0008471D01*
X0138471Y0007711D01*
X0139463Y0007300D01*
X0140537Y0007300D01*
X0141529Y0007711D01*
X0142289Y0008471D01*
X0142689Y0009436D01*
X0145970Y0012717D01*
X0145994Y0012718D01*
X0146641Y0013388D01*
X0147300Y0014047D01*
X0147300Y0014072D01*
X0147317Y0014089D01*
X0147300Y0015021D01*
X0147300Y0015953D01*
X0147283Y0015970D01*
X0147064Y0027986D01*
X0148550Y0026500D01*
X0151450Y0026500D01*
X0152700Y0027750D01*
X0152700Y0025150D01*
X0151500Y0023950D01*
X0151500Y0021050D01*
X0153550Y0019000D01*
X0156450Y0019000D01*
X0158500Y0021050D01*
X0158500Y0023950D01*
X0157300Y0025150D01*
X0157300Y0027185D01*
X0158385Y0026100D01*
X0159700Y0026100D01*
X0159700Y0029700D01*
X0160300Y0029700D01*
X0160300Y0030300D01*
X0159700Y0030300D01*
X0159700Y0033900D01*
X0158385Y0033900D01*
X0157300Y0032815D01*
X0157300Y0046434D01*
X0157351Y0047320D01*
X0157300Y0047377D01*
X0157300Y0047453D01*
X0156673Y0048080D01*
X0140800Y0065877D01*
X0140800Y0119917D01*
X0146370Y0130200D01*
X0155997Y0130200D01*
X0156963Y0129800D01*
X0158037Y0129800D01*
X0159029Y0130211D01*
X0159789Y0130971D01*
X0160200Y0131963D01*
X0160200Y0133037D01*
X0159789Y0134029D01*
X0159029Y0134789D01*
X0158037Y0135200D01*
X0156963Y0135200D01*
X0155997Y0134800D01*
X0145583Y0134800D01*
X0145258Y0134976D01*
X0144665Y0134800D01*
X0144047Y0134800D01*
X0143786Y0134539D01*
X0143431Y0134433D01*
X0143137Y0133890D01*
X0142700Y0133453D01*
X0142700Y0133083D01*
X0136637Y0121890D01*
X0136200Y0121453D01*
X0136200Y0121083D01*
X0136024Y0120758D01*
X0136200Y0120165D01*
X0136200Y0105650D01*
X0135983Y0105867D01*
X0134696Y0106400D01*
X0133304Y0106400D01*
X0132017Y0105867D01*
X0131033Y0104883D01*
X0130500Y0103596D01*
X0130500Y0097404D01*
X0131033Y0096117D01*
X0132017Y0095133D01*
X0133304Y0094600D01*
X0134696Y0094600D01*
X0135983Y0095133D01*
X0136200Y0095350D01*
X0136200Y0074650D01*
X0135483Y0075367D01*
X0134196Y0075900D01*
X0132804Y0075900D01*
X0131517Y0075367D01*
X0130533Y0074383D01*
X0130300Y0073820D01*
X0130300Y0085997D01*
X0130700Y0086963D01*
X0130700Y0088037D01*
X0130289Y0089029D01*
X0129529Y0089789D01*
X0128537Y0090200D01*
X0127463Y0090200D01*
X0126471Y0089789D01*
X0125711Y0089029D01*
X0125300Y0088037D01*
X0125300Y0087546D01*
X0124381Y0088465D01*
X0123094Y0088998D01*
X0116902Y0088998D01*
X0115616Y0088465D01*
X0114631Y0087481D01*
X0114098Y0086194D01*
X0114098Y0084802D01*
X0114631Y0083516D01*
X0115616Y0082531D01*
X0116902Y0081998D01*
X0123094Y0081998D01*
X0124381Y0082531D01*
X0125365Y0083516D01*
X0125700Y0084324D01*
X0125700Y0056038D01*
X0125364Y0056850D01*
X0124379Y0057834D01*
X0123093Y0058367D01*
X0116900Y0058367D01*
X0115614Y0057834D01*
X0114629Y0056850D01*
X0114097Y0055563D01*
X0114097Y0054171D01*
X0114629Y0052884D01*
X0115614Y0051900D01*
X0116900Y0051367D01*
X0123093Y0051367D01*
X0124379Y0051900D01*
X0125364Y0052884D01*
X0125700Y0053696D01*
X0125700Y0026062D01*
X0125370Y0026858D01*
X0124386Y0027842D01*
X0123099Y0028375D01*
X0116907Y0028375D01*
X0115620Y0027842D01*
X0114636Y0026858D01*
X0114103Y0025571D01*
X0114103Y0024179D01*
X0114636Y0022893D01*
X0115620Y0021908D01*
X0116907Y0021375D01*
X0123099Y0021375D01*
X0124386Y0021908D01*
X0125370Y0022893D01*
X0125700Y0023689D01*
X0125700Y0018953D01*
X0117547Y0010800D01*
X0019953Y0010800D01*
X0011600Y0019153D01*
X0011600Y0026900D01*
X0012156Y0026900D01*
X0012800Y0027544D01*
X0012800Y0053200D01*
X0013300Y0053200D01*
X0013300Y0027544D01*
X0013944Y0026900D01*
X0019656Y0026900D01*
X0020300Y0027544D01*
X0020300Y0053200D01*
X0020800Y0053200D01*
X0020800Y0027544D01*
X0021444Y0026900D01*
X0027156Y0026900D01*
X0027800Y0027544D01*
X0027800Y0053200D01*
X0031798Y0053200D01*
X0043300Y0040410D01*
X0043300Y0040354D01*
X0043794Y0039861D01*
X0044260Y0039342D01*
X0044315Y0039339D01*
X0044354Y0039300D01*
X0045052Y0039300D01*
X0045749Y0039263D01*
X0045790Y0039300D01*
X0058393Y0039300D01*
X0058422Y0039274D01*
X0059133Y0039300D01*
X0059846Y0039300D01*
X0059873Y0039327D01*
X0059912Y0039329D01*
X0060396Y0039851D01*
X0060900Y0040354D01*
X0060900Y0040393D01*
X0073396Y0053851D01*
X0073900Y0054354D01*
X0073900Y0054393D01*
X0073926Y0054422D01*
X0073900Y0055133D01*
X0073900Y0135988D01*
X0073926Y0136700D01*
X0073900Y0136728D01*
X0073900Y0136767D01*
X0073396Y0137271D01*
X0064123Y0147257D01*
X0065240Y0147257D01*
X0069797Y0142700D01*
X0079047Y0142700D01*
X0082700Y0139047D01*
X0082700Y0126538D01*
X0081492Y0127746D01*
X0078592Y0127746D01*
X0076542Y0125696D01*
X0076542Y0122796D01*
X0078592Y0120746D01*
X0081492Y0120746D01*
X0082700Y0121954D01*
X0082700Y0100519D01*
X0082685Y0099585D01*
X0082700Y0099569D01*
X0082700Y0099547D01*
X0083360Y0098887D01*
X0097300Y0084483D01*
X0097300Y0084463D01*
X0097711Y0083471D01*
X0098471Y0082711D01*
X0099463Y0082300D01*
X0100537Y0082300D01*
X0101529Y0082711D01*
X0102289Y0083471D01*
X0102700Y0084463D01*
X0102700Y0085537D01*
X0102289Y0086529D01*
X0101529Y0087289D01*
X0100622Y0087665D01*
X0087300Y0101431D01*
X0087300Y0120251D01*
X0089567Y0117984D01*
X0091193Y0117984D01*
X0091193Y0122334D01*
X0091793Y0122334D01*
X0091793Y0117984D01*
X0093419Y0117984D01*
X0096143Y0120708D01*
X0096143Y0122334D01*
X0091793Y0122334D01*
X0091793Y0122934D01*
X0096143Y0122934D01*
X0096143Y0124283D01*
X0097920Y0122856D01*
X0100511Y0115084D01*
X0100603Y0114610D01*
X0100735Y0114410D01*
X0100811Y0114182D01*
X0101127Y0113818D01*
X0101393Y0113416D01*
X0101592Y0113282D01*
X0101750Y0113100D01*
X0102181Y0112885D01*
X0105419Y0110700D01*
X0105900Y0061982D01*
X0105900Y0061705D01*
X0093818Y0055540D01*
X0094200Y0056463D01*
X0094200Y0057537D01*
X0093800Y0058503D01*
X0093800Y0083475D01*
X0093820Y0084404D01*
X0093800Y0084424D01*
X0093800Y0084453D01*
X0093144Y0085109D01*
X0082700Y0096007D01*
X0082700Y0096037D01*
X0082289Y0097029D01*
X0081529Y0097789D01*
X0080537Y0098200D01*
X0079463Y0098200D01*
X0078471Y0097789D01*
X0077711Y0097029D01*
X0077300Y0096037D01*
X0077300Y0094963D01*
X0077711Y0093971D01*
X0078471Y0093211D01*
X0079362Y0092842D01*
X0083045Y0088998D01*
X0080956Y0088998D01*
X0080714Y0089098D01*
X0079282Y0089098D01*
X0079041Y0088998D01*
X0076902Y0088998D01*
X0075616Y0088465D01*
X0074631Y0087481D01*
X0074098Y0086194D01*
X0074098Y0084802D01*
X0074631Y0083516D01*
X0075616Y0082531D01*
X0076397Y0082207D01*
X0076397Y0058158D01*
X0075614Y0057834D01*
X0074629Y0056850D01*
X0074097Y0055563D01*
X0074097Y0054171D01*
X0074629Y0052884D01*
X0075614Y0051900D01*
X0076397Y0051576D01*
X0076397Y0050898D01*
X0076327Y0050583D01*
X0076397Y0050188D01*
X0076397Y0049787D01*
X0076520Y0049490D01*
X0076576Y0049173D01*
X0076791Y0048835D01*
X0076945Y0048464D01*
X0077172Y0048237D01*
X0077345Y0047965D01*
X0077674Y0047735D01*
X0077957Y0047451D01*
X0078255Y0047328D01*
X0079421Y0046512D01*
X0077964Y0045055D01*
X0077964Y0045055D01*
X0076951Y0044042D01*
X0076403Y0042719D01*
X0076403Y0028167D01*
X0075620Y0027842D01*
X0074636Y0026858D01*
X0074103Y0025571D01*
X0074103Y0024179D01*
X0074636Y0022893D01*
X0075620Y0021908D01*
X0076907Y0021375D01*
X0079046Y0021375D01*
X0079287Y0021275D01*
X0080719Y0021275D01*
X0080961Y0021375D01*
X0083099Y0021375D01*
X0084386Y0021908D01*
X0085370Y0022893D01*
X0085903Y0024179D01*
X0085903Y0025571D01*
X0085370Y0026858D01*
X0084386Y0027842D01*
X0083603Y0028167D01*
X0083603Y0040512D01*
X0087143Y0044052D01*
X0111009Y0056229D01*
X0111539Y0056448D01*
X0111643Y0056552D01*
X0111774Y0056619D01*
X0112146Y0057055D01*
X0112552Y0057461D01*
X0112608Y0057596D01*
X0112703Y0057708D01*
X0112880Y0058254D01*
X0113100Y0058784D01*
X0113100Y0058931D01*
X0113145Y0059071D01*
X0113100Y0059642D01*
X0113100Y0061302D01*
X0113107Y0061319D01*
X0113100Y0062018D01*
X0113100Y0062716D01*
X0113093Y0062733D01*
X0112604Y0112282D01*
X0112670Y0112611D01*
X0112597Y0112991D01*
X0112593Y0113379D01*
X0112461Y0113688D01*
X0112397Y0114017D01*
X0112183Y0114340D01*
X0112032Y0114696D01*
X0111792Y0114931D01*
X0111607Y0115211D01*
X0111286Y0115428D01*
X0111009Y0115699D01*
X0110698Y0115824D01*
X0107028Y0118300D01*
X0104537Y0125773D01*
X0104501Y0126103D01*
X0104313Y0126446D01*
X0104189Y0126818D01*
X0103972Y0127068D01*
X0103812Y0127359D01*
X0103507Y0127604D01*
X0103250Y0127900D01*
X0102954Y0128048D01*
X0095520Y0134017D01*
X0095096Y0135042D01*
X0093900Y0136237D01*
X0092338Y0136884D01*
X0090648Y0136884D01*
X0089086Y0136237D01*
X0087890Y0135042D01*
X0087300Y0133617D01*
X0087300Y0139031D01*
X0087890Y0138328D01*
X0091109Y0138046D01*
X0092117Y0138892D01*
X0089803Y0141649D01*
X0090262Y0142035D01*
X0092576Y0139277D01*
X0093584Y0140123D01*
X0093865Y0143341D01*
X0093020Y0144349D01*
X0090262Y0142035D01*
X0089877Y0142495D01*
X0092634Y0144809D01*
X0091789Y0145816D01*
X0088570Y0146098D01*
X0087562Y0145253D01*
X0089876Y0142495D01*
X0089417Y0142109D01*
X0087103Y0144867D01*
X0086095Y0144021D01*
X0085945Y0142307D01*
X0082300Y0145953D01*
X0080953Y0147300D01*
X0071702Y0147300D01*
X0068492Y0150509D01*
X0068492Y0152207D01*
X0067292Y0153407D01*
X0067292Y0165960D01*
X0057689Y0175564D01*
X0057289Y0176529D01*
X0056529Y0177289D01*
X0055537Y0177700D01*
X0054463Y0177700D01*
X0053471Y0177289D01*
X0052711Y0176529D01*
X0052300Y0175537D01*
X0052300Y0174463D01*
X0052711Y0173471D01*
X0053471Y0172711D01*
X0054436Y0172311D01*
X0062693Y0164055D01*
X0062693Y0153407D01*
X0061493Y0152207D01*
X0061493Y0150090D01*
X0060900Y0150728D01*
X0060900Y0150767D01*
X0060396Y0151271D01*
X0059912Y0151792D01*
X0059873Y0151794D01*
X0059846Y0151821D01*
X0059133Y0151821D01*
X0058422Y0151848D01*
X0058393Y0151821D01*
X0045790Y0151821D01*
X0045749Y0151858D01*
X0045052Y0151821D01*
X0044354Y0151821D01*
X0044315Y0151782D01*
X0044260Y0151779D01*
X0043794Y0151260D01*
X0043300Y0150767D01*
X0043300Y0150712D01*
X0042543Y0149869D01*
X0042543Y0152243D01*
X0040492Y0154293D01*
X0037593Y0154293D01*
X0035543Y0152243D01*
X0035543Y0149344D01*
X0037593Y0147293D01*
X0040226Y0147293D01*
X0031798Y0137921D01*
X0027800Y0137921D01*
X0027800Y0163456D01*
X0027156Y0164100D01*
X0021444Y0164100D01*
X0020800Y0163456D01*
X0020800Y0137921D01*
X0020300Y0137921D01*
X0020300Y0163456D01*
X0019656Y0164100D01*
X0019100Y0164100D01*
X0019100Y0165847D01*
X0025564Y0172311D01*
X0026529Y0172711D01*
X0027289Y0173471D01*
X0027700Y0174463D01*
X0027700Y0175537D01*
X0027289Y0176529D01*
X0026529Y0177289D01*
X0025537Y0177700D01*
X0024463Y0177700D01*
X0023471Y0177289D01*
X0022711Y0176529D01*
X0022311Y0175564D01*
X0015847Y0169100D01*
X0014500Y0167753D01*
X0014500Y0164100D01*
X0013944Y0164100D01*
X0013300Y0163456D01*
X0013300Y0137921D01*
X0012800Y0137921D01*
X0012800Y0163456D01*
X0012156Y0164100D01*
X0006900Y0164100D01*
X0006900Y0173504D01*
X0017667Y0184271D01*
X0037571Y0184271D01*
X0035543Y0182243D01*
X0035543Y0179344D01*
X0037593Y0177293D01*
X0040492Y0177293D01*
X0042543Y0179344D01*
X0042543Y0182243D01*
X0040514Y0184271D01*
X0142983Y0184271D01*
X0142431Y0183719D01*
X0141700Y0181955D01*
X0141700Y0180045D01*
X0142431Y0178281D01*
X0143781Y0176931D01*
X0144342Y0176698D01*
X0144679Y0166592D01*
X0144535Y0166348D01*
X0144710Y0165670D01*
X0144733Y0164971D01*
X0144940Y0164777D01*
X0145011Y0164503D01*
X0145614Y0164147D01*
X0146124Y0163670D01*
X0146408Y0163679D01*
X0163000Y0153894D01*
X0163000Y0153050D01*
X0165050Y0151000D01*
X0167950Y0151000D01*
X0170000Y0153050D01*
X0170000Y0155950D01*
X0167950Y0158000D01*
X0165093Y0158000D01*
X0149257Y0167339D01*
X0148941Y0176816D01*
X0149219Y0176931D01*
X0150569Y0178281D01*
X0151300Y0180045D01*
X0151300Y0181955D01*
X0150569Y0183719D01*
X0150017Y0184271D01*
X0152983Y0184271D01*
X0152445Y0183734D02*
X0150555Y0183734D01*
X0150977Y0182735D02*
X0152023Y0182735D01*
X0151700Y0181737D02*
X0151300Y0181737D01*
X0151300Y0180738D02*
X0151700Y0180738D01*
X0151827Y0179739D02*
X0151173Y0179739D01*
X0150760Y0178741D02*
X0152240Y0178741D01*
X0152969Y0177742D02*
X0150031Y0177742D01*
X0148943Y0176744D02*
X0154232Y0176744D01*
X0148976Y0175745D02*
X0164796Y0175745D01*
X0165050Y0176000D02*
X0163000Y0173950D01*
X0163000Y0171050D01*
X0165050Y0169000D01*
X0167950Y0169000D01*
X0170000Y0171050D01*
X0170000Y0173950D01*
X0167950Y0176000D01*
X0165050Y0176000D01*
X0163797Y0174747D02*
X0149010Y0174747D01*
X0149043Y0173748D02*
X0163000Y0173748D01*
X0163000Y0172750D02*
X0149076Y0172750D01*
X0149110Y0171751D02*
X0163000Y0171751D01*
X0163297Y0170753D02*
X0149143Y0170753D01*
X0149176Y0169754D02*
X0164296Y0169754D01*
X0165050Y0167000D02*
X0163000Y0164950D01*
X0163000Y0162050D01*
X0165050Y0160000D01*
X0167950Y0160000D01*
X0170000Y0162050D01*
X0170000Y0164950D01*
X0167950Y0167000D01*
X0165050Y0167000D01*
X0164809Y0166759D02*
X0150241Y0166759D01*
X0149243Y0167757D02*
X0172591Y0167757D01*
X0172591Y0166759D02*
X0168191Y0166759D01*
X0169189Y0165760D02*
X0172591Y0165760D01*
X0172591Y0164762D02*
X0170000Y0164762D01*
X0170000Y0163763D02*
X0172591Y0163763D01*
X0172591Y0162765D02*
X0170000Y0162765D01*
X0169716Y0161766D02*
X0172591Y0161766D01*
X0172591Y0160768D02*
X0168718Y0160768D01*
X0168177Y0157772D02*
X0172591Y0157772D01*
X0172591Y0156774D02*
X0169176Y0156774D01*
X0170000Y0155775D02*
X0172591Y0155775D01*
X0172591Y0154777D02*
X0170000Y0154777D01*
X0170000Y0153778D02*
X0172591Y0153778D01*
X0172591Y0152780D02*
X0169729Y0152780D01*
X0168731Y0151781D02*
X0172591Y0151781D01*
X0172591Y0150783D02*
X0151360Y0150783D01*
X0148971Y0151781D02*
X0164269Y0151781D01*
X0163271Y0152780D02*
X0146581Y0152780D01*
X0144192Y0153778D02*
X0163000Y0153778D01*
X0161503Y0154777D02*
X0141803Y0154777D01*
X0140000Y0155775D02*
X0159810Y0155775D01*
X0158117Y0156774D02*
X0139176Y0156774D01*
X0138177Y0157772D02*
X0156424Y0157772D01*
X0154731Y0158771D02*
X0123808Y0158771D01*
X0122963Y0159769D02*
X0153037Y0159769D01*
X0151344Y0160768D02*
X0138718Y0160768D01*
X0139716Y0161766D02*
X0149651Y0161766D01*
X0147958Y0162765D02*
X0140000Y0162765D01*
X0140000Y0163763D02*
X0146024Y0163763D01*
X0144944Y0164762D02*
X0140000Y0164762D01*
X0139189Y0165760D02*
X0144686Y0165760D01*
X0144673Y0166759D02*
X0138191Y0166759D01*
X0137950Y0169000D02*
X0140000Y0171050D01*
X0140000Y0173950D01*
X0137950Y0176000D01*
X0135050Y0176000D01*
X0133000Y0173950D01*
X0133000Y0171050D01*
X0135050Y0169000D01*
X0137950Y0169000D01*
X0138704Y0169754D02*
X0144574Y0169754D01*
X0144607Y0168756D02*
X0131053Y0168756D01*
X0131053Y0169754D02*
X0134296Y0169754D01*
X0133297Y0170753D02*
X0131053Y0170753D01*
X0131053Y0171751D02*
X0133000Y0171751D01*
X0133000Y0172750D02*
X0131053Y0172750D01*
X0131053Y0173748D02*
X0133000Y0173748D01*
X0133797Y0174747D02*
X0131053Y0174747D01*
X0131053Y0175745D02*
X0134796Y0175745D01*
X0138204Y0175745D02*
X0144374Y0175745D01*
X0144407Y0174747D02*
X0139203Y0174747D01*
X0140000Y0173748D02*
X0144440Y0173748D01*
X0144474Y0172750D02*
X0140000Y0172750D01*
X0140000Y0171751D02*
X0144507Y0171751D01*
X0144540Y0170753D02*
X0139703Y0170753D01*
X0134809Y0166759D02*
X0129943Y0166759D01*
X0130645Y0167757D02*
X0144640Y0167757D01*
X0149209Y0168756D02*
X0172591Y0168756D01*
X0172591Y0169754D02*
X0168704Y0169754D01*
X0169703Y0170753D02*
X0172591Y0170753D01*
X0172591Y0171751D02*
X0170000Y0171751D01*
X0170000Y0172750D02*
X0172591Y0172750D01*
X0172347Y0173748D02*
X0170000Y0173748D01*
X0169203Y0174747D02*
X0171348Y0174747D01*
X0170350Y0175745D02*
X0168204Y0175745D01*
X0169351Y0176744D02*
X0158768Y0176744D01*
X0160031Y0177742D02*
X0168353Y0177742D01*
X0167354Y0178741D02*
X0160760Y0178741D01*
X0161173Y0179739D02*
X0166356Y0179739D01*
X0165357Y0180738D02*
X0161300Y0180738D01*
X0161300Y0181737D02*
X0164359Y0181737D01*
X0163360Y0182735D02*
X0160977Y0182735D01*
X0160555Y0183734D02*
X0162362Y0183734D01*
X0144232Y0176744D02*
X0130852Y0176744D01*
X0130438Y0177742D02*
X0142969Y0177742D01*
X0142240Y0178741D02*
X0129443Y0178741D01*
X0124557Y0178741D02*
X0120009Y0178741D01*
X0119901Y0178849D02*
X0119334Y0179261D01*
X0118709Y0179579D01*
X0118043Y0179796D01*
X0117484Y0179884D01*
X0117484Y0172984D01*
X0121453Y0172984D01*
X0121453Y0175803D01*
X0121343Y0176495D01*
X0121127Y0177162D01*
X0120808Y0177787D01*
X0120396Y0178354D01*
X0119901Y0178849D01*
X0120831Y0177742D02*
X0123562Y0177742D01*
X0123148Y0176744D02*
X0121262Y0176744D01*
X0121453Y0175745D02*
X0122947Y0175745D01*
X0122947Y0174747D02*
X0121453Y0174747D01*
X0121453Y0173748D02*
X0122947Y0173748D01*
X0122947Y0172750D02*
X0117484Y0172750D01*
X0116516Y0172750D02*
X0111053Y0172750D01*
X0111053Y0173748D02*
X0112547Y0173748D01*
X0112547Y0172984D02*
X0116516Y0172984D01*
X0116516Y0179884D01*
X0115957Y0179796D01*
X0115291Y0179579D01*
X0114666Y0179261D01*
X0114099Y0178849D01*
X0113604Y0178354D01*
X0113192Y0177787D01*
X0112873Y0177162D01*
X0112657Y0176495D01*
X0112547Y0175803D01*
X0112547Y0172984D01*
X0112547Y0171751D02*
X0111053Y0171751D01*
X0111053Y0170753D02*
X0112547Y0170753D01*
X0112547Y0169754D02*
X0111053Y0169754D01*
X0111053Y0168756D02*
X0112617Y0168756D01*
X0112915Y0167757D02*
X0110645Y0167757D01*
X0109943Y0166759D02*
X0113522Y0166759D01*
X0110949Y0160768D02*
X0067292Y0160768D01*
X0067292Y0161766D02*
X0098729Y0161766D01*
X0098200Y0162765D02*
X0067292Y0162765D01*
X0067292Y0163763D02*
X0097930Y0163763D01*
X0097541Y0164762D02*
X0067292Y0164762D01*
X0067292Y0165760D02*
X0075552Y0165760D01*
X0076194Y0165494D02*
X0077806Y0165494D01*
X0079296Y0166111D01*
X0080436Y0167252D01*
X0081053Y0168741D01*
X0081053Y0176259D01*
X0080436Y0177748D01*
X0079296Y0178889D01*
X0077806Y0179505D01*
X0076194Y0179505D01*
X0074704Y0178889D01*
X0073564Y0177748D01*
X0072947Y0176259D01*
X0072947Y0168741D01*
X0073564Y0167252D01*
X0074704Y0166111D01*
X0076194Y0165494D01*
X0074057Y0166759D02*
X0066494Y0166759D01*
X0065495Y0167757D02*
X0073355Y0167757D01*
X0072947Y0168756D02*
X0064497Y0168756D01*
X0063498Y0169754D02*
X0072947Y0169754D01*
X0072947Y0170753D02*
X0062500Y0170753D01*
X0061501Y0171751D02*
X0072947Y0171751D01*
X0072947Y0172750D02*
X0060503Y0172750D01*
X0059504Y0173748D02*
X0072947Y0173748D01*
X0072947Y0174747D02*
X0058506Y0174747D01*
X0057614Y0175745D02*
X0072947Y0175745D01*
X0073148Y0176744D02*
X0057074Y0176744D01*
X0052926Y0176744D02*
X0027074Y0176744D01*
X0027614Y0175745D02*
X0052386Y0175745D01*
X0052300Y0174747D02*
X0027700Y0174747D01*
X0027404Y0173748D02*
X0052596Y0173748D01*
X0053432Y0172750D02*
X0026568Y0172750D01*
X0025004Y0171751D02*
X0054996Y0171751D01*
X0055994Y0170753D02*
X0024006Y0170753D01*
X0023007Y0169754D02*
X0056993Y0169754D01*
X0057991Y0168756D02*
X0022009Y0168756D01*
X0021010Y0167757D02*
X0058990Y0167757D01*
X0059988Y0166759D02*
X0020012Y0166759D01*
X0019100Y0165760D02*
X0060987Y0165760D01*
X0061985Y0164762D02*
X0019100Y0164762D01*
X0019992Y0163763D02*
X0021108Y0163763D01*
X0020800Y0162765D02*
X0020300Y0162765D01*
X0020300Y0161766D02*
X0020800Y0161766D01*
X0020800Y0160768D02*
X0020300Y0160768D01*
X0020300Y0159769D02*
X0020800Y0159769D01*
X0020800Y0158771D02*
X0020300Y0158771D01*
X0020300Y0157772D02*
X0020800Y0157772D01*
X0020800Y0156774D02*
X0020300Y0156774D01*
X0020300Y0155775D02*
X0020800Y0155775D01*
X0020800Y0154777D02*
X0020300Y0154777D01*
X0020300Y0153778D02*
X0020800Y0153778D01*
X0020800Y0152780D02*
X0020300Y0152780D01*
X0020300Y0151781D02*
X0020800Y0151781D01*
X0020800Y0150783D02*
X0020300Y0150783D01*
X0020300Y0149784D02*
X0020800Y0149784D01*
X0020800Y0148786D02*
X0020300Y0148786D01*
X0020300Y0147787D02*
X0020800Y0147787D01*
X0020800Y0146789D02*
X0020300Y0146789D01*
X0020300Y0145790D02*
X0020800Y0145790D01*
X0020800Y0144792D02*
X0020300Y0144792D01*
X0020300Y0143793D02*
X0020800Y0143793D01*
X0020800Y0142795D02*
X0020300Y0142795D01*
X0020300Y0141796D02*
X0020800Y0141796D01*
X0020800Y0140798D02*
X0020300Y0140798D01*
X0020300Y0139799D02*
X0020800Y0139799D01*
X0020800Y0138801D02*
X0020300Y0138801D01*
X0013300Y0138801D02*
X0012800Y0138801D01*
X0012800Y0139799D02*
X0013300Y0139799D01*
X0013300Y0140798D02*
X0012800Y0140798D01*
X0012800Y0141796D02*
X0013300Y0141796D01*
X0013300Y0142795D02*
X0012800Y0142795D01*
X0012800Y0143793D02*
X0013300Y0143793D01*
X0013300Y0144792D02*
X0012800Y0144792D01*
X0012800Y0145790D02*
X0013300Y0145790D01*
X0013300Y0146789D02*
X0012800Y0146789D01*
X0012800Y0147787D02*
X0013300Y0147787D01*
X0013300Y0148786D02*
X0012800Y0148786D01*
X0012800Y0149784D02*
X0013300Y0149784D01*
X0013300Y0150783D02*
X0012800Y0150783D01*
X0012800Y0151781D02*
X0013300Y0151781D01*
X0013300Y0152780D02*
X0012800Y0152780D01*
X0012800Y0153778D02*
X0013300Y0153778D01*
X0013300Y0154777D02*
X0012800Y0154777D01*
X0012800Y0155775D02*
X0013300Y0155775D01*
X0013300Y0156774D02*
X0012800Y0156774D01*
X0012800Y0157772D02*
X0013300Y0157772D01*
X0013300Y0158771D02*
X0012800Y0158771D01*
X0012800Y0159769D02*
X0013300Y0159769D01*
X0013300Y0160768D02*
X0012800Y0160768D01*
X0012800Y0161766D02*
X0013300Y0161766D01*
X0013300Y0162765D02*
X0012800Y0162765D01*
X0012492Y0163763D02*
X0013608Y0163763D01*
X0014500Y0164762D02*
X0006900Y0164762D01*
X0006900Y0165760D02*
X0014500Y0165760D01*
X0014500Y0166759D02*
X0006900Y0166759D01*
X0006900Y0167757D02*
X0014505Y0167757D01*
X0015503Y0168756D02*
X0006900Y0168756D01*
X0006900Y0169754D02*
X0016502Y0169754D01*
X0017500Y0170753D02*
X0006900Y0170753D01*
X0006900Y0171751D02*
X0018499Y0171751D01*
X0019497Y0172750D02*
X0006900Y0172750D01*
X0007144Y0173748D02*
X0020496Y0173748D01*
X0021494Y0174747D02*
X0008143Y0174747D01*
X0009141Y0175745D02*
X0022386Y0175745D01*
X0022926Y0176744D02*
X0010140Y0176744D01*
X0011138Y0177742D02*
X0037144Y0177742D01*
X0036145Y0178741D02*
X0012137Y0178741D01*
X0013135Y0179739D02*
X0035543Y0179739D01*
X0035543Y0180738D02*
X0014134Y0180738D01*
X0015132Y0181737D02*
X0035543Y0181737D01*
X0036035Y0182735D02*
X0016131Y0182735D01*
X0017129Y0183734D02*
X0037033Y0183734D01*
X0041052Y0183734D02*
X0063019Y0183734D01*
X0063543Y0184257D02*
X0061493Y0182207D01*
X0061493Y0179307D01*
X0063543Y0177257D01*
X0066442Y0177257D01*
X0068492Y0179307D01*
X0068492Y0182207D01*
X0066442Y0184257D01*
X0063543Y0184257D01*
X0062021Y0182735D02*
X0042051Y0182735D01*
X0042543Y0181737D02*
X0061493Y0181737D01*
X0061493Y0180738D02*
X0042543Y0180738D01*
X0042543Y0179739D02*
X0061493Y0179739D01*
X0062059Y0178741D02*
X0041940Y0178741D01*
X0040942Y0177742D02*
X0063057Y0177742D01*
X0066928Y0177742D02*
X0073562Y0177742D01*
X0074557Y0178741D02*
X0067926Y0178741D01*
X0068492Y0179739D02*
X0085784Y0179739D01*
X0085957Y0179796D02*
X0085291Y0179579D01*
X0084666Y0179261D01*
X0084099Y0178849D01*
X0083604Y0178354D01*
X0083192Y0177787D01*
X0082873Y0177162D01*
X0082657Y0176495D01*
X0082547Y0175803D01*
X0082547Y0172984D01*
X0086516Y0172984D01*
X0086516Y0172016D01*
X0087484Y0172016D01*
X0087484Y0165116D01*
X0088043Y0165204D01*
X0088709Y0165421D01*
X0089334Y0165739D01*
X0089901Y0166151D01*
X0090396Y0166646D01*
X0090808Y0167213D01*
X0091127Y0167838D01*
X0091343Y0168505D01*
X0091453Y0169197D01*
X0091453Y0172016D01*
X0087484Y0172016D01*
X0087484Y0172984D01*
X0091453Y0172984D01*
X0091453Y0175803D01*
X0091343Y0176495D01*
X0091127Y0177162D01*
X0090808Y0177787D01*
X0090396Y0178354D01*
X0089901Y0178849D01*
X0089334Y0179261D01*
X0088709Y0179579D01*
X0088043Y0179796D01*
X0087484Y0179884D01*
X0087484Y0172984D01*
X0086516Y0172984D01*
X0086516Y0179884D01*
X0085957Y0179796D01*
X0086516Y0179739D02*
X0087484Y0179739D01*
X0088216Y0179739D02*
X0115784Y0179739D01*
X0116516Y0179739D02*
X0117484Y0179739D01*
X0118216Y0179739D02*
X0141827Y0179739D01*
X0141700Y0180738D02*
X0068492Y0180738D01*
X0068492Y0181737D02*
X0141700Y0181737D01*
X0142023Y0182735D02*
X0067964Y0182735D01*
X0066966Y0183734D02*
X0142445Y0183734D01*
X0122947Y0171751D02*
X0121453Y0171751D01*
X0121453Y0170753D02*
X0122947Y0170753D01*
X0122947Y0169754D02*
X0121453Y0169754D01*
X0121383Y0168756D02*
X0122947Y0168756D01*
X0123355Y0167757D02*
X0121085Y0167757D01*
X0120478Y0166759D02*
X0124057Y0166759D01*
X0122051Y0160768D02*
X0134282Y0160768D01*
X0134822Y0157772D02*
X0124653Y0157772D01*
X0125498Y0156774D02*
X0133824Y0156774D01*
X0133000Y0155775D02*
X0126342Y0155775D01*
X0128173Y0154777D02*
X0132958Y0154777D01*
X0136601Y0150783D02*
X0139430Y0150783D01*
X0141820Y0149784D02*
X0135603Y0149784D01*
X0136289Y0150471D02*
X0136289Y0150471D01*
X0144209Y0148786D02*
X0127735Y0148786D01*
X0124900Y0146115D02*
X0122615Y0148400D01*
X0121300Y0148400D01*
X0121300Y0144800D01*
X0124900Y0144800D01*
X0124900Y0146115D01*
X0124900Y0145790D02*
X0151377Y0145790D01*
X0153766Y0144792D02*
X0121300Y0144792D01*
X0121300Y0144800D02*
X0121300Y0144200D01*
X0124900Y0144200D01*
X0124900Y0142885D01*
X0122615Y0140600D01*
X0121300Y0140600D01*
X0121300Y0144200D01*
X0120700Y0144200D01*
X0120700Y0140600D01*
X0119385Y0140600D01*
X0117100Y0142885D01*
X0117100Y0144200D01*
X0120700Y0144200D01*
X0120700Y0144800D01*
X0120700Y0148400D01*
X0119385Y0148400D01*
X0117100Y0146115D01*
X0117100Y0144800D01*
X0120700Y0144800D01*
X0121300Y0144800D01*
X0120700Y0144792D02*
X0103461Y0144792D01*
X0102463Y0145790D02*
X0117100Y0145790D01*
X0117773Y0146789D02*
X0101464Y0146789D01*
X0100466Y0147787D02*
X0118772Y0147787D01*
X0117735Y0148786D02*
X0124265Y0148786D01*
X0123266Y0149784D02*
X0118734Y0149784D01*
X0119500Y0150550D02*
X0117450Y0148500D01*
X0114550Y0148500D01*
X0112500Y0150550D01*
X0112500Y0153450D01*
X0114550Y0155500D01*
X0117450Y0155500D01*
X0119500Y0153450D01*
X0119500Y0150550D01*
X0119500Y0150783D02*
X0122500Y0150783D01*
X0122500Y0151781D02*
X0119500Y0151781D01*
X0119500Y0152780D02*
X0121803Y0152780D01*
X0120959Y0153778D02*
X0119172Y0153778D01*
X0120114Y0154777D02*
X0118173Y0154777D01*
X0119269Y0155775D02*
X0113594Y0155775D01*
X0113827Y0154777D02*
X0112595Y0154777D01*
X0112828Y0153778D02*
X0111597Y0153778D01*
X0112500Y0152780D02*
X0109523Y0152780D01*
X0106855Y0151781D02*
X0112500Y0151781D01*
X0112500Y0150783D02*
X0097470Y0150783D01*
X0096472Y0151781D02*
X0103232Y0151781D01*
X0102394Y0152780D02*
X0095473Y0152780D01*
X0094474Y0153778D02*
X0101556Y0153778D01*
X0101634Y0154777D02*
X0093476Y0154777D01*
X0092477Y0155775D02*
X0101721Y0155775D01*
X0101915Y0156774D02*
X0082464Y0156774D01*
X0082692Y0156546D02*
X0081492Y0157746D01*
X0078592Y0157746D01*
X0076542Y0155696D01*
X0076542Y0152796D01*
X0078592Y0150746D01*
X0081492Y0150746D01*
X0082692Y0151946D01*
X0089801Y0151946D01*
X0107649Y0134098D01*
X0107250Y0126502D01*
X0107200Y0126453D01*
X0107200Y0125560D01*
X0107153Y0124670D01*
X0107200Y0124617D01*
X0107200Y0121503D01*
X0106800Y0120537D01*
X0106800Y0119463D01*
X0107211Y0118471D01*
X0107971Y0117711D01*
X0108963Y0117300D01*
X0110037Y0117300D01*
X0111029Y0117711D01*
X0111789Y0118471D01*
X0112200Y0119463D01*
X0112200Y0120537D01*
X0111800Y0121503D01*
X0111800Y0125439D01*
X0112250Y0133998D01*
X0112300Y0134047D01*
X0112300Y0134940D01*
X0112347Y0135830D01*
X0112300Y0135883D01*
X0112300Y0135953D01*
X0111669Y0136584D01*
X0111072Y0137247D01*
X0111002Y0137250D01*
X0091707Y0156546D01*
X0082692Y0156546D01*
X0082527Y0151781D02*
X0089966Y0151781D01*
X0090965Y0150783D02*
X0081529Y0150783D01*
X0078555Y0150783D02*
X0068492Y0150783D01*
X0068492Y0151781D02*
X0077557Y0151781D01*
X0076558Y0152780D02*
X0067919Y0152780D01*
X0067292Y0153778D02*
X0076542Y0153778D01*
X0076542Y0154777D02*
X0067292Y0154777D01*
X0067292Y0155775D02*
X0076622Y0155775D01*
X0077620Y0156774D02*
X0067292Y0156774D01*
X0067292Y0157772D02*
X0103105Y0157772D01*
X0108952Y0158771D02*
X0067292Y0158771D01*
X0067292Y0159769D02*
X0109951Y0159769D01*
X0104057Y0166759D02*
X0101700Y0166759D01*
X0101312Y0167757D02*
X0103355Y0167757D01*
X0102947Y0168756D02*
X0101053Y0168756D01*
X0101053Y0169754D02*
X0102947Y0169754D01*
X0102947Y0170753D02*
X0101053Y0170753D01*
X0101053Y0171751D02*
X0102947Y0171751D01*
X0102947Y0172750D02*
X0101053Y0172750D01*
X0101053Y0173748D02*
X0102947Y0173748D01*
X0102947Y0174747D02*
X0101053Y0174747D01*
X0101053Y0175745D02*
X0102947Y0175745D01*
X0103148Y0176744D02*
X0100852Y0176744D01*
X0100438Y0177742D02*
X0103562Y0177742D01*
X0104557Y0178741D02*
X0099443Y0178741D01*
X0094557Y0178741D02*
X0090009Y0178741D01*
X0090831Y0177742D02*
X0093562Y0177742D01*
X0093148Y0176744D02*
X0091262Y0176744D01*
X0091453Y0175745D02*
X0092947Y0175745D01*
X0092947Y0174747D02*
X0091453Y0174747D01*
X0091453Y0173748D02*
X0092947Y0173748D01*
X0092947Y0172750D02*
X0087484Y0172750D01*
X0086516Y0172750D02*
X0081053Y0172750D01*
X0081053Y0173748D02*
X0082547Y0173748D01*
X0082547Y0174747D02*
X0081053Y0174747D01*
X0081053Y0175745D02*
X0082547Y0175745D01*
X0082738Y0176744D02*
X0080852Y0176744D01*
X0080438Y0177742D02*
X0083169Y0177742D01*
X0083991Y0178741D02*
X0079443Y0178741D01*
X0086516Y0178741D02*
X0087484Y0178741D01*
X0087484Y0177742D02*
X0086516Y0177742D01*
X0086516Y0176744D02*
X0087484Y0176744D01*
X0087484Y0175745D02*
X0086516Y0175745D01*
X0086516Y0174747D02*
X0087484Y0174747D01*
X0087484Y0173748D02*
X0086516Y0173748D01*
X0086516Y0172016D02*
X0082547Y0172016D01*
X0082547Y0169197D01*
X0082657Y0168505D01*
X0082873Y0167838D01*
X0083192Y0167213D01*
X0083604Y0166646D01*
X0084099Y0166151D01*
X0084666Y0165739D01*
X0085291Y0165421D01*
X0085957Y0165204D01*
X0086516Y0165116D01*
X0086516Y0172016D01*
X0086516Y0171751D02*
X0087484Y0171751D01*
X0087484Y0170753D02*
X0086516Y0170753D01*
X0086516Y0169754D02*
X0087484Y0169754D01*
X0087484Y0168756D02*
X0086516Y0168756D01*
X0086516Y0167757D02*
X0087484Y0167757D01*
X0087484Y0166759D02*
X0086516Y0166759D01*
X0086516Y0165760D02*
X0087484Y0165760D01*
X0089363Y0165760D02*
X0095552Y0165760D01*
X0094057Y0166759D02*
X0090478Y0166759D01*
X0091085Y0167757D02*
X0093355Y0167757D01*
X0092947Y0168756D02*
X0091383Y0168756D01*
X0091453Y0169754D02*
X0092947Y0169754D01*
X0092947Y0170753D02*
X0091453Y0170753D01*
X0091453Y0171751D02*
X0092947Y0171751D01*
X0084637Y0165760D02*
X0078448Y0165760D01*
X0079943Y0166759D02*
X0083522Y0166759D01*
X0082915Y0167757D02*
X0080645Y0167757D01*
X0081053Y0168756D02*
X0082617Y0168756D01*
X0082547Y0169754D02*
X0081053Y0169754D01*
X0081053Y0170753D02*
X0082547Y0170753D01*
X0082547Y0171751D02*
X0081053Y0171751D01*
X0062693Y0163763D02*
X0027492Y0163763D01*
X0027800Y0162765D02*
X0062693Y0162765D01*
X0062693Y0161766D02*
X0027800Y0161766D01*
X0027800Y0160768D02*
X0062693Y0160768D01*
X0062693Y0159769D02*
X0027800Y0159769D01*
X0027800Y0158771D02*
X0062693Y0158771D01*
X0062693Y0157772D02*
X0027800Y0157772D01*
X0027800Y0156774D02*
X0062693Y0156774D01*
X0062693Y0155775D02*
X0027800Y0155775D01*
X0027800Y0154777D02*
X0062693Y0154777D01*
X0062693Y0153778D02*
X0041008Y0153778D01*
X0042006Y0152780D02*
X0062066Y0152780D01*
X0061493Y0151781D02*
X0059922Y0151781D01*
X0060884Y0150783D02*
X0061493Y0150783D01*
X0064558Y0146789D02*
X0065708Y0146789D01*
X0065485Y0145790D02*
X0066707Y0145790D01*
X0066412Y0144792D02*
X0067705Y0144792D01*
X0067340Y0143793D02*
X0068704Y0143793D01*
X0068267Y0142795D02*
X0069702Y0142795D01*
X0069194Y0141796D02*
X0079951Y0141796D01*
X0080950Y0140798D02*
X0070121Y0140798D01*
X0071048Y0139799D02*
X0081948Y0139799D01*
X0082700Y0138801D02*
X0071976Y0138801D01*
X0072903Y0137802D02*
X0082700Y0137802D01*
X0082700Y0136803D02*
X0073863Y0136803D01*
X0073900Y0135805D02*
X0082700Y0135805D01*
X0082700Y0134806D02*
X0073900Y0134806D01*
X0073900Y0133808D02*
X0082700Y0133808D01*
X0082700Y0132809D02*
X0073900Y0132809D01*
X0073900Y0131811D02*
X0082700Y0131811D01*
X0082700Y0130812D02*
X0073900Y0130812D01*
X0073900Y0129814D02*
X0082700Y0129814D01*
X0082700Y0128815D02*
X0073900Y0128815D01*
X0073900Y0127817D02*
X0082700Y0127817D01*
X0082700Y0126818D02*
X0082419Y0126818D01*
X0077665Y0126818D02*
X0073900Y0126818D01*
X0073900Y0125820D02*
X0076666Y0125820D01*
X0076542Y0124821D02*
X0073900Y0124821D01*
X0073900Y0123823D02*
X0076542Y0123823D01*
X0076542Y0122824D02*
X0073900Y0122824D01*
X0073900Y0121826D02*
X0077512Y0121826D01*
X0078511Y0120827D02*
X0073900Y0120827D01*
X0073900Y0119829D02*
X0082700Y0119829D01*
X0082700Y0120827D02*
X0081573Y0120827D01*
X0082572Y0121826D02*
X0082700Y0121826D01*
X0082700Y0118830D02*
X0073900Y0118830D01*
X0073900Y0117832D02*
X0082700Y0117832D01*
X0082700Y0116833D02*
X0073900Y0116833D01*
X0073900Y0115835D02*
X0082700Y0115835D01*
X0082700Y0114836D02*
X0073900Y0114836D01*
X0073900Y0113838D02*
X0082700Y0113838D01*
X0082700Y0112839D02*
X0073900Y0112839D01*
X0073900Y0111841D02*
X0082700Y0111841D01*
X0082700Y0110842D02*
X0073900Y0110842D01*
X0073900Y0109844D02*
X0082700Y0109844D01*
X0082700Y0108845D02*
X0073900Y0108845D01*
X0073900Y0107847D02*
X0082700Y0107847D01*
X0082700Y0106848D02*
X0073900Y0106848D01*
X0073900Y0105850D02*
X0082700Y0105850D01*
X0082700Y0104851D02*
X0073900Y0104851D01*
X0073900Y0103853D02*
X0082700Y0103853D01*
X0082700Y0102854D02*
X0073900Y0102854D01*
X0073900Y0101856D02*
X0082700Y0101856D01*
X0082700Y0100857D02*
X0073900Y0100857D01*
X0073900Y0099859D02*
X0082689Y0099859D01*
X0083386Y0098860D02*
X0073900Y0098860D01*
X0073900Y0097862D02*
X0078646Y0097862D01*
X0077642Y0096863D02*
X0073900Y0096863D01*
X0073900Y0095865D02*
X0077300Y0095865D01*
X0077340Y0094866D02*
X0073900Y0094866D01*
X0073900Y0093868D02*
X0077814Y0093868D01*
X0079296Y0092869D02*
X0073900Y0092869D01*
X0073900Y0091870D02*
X0080293Y0091870D01*
X0081250Y0090872D02*
X0073900Y0090872D01*
X0073900Y0089873D02*
X0082206Y0089873D01*
X0085707Y0092869D02*
X0089184Y0092869D01*
X0088218Y0093868D02*
X0084750Y0093868D01*
X0083793Y0094866D02*
X0087252Y0094866D01*
X0086285Y0095865D02*
X0082836Y0095865D01*
X0082358Y0096863D02*
X0085319Y0096863D01*
X0084353Y0097862D02*
X0081354Y0097862D01*
X0087855Y0100857D02*
X0105516Y0100857D01*
X0105526Y0099859D02*
X0088821Y0099859D01*
X0089788Y0098860D02*
X0105536Y0098860D01*
X0105546Y0097862D02*
X0090754Y0097862D01*
X0091720Y0096863D02*
X0105555Y0096863D01*
X0105565Y0095865D02*
X0092687Y0095865D01*
X0093653Y0094866D02*
X0105575Y0094866D01*
X0105585Y0093868D02*
X0094619Y0093868D01*
X0095585Y0092869D02*
X0105595Y0092869D01*
X0105605Y0091870D02*
X0096552Y0091870D01*
X0097518Y0090872D02*
X0105615Y0090872D01*
X0105625Y0089873D02*
X0098484Y0089873D01*
X0099451Y0088875D02*
X0105634Y0088875D01*
X0105644Y0087876D02*
X0100417Y0087876D01*
X0101940Y0086878D02*
X0105654Y0086878D01*
X0105664Y0085879D02*
X0102558Y0085879D01*
X0102700Y0084881D02*
X0105674Y0084881D01*
X0105684Y0083882D02*
X0102460Y0083882D01*
X0101702Y0082884D02*
X0105694Y0082884D01*
X0105703Y0081885D02*
X0093800Y0081885D01*
X0093800Y0080887D02*
X0105713Y0080887D01*
X0105723Y0079888D02*
X0093800Y0079888D01*
X0093800Y0078890D02*
X0105733Y0078890D01*
X0105743Y0077891D02*
X0093800Y0077891D01*
X0093800Y0076893D02*
X0105753Y0076893D01*
X0105763Y0075894D02*
X0093800Y0075894D01*
X0093800Y0074896D02*
X0105772Y0074896D01*
X0105782Y0073897D02*
X0093800Y0073897D01*
X0093800Y0072899D02*
X0105792Y0072899D01*
X0105802Y0071900D02*
X0093800Y0071900D01*
X0093800Y0070902D02*
X0105812Y0070902D01*
X0105822Y0069903D02*
X0093800Y0069903D01*
X0093800Y0068905D02*
X0105832Y0068905D01*
X0105841Y0067906D02*
X0093800Y0067906D01*
X0093800Y0066908D02*
X0105851Y0066908D01*
X0105861Y0065909D02*
X0093800Y0065909D01*
X0093800Y0064911D02*
X0105871Y0064911D01*
X0105881Y0063912D02*
X0093800Y0063912D01*
X0093800Y0062914D02*
X0105891Y0062914D01*
X0105900Y0061915D02*
X0093800Y0061915D01*
X0093800Y0060917D02*
X0104355Y0060917D01*
X0102398Y0059918D02*
X0093800Y0059918D01*
X0093800Y0058920D02*
X0100441Y0058920D01*
X0098484Y0057921D02*
X0094041Y0057921D01*
X0094200Y0056923D02*
X0096527Y0056923D01*
X0094570Y0055924D02*
X0093977Y0055924D01*
X0091387Y0054300D02*
X0085292Y0051190D01*
X0084316Y0051874D01*
X0084379Y0051900D01*
X0085364Y0052884D01*
X0085897Y0054171D01*
X0085897Y0055563D01*
X0085364Y0056850D01*
X0084379Y0057834D01*
X0083597Y0058158D01*
X0083597Y0082206D01*
X0084381Y0082531D01*
X0085365Y0083516D01*
X0085898Y0084802D01*
X0085898Y0086021D01*
X0089200Y0082576D01*
X0089200Y0058503D01*
X0088800Y0057537D01*
X0088800Y0056463D01*
X0089211Y0055471D01*
X0089971Y0054711D01*
X0090963Y0054300D01*
X0091387Y0054300D01*
X0090656Y0053927D02*
X0085796Y0053927D01*
X0085897Y0054926D02*
X0089756Y0054926D01*
X0089023Y0055924D02*
X0085747Y0055924D01*
X0085291Y0056923D02*
X0088800Y0056923D01*
X0088959Y0057921D02*
X0084169Y0057921D01*
X0083597Y0058920D02*
X0089200Y0058920D01*
X0089200Y0059918D02*
X0083597Y0059918D01*
X0083597Y0060917D02*
X0089200Y0060917D01*
X0089200Y0061915D02*
X0083597Y0061915D01*
X0083597Y0062914D02*
X0089200Y0062914D01*
X0089200Y0063912D02*
X0083597Y0063912D01*
X0083597Y0064911D02*
X0089200Y0064911D01*
X0089200Y0065909D02*
X0083597Y0065909D01*
X0083597Y0066908D02*
X0089200Y0066908D01*
X0089200Y0067906D02*
X0083597Y0067906D01*
X0083597Y0068905D02*
X0089200Y0068905D01*
X0089200Y0069903D02*
X0083597Y0069903D01*
X0083597Y0070902D02*
X0089200Y0070902D01*
X0089200Y0071900D02*
X0083597Y0071900D01*
X0083597Y0072899D02*
X0089200Y0072899D01*
X0089200Y0073897D02*
X0083597Y0073897D01*
X0083597Y0074896D02*
X0089200Y0074896D01*
X0089200Y0075894D02*
X0083597Y0075894D01*
X0083597Y0076893D02*
X0089200Y0076893D01*
X0089200Y0077891D02*
X0083597Y0077891D01*
X0083597Y0078890D02*
X0089200Y0078890D01*
X0089200Y0079888D02*
X0083597Y0079888D01*
X0083597Y0080887D02*
X0089200Y0080887D01*
X0089200Y0081885D02*
X0083597Y0081885D01*
X0084734Y0082884D02*
X0088905Y0082884D01*
X0087948Y0083882D02*
X0085517Y0083882D01*
X0085898Y0084881D02*
X0086991Y0084881D01*
X0086034Y0085879D02*
X0085898Y0085879D01*
X0089535Y0088875D02*
X0093049Y0088875D01*
X0092083Y0089873D02*
X0088578Y0089873D01*
X0087621Y0090872D02*
X0091117Y0090872D01*
X0090150Y0091870D02*
X0086664Y0091870D01*
X0090492Y0087876D02*
X0094016Y0087876D01*
X0094982Y0086878D02*
X0091448Y0086878D01*
X0092405Y0085879D02*
X0095948Y0085879D01*
X0096915Y0084881D02*
X0093372Y0084881D01*
X0093809Y0083882D02*
X0097540Y0083882D01*
X0098298Y0082884D02*
X0093800Y0082884D01*
X0076397Y0081885D02*
X0073900Y0081885D01*
X0073900Y0080887D02*
X0076397Y0080887D01*
X0076397Y0079888D02*
X0073900Y0079888D01*
X0073900Y0078890D02*
X0076397Y0078890D01*
X0076397Y0077891D02*
X0073900Y0077891D01*
X0073900Y0076893D02*
X0076397Y0076893D01*
X0076397Y0075894D02*
X0073900Y0075894D01*
X0073900Y0074896D02*
X0076397Y0074896D01*
X0076397Y0073897D02*
X0073900Y0073897D01*
X0073900Y0072899D02*
X0076397Y0072899D01*
X0076397Y0071900D02*
X0073900Y0071900D01*
X0073900Y0070902D02*
X0076397Y0070902D01*
X0076397Y0069903D02*
X0073900Y0069903D01*
X0073900Y0068905D02*
X0076397Y0068905D01*
X0076397Y0067906D02*
X0073900Y0067906D01*
X0073900Y0066908D02*
X0076397Y0066908D01*
X0076397Y0065909D02*
X0073900Y0065909D01*
X0073900Y0064911D02*
X0076397Y0064911D01*
X0076397Y0063912D02*
X0073900Y0063912D01*
X0073900Y0062914D02*
X0076397Y0062914D01*
X0076397Y0061915D02*
X0073900Y0061915D01*
X0073900Y0060917D02*
X0076397Y0060917D01*
X0076397Y0059918D02*
X0073900Y0059918D01*
X0073900Y0058920D02*
X0076397Y0058920D01*
X0075824Y0057921D02*
X0073900Y0057921D01*
X0073900Y0056923D02*
X0074702Y0056923D01*
X0074246Y0055924D02*
X0073900Y0055924D01*
X0073908Y0054926D02*
X0074097Y0054926D01*
X0074198Y0053927D02*
X0073473Y0053927D01*
X0072540Y0052929D02*
X0074611Y0052929D01*
X0075584Y0051930D02*
X0071613Y0051930D01*
X0070686Y0050932D02*
X0076397Y0050932D01*
X0076397Y0049933D02*
X0069758Y0049933D01*
X0068831Y0048934D02*
X0076728Y0048934D01*
X0077387Y0047936D02*
X0067904Y0047936D01*
X0066977Y0046937D02*
X0078813Y0046937D01*
X0078848Y0045939D02*
X0066050Y0045939D01*
X0065122Y0044940D02*
X0077849Y0044940D01*
X0076910Y0043942D02*
X0064195Y0043942D01*
X0063268Y0042943D02*
X0076496Y0042943D01*
X0076403Y0041945D02*
X0062341Y0041945D01*
X0061414Y0040946D02*
X0076403Y0040946D01*
X0076403Y0039948D02*
X0060493Y0039948D01*
X0074745Y0026967D02*
X0027223Y0026967D01*
X0027800Y0027966D02*
X0075918Y0027966D01*
X0076403Y0028964D02*
X0027800Y0028964D01*
X0027800Y0029963D02*
X0076403Y0029963D01*
X0076403Y0030961D02*
X0027800Y0030961D01*
X0027800Y0031960D02*
X0076403Y0031960D01*
X0076403Y0032958D02*
X0027800Y0032958D01*
X0027800Y0033957D02*
X0076403Y0033957D01*
X0076403Y0034955D02*
X0027800Y0034955D01*
X0027800Y0035954D02*
X0076403Y0035954D01*
X0076403Y0036952D02*
X0027800Y0036952D01*
X0027800Y0037951D02*
X0076403Y0037951D01*
X0076403Y0038949D02*
X0027800Y0038949D01*
X0027800Y0039948D02*
X0043707Y0039948D01*
X0042817Y0040946D02*
X0027800Y0040946D01*
X0027800Y0041945D02*
X0041919Y0041945D01*
X0041021Y0042943D02*
X0027800Y0042943D01*
X0027800Y0043942D02*
X0040123Y0043942D01*
X0039226Y0044940D02*
X0027800Y0044940D01*
X0027800Y0045939D02*
X0038328Y0045939D01*
X0037430Y0046937D02*
X0027800Y0046937D01*
X0027800Y0047936D02*
X0036532Y0047936D01*
X0035634Y0048934D02*
X0027800Y0048934D01*
X0027800Y0049933D02*
X0034736Y0049933D01*
X0033838Y0050932D02*
X0027800Y0050932D01*
X0027800Y0051930D02*
X0032940Y0051930D01*
X0032042Y0052929D02*
X0027800Y0052929D01*
X0020800Y0052929D02*
X0020300Y0052929D01*
X0020300Y0051930D02*
X0020800Y0051930D01*
X0020800Y0050932D02*
X0020300Y0050932D01*
X0020300Y0049933D02*
X0020800Y0049933D01*
X0020800Y0048934D02*
X0020300Y0048934D01*
X0020300Y0047936D02*
X0020800Y0047936D01*
X0020800Y0046937D02*
X0020300Y0046937D01*
X0020300Y0045939D02*
X0020800Y0045939D01*
X0020800Y0044940D02*
X0020300Y0044940D01*
X0020300Y0043942D02*
X0020800Y0043942D01*
X0020800Y0042943D02*
X0020300Y0042943D01*
X0020300Y0041945D02*
X0020800Y0041945D01*
X0020800Y0040946D02*
X0020300Y0040946D01*
X0020300Y0039948D02*
X0020800Y0039948D01*
X0020800Y0038949D02*
X0020300Y0038949D01*
X0020300Y0037951D02*
X0020800Y0037951D01*
X0020800Y0036952D02*
X0020300Y0036952D01*
X0020300Y0035954D02*
X0020800Y0035954D01*
X0020800Y0034955D02*
X0020300Y0034955D01*
X0020300Y0033957D02*
X0020800Y0033957D01*
X0020800Y0032958D02*
X0020300Y0032958D01*
X0020300Y0031960D02*
X0020800Y0031960D01*
X0020800Y0030961D02*
X0020300Y0030961D01*
X0020300Y0029963D02*
X0020800Y0029963D01*
X0020800Y0028964D02*
X0020300Y0028964D01*
X0020300Y0027966D02*
X0020800Y0027966D01*
X0021377Y0026967D02*
X0019723Y0026967D01*
X0013877Y0026967D02*
X0012223Y0026967D01*
X0012800Y0027966D02*
X0013300Y0027966D01*
X0013300Y0028964D02*
X0012800Y0028964D01*
X0012800Y0029963D02*
X0013300Y0029963D01*
X0013300Y0030961D02*
X0012800Y0030961D01*
X0012800Y0031960D02*
X0013300Y0031960D01*
X0013300Y0032958D02*
X0012800Y0032958D01*
X0012800Y0033957D02*
X0013300Y0033957D01*
X0013300Y0034955D02*
X0012800Y0034955D01*
X0012800Y0035954D02*
X0013300Y0035954D01*
X0013300Y0036952D02*
X0012800Y0036952D01*
X0012800Y0037951D02*
X0013300Y0037951D01*
X0013300Y0038949D02*
X0012800Y0038949D01*
X0012800Y0039948D02*
X0013300Y0039948D01*
X0013300Y0040946D02*
X0012800Y0040946D01*
X0012800Y0041945D02*
X0013300Y0041945D01*
X0013300Y0042943D02*
X0012800Y0042943D01*
X0012800Y0043942D02*
X0013300Y0043942D01*
X0013300Y0044940D02*
X0012800Y0044940D01*
X0012800Y0045939D02*
X0013300Y0045939D01*
X0013300Y0046937D02*
X0012800Y0046937D01*
X0012800Y0047936D02*
X0013300Y0047936D01*
X0013300Y0048934D02*
X0012800Y0048934D01*
X0012800Y0049933D02*
X0013300Y0049933D01*
X0013300Y0050932D02*
X0012800Y0050932D01*
X0012800Y0051930D02*
X0013300Y0051930D01*
X0013300Y0052929D02*
X0012800Y0052929D01*
X0011600Y0025969D02*
X0074268Y0025969D01*
X0074103Y0024970D02*
X0011600Y0024970D01*
X0011600Y0023972D02*
X0074189Y0023972D01*
X0074603Y0022973D02*
X0011600Y0022973D01*
X0011600Y0021975D02*
X0075554Y0021975D01*
X0084452Y0021975D02*
X0115554Y0021975D01*
X0114603Y0022973D02*
X0085404Y0022973D01*
X0085817Y0023972D02*
X0114189Y0023972D01*
X0114103Y0024970D02*
X0085903Y0024970D01*
X0085739Y0025969D02*
X0114268Y0025969D01*
X0114745Y0026967D02*
X0085261Y0026967D01*
X0084088Y0027966D02*
X0115918Y0027966D01*
X0118517Y0034633D02*
X0119804Y0034100D01*
X0121196Y0034100D01*
X0122483Y0034633D01*
X0123467Y0035617D01*
X0124000Y0036904D01*
X0124000Y0043096D01*
X0123467Y0044383D01*
X0122483Y0045367D01*
X0121196Y0045900D01*
X0119804Y0045900D01*
X0118517Y0045367D01*
X0117533Y0044383D01*
X0117000Y0043096D01*
X0117000Y0036904D01*
X0117533Y0035617D01*
X0118517Y0034633D01*
X0118195Y0034955D02*
X0083603Y0034955D01*
X0083603Y0033957D02*
X0125700Y0033957D01*
X0125700Y0034955D02*
X0122805Y0034955D01*
X0123606Y0035954D02*
X0125700Y0035954D01*
X0125700Y0036952D02*
X0124000Y0036952D01*
X0124000Y0037951D02*
X0125700Y0037951D01*
X0125700Y0038949D02*
X0124000Y0038949D01*
X0124000Y0039948D02*
X0125700Y0039948D01*
X0125700Y0040946D02*
X0124000Y0040946D01*
X0124000Y0041945D02*
X0125700Y0041945D01*
X0125700Y0042943D02*
X0124000Y0042943D01*
X0123650Y0043942D02*
X0125700Y0043942D01*
X0125700Y0044940D02*
X0122909Y0044940D01*
X0125700Y0045939D02*
X0090842Y0045939D01*
X0092799Y0046937D02*
X0125700Y0046937D01*
X0125700Y0047936D02*
X0094756Y0047936D01*
X0096713Y0048934D02*
X0125700Y0048934D01*
X0125700Y0049933D02*
X0098670Y0049933D01*
X0100627Y0050932D02*
X0125700Y0050932D01*
X0125700Y0051930D02*
X0124409Y0051930D01*
X0125382Y0052929D02*
X0125700Y0052929D01*
X0125700Y0056923D02*
X0125291Y0056923D01*
X0125700Y0057921D02*
X0124169Y0057921D01*
X0125700Y0058920D02*
X0113100Y0058920D01*
X0113100Y0059918D02*
X0125700Y0059918D01*
X0125700Y0060917D02*
X0113100Y0060917D01*
X0113101Y0061915D02*
X0125700Y0061915D01*
X0125700Y0062914D02*
X0113091Y0062914D01*
X0113081Y0063912D02*
X0125700Y0063912D01*
X0125700Y0064911D02*
X0120760Y0064911D01*
X0120483Y0064633D02*
X0121467Y0065617D01*
X0122000Y0066904D01*
X0122000Y0073096D01*
X0121467Y0074383D01*
X0120483Y0075367D01*
X0119196Y0075900D01*
X0117804Y0075900D01*
X0116517Y0075367D01*
X0115533Y0074383D01*
X0115000Y0073096D01*
X0115000Y0066904D01*
X0115533Y0065617D01*
X0116517Y0064633D01*
X0117804Y0064100D01*
X0119196Y0064100D01*
X0120483Y0064633D01*
X0121588Y0065909D02*
X0125700Y0065909D01*
X0125700Y0066908D02*
X0122000Y0066908D01*
X0122000Y0067906D02*
X0125700Y0067906D01*
X0125700Y0068905D02*
X0122000Y0068905D01*
X0122000Y0069903D02*
X0125700Y0069903D01*
X0125700Y0070902D02*
X0122000Y0070902D01*
X0122000Y0071900D02*
X0125700Y0071900D01*
X0125700Y0072899D02*
X0122000Y0072899D01*
X0121668Y0073897D02*
X0125700Y0073897D01*
X0125700Y0074896D02*
X0120954Y0074896D01*
X0119210Y0075894D02*
X0125700Y0075894D01*
X0125700Y0076893D02*
X0112953Y0076893D01*
X0112943Y0077891D02*
X0125700Y0077891D01*
X0125700Y0078890D02*
X0112933Y0078890D01*
X0112923Y0079888D02*
X0125700Y0079888D01*
X0125700Y0080887D02*
X0112914Y0080887D01*
X0112904Y0081885D02*
X0125700Y0081885D01*
X0125700Y0082884D02*
X0124734Y0082884D01*
X0125517Y0083882D02*
X0125700Y0083882D01*
X0125300Y0087876D02*
X0124970Y0087876D01*
X0125647Y0088875D02*
X0123392Y0088875D01*
X0126675Y0089873D02*
X0112825Y0089873D01*
X0112835Y0088875D02*
X0116605Y0088875D01*
X0115027Y0087876D02*
X0112845Y0087876D01*
X0112854Y0086878D02*
X0114381Y0086878D01*
X0114098Y0085879D02*
X0112864Y0085879D01*
X0112874Y0084881D02*
X0114098Y0084881D01*
X0114479Y0083882D02*
X0112884Y0083882D01*
X0112894Y0082884D02*
X0115263Y0082884D01*
X0112963Y0075894D02*
X0117790Y0075894D01*
X0116046Y0074896D02*
X0112973Y0074896D01*
X0112983Y0073897D02*
X0115332Y0073897D01*
X0115000Y0072899D02*
X0112993Y0072899D01*
X0113002Y0071900D02*
X0115000Y0071900D01*
X0115000Y0070902D02*
X0113012Y0070902D01*
X0113022Y0069903D02*
X0115000Y0069903D01*
X0115000Y0068905D02*
X0113032Y0068905D01*
X0113042Y0067906D02*
X0115000Y0067906D01*
X0115000Y0066908D02*
X0113052Y0066908D01*
X0113062Y0065909D02*
X0115412Y0065909D01*
X0116240Y0064911D02*
X0113071Y0064911D01*
X0112773Y0057921D02*
X0115824Y0057921D01*
X0114702Y0056923D02*
X0112033Y0056923D01*
X0110412Y0055924D02*
X0114246Y0055924D01*
X0114097Y0054926D02*
X0108455Y0054926D01*
X0106498Y0053927D02*
X0114198Y0053927D01*
X0114611Y0052929D02*
X0104541Y0052929D01*
X0102584Y0051930D02*
X0115584Y0051930D01*
X0118091Y0044940D02*
X0088885Y0044940D01*
X0087033Y0043942D02*
X0117350Y0043942D01*
X0117000Y0042943D02*
X0086035Y0042943D01*
X0085036Y0041945D02*
X0117000Y0041945D01*
X0117000Y0040946D02*
X0084038Y0040946D01*
X0083603Y0039948D02*
X0117000Y0039948D01*
X0117000Y0038949D02*
X0083603Y0038949D01*
X0083603Y0037951D02*
X0117000Y0037951D01*
X0117000Y0036952D02*
X0083603Y0036952D01*
X0083603Y0035954D02*
X0117393Y0035954D01*
X0125700Y0032958D02*
X0083603Y0032958D01*
X0083603Y0031960D02*
X0125700Y0031960D01*
X0125700Y0030961D02*
X0083603Y0030961D01*
X0083603Y0029963D02*
X0125700Y0029963D01*
X0125700Y0028964D02*
X0083603Y0028964D01*
X0084409Y0051930D02*
X0086742Y0051930D01*
X0085382Y0052929D02*
X0088699Y0052929D01*
X0075263Y0082884D02*
X0073900Y0082884D01*
X0073900Y0083882D02*
X0074479Y0083882D01*
X0074098Y0084881D02*
X0073900Y0084881D01*
X0073900Y0085879D02*
X0074098Y0085879D01*
X0073900Y0086878D02*
X0074381Y0086878D01*
X0073900Y0087876D02*
X0075027Y0087876D01*
X0073900Y0088875D02*
X0076605Y0088875D01*
X0087300Y0101856D02*
X0105506Y0101856D01*
X0105496Y0102854D02*
X0087300Y0102854D01*
X0087300Y0103853D02*
X0105486Y0103853D01*
X0105477Y0104851D02*
X0087300Y0104851D01*
X0087300Y0105850D02*
X0105467Y0105850D01*
X0105457Y0106848D02*
X0087300Y0106848D01*
X0087300Y0107847D02*
X0105447Y0107847D01*
X0105437Y0108845D02*
X0087300Y0108845D01*
X0087300Y0109844D02*
X0105427Y0109844D01*
X0105209Y0110842D02*
X0087300Y0110842D01*
X0087300Y0111841D02*
X0103728Y0111841D01*
X0102248Y0112839D02*
X0087300Y0112839D01*
X0087300Y0113838D02*
X0101110Y0113838D01*
X0100559Y0114836D02*
X0087300Y0114836D01*
X0087300Y0115835D02*
X0100260Y0115835D01*
X0099928Y0116833D02*
X0087300Y0116833D01*
X0087300Y0117832D02*
X0099595Y0117832D01*
X0099262Y0118830D02*
X0094265Y0118830D01*
X0095264Y0119829D02*
X0098929Y0119829D01*
X0098596Y0120827D02*
X0096143Y0120827D01*
X0096143Y0121826D02*
X0098263Y0121826D01*
X0097930Y0122824D02*
X0091793Y0122824D01*
X0091793Y0122934D02*
X0091193Y0122934D01*
X0091193Y0127284D01*
X0089567Y0127284D01*
X0087300Y0125017D01*
X0087300Y0131651D01*
X0087890Y0130227D01*
X0089086Y0129031D01*
X0090648Y0128384D01*
X0091036Y0128384D01*
X0092406Y0127284D01*
X0091793Y0127284D01*
X0091793Y0122934D01*
X0091793Y0123823D02*
X0091193Y0123823D01*
X0091193Y0124821D02*
X0091793Y0124821D01*
X0091793Y0125820D02*
X0091193Y0125820D01*
X0091193Y0126818D02*
X0091793Y0126818D01*
X0091742Y0127817D02*
X0087300Y0127817D01*
X0087300Y0128815D02*
X0089607Y0128815D01*
X0088303Y0129814D02*
X0087300Y0129814D01*
X0087300Y0130812D02*
X0087647Y0130812D01*
X0087379Y0133808D02*
X0087300Y0133808D01*
X0087300Y0134806D02*
X0087793Y0134806D01*
X0087300Y0135805D02*
X0088653Y0135805D01*
X0087300Y0136803D02*
X0090453Y0136803D01*
X0092533Y0136803D02*
X0104944Y0136803D01*
X0105942Y0135805D02*
X0094333Y0135805D01*
X0095193Y0134806D02*
X0106941Y0134806D01*
X0107634Y0133808D02*
X0095781Y0133808D01*
X0097024Y0132809D02*
X0107582Y0132809D01*
X0107529Y0131811D02*
X0098268Y0131811D01*
X0099511Y0130812D02*
X0107476Y0130812D01*
X0107424Y0129814D02*
X0100755Y0129814D01*
X0101998Y0128815D02*
X0107371Y0128815D01*
X0107319Y0127817D02*
X0103322Y0127817D01*
X0104188Y0126818D02*
X0107266Y0126818D01*
X0107200Y0125820D02*
X0104532Y0125820D01*
X0104854Y0124821D02*
X0107161Y0124821D01*
X0107200Y0123823D02*
X0105187Y0123823D01*
X0105520Y0122824D02*
X0107200Y0122824D01*
X0107200Y0121826D02*
X0105853Y0121826D01*
X0106186Y0120827D02*
X0106920Y0120827D01*
X0106800Y0119829D02*
X0106518Y0119829D01*
X0106851Y0118830D02*
X0107062Y0118830D01*
X0107722Y0117832D02*
X0107850Y0117832D01*
X0109202Y0116833D02*
X0136200Y0116833D01*
X0136200Y0115835D02*
X0110682Y0115835D01*
X0111889Y0114836D02*
X0136200Y0114836D01*
X0136200Y0113838D02*
X0112432Y0113838D01*
X0112626Y0112839D02*
X0136200Y0112839D01*
X0136200Y0111841D02*
X0112608Y0111841D01*
X0112618Y0110842D02*
X0136200Y0110842D01*
X0136200Y0109844D02*
X0112628Y0109844D01*
X0112638Y0108845D02*
X0136200Y0108845D01*
X0136200Y0107847D02*
X0112647Y0107847D01*
X0112657Y0106848D02*
X0136200Y0106848D01*
X0136200Y0105850D02*
X0136000Y0105850D01*
X0132000Y0105850D02*
X0121000Y0105850D01*
X0120983Y0105867D02*
X0119696Y0106400D01*
X0118304Y0106400D01*
X0117017Y0105867D01*
X0116033Y0104883D01*
X0115500Y0103596D01*
X0115500Y0097404D01*
X0116033Y0096117D01*
X0117017Y0095133D01*
X0118304Y0094600D01*
X0119696Y0094600D01*
X0120983Y0095133D01*
X0121967Y0096117D01*
X0122500Y0097404D01*
X0122500Y0103596D01*
X0121967Y0104883D01*
X0120983Y0105867D01*
X0121980Y0104851D02*
X0131020Y0104851D01*
X0130606Y0103853D02*
X0122394Y0103853D01*
X0122500Y0102854D02*
X0130500Y0102854D01*
X0130500Y0101856D02*
X0122500Y0101856D01*
X0122500Y0100857D02*
X0130500Y0100857D01*
X0130500Y0099859D02*
X0122500Y0099859D01*
X0122500Y0098860D02*
X0130500Y0098860D01*
X0130500Y0097862D02*
X0122500Y0097862D01*
X0122276Y0096863D02*
X0130724Y0096863D01*
X0131286Y0095865D02*
X0121714Y0095865D01*
X0120338Y0094866D02*
X0132662Y0094866D01*
X0135338Y0094866D02*
X0136200Y0094866D01*
X0136200Y0093868D02*
X0112785Y0093868D01*
X0112776Y0094866D02*
X0117662Y0094866D01*
X0116286Y0095865D02*
X0112766Y0095865D01*
X0112756Y0096863D02*
X0115724Y0096863D01*
X0115500Y0097862D02*
X0112746Y0097862D01*
X0112736Y0098860D02*
X0115500Y0098860D01*
X0115500Y0099859D02*
X0112726Y0099859D01*
X0112716Y0100857D02*
X0115500Y0100857D01*
X0115500Y0101856D02*
X0112707Y0101856D01*
X0112697Y0102854D02*
X0115500Y0102854D01*
X0115606Y0103853D02*
X0112687Y0103853D01*
X0112677Y0104851D02*
X0116020Y0104851D01*
X0117000Y0105850D02*
X0112667Y0105850D01*
X0111150Y0117832D02*
X0136200Y0117832D01*
X0136200Y0118830D02*
X0111938Y0118830D01*
X0112200Y0119829D02*
X0136200Y0119829D01*
X0136062Y0120827D02*
X0112080Y0120827D01*
X0111800Y0121826D02*
X0136573Y0121826D01*
X0137143Y0122824D02*
X0111800Y0122824D01*
X0111800Y0123823D02*
X0137684Y0123823D01*
X0138225Y0124821D02*
X0111800Y0124821D01*
X0111820Y0125820D02*
X0138766Y0125820D01*
X0139307Y0126818D02*
X0111873Y0126818D01*
X0111925Y0127817D02*
X0139848Y0127817D01*
X0140388Y0128815D02*
X0111978Y0128815D01*
X0112030Y0129814D02*
X0140929Y0129814D01*
X0141470Y0130812D02*
X0112083Y0130812D01*
X0112135Y0131811D02*
X0142011Y0131811D01*
X0142552Y0132809D02*
X0112188Y0132809D01*
X0112240Y0133808D02*
X0143055Y0133808D01*
X0144687Y0134806D02*
X0112300Y0134806D01*
X0112346Y0135805D02*
X0167700Y0135805D01*
X0167700Y0136803D02*
X0111471Y0136803D01*
X0110451Y0137802D02*
X0167700Y0137802D01*
X0166750Y0138801D02*
X0109452Y0138801D01*
X0108454Y0139799D02*
X0165712Y0139799D01*
X0163323Y0140798D02*
X0122813Y0140798D01*
X0123811Y0141796D02*
X0160934Y0141796D01*
X0158545Y0142795D02*
X0124810Y0142795D01*
X0124900Y0143793D02*
X0156155Y0143793D01*
X0158528Y0147787D02*
X0172591Y0147787D01*
X0172591Y0146789D02*
X0160917Y0146789D01*
X0163306Y0145790D02*
X0172591Y0145790D01*
X0172591Y0144792D02*
X0165696Y0144792D01*
X0168085Y0143793D02*
X0168343Y0143793D01*
X0171657Y0143793D02*
X0172591Y0143793D01*
X0172591Y0148786D02*
X0156138Y0148786D01*
X0153749Y0149784D02*
X0172591Y0149784D01*
X0172591Y0158771D02*
X0163786Y0158771D01*
X0162093Y0159769D02*
X0172591Y0159769D01*
X0164282Y0160768D02*
X0160400Y0160768D01*
X0158707Y0161766D02*
X0163284Y0161766D01*
X0163000Y0162765D02*
X0157013Y0162765D01*
X0155320Y0163763D02*
X0163000Y0163763D01*
X0163000Y0164762D02*
X0153627Y0164762D01*
X0151934Y0165760D02*
X0163811Y0165760D01*
X0146598Y0147787D02*
X0123228Y0147787D01*
X0124227Y0146789D02*
X0148987Y0146789D01*
X0145571Y0134806D02*
X0156013Y0134806D01*
X0158987Y0134806D02*
X0167700Y0134806D01*
X0167700Y0133808D02*
X0159881Y0133808D01*
X0160200Y0132809D02*
X0167700Y0132809D01*
X0167700Y0131811D02*
X0160137Y0131811D01*
X0159631Y0130812D02*
X0167700Y0130812D01*
X0167700Y0129814D02*
X0158071Y0129814D01*
X0156929Y0129814D02*
X0146161Y0129814D01*
X0145620Y0128815D02*
X0151034Y0128815D01*
X0150064Y0127817D02*
X0145079Y0127817D01*
X0144538Y0126818D02*
X0149066Y0126818D01*
X0148067Y0125820D02*
X0143997Y0125820D01*
X0143456Y0124821D02*
X0147069Y0124821D01*
X0146070Y0123823D02*
X0142916Y0123823D01*
X0142375Y0122824D02*
X0145072Y0122824D01*
X0144073Y0121826D02*
X0141834Y0121826D01*
X0141293Y0120827D02*
X0143075Y0120827D01*
X0142076Y0119829D02*
X0140800Y0119829D01*
X0140800Y0118830D02*
X0141700Y0118830D01*
X0141700Y0117832D02*
X0140800Y0117832D01*
X0140800Y0116833D02*
X0141700Y0116833D01*
X0141700Y0115835D02*
X0140800Y0115835D01*
X0140800Y0114836D02*
X0141700Y0114836D01*
X0141700Y0113838D02*
X0140800Y0113838D01*
X0140800Y0112839D02*
X0141700Y0112839D01*
X0141700Y0111841D02*
X0140800Y0111841D01*
X0140800Y0110842D02*
X0141700Y0110842D01*
X0141700Y0109844D02*
X0140800Y0109844D01*
X0140800Y0108845D02*
X0141700Y0108845D01*
X0141700Y0107847D02*
X0140800Y0107847D01*
X0140800Y0106848D02*
X0141700Y0106848D01*
X0141700Y0105850D02*
X0140800Y0105850D01*
X0140800Y0104851D02*
X0141700Y0104851D01*
X0141700Y0103853D02*
X0140800Y0103853D01*
X0140800Y0102854D02*
X0141700Y0102854D01*
X0141700Y0101856D02*
X0140800Y0101856D01*
X0140800Y0100857D02*
X0141700Y0100857D01*
X0141700Y0099859D02*
X0140800Y0099859D01*
X0140800Y0098860D02*
X0141700Y0098860D01*
X0141700Y0097862D02*
X0140800Y0097862D01*
X0140800Y0096863D02*
X0141700Y0096863D01*
X0141700Y0095865D02*
X0140800Y0095865D01*
X0140800Y0094866D02*
X0141700Y0094866D01*
X0141637Y0093868D02*
X0140800Y0093868D01*
X0140800Y0092869D02*
X0142333Y0092869D01*
X0143029Y0091870D02*
X0140800Y0091870D01*
X0140800Y0090872D02*
X0143725Y0090872D01*
X0144421Y0089873D02*
X0140800Y0089873D01*
X0140800Y0088875D02*
X0145117Y0088875D01*
X0145813Y0087876D02*
X0140800Y0087876D01*
X0140800Y0086878D02*
X0146509Y0086878D01*
X0147205Y0085879D02*
X0140800Y0085879D01*
X0140800Y0084881D02*
X0147901Y0084881D01*
X0148597Y0083882D02*
X0140800Y0083882D01*
X0140800Y0082884D02*
X0149293Y0082884D01*
X0149988Y0081885D02*
X0140800Y0081885D01*
X0140800Y0080887D02*
X0150684Y0080887D01*
X0151380Y0079888D02*
X0140800Y0079888D01*
X0140800Y0078890D02*
X0152076Y0078890D01*
X0152772Y0077891D02*
X0140800Y0077891D01*
X0140800Y0076893D02*
X0153172Y0076893D01*
X0153148Y0075894D02*
X0140800Y0075894D01*
X0140800Y0074896D02*
X0153124Y0074896D01*
X0153099Y0073897D02*
X0140800Y0073897D01*
X0140800Y0072899D02*
X0153075Y0072899D01*
X0153051Y0071900D02*
X0140800Y0071900D01*
X0140800Y0070902D02*
X0153026Y0070902D01*
X0153002Y0069903D02*
X0140800Y0069903D01*
X0140800Y0068905D02*
X0152977Y0068905D01*
X0152953Y0067906D02*
X0152044Y0067906D01*
X0147956Y0067906D02*
X0140800Y0067906D01*
X0140800Y0066908D02*
X0146958Y0066908D01*
X0146500Y0065909D02*
X0140800Y0065909D01*
X0141662Y0064911D02*
X0146500Y0064911D01*
X0146500Y0063912D02*
X0142552Y0063912D01*
X0143443Y0062914D02*
X0147137Y0062914D01*
X0148135Y0061915D02*
X0144333Y0061915D01*
X0145224Y0060917D02*
X0152783Y0060917D01*
X0152807Y0061915D02*
X0151865Y0061915D01*
X0152468Y0059918D02*
X0146114Y0059918D01*
X0147005Y0058920D02*
X0151500Y0058920D01*
X0151500Y0057921D02*
X0147895Y0057921D01*
X0148786Y0056923D02*
X0151500Y0056923D01*
X0151626Y0055924D02*
X0149677Y0055924D01*
X0150567Y0054926D02*
X0152625Y0054926D01*
X0151458Y0053927D02*
X0166457Y0053927D01*
X0166500Y0052929D02*
X0152348Y0052929D01*
X0153239Y0051930D02*
X0166500Y0051930D01*
X0166500Y0050932D02*
X0154129Y0050932D01*
X0155020Y0049933D02*
X0166617Y0049933D01*
X0167616Y0048934D02*
X0155911Y0048934D01*
X0156817Y0047936D02*
X0172591Y0047936D01*
X0172591Y0048934D02*
X0172384Y0048934D01*
X0172591Y0046937D02*
X0157329Y0046937D01*
X0157300Y0045939D02*
X0172591Y0045939D01*
X0172591Y0044940D02*
X0157300Y0044940D01*
X0157300Y0043942D02*
X0172591Y0043942D01*
X0172591Y0042943D02*
X0157300Y0042943D01*
X0157300Y0041945D02*
X0172591Y0041945D01*
X0172591Y0040946D02*
X0157300Y0040946D01*
X0157300Y0039948D02*
X0172591Y0039948D01*
X0172591Y0038949D02*
X0157300Y0038949D01*
X0157300Y0037951D02*
X0172591Y0037951D01*
X0172591Y0036952D02*
X0157300Y0036952D01*
X0157300Y0035954D02*
X0172591Y0035954D01*
X0172591Y0034955D02*
X0157300Y0034955D01*
X0157300Y0033957D02*
X0172591Y0033957D01*
X0172591Y0032958D02*
X0162557Y0032958D01*
X0161615Y0033900D02*
X0160300Y0033900D01*
X0160300Y0030300D01*
X0163900Y0030300D01*
X0163900Y0031615D01*
X0161615Y0033900D01*
X0160300Y0032958D02*
X0159700Y0032958D01*
X0159700Y0031960D02*
X0160300Y0031960D01*
X0160300Y0030961D02*
X0159700Y0030961D01*
X0160300Y0029963D02*
X0172591Y0029963D01*
X0172591Y0030961D02*
X0163900Y0030961D01*
X0163556Y0031960D02*
X0172591Y0031960D01*
X0172591Y0028964D02*
X0163900Y0028964D01*
X0163900Y0028385D02*
X0163900Y0029700D01*
X0160300Y0029700D01*
X0160300Y0026100D01*
X0161615Y0026100D01*
X0163900Y0028385D01*
X0163481Y0027966D02*
X0172591Y0027966D01*
X0172591Y0026967D02*
X0162483Y0026967D01*
X0160300Y0026967D02*
X0159700Y0026967D01*
X0159700Y0027966D02*
X0160300Y0027966D01*
X0160300Y0028964D02*
X0159700Y0028964D01*
X0157517Y0026967D02*
X0157300Y0026967D01*
X0157300Y0025969D02*
X0172591Y0025969D01*
X0172591Y0024970D02*
X0171480Y0024970D01*
X0172478Y0023972D02*
X0172591Y0023972D01*
X0168520Y0024970D02*
X0157480Y0024970D01*
X0158478Y0023972D02*
X0167522Y0023972D01*
X0166523Y0022973D02*
X0158500Y0022973D01*
X0158500Y0021975D02*
X0166500Y0021975D01*
X0166500Y0020976D02*
X0158426Y0020976D01*
X0157427Y0019978D02*
X0166573Y0019978D01*
X0167571Y0018979D02*
X0147228Y0018979D01*
X0147246Y0017981D02*
X0172591Y0017981D01*
X0172591Y0018979D02*
X0172429Y0018979D01*
X0171917Y0016982D02*
X0147264Y0016982D01*
X0147282Y0015984D02*
X0170918Y0015984D01*
X0169920Y0014985D02*
X0147301Y0014985D01*
X0147239Y0013987D02*
X0168921Y0013987D01*
X0167923Y0012988D02*
X0146255Y0012988D01*
X0145242Y0011990D02*
X0166924Y0011990D01*
X0165926Y0010991D02*
X0144244Y0010991D01*
X0143245Y0009993D02*
X0164927Y0009993D01*
X0163929Y0008994D02*
X0142506Y0008994D01*
X0141814Y0007996D02*
X0162930Y0007996D01*
X0161932Y0006997D02*
X0120250Y0006997D01*
X0121248Y0007996D02*
X0138186Y0007996D01*
X0137494Y0008994D02*
X0122247Y0008994D01*
X0123245Y0009993D02*
X0137300Y0009993D01*
X0137488Y0010991D02*
X0124244Y0010991D01*
X0125242Y0011990D02*
X0138171Y0011990D01*
X0139735Y0012988D02*
X0126241Y0012988D01*
X0127239Y0013987D02*
X0140734Y0013987D01*
X0141732Y0014985D02*
X0128238Y0014985D01*
X0129236Y0015984D02*
X0142682Y0015984D01*
X0142664Y0016982D02*
X0130235Y0016982D01*
X0130300Y0017981D02*
X0142645Y0017981D01*
X0142627Y0018979D02*
X0130300Y0018979D01*
X0130300Y0019978D02*
X0142609Y0019978D01*
X0142591Y0020976D02*
X0130300Y0020976D01*
X0130300Y0021975D02*
X0142573Y0021975D01*
X0142555Y0022973D02*
X0130300Y0022973D01*
X0130300Y0023972D02*
X0142537Y0023972D01*
X0142518Y0024970D02*
X0130300Y0024970D01*
X0130300Y0025969D02*
X0142500Y0025969D01*
X0142482Y0026967D02*
X0130300Y0026967D01*
X0130300Y0027966D02*
X0142464Y0027966D01*
X0142446Y0028964D02*
X0130300Y0028964D01*
X0130300Y0029963D02*
X0142428Y0029963D01*
X0142409Y0030961D02*
X0130300Y0030961D01*
X0130300Y0031960D02*
X0142391Y0031960D01*
X0142373Y0032958D02*
X0130300Y0032958D01*
X0130300Y0033957D02*
X0142355Y0033957D01*
X0142337Y0034955D02*
X0137805Y0034955D01*
X0137483Y0034633D02*
X0138467Y0035617D01*
X0139000Y0036904D01*
X0139000Y0043096D01*
X0138467Y0044383D01*
X0137483Y0045367D01*
X0136196Y0045900D01*
X0134804Y0045900D01*
X0133517Y0045367D01*
X0132533Y0044383D01*
X0132000Y0043096D01*
X0132000Y0036904D01*
X0132533Y0035617D01*
X0133517Y0034633D01*
X0134804Y0034100D01*
X0136196Y0034100D01*
X0137483Y0034633D01*
X0138606Y0035954D02*
X0142319Y0035954D01*
X0142300Y0036952D02*
X0139000Y0036952D01*
X0139000Y0037951D02*
X0142282Y0037951D01*
X0142264Y0038949D02*
X0139000Y0038949D01*
X0139000Y0039948D02*
X0142246Y0039948D01*
X0142228Y0040946D02*
X0139000Y0040946D01*
X0139000Y0041945D02*
X0142161Y0041945D01*
X0141579Y0042943D02*
X0139000Y0042943D01*
X0138650Y0043942D02*
X0140996Y0043942D01*
X0140414Y0044940D02*
X0137909Y0044940D01*
X0139831Y0045939D02*
X0130300Y0045939D01*
X0130300Y0046937D02*
X0139249Y0046937D01*
X0138666Y0047936D02*
X0130300Y0047936D01*
X0130300Y0048934D02*
X0138084Y0048934D01*
X0137501Y0049933D02*
X0130300Y0049933D01*
X0130300Y0050932D02*
X0136919Y0050932D01*
X0136336Y0051930D02*
X0130300Y0051930D01*
X0130300Y0052929D02*
X0135754Y0052929D01*
X0135172Y0053927D02*
X0130300Y0053927D01*
X0130300Y0054926D02*
X0134589Y0054926D01*
X0134007Y0055924D02*
X0130300Y0055924D01*
X0130300Y0056923D02*
X0133424Y0056923D01*
X0132842Y0057921D02*
X0130300Y0057921D01*
X0130300Y0058920D02*
X0131762Y0058920D01*
X0131319Y0059918D02*
X0130300Y0059918D01*
X0130300Y0060917D02*
X0131300Y0060917D01*
X0131664Y0061915D02*
X0130300Y0061915D01*
X0130300Y0062914D02*
X0132772Y0062914D01*
X0135228Y0062914D02*
X0137279Y0062914D01*
X0138169Y0061915D02*
X0136336Y0061915D01*
X0136700Y0060917D02*
X0139060Y0060917D01*
X0139951Y0059918D02*
X0137002Y0059918D01*
X0137585Y0058920D02*
X0140841Y0058920D01*
X0141732Y0057921D02*
X0138167Y0057921D01*
X0138750Y0056923D02*
X0142622Y0056923D01*
X0143513Y0055924D02*
X0139332Y0055924D01*
X0139914Y0054926D02*
X0144403Y0054926D01*
X0145294Y0053927D02*
X0140497Y0053927D01*
X0141079Y0052929D02*
X0146185Y0052929D01*
X0147075Y0051930D02*
X0141662Y0051930D01*
X0142244Y0050932D02*
X0147966Y0050932D01*
X0148856Y0049933D02*
X0142827Y0049933D01*
X0143409Y0048934D02*
X0149747Y0048934D01*
X0150637Y0047936D02*
X0143992Y0047936D01*
X0144574Y0046937D02*
X0151528Y0046937D01*
X0152418Y0045939D02*
X0145157Y0045939D01*
X0145739Y0044940D02*
X0152700Y0044940D01*
X0152700Y0043942D02*
X0146322Y0043942D01*
X0146904Y0042943D02*
X0152700Y0042943D01*
X0152700Y0041945D02*
X0146810Y0041945D01*
X0146829Y0040946D02*
X0152700Y0040946D01*
X0152700Y0039948D02*
X0146847Y0039948D01*
X0146865Y0038949D02*
X0152700Y0038949D01*
X0152700Y0037951D02*
X0146883Y0037951D01*
X0146901Y0036952D02*
X0152700Y0036952D01*
X0152700Y0035954D02*
X0146919Y0035954D01*
X0146938Y0034955D02*
X0152700Y0034955D01*
X0152700Y0033957D02*
X0146956Y0033957D01*
X0146974Y0032958D02*
X0148009Y0032958D01*
X0147010Y0031960D02*
X0146992Y0031960D01*
X0147065Y0027966D02*
X0147084Y0027966D01*
X0147083Y0026967D02*
X0148083Y0026967D01*
X0147101Y0025969D02*
X0152700Y0025969D01*
X0152700Y0026967D02*
X0151917Y0026967D01*
X0152520Y0024970D02*
X0147119Y0024970D01*
X0147137Y0023972D02*
X0151522Y0023972D01*
X0151500Y0022973D02*
X0147155Y0022973D01*
X0147174Y0021975D02*
X0151500Y0021975D01*
X0151574Y0020976D02*
X0147192Y0020976D01*
X0147210Y0019978D02*
X0152573Y0019978D01*
X0152700Y0032958D02*
X0151991Y0032958D01*
X0157300Y0032958D02*
X0157443Y0032958D01*
X0157375Y0054926D02*
X0166030Y0054926D01*
X0165602Y0055924D02*
X0158374Y0055924D01*
X0158500Y0056923D02*
X0165174Y0056923D01*
X0164746Y0057921D02*
X0158500Y0057921D01*
X0158500Y0058920D02*
X0164318Y0058920D01*
X0163890Y0059918D02*
X0157532Y0059918D01*
X0157384Y0060917D02*
X0163331Y0060917D01*
X0163034Y0061915D02*
X0162431Y0061915D01*
X0160300Y0061915D02*
X0159700Y0061915D01*
X0159700Y0062914D02*
X0160300Y0062914D01*
X0160300Y0063912D02*
X0159700Y0063912D01*
X0159700Y0065909D02*
X0160300Y0065909D01*
X0160300Y0066908D02*
X0159700Y0066908D01*
X0159700Y0067906D02*
X0160300Y0067906D01*
X0162609Y0067906D02*
X0163016Y0067906D01*
X0163200Y0068905D02*
X0157579Y0068905D01*
X0157603Y0069903D02*
X0163757Y0069903D01*
X0164132Y0070902D02*
X0157628Y0070902D01*
X0157652Y0071900D02*
X0164506Y0071900D01*
X0164881Y0072899D02*
X0157676Y0072899D01*
X0157701Y0073897D02*
X0165255Y0073897D01*
X0165630Y0074896D02*
X0157725Y0074896D01*
X0157749Y0075894D02*
X0166004Y0075894D01*
X0166378Y0076893D02*
X0157774Y0076893D01*
X0157817Y0077891D02*
X0166753Y0077891D01*
X0167127Y0078890D02*
X0157822Y0078890D01*
X0156987Y0079888D02*
X0167502Y0079888D01*
X0167700Y0080887D02*
X0156291Y0080887D01*
X0155596Y0081885D02*
X0167700Y0081885D01*
X0167700Y0082884D02*
X0154900Y0082884D01*
X0154204Y0083882D02*
X0167700Y0083882D01*
X0167700Y0084881D02*
X0153508Y0084881D01*
X0152812Y0085879D02*
X0167700Y0085879D01*
X0167700Y0086878D02*
X0152116Y0086878D01*
X0151420Y0087876D02*
X0167700Y0087876D01*
X0167700Y0088875D02*
X0150724Y0088875D01*
X0150028Y0089873D02*
X0152677Y0089873D01*
X0153550Y0089000D02*
X0156450Y0089000D01*
X0158500Y0091050D01*
X0158500Y0093950D01*
X0156450Y0096000D01*
X0153550Y0096000D01*
X0151500Y0093950D01*
X0151500Y0091050D01*
X0153550Y0089000D01*
X0151678Y0090872D02*
X0149332Y0090872D01*
X0148636Y0091870D02*
X0151500Y0091870D01*
X0151500Y0092869D02*
X0147940Y0092869D01*
X0147244Y0093868D02*
X0151500Y0093868D01*
X0152416Y0094866D02*
X0146548Y0094866D01*
X0146300Y0095865D02*
X0153415Y0095865D01*
X0151813Y0096863D02*
X0157622Y0096863D01*
X0158385Y0096100D02*
X0156100Y0098385D01*
X0156100Y0099700D01*
X0159700Y0099700D01*
X0160300Y0099700D01*
X0160300Y0100300D01*
X0163900Y0100300D01*
X0163900Y0101615D01*
X0161615Y0103900D01*
X0160300Y0103900D01*
X0160300Y0100300D01*
X0159700Y0100300D01*
X0159700Y0103900D01*
X0158385Y0103900D01*
X0156100Y0101615D01*
X0156100Y0100300D01*
X0159700Y0100300D01*
X0159700Y0099700D01*
X0159700Y0096100D01*
X0158385Y0096100D01*
X0157584Y0094866D02*
X0166684Y0094866D01*
X0166500Y0095865D02*
X0156585Y0095865D01*
X0156623Y0097862D02*
X0152811Y0097862D01*
X0153500Y0098550D02*
X0151450Y0096500D01*
X0148550Y0096500D01*
X0146500Y0098550D01*
X0146500Y0101450D01*
X0148550Y0103500D01*
X0151450Y0103500D01*
X0153500Y0101450D01*
X0153500Y0098550D01*
X0153500Y0098860D02*
X0156100Y0098860D01*
X0156100Y0100857D02*
X0153500Y0100857D01*
X0153500Y0099859D02*
X0159700Y0099859D01*
X0160300Y0099859D02*
X0167700Y0099859D01*
X0167410Y0098860D02*
X0163900Y0098860D01*
X0163900Y0098385D02*
X0163900Y0099700D01*
X0160300Y0099700D01*
X0160300Y0096100D01*
X0161615Y0096100D01*
X0163900Y0098385D01*
X0163377Y0097862D02*
X0166500Y0097862D01*
X0166500Y0096863D02*
X0162378Y0096863D01*
X0160300Y0096863D02*
X0159700Y0096863D01*
X0159700Y0097862D02*
X0160300Y0097862D01*
X0160300Y0098860D02*
X0159700Y0098860D01*
X0159700Y0100857D02*
X0160300Y0100857D01*
X0160300Y0101856D02*
X0159700Y0101856D01*
X0159700Y0102854D02*
X0160300Y0102854D01*
X0160300Y0103853D02*
X0159700Y0103853D01*
X0158337Y0103853D02*
X0146300Y0103853D01*
X0146300Y0104851D02*
X0163728Y0104851D01*
X0162884Y0105850D02*
X0146300Y0105850D01*
X0146300Y0106848D02*
X0162138Y0106848D01*
X0162200Y0107847D02*
X0146300Y0107847D01*
X0146300Y0108845D02*
X0162200Y0108845D01*
X0162200Y0109844D02*
X0146300Y0109844D01*
X0146300Y0110842D02*
X0162200Y0110842D01*
X0162200Y0111841D02*
X0146300Y0111841D01*
X0146300Y0112839D02*
X0162121Y0112839D01*
X0162585Y0113838D02*
X0146300Y0113838D01*
X0146300Y0114836D02*
X0163361Y0114836D01*
X0164093Y0115835D02*
X0146300Y0115835D01*
X0146300Y0116833D02*
X0164826Y0116833D01*
X0165558Y0117832D02*
X0146584Y0117832D01*
X0147583Y0118830D02*
X0166290Y0118830D01*
X0167022Y0119829D02*
X0148581Y0119829D01*
X0149580Y0120827D02*
X0167700Y0120827D01*
X0167700Y0121826D02*
X0150579Y0121826D01*
X0151577Y0122824D02*
X0167700Y0122824D01*
X0167700Y0123823D02*
X0153092Y0123823D01*
X0154640Y0124821D02*
X0167700Y0124821D01*
X0167700Y0125820D02*
X0155141Y0125820D01*
X0155200Y0126818D02*
X0167700Y0126818D01*
X0167700Y0127817D02*
X0154877Y0127817D01*
X0153966Y0128815D02*
X0167700Y0128815D01*
X0164573Y0103853D02*
X0161663Y0103853D01*
X0162661Y0102854D02*
X0165418Y0102854D01*
X0166263Y0101856D02*
X0163660Y0101856D01*
X0163900Y0100857D02*
X0167108Y0100857D01*
X0167683Y0093868D02*
X0158500Y0093868D01*
X0158500Y0092869D02*
X0167700Y0092869D01*
X0167700Y0091870D02*
X0158500Y0091870D01*
X0158322Y0090872D02*
X0167700Y0090872D01*
X0167700Y0089873D02*
X0157323Y0089873D01*
X0148187Y0096863D02*
X0146300Y0096863D01*
X0146300Y0097862D02*
X0147189Y0097862D01*
X0146500Y0098860D02*
X0146300Y0098860D01*
X0146300Y0099859D02*
X0146500Y0099859D01*
X0146500Y0100857D02*
X0146300Y0100857D01*
X0146300Y0101856D02*
X0146906Y0101856D01*
X0146300Y0102854D02*
X0147904Y0102854D01*
X0152096Y0102854D02*
X0157339Y0102854D01*
X0156340Y0101856D02*
X0153094Y0101856D01*
X0136200Y0092869D02*
X0112795Y0092869D01*
X0112805Y0091870D02*
X0136200Y0091870D01*
X0136200Y0090872D02*
X0112815Y0090872D01*
X0129325Y0089873D02*
X0136200Y0089873D01*
X0136200Y0088875D02*
X0130353Y0088875D01*
X0130700Y0087876D02*
X0136200Y0087876D01*
X0136200Y0086878D02*
X0130665Y0086878D01*
X0130300Y0085879D02*
X0136200Y0085879D01*
X0136200Y0084881D02*
X0130300Y0084881D01*
X0130300Y0083882D02*
X0136200Y0083882D01*
X0136200Y0082884D02*
X0130300Y0082884D01*
X0130300Y0081885D02*
X0136200Y0081885D01*
X0136200Y0080887D02*
X0130300Y0080887D01*
X0130300Y0079888D02*
X0136200Y0079888D01*
X0136200Y0078890D02*
X0130300Y0078890D01*
X0130300Y0077891D02*
X0136200Y0077891D01*
X0136200Y0076893D02*
X0130300Y0076893D01*
X0130300Y0075894D02*
X0132790Y0075894D01*
X0134210Y0075894D02*
X0136200Y0075894D01*
X0136200Y0074896D02*
X0135954Y0074896D01*
X0131046Y0074896D02*
X0130300Y0074896D01*
X0130300Y0073897D02*
X0130332Y0073897D01*
X0130300Y0065909D02*
X0130412Y0065909D01*
X0130300Y0064911D02*
X0131240Y0064911D01*
X0130300Y0063912D02*
X0136335Y0063912D01*
X0136191Y0064911D02*
X0135760Y0064911D01*
X0157408Y0061915D02*
X0157569Y0061915D01*
X0133091Y0044940D02*
X0130300Y0044940D01*
X0130300Y0043942D02*
X0132350Y0043942D01*
X0132000Y0042943D02*
X0130300Y0042943D01*
X0130300Y0041945D02*
X0132000Y0041945D01*
X0132000Y0040946D02*
X0130300Y0040946D01*
X0130300Y0039948D02*
X0132000Y0039948D01*
X0132000Y0038949D02*
X0130300Y0038949D01*
X0130300Y0037951D02*
X0132000Y0037951D01*
X0132000Y0036952D02*
X0130300Y0036952D01*
X0130300Y0035954D02*
X0132393Y0035954D01*
X0133195Y0034955D02*
X0130300Y0034955D01*
X0125700Y0027966D02*
X0124088Y0027966D01*
X0125261Y0026967D02*
X0125700Y0026967D01*
X0125700Y0022973D02*
X0125404Y0022973D01*
X0125700Y0021975D02*
X0124452Y0021975D01*
X0125700Y0020976D02*
X0011600Y0020976D01*
X0011600Y0019978D02*
X0125700Y0019978D01*
X0125700Y0018979D02*
X0011774Y0018979D01*
X0012772Y0017981D02*
X0124728Y0017981D01*
X0123729Y0016982D02*
X0013771Y0016982D01*
X0014769Y0015984D02*
X0122731Y0015984D01*
X0121732Y0014985D02*
X0015768Y0014985D01*
X0016766Y0013987D02*
X0120734Y0013987D01*
X0119735Y0012988D02*
X0017765Y0012988D01*
X0018763Y0011990D02*
X0118737Y0011990D01*
X0117738Y0010991D02*
X0019762Y0010991D01*
X0087300Y0118830D02*
X0088721Y0118830D01*
X0087722Y0119829D02*
X0087300Y0119829D01*
X0091193Y0119829D02*
X0091793Y0119829D01*
X0091793Y0120827D02*
X0091193Y0120827D01*
X0091193Y0121826D02*
X0091793Y0121826D01*
X0091793Y0118830D02*
X0091193Y0118830D01*
X0096143Y0123823D02*
X0096716Y0123823D01*
X0089101Y0126818D02*
X0087300Y0126818D01*
X0087300Y0125820D02*
X0088103Y0125820D01*
X0087300Y0137802D02*
X0103945Y0137802D01*
X0102947Y0138801D02*
X0092008Y0138801D01*
X0092139Y0139799D02*
X0091355Y0139799D01*
X0091301Y0140798D02*
X0090517Y0140798D01*
X0090463Y0141796D02*
X0089977Y0141796D01*
X0090234Y0142795D02*
X0091167Y0142795D01*
X0091424Y0143793D02*
X0092357Y0143793D01*
X0092614Y0144792D02*
X0096956Y0144792D01*
X0095957Y0145790D02*
X0091811Y0145790D01*
X0093487Y0143793D02*
X0097954Y0143793D01*
X0098953Y0142795D02*
X0093818Y0142795D01*
X0093730Y0141796D02*
X0099951Y0141796D01*
X0100950Y0140798D02*
X0093643Y0140798D01*
X0093198Y0139799D02*
X0101948Y0139799D01*
X0105458Y0142795D02*
X0117190Y0142795D01*
X0117100Y0143793D02*
X0104460Y0143793D01*
X0106457Y0141796D02*
X0118189Y0141796D01*
X0119187Y0140798D02*
X0107455Y0140798D01*
X0114265Y0148786D02*
X0099467Y0148786D01*
X0098469Y0149784D02*
X0113266Y0149784D01*
X0120700Y0147787D02*
X0121300Y0147787D01*
X0121300Y0146789D02*
X0120700Y0146789D01*
X0120700Y0145790D02*
X0121300Y0145790D01*
X0121300Y0143793D02*
X0120700Y0143793D01*
X0120700Y0142795D02*
X0121300Y0142795D01*
X0121300Y0141796D02*
X0120700Y0141796D01*
X0120700Y0140798D02*
X0121300Y0140798D01*
X0120612Y0161200D02*
X0120612Y0161200D01*
X0117484Y0173748D02*
X0116516Y0173748D01*
X0116516Y0174747D02*
X0117484Y0174747D01*
X0117484Y0175745D02*
X0116516Y0175745D01*
X0116516Y0176744D02*
X0117484Y0176744D01*
X0117484Y0177742D02*
X0116516Y0177742D01*
X0116516Y0178741D02*
X0117484Y0178741D01*
X0113991Y0178741D02*
X0109443Y0178741D01*
X0110438Y0177742D02*
X0113169Y0177742D01*
X0112738Y0176744D02*
X0110852Y0176744D01*
X0111053Y0175745D02*
X0112547Y0175745D01*
X0112547Y0174747D02*
X0111053Y0174747D01*
X0091963Y0149784D02*
X0069218Y0149784D01*
X0070216Y0148786D02*
X0092962Y0148786D01*
X0093960Y0147787D02*
X0071215Y0147787D01*
X0081464Y0146789D02*
X0094959Y0146789D01*
X0089625Y0142795D02*
X0088842Y0142795D01*
X0088787Y0143793D02*
X0088004Y0143793D01*
X0087949Y0144792D02*
X0087166Y0144792D01*
X0087013Y0144792D02*
X0083461Y0144792D01*
X0082463Y0145790D02*
X0088203Y0145790D01*
X0086075Y0143793D02*
X0084460Y0143793D01*
X0085458Y0142795D02*
X0085988Y0142795D01*
X0087300Y0138801D02*
X0087494Y0138801D01*
X0044296Y0151781D02*
X0042543Y0151781D01*
X0042543Y0150783D02*
X0043316Y0150783D01*
X0039772Y0146789D02*
X0027800Y0146789D01*
X0027800Y0147787D02*
X0037099Y0147787D01*
X0036101Y0148786D02*
X0027800Y0148786D01*
X0027800Y0149784D02*
X0035543Y0149784D01*
X0035543Y0150783D02*
X0027800Y0150783D01*
X0027800Y0151781D02*
X0035543Y0151781D01*
X0036079Y0152780D02*
X0027800Y0152780D01*
X0027800Y0153778D02*
X0037078Y0153778D01*
X0038874Y0145790D02*
X0027800Y0145790D01*
X0027800Y0144792D02*
X0037976Y0144792D01*
X0037078Y0143793D02*
X0027800Y0143793D01*
X0027800Y0142795D02*
X0036180Y0142795D01*
X0035282Y0141796D02*
X0027800Y0141796D01*
X0027800Y0140798D02*
X0034385Y0140798D01*
X0033487Y0139799D02*
X0027800Y0139799D01*
X0027800Y0138801D02*
X0032589Y0138801D01*
D23*
X0054000Y0155000D03*
X0048000Y0165000D03*
X0055000Y0175000D03*
X0025000Y0175000D03*
X0080500Y0107500D03*
X0080000Y0095500D03*
X0100000Y0085000D03*
X0086500Y0069500D03*
X0091500Y0057000D03*
X0128000Y0087500D03*
X0134000Y0060500D03*
X0140000Y0010000D03*
X0109500Y0120000D03*
X0152500Y0126500D03*
X0157500Y0132500D03*
D24*
X0145000Y0132500D01*
X0138500Y0120500D01*
X0138500Y0065000D01*
X0155000Y0046500D01*
X0155000Y0022500D01*
X0145000Y0015000D02*
X0140000Y0010000D01*
X0145000Y0015000D02*
X0144500Y0042500D01*
X0134000Y0060500D01*
X0155000Y0057500D02*
X0155500Y0078000D01*
X0144000Y0094500D01*
X0144000Y0118500D01*
X0152000Y0126500D01*
X0152500Y0126500D01*
X0164500Y0112500D02*
X0164500Y0107500D01*
X0170000Y0101000D01*
X0170000Y0096500D01*
X0170000Y0080000D01*
X0165500Y0068000D01*
X0165500Y0062000D01*
X0170000Y0051500D01*
X0128000Y0018000D02*
X0118500Y0008500D01*
X0019000Y0008500D01*
X0009300Y0018200D01*
X0009300Y0030400D01*
X0009300Y0040500D01*
X0016800Y0040500D02*
X0016800Y0030400D01*
X0024300Y0030400D02*
X0024300Y0040500D01*
X0080000Y0095500D02*
X0091500Y0083500D01*
X0091500Y0057000D01*
X0100000Y0085000D02*
X0085000Y0100500D01*
X0085000Y0140000D01*
X0080000Y0145000D01*
X0070749Y0145000D01*
X0064993Y0150757D01*
X0064993Y0165007D01*
X0055000Y0175000D01*
X0080042Y0154246D02*
X0090754Y0154246D01*
X0110000Y0135000D01*
X0109500Y0125500D01*
X0109500Y0120000D01*
X0128000Y0087500D02*
X0128000Y0018000D01*
X0164500Y0112500D02*
X0170000Y0120000D01*
X0170000Y0140500D01*
X0136500Y0154500D01*
X0136500Y0163500D02*
X0100500Y0163500D01*
X0097000Y0172500D01*
X0146500Y0181000D02*
X0147000Y0166000D01*
X0166500Y0154500D01*
X0024300Y0150500D02*
X0024300Y0160900D01*
X0016800Y0160900D02*
X0016800Y0150500D01*
X0009300Y0150500D02*
X0009300Y0160900D01*
X0016800Y0160900D02*
X0016800Y0166800D01*
X0025000Y0175000D01*
D25*
X0091493Y0132634D02*
X0101000Y0125000D01*
X0104000Y0116000D01*
X0109000Y0112627D01*
X0109500Y0062000D01*
X0109500Y0059500D01*
X0085000Y0047000D01*
X0080003Y0042003D01*
X0080003Y0024875D01*
X0085000Y0047000D02*
X0079997Y0050503D01*
X0079997Y0054867D01*
X0079997Y0085497D01*
X0079998Y0085498D01*
D26*
X0126000Y0152000D02*
X0134000Y0152000D01*
X0136500Y0154500D01*
X0126000Y0152000D02*
X0120500Y0158500D01*
X0112500Y0158500D01*
X0109500Y0155500D01*
X0105160Y0154928D01*
M02*
