G75*
%MOIN*%
%OFA0B0*%
%FSLAX25Y25*%
%IPPOS*%
%LPD*%
%AMOC8*
5,1,8,0,0,1.08239X$1,22.5*
%
%ADD10C,0.01500*%
%ADD11C,0.01100*%
%ADD12C,0.00600*%
%ADD13C,0.00500*%
D10*
X0038673Y0033839D02*
X0038673Y0035257D01*
X0044344Y0035257D01*
X0038673Y0033839D02*
X0044344Y0028168D01*
X0044344Y0026750D01*
X0047530Y0026750D02*
X0048948Y0026750D01*
X0048948Y0028168D01*
X0047530Y0028168D01*
X0047530Y0026750D01*
X0052484Y0026750D02*
X0058156Y0026750D01*
X0055320Y0026750D02*
X0055320Y0035257D01*
X0058156Y0032422D01*
X0061692Y0029586D02*
X0061692Y0035257D01*
X0067364Y0035257D02*
X0067364Y0029586D01*
X0064528Y0026750D01*
X0061692Y0029586D01*
D11*
X0072652Y0020455D02*
X0072652Y0014550D01*
X0075605Y0014550D01*
X0076589Y0015534D01*
X0076589Y0017503D01*
X0075605Y0018487D01*
X0072652Y0018487D01*
X0070144Y0017503D02*
X0069159Y0018487D01*
X0066207Y0018487D01*
X0067191Y0016518D02*
X0069159Y0016518D01*
X0070144Y0017503D01*
X0070144Y0014550D02*
X0067191Y0014550D01*
X0066207Y0015534D01*
X0067191Y0016518D01*
X0078918Y0014550D02*
X0080886Y0014550D01*
X0079902Y0014550D02*
X0079902Y0020455D01*
X0080886Y0020455D01*
X0083395Y0017503D02*
X0084379Y0018487D01*
X0086347Y0018487D01*
X0087332Y0017503D01*
X0087332Y0015534D01*
X0086347Y0014550D01*
X0084379Y0014550D01*
X0083395Y0015534D01*
X0083395Y0017503D01*
X0089840Y0017503D02*
X0089840Y0014550D01*
X0089840Y0017503D02*
X0090824Y0018487D01*
X0093777Y0018487D01*
X0093777Y0014550D01*
X0096286Y0014550D02*
X0099238Y0014550D01*
X0100223Y0015534D01*
X0100223Y0018487D01*
X0102731Y0017503D02*
X0102731Y0016518D01*
X0106668Y0016518D01*
X0106668Y0015534D02*
X0106668Y0017503D01*
X0105684Y0018487D01*
X0103715Y0018487D01*
X0102731Y0017503D01*
X0103715Y0014550D02*
X0105684Y0014550D01*
X0106668Y0015534D01*
X0109177Y0014550D02*
X0111145Y0016518D01*
X0110161Y0016518D02*
X0113114Y0016518D01*
X0113114Y0014550D02*
X0113114Y0020455D01*
X0110161Y0020455D01*
X0109177Y0019471D01*
X0109177Y0017503D01*
X0110161Y0016518D01*
X0122068Y0020455D02*
X0124036Y0020455D01*
X0123052Y0020455D02*
X0123052Y0015534D01*
X0124036Y0014550D01*
X0125020Y0014550D01*
X0126005Y0015534D01*
X0128513Y0014550D02*
X0128513Y0018487D01*
X0130482Y0020455D01*
X0132450Y0018487D01*
X0132450Y0014550D01*
X0132450Y0017503D02*
X0128513Y0017503D01*
X0098254Y0012582D02*
X0097270Y0012582D01*
X0096286Y0013566D01*
X0096286Y0018487D01*
D12*
X0016911Y0005100D02*
X0005100Y0016911D01*
X0005100Y0055000D01*
X0032600Y0055000D01*
X0045100Y0041100D01*
X0059100Y0041100D01*
X0072100Y0055100D01*
X0072100Y0136021D01*
X0059100Y0150021D01*
X0045100Y0150021D01*
X0032600Y0136121D01*
X0005100Y0136121D01*
X0005100Y0174250D01*
X0016911Y0186061D01*
X0162580Y0186061D02*
X0174391Y0174250D01*
X0174391Y0016911D01*
X0162580Y0005100D01*
X0136200Y0009300D02*
X0134499Y0009300D01*
X0133931Y0009867D01*
X0134499Y0010434D01*
X0135633Y0010434D01*
X0136200Y0011001D01*
X0135633Y0011569D01*
X0133931Y0011569D01*
X0132517Y0011569D02*
X0131383Y0011569D01*
X0131950Y0012136D02*
X0131950Y0009867D01*
X0131383Y0009300D01*
X0130061Y0009867D02*
X0129494Y0010434D01*
X0127793Y0010434D01*
X0127793Y0011001D02*
X0127793Y0009300D01*
X0129494Y0009300D01*
X0130061Y0009867D01*
X0129494Y0011569D02*
X0128360Y0011569D01*
X0127793Y0011001D01*
X0126378Y0011569D02*
X0126378Y0009300D01*
X0125244Y0009300D02*
X0125244Y0011001D01*
X0124677Y0011569D01*
X0124110Y0011001D01*
X0124110Y0009300D01*
X0122695Y0009300D02*
X0120994Y0009300D01*
X0120427Y0009867D01*
X0120427Y0011001D01*
X0120994Y0011569D01*
X0122695Y0011569D01*
X0122695Y0008166D01*
X0119012Y0009867D02*
X0119012Y0011001D01*
X0118445Y0011569D01*
X0117311Y0011569D01*
X0116743Y0011001D01*
X0116743Y0010434D01*
X0119012Y0010434D01*
X0119012Y0009867D02*
X0118445Y0009300D01*
X0117311Y0009300D01*
X0115329Y0009867D02*
X0115329Y0011001D01*
X0114762Y0011569D01*
X0113060Y0011569D01*
X0113060Y0012703D02*
X0113060Y0009300D01*
X0114762Y0009300D01*
X0115329Y0009867D01*
X0111646Y0009867D02*
X0111079Y0009300D01*
X0109944Y0009300D01*
X0109377Y0010434D02*
X0111646Y0010434D01*
X0111646Y0009867D02*
X0111646Y0011001D01*
X0111079Y0011569D01*
X0109944Y0011569D01*
X0109377Y0011001D01*
X0109377Y0010434D01*
X0107963Y0009300D02*
X0106261Y0009300D01*
X0105694Y0009867D01*
X0105694Y0011001D01*
X0106261Y0011569D01*
X0107963Y0011569D01*
X0107963Y0012703D02*
X0107963Y0009300D01*
X0104279Y0009867D02*
X0103712Y0009300D01*
X0102578Y0009300D01*
X0102011Y0009867D01*
X0102011Y0011001D01*
X0102578Y0011569D01*
X0103712Y0011569D01*
X0104279Y0011001D01*
X0104279Y0009867D01*
X0100596Y0009300D02*
X0098895Y0009300D01*
X0098328Y0009867D01*
X0098895Y0010434D01*
X0100029Y0010434D01*
X0100596Y0011001D01*
X0100029Y0011569D01*
X0098328Y0011569D01*
X0096913Y0011001D02*
X0096346Y0011569D01*
X0094645Y0011569D01*
X0095212Y0010434D02*
X0096346Y0010434D01*
X0096913Y0011001D01*
X0096913Y0009300D02*
X0095212Y0009300D01*
X0094645Y0009867D01*
X0095212Y0010434D01*
X0093230Y0009867D02*
X0093230Y0012136D01*
X0092663Y0012703D01*
X0091529Y0012703D01*
X0090961Y0012136D01*
X0090961Y0011001D01*
X0091529Y0010434D01*
X0091529Y0011569D01*
X0092663Y0011569D01*
X0092663Y0010434D01*
X0091529Y0010434D01*
X0090961Y0009867D02*
X0091529Y0009300D01*
X0092663Y0009300D01*
X0093230Y0009867D01*
X0089547Y0009867D02*
X0088980Y0009300D01*
X0087278Y0009300D01*
X0087278Y0008733D02*
X0087278Y0011569D01*
X0088980Y0011569D01*
X0089547Y0011001D01*
X0089547Y0009867D01*
X0088413Y0008166D02*
X0087845Y0008166D01*
X0087278Y0008733D01*
X0085864Y0009300D02*
X0085864Y0011569D01*
X0085297Y0011569D01*
X0084729Y0011001D01*
X0084162Y0011569D01*
X0083595Y0011001D01*
X0083595Y0009300D01*
X0084729Y0009300D02*
X0084729Y0011001D01*
X0082181Y0009867D02*
X0081613Y0009300D01*
X0079912Y0009300D01*
X0079912Y0011001D01*
X0080479Y0011569D01*
X0081613Y0011569D01*
X0081613Y0010434D02*
X0079912Y0010434D01*
X0081613Y0010434D02*
X0082181Y0009867D01*
X0078497Y0009300D02*
X0077363Y0009300D01*
X0077930Y0009300D02*
X0077930Y0011569D01*
X0078497Y0011569D01*
X0077930Y0012703D02*
X0077930Y0013270D01*
X0076042Y0012703D02*
X0075475Y0012703D01*
X0075475Y0009300D01*
X0076042Y0009300D02*
X0074908Y0009300D01*
X0073587Y0009300D02*
X0073587Y0009867D01*
X0073019Y0009867D01*
X0073019Y0009300D01*
X0073587Y0009300D01*
X0071745Y0009867D02*
X0071178Y0009300D01*
X0069476Y0009300D01*
X0068062Y0009867D02*
X0067495Y0009300D01*
X0066360Y0009300D01*
X0065793Y0009867D01*
X0065793Y0011001D01*
X0066360Y0011569D01*
X0067495Y0011569D01*
X0068062Y0011001D01*
X0068062Y0009867D01*
X0069476Y0011569D02*
X0071178Y0011569D01*
X0071745Y0011001D01*
X0071745Y0009867D01*
X0064379Y0009300D02*
X0064379Y0011569D01*
X0063812Y0011569D01*
X0063244Y0011001D01*
X0062677Y0011569D01*
X0062110Y0011001D01*
X0062110Y0009300D01*
X0063244Y0009300D02*
X0063244Y0011001D01*
X0125244Y0011001D02*
X0125811Y0011569D01*
X0126378Y0011569D01*
D13*
X0162726Y0005100D02*
X0017100Y0005100D01*
X0017100Y0186021D02*
X0162726Y0186021D01*
M02*
