G75*
%MOIN*%
%OFA0B0*%
%FSLAX25Y25*%
%IPPOS*%
%LPD*%
%AMOC8*
5,1,8,0,0,1.08239X$1,22.5*
%
%ADD10C,0.00300*%
%ADD11C,0.01100*%
%ADD12C,0.00500*%
%ADD13C,0.00600*%
%ADD14R,0.07400X0.01700*%
%ADD15C,0.00800*%
%ADD16C,0.00200*%
%ADD17C,0.01000*%
%ADD18C,0.01500*%
%ADD19C,0.00700*%
D10*
X0079217Y0024883D02*
X0079700Y0024883D01*
X0079700Y0025366D01*
X0079217Y0025366D01*
X0079217Y0024883D01*
X0080690Y0025366D02*
X0081174Y0024883D01*
X0082141Y0024883D01*
X0082625Y0025366D01*
X0082625Y0025850D01*
X0082141Y0026334D01*
X0081657Y0026334D01*
X0082141Y0026334D02*
X0082625Y0026818D01*
X0082625Y0027301D01*
X0082141Y0027785D01*
X0081174Y0027785D01*
X0080690Y0027301D01*
X0083636Y0027785D02*
X0083636Y0024883D01*
X0083636Y0025850D02*
X0085088Y0025850D01*
X0085571Y0026334D01*
X0085571Y0027301D01*
X0085088Y0027785D01*
X0083636Y0027785D01*
X0084604Y0025850D02*
X0085571Y0024883D01*
X0085578Y0064813D02*
X0084610Y0065780D01*
X0085094Y0065780D02*
X0083643Y0065780D01*
X0083643Y0064813D02*
X0083643Y0067715D01*
X0085094Y0067715D01*
X0085578Y0067231D01*
X0085578Y0066264D01*
X0085094Y0065780D01*
X0082631Y0065780D02*
X0082631Y0065296D01*
X0082148Y0064813D01*
X0081180Y0064813D01*
X0080696Y0065296D01*
X0079707Y0065296D02*
X0079707Y0064813D01*
X0079223Y0064813D01*
X0079223Y0065296D01*
X0079707Y0065296D01*
X0080696Y0067231D02*
X0081180Y0067715D01*
X0082148Y0067715D01*
X0082631Y0067231D01*
X0082631Y0066747D01*
X0082148Y0066264D01*
X0082631Y0065780D01*
X0082148Y0066264D02*
X0081664Y0066264D01*
X0081453Y0105048D02*
X0080969Y0105532D01*
X0081453Y0105048D02*
X0082420Y0105048D01*
X0082904Y0105532D01*
X0082904Y0106015D01*
X0082420Y0106499D01*
X0081937Y0106499D01*
X0082420Y0106499D02*
X0082904Y0106983D01*
X0082904Y0107467D01*
X0082420Y0107950D01*
X0081453Y0107950D01*
X0080969Y0107467D01*
X0079980Y0105532D02*
X0079496Y0105532D01*
X0079496Y0105048D01*
X0079980Y0105048D01*
X0079980Y0105532D01*
X0083916Y0106015D02*
X0085367Y0106015D01*
X0085851Y0106499D01*
X0085851Y0107467D01*
X0085367Y0107950D01*
X0083916Y0107950D01*
X0083916Y0105048D01*
X0084883Y0106015D02*
X0085851Y0105048D01*
X0138750Y0149300D02*
X0140685Y0149300D01*
X0139717Y0149300D02*
X0139717Y0152202D01*
X0138750Y0151235D01*
X0141697Y0151719D02*
X0141697Y0149784D01*
X0143631Y0151719D01*
X0143631Y0149784D01*
X0143148Y0149300D01*
X0142180Y0149300D01*
X0141697Y0149784D01*
X0141697Y0151719D02*
X0142180Y0152202D01*
X0143148Y0152202D01*
X0143631Y0151719D01*
X0144643Y0151719D02*
X0144643Y0149784D01*
X0146578Y0151719D01*
X0146578Y0149784D01*
X0146094Y0149300D01*
X0145127Y0149300D01*
X0144643Y0149784D01*
X0144643Y0151719D02*
X0145127Y0152202D01*
X0146094Y0152202D01*
X0146578Y0151719D01*
X0147590Y0152202D02*
X0149041Y0152202D01*
X0149525Y0151719D01*
X0149525Y0150751D01*
X0149041Y0150267D01*
X0147590Y0150267D01*
X0147590Y0149300D02*
X0147590Y0152202D01*
X0148557Y0150267D02*
X0149525Y0149300D01*
X0157234Y0160050D02*
X0156750Y0160534D01*
X0157234Y0160050D02*
X0158201Y0160050D01*
X0158685Y0160534D01*
X0158685Y0161017D01*
X0158201Y0161501D01*
X0157717Y0161501D01*
X0158201Y0161501D02*
X0158685Y0161985D01*
X0158685Y0162469D01*
X0158201Y0162952D01*
X0157234Y0162952D01*
X0156750Y0162469D01*
X0159697Y0162469D02*
X0160180Y0162952D01*
X0161148Y0162952D01*
X0161631Y0162469D01*
X0161631Y0161985D01*
X0161148Y0161501D01*
X0161631Y0161017D01*
X0161631Y0160534D01*
X0161148Y0160050D01*
X0160180Y0160050D01*
X0159697Y0160534D01*
X0160664Y0161501D02*
X0161148Y0161501D01*
X0162643Y0161017D02*
X0164094Y0161017D01*
X0164578Y0161501D01*
X0164578Y0162469D01*
X0164094Y0162952D01*
X0162643Y0162952D01*
X0162643Y0160050D01*
X0163611Y0161017D02*
X0164578Y0160050D01*
X0124531Y0162134D02*
X0124048Y0161650D01*
X0123080Y0161650D01*
X0122597Y0162134D01*
X0122597Y0164069D01*
X0123080Y0164552D01*
X0124048Y0164552D01*
X0124531Y0164069D01*
X0124531Y0162134D01*
X0121585Y0162134D02*
X0121101Y0161650D01*
X0119650Y0161650D01*
X0119650Y0164552D01*
X0121101Y0164552D01*
X0121585Y0164069D01*
X0121585Y0162134D01*
X0115746Y0161650D02*
X0115746Y0164552D01*
X0113811Y0164552D02*
X0115746Y0161650D01*
X0113811Y0161650D02*
X0113811Y0164552D01*
X0112814Y0164552D02*
X0111847Y0164552D01*
X0112330Y0164552D02*
X0112330Y0161650D01*
X0111847Y0161650D02*
X0112814Y0161650D01*
X0110835Y0162134D02*
X0110835Y0164069D01*
X0110351Y0164552D01*
X0108900Y0164552D01*
X0108900Y0161650D01*
X0110351Y0161650D01*
X0110835Y0162134D01*
X0106603Y0162134D02*
X0106119Y0161650D01*
X0104668Y0161650D01*
X0104668Y0164552D01*
X0106119Y0164552D01*
X0106603Y0164069D01*
X0106603Y0162134D01*
X0103656Y0161650D02*
X0103656Y0164552D01*
X0101722Y0164552D02*
X0103656Y0161650D01*
X0101722Y0161650D02*
X0101722Y0164552D01*
X0100710Y0164069D02*
X0100226Y0164552D01*
X0099259Y0164552D01*
X0098775Y0164069D01*
X0098775Y0162134D01*
X0099259Y0161650D01*
X0100226Y0161650D01*
X0100710Y0162134D01*
X0100710Y0163101D01*
X0099742Y0163101D01*
X0096103Y0162617D02*
X0096103Y0164552D01*
X0096103Y0162617D02*
X0095136Y0161650D01*
X0094168Y0162617D01*
X0094168Y0164552D01*
X0093156Y0164069D02*
X0093156Y0163585D01*
X0091222Y0161650D01*
X0093156Y0161650D01*
X0090210Y0161650D02*
X0088275Y0161650D01*
X0089242Y0161650D02*
X0089242Y0164552D01*
X0088275Y0163585D01*
X0091222Y0164069D02*
X0091705Y0164552D01*
X0092673Y0164552D01*
X0093156Y0164069D01*
X0162750Y0103001D02*
X0164685Y0103001D01*
X0165697Y0102034D02*
X0166180Y0102034D01*
X0166180Y0101550D01*
X0165697Y0101550D01*
X0165697Y0102034D01*
X0167170Y0102034D02*
X0167170Y0101550D01*
X0167170Y0102034D02*
X0169105Y0103969D01*
X0169105Y0104452D01*
X0167170Y0104452D01*
X0164201Y0104452D02*
X0164201Y0101550D01*
X0162750Y0103001D02*
X0164201Y0104452D01*
X0170116Y0104452D02*
X0170116Y0101550D01*
X0170116Y0102517D02*
X0171568Y0103485D01*
X0170116Y0102517D02*
X0171568Y0101550D01*
X0170116Y0067452D02*
X0170116Y0064550D01*
X0170116Y0065517D02*
X0171568Y0066485D01*
X0170116Y0065517D02*
X0171568Y0064550D01*
X0169105Y0066969D02*
X0167170Y0065034D01*
X0167170Y0064550D01*
X0166180Y0064550D02*
X0165697Y0064550D01*
X0165697Y0065034D01*
X0166180Y0065034D01*
X0166180Y0064550D01*
X0164201Y0064550D02*
X0164201Y0067452D01*
X0162750Y0066001D01*
X0164685Y0066001D01*
X0167170Y0067452D02*
X0169105Y0067452D01*
X0169105Y0066969D01*
X0169355Y0037452D02*
X0167420Y0037452D01*
X0169355Y0037452D02*
X0169355Y0036969D01*
X0167420Y0035034D01*
X0167420Y0034550D01*
X0166430Y0034550D02*
X0165947Y0034550D01*
X0165947Y0035034D01*
X0166430Y0035034D01*
X0166430Y0034550D01*
X0164451Y0034550D02*
X0164451Y0037452D01*
X0163000Y0036001D01*
X0164935Y0036001D01*
X0170366Y0035517D02*
X0171818Y0036485D01*
X0170366Y0037452D02*
X0170366Y0034550D01*
X0170366Y0035517D02*
X0171818Y0034550D01*
D11*
X0158805Y0014306D02*
X0156636Y0014306D01*
X0155552Y0013221D01*
X0155552Y0008884D01*
X0159889Y0013221D01*
X0159889Y0008884D01*
X0158805Y0007800D01*
X0156636Y0007800D01*
X0155552Y0008884D01*
X0152891Y0007800D02*
X0148554Y0007800D01*
X0150723Y0007800D02*
X0150723Y0014306D01*
X0148554Y0012137D01*
X0146139Y0008884D02*
X0145055Y0008884D01*
X0145055Y0007800D01*
X0146139Y0007800D01*
X0146139Y0008884D01*
X0142394Y0007800D02*
X0138057Y0007800D01*
X0135396Y0009969D02*
X0135396Y0014306D01*
X0138057Y0012137D02*
X0140226Y0014306D01*
X0140226Y0007800D01*
X0135396Y0009969D02*
X0133228Y0007800D01*
X0131059Y0009969D01*
X0131059Y0014306D01*
X0158805Y0014306D02*
X0159889Y0013221D01*
X0073873Y0012887D02*
X0070620Y0012887D01*
X0069536Y0011803D01*
X0069536Y0009634D01*
X0070620Y0008550D01*
X0073873Y0008550D01*
X0073873Y0015056D01*
X0066875Y0011803D02*
X0066875Y0009634D01*
X0065791Y0008550D01*
X0063622Y0008550D01*
X0062538Y0009634D01*
X0062538Y0011803D01*
X0063622Y0012887D01*
X0065791Y0012887D01*
X0066875Y0011803D01*
X0059877Y0011803D02*
X0059877Y0009634D01*
X0058793Y0008550D01*
X0056624Y0008550D01*
X0055540Y0009634D01*
X0055540Y0011803D01*
X0056624Y0012887D01*
X0058793Y0012887D01*
X0059877Y0011803D01*
X0053043Y0008550D02*
X0050875Y0008550D01*
X0051959Y0008550D02*
X0051959Y0015056D01*
X0050875Y0015056D01*
X0048214Y0015056D02*
X0043877Y0015056D01*
X0043877Y0008550D01*
X0041380Y0008550D02*
X0039211Y0008550D01*
X0040296Y0008550D02*
X0040296Y0012887D01*
X0039211Y0012887D01*
X0040296Y0015056D02*
X0040296Y0016140D01*
X0036550Y0012887D02*
X0032213Y0008550D01*
X0029716Y0008550D02*
X0027548Y0008550D01*
X0028632Y0008550D02*
X0028632Y0012887D01*
X0027548Y0012887D01*
X0028632Y0015056D02*
X0028632Y0016140D01*
X0024887Y0013971D02*
X0024887Y0011803D01*
X0023803Y0010719D01*
X0020550Y0010719D01*
X0020550Y0008550D02*
X0020550Y0015056D01*
X0023803Y0015056D01*
X0024887Y0013971D01*
X0032213Y0012887D02*
X0036550Y0008550D01*
X0043877Y0011803D02*
X0046045Y0011803D01*
D12*
X0017100Y0005100D02*
X0162726Y0005100D01*
X0106998Y0034750D02*
X0106998Y0039150D01*
X0101198Y0039150D01*
X0097998Y0040550D01*
X0088598Y0040550D01*
X0088598Y0033350D01*
X0097998Y0033350D01*
X0101398Y0034750D01*
X0106998Y0034750D01*
X0102646Y0034200D02*
X0102646Y0033280D01*
X0102646Y0028800D02*
X0102646Y0028180D01*
X0093197Y0028180D01*
X0093197Y0029400D01*
X0093197Y0032680D02*
X0093197Y0033000D01*
X0093197Y0040980D02*
X0093197Y0041300D01*
X0093197Y0044480D02*
X0093197Y0045700D01*
X0102646Y0045700D01*
X0102646Y0045080D01*
X0102646Y0040600D02*
X0102646Y0039680D01*
X0099513Y0054878D02*
X0099513Y0056753D01*
X0102639Y0056753D01*
X0099513Y0056753D02*
X0099513Y0058628D01*
X0097013Y0056753D01*
X0093888Y0056753D01*
X0097013Y0056753D02*
X0097013Y0054878D01*
X0097013Y0056753D02*
X0097013Y0058628D01*
X0097013Y0056753D02*
X0099513Y0054878D01*
X0102675Y0068237D02*
X0093227Y0068237D01*
X0093227Y0069457D01*
X0093227Y0072737D02*
X0093227Y0073057D01*
X0088628Y0073407D02*
X0088628Y0080607D01*
X0098028Y0080607D01*
X0101228Y0079207D01*
X0107028Y0079207D01*
X0107028Y0074807D01*
X0101428Y0074807D01*
X0098028Y0073407D01*
X0088628Y0073407D01*
X0093227Y0081037D02*
X0093227Y0081357D01*
X0093227Y0084537D02*
X0093227Y0085757D01*
X0102675Y0085757D01*
X0102675Y0085137D01*
X0102675Y0080657D02*
X0102675Y0079737D01*
X0102675Y0074257D02*
X0102675Y0073337D01*
X0102675Y0068857D02*
X0102675Y0068237D01*
X0099512Y0094877D02*
X0099512Y0096752D01*
X0102637Y0096752D01*
X0099512Y0096752D02*
X0099512Y0098627D01*
X0097012Y0096752D01*
X0093887Y0096752D01*
X0097012Y0096752D02*
X0097012Y0094877D01*
X0097012Y0096752D02*
X0097012Y0098627D01*
X0097012Y0096752D02*
X0099512Y0094877D01*
X0102647Y0108223D02*
X0093198Y0108223D01*
X0093198Y0109443D01*
X0093198Y0112723D02*
X0093198Y0113043D01*
X0088599Y0113393D02*
X0088599Y0120593D01*
X0097999Y0120593D01*
X0101199Y0119193D01*
X0106999Y0119193D01*
X0106999Y0114793D01*
X0101399Y0114793D01*
X0097999Y0113393D01*
X0088599Y0113393D01*
X0093198Y0121023D02*
X0093198Y0121343D01*
X0093198Y0124523D02*
X0093198Y0125743D01*
X0102647Y0125743D01*
X0102647Y0125123D01*
X0102647Y0120643D02*
X0102647Y0119723D01*
X0102647Y0114243D02*
X0102647Y0113323D01*
X0102647Y0108843D02*
X0102647Y0108223D01*
X0097208Y0134704D02*
X0097208Y0138107D01*
X0096074Y0138107D02*
X0098343Y0138107D01*
X0094752Y0138107D02*
X0092483Y0138107D01*
X0093617Y0138107D02*
X0093617Y0134704D01*
X0162726Y0186021D02*
X0017100Y0186021D01*
X0097017Y0018630D02*
X0097017Y0016755D01*
X0093892Y0016755D01*
X0097017Y0016755D02*
X0097017Y0014880D01*
X0097017Y0016755D02*
X0099517Y0018630D01*
X0099517Y0016755D01*
X0102642Y0016755D01*
X0099517Y0016755D02*
X0099517Y0014880D01*
X0097017Y0016755D01*
D13*
X0005100Y0016911D02*
X0005100Y0055000D01*
X0032600Y0055000D01*
X0045100Y0041100D01*
X0059100Y0041100D01*
X0072100Y0055100D01*
X0072100Y0136021D01*
X0059100Y0150021D01*
X0045100Y0150021D01*
X0032600Y0136121D01*
X0005100Y0136121D01*
X0005100Y0174250D01*
X0016911Y0186061D01*
X0089733Y0154454D02*
X0089733Y0135454D01*
X0089735Y0135356D01*
X0089741Y0135258D01*
X0089750Y0135160D01*
X0089764Y0135063D01*
X0089781Y0134966D01*
X0089802Y0134870D01*
X0089827Y0134775D01*
X0089855Y0134681D01*
X0089888Y0134589D01*
X0089923Y0134497D01*
X0089963Y0134407D01*
X0090005Y0134319D01*
X0090052Y0134232D01*
X0090101Y0134148D01*
X0090154Y0134065D01*
X0090210Y0133985D01*
X0090270Y0133906D01*
X0090332Y0133830D01*
X0090397Y0133757D01*
X0090465Y0133686D01*
X0090536Y0133618D01*
X0090609Y0133553D01*
X0090685Y0133491D01*
X0090764Y0133431D01*
X0090844Y0133375D01*
X0090927Y0133322D01*
X0091011Y0133273D01*
X0091098Y0133226D01*
X0091186Y0133184D01*
X0091276Y0133144D01*
X0091368Y0133109D01*
X0091460Y0133076D01*
X0091554Y0133048D01*
X0091649Y0133023D01*
X0091745Y0133002D01*
X0091842Y0132985D01*
X0091939Y0132971D01*
X0092037Y0132962D01*
X0092135Y0132956D01*
X0092233Y0132954D01*
X0125233Y0132954D01*
X0125525Y0132958D01*
X0125817Y0132968D01*
X0126109Y0132986D01*
X0126400Y0133011D01*
X0126691Y0133043D01*
X0126980Y0133082D01*
X0127269Y0133128D01*
X0127556Y0133181D01*
X0127842Y0133241D01*
X0128127Y0133308D01*
X0128409Y0133382D01*
X0128690Y0133463D01*
X0128969Y0133550D01*
X0129246Y0133645D01*
X0129520Y0133746D01*
X0129791Y0133854D01*
X0130060Y0133968D01*
X0130326Y0134089D01*
X0130590Y0134216D01*
X0130849Y0134349D01*
X0131106Y0134489D01*
X0131359Y0134636D01*
X0131609Y0134788D01*
X0131854Y0134946D01*
X0132096Y0135110D01*
X0132334Y0135280D01*
X0132567Y0135456D01*
X0132796Y0135637D01*
X0133021Y0135824D01*
X0133241Y0136017D01*
X0133456Y0136214D01*
X0133666Y0136417D01*
X0133872Y0136625D01*
X0134072Y0136838D01*
X0134267Y0137056D01*
X0134457Y0137278D01*
X0134641Y0137505D01*
X0134820Y0137736D01*
X0134992Y0137972D01*
X0135160Y0138211D01*
X0135321Y0138455D01*
X0135476Y0138703D01*
X0135625Y0138954D01*
X0135768Y0139209D01*
X0135905Y0139467D01*
X0136036Y0139729D01*
X0136160Y0139993D01*
X0136277Y0140261D01*
X0136388Y0140531D01*
X0136493Y0140804D01*
X0136590Y0141079D01*
X0136681Y0141357D01*
X0136765Y0141637D01*
X0136843Y0141919D01*
X0136913Y0142202D01*
X0136977Y0142488D01*
X0137033Y0142774D01*
X0137083Y0143062D01*
X0137126Y0143351D01*
X0137161Y0143642D01*
X0137189Y0143932D01*
X0137211Y0144224D01*
X0137225Y0144516D01*
X0137232Y0144808D01*
X0137232Y0145100D01*
X0137225Y0145392D01*
X0137211Y0145684D01*
X0137189Y0145976D01*
X0137161Y0146266D01*
X0137126Y0146557D01*
X0137083Y0146846D01*
X0137033Y0147134D01*
X0136977Y0147420D01*
X0136913Y0147706D01*
X0136843Y0147989D01*
X0136765Y0148271D01*
X0136681Y0148551D01*
X0136590Y0148829D01*
X0136493Y0149104D01*
X0136388Y0149377D01*
X0136277Y0149647D01*
X0136160Y0149915D01*
X0136036Y0150179D01*
X0135905Y0150441D01*
X0135768Y0150699D01*
X0135625Y0150954D01*
X0135476Y0151205D01*
X0135321Y0151453D01*
X0135160Y0151697D01*
X0134992Y0151936D01*
X0134820Y0152172D01*
X0134641Y0152403D01*
X0134457Y0152630D01*
X0134267Y0152852D01*
X0134072Y0153070D01*
X0133872Y0153283D01*
X0133666Y0153491D01*
X0133456Y0153694D01*
X0133241Y0153891D01*
X0133021Y0154084D01*
X0132796Y0154271D01*
X0132567Y0154452D01*
X0132334Y0154628D01*
X0132096Y0154798D01*
X0131854Y0154962D01*
X0131609Y0155120D01*
X0131359Y0155272D01*
X0131106Y0155419D01*
X0130849Y0155559D01*
X0130590Y0155692D01*
X0130326Y0155819D01*
X0130060Y0155940D01*
X0129791Y0156054D01*
X0129520Y0156162D01*
X0129246Y0156263D01*
X0128969Y0156358D01*
X0128690Y0156445D01*
X0128409Y0156526D01*
X0128127Y0156600D01*
X0127842Y0156667D01*
X0127556Y0156727D01*
X0127269Y0156780D01*
X0126980Y0156826D01*
X0126691Y0156865D01*
X0126400Y0156897D01*
X0126109Y0156922D01*
X0125817Y0156940D01*
X0125525Y0156950D01*
X0125233Y0156954D01*
X0092233Y0156954D01*
X0092135Y0156952D01*
X0092037Y0156946D01*
X0091939Y0156937D01*
X0091842Y0156923D01*
X0091745Y0156906D01*
X0091649Y0156885D01*
X0091554Y0156860D01*
X0091460Y0156832D01*
X0091368Y0156799D01*
X0091276Y0156764D01*
X0091186Y0156724D01*
X0091098Y0156682D01*
X0091011Y0156635D01*
X0090927Y0156586D01*
X0090844Y0156533D01*
X0090764Y0156477D01*
X0090685Y0156417D01*
X0090609Y0156355D01*
X0090536Y0156290D01*
X0090465Y0156222D01*
X0090397Y0156151D01*
X0090332Y0156078D01*
X0090270Y0156002D01*
X0090210Y0155923D01*
X0090154Y0155843D01*
X0090101Y0155760D01*
X0090052Y0155676D01*
X0090005Y0155589D01*
X0089963Y0155501D01*
X0089923Y0155411D01*
X0089888Y0155319D01*
X0089855Y0155227D01*
X0089827Y0155133D01*
X0089802Y0155038D01*
X0089781Y0154942D01*
X0089764Y0154845D01*
X0089750Y0154748D01*
X0089741Y0154650D01*
X0089735Y0154552D01*
X0089733Y0154454D01*
X0095233Y0149454D02*
X0095233Y0145954D01*
X0098733Y0145954D01*
X0098733Y0144654D01*
X0091733Y0144654D01*
X0091733Y0145954D01*
X0095233Y0145954D01*
X0095233Y0141954D02*
X0095233Y0139954D01*
X0098233Y0150454D02*
X0098233Y0153454D01*
X0096733Y0151954D02*
X0099733Y0151954D01*
X0145000Y0136200D02*
X0145000Y0123800D01*
X0145002Y0123724D01*
X0145008Y0123648D01*
X0145017Y0123573D01*
X0145031Y0123498D01*
X0145048Y0123424D01*
X0145069Y0123351D01*
X0145093Y0123279D01*
X0145122Y0123208D01*
X0145153Y0123139D01*
X0145188Y0123072D01*
X0145227Y0123007D01*
X0145269Y0122943D01*
X0145314Y0122882D01*
X0145362Y0122823D01*
X0145413Y0122767D01*
X0145467Y0122713D01*
X0145523Y0122662D01*
X0145582Y0122614D01*
X0145643Y0122569D01*
X0145707Y0122527D01*
X0145772Y0122488D01*
X0145839Y0122453D01*
X0145908Y0122422D01*
X0145979Y0122393D01*
X0146051Y0122369D01*
X0146124Y0122348D01*
X0146198Y0122331D01*
X0146273Y0122317D01*
X0146348Y0122308D01*
X0146424Y0122302D01*
X0146500Y0122300D01*
X0163500Y0122300D01*
X0163576Y0122302D01*
X0163652Y0122308D01*
X0163727Y0122317D01*
X0163802Y0122331D01*
X0163876Y0122348D01*
X0163949Y0122369D01*
X0164021Y0122393D01*
X0164092Y0122422D01*
X0164161Y0122453D01*
X0164228Y0122488D01*
X0164293Y0122527D01*
X0164357Y0122569D01*
X0164418Y0122614D01*
X0164477Y0122662D01*
X0164533Y0122713D01*
X0164587Y0122767D01*
X0164638Y0122823D01*
X0164686Y0122882D01*
X0164731Y0122943D01*
X0164773Y0123007D01*
X0164812Y0123072D01*
X0164847Y0123139D01*
X0164878Y0123208D01*
X0164907Y0123279D01*
X0164931Y0123351D01*
X0164952Y0123424D01*
X0164969Y0123498D01*
X0164983Y0123573D01*
X0164992Y0123648D01*
X0164998Y0123724D01*
X0165000Y0123800D01*
X0165000Y0136200D01*
X0164998Y0136276D01*
X0164992Y0136352D01*
X0164983Y0136427D01*
X0164969Y0136502D01*
X0164952Y0136576D01*
X0164931Y0136649D01*
X0164907Y0136721D01*
X0164878Y0136792D01*
X0164847Y0136861D01*
X0164812Y0136928D01*
X0164773Y0136993D01*
X0164731Y0137057D01*
X0164686Y0137118D01*
X0164638Y0137177D01*
X0164587Y0137233D01*
X0164533Y0137287D01*
X0164477Y0137338D01*
X0164418Y0137386D01*
X0164357Y0137431D01*
X0164293Y0137473D01*
X0164228Y0137512D01*
X0164161Y0137547D01*
X0164092Y0137578D01*
X0164021Y0137607D01*
X0163949Y0137631D01*
X0163876Y0137652D01*
X0163802Y0137669D01*
X0163727Y0137683D01*
X0163652Y0137692D01*
X0163576Y0137698D01*
X0163500Y0137700D01*
X0146500Y0137700D01*
X0146424Y0137698D01*
X0146348Y0137692D01*
X0146273Y0137683D01*
X0146198Y0137669D01*
X0146124Y0137652D01*
X0146051Y0137631D01*
X0145979Y0137607D01*
X0145908Y0137578D01*
X0145839Y0137547D01*
X0145772Y0137512D01*
X0145707Y0137473D01*
X0145643Y0137431D01*
X0145582Y0137386D01*
X0145523Y0137338D01*
X0145467Y0137287D01*
X0145413Y0137233D01*
X0145362Y0137177D01*
X0145314Y0137118D01*
X0145269Y0137057D01*
X0145227Y0136993D01*
X0145188Y0136928D01*
X0145153Y0136861D01*
X0145122Y0136792D01*
X0145093Y0136721D01*
X0145069Y0136649D01*
X0145048Y0136576D01*
X0145031Y0136502D01*
X0145017Y0136427D01*
X0145008Y0136352D01*
X0145002Y0136276D01*
X0145000Y0136200D01*
X0145000Y0132000D02*
X0145088Y0131998D01*
X0145177Y0131992D01*
X0145265Y0131982D01*
X0145352Y0131969D01*
X0145439Y0131951D01*
X0145525Y0131930D01*
X0145610Y0131905D01*
X0145693Y0131876D01*
X0145776Y0131843D01*
X0145856Y0131807D01*
X0145935Y0131768D01*
X0146013Y0131725D01*
X0146088Y0131678D01*
X0146161Y0131628D01*
X0146232Y0131575D01*
X0146301Y0131519D01*
X0146367Y0131460D01*
X0146430Y0131398D01*
X0146490Y0131334D01*
X0146548Y0131267D01*
X0146602Y0131197D01*
X0146654Y0131125D01*
X0146702Y0131051D01*
X0146747Y0130974D01*
X0146788Y0130896D01*
X0146826Y0130816D01*
X0146860Y0130735D01*
X0146891Y0130652D01*
X0146918Y0130567D01*
X0146941Y0130482D01*
X0146960Y0130396D01*
X0146976Y0130308D01*
X0146988Y0130221D01*
X0146996Y0130133D01*
X0147000Y0130044D01*
X0147000Y0129956D01*
X0146996Y0129867D01*
X0146988Y0129779D01*
X0146976Y0129692D01*
X0146960Y0129604D01*
X0146941Y0129518D01*
X0146918Y0129433D01*
X0146891Y0129348D01*
X0146860Y0129265D01*
X0146826Y0129184D01*
X0146788Y0129104D01*
X0146747Y0129026D01*
X0146702Y0128949D01*
X0146654Y0128875D01*
X0146602Y0128803D01*
X0146548Y0128733D01*
X0146490Y0128666D01*
X0146430Y0128602D01*
X0146367Y0128540D01*
X0146301Y0128481D01*
X0146232Y0128425D01*
X0146161Y0128372D01*
X0146088Y0128322D01*
X0146013Y0128275D01*
X0145935Y0128232D01*
X0145856Y0128193D01*
X0145776Y0128157D01*
X0145693Y0128124D01*
X0145610Y0128095D01*
X0145525Y0128070D01*
X0145439Y0128049D01*
X0145352Y0128031D01*
X0145265Y0128018D01*
X0145177Y0128008D01*
X0145088Y0128002D01*
X0145000Y0128000D01*
X0174391Y0174250D02*
X0162580Y0186061D01*
X0174391Y0174250D02*
X0174391Y0016911D01*
X0162580Y0005100D01*
X0016911Y0005100D02*
X0005100Y0016911D01*
D14*
X0095233Y0142604D03*
D15*
X0114614Y0127252D02*
X0114614Y0124299D01*
X0114614Y0127252D02*
X0118748Y0127252D01*
X0118748Y0131386D01*
X0141386Y0131386D01*
X0141386Y0124299D01*
X0141386Y0111701D02*
X0141386Y0104614D01*
X0114614Y0104614D01*
X0114614Y0111504D01*
X0128000Y0130303D02*
X0128300Y0130299D01*
X0128599Y0130287D01*
X0128898Y0130268D01*
X0129196Y0130242D01*
X0129494Y0130209D01*
X0129791Y0130168D01*
X0130086Y0130121D01*
X0130380Y0130066D01*
X0130673Y0130004D01*
X0130965Y0129934D01*
X0131254Y0129858D01*
X0131542Y0129775D01*
X0131828Y0129685D01*
X0132111Y0129587D01*
X0132392Y0129483D01*
X0132670Y0129372D01*
X0132945Y0129255D01*
X0133218Y0129131D01*
X0133487Y0129000D01*
X0133753Y0128862D01*
X0134016Y0128719D01*
X0134275Y0128568D01*
X0134530Y0128412D01*
X0134782Y0128249D01*
X0135029Y0128081D01*
X0135272Y0127906D01*
X0135511Y0127726D01*
X0135746Y0127539D01*
X0135975Y0127347D01*
X0136201Y0127150D01*
X0136421Y0126947D01*
X0136636Y0126739D01*
X0136846Y0126525D01*
X0137051Y0126307D01*
X0137251Y0126084D01*
X0137445Y0125856D01*
X0137633Y0125623D01*
X0137816Y0125386D01*
X0137992Y0125144D01*
X0138163Y0124898D01*
X0138328Y0124648D01*
X0138487Y0124394D01*
X0138639Y0124136D01*
X0138786Y0123875D01*
X0138925Y0123610D01*
X0139122Y0112685D02*
X0138988Y0112415D01*
X0138848Y0112148D01*
X0138702Y0111885D01*
X0138549Y0111626D01*
X0138390Y0111370D01*
X0138224Y0111118D01*
X0138053Y0110871D01*
X0137875Y0110627D01*
X0137692Y0110388D01*
X0137503Y0110154D01*
X0137308Y0109924D01*
X0137107Y0109700D01*
X0136901Y0109480D01*
X0136690Y0109265D01*
X0136474Y0109056D01*
X0136252Y0108852D01*
X0136026Y0108653D01*
X0135794Y0108460D01*
X0135559Y0108273D01*
X0135318Y0108091D01*
X0135073Y0107916D01*
X0134824Y0107746D01*
X0134571Y0107583D01*
X0134314Y0107426D01*
X0134054Y0107275D01*
X0133789Y0107130D01*
X0133521Y0106993D01*
X0133250Y0106861D01*
X0132976Y0106737D01*
X0132699Y0106619D01*
X0132419Y0106508D01*
X0132136Y0106404D01*
X0131851Y0106307D01*
X0131564Y0106217D01*
X0131274Y0106134D01*
X0130983Y0106058D01*
X0130690Y0105989D01*
X0130395Y0105927D01*
X0130098Y0105873D01*
X0129801Y0105826D01*
X0129502Y0105786D01*
X0129203Y0105753D01*
X0128903Y0105728D01*
X0128602Y0105710D01*
X0128301Y0105700D01*
X0128000Y0105697D01*
X0120126Y0118000D02*
X0120128Y0118193D01*
X0120135Y0118386D01*
X0120147Y0118579D01*
X0120164Y0118772D01*
X0120185Y0118964D01*
X0120211Y0119155D01*
X0120242Y0119346D01*
X0120277Y0119536D01*
X0120317Y0119725D01*
X0120362Y0119913D01*
X0120411Y0120100D01*
X0120465Y0120286D01*
X0120523Y0120470D01*
X0120586Y0120653D01*
X0120654Y0120834D01*
X0120725Y0121013D01*
X0120802Y0121191D01*
X0120882Y0121367D01*
X0120967Y0121540D01*
X0121056Y0121712D01*
X0121149Y0121881D01*
X0121246Y0122048D01*
X0121348Y0122213D01*
X0121453Y0122375D01*
X0121562Y0122534D01*
X0121676Y0122691D01*
X0121793Y0122844D01*
X0121913Y0122995D01*
X0122038Y0123143D01*
X0122166Y0123288D01*
X0122297Y0123429D01*
X0122432Y0123568D01*
X0122571Y0123703D01*
X0122712Y0123834D01*
X0122857Y0123962D01*
X0123005Y0124087D01*
X0123156Y0124207D01*
X0123309Y0124324D01*
X0123466Y0124438D01*
X0123625Y0124547D01*
X0123787Y0124652D01*
X0123952Y0124754D01*
X0124119Y0124851D01*
X0124288Y0124944D01*
X0124460Y0125033D01*
X0124633Y0125118D01*
X0124809Y0125198D01*
X0124987Y0125275D01*
X0125166Y0125346D01*
X0125347Y0125414D01*
X0125530Y0125477D01*
X0125714Y0125535D01*
X0125900Y0125589D01*
X0126087Y0125638D01*
X0126275Y0125683D01*
X0126464Y0125723D01*
X0126654Y0125758D01*
X0126845Y0125789D01*
X0127036Y0125815D01*
X0127228Y0125836D01*
X0127421Y0125853D01*
X0127614Y0125865D01*
X0127807Y0125872D01*
X0128000Y0125874D01*
X0128193Y0125872D01*
X0128386Y0125865D01*
X0128579Y0125853D01*
X0128772Y0125836D01*
X0128964Y0125815D01*
X0129155Y0125789D01*
X0129346Y0125758D01*
X0129536Y0125723D01*
X0129725Y0125683D01*
X0129913Y0125638D01*
X0130100Y0125589D01*
X0130286Y0125535D01*
X0130470Y0125477D01*
X0130653Y0125414D01*
X0130834Y0125346D01*
X0131013Y0125275D01*
X0131191Y0125198D01*
X0131367Y0125118D01*
X0131540Y0125033D01*
X0131712Y0124944D01*
X0131881Y0124851D01*
X0132048Y0124754D01*
X0132213Y0124652D01*
X0132375Y0124547D01*
X0132534Y0124438D01*
X0132691Y0124324D01*
X0132844Y0124207D01*
X0132995Y0124087D01*
X0133143Y0123962D01*
X0133288Y0123834D01*
X0133429Y0123703D01*
X0133568Y0123568D01*
X0133703Y0123429D01*
X0133834Y0123288D01*
X0133962Y0123143D01*
X0134087Y0122995D01*
X0134207Y0122844D01*
X0134324Y0122691D01*
X0134438Y0122534D01*
X0134547Y0122375D01*
X0134652Y0122213D01*
X0134754Y0122048D01*
X0134851Y0121881D01*
X0134944Y0121712D01*
X0135033Y0121540D01*
X0135118Y0121367D01*
X0135198Y0121191D01*
X0135275Y0121013D01*
X0135346Y0120834D01*
X0135414Y0120653D01*
X0135477Y0120470D01*
X0135535Y0120286D01*
X0135589Y0120100D01*
X0135638Y0119913D01*
X0135683Y0119725D01*
X0135723Y0119536D01*
X0135758Y0119346D01*
X0135789Y0119155D01*
X0135815Y0118964D01*
X0135836Y0118772D01*
X0135853Y0118579D01*
X0135865Y0118386D01*
X0135872Y0118193D01*
X0135874Y0118000D01*
X0135872Y0117807D01*
X0135865Y0117614D01*
X0135853Y0117421D01*
X0135836Y0117228D01*
X0135815Y0117036D01*
X0135789Y0116845D01*
X0135758Y0116654D01*
X0135723Y0116464D01*
X0135683Y0116275D01*
X0135638Y0116087D01*
X0135589Y0115900D01*
X0135535Y0115714D01*
X0135477Y0115530D01*
X0135414Y0115347D01*
X0135346Y0115166D01*
X0135275Y0114987D01*
X0135198Y0114809D01*
X0135118Y0114633D01*
X0135033Y0114460D01*
X0134944Y0114288D01*
X0134851Y0114119D01*
X0134754Y0113952D01*
X0134652Y0113787D01*
X0134547Y0113625D01*
X0134438Y0113466D01*
X0134324Y0113309D01*
X0134207Y0113156D01*
X0134087Y0113005D01*
X0133962Y0112857D01*
X0133834Y0112712D01*
X0133703Y0112571D01*
X0133568Y0112432D01*
X0133429Y0112297D01*
X0133288Y0112166D01*
X0133143Y0112038D01*
X0132995Y0111913D01*
X0132844Y0111793D01*
X0132691Y0111676D01*
X0132534Y0111562D01*
X0132375Y0111453D01*
X0132213Y0111348D01*
X0132048Y0111246D01*
X0131881Y0111149D01*
X0131712Y0111056D01*
X0131540Y0110967D01*
X0131367Y0110882D01*
X0131191Y0110802D01*
X0131013Y0110725D01*
X0130834Y0110654D01*
X0130653Y0110586D01*
X0130470Y0110523D01*
X0130286Y0110465D01*
X0130100Y0110411D01*
X0129913Y0110362D01*
X0129725Y0110317D01*
X0129536Y0110277D01*
X0129346Y0110242D01*
X0129155Y0110211D01*
X0128964Y0110185D01*
X0128772Y0110164D01*
X0128579Y0110147D01*
X0128386Y0110135D01*
X0128193Y0110128D01*
X0128000Y0110126D01*
X0127807Y0110128D01*
X0127614Y0110135D01*
X0127421Y0110147D01*
X0127228Y0110164D01*
X0127036Y0110185D01*
X0126845Y0110211D01*
X0126654Y0110242D01*
X0126464Y0110277D01*
X0126275Y0110317D01*
X0126087Y0110362D01*
X0125900Y0110411D01*
X0125714Y0110465D01*
X0125530Y0110523D01*
X0125347Y0110586D01*
X0125166Y0110654D01*
X0124987Y0110725D01*
X0124809Y0110802D01*
X0124633Y0110882D01*
X0124460Y0110967D01*
X0124288Y0111056D01*
X0124119Y0111149D01*
X0123952Y0111246D01*
X0123787Y0111348D01*
X0123625Y0111453D01*
X0123466Y0111562D01*
X0123309Y0111676D01*
X0123156Y0111793D01*
X0123005Y0111913D01*
X0122857Y0112038D01*
X0122712Y0112166D01*
X0122571Y0112297D01*
X0122432Y0112432D01*
X0122297Y0112571D01*
X0122166Y0112712D01*
X0122038Y0112857D01*
X0121913Y0113005D01*
X0121793Y0113156D01*
X0121676Y0113309D01*
X0121562Y0113466D01*
X0121453Y0113625D01*
X0121348Y0113787D01*
X0121246Y0113952D01*
X0121149Y0114119D01*
X0121056Y0114288D01*
X0120967Y0114460D01*
X0120882Y0114633D01*
X0120802Y0114809D01*
X0120725Y0114987D01*
X0120654Y0115166D01*
X0120586Y0115347D01*
X0120523Y0115530D01*
X0120465Y0115714D01*
X0120411Y0115900D01*
X0120362Y0116087D01*
X0120317Y0116275D01*
X0120277Y0116464D01*
X0120242Y0116654D01*
X0120211Y0116845D01*
X0120185Y0117036D01*
X0120164Y0117228D01*
X0120147Y0117421D01*
X0120135Y0117614D01*
X0120128Y0117807D01*
X0120126Y0118000D01*
X0117075Y0123610D02*
X0117214Y0123875D01*
X0117361Y0124136D01*
X0117513Y0124394D01*
X0117672Y0124648D01*
X0117837Y0124898D01*
X0118008Y0125144D01*
X0118184Y0125386D01*
X0118367Y0125623D01*
X0118555Y0125856D01*
X0118749Y0126084D01*
X0118949Y0126307D01*
X0119154Y0126525D01*
X0119364Y0126739D01*
X0119579Y0126947D01*
X0119799Y0127150D01*
X0120025Y0127347D01*
X0120254Y0127539D01*
X0120489Y0127726D01*
X0120728Y0127906D01*
X0120971Y0128081D01*
X0121218Y0128249D01*
X0121470Y0128412D01*
X0121725Y0128568D01*
X0121984Y0128719D01*
X0122247Y0128862D01*
X0122513Y0129000D01*
X0122782Y0129131D01*
X0123055Y0129255D01*
X0123330Y0129372D01*
X0123608Y0129483D01*
X0123889Y0129587D01*
X0124172Y0129685D01*
X0124458Y0129775D01*
X0124746Y0129858D01*
X0125035Y0129934D01*
X0125327Y0130004D01*
X0125620Y0130066D01*
X0125914Y0130121D01*
X0126209Y0130168D01*
X0126506Y0130209D01*
X0126804Y0130242D01*
X0127102Y0130268D01*
X0127401Y0130287D01*
X0127700Y0130299D01*
X0128000Y0130303D01*
X0117075Y0112390D02*
X0117214Y0112125D01*
X0117361Y0111864D01*
X0117513Y0111606D01*
X0117672Y0111352D01*
X0117837Y0111102D01*
X0118008Y0110856D01*
X0118184Y0110614D01*
X0118367Y0110377D01*
X0118555Y0110144D01*
X0118749Y0109916D01*
X0118949Y0109693D01*
X0119154Y0109475D01*
X0119364Y0109261D01*
X0119579Y0109053D01*
X0119799Y0108850D01*
X0120025Y0108653D01*
X0120254Y0108461D01*
X0120489Y0108274D01*
X0120728Y0108094D01*
X0120971Y0107919D01*
X0121218Y0107751D01*
X0121470Y0107588D01*
X0121725Y0107432D01*
X0121984Y0107281D01*
X0122247Y0107138D01*
X0122513Y0107000D01*
X0122782Y0106869D01*
X0123055Y0106745D01*
X0123330Y0106628D01*
X0123608Y0106517D01*
X0123889Y0106413D01*
X0124172Y0106315D01*
X0124458Y0106225D01*
X0124746Y0106142D01*
X0125035Y0106066D01*
X0125327Y0105996D01*
X0125620Y0105934D01*
X0125914Y0105879D01*
X0126209Y0105832D01*
X0126506Y0105791D01*
X0126804Y0105758D01*
X0127102Y0105732D01*
X0127401Y0105713D01*
X0127700Y0105701D01*
X0128000Y0105697D01*
X0118758Y0091396D02*
X0118758Y0087262D01*
X0114624Y0087262D01*
X0114624Y0084309D01*
X0118758Y0091396D02*
X0141396Y0091396D01*
X0141396Y0084309D01*
X0141396Y0071711D02*
X0141396Y0064624D01*
X0114624Y0064624D01*
X0114624Y0071514D01*
X0128010Y0090313D02*
X0128310Y0090309D01*
X0128609Y0090297D01*
X0128908Y0090278D01*
X0129206Y0090252D01*
X0129504Y0090219D01*
X0129801Y0090178D01*
X0130096Y0090131D01*
X0130390Y0090076D01*
X0130683Y0090014D01*
X0130975Y0089944D01*
X0131264Y0089868D01*
X0131552Y0089785D01*
X0131838Y0089695D01*
X0132121Y0089597D01*
X0132402Y0089493D01*
X0132680Y0089382D01*
X0132955Y0089265D01*
X0133228Y0089141D01*
X0133497Y0089010D01*
X0133763Y0088872D01*
X0134026Y0088729D01*
X0134285Y0088578D01*
X0134540Y0088422D01*
X0134792Y0088259D01*
X0135039Y0088091D01*
X0135282Y0087916D01*
X0135521Y0087736D01*
X0135756Y0087549D01*
X0135985Y0087357D01*
X0136211Y0087160D01*
X0136431Y0086957D01*
X0136646Y0086749D01*
X0136856Y0086535D01*
X0137061Y0086317D01*
X0137261Y0086094D01*
X0137455Y0085866D01*
X0137643Y0085633D01*
X0137826Y0085396D01*
X0138002Y0085154D01*
X0138173Y0084908D01*
X0138338Y0084658D01*
X0138497Y0084404D01*
X0138649Y0084146D01*
X0138796Y0083885D01*
X0138935Y0083620D01*
X0139132Y0072695D02*
X0138998Y0072425D01*
X0138858Y0072158D01*
X0138712Y0071895D01*
X0138559Y0071636D01*
X0138400Y0071380D01*
X0138234Y0071128D01*
X0138063Y0070881D01*
X0137885Y0070637D01*
X0137702Y0070398D01*
X0137513Y0070164D01*
X0137318Y0069934D01*
X0137117Y0069710D01*
X0136911Y0069490D01*
X0136700Y0069275D01*
X0136484Y0069066D01*
X0136262Y0068862D01*
X0136036Y0068663D01*
X0135804Y0068470D01*
X0135569Y0068283D01*
X0135328Y0068101D01*
X0135083Y0067926D01*
X0134834Y0067756D01*
X0134581Y0067593D01*
X0134324Y0067436D01*
X0134064Y0067285D01*
X0133799Y0067140D01*
X0133531Y0067003D01*
X0133260Y0066871D01*
X0132986Y0066747D01*
X0132709Y0066629D01*
X0132429Y0066518D01*
X0132146Y0066414D01*
X0131861Y0066317D01*
X0131574Y0066227D01*
X0131284Y0066144D01*
X0130993Y0066068D01*
X0130700Y0065999D01*
X0130405Y0065937D01*
X0130108Y0065883D01*
X0129811Y0065836D01*
X0129512Y0065796D01*
X0129213Y0065763D01*
X0128913Y0065738D01*
X0128612Y0065720D01*
X0128311Y0065710D01*
X0128010Y0065707D01*
X0120136Y0078010D02*
X0120138Y0078203D01*
X0120145Y0078396D01*
X0120157Y0078589D01*
X0120174Y0078782D01*
X0120195Y0078974D01*
X0120221Y0079165D01*
X0120252Y0079356D01*
X0120287Y0079546D01*
X0120327Y0079735D01*
X0120372Y0079923D01*
X0120421Y0080110D01*
X0120475Y0080296D01*
X0120533Y0080480D01*
X0120596Y0080663D01*
X0120664Y0080844D01*
X0120735Y0081023D01*
X0120812Y0081201D01*
X0120892Y0081377D01*
X0120977Y0081550D01*
X0121066Y0081722D01*
X0121159Y0081891D01*
X0121256Y0082058D01*
X0121358Y0082223D01*
X0121463Y0082385D01*
X0121572Y0082544D01*
X0121686Y0082701D01*
X0121803Y0082854D01*
X0121923Y0083005D01*
X0122048Y0083153D01*
X0122176Y0083298D01*
X0122307Y0083439D01*
X0122442Y0083578D01*
X0122581Y0083713D01*
X0122722Y0083844D01*
X0122867Y0083972D01*
X0123015Y0084097D01*
X0123166Y0084217D01*
X0123319Y0084334D01*
X0123476Y0084448D01*
X0123635Y0084557D01*
X0123797Y0084662D01*
X0123962Y0084764D01*
X0124129Y0084861D01*
X0124298Y0084954D01*
X0124470Y0085043D01*
X0124643Y0085128D01*
X0124819Y0085208D01*
X0124997Y0085285D01*
X0125176Y0085356D01*
X0125357Y0085424D01*
X0125540Y0085487D01*
X0125724Y0085545D01*
X0125910Y0085599D01*
X0126097Y0085648D01*
X0126285Y0085693D01*
X0126474Y0085733D01*
X0126664Y0085768D01*
X0126855Y0085799D01*
X0127046Y0085825D01*
X0127238Y0085846D01*
X0127431Y0085863D01*
X0127624Y0085875D01*
X0127817Y0085882D01*
X0128010Y0085884D01*
X0128203Y0085882D01*
X0128396Y0085875D01*
X0128589Y0085863D01*
X0128782Y0085846D01*
X0128974Y0085825D01*
X0129165Y0085799D01*
X0129356Y0085768D01*
X0129546Y0085733D01*
X0129735Y0085693D01*
X0129923Y0085648D01*
X0130110Y0085599D01*
X0130296Y0085545D01*
X0130480Y0085487D01*
X0130663Y0085424D01*
X0130844Y0085356D01*
X0131023Y0085285D01*
X0131201Y0085208D01*
X0131377Y0085128D01*
X0131550Y0085043D01*
X0131722Y0084954D01*
X0131891Y0084861D01*
X0132058Y0084764D01*
X0132223Y0084662D01*
X0132385Y0084557D01*
X0132544Y0084448D01*
X0132701Y0084334D01*
X0132854Y0084217D01*
X0133005Y0084097D01*
X0133153Y0083972D01*
X0133298Y0083844D01*
X0133439Y0083713D01*
X0133578Y0083578D01*
X0133713Y0083439D01*
X0133844Y0083298D01*
X0133972Y0083153D01*
X0134097Y0083005D01*
X0134217Y0082854D01*
X0134334Y0082701D01*
X0134448Y0082544D01*
X0134557Y0082385D01*
X0134662Y0082223D01*
X0134764Y0082058D01*
X0134861Y0081891D01*
X0134954Y0081722D01*
X0135043Y0081550D01*
X0135128Y0081377D01*
X0135208Y0081201D01*
X0135285Y0081023D01*
X0135356Y0080844D01*
X0135424Y0080663D01*
X0135487Y0080480D01*
X0135545Y0080296D01*
X0135599Y0080110D01*
X0135648Y0079923D01*
X0135693Y0079735D01*
X0135733Y0079546D01*
X0135768Y0079356D01*
X0135799Y0079165D01*
X0135825Y0078974D01*
X0135846Y0078782D01*
X0135863Y0078589D01*
X0135875Y0078396D01*
X0135882Y0078203D01*
X0135884Y0078010D01*
X0135882Y0077817D01*
X0135875Y0077624D01*
X0135863Y0077431D01*
X0135846Y0077238D01*
X0135825Y0077046D01*
X0135799Y0076855D01*
X0135768Y0076664D01*
X0135733Y0076474D01*
X0135693Y0076285D01*
X0135648Y0076097D01*
X0135599Y0075910D01*
X0135545Y0075724D01*
X0135487Y0075540D01*
X0135424Y0075357D01*
X0135356Y0075176D01*
X0135285Y0074997D01*
X0135208Y0074819D01*
X0135128Y0074643D01*
X0135043Y0074470D01*
X0134954Y0074298D01*
X0134861Y0074129D01*
X0134764Y0073962D01*
X0134662Y0073797D01*
X0134557Y0073635D01*
X0134448Y0073476D01*
X0134334Y0073319D01*
X0134217Y0073166D01*
X0134097Y0073015D01*
X0133972Y0072867D01*
X0133844Y0072722D01*
X0133713Y0072581D01*
X0133578Y0072442D01*
X0133439Y0072307D01*
X0133298Y0072176D01*
X0133153Y0072048D01*
X0133005Y0071923D01*
X0132854Y0071803D01*
X0132701Y0071686D01*
X0132544Y0071572D01*
X0132385Y0071463D01*
X0132223Y0071358D01*
X0132058Y0071256D01*
X0131891Y0071159D01*
X0131722Y0071066D01*
X0131550Y0070977D01*
X0131377Y0070892D01*
X0131201Y0070812D01*
X0131023Y0070735D01*
X0130844Y0070664D01*
X0130663Y0070596D01*
X0130480Y0070533D01*
X0130296Y0070475D01*
X0130110Y0070421D01*
X0129923Y0070372D01*
X0129735Y0070327D01*
X0129546Y0070287D01*
X0129356Y0070252D01*
X0129165Y0070221D01*
X0128974Y0070195D01*
X0128782Y0070174D01*
X0128589Y0070157D01*
X0128396Y0070145D01*
X0128203Y0070138D01*
X0128010Y0070136D01*
X0127817Y0070138D01*
X0127624Y0070145D01*
X0127431Y0070157D01*
X0127238Y0070174D01*
X0127046Y0070195D01*
X0126855Y0070221D01*
X0126664Y0070252D01*
X0126474Y0070287D01*
X0126285Y0070327D01*
X0126097Y0070372D01*
X0125910Y0070421D01*
X0125724Y0070475D01*
X0125540Y0070533D01*
X0125357Y0070596D01*
X0125176Y0070664D01*
X0124997Y0070735D01*
X0124819Y0070812D01*
X0124643Y0070892D01*
X0124470Y0070977D01*
X0124298Y0071066D01*
X0124129Y0071159D01*
X0123962Y0071256D01*
X0123797Y0071358D01*
X0123635Y0071463D01*
X0123476Y0071572D01*
X0123319Y0071686D01*
X0123166Y0071803D01*
X0123015Y0071923D01*
X0122867Y0072048D01*
X0122722Y0072176D01*
X0122581Y0072307D01*
X0122442Y0072442D01*
X0122307Y0072581D01*
X0122176Y0072722D01*
X0122048Y0072867D01*
X0121923Y0073015D01*
X0121803Y0073166D01*
X0121686Y0073319D01*
X0121572Y0073476D01*
X0121463Y0073635D01*
X0121358Y0073797D01*
X0121256Y0073962D01*
X0121159Y0074129D01*
X0121066Y0074298D01*
X0120977Y0074470D01*
X0120892Y0074643D01*
X0120812Y0074819D01*
X0120735Y0074997D01*
X0120664Y0075176D01*
X0120596Y0075357D01*
X0120533Y0075540D01*
X0120475Y0075724D01*
X0120421Y0075910D01*
X0120372Y0076097D01*
X0120327Y0076285D01*
X0120287Y0076474D01*
X0120252Y0076664D01*
X0120221Y0076855D01*
X0120195Y0077046D01*
X0120174Y0077238D01*
X0120157Y0077431D01*
X0120145Y0077624D01*
X0120138Y0077817D01*
X0120136Y0078010D01*
X0117085Y0083620D02*
X0117224Y0083885D01*
X0117371Y0084146D01*
X0117523Y0084404D01*
X0117682Y0084658D01*
X0117847Y0084908D01*
X0118018Y0085154D01*
X0118194Y0085396D01*
X0118377Y0085633D01*
X0118565Y0085866D01*
X0118759Y0086094D01*
X0118959Y0086317D01*
X0119164Y0086535D01*
X0119374Y0086749D01*
X0119589Y0086957D01*
X0119809Y0087160D01*
X0120035Y0087357D01*
X0120264Y0087549D01*
X0120499Y0087736D01*
X0120738Y0087916D01*
X0120981Y0088091D01*
X0121228Y0088259D01*
X0121480Y0088422D01*
X0121735Y0088578D01*
X0121994Y0088729D01*
X0122257Y0088872D01*
X0122523Y0089010D01*
X0122792Y0089141D01*
X0123065Y0089265D01*
X0123340Y0089382D01*
X0123618Y0089493D01*
X0123899Y0089597D01*
X0124182Y0089695D01*
X0124468Y0089785D01*
X0124756Y0089868D01*
X0125045Y0089944D01*
X0125337Y0090014D01*
X0125630Y0090076D01*
X0125924Y0090131D01*
X0126219Y0090178D01*
X0126516Y0090219D01*
X0126814Y0090252D01*
X0127112Y0090278D01*
X0127411Y0090297D01*
X0127710Y0090309D01*
X0128010Y0090313D01*
X0117085Y0072400D02*
X0117224Y0072135D01*
X0117371Y0071874D01*
X0117523Y0071616D01*
X0117682Y0071362D01*
X0117847Y0071112D01*
X0118018Y0070866D01*
X0118194Y0070624D01*
X0118377Y0070387D01*
X0118565Y0070154D01*
X0118759Y0069926D01*
X0118959Y0069703D01*
X0119164Y0069485D01*
X0119374Y0069271D01*
X0119589Y0069063D01*
X0119809Y0068860D01*
X0120035Y0068663D01*
X0120264Y0068471D01*
X0120499Y0068284D01*
X0120738Y0068104D01*
X0120981Y0067929D01*
X0121228Y0067761D01*
X0121480Y0067598D01*
X0121735Y0067442D01*
X0121994Y0067291D01*
X0122257Y0067148D01*
X0122523Y0067010D01*
X0122792Y0066879D01*
X0123065Y0066755D01*
X0123340Y0066638D01*
X0123618Y0066527D01*
X0123899Y0066423D01*
X0124182Y0066325D01*
X0124468Y0066235D01*
X0124756Y0066152D01*
X0125045Y0066076D01*
X0125337Y0066006D01*
X0125630Y0065944D01*
X0125924Y0065889D01*
X0126219Y0065842D01*
X0126516Y0065801D01*
X0126814Y0065768D01*
X0127112Y0065742D01*
X0127411Y0065723D01*
X0127710Y0065711D01*
X0128010Y0065707D01*
X0118768Y0051406D02*
X0118768Y0047272D01*
X0114634Y0047272D01*
X0114634Y0044319D01*
X0118768Y0051406D02*
X0141406Y0051406D01*
X0141406Y0044319D01*
X0141406Y0031721D02*
X0141406Y0024634D01*
X0114634Y0024634D01*
X0114634Y0031524D01*
X0128020Y0050323D02*
X0128320Y0050319D01*
X0128619Y0050307D01*
X0128918Y0050288D01*
X0129216Y0050262D01*
X0129514Y0050229D01*
X0129811Y0050188D01*
X0130106Y0050141D01*
X0130400Y0050086D01*
X0130693Y0050024D01*
X0130985Y0049954D01*
X0131274Y0049878D01*
X0131562Y0049795D01*
X0131848Y0049705D01*
X0132131Y0049607D01*
X0132412Y0049503D01*
X0132690Y0049392D01*
X0132965Y0049275D01*
X0133238Y0049151D01*
X0133507Y0049020D01*
X0133773Y0048882D01*
X0134036Y0048739D01*
X0134295Y0048588D01*
X0134550Y0048432D01*
X0134802Y0048269D01*
X0135049Y0048101D01*
X0135292Y0047926D01*
X0135531Y0047746D01*
X0135766Y0047559D01*
X0135995Y0047367D01*
X0136221Y0047170D01*
X0136441Y0046967D01*
X0136656Y0046759D01*
X0136866Y0046545D01*
X0137071Y0046327D01*
X0137271Y0046104D01*
X0137465Y0045876D01*
X0137653Y0045643D01*
X0137836Y0045406D01*
X0138012Y0045164D01*
X0138183Y0044918D01*
X0138348Y0044668D01*
X0138507Y0044414D01*
X0138659Y0044156D01*
X0138806Y0043895D01*
X0138945Y0043630D01*
X0139142Y0032705D02*
X0139008Y0032435D01*
X0138868Y0032168D01*
X0138722Y0031905D01*
X0138569Y0031646D01*
X0138410Y0031390D01*
X0138244Y0031138D01*
X0138073Y0030891D01*
X0137895Y0030647D01*
X0137712Y0030408D01*
X0137523Y0030174D01*
X0137328Y0029944D01*
X0137127Y0029720D01*
X0136921Y0029500D01*
X0136710Y0029285D01*
X0136494Y0029076D01*
X0136272Y0028872D01*
X0136046Y0028673D01*
X0135814Y0028480D01*
X0135579Y0028293D01*
X0135338Y0028111D01*
X0135093Y0027936D01*
X0134844Y0027766D01*
X0134591Y0027603D01*
X0134334Y0027446D01*
X0134074Y0027295D01*
X0133809Y0027150D01*
X0133541Y0027013D01*
X0133270Y0026881D01*
X0132996Y0026757D01*
X0132719Y0026639D01*
X0132439Y0026528D01*
X0132156Y0026424D01*
X0131871Y0026327D01*
X0131584Y0026237D01*
X0131294Y0026154D01*
X0131003Y0026078D01*
X0130710Y0026009D01*
X0130415Y0025947D01*
X0130118Y0025893D01*
X0129821Y0025846D01*
X0129522Y0025806D01*
X0129223Y0025773D01*
X0128923Y0025748D01*
X0128622Y0025730D01*
X0128321Y0025720D01*
X0128020Y0025717D01*
X0120146Y0038020D02*
X0120148Y0038213D01*
X0120155Y0038406D01*
X0120167Y0038599D01*
X0120184Y0038792D01*
X0120205Y0038984D01*
X0120231Y0039175D01*
X0120262Y0039366D01*
X0120297Y0039556D01*
X0120337Y0039745D01*
X0120382Y0039933D01*
X0120431Y0040120D01*
X0120485Y0040306D01*
X0120543Y0040490D01*
X0120606Y0040673D01*
X0120674Y0040854D01*
X0120745Y0041033D01*
X0120822Y0041211D01*
X0120902Y0041387D01*
X0120987Y0041560D01*
X0121076Y0041732D01*
X0121169Y0041901D01*
X0121266Y0042068D01*
X0121368Y0042233D01*
X0121473Y0042395D01*
X0121582Y0042554D01*
X0121696Y0042711D01*
X0121813Y0042864D01*
X0121933Y0043015D01*
X0122058Y0043163D01*
X0122186Y0043308D01*
X0122317Y0043449D01*
X0122452Y0043588D01*
X0122591Y0043723D01*
X0122732Y0043854D01*
X0122877Y0043982D01*
X0123025Y0044107D01*
X0123176Y0044227D01*
X0123329Y0044344D01*
X0123486Y0044458D01*
X0123645Y0044567D01*
X0123807Y0044672D01*
X0123972Y0044774D01*
X0124139Y0044871D01*
X0124308Y0044964D01*
X0124480Y0045053D01*
X0124653Y0045138D01*
X0124829Y0045218D01*
X0125007Y0045295D01*
X0125186Y0045366D01*
X0125367Y0045434D01*
X0125550Y0045497D01*
X0125734Y0045555D01*
X0125920Y0045609D01*
X0126107Y0045658D01*
X0126295Y0045703D01*
X0126484Y0045743D01*
X0126674Y0045778D01*
X0126865Y0045809D01*
X0127056Y0045835D01*
X0127248Y0045856D01*
X0127441Y0045873D01*
X0127634Y0045885D01*
X0127827Y0045892D01*
X0128020Y0045894D01*
X0128213Y0045892D01*
X0128406Y0045885D01*
X0128599Y0045873D01*
X0128792Y0045856D01*
X0128984Y0045835D01*
X0129175Y0045809D01*
X0129366Y0045778D01*
X0129556Y0045743D01*
X0129745Y0045703D01*
X0129933Y0045658D01*
X0130120Y0045609D01*
X0130306Y0045555D01*
X0130490Y0045497D01*
X0130673Y0045434D01*
X0130854Y0045366D01*
X0131033Y0045295D01*
X0131211Y0045218D01*
X0131387Y0045138D01*
X0131560Y0045053D01*
X0131732Y0044964D01*
X0131901Y0044871D01*
X0132068Y0044774D01*
X0132233Y0044672D01*
X0132395Y0044567D01*
X0132554Y0044458D01*
X0132711Y0044344D01*
X0132864Y0044227D01*
X0133015Y0044107D01*
X0133163Y0043982D01*
X0133308Y0043854D01*
X0133449Y0043723D01*
X0133588Y0043588D01*
X0133723Y0043449D01*
X0133854Y0043308D01*
X0133982Y0043163D01*
X0134107Y0043015D01*
X0134227Y0042864D01*
X0134344Y0042711D01*
X0134458Y0042554D01*
X0134567Y0042395D01*
X0134672Y0042233D01*
X0134774Y0042068D01*
X0134871Y0041901D01*
X0134964Y0041732D01*
X0135053Y0041560D01*
X0135138Y0041387D01*
X0135218Y0041211D01*
X0135295Y0041033D01*
X0135366Y0040854D01*
X0135434Y0040673D01*
X0135497Y0040490D01*
X0135555Y0040306D01*
X0135609Y0040120D01*
X0135658Y0039933D01*
X0135703Y0039745D01*
X0135743Y0039556D01*
X0135778Y0039366D01*
X0135809Y0039175D01*
X0135835Y0038984D01*
X0135856Y0038792D01*
X0135873Y0038599D01*
X0135885Y0038406D01*
X0135892Y0038213D01*
X0135894Y0038020D01*
X0135892Y0037827D01*
X0135885Y0037634D01*
X0135873Y0037441D01*
X0135856Y0037248D01*
X0135835Y0037056D01*
X0135809Y0036865D01*
X0135778Y0036674D01*
X0135743Y0036484D01*
X0135703Y0036295D01*
X0135658Y0036107D01*
X0135609Y0035920D01*
X0135555Y0035734D01*
X0135497Y0035550D01*
X0135434Y0035367D01*
X0135366Y0035186D01*
X0135295Y0035007D01*
X0135218Y0034829D01*
X0135138Y0034653D01*
X0135053Y0034480D01*
X0134964Y0034308D01*
X0134871Y0034139D01*
X0134774Y0033972D01*
X0134672Y0033807D01*
X0134567Y0033645D01*
X0134458Y0033486D01*
X0134344Y0033329D01*
X0134227Y0033176D01*
X0134107Y0033025D01*
X0133982Y0032877D01*
X0133854Y0032732D01*
X0133723Y0032591D01*
X0133588Y0032452D01*
X0133449Y0032317D01*
X0133308Y0032186D01*
X0133163Y0032058D01*
X0133015Y0031933D01*
X0132864Y0031813D01*
X0132711Y0031696D01*
X0132554Y0031582D01*
X0132395Y0031473D01*
X0132233Y0031368D01*
X0132068Y0031266D01*
X0131901Y0031169D01*
X0131732Y0031076D01*
X0131560Y0030987D01*
X0131387Y0030902D01*
X0131211Y0030822D01*
X0131033Y0030745D01*
X0130854Y0030674D01*
X0130673Y0030606D01*
X0130490Y0030543D01*
X0130306Y0030485D01*
X0130120Y0030431D01*
X0129933Y0030382D01*
X0129745Y0030337D01*
X0129556Y0030297D01*
X0129366Y0030262D01*
X0129175Y0030231D01*
X0128984Y0030205D01*
X0128792Y0030184D01*
X0128599Y0030167D01*
X0128406Y0030155D01*
X0128213Y0030148D01*
X0128020Y0030146D01*
X0127827Y0030148D01*
X0127634Y0030155D01*
X0127441Y0030167D01*
X0127248Y0030184D01*
X0127056Y0030205D01*
X0126865Y0030231D01*
X0126674Y0030262D01*
X0126484Y0030297D01*
X0126295Y0030337D01*
X0126107Y0030382D01*
X0125920Y0030431D01*
X0125734Y0030485D01*
X0125550Y0030543D01*
X0125367Y0030606D01*
X0125186Y0030674D01*
X0125007Y0030745D01*
X0124829Y0030822D01*
X0124653Y0030902D01*
X0124480Y0030987D01*
X0124308Y0031076D01*
X0124139Y0031169D01*
X0123972Y0031266D01*
X0123807Y0031368D01*
X0123645Y0031473D01*
X0123486Y0031582D01*
X0123329Y0031696D01*
X0123176Y0031813D01*
X0123025Y0031933D01*
X0122877Y0032058D01*
X0122732Y0032186D01*
X0122591Y0032317D01*
X0122452Y0032452D01*
X0122317Y0032591D01*
X0122186Y0032732D01*
X0122058Y0032877D01*
X0121933Y0033025D01*
X0121813Y0033176D01*
X0121696Y0033329D01*
X0121582Y0033486D01*
X0121473Y0033645D01*
X0121368Y0033807D01*
X0121266Y0033972D01*
X0121169Y0034139D01*
X0121076Y0034308D01*
X0120987Y0034480D01*
X0120902Y0034653D01*
X0120822Y0034829D01*
X0120745Y0035007D01*
X0120674Y0035186D01*
X0120606Y0035367D01*
X0120543Y0035550D01*
X0120485Y0035734D01*
X0120431Y0035920D01*
X0120382Y0036107D01*
X0120337Y0036295D01*
X0120297Y0036484D01*
X0120262Y0036674D01*
X0120231Y0036865D01*
X0120205Y0037056D01*
X0120184Y0037248D01*
X0120167Y0037441D01*
X0120155Y0037634D01*
X0120148Y0037827D01*
X0120146Y0038020D01*
X0117095Y0043630D02*
X0117234Y0043895D01*
X0117381Y0044156D01*
X0117533Y0044414D01*
X0117692Y0044668D01*
X0117857Y0044918D01*
X0118028Y0045164D01*
X0118204Y0045406D01*
X0118387Y0045643D01*
X0118575Y0045876D01*
X0118769Y0046104D01*
X0118969Y0046327D01*
X0119174Y0046545D01*
X0119384Y0046759D01*
X0119599Y0046967D01*
X0119819Y0047170D01*
X0120045Y0047367D01*
X0120274Y0047559D01*
X0120509Y0047746D01*
X0120748Y0047926D01*
X0120991Y0048101D01*
X0121238Y0048269D01*
X0121490Y0048432D01*
X0121745Y0048588D01*
X0122004Y0048739D01*
X0122267Y0048882D01*
X0122533Y0049020D01*
X0122802Y0049151D01*
X0123075Y0049275D01*
X0123350Y0049392D01*
X0123628Y0049503D01*
X0123909Y0049607D01*
X0124192Y0049705D01*
X0124478Y0049795D01*
X0124766Y0049878D01*
X0125055Y0049954D01*
X0125347Y0050024D01*
X0125640Y0050086D01*
X0125934Y0050141D01*
X0126229Y0050188D01*
X0126526Y0050229D01*
X0126824Y0050262D01*
X0127122Y0050288D01*
X0127421Y0050307D01*
X0127720Y0050319D01*
X0128020Y0050323D01*
X0117095Y0032410D02*
X0117234Y0032145D01*
X0117381Y0031884D01*
X0117533Y0031626D01*
X0117692Y0031372D01*
X0117857Y0031122D01*
X0118028Y0030876D01*
X0118204Y0030634D01*
X0118387Y0030397D01*
X0118575Y0030164D01*
X0118769Y0029936D01*
X0118969Y0029713D01*
X0119174Y0029495D01*
X0119384Y0029281D01*
X0119599Y0029073D01*
X0119819Y0028870D01*
X0120045Y0028673D01*
X0120274Y0028481D01*
X0120509Y0028294D01*
X0120748Y0028114D01*
X0120991Y0027939D01*
X0121238Y0027771D01*
X0121490Y0027608D01*
X0121745Y0027452D01*
X0122004Y0027301D01*
X0122267Y0027158D01*
X0122533Y0027020D01*
X0122802Y0026889D01*
X0123075Y0026765D01*
X0123350Y0026648D01*
X0123628Y0026537D01*
X0123909Y0026433D01*
X0124192Y0026335D01*
X0124478Y0026245D01*
X0124766Y0026162D01*
X0125055Y0026086D01*
X0125347Y0026016D01*
X0125640Y0025954D01*
X0125934Y0025899D01*
X0126229Y0025852D01*
X0126526Y0025811D01*
X0126824Y0025778D01*
X0127122Y0025752D01*
X0127421Y0025733D01*
X0127720Y0025721D01*
X0128020Y0025717D01*
D16*
X0145000Y0123700D02*
X0165000Y0123700D01*
D17*
X0127000Y0160000D02*
X0087000Y0160000D01*
X0087000Y0177500D01*
X0127000Y0177500D01*
X0127000Y0160000D01*
X0127000Y0177500D02*
X0127000Y0185000D01*
X0087000Y0185000D01*
X0087000Y0177500D01*
D18*
X0019646Y0147600D02*
X0013974Y0147600D01*
X0016810Y0150435D02*
X0016810Y0144764D01*
X0019575Y0041267D02*
X0013903Y0041267D01*
D19*
X0141054Y0167660D02*
X0141054Y0178340D01*
X0144631Y0178340D01*
X0155369Y0178340D02*
X0158946Y0178340D01*
X0158946Y0167660D01*
X0153631Y0167628D02*
X0152219Y0167628D01*
X0147726Y0167628D02*
X0146313Y0167628D01*
M02*
