G75*
%MOIN*%
%OFA0B0*%
%FSLAX25Y25*%
%IPPOS*%
%LPD*%
%AMOC8*
5,1,8,0,0,1.08239X$1,22.5*
%
%ADD10C,0.00300*%
%ADD11C,0.01100*%
%ADD12C,0.00500*%
%ADD13C,0.00200*%
%ADD14C,0.00600*%
%ADD15R,0.07000X0.10000*%
%ADD16R,0.02500X0.02000*%
%ADD17R,0.02000X0.01500*%
%ADD18C,0.00400*%
%ADD19R,0.07400X0.01700*%
%ADD20C,0.03200*%
%ADD21C,0.01200*%
%ADD22R,0.01500X0.02000*%
%ADD23C,0.01000*%
%ADD24C,0.01500*%
D10*
X0106028Y0021025D02*
X0107479Y0021025D01*
X0107963Y0021509D01*
X0107963Y0023444D01*
X0107479Y0023928D01*
X0106028Y0023928D01*
X0106028Y0021025D01*
X0108975Y0021509D02*
X0109458Y0021025D01*
X0110426Y0021025D01*
X0110910Y0021509D01*
X0110910Y0021993D01*
X0110426Y0022477D01*
X0109942Y0022477D01*
X0110426Y0022477D02*
X0110910Y0022960D01*
X0110910Y0023444D01*
X0110426Y0023928D01*
X0109458Y0023928D01*
X0108975Y0023444D01*
X0109593Y0051017D02*
X0111528Y0052952D01*
X0111528Y0053436D01*
X0111044Y0053920D01*
X0110077Y0053920D01*
X0109593Y0053436D01*
X0108582Y0053436D02*
X0108098Y0053920D01*
X0106647Y0053920D01*
X0106647Y0051017D01*
X0108098Y0051017D01*
X0108582Y0051501D01*
X0108582Y0053436D01*
X0109593Y0051017D02*
X0111528Y0051017D01*
X0110905Y0081648D02*
X0108970Y0081648D01*
X0109937Y0081648D02*
X0109937Y0084551D01*
X0108970Y0083583D01*
X0107958Y0084067D02*
X0107958Y0082132D01*
X0107474Y0081648D01*
X0106023Y0081648D01*
X0106023Y0084551D01*
X0107474Y0084551D01*
X0107958Y0084067D01*
X0116259Y0155650D02*
X0117226Y0155650D01*
X0117710Y0156134D01*
X0117710Y0158069D01*
X0117226Y0158552D01*
X0116259Y0158552D01*
X0115775Y0158069D01*
X0115775Y0156134D01*
X0116259Y0155650D01*
X0118722Y0156134D02*
X0119205Y0155650D01*
X0120173Y0155650D01*
X0120656Y0156134D01*
X0120656Y0158552D01*
X0121668Y0158552D02*
X0123603Y0158552D01*
X0122636Y0158552D02*
X0122636Y0155650D01*
X0118722Y0156134D02*
X0118722Y0158552D01*
X0119168Y0161650D02*
X0120619Y0161650D01*
X0121103Y0162134D01*
X0121103Y0164069D01*
X0120619Y0164552D01*
X0119168Y0164552D01*
X0119168Y0161650D01*
X0118156Y0161650D02*
X0118156Y0164552D01*
X0116222Y0164552D02*
X0116222Y0161650D01*
X0115210Y0162134D02*
X0115210Y0163101D01*
X0114242Y0163101D01*
X0113275Y0162134D02*
X0113275Y0164069D01*
X0113759Y0164552D01*
X0114726Y0164552D01*
X0115210Y0164069D01*
X0116222Y0164552D02*
X0118156Y0161650D01*
X0115210Y0162134D02*
X0114726Y0161650D01*
X0113759Y0161650D01*
X0113275Y0162134D01*
X0111603Y0162617D02*
X0111603Y0164552D01*
X0111603Y0162617D02*
X0110636Y0161650D01*
X0109668Y0162617D01*
X0109668Y0164552D01*
X0108656Y0164069D02*
X0108173Y0164552D01*
X0107205Y0164552D01*
X0106722Y0164069D01*
X0108656Y0164069D02*
X0108656Y0163585D01*
X0106722Y0161650D01*
X0108656Y0161650D01*
X0105710Y0161650D02*
X0103775Y0161650D01*
X0104742Y0161650D02*
X0104742Y0164552D01*
X0103775Y0163585D01*
X0100746Y0164552D02*
X0100746Y0161650D01*
X0098811Y0164552D01*
X0098811Y0161650D01*
X0097814Y0161650D02*
X0096847Y0161650D01*
X0097330Y0161650D02*
X0097330Y0164552D01*
X0096847Y0164552D02*
X0097814Y0164552D01*
X0095835Y0164069D02*
X0095835Y0162134D01*
X0095351Y0161650D01*
X0093900Y0161650D01*
X0093900Y0164552D01*
X0095351Y0164552D01*
X0095835Y0164069D01*
X0091603Y0164069D02*
X0091603Y0162134D01*
X0091119Y0161650D01*
X0089668Y0161650D01*
X0089668Y0164552D01*
X0091119Y0164552D01*
X0091603Y0164069D01*
X0088656Y0164552D02*
X0088656Y0161650D01*
X0086722Y0164552D01*
X0086722Y0161650D01*
X0085710Y0162134D02*
X0085710Y0163101D01*
X0084742Y0163101D01*
X0083775Y0162134D02*
X0084259Y0161650D01*
X0085226Y0161650D01*
X0085710Y0162134D01*
X0085710Y0164069D02*
X0085226Y0164552D01*
X0084259Y0164552D01*
X0083775Y0164069D01*
X0083775Y0162134D01*
X0081103Y0162617D02*
X0081103Y0164552D01*
X0081103Y0162617D02*
X0080136Y0161650D01*
X0079168Y0162617D01*
X0079168Y0164552D01*
X0078156Y0164069D02*
X0077673Y0164552D01*
X0076705Y0164552D01*
X0076222Y0164069D01*
X0078156Y0164069D02*
X0078156Y0163585D01*
X0076222Y0161650D01*
X0078156Y0161650D01*
X0075210Y0161650D02*
X0073275Y0161650D01*
X0074242Y0161650D02*
X0074242Y0164552D01*
X0073275Y0163585D01*
X0083775Y0159052D02*
X0084742Y0159052D01*
X0084259Y0159052D02*
X0084259Y0156150D01*
X0084742Y0156150D02*
X0083775Y0156150D01*
X0085739Y0156150D02*
X0085739Y0159052D01*
X0087674Y0156150D01*
X0087674Y0159052D01*
X0124650Y0161650D02*
X0126101Y0161650D01*
X0126585Y0162134D01*
X0126585Y0164069D01*
X0126101Y0164552D01*
X0124650Y0164552D01*
X0124650Y0161650D01*
X0127597Y0162134D02*
X0128080Y0161650D01*
X0129048Y0161650D01*
X0129531Y0162134D01*
X0129531Y0164069D01*
X0129048Y0164552D01*
X0128080Y0164552D01*
X0127597Y0164069D01*
X0127597Y0162134D01*
D11*
X0075296Y0016140D02*
X0075296Y0015056D01*
X0075296Y0012887D02*
X0075296Y0008550D01*
X0076380Y0008550D02*
X0074211Y0008550D01*
X0071550Y0008550D02*
X0067213Y0012887D01*
X0063632Y0012887D02*
X0063632Y0008550D01*
X0062548Y0008550D02*
X0064716Y0008550D01*
X0067213Y0008550D02*
X0071550Y0012887D01*
X0074211Y0012887D02*
X0075296Y0012887D01*
X0078877Y0011803D02*
X0081045Y0011803D01*
X0078877Y0015056D02*
X0083214Y0015056D01*
X0085875Y0015056D02*
X0086959Y0015056D01*
X0086959Y0008550D01*
X0085875Y0008550D02*
X0088043Y0008550D01*
X0090540Y0009634D02*
X0091624Y0008550D01*
X0093793Y0008550D01*
X0094877Y0009634D01*
X0094877Y0011803D01*
X0093793Y0012887D01*
X0091624Y0012887D01*
X0090540Y0011803D01*
X0090540Y0009634D01*
X0097538Y0009634D02*
X0098622Y0008550D01*
X0100791Y0008550D01*
X0101875Y0009634D01*
X0101875Y0011803D01*
X0100791Y0012887D01*
X0098622Y0012887D01*
X0097538Y0011803D01*
X0097538Y0009634D01*
X0104536Y0009634D02*
X0105620Y0008550D01*
X0108873Y0008550D01*
X0108873Y0015056D01*
X0108873Y0012887D02*
X0105620Y0012887D01*
X0104536Y0011803D01*
X0104536Y0009634D01*
X0118532Y0008550D02*
X0122869Y0008550D01*
X0120700Y0008550D02*
X0120700Y0015056D01*
X0118532Y0012887D01*
X0125530Y0013971D02*
X0125530Y0009634D01*
X0129867Y0013971D01*
X0129867Y0009634D01*
X0128782Y0008550D01*
X0126614Y0008550D01*
X0125530Y0009634D01*
X0125530Y0013971D02*
X0126614Y0015056D01*
X0128782Y0015056D01*
X0129867Y0013971D01*
X0132528Y0012887D02*
X0132528Y0009634D01*
X0133612Y0008550D01*
X0134696Y0009634D01*
X0135780Y0008550D01*
X0136865Y0009634D01*
X0136865Y0012887D01*
X0078877Y0015056D02*
X0078877Y0008550D01*
X0063632Y0012887D02*
X0062548Y0012887D01*
X0063632Y0015056D02*
X0063632Y0016140D01*
X0059887Y0013971D02*
X0059887Y0011803D01*
X0058803Y0010719D01*
X0055550Y0010719D01*
X0055550Y0008550D02*
X0055550Y0015056D01*
X0058803Y0015056D01*
X0059887Y0013971D01*
D12*
X0094605Y0031464D02*
X0104053Y0031464D01*
X0104053Y0048786D01*
X0094605Y0048786D01*
X0094605Y0031464D01*
X0095244Y0061511D02*
X0104693Y0061511D01*
X0104693Y0078834D01*
X0095244Y0078834D01*
X0095244Y0061511D01*
X0095225Y0092187D02*
X0104674Y0092187D01*
X0104674Y0109510D01*
X0095225Y0109510D01*
X0095225Y0092187D01*
X0100377Y0113384D02*
X0100377Y0116787D01*
X0099243Y0116787D02*
X0101512Y0116787D01*
X0102834Y0116787D02*
X0105103Y0116787D01*
X0103968Y0116787D02*
X0103968Y0113384D01*
X0141750Y0121254D02*
X0144753Y0121254D01*
X0143251Y0121254D02*
X0143251Y0116750D01*
X0146354Y0116750D02*
X0146354Y0121254D01*
X0148606Y0121254D01*
X0149356Y0120503D01*
X0149356Y0119002D01*
X0148606Y0118251D01*
X0146354Y0118251D01*
X0150958Y0117501D02*
X0151708Y0116750D01*
X0153210Y0116750D01*
X0153960Y0117501D01*
X0153960Y0118251D01*
X0153210Y0119002D01*
X0152459Y0119002D01*
X0153210Y0119002D02*
X0153960Y0119753D01*
X0153960Y0120503D01*
X0153210Y0121254D01*
X0151708Y0121254D01*
X0150958Y0120503D01*
X0145754Y0108000D02*
X0162246Y0108000D01*
X0162873Y0102500D02*
X0164452Y0102500D01*
X0155127Y0102500D02*
X0152873Y0102500D01*
X0162246Y0108000D02*
X0162399Y0107801D01*
X0162547Y0107599D01*
X0162690Y0107394D01*
X0162828Y0107185D01*
X0162961Y0106973D01*
X0163089Y0106758D01*
X0163211Y0106540D01*
X0163329Y0106319D01*
X0163441Y0106095D01*
X0163548Y0105869D01*
X0163649Y0105640D01*
X0163745Y0105409D01*
X0163836Y0105175D01*
X0163921Y0104940D01*
X0164000Y0104702D01*
X0164073Y0104463D01*
X0164141Y0104222D01*
X0164203Y0103980D01*
X0164259Y0103736D01*
X0164310Y0103490D01*
X0164354Y0103244D01*
X0164393Y0102997D01*
X0164425Y0102749D01*
X0164452Y0102500D01*
X0164474Y0102245D01*
X0164489Y0101989D01*
X0164497Y0101733D01*
X0164500Y0101476D01*
X0164496Y0101220D01*
X0164486Y0100964D01*
X0164470Y0100708D01*
X0164448Y0100453D01*
X0164419Y0100198D01*
X0164384Y0099944D01*
X0164343Y0099691D01*
X0164296Y0099439D01*
X0164242Y0099189D01*
X0164183Y0098940D01*
X0164117Y0098692D01*
X0164046Y0098446D01*
X0163968Y0098201D01*
X0163885Y0097959D01*
X0163796Y0097719D01*
X0163700Y0097481D01*
X0163599Y0097245D01*
X0163493Y0097012D01*
X0163380Y0096782D01*
X0163262Y0096554D01*
X0163139Y0096330D01*
X0163010Y0096108D01*
X0162876Y0095890D01*
X0162736Y0095675D01*
X0162591Y0095464D01*
X0162441Y0095256D01*
X0162287Y0095052D01*
X0162127Y0094851D01*
X0161962Y0094655D01*
X0161793Y0094463D01*
X0161618Y0094274D01*
X0161440Y0094091D01*
X0161257Y0093911D01*
X0161069Y0093736D01*
X0160878Y0093566D01*
X0160682Y0093401D01*
X0160482Y0093240D01*
X0160279Y0093084D01*
X0160072Y0092934D01*
X0159861Y0092788D01*
X0159646Y0092647D01*
X0159429Y0092512D01*
X0159208Y0092382D01*
X0158984Y0092258D01*
X0158757Y0092139D01*
X0158527Y0092026D01*
X0158294Y0091918D01*
X0158059Y0091816D01*
X0157821Y0091720D01*
X0157582Y0091630D01*
X0157340Y0091545D01*
X0157096Y0091467D01*
X0150904Y0091467D02*
X0150662Y0091545D01*
X0150422Y0091629D01*
X0150184Y0091718D01*
X0149948Y0091813D01*
X0149714Y0091915D01*
X0149483Y0092021D01*
X0149255Y0092134D01*
X0149029Y0092251D01*
X0148806Y0092374D01*
X0148587Y0092503D01*
X0148370Y0092637D01*
X0148157Y0092776D01*
X0147947Y0092920D01*
X0147741Y0093069D01*
X0147539Y0093223D01*
X0147340Y0093382D01*
X0147145Y0093546D01*
X0146954Y0093715D01*
X0146768Y0093888D01*
X0146585Y0094065D01*
X0146407Y0094247D01*
X0146234Y0094433D01*
X0146065Y0094624D01*
X0145901Y0094818D01*
X0145741Y0095016D01*
X0145586Y0095218D01*
X0145437Y0095424D01*
X0145292Y0095633D01*
X0145152Y0095846D01*
X0145018Y0096062D01*
X0144889Y0096282D01*
X0144765Y0096504D01*
X0144646Y0096729D01*
X0144534Y0096957D01*
X0144426Y0097188D01*
X0144325Y0097421D01*
X0144229Y0097657D01*
X0144138Y0097895D01*
X0144054Y0098135D01*
X0143975Y0098377D01*
X0143902Y0098621D01*
X0143836Y0098867D01*
X0143775Y0099114D01*
X0143720Y0099362D01*
X0143671Y0099612D01*
X0143628Y0099863D01*
X0143592Y0100115D01*
X0143561Y0100367D01*
X0143537Y0100621D01*
X0143519Y0100874D01*
X0143507Y0101129D01*
X0143501Y0101383D01*
X0143501Y0101638D01*
X0143507Y0101892D01*
X0143520Y0102146D01*
X0143539Y0102400D01*
X0143564Y0102653D01*
X0143595Y0102906D01*
X0143632Y0103158D01*
X0143675Y0103408D01*
X0143724Y0103658D01*
X0143780Y0103907D01*
X0143841Y0104154D01*
X0143908Y0104399D01*
X0143981Y0104643D01*
X0144060Y0104885D01*
X0144145Y0105124D01*
X0144236Y0105362D01*
X0144333Y0105598D01*
X0144435Y0105831D01*
X0144543Y0106061D01*
X0144656Y0106289D01*
X0144775Y0106514D01*
X0144899Y0106736D01*
X0145029Y0106955D01*
X0145163Y0107171D01*
X0145303Y0107384D01*
X0145449Y0107593D01*
X0145599Y0107798D01*
X0145754Y0108000D01*
X0145127Y0102500D02*
X0143548Y0102500D01*
X0145754Y0082000D02*
X0162246Y0082000D01*
X0162873Y0076500D02*
X0164452Y0076500D01*
X0155127Y0076500D02*
X0152873Y0076500D01*
X0162246Y0082000D02*
X0162399Y0081801D01*
X0162547Y0081599D01*
X0162690Y0081394D01*
X0162828Y0081185D01*
X0162961Y0080973D01*
X0163089Y0080758D01*
X0163211Y0080540D01*
X0163329Y0080319D01*
X0163441Y0080095D01*
X0163548Y0079869D01*
X0163649Y0079640D01*
X0163745Y0079409D01*
X0163836Y0079175D01*
X0163921Y0078940D01*
X0164000Y0078702D01*
X0164073Y0078463D01*
X0164141Y0078222D01*
X0164203Y0077980D01*
X0164259Y0077736D01*
X0164310Y0077490D01*
X0164354Y0077244D01*
X0164393Y0076997D01*
X0164425Y0076749D01*
X0164452Y0076500D01*
X0164474Y0076245D01*
X0164489Y0075989D01*
X0164497Y0075733D01*
X0164500Y0075476D01*
X0164496Y0075220D01*
X0164486Y0074964D01*
X0164470Y0074708D01*
X0164448Y0074453D01*
X0164419Y0074198D01*
X0164384Y0073944D01*
X0164343Y0073691D01*
X0164296Y0073439D01*
X0164242Y0073189D01*
X0164183Y0072940D01*
X0164117Y0072692D01*
X0164046Y0072446D01*
X0163968Y0072201D01*
X0163885Y0071959D01*
X0163796Y0071719D01*
X0163700Y0071481D01*
X0163599Y0071245D01*
X0163493Y0071012D01*
X0163380Y0070782D01*
X0163262Y0070554D01*
X0163139Y0070330D01*
X0163010Y0070108D01*
X0162876Y0069890D01*
X0162736Y0069675D01*
X0162591Y0069464D01*
X0162441Y0069256D01*
X0162287Y0069052D01*
X0162127Y0068851D01*
X0161962Y0068655D01*
X0161793Y0068463D01*
X0161618Y0068274D01*
X0161440Y0068091D01*
X0161257Y0067911D01*
X0161069Y0067736D01*
X0160878Y0067566D01*
X0160682Y0067401D01*
X0160482Y0067240D01*
X0160279Y0067084D01*
X0160072Y0066934D01*
X0159861Y0066788D01*
X0159646Y0066647D01*
X0159429Y0066512D01*
X0159208Y0066382D01*
X0158984Y0066258D01*
X0158757Y0066139D01*
X0158527Y0066026D01*
X0158294Y0065918D01*
X0158059Y0065816D01*
X0157821Y0065720D01*
X0157582Y0065630D01*
X0157340Y0065545D01*
X0157096Y0065467D01*
X0150904Y0065467D02*
X0150662Y0065545D01*
X0150422Y0065629D01*
X0150184Y0065718D01*
X0149948Y0065813D01*
X0149714Y0065915D01*
X0149483Y0066021D01*
X0149255Y0066134D01*
X0149029Y0066251D01*
X0148806Y0066374D01*
X0148587Y0066503D01*
X0148370Y0066637D01*
X0148157Y0066776D01*
X0147947Y0066920D01*
X0147741Y0067069D01*
X0147539Y0067223D01*
X0147340Y0067382D01*
X0147145Y0067546D01*
X0146954Y0067715D01*
X0146768Y0067888D01*
X0146585Y0068065D01*
X0146407Y0068247D01*
X0146234Y0068433D01*
X0146065Y0068624D01*
X0145901Y0068818D01*
X0145741Y0069016D01*
X0145586Y0069218D01*
X0145437Y0069424D01*
X0145292Y0069633D01*
X0145152Y0069846D01*
X0145018Y0070062D01*
X0144889Y0070282D01*
X0144765Y0070504D01*
X0144646Y0070729D01*
X0144534Y0070957D01*
X0144426Y0071188D01*
X0144325Y0071421D01*
X0144229Y0071657D01*
X0144138Y0071895D01*
X0144054Y0072135D01*
X0143975Y0072377D01*
X0143902Y0072621D01*
X0143836Y0072867D01*
X0143775Y0073114D01*
X0143720Y0073362D01*
X0143671Y0073612D01*
X0143628Y0073863D01*
X0143592Y0074115D01*
X0143561Y0074367D01*
X0143537Y0074621D01*
X0143519Y0074874D01*
X0143507Y0075129D01*
X0143501Y0075383D01*
X0143501Y0075638D01*
X0143507Y0075892D01*
X0143520Y0076146D01*
X0143539Y0076400D01*
X0143564Y0076653D01*
X0143595Y0076906D01*
X0143632Y0077158D01*
X0143675Y0077408D01*
X0143724Y0077658D01*
X0143780Y0077907D01*
X0143841Y0078154D01*
X0143908Y0078399D01*
X0143981Y0078643D01*
X0144060Y0078885D01*
X0144145Y0079124D01*
X0144236Y0079362D01*
X0144333Y0079598D01*
X0144435Y0079831D01*
X0144543Y0080061D01*
X0144656Y0080289D01*
X0144775Y0080514D01*
X0144899Y0080736D01*
X0145029Y0080955D01*
X0145163Y0081171D01*
X0145303Y0081384D01*
X0145449Y0081593D01*
X0145599Y0081798D01*
X0145754Y0082000D01*
X0145127Y0076500D02*
X0143548Y0076500D01*
X0146754Y0052500D02*
X0163246Y0052500D01*
X0163873Y0047000D02*
X0165452Y0047000D01*
X0156127Y0047000D02*
X0153873Y0047000D01*
X0163246Y0052500D02*
X0163399Y0052301D01*
X0163547Y0052099D01*
X0163690Y0051894D01*
X0163828Y0051685D01*
X0163961Y0051473D01*
X0164089Y0051258D01*
X0164211Y0051040D01*
X0164329Y0050819D01*
X0164441Y0050595D01*
X0164548Y0050369D01*
X0164649Y0050140D01*
X0164745Y0049909D01*
X0164836Y0049675D01*
X0164921Y0049440D01*
X0165000Y0049202D01*
X0165073Y0048963D01*
X0165141Y0048722D01*
X0165203Y0048480D01*
X0165259Y0048236D01*
X0165310Y0047990D01*
X0165354Y0047744D01*
X0165393Y0047497D01*
X0165425Y0047249D01*
X0165452Y0047000D01*
X0165474Y0046745D01*
X0165489Y0046489D01*
X0165497Y0046233D01*
X0165500Y0045976D01*
X0165496Y0045720D01*
X0165486Y0045464D01*
X0165470Y0045208D01*
X0165448Y0044953D01*
X0165419Y0044698D01*
X0165384Y0044444D01*
X0165343Y0044191D01*
X0165296Y0043939D01*
X0165242Y0043689D01*
X0165183Y0043440D01*
X0165117Y0043192D01*
X0165046Y0042946D01*
X0164968Y0042701D01*
X0164885Y0042459D01*
X0164796Y0042219D01*
X0164700Y0041981D01*
X0164599Y0041745D01*
X0164493Y0041512D01*
X0164380Y0041282D01*
X0164262Y0041054D01*
X0164139Y0040830D01*
X0164010Y0040608D01*
X0163876Y0040390D01*
X0163736Y0040175D01*
X0163591Y0039964D01*
X0163441Y0039756D01*
X0163287Y0039552D01*
X0163127Y0039351D01*
X0162962Y0039155D01*
X0162793Y0038963D01*
X0162618Y0038774D01*
X0162440Y0038591D01*
X0162257Y0038411D01*
X0162069Y0038236D01*
X0161878Y0038066D01*
X0161682Y0037901D01*
X0161482Y0037740D01*
X0161279Y0037584D01*
X0161072Y0037434D01*
X0160861Y0037288D01*
X0160646Y0037147D01*
X0160429Y0037012D01*
X0160208Y0036882D01*
X0159984Y0036758D01*
X0159757Y0036639D01*
X0159527Y0036526D01*
X0159294Y0036418D01*
X0159059Y0036316D01*
X0158821Y0036220D01*
X0158582Y0036130D01*
X0158340Y0036045D01*
X0158096Y0035967D01*
X0151904Y0035967D02*
X0151662Y0036045D01*
X0151422Y0036129D01*
X0151184Y0036218D01*
X0150948Y0036313D01*
X0150714Y0036415D01*
X0150483Y0036521D01*
X0150255Y0036634D01*
X0150029Y0036751D01*
X0149806Y0036874D01*
X0149587Y0037003D01*
X0149370Y0037137D01*
X0149157Y0037276D01*
X0148947Y0037420D01*
X0148741Y0037569D01*
X0148539Y0037723D01*
X0148340Y0037882D01*
X0148145Y0038046D01*
X0147954Y0038215D01*
X0147768Y0038388D01*
X0147585Y0038565D01*
X0147407Y0038747D01*
X0147234Y0038933D01*
X0147065Y0039124D01*
X0146901Y0039318D01*
X0146741Y0039516D01*
X0146586Y0039718D01*
X0146437Y0039924D01*
X0146292Y0040133D01*
X0146152Y0040346D01*
X0146018Y0040562D01*
X0145889Y0040782D01*
X0145765Y0041004D01*
X0145646Y0041229D01*
X0145534Y0041457D01*
X0145426Y0041688D01*
X0145325Y0041921D01*
X0145229Y0042157D01*
X0145138Y0042395D01*
X0145054Y0042635D01*
X0144975Y0042877D01*
X0144902Y0043121D01*
X0144836Y0043367D01*
X0144775Y0043614D01*
X0144720Y0043862D01*
X0144671Y0044112D01*
X0144628Y0044363D01*
X0144592Y0044615D01*
X0144561Y0044867D01*
X0144537Y0045121D01*
X0144519Y0045374D01*
X0144507Y0045629D01*
X0144501Y0045883D01*
X0144501Y0046138D01*
X0144507Y0046392D01*
X0144520Y0046646D01*
X0144539Y0046900D01*
X0144564Y0047153D01*
X0144595Y0047406D01*
X0144632Y0047658D01*
X0144675Y0047908D01*
X0144724Y0048158D01*
X0144780Y0048407D01*
X0144841Y0048654D01*
X0144908Y0048899D01*
X0144981Y0049143D01*
X0145060Y0049385D01*
X0145145Y0049624D01*
X0145236Y0049862D01*
X0145333Y0050098D01*
X0145435Y0050331D01*
X0145543Y0050561D01*
X0145656Y0050789D01*
X0145775Y0051014D01*
X0145899Y0051236D01*
X0146029Y0051455D01*
X0146163Y0051671D01*
X0146303Y0051884D01*
X0146449Y0052093D01*
X0146599Y0052298D01*
X0146754Y0052500D01*
X0146127Y0047000D02*
X0144548Y0047000D01*
X0162726Y0005100D02*
X0017100Y0005100D01*
X0017100Y0186021D02*
X0162726Y0186021D01*
D13*
X0144800Y0172910D02*
X0144433Y0172910D01*
X0142965Y0174378D01*
X0142598Y0174378D01*
X0142598Y0172910D01*
X0142965Y0172168D02*
X0143699Y0172168D01*
X0144066Y0171801D01*
X0144066Y0170700D01*
X0144066Y0171434D02*
X0144800Y0172168D01*
X0144800Y0170700D02*
X0142598Y0170700D01*
X0142598Y0171801D01*
X0142965Y0172168D01*
X0143465Y0165878D02*
X0143098Y0165511D01*
X0143098Y0164777D01*
X0143465Y0164410D01*
X0143832Y0164410D01*
X0144199Y0164777D01*
X0144199Y0165878D01*
X0144933Y0165878D02*
X0143465Y0165878D01*
X0144933Y0165878D02*
X0145300Y0165511D01*
X0145300Y0164777D01*
X0144933Y0164410D01*
X0145300Y0163668D02*
X0144566Y0162934D01*
X0144566Y0163301D02*
X0144566Y0162200D01*
X0145300Y0162200D02*
X0143098Y0162200D01*
X0143098Y0163301D01*
X0143465Y0163668D01*
X0144199Y0163668D01*
X0144566Y0163301D01*
X0144566Y0155878D02*
X0144933Y0155878D01*
X0145300Y0155511D01*
X0145300Y0154777D01*
X0144933Y0154410D01*
X0144566Y0154410D01*
X0144199Y0154777D01*
X0144199Y0155511D01*
X0144566Y0155878D01*
X0144199Y0155511D02*
X0143832Y0155878D01*
X0143465Y0155878D01*
X0143098Y0155511D01*
X0143098Y0154777D01*
X0143465Y0154410D01*
X0143832Y0154410D01*
X0144199Y0154777D01*
X0144199Y0153668D02*
X0144566Y0153301D01*
X0144566Y0152200D01*
X0144566Y0152934D02*
X0145300Y0153668D01*
X0144199Y0153668D02*
X0143465Y0153668D01*
X0143098Y0153301D01*
X0143098Y0152200D01*
X0145300Y0152200D01*
X0145000Y0123700D02*
X0165000Y0123700D01*
X0168200Y0122902D02*
X0168200Y0120700D01*
X0168200Y0121434D02*
X0169301Y0121434D01*
X0169668Y0121801D01*
X0169668Y0122535D01*
X0169301Y0122902D01*
X0168200Y0122902D01*
X0168934Y0121434D02*
X0169668Y0120700D01*
X0170410Y0121801D02*
X0171878Y0121801D01*
X0171511Y0122902D02*
X0170410Y0121801D01*
X0171511Y0120700D02*
X0171511Y0122902D01*
X0171878Y0084402D02*
X0170410Y0084402D01*
X0170410Y0083301D01*
X0171144Y0083668D01*
X0171511Y0083668D01*
X0171878Y0083301D01*
X0171878Y0082567D01*
X0171511Y0082200D01*
X0170777Y0082200D01*
X0170410Y0082567D01*
X0169668Y0082200D02*
X0168934Y0082934D01*
X0169301Y0082934D02*
X0168200Y0082934D01*
X0168200Y0082200D02*
X0168200Y0084402D01*
X0169301Y0084402D01*
X0169668Y0084035D01*
X0169668Y0083301D01*
X0169301Y0082934D01*
X0169301Y0045902D02*
X0169668Y0045535D01*
X0169668Y0044801D01*
X0169301Y0044434D01*
X0168200Y0044434D01*
X0168934Y0044434D02*
X0169668Y0043700D01*
X0170410Y0044067D02*
X0170777Y0043700D01*
X0171511Y0043700D01*
X0171878Y0044067D01*
X0171878Y0044434D01*
X0171511Y0044801D01*
X0170410Y0044801D01*
X0170410Y0044067D01*
X0170410Y0044801D02*
X0171144Y0045535D01*
X0171878Y0045902D01*
X0169301Y0045902D02*
X0168200Y0045902D01*
X0168200Y0043700D01*
X0101626Y0062217D02*
X0100158Y0062217D01*
X0101626Y0063685D01*
X0101626Y0064052D01*
X0101259Y0064419D01*
X0100525Y0064419D01*
X0100158Y0064052D01*
X0099416Y0064419D02*
X0099416Y0062584D01*
X0099049Y0062217D01*
X0098315Y0062217D01*
X0097948Y0062584D01*
X0097948Y0064419D01*
X0098296Y0092893D02*
X0099030Y0092893D01*
X0099397Y0093260D01*
X0099397Y0095095D01*
X0100139Y0094361D02*
X0100873Y0095095D01*
X0100873Y0092893D01*
X0100139Y0092893D02*
X0101607Y0092893D01*
X0098296Y0092893D02*
X0097929Y0093260D01*
X0097929Y0095095D01*
X0081999Y0145908D02*
X0080531Y0145908D01*
X0081265Y0145908D02*
X0081265Y0148110D01*
X0080531Y0147376D01*
X0079789Y0147743D02*
X0079789Y0147009D01*
X0079422Y0146642D01*
X0078321Y0146642D01*
X0079055Y0146642D02*
X0079789Y0145908D01*
X0078321Y0145908D02*
X0078321Y0148110D01*
X0079422Y0148110D01*
X0079789Y0147743D01*
X0066871Y0172318D02*
X0065403Y0172318D01*
X0066871Y0173785D01*
X0066871Y0174152D01*
X0066504Y0174519D01*
X0065770Y0174519D01*
X0065403Y0174152D01*
X0064661Y0174152D02*
X0064661Y0173418D01*
X0064294Y0173051D01*
X0063193Y0173051D01*
X0063193Y0172318D02*
X0063193Y0174519D01*
X0064294Y0174519D01*
X0064661Y0174152D01*
X0063927Y0173051D02*
X0064661Y0172318D01*
X0040959Y0172735D02*
X0040593Y0172368D01*
X0039859Y0172368D01*
X0039492Y0172735D01*
X0038750Y0172368D02*
X0038016Y0173102D01*
X0038383Y0173102D02*
X0037282Y0173102D01*
X0037282Y0172368D02*
X0037282Y0174570D01*
X0038383Y0174570D01*
X0038750Y0174203D01*
X0038750Y0173469D01*
X0038383Y0173102D01*
X0039492Y0174203D02*
X0039859Y0174570D01*
X0040593Y0174570D01*
X0040959Y0174203D01*
X0040959Y0173836D01*
X0040593Y0173469D01*
X0040959Y0173102D01*
X0040959Y0172735D01*
X0040593Y0173469D02*
X0040226Y0173469D01*
X0097808Y0034371D02*
X0097808Y0032537D01*
X0098175Y0032170D01*
X0098909Y0032170D01*
X0099276Y0032537D01*
X0099276Y0034371D01*
X0100018Y0034004D02*
X0100385Y0034371D01*
X0101119Y0034371D01*
X0101486Y0034004D01*
X0101486Y0033637D01*
X0101119Y0033270D01*
X0101486Y0032904D01*
X0101486Y0032537D01*
X0101119Y0032170D01*
X0100385Y0032170D01*
X0100018Y0032537D01*
X0100752Y0033270D02*
X0101119Y0033270D01*
D14*
X0016911Y0005100D02*
X0005100Y0016911D01*
X0005100Y0055000D01*
X0032600Y0055000D01*
X0045100Y0041100D01*
X0059100Y0041100D01*
X0072100Y0055100D01*
X0072100Y0136021D01*
X0059100Y0150021D01*
X0045100Y0150021D01*
X0032600Y0136121D01*
X0005100Y0136121D01*
X0005100Y0174250D01*
X0016911Y0186061D01*
X0035043Y0174793D02*
X0035043Y0173293D01*
X0035543Y0172793D01*
X0035543Y0158793D01*
X0035043Y0158293D01*
X0035043Y0156793D01*
X0035045Y0156733D01*
X0035050Y0156672D01*
X0035059Y0156613D01*
X0035072Y0156554D01*
X0035088Y0156495D01*
X0035108Y0156438D01*
X0035131Y0156383D01*
X0035158Y0156328D01*
X0035187Y0156276D01*
X0035220Y0156225D01*
X0035256Y0156176D01*
X0035294Y0156130D01*
X0035336Y0156086D01*
X0035380Y0156044D01*
X0035426Y0156006D01*
X0035475Y0155970D01*
X0035526Y0155937D01*
X0035578Y0155908D01*
X0035633Y0155881D01*
X0035688Y0155858D01*
X0035745Y0155838D01*
X0035804Y0155822D01*
X0035863Y0155809D01*
X0035922Y0155800D01*
X0035983Y0155795D01*
X0036043Y0155793D01*
X0042043Y0155793D01*
X0042103Y0155795D01*
X0042164Y0155800D01*
X0042223Y0155809D01*
X0042282Y0155822D01*
X0042341Y0155838D01*
X0042398Y0155858D01*
X0042453Y0155881D01*
X0042508Y0155908D01*
X0042560Y0155937D01*
X0042611Y0155970D01*
X0042660Y0156006D01*
X0042706Y0156044D01*
X0042750Y0156086D01*
X0042792Y0156130D01*
X0042830Y0156176D01*
X0042866Y0156225D01*
X0042899Y0156276D01*
X0042928Y0156328D01*
X0042955Y0156383D01*
X0042978Y0156438D01*
X0042998Y0156495D01*
X0043014Y0156554D01*
X0043027Y0156613D01*
X0043036Y0156672D01*
X0043041Y0156733D01*
X0043043Y0156793D01*
X0043043Y0158293D01*
X0042543Y0158793D01*
X0042543Y0172793D01*
X0043043Y0173293D01*
X0043043Y0174793D01*
X0043041Y0174853D01*
X0043036Y0174914D01*
X0043027Y0174973D01*
X0043014Y0175032D01*
X0042998Y0175091D01*
X0042978Y0175148D01*
X0042955Y0175203D01*
X0042928Y0175258D01*
X0042899Y0175310D01*
X0042866Y0175361D01*
X0042830Y0175410D01*
X0042792Y0175456D01*
X0042750Y0175500D01*
X0042706Y0175542D01*
X0042660Y0175580D01*
X0042611Y0175616D01*
X0042560Y0175649D01*
X0042508Y0175678D01*
X0042453Y0175705D01*
X0042398Y0175728D01*
X0042341Y0175748D01*
X0042282Y0175764D01*
X0042223Y0175777D01*
X0042164Y0175786D01*
X0042103Y0175791D01*
X0042043Y0175793D01*
X0036043Y0175793D01*
X0035983Y0175791D01*
X0035922Y0175786D01*
X0035863Y0175777D01*
X0035804Y0175764D01*
X0035745Y0175748D01*
X0035688Y0175728D01*
X0035633Y0175705D01*
X0035578Y0175678D01*
X0035526Y0175649D01*
X0035475Y0175616D01*
X0035426Y0175580D01*
X0035380Y0175542D01*
X0035336Y0175500D01*
X0035294Y0175456D01*
X0035256Y0175410D01*
X0035220Y0175361D01*
X0035187Y0175310D01*
X0035158Y0175258D01*
X0035131Y0175203D01*
X0035108Y0175148D01*
X0035088Y0175091D01*
X0035072Y0175032D01*
X0035059Y0174973D01*
X0035050Y0174914D01*
X0035045Y0174853D01*
X0035043Y0174793D01*
X0060993Y0174757D02*
X0060993Y0173257D01*
X0061493Y0172757D01*
X0061493Y0158757D01*
X0060993Y0158257D01*
X0060993Y0156757D01*
X0060995Y0156697D01*
X0061000Y0156636D01*
X0061009Y0156577D01*
X0061022Y0156518D01*
X0061038Y0156459D01*
X0061058Y0156402D01*
X0061081Y0156347D01*
X0061108Y0156292D01*
X0061137Y0156240D01*
X0061170Y0156189D01*
X0061206Y0156140D01*
X0061244Y0156094D01*
X0061286Y0156050D01*
X0061330Y0156008D01*
X0061376Y0155970D01*
X0061425Y0155934D01*
X0061476Y0155901D01*
X0061528Y0155872D01*
X0061583Y0155845D01*
X0061638Y0155822D01*
X0061695Y0155802D01*
X0061754Y0155786D01*
X0061813Y0155773D01*
X0061872Y0155764D01*
X0061933Y0155759D01*
X0061993Y0155757D01*
X0067993Y0155757D01*
X0068053Y0155759D01*
X0068114Y0155764D01*
X0068173Y0155773D01*
X0068232Y0155786D01*
X0068291Y0155802D01*
X0068348Y0155822D01*
X0068403Y0155845D01*
X0068458Y0155872D01*
X0068510Y0155901D01*
X0068561Y0155934D01*
X0068610Y0155970D01*
X0068656Y0156008D01*
X0068700Y0156050D01*
X0068742Y0156094D01*
X0068780Y0156140D01*
X0068816Y0156189D01*
X0068849Y0156240D01*
X0068878Y0156292D01*
X0068905Y0156347D01*
X0068928Y0156402D01*
X0068948Y0156459D01*
X0068964Y0156518D01*
X0068977Y0156577D01*
X0068986Y0156636D01*
X0068991Y0156697D01*
X0068993Y0156757D01*
X0068993Y0158257D01*
X0068493Y0158757D01*
X0068493Y0172757D01*
X0068993Y0173257D01*
X0068993Y0174757D01*
X0068991Y0174817D01*
X0068986Y0174878D01*
X0068977Y0174937D01*
X0068964Y0174996D01*
X0068948Y0175055D01*
X0068928Y0175112D01*
X0068905Y0175167D01*
X0068878Y0175222D01*
X0068849Y0175274D01*
X0068816Y0175325D01*
X0068780Y0175374D01*
X0068742Y0175420D01*
X0068700Y0175464D01*
X0068656Y0175506D01*
X0068610Y0175544D01*
X0068561Y0175580D01*
X0068510Y0175613D01*
X0068458Y0175642D01*
X0068403Y0175669D01*
X0068348Y0175692D01*
X0068291Y0175712D01*
X0068232Y0175728D01*
X0068173Y0175741D01*
X0068114Y0175750D01*
X0068053Y0175755D01*
X0067993Y0175757D01*
X0061993Y0175757D01*
X0061933Y0175755D01*
X0061872Y0175750D01*
X0061813Y0175741D01*
X0061754Y0175728D01*
X0061695Y0175712D01*
X0061638Y0175692D01*
X0061583Y0175669D01*
X0061528Y0175642D01*
X0061476Y0175613D01*
X0061425Y0175580D01*
X0061376Y0175544D01*
X0061330Y0175506D01*
X0061286Y0175464D01*
X0061244Y0175420D01*
X0061206Y0175374D01*
X0061170Y0175325D01*
X0061137Y0175274D01*
X0061108Y0175222D01*
X0061081Y0175167D01*
X0061058Y0175112D01*
X0061038Y0175055D01*
X0061022Y0174996D01*
X0061009Y0174937D01*
X0061000Y0174878D01*
X0060995Y0174817D01*
X0060993Y0174757D01*
X0077042Y0149246D02*
X0083042Y0149246D01*
X0083102Y0149244D01*
X0083163Y0149239D01*
X0083222Y0149230D01*
X0083281Y0149217D01*
X0083340Y0149201D01*
X0083397Y0149181D01*
X0083452Y0149158D01*
X0083507Y0149131D01*
X0083559Y0149102D01*
X0083610Y0149069D01*
X0083659Y0149033D01*
X0083705Y0148995D01*
X0083749Y0148953D01*
X0083791Y0148909D01*
X0083829Y0148863D01*
X0083865Y0148814D01*
X0083898Y0148763D01*
X0083927Y0148711D01*
X0083954Y0148656D01*
X0083977Y0148601D01*
X0083997Y0148544D01*
X0084013Y0148485D01*
X0084026Y0148426D01*
X0084035Y0148367D01*
X0084040Y0148306D01*
X0084042Y0148246D01*
X0084042Y0146746D01*
X0083542Y0146246D01*
X0083542Y0132246D01*
X0084042Y0131746D01*
X0084042Y0130246D01*
X0084040Y0130186D01*
X0084035Y0130125D01*
X0084026Y0130066D01*
X0084013Y0130007D01*
X0083997Y0129948D01*
X0083977Y0129891D01*
X0083954Y0129836D01*
X0083927Y0129781D01*
X0083898Y0129729D01*
X0083865Y0129678D01*
X0083829Y0129629D01*
X0083791Y0129583D01*
X0083749Y0129539D01*
X0083705Y0129497D01*
X0083659Y0129459D01*
X0083610Y0129423D01*
X0083559Y0129390D01*
X0083507Y0129361D01*
X0083452Y0129334D01*
X0083397Y0129311D01*
X0083340Y0129291D01*
X0083281Y0129275D01*
X0083222Y0129262D01*
X0083163Y0129253D01*
X0083102Y0129248D01*
X0083042Y0129246D01*
X0077042Y0129246D01*
X0076982Y0129248D01*
X0076921Y0129253D01*
X0076862Y0129262D01*
X0076803Y0129275D01*
X0076744Y0129291D01*
X0076687Y0129311D01*
X0076632Y0129334D01*
X0076577Y0129361D01*
X0076525Y0129390D01*
X0076474Y0129423D01*
X0076425Y0129459D01*
X0076379Y0129497D01*
X0076335Y0129539D01*
X0076293Y0129583D01*
X0076255Y0129629D01*
X0076219Y0129678D01*
X0076186Y0129729D01*
X0076157Y0129781D01*
X0076130Y0129836D01*
X0076107Y0129891D01*
X0076087Y0129948D01*
X0076071Y0130007D01*
X0076058Y0130066D01*
X0076049Y0130125D01*
X0076044Y0130186D01*
X0076042Y0130246D01*
X0076042Y0131746D01*
X0076542Y0132246D01*
X0076542Y0146246D01*
X0076042Y0146746D01*
X0076042Y0148246D01*
X0076044Y0148306D01*
X0076049Y0148367D01*
X0076058Y0148426D01*
X0076071Y0148485D01*
X0076087Y0148544D01*
X0076107Y0148601D01*
X0076130Y0148656D01*
X0076157Y0148711D01*
X0076186Y0148763D01*
X0076219Y0148814D01*
X0076255Y0148863D01*
X0076293Y0148909D01*
X0076335Y0148953D01*
X0076379Y0148995D01*
X0076425Y0149033D01*
X0076474Y0149069D01*
X0076525Y0149102D01*
X0076577Y0149131D01*
X0076632Y0149158D01*
X0076687Y0149181D01*
X0076744Y0149201D01*
X0076803Y0149217D01*
X0076862Y0149230D01*
X0076921Y0149239D01*
X0076982Y0149244D01*
X0077042Y0149246D01*
X0096493Y0133134D02*
X0096493Y0114134D01*
X0096495Y0114036D01*
X0096501Y0113938D01*
X0096510Y0113840D01*
X0096524Y0113743D01*
X0096541Y0113646D01*
X0096562Y0113550D01*
X0096587Y0113455D01*
X0096615Y0113361D01*
X0096648Y0113269D01*
X0096683Y0113177D01*
X0096723Y0113087D01*
X0096765Y0112999D01*
X0096812Y0112912D01*
X0096861Y0112828D01*
X0096914Y0112745D01*
X0096970Y0112665D01*
X0097030Y0112586D01*
X0097092Y0112510D01*
X0097157Y0112437D01*
X0097225Y0112366D01*
X0097296Y0112298D01*
X0097369Y0112233D01*
X0097445Y0112171D01*
X0097524Y0112111D01*
X0097604Y0112055D01*
X0097687Y0112002D01*
X0097771Y0111953D01*
X0097858Y0111906D01*
X0097946Y0111864D01*
X0098036Y0111824D01*
X0098128Y0111789D01*
X0098220Y0111756D01*
X0098314Y0111728D01*
X0098409Y0111703D01*
X0098505Y0111682D01*
X0098602Y0111665D01*
X0098699Y0111651D01*
X0098797Y0111642D01*
X0098895Y0111636D01*
X0098993Y0111634D01*
X0131993Y0111634D01*
X0128800Y0106800D02*
X0126300Y0104300D01*
X0128800Y0101800D02*
X0131300Y0104300D01*
X0131200Y0104200D02*
X0131259Y0104258D01*
X0131316Y0104318D01*
X0131370Y0104381D01*
X0131421Y0104446D01*
X0131468Y0104514D01*
X0131513Y0104583D01*
X0131554Y0104655D01*
X0131592Y0104729D01*
X0131626Y0104804D01*
X0131657Y0104881D01*
X0131684Y0104959D01*
X0131708Y0105038D01*
X0131727Y0105119D01*
X0131743Y0105200D01*
X0131756Y0105282D01*
X0131764Y0105364D01*
X0131768Y0105447D01*
X0131769Y0105530D01*
X0131765Y0105612D01*
X0131758Y0105695D01*
X0131747Y0105777D01*
X0131732Y0105858D01*
X0131714Y0105939D01*
X0131691Y0106019D01*
X0131665Y0106097D01*
X0131635Y0106174D01*
X0131602Y0106250D01*
X0131565Y0106324D01*
X0131525Y0106397D01*
X0131481Y0106467D01*
X0131435Y0106535D01*
X0131385Y0106601D01*
X0131332Y0106665D01*
X0131276Y0106726D01*
X0131217Y0106784D01*
X0131156Y0106839D01*
X0131092Y0106892D01*
X0131025Y0106942D01*
X0130957Y0106988D01*
X0130886Y0107031D01*
X0130814Y0107071D01*
X0130739Y0107107D01*
X0130663Y0107140D01*
X0130586Y0107169D01*
X0130507Y0107195D01*
X0130427Y0107217D01*
X0130346Y0107235D01*
X0130265Y0107249D01*
X0130183Y0107260D01*
X0130100Y0107266D01*
X0130018Y0107269D01*
X0129935Y0107268D01*
X0129852Y0107263D01*
X0129770Y0107254D01*
X0129688Y0107241D01*
X0129607Y0107225D01*
X0129527Y0107205D01*
X0129448Y0107181D01*
X0129370Y0107153D01*
X0129293Y0107122D01*
X0129218Y0107087D01*
X0129145Y0107048D01*
X0129073Y0107007D01*
X0129004Y0106962D01*
X0128936Y0106914D01*
X0128871Y0106862D01*
X0128809Y0106808D01*
X0128749Y0106751D01*
X0117500Y0098000D02*
X0117504Y0098307D01*
X0117515Y0098613D01*
X0117534Y0098920D01*
X0117560Y0099225D01*
X0117594Y0099530D01*
X0117635Y0099834D01*
X0117684Y0100137D01*
X0117740Y0100439D01*
X0117804Y0100739D01*
X0117875Y0101037D01*
X0117953Y0101334D01*
X0118038Y0101629D01*
X0118131Y0101921D01*
X0118231Y0102211D01*
X0118338Y0102499D01*
X0118452Y0102784D01*
X0118572Y0103066D01*
X0118700Y0103344D01*
X0118835Y0103620D01*
X0118976Y0103892D01*
X0119124Y0104161D01*
X0119278Y0104426D01*
X0119439Y0104687D01*
X0119607Y0104945D01*
X0119780Y0105198D01*
X0119960Y0105446D01*
X0120146Y0105690D01*
X0120337Y0105930D01*
X0120535Y0106165D01*
X0120738Y0106394D01*
X0120947Y0106619D01*
X0121161Y0106839D01*
X0121381Y0107053D01*
X0121606Y0107262D01*
X0121835Y0107465D01*
X0122070Y0107663D01*
X0122310Y0107854D01*
X0122554Y0108040D01*
X0122802Y0108220D01*
X0123055Y0108393D01*
X0123313Y0108561D01*
X0123574Y0108722D01*
X0123839Y0108876D01*
X0124108Y0109024D01*
X0124380Y0109165D01*
X0124656Y0109300D01*
X0124934Y0109428D01*
X0125216Y0109548D01*
X0125501Y0109662D01*
X0125789Y0109769D01*
X0126079Y0109869D01*
X0126371Y0109962D01*
X0126666Y0110047D01*
X0126963Y0110125D01*
X0127261Y0110196D01*
X0127561Y0110260D01*
X0127863Y0110316D01*
X0128166Y0110365D01*
X0128470Y0110406D01*
X0128775Y0110440D01*
X0129080Y0110466D01*
X0129387Y0110485D01*
X0129693Y0110496D01*
X0130000Y0110500D01*
X0130307Y0110496D01*
X0130613Y0110485D01*
X0130920Y0110466D01*
X0131225Y0110440D01*
X0131530Y0110406D01*
X0131834Y0110365D01*
X0132137Y0110316D01*
X0132439Y0110260D01*
X0132739Y0110196D01*
X0133037Y0110125D01*
X0133334Y0110047D01*
X0133629Y0109962D01*
X0133921Y0109869D01*
X0134211Y0109769D01*
X0134499Y0109662D01*
X0134784Y0109548D01*
X0135066Y0109428D01*
X0135344Y0109300D01*
X0135620Y0109165D01*
X0135892Y0109024D01*
X0136161Y0108876D01*
X0136426Y0108722D01*
X0136687Y0108561D01*
X0136945Y0108393D01*
X0137198Y0108220D01*
X0137446Y0108040D01*
X0137690Y0107854D01*
X0137930Y0107663D01*
X0138165Y0107465D01*
X0138394Y0107262D01*
X0138619Y0107053D01*
X0138839Y0106839D01*
X0139053Y0106619D01*
X0139262Y0106394D01*
X0139465Y0106165D01*
X0139663Y0105930D01*
X0139854Y0105690D01*
X0140040Y0105446D01*
X0140220Y0105198D01*
X0140393Y0104945D01*
X0140561Y0104687D01*
X0140722Y0104426D01*
X0140876Y0104161D01*
X0141024Y0103892D01*
X0141165Y0103620D01*
X0141300Y0103344D01*
X0141428Y0103066D01*
X0141548Y0102784D01*
X0141662Y0102499D01*
X0141769Y0102211D01*
X0141869Y0101921D01*
X0141962Y0101629D01*
X0142047Y0101334D01*
X0142125Y0101037D01*
X0142196Y0100739D01*
X0142260Y0100439D01*
X0142316Y0100137D01*
X0142365Y0099834D01*
X0142406Y0099530D01*
X0142440Y0099225D01*
X0142466Y0098920D01*
X0142485Y0098613D01*
X0142496Y0098307D01*
X0142500Y0098000D01*
X0142496Y0097693D01*
X0142485Y0097387D01*
X0142466Y0097080D01*
X0142440Y0096775D01*
X0142406Y0096470D01*
X0142365Y0096166D01*
X0142316Y0095863D01*
X0142260Y0095561D01*
X0142196Y0095261D01*
X0142125Y0094963D01*
X0142047Y0094666D01*
X0141962Y0094371D01*
X0141869Y0094079D01*
X0141769Y0093789D01*
X0141662Y0093501D01*
X0141548Y0093216D01*
X0141428Y0092934D01*
X0141300Y0092656D01*
X0141165Y0092380D01*
X0141024Y0092108D01*
X0140876Y0091839D01*
X0140722Y0091574D01*
X0140561Y0091313D01*
X0140393Y0091055D01*
X0140220Y0090802D01*
X0140040Y0090554D01*
X0139854Y0090310D01*
X0139663Y0090070D01*
X0139465Y0089835D01*
X0139262Y0089606D01*
X0139053Y0089381D01*
X0138839Y0089161D01*
X0138619Y0088947D01*
X0138394Y0088738D01*
X0138165Y0088535D01*
X0137930Y0088337D01*
X0137690Y0088146D01*
X0137446Y0087960D01*
X0137198Y0087780D01*
X0136945Y0087607D01*
X0136687Y0087439D01*
X0136426Y0087278D01*
X0136161Y0087124D01*
X0135892Y0086976D01*
X0135620Y0086835D01*
X0135344Y0086700D01*
X0135066Y0086572D01*
X0134784Y0086452D01*
X0134499Y0086338D01*
X0134211Y0086231D01*
X0133921Y0086131D01*
X0133629Y0086038D01*
X0133334Y0085953D01*
X0133037Y0085875D01*
X0132739Y0085804D01*
X0132439Y0085740D01*
X0132137Y0085684D01*
X0131834Y0085635D01*
X0131530Y0085594D01*
X0131225Y0085560D01*
X0130920Y0085534D01*
X0130613Y0085515D01*
X0130307Y0085504D01*
X0130000Y0085500D01*
X0129693Y0085504D01*
X0129387Y0085515D01*
X0129080Y0085534D01*
X0128775Y0085560D01*
X0128470Y0085594D01*
X0128166Y0085635D01*
X0127863Y0085684D01*
X0127561Y0085740D01*
X0127261Y0085804D01*
X0126963Y0085875D01*
X0126666Y0085953D01*
X0126371Y0086038D01*
X0126079Y0086131D01*
X0125789Y0086231D01*
X0125501Y0086338D01*
X0125216Y0086452D01*
X0124934Y0086572D01*
X0124656Y0086700D01*
X0124380Y0086835D01*
X0124108Y0086976D01*
X0123839Y0087124D01*
X0123574Y0087278D01*
X0123313Y0087439D01*
X0123055Y0087607D01*
X0122802Y0087780D01*
X0122554Y0087960D01*
X0122310Y0088146D01*
X0122070Y0088337D01*
X0121835Y0088535D01*
X0121606Y0088738D01*
X0121381Y0088947D01*
X0121161Y0089161D01*
X0120947Y0089381D01*
X0120738Y0089606D01*
X0120535Y0089835D01*
X0120337Y0090070D01*
X0120146Y0090310D01*
X0119960Y0090554D01*
X0119780Y0090802D01*
X0119607Y0091055D01*
X0119439Y0091313D01*
X0119278Y0091574D01*
X0119124Y0091839D01*
X0118976Y0092108D01*
X0118835Y0092380D01*
X0118700Y0092656D01*
X0118572Y0092934D01*
X0118452Y0093216D01*
X0118338Y0093501D01*
X0118231Y0093789D01*
X0118131Y0094079D01*
X0118038Y0094371D01*
X0117953Y0094666D01*
X0117875Y0094963D01*
X0117804Y0095261D01*
X0117740Y0095561D01*
X0117684Y0095863D01*
X0117635Y0096166D01*
X0117594Y0096470D01*
X0117560Y0096775D01*
X0117534Y0097080D01*
X0117515Y0097387D01*
X0117504Y0097693D01*
X0117500Y0098000D01*
X0112998Y0090498D02*
X0086998Y0090498D01*
X0086938Y0090496D01*
X0086877Y0090491D01*
X0086818Y0090482D01*
X0086759Y0090469D01*
X0086700Y0090453D01*
X0086643Y0090433D01*
X0086588Y0090410D01*
X0086533Y0090383D01*
X0086481Y0090354D01*
X0086430Y0090321D01*
X0086381Y0090285D01*
X0086335Y0090247D01*
X0086291Y0090205D01*
X0086249Y0090161D01*
X0086211Y0090115D01*
X0086175Y0090066D01*
X0086142Y0090015D01*
X0086113Y0089963D01*
X0086086Y0089908D01*
X0086063Y0089853D01*
X0086043Y0089796D01*
X0086027Y0089737D01*
X0086014Y0089678D01*
X0086005Y0089619D01*
X0086000Y0089558D01*
X0085998Y0089498D01*
X0085998Y0081498D01*
X0086000Y0081438D01*
X0086005Y0081377D01*
X0086014Y0081318D01*
X0086027Y0081259D01*
X0086043Y0081200D01*
X0086063Y0081143D01*
X0086086Y0081088D01*
X0086113Y0081033D01*
X0086142Y0080981D01*
X0086175Y0080930D01*
X0086211Y0080881D01*
X0086249Y0080835D01*
X0086291Y0080791D01*
X0086335Y0080749D01*
X0086381Y0080711D01*
X0086430Y0080675D01*
X0086481Y0080642D01*
X0086533Y0080613D01*
X0086588Y0080586D01*
X0086643Y0080563D01*
X0086700Y0080543D01*
X0086759Y0080527D01*
X0086818Y0080514D01*
X0086877Y0080505D01*
X0086938Y0080500D01*
X0086998Y0080498D01*
X0112998Y0080498D01*
X0113058Y0080500D01*
X0113119Y0080505D01*
X0113178Y0080514D01*
X0113237Y0080527D01*
X0113296Y0080543D01*
X0113353Y0080563D01*
X0113408Y0080586D01*
X0113463Y0080613D01*
X0113515Y0080642D01*
X0113566Y0080675D01*
X0113615Y0080711D01*
X0113661Y0080749D01*
X0113705Y0080791D01*
X0113747Y0080835D01*
X0113785Y0080881D01*
X0113821Y0080930D01*
X0113854Y0080981D01*
X0113883Y0081033D01*
X0113910Y0081088D01*
X0113933Y0081143D01*
X0113953Y0081200D01*
X0113969Y0081259D01*
X0113982Y0081318D01*
X0113991Y0081377D01*
X0113996Y0081438D01*
X0113998Y0081498D01*
X0113998Y0089498D01*
X0113996Y0089558D01*
X0113991Y0089619D01*
X0113982Y0089678D01*
X0113969Y0089737D01*
X0113953Y0089796D01*
X0113933Y0089853D01*
X0113910Y0089908D01*
X0113883Y0089963D01*
X0113854Y0090015D01*
X0113821Y0090066D01*
X0113785Y0090115D01*
X0113747Y0090161D01*
X0113705Y0090205D01*
X0113661Y0090247D01*
X0113615Y0090285D01*
X0113566Y0090321D01*
X0113515Y0090354D01*
X0113463Y0090383D01*
X0113408Y0090410D01*
X0113353Y0090433D01*
X0113296Y0090453D01*
X0113237Y0090469D01*
X0113178Y0090482D01*
X0113119Y0090491D01*
X0113058Y0090496D01*
X0112998Y0090498D01*
X0105998Y0085498D02*
X0099998Y0085498D01*
X0099998Y0082998D01*
X0099998Y0085498D02*
X0097498Y0085498D01*
X0099998Y0085498D02*
X0099998Y0087998D01*
X0099998Y0085498D02*
X0103998Y0087998D01*
X0103998Y0082998D01*
X0099998Y0085498D01*
X0126300Y0075300D02*
X0128800Y0077800D01*
X0128749Y0077751D02*
X0128809Y0077808D01*
X0128871Y0077862D01*
X0128936Y0077914D01*
X0129004Y0077962D01*
X0129073Y0078007D01*
X0129145Y0078048D01*
X0129218Y0078087D01*
X0129293Y0078122D01*
X0129370Y0078153D01*
X0129448Y0078181D01*
X0129527Y0078205D01*
X0129607Y0078225D01*
X0129688Y0078241D01*
X0129770Y0078254D01*
X0129852Y0078263D01*
X0129935Y0078268D01*
X0130018Y0078269D01*
X0130100Y0078266D01*
X0130183Y0078260D01*
X0130265Y0078249D01*
X0130346Y0078235D01*
X0130427Y0078217D01*
X0130507Y0078195D01*
X0130586Y0078169D01*
X0130663Y0078140D01*
X0130739Y0078107D01*
X0130814Y0078071D01*
X0130886Y0078031D01*
X0130957Y0077988D01*
X0131025Y0077942D01*
X0131092Y0077892D01*
X0131156Y0077839D01*
X0131217Y0077784D01*
X0131276Y0077726D01*
X0131332Y0077665D01*
X0131385Y0077601D01*
X0131435Y0077535D01*
X0131481Y0077467D01*
X0131525Y0077397D01*
X0131565Y0077324D01*
X0131602Y0077250D01*
X0131635Y0077174D01*
X0131665Y0077097D01*
X0131691Y0077019D01*
X0131714Y0076939D01*
X0131732Y0076858D01*
X0131747Y0076777D01*
X0131758Y0076695D01*
X0131765Y0076612D01*
X0131769Y0076530D01*
X0131768Y0076447D01*
X0131764Y0076364D01*
X0131756Y0076282D01*
X0131743Y0076200D01*
X0131727Y0076119D01*
X0131708Y0076038D01*
X0131684Y0075959D01*
X0131657Y0075881D01*
X0131626Y0075804D01*
X0131592Y0075729D01*
X0131554Y0075655D01*
X0131513Y0075583D01*
X0131468Y0075514D01*
X0131421Y0075446D01*
X0131370Y0075381D01*
X0131316Y0075318D01*
X0131259Y0075258D01*
X0131200Y0075200D01*
X0131300Y0075300D02*
X0128800Y0072800D01*
X0117500Y0069000D02*
X0117504Y0069307D01*
X0117515Y0069613D01*
X0117534Y0069920D01*
X0117560Y0070225D01*
X0117594Y0070530D01*
X0117635Y0070834D01*
X0117684Y0071137D01*
X0117740Y0071439D01*
X0117804Y0071739D01*
X0117875Y0072037D01*
X0117953Y0072334D01*
X0118038Y0072629D01*
X0118131Y0072921D01*
X0118231Y0073211D01*
X0118338Y0073499D01*
X0118452Y0073784D01*
X0118572Y0074066D01*
X0118700Y0074344D01*
X0118835Y0074620D01*
X0118976Y0074892D01*
X0119124Y0075161D01*
X0119278Y0075426D01*
X0119439Y0075687D01*
X0119607Y0075945D01*
X0119780Y0076198D01*
X0119960Y0076446D01*
X0120146Y0076690D01*
X0120337Y0076930D01*
X0120535Y0077165D01*
X0120738Y0077394D01*
X0120947Y0077619D01*
X0121161Y0077839D01*
X0121381Y0078053D01*
X0121606Y0078262D01*
X0121835Y0078465D01*
X0122070Y0078663D01*
X0122310Y0078854D01*
X0122554Y0079040D01*
X0122802Y0079220D01*
X0123055Y0079393D01*
X0123313Y0079561D01*
X0123574Y0079722D01*
X0123839Y0079876D01*
X0124108Y0080024D01*
X0124380Y0080165D01*
X0124656Y0080300D01*
X0124934Y0080428D01*
X0125216Y0080548D01*
X0125501Y0080662D01*
X0125789Y0080769D01*
X0126079Y0080869D01*
X0126371Y0080962D01*
X0126666Y0081047D01*
X0126963Y0081125D01*
X0127261Y0081196D01*
X0127561Y0081260D01*
X0127863Y0081316D01*
X0128166Y0081365D01*
X0128470Y0081406D01*
X0128775Y0081440D01*
X0129080Y0081466D01*
X0129387Y0081485D01*
X0129693Y0081496D01*
X0130000Y0081500D01*
X0130307Y0081496D01*
X0130613Y0081485D01*
X0130920Y0081466D01*
X0131225Y0081440D01*
X0131530Y0081406D01*
X0131834Y0081365D01*
X0132137Y0081316D01*
X0132439Y0081260D01*
X0132739Y0081196D01*
X0133037Y0081125D01*
X0133334Y0081047D01*
X0133629Y0080962D01*
X0133921Y0080869D01*
X0134211Y0080769D01*
X0134499Y0080662D01*
X0134784Y0080548D01*
X0135066Y0080428D01*
X0135344Y0080300D01*
X0135620Y0080165D01*
X0135892Y0080024D01*
X0136161Y0079876D01*
X0136426Y0079722D01*
X0136687Y0079561D01*
X0136945Y0079393D01*
X0137198Y0079220D01*
X0137446Y0079040D01*
X0137690Y0078854D01*
X0137930Y0078663D01*
X0138165Y0078465D01*
X0138394Y0078262D01*
X0138619Y0078053D01*
X0138839Y0077839D01*
X0139053Y0077619D01*
X0139262Y0077394D01*
X0139465Y0077165D01*
X0139663Y0076930D01*
X0139854Y0076690D01*
X0140040Y0076446D01*
X0140220Y0076198D01*
X0140393Y0075945D01*
X0140561Y0075687D01*
X0140722Y0075426D01*
X0140876Y0075161D01*
X0141024Y0074892D01*
X0141165Y0074620D01*
X0141300Y0074344D01*
X0141428Y0074066D01*
X0141548Y0073784D01*
X0141662Y0073499D01*
X0141769Y0073211D01*
X0141869Y0072921D01*
X0141962Y0072629D01*
X0142047Y0072334D01*
X0142125Y0072037D01*
X0142196Y0071739D01*
X0142260Y0071439D01*
X0142316Y0071137D01*
X0142365Y0070834D01*
X0142406Y0070530D01*
X0142440Y0070225D01*
X0142466Y0069920D01*
X0142485Y0069613D01*
X0142496Y0069307D01*
X0142500Y0069000D01*
X0142496Y0068693D01*
X0142485Y0068387D01*
X0142466Y0068080D01*
X0142440Y0067775D01*
X0142406Y0067470D01*
X0142365Y0067166D01*
X0142316Y0066863D01*
X0142260Y0066561D01*
X0142196Y0066261D01*
X0142125Y0065963D01*
X0142047Y0065666D01*
X0141962Y0065371D01*
X0141869Y0065079D01*
X0141769Y0064789D01*
X0141662Y0064501D01*
X0141548Y0064216D01*
X0141428Y0063934D01*
X0141300Y0063656D01*
X0141165Y0063380D01*
X0141024Y0063108D01*
X0140876Y0062839D01*
X0140722Y0062574D01*
X0140561Y0062313D01*
X0140393Y0062055D01*
X0140220Y0061802D01*
X0140040Y0061554D01*
X0139854Y0061310D01*
X0139663Y0061070D01*
X0139465Y0060835D01*
X0139262Y0060606D01*
X0139053Y0060381D01*
X0138839Y0060161D01*
X0138619Y0059947D01*
X0138394Y0059738D01*
X0138165Y0059535D01*
X0137930Y0059337D01*
X0137690Y0059146D01*
X0137446Y0058960D01*
X0137198Y0058780D01*
X0136945Y0058607D01*
X0136687Y0058439D01*
X0136426Y0058278D01*
X0136161Y0058124D01*
X0135892Y0057976D01*
X0135620Y0057835D01*
X0135344Y0057700D01*
X0135066Y0057572D01*
X0134784Y0057452D01*
X0134499Y0057338D01*
X0134211Y0057231D01*
X0133921Y0057131D01*
X0133629Y0057038D01*
X0133334Y0056953D01*
X0133037Y0056875D01*
X0132739Y0056804D01*
X0132439Y0056740D01*
X0132137Y0056684D01*
X0131834Y0056635D01*
X0131530Y0056594D01*
X0131225Y0056560D01*
X0130920Y0056534D01*
X0130613Y0056515D01*
X0130307Y0056504D01*
X0130000Y0056500D01*
X0129693Y0056504D01*
X0129387Y0056515D01*
X0129080Y0056534D01*
X0128775Y0056560D01*
X0128470Y0056594D01*
X0128166Y0056635D01*
X0127863Y0056684D01*
X0127561Y0056740D01*
X0127261Y0056804D01*
X0126963Y0056875D01*
X0126666Y0056953D01*
X0126371Y0057038D01*
X0126079Y0057131D01*
X0125789Y0057231D01*
X0125501Y0057338D01*
X0125216Y0057452D01*
X0124934Y0057572D01*
X0124656Y0057700D01*
X0124380Y0057835D01*
X0124108Y0057976D01*
X0123839Y0058124D01*
X0123574Y0058278D01*
X0123313Y0058439D01*
X0123055Y0058607D01*
X0122802Y0058780D01*
X0122554Y0058960D01*
X0122310Y0059146D01*
X0122070Y0059337D01*
X0121835Y0059535D01*
X0121606Y0059738D01*
X0121381Y0059947D01*
X0121161Y0060161D01*
X0120947Y0060381D01*
X0120738Y0060606D01*
X0120535Y0060835D01*
X0120337Y0061070D01*
X0120146Y0061310D01*
X0119960Y0061554D01*
X0119780Y0061802D01*
X0119607Y0062055D01*
X0119439Y0062313D01*
X0119278Y0062574D01*
X0119124Y0062839D01*
X0118976Y0063108D01*
X0118835Y0063380D01*
X0118700Y0063656D01*
X0118572Y0063934D01*
X0118452Y0064216D01*
X0118338Y0064501D01*
X0118231Y0064789D01*
X0118131Y0065079D01*
X0118038Y0065371D01*
X0117953Y0065666D01*
X0117875Y0065963D01*
X0117804Y0066261D01*
X0117740Y0066561D01*
X0117684Y0066863D01*
X0117635Y0067166D01*
X0117594Y0067470D01*
X0117560Y0067775D01*
X0117534Y0068080D01*
X0117515Y0068387D01*
X0117504Y0068693D01*
X0117500Y0069000D01*
X0112997Y0059867D02*
X0086997Y0059867D01*
X0086937Y0059865D01*
X0086876Y0059860D01*
X0086817Y0059851D01*
X0086758Y0059838D01*
X0086699Y0059822D01*
X0086642Y0059802D01*
X0086587Y0059779D01*
X0086532Y0059752D01*
X0086480Y0059723D01*
X0086429Y0059690D01*
X0086380Y0059654D01*
X0086334Y0059616D01*
X0086290Y0059574D01*
X0086248Y0059530D01*
X0086210Y0059484D01*
X0086174Y0059435D01*
X0086141Y0059384D01*
X0086112Y0059332D01*
X0086085Y0059277D01*
X0086062Y0059222D01*
X0086042Y0059165D01*
X0086026Y0059106D01*
X0086013Y0059047D01*
X0086004Y0058988D01*
X0085999Y0058927D01*
X0085997Y0058867D01*
X0085997Y0050867D01*
X0085999Y0050807D01*
X0086004Y0050746D01*
X0086013Y0050687D01*
X0086026Y0050628D01*
X0086042Y0050569D01*
X0086062Y0050512D01*
X0086085Y0050457D01*
X0086112Y0050402D01*
X0086141Y0050350D01*
X0086174Y0050299D01*
X0086210Y0050250D01*
X0086248Y0050204D01*
X0086290Y0050160D01*
X0086334Y0050118D01*
X0086380Y0050080D01*
X0086429Y0050044D01*
X0086480Y0050011D01*
X0086532Y0049982D01*
X0086587Y0049955D01*
X0086642Y0049932D01*
X0086699Y0049912D01*
X0086758Y0049896D01*
X0086817Y0049883D01*
X0086876Y0049874D01*
X0086937Y0049869D01*
X0086997Y0049867D01*
X0112997Y0049867D01*
X0113057Y0049869D01*
X0113118Y0049874D01*
X0113177Y0049883D01*
X0113236Y0049896D01*
X0113295Y0049912D01*
X0113352Y0049932D01*
X0113407Y0049955D01*
X0113462Y0049982D01*
X0113514Y0050011D01*
X0113565Y0050044D01*
X0113614Y0050080D01*
X0113660Y0050118D01*
X0113704Y0050160D01*
X0113746Y0050204D01*
X0113784Y0050250D01*
X0113820Y0050299D01*
X0113853Y0050350D01*
X0113882Y0050402D01*
X0113909Y0050457D01*
X0113932Y0050512D01*
X0113952Y0050569D01*
X0113968Y0050628D01*
X0113981Y0050687D01*
X0113990Y0050746D01*
X0113995Y0050807D01*
X0113997Y0050867D01*
X0113997Y0058867D01*
X0113995Y0058927D01*
X0113990Y0058988D01*
X0113981Y0059047D01*
X0113968Y0059106D01*
X0113952Y0059165D01*
X0113932Y0059222D01*
X0113909Y0059277D01*
X0113882Y0059332D01*
X0113853Y0059384D01*
X0113820Y0059435D01*
X0113784Y0059484D01*
X0113746Y0059530D01*
X0113704Y0059574D01*
X0113660Y0059616D01*
X0113614Y0059654D01*
X0113565Y0059690D01*
X0113514Y0059723D01*
X0113462Y0059752D01*
X0113407Y0059779D01*
X0113352Y0059802D01*
X0113295Y0059822D01*
X0113236Y0059838D01*
X0113177Y0059851D01*
X0113118Y0059860D01*
X0113057Y0059865D01*
X0112997Y0059867D01*
X0105997Y0054867D02*
X0099997Y0054867D01*
X0099997Y0052367D01*
X0099997Y0054867D02*
X0097497Y0054867D01*
X0099997Y0054867D02*
X0099997Y0057367D01*
X0099997Y0054867D02*
X0103997Y0057367D01*
X0103997Y0052367D01*
X0099997Y0054867D01*
X0125800Y0043800D02*
X0128300Y0046300D01*
X0128249Y0046251D02*
X0128309Y0046308D01*
X0128371Y0046362D01*
X0128436Y0046414D01*
X0128504Y0046462D01*
X0128573Y0046507D01*
X0128645Y0046548D01*
X0128718Y0046587D01*
X0128793Y0046622D01*
X0128870Y0046653D01*
X0128948Y0046681D01*
X0129027Y0046705D01*
X0129107Y0046725D01*
X0129188Y0046741D01*
X0129270Y0046754D01*
X0129352Y0046763D01*
X0129435Y0046768D01*
X0129518Y0046769D01*
X0129600Y0046766D01*
X0129683Y0046760D01*
X0129765Y0046749D01*
X0129846Y0046735D01*
X0129927Y0046717D01*
X0130007Y0046695D01*
X0130086Y0046669D01*
X0130163Y0046640D01*
X0130239Y0046607D01*
X0130314Y0046571D01*
X0130386Y0046531D01*
X0130457Y0046488D01*
X0130525Y0046442D01*
X0130592Y0046392D01*
X0130656Y0046339D01*
X0130717Y0046284D01*
X0130776Y0046226D01*
X0130832Y0046165D01*
X0130885Y0046101D01*
X0130935Y0046035D01*
X0130981Y0045967D01*
X0131025Y0045897D01*
X0131065Y0045824D01*
X0131102Y0045750D01*
X0131135Y0045674D01*
X0131165Y0045597D01*
X0131191Y0045519D01*
X0131214Y0045439D01*
X0131232Y0045358D01*
X0131247Y0045277D01*
X0131258Y0045195D01*
X0131265Y0045112D01*
X0131269Y0045030D01*
X0131268Y0044947D01*
X0131264Y0044864D01*
X0131256Y0044782D01*
X0131243Y0044700D01*
X0131227Y0044619D01*
X0131208Y0044538D01*
X0131184Y0044459D01*
X0131157Y0044381D01*
X0131126Y0044304D01*
X0131092Y0044229D01*
X0131054Y0044155D01*
X0131013Y0044083D01*
X0130968Y0044014D01*
X0130921Y0043946D01*
X0130870Y0043881D01*
X0130816Y0043818D01*
X0130759Y0043758D01*
X0130700Y0043700D01*
X0130800Y0043800D02*
X0128300Y0041300D01*
X0117000Y0037500D02*
X0117004Y0037807D01*
X0117015Y0038113D01*
X0117034Y0038420D01*
X0117060Y0038725D01*
X0117094Y0039030D01*
X0117135Y0039334D01*
X0117184Y0039637D01*
X0117240Y0039939D01*
X0117304Y0040239D01*
X0117375Y0040537D01*
X0117453Y0040834D01*
X0117538Y0041129D01*
X0117631Y0041421D01*
X0117731Y0041711D01*
X0117838Y0041999D01*
X0117952Y0042284D01*
X0118072Y0042566D01*
X0118200Y0042844D01*
X0118335Y0043120D01*
X0118476Y0043392D01*
X0118624Y0043661D01*
X0118778Y0043926D01*
X0118939Y0044187D01*
X0119107Y0044445D01*
X0119280Y0044698D01*
X0119460Y0044946D01*
X0119646Y0045190D01*
X0119837Y0045430D01*
X0120035Y0045665D01*
X0120238Y0045894D01*
X0120447Y0046119D01*
X0120661Y0046339D01*
X0120881Y0046553D01*
X0121106Y0046762D01*
X0121335Y0046965D01*
X0121570Y0047163D01*
X0121810Y0047354D01*
X0122054Y0047540D01*
X0122302Y0047720D01*
X0122555Y0047893D01*
X0122813Y0048061D01*
X0123074Y0048222D01*
X0123339Y0048376D01*
X0123608Y0048524D01*
X0123880Y0048665D01*
X0124156Y0048800D01*
X0124434Y0048928D01*
X0124716Y0049048D01*
X0125001Y0049162D01*
X0125289Y0049269D01*
X0125579Y0049369D01*
X0125871Y0049462D01*
X0126166Y0049547D01*
X0126463Y0049625D01*
X0126761Y0049696D01*
X0127061Y0049760D01*
X0127363Y0049816D01*
X0127666Y0049865D01*
X0127970Y0049906D01*
X0128275Y0049940D01*
X0128580Y0049966D01*
X0128887Y0049985D01*
X0129193Y0049996D01*
X0129500Y0050000D01*
X0129807Y0049996D01*
X0130113Y0049985D01*
X0130420Y0049966D01*
X0130725Y0049940D01*
X0131030Y0049906D01*
X0131334Y0049865D01*
X0131637Y0049816D01*
X0131939Y0049760D01*
X0132239Y0049696D01*
X0132537Y0049625D01*
X0132834Y0049547D01*
X0133129Y0049462D01*
X0133421Y0049369D01*
X0133711Y0049269D01*
X0133999Y0049162D01*
X0134284Y0049048D01*
X0134566Y0048928D01*
X0134844Y0048800D01*
X0135120Y0048665D01*
X0135392Y0048524D01*
X0135661Y0048376D01*
X0135926Y0048222D01*
X0136187Y0048061D01*
X0136445Y0047893D01*
X0136698Y0047720D01*
X0136946Y0047540D01*
X0137190Y0047354D01*
X0137430Y0047163D01*
X0137665Y0046965D01*
X0137894Y0046762D01*
X0138119Y0046553D01*
X0138339Y0046339D01*
X0138553Y0046119D01*
X0138762Y0045894D01*
X0138965Y0045665D01*
X0139163Y0045430D01*
X0139354Y0045190D01*
X0139540Y0044946D01*
X0139720Y0044698D01*
X0139893Y0044445D01*
X0140061Y0044187D01*
X0140222Y0043926D01*
X0140376Y0043661D01*
X0140524Y0043392D01*
X0140665Y0043120D01*
X0140800Y0042844D01*
X0140928Y0042566D01*
X0141048Y0042284D01*
X0141162Y0041999D01*
X0141269Y0041711D01*
X0141369Y0041421D01*
X0141462Y0041129D01*
X0141547Y0040834D01*
X0141625Y0040537D01*
X0141696Y0040239D01*
X0141760Y0039939D01*
X0141816Y0039637D01*
X0141865Y0039334D01*
X0141906Y0039030D01*
X0141940Y0038725D01*
X0141966Y0038420D01*
X0141985Y0038113D01*
X0141996Y0037807D01*
X0142000Y0037500D01*
X0141996Y0037193D01*
X0141985Y0036887D01*
X0141966Y0036580D01*
X0141940Y0036275D01*
X0141906Y0035970D01*
X0141865Y0035666D01*
X0141816Y0035363D01*
X0141760Y0035061D01*
X0141696Y0034761D01*
X0141625Y0034463D01*
X0141547Y0034166D01*
X0141462Y0033871D01*
X0141369Y0033579D01*
X0141269Y0033289D01*
X0141162Y0033001D01*
X0141048Y0032716D01*
X0140928Y0032434D01*
X0140800Y0032156D01*
X0140665Y0031880D01*
X0140524Y0031608D01*
X0140376Y0031339D01*
X0140222Y0031074D01*
X0140061Y0030813D01*
X0139893Y0030555D01*
X0139720Y0030302D01*
X0139540Y0030054D01*
X0139354Y0029810D01*
X0139163Y0029570D01*
X0138965Y0029335D01*
X0138762Y0029106D01*
X0138553Y0028881D01*
X0138339Y0028661D01*
X0138119Y0028447D01*
X0137894Y0028238D01*
X0137665Y0028035D01*
X0137430Y0027837D01*
X0137190Y0027646D01*
X0136946Y0027460D01*
X0136698Y0027280D01*
X0136445Y0027107D01*
X0136187Y0026939D01*
X0135926Y0026778D01*
X0135661Y0026624D01*
X0135392Y0026476D01*
X0135120Y0026335D01*
X0134844Y0026200D01*
X0134566Y0026072D01*
X0134284Y0025952D01*
X0133999Y0025838D01*
X0133711Y0025731D01*
X0133421Y0025631D01*
X0133129Y0025538D01*
X0132834Y0025453D01*
X0132537Y0025375D01*
X0132239Y0025304D01*
X0131939Y0025240D01*
X0131637Y0025184D01*
X0131334Y0025135D01*
X0131030Y0025094D01*
X0130725Y0025060D01*
X0130420Y0025034D01*
X0130113Y0025015D01*
X0129807Y0025004D01*
X0129500Y0025000D01*
X0129193Y0025004D01*
X0128887Y0025015D01*
X0128580Y0025034D01*
X0128275Y0025060D01*
X0127970Y0025094D01*
X0127666Y0025135D01*
X0127363Y0025184D01*
X0127061Y0025240D01*
X0126761Y0025304D01*
X0126463Y0025375D01*
X0126166Y0025453D01*
X0125871Y0025538D01*
X0125579Y0025631D01*
X0125289Y0025731D01*
X0125001Y0025838D01*
X0124716Y0025952D01*
X0124434Y0026072D01*
X0124156Y0026200D01*
X0123880Y0026335D01*
X0123608Y0026476D01*
X0123339Y0026624D01*
X0123074Y0026778D01*
X0122813Y0026939D01*
X0122555Y0027107D01*
X0122302Y0027280D01*
X0122054Y0027460D01*
X0121810Y0027646D01*
X0121570Y0027837D01*
X0121335Y0028035D01*
X0121106Y0028238D01*
X0120881Y0028447D01*
X0120661Y0028661D01*
X0120447Y0028881D01*
X0120238Y0029106D01*
X0120035Y0029335D01*
X0119837Y0029570D01*
X0119646Y0029810D01*
X0119460Y0030054D01*
X0119280Y0030302D01*
X0119107Y0030555D01*
X0118939Y0030813D01*
X0118778Y0031074D01*
X0118624Y0031339D01*
X0118476Y0031608D01*
X0118335Y0031880D01*
X0118200Y0032156D01*
X0118072Y0032434D01*
X0117952Y0032716D01*
X0117838Y0033001D01*
X0117731Y0033289D01*
X0117631Y0033579D01*
X0117538Y0033871D01*
X0117453Y0034166D01*
X0117375Y0034463D01*
X0117304Y0034761D01*
X0117240Y0035061D01*
X0117184Y0035363D01*
X0117135Y0035666D01*
X0117094Y0035970D01*
X0117060Y0036275D01*
X0117034Y0036580D01*
X0117015Y0036887D01*
X0117004Y0037193D01*
X0117000Y0037500D01*
X0113003Y0029875D02*
X0087003Y0029875D01*
X0086943Y0029873D01*
X0086882Y0029868D01*
X0086823Y0029859D01*
X0086764Y0029846D01*
X0086705Y0029830D01*
X0086648Y0029810D01*
X0086593Y0029787D01*
X0086538Y0029760D01*
X0086486Y0029731D01*
X0086435Y0029698D01*
X0086386Y0029662D01*
X0086340Y0029624D01*
X0086296Y0029582D01*
X0086254Y0029538D01*
X0086216Y0029492D01*
X0086180Y0029443D01*
X0086147Y0029392D01*
X0086118Y0029340D01*
X0086091Y0029285D01*
X0086068Y0029230D01*
X0086048Y0029173D01*
X0086032Y0029114D01*
X0086019Y0029055D01*
X0086010Y0028996D01*
X0086005Y0028935D01*
X0086003Y0028875D01*
X0086003Y0020875D01*
X0086005Y0020815D01*
X0086010Y0020754D01*
X0086019Y0020695D01*
X0086032Y0020636D01*
X0086048Y0020577D01*
X0086068Y0020520D01*
X0086091Y0020465D01*
X0086118Y0020410D01*
X0086147Y0020358D01*
X0086180Y0020307D01*
X0086216Y0020258D01*
X0086254Y0020212D01*
X0086296Y0020168D01*
X0086340Y0020126D01*
X0086386Y0020088D01*
X0086435Y0020052D01*
X0086486Y0020019D01*
X0086538Y0019990D01*
X0086593Y0019963D01*
X0086648Y0019940D01*
X0086705Y0019920D01*
X0086764Y0019904D01*
X0086823Y0019891D01*
X0086882Y0019882D01*
X0086943Y0019877D01*
X0087003Y0019875D01*
X0113003Y0019875D01*
X0113063Y0019877D01*
X0113124Y0019882D01*
X0113183Y0019891D01*
X0113242Y0019904D01*
X0113301Y0019920D01*
X0113358Y0019940D01*
X0113413Y0019963D01*
X0113468Y0019990D01*
X0113520Y0020019D01*
X0113571Y0020052D01*
X0113620Y0020088D01*
X0113666Y0020126D01*
X0113710Y0020168D01*
X0113752Y0020212D01*
X0113790Y0020258D01*
X0113826Y0020307D01*
X0113859Y0020358D01*
X0113888Y0020410D01*
X0113915Y0020465D01*
X0113938Y0020520D01*
X0113958Y0020577D01*
X0113974Y0020636D01*
X0113987Y0020695D01*
X0113996Y0020754D01*
X0114001Y0020815D01*
X0114003Y0020875D01*
X0114003Y0028875D01*
X0114001Y0028935D01*
X0113996Y0028996D01*
X0113987Y0029055D01*
X0113974Y0029114D01*
X0113958Y0029173D01*
X0113938Y0029230D01*
X0113915Y0029285D01*
X0113888Y0029340D01*
X0113859Y0029392D01*
X0113826Y0029443D01*
X0113790Y0029492D01*
X0113752Y0029538D01*
X0113710Y0029582D01*
X0113666Y0029624D01*
X0113620Y0029662D01*
X0113571Y0029698D01*
X0113520Y0029731D01*
X0113468Y0029760D01*
X0113413Y0029787D01*
X0113358Y0029810D01*
X0113301Y0029830D01*
X0113242Y0029846D01*
X0113183Y0029859D01*
X0113124Y0029868D01*
X0113063Y0029873D01*
X0113003Y0029875D01*
X0106003Y0024875D02*
X0100003Y0024875D01*
X0100003Y0022375D01*
X0100003Y0024875D02*
X0097503Y0024875D01*
X0100003Y0024875D02*
X0100003Y0027375D01*
X0100003Y0024875D02*
X0104003Y0027375D01*
X0104003Y0022375D01*
X0100003Y0024875D01*
X0128300Y0031300D02*
X0130800Y0033800D01*
X0133300Y0031300D02*
X0130800Y0028800D01*
X0130751Y0028749D02*
X0130691Y0028692D01*
X0130629Y0028638D01*
X0130564Y0028586D01*
X0130496Y0028538D01*
X0130427Y0028493D01*
X0130355Y0028452D01*
X0130282Y0028413D01*
X0130207Y0028378D01*
X0130130Y0028347D01*
X0130052Y0028319D01*
X0129973Y0028295D01*
X0129893Y0028275D01*
X0129812Y0028259D01*
X0129730Y0028246D01*
X0129648Y0028237D01*
X0129565Y0028232D01*
X0129482Y0028231D01*
X0129400Y0028234D01*
X0129317Y0028240D01*
X0129235Y0028251D01*
X0129154Y0028265D01*
X0129073Y0028283D01*
X0128993Y0028305D01*
X0128914Y0028331D01*
X0128837Y0028360D01*
X0128761Y0028393D01*
X0128686Y0028429D01*
X0128614Y0028469D01*
X0128543Y0028512D01*
X0128475Y0028558D01*
X0128408Y0028608D01*
X0128344Y0028661D01*
X0128283Y0028716D01*
X0128224Y0028774D01*
X0128168Y0028835D01*
X0128115Y0028899D01*
X0128065Y0028965D01*
X0128019Y0029033D01*
X0127975Y0029103D01*
X0127935Y0029176D01*
X0127898Y0029250D01*
X0127865Y0029326D01*
X0127835Y0029403D01*
X0127809Y0029481D01*
X0127786Y0029561D01*
X0127768Y0029642D01*
X0127753Y0029723D01*
X0127742Y0029805D01*
X0127735Y0029888D01*
X0127731Y0029970D01*
X0127732Y0030053D01*
X0127736Y0030136D01*
X0127744Y0030218D01*
X0127757Y0030300D01*
X0127773Y0030381D01*
X0127792Y0030462D01*
X0127816Y0030541D01*
X0127843Y0030619D01*
X0127874Y0030696D01*
X0127908Y0030771D01*
X0127946Y0030845D01*
X0127987Y0030917D01*
X0128032Y0030986D01*
X0128079Y0031054D01*
X0128130Y0031119D01*
X0128184Y0031182D01*
X0128241Y0031242D01*
X0128300Y0031300D01*
X0131300Y0060300D02*
X0133800Y0062800D01*
X0131300Y0065300D02*
X0128800Y0062800D01*
X0128741Y0062742D01*
X0128684Y0062682D01*
X0128630Y0062619D01*
X0128579Y0062554D01*
X0128532Y0062486D01*
X0128487Y0062417D01*
X0128446Y0062345D01*
X0128408Y0062271D01*
X0128374Y0062196D01*
X0128343Y0062119D01*
X0128316Y0062041D01*
X0128292Y0061962D01*
X0128273Y0061881D01*
X0128257Y0061800D01*
X0128244Y0061718D01*
X0128236Y0061636D01*
X0128232Y0061553D01*
X0128231Y0061470D01*
X0128235Y0061388D01*
X0128242Y0061305D01*
X0128253Y0061223D01*
X0128268Y0061142D01*
X0128286Y0061061D01*
X0128309Y0060981D01*
X0128335Y0060903D01*
X0128365Y0060826D01*
X0128398Y0060750D01*
X0128435Y0060676D01*
X0128475Y0060603D01*
X0128519Y0060533D01*
X0128565Y0060465D01*
X0128615Y0060399D01*
X0128668Y0060335D01*
X0128724Y0060274D01*
X0128783Y0060216D01*
X0128844Y0060161D01*
X0128908Y0060108D01*
X0128975Y0060058D01*
X0129043Y0060012D01*
X0129114Y0059969D01*
X0129186Y0059929D01*
X0129261Y0059893D01*
X0129337Y0059860D01*
X0129414Y0059831D01*
X0129493Y0059805D01*
X0129573Y0059783D01*
X0129654Y0059765D01*
X0129735Y0059751D01*
X0129817Y0059740D01*
X0129900Y0059734D01*
X0129982Y0059731D01*
X0130065Y0059732D01*
X0130148Y0059737D01*
X0130230Y0059746D01*
X0130312Y0059759D01*
X0130393Y0059775D01*
X0130473Y0059795D01*
X0130552Y0059819D01*
X0130630Y0059847D01*
X0130707Y0059878D01*
X0130782Y0059913D01*
X0130855Y0059952D01*
X0130927Y0059993D01*
X0130996Y0060038D01*
X0131064Y0060086D01*
X0131129Y0060138D01*
X0131191Y0060192D01*
X0131251Y0060249D01*
X0131300Y0089300D02*
X0133800Y0091800D01*
X0131300Y0094300D02*
X0128800Y0091800D01*
X0128741Y0091742D01*
X0128684Y0091682D01*
X0128630Y0091619D01*
X0128579Y0091554D01*
X0128532Y0091486D01*
X0128487Y0091417D01*
X0128446Y0091345D01*
X0128408Y0091271D01*
X0128374Y0091196D01*
X0128343Y0091119D01*
X0128316Y0091041D01*
X0128292Y0090962D01*
X0128273Y0090881D01*
X0128257Y0090800D01*
X0128244Y0090718D01*
X0128236Y0090636D01*
X0128232Y0090553D01*
X0128231Y0090470D01*
X0128235Y0090388D01*
X0128242Y0090305D01*
X0128253Y0090223D01*
X0128268Y0090142D01*
X0128286Y0090061D01*
X0128309Y0089981D01*
X0128335Y0089903D01*
X0128365Y0089826D01*
X0128398Y0089750D01*
X0128435Y0089676D01*
X0128475Y0089603D01*
X0128519Y0089533D01*
X0128565Y0089465D01*
X0128615Y0089399D01*
X0128668Y0089335D01*
X0128724Y0089274D01*
X0128783Y0089216D01*
X0128844Y0089161D01*
X0128908Y0089108D01*
X0128975Y0089058D01*
X0129043Y0089012D01*
X0129114Y0088969D01*
X0129186Y0088929D01*
X0129261Y0088893D01*
X0129337Y0088860D01*
X0129414Y0088831D01*
X0129493Y0088805D01*
X0129573Y0088783D01*
X0129654Y0088765D01*
X0129735Y0088751D01*
X0129817Y0088740D01*
X0129900Y0088734D01*
X0129982Y0088731D01*
X0130065Y0088732D01*
X0130148Y0088737D01*
X0130230Y0088746D01*
X0130312Y0088759D01*
X0130393Y0088775D01*
X0130473Y0088795D01*
X0130552Y0088819D01*
X0130630Y0088847D01*
X0130707Y0088878D01*
X0130782Y0088913D01*
X0130855Y0088952D01*
X0130927Y0088993D01*
X0130996Y0089038D01*
X0131064Y0089086D01*
X0131129Y0089138D01*
X0131191Y0089192D01*
X0131251Y0089249D01*
X0101993Y0118634D02*
X0101993Y0120634D01*
X0101993Y0124634D02*
X0098493Y0124634D01*
X0098493Y0123334D01*
X0105493Y0123334D01*
X0105493Y0124634D01*
X0101993Y0124634D01*
X0101993Y0128134D01*
X0104993Y0129134D02*
X0104993Y0132134D01*
X0103493Y0130634D02*
X0106493Y0130634D01*
X0108500Y0137047D02*
X0108500Y0138626D01*
X0114000Y0139252D02*
X0114000Y0155748D01*
X0108500Y0156374D02*
X0108500Y0157953D01*
X0108500Y0148626D02*
X0108500Y0146374D01*
X0114000Y0139252D02*
X0113798Y0139097D01*
X0113593Y0138947D01*
X0113384Y0138801D01*
X0113171Y0138661D01*
X0112956Y0138527D01*
X0112736Y0138397D01*
X0112514Y0138273D01*
X0112289Y0138154D01*
X0112061Y0138041D01*
X0111831Y0137933D01*
X0111598Y0137831D01*
X0111362Y0137734D01*
X0111125Y0137643D01*
X0110885Y0137558D01*
X0110643Y0137479D01*
X0110399Y0137406D01*
X0110154Y0137339D01*
X0109907Y0137278D01*
X0109658Y0137222D01*
X0109409Y0137173D01*
X0109158Y0137130D01*
X0108906Y0137093D01*
X0108653Y0137062D01*
X0108400Y0137037D01*
X0108146Y0137018D01*
X0107892Y0137005D01*
X0107638Y0136999D01*
X0107383Y0136999D01*
X0107129Y0137005D01*
X0106875Y0137017D01*
X0106621Y0137035D01*
X0106367Y0137059D01*
X0106115Y0137090D01*
X0105863Y0137126D01*
X0105612Y0137169D01*
X0105362Y0137218D01*
X0105114Y0137273D01*
X0104867Y0137334D01*
X0104621Y0137400D01*
X0104377Y0137473D01*
X0104135Y0137552D01*
X0103895Y0137636D01*
X0103657Y0137726D01*
X0103422Y0137822D01*
X0103188Y0137924D01*
X0102957Y0138031D01*
X0102729Y0138144D01*
X0102504Y0138263D01*
X0102282Y0138386D01*
X0102062Y0138516D01*
X0101846Y0138650D01*
X0101634Y0138790D01*
X0101424Y0138934D01*
X0101219Y0139084D01*
X0101016Y0139239D01*
X0100818Y0139398D01*
X0100624Y0139563D01*
X0100434Y0139732D01*
X0100247Y0139905D01*
X0100066Y0140083D01*
X0099888Y0140266D01*
X0099715Y0140452D01*
X0099546Y0140643D01*
X0099383Y0140838D01*
X0099224Y0141036D01*
X0099069Y0141239D01*
X0098920Y0141445D01*
X0098776Y0141655D01*
X0098637Y0141868D01*
X0098503Y0142084D01*
X0098375Y0142304D01*
X0098251Y0142527D01*
X0098134Y0142752D01*
X0098021Y0142981D01*
X0097915Y0143212D01*
X0097814Y0143445D01*
X0097718Y0143681D01*
X0097629Y0143919D01*
X0097545Y0144160D01*
X0097467Y0144402D01*
X0097467Y0150598D02*
X0097545Y0150840D01*
X0097629Y0151081D01*
X0097718Y0151319D01*
X0097814Y0151555D01*
X0097915Y0151788D01*
X0098021Y0152019D01*
X0098134Y0152248D01*
X0098251Y0152473D01*
X0098375Y0152696D01*
X0098503Y0152916D01*
X0098637Y0153132D01*
X0098776Y0153345D01*
X0098920Y0153555D01*
X0099069Y0153761D01*
X0099224Y0153964D01*
X0099383Y0154162D01*
X0099546Y0154357D01*
X0099715Y0154548D01*
X0099888Y0154734D01*
X0100066Y0154917D01*
X0100247Y0155095D01*
X0100434Y0155268D01*
X0100624Y0155437D01*
X0100818Y0155602D01*
X0101016Y0155761D01*
X0101219Y0155916D01*
X0101424Y0156066D01*
X0101634Y0156210D01*
X0101846Y0156350D01*
X0102062Y0156484D01*
X0102282Y0156614D01*
X0102504Y0156737D01*
X0102729Y0156856D01*
X0102957Y0156969D01*
X0103188Y0157076D01*
X0103422Y0157178D01*
X0103657Y0157274D01*
X0103895Y0157364D01*
X0104135Y0157448D01*
X0104377Y0157527D01*
X0104621Y0157600D01*
X0104867Y0157666D01*
X0105114Y0157727D01*
X0105362Y0157782D01*
X0105612Y0157831D01*
X0105863Y0157874D01*
X0106115Y0157910D01*
X0106367Y0157941D01*
X0106621Y0157965D01*
X0106875Y0157983D01*
X0107129Y0157995D01*
X0107383Y0158001D01*
X0107638Y0158001D01*
X0107892Y0157995D01*
X0108146Y0157982D01*
X0108400Y0157963D01*
X0108653Y0157938D01*
X0108906Y0157907D01*
X0109158Y0157870D01*
X0109409Y0157827D01*
X0109658Y0157778D01*
X0109907Y0157722D01*
X0110154Y0157661D01*
X0110399Y0157594D01*
X0110643Y0157521D01*
X0110885Y0157442D01*
X0111125Y0157357D01*
X0111362Y0157266D01*
X0111598Y0157169D01*
X0111831Y0157067D01*
X0112061Y0156959D01*
X0112289Y0156846D01*
X0112514Y0156727D01*
X0112736Y0156603D01*
X0112956Y0156473D01*
X0113171Y0156339D01*
X0113384Y0156199D01*
X0113593Y0156053D01*
X0113798Y0155903D01*
X0114000Y0155748D01*
X0123000Y0147000D02*
X0136000Y0147000D01*
X0136087Y0146998D01*
X0136174Y0146992D01*
X0136261Y0146983D01*
X0136347Y0146970D01*
X0136433Y0146953D01*
X0136518Y0146932D01*
X0136601Y0146907D01*
X0136684Y0146879D01*
X0136765Y0146848D01*
X0136845Y0146813D01*
X0136923Y0146774D01*
X0137000Y0146732D01*
X0137075Y0146687D01*
X0137147Y0146638D01*
X0137218Y0146587D01*
X0137286Y0146532D01*
X0137351Y0146475D01*
X0137414Y0146414D01*
X0137475Y0146351D01*
X0137532Y0146286D01*
X0137587Y0146218D01*
X0137638Y0146147D01*
X0137687Y0146075D01*
X0137732Y0146000D01*
X0137774Y0145923D01*
X0137813Y0145845D01*
X0137848Y0145765D01*
X0137879Y0145684D01*
X0137907Y0145601D01*
X0137932Y0145518D01*
X0137953Y0145433D01*
X0137970Y0145347D01*
X0137983Y0145261D01*
X0137992Y0145174D01*
X0137998Y0145087D01*
X0138000Y0145000D01*
X0134500Y0142500D02*
X0130800Y0142500D01*
X0128300Y0142500D02*
X0124500Y0142500D01*
X0121000Y0145000D02*
X0121002Y0145087D01*
X0121008Y0145174D01*
X0121017Y0145261D01*
X0121030Y0145347D01*
X0121047Y0145433D01*
X0121068Y0145518D01*
X0121093Y0145601D01*
X0121121Y0145684D01*
X0121152Y0145765D01*
X0121187Y0145845D01*
X0121226Y0145923D01*
X0121268Y0146000D01*
X0121313Y0146075D01*
X0121362Y0146147D01*
X0121413Y0146218D01*
X0121468Y0146286D01*
X0121525Y0146351D01*
X0121586Y0146414D01*
X0121649Y0146475D01*
X0121714Y0146532D01*
X0121782Y0146587D01*
X0121853Y0146638D01*
X0121925Y0146687D01*
X0122000Y0146732D01*
X0122077Y0146774D01*
X0122155Y0146813D01*
X0122235Y0146848D01*
X0122316Y0146879D01*
X0122399Y0146907D01*
X0122482Y0146932D01*
X0122567Y0146953D01*
X0122653Y0146970D01*
X0122739Y0146983D01*
X0122826Y0146992D01*
X0122913Y0146998D01*
X0123000Y0147000D01*
X0121000Y0140000D02*
X0121002Y0139913D01*
X0121008Y0139826D01*
X0121017Y0139739D01*
X0121030Y0139653D01*
X0121047Y0139567D01*
X0121068Y0139482D01*
X0121093Y0139399D01*
X0121121Y0139316D01*
X0121152Y0139235D01*
X0121187Y0139155D01*
X0121226Y0139077D01*
X0121268Y0139000D01*
X0121313Y0138925D01*
X0121362Y0138853D01*
X0121413Y0138782D01*
X0121468Y0138714D01*
X0121525Y0138649D01*
X0121586Y0138586D01*
X0121649Y0138525D01*
X0121714Y0138468D01*
X0121782Y0138413D01*
X0121853Y0138362D01*
X0121925Y0138313D01*
X0122000Y0138268D01*
X0122077Y0138226D01*
X0122155Y0138187D01*
X0122235Y0138152D01*
X0122316Y0138121D01*
X0122399Y0138093D01*
X0122482Y0138068D01*
X0122567Y0138047D01*
X0122653Y0138030D01*
X0122739Y0138017D01*
X0122826Y0138008D01*
X0122913Y0138002D01*
X0123000Y0138000D01*
X0136000Y0138000D01*
X0136087Y0138002D01*
X0136174Y0138008D01*
X0136261Y0138017D01*
X0136347Y0138030D01*
X0136433Y0138047D01*
X0136518Y0138068D01*
X0136601Y0138093D01*
X0136684Y0138121D01*
X0136765Y0138152D01*
X0136845Y0138187D01*
X0136923Y0138226D01*
X0137000Y0138268D01*
X0137075Y0138313D01*
X0137147Y0138362D01*
X0137218Y0138413D01*
X0137286Y0138468D01*
X0137351Y0138525D01*
X0137414Y0138586D01*
X0137475Y0138649D01*
X0137532Y0138714D01*
X0137587Y0138782D01*
X0137638Y0138853D01*
X0137687Y0138925D01*
X0137732Y0139000D01*
X0137774Y0139077D01*
X0137813Y0139155D01*
X0137848Y0139235D01*
X0137879Y0139316D01*
X0137907Y0139399D01*
X0137932Y0139482D01*
X0137953Y0139567D01*
X0137970Y0139653D01*
X0137983Y0139739D01*
X0137992Y0139826D01*
X0137998Y0139913D01*
X0138000Y0140000D01*
X0131993Y0135634D02*
X0098993Y0135634D01*
X0098895Y0135632D01*
X0098797Y0135626D01*
X0098699Y0135617D01*
X0098602Y0135603D01*
X0098505Y0135586D01*
X0098409Y0135565D01*
X0098314Y0135540D01*
X0098220Y0135512D01*
X0098128Y0135479D01*
X0098036Y0135444D01*
X0097946Y0135404D01*
X0097858Y0135362D01*
X0097771Y0135315D01*
X0097687Y0135266D01*
X0097604Y0135213D01*
X0097524Y0135157D01*
X0097445Y0135097D01*
X0097369Y0135035D01*
X0097296Y0134970D01*
X0097225Y0134902D01*
X0097157Y0134831D01*
X0097092Y0134758D01*
X0097030Y0134682D01*
X0096970Y0134603D01*
X0096914Y0134523D01*
X0096861Y0134440D01*
X0096812Y0134356D01*
X0096765Y0134269D01*
X0096723Y0134181D01*
X0096683Y0134091D01*
X0096648Y0133999D01*
X0096615Y0133907D01*
X0096587Y0133813D01*
X0096562Y0133718D01*
X0096541Y0133622D01*
X0096524Y0133525D01*
X0096510Y0133428D01*
X0096501Y0133330D01*
X0096495Y0133232D01*
X0096493Y0133134D01*
X0131993Y0135634D02*
X0132285Y0135630D01*
X0132577Y0135620D01*
X0132869Y0135602D01*
X0133160Y0135577D01*
X0133451Y0135545D01*
X0133740Y0135506D01*
X0134029Y0135460D01*
X0134316Y0135407D01*
X0134602Y0135347D01*
X0134887Y0135280D01*
X0135169Y0135206D01*
X0135450Y0135125D01*
X0135729Y0135038D01*
X0136006Y0134943D01*
X0136280Y0134842D01*
X0136551Y0134734D01*
X0136820Y0134620D01*
X0137086Y0134499D01*
X0137350Y0134372D01*
X0137609Y0134239D01*
X0137866Y0134099D01*
X0138119Y0133952D01*
X0138369Y0133800D01*
X0138614Y0133642D01*
X0138856Y0133478D01*
X0139094Y0133308D01*
X0139327Y0133132D01*
X0139556Y0132951D01*
X0139781Y0132764D01*
X0140001Y0132571D01*
X0140216Y0132374D01*
X0140426Y0132171D01*
X0140632Y0131963D01*
X0140832Y0131750D01*
X0141027Y0131532D01*
X0141217Y0131310D01*
X0141401Y0131083D01*
X0141580Y0130852D01*
X0141752Y0130616D01*
X0141920Y0130377D01*
X0142081Y0130133D01*
X0142236Y0129885D01*
X0142385Y0129634D01*
X0142528Y0129379D01*
X0142665Y0129121D01*
X0142796Y0128859D01*
X0142920Y0128595D01*
X0143037Y0128327D01*
X0143148Y0128057D01*
X0143253Y0127784D01*
X0143350Y0127509D01*
X0143441Y0127231D01*
X0143525Y0126951D01*
X0143603Y0126669D01*
X0143673Y0126386D01*
X0143737Y0126100D01*
X0143793Y0125814D01*
X0143843Y0125526D01*
X0143886Y0125237D01*
X0143921Y0124946D01*
X0143949Y0124656D01*
X0143971Y0124364D01*
X0143985Y0124072D01*
X0143992Y0123780D01*
X0143992Y0123488D01*
X0143985Y0123196D01*
X0143971Y0122904D01*
X0143949Y0122612D01*
X0143921Y0122322D01*
X0143886Y0122031D01*
X0143843Y0121742D01*
X0143793Y0121454D01*
X0143737Y0121168D01*
X0143673Y0120882D01*
X0143603Y0120599D01*
X0143525Y0120317D01*
X0143441Y0120037D01*
X0143350Y0119759D01*
X0143253Y0119484D01*
X0143148Y0119211D01*
X0143037Y0118941D01*
X0142920Y0118673D01*
X0142796Y0118409D01*
X0142665Y0118147D01*
X0142528Y0117889D01*
X0142385Y0117634D01*
X0142236Y0117383D01*
X0142081Y0117135D01*
X0141920Y0116891D01*
X0141752Y0116652D01*
X0141580Y0116416D01*
X0141401Y0116185D01*
X0141217Y0115958D01*
X0141027Y0115736D01*
X0140832Y0115518D01*
X0140632Y0115305D01*
X0140426Y0115097D01*
X0140216Y0114894D01*
X0140001Y0114697D01*
X0139781Y0114504D01*
X0139556Y0114317D01*
X0139327Y0114136D01*
X0139094Y0113960D01*
X0138856Y0113790D01*
X0138614Y0113626D01*
X0138369Y0113468D01*
X0138119Y0113316D01*
X0137866Y0113169D01*
X0137609Y0113029D01*
X0137350Y0112896D01*
X0137086Y0112769D01*
X0136820Y0112648D01*
X0136551Y0112534D01*
X0136280Y0112426D01*
X0136006Y0112325D01*
X0135729Y0112230D01*
X0135450Y0112143D01*
X0135169Y0112062D01*
X0134887Y0111988D01*
X0134602Y0111921D01*
X0134316Y0111861D01*
X0134029Y0111808D01*
X0133740Y0111762D01*
X0133451Y0111723D01*
X0133160Y0111691D01*
X0132869Y0111666D01*
X0132577Y0111648D01*
X0132285Y0111638D01*
X0131993Y0111634D01*
X0145000Y0123800D02*
X0145000Y0136200D01*
X0145002Y0136276D01*
X0145008Y0136352D01*
X0145017Y0136427D01*
X0145031Y0136502D01*
X0145048Y0136576D01*
X0145069Y0136649D01*
X0145093Y0136721D01*
X0145122Y0136792D01*
X0145153Y0136861D01*
X0145188Y0136928D01*
X0145227Y0136993D01*
X0145269Y0137057D01*
X0145314Y0137118D01*
X0145362Y0137177D01*
X0145413Y0137233D01*
X0145467Y0137287D01*
X0145523Y0137338D01*
X0145582Y0137386D01*
X0145643Y0137431D01*
X0145707Y0137473D01*
X0145772Y0137512D01*
X0145839Y0137547D01*
X0145908Y0137578D01*
X0145979Y0137607D01*
X0146051Y0137631D01*
X0146124Y0137652D01*
X0146198Y0137669D01*
X0146273Y0137683D01*
X0146348Y0137692D01*
X0146424Y0137698D01*
X0146500Y0137700D01*
X0163500Y0137700D01*
X0163576Y0137698D01*
X0163652Y0137692D01*
X0163727Y0137683D01*
X0163802Y0137669D01*
X0163876Y0137652D01*
X0163949Y0137631D01*
X0164021Y0137607D01*
X0164092Y0137578D01*
X0164161Y0137547D01*
X0164228Y0137512D01*
X0164293Y0137473D01*
X0164357Y0137431D01*
X0164418Y0137386D01*
X0164477Y0137338D01*
X0164533Y0137287D01*
X0164587Y0137233D01*
X0164638Y0137177D01*
X0164686Y0137118D01*
X0164731Y0137057D01*
X0164773Y0136993D01*
X0164812Y0136928D01*
X0164847Y0136861D01*
X0164878Y0136792D01*
X0164907Y0136721D01*
X0164931Y0136649D01*
X0164952Y0136576D01*
X0164969Y0136502D01*
X0164983Y0136427D01*
X0164992Y0136352D01*
X0164998Y0136276D01*
X0165000Y0136200D01*
X0165000Y0123800D01*
X0164998Y0123724D01*
X0164992Y0123648D01*
X0164983Y0123573D01*
X0164969Y0123498D01*
X0164952Y0123424D01*
X0164931Y0123351D01*
X0164907Y0123279D01*
X0164878Y0123208D01*
X0164847Y0123139D01*
X0164812Y0123072D01*
X0164773Y0123007D01*
X0164731Y0122943D01*
X0164686Y0122882D01*
X0164638Y0122823D01*
X0164587Y0122767D01*
X0164533Y0122713D01*
X0164477Y0122662D01*
X0164418Y0122614D01*
X0164357Y0122569D01*
X0164293Y0122527D01*
X0164228Y0122488D01*
X0164161Y0122453D01*
X0164092Y0122422D01*
X0164021Y0122393D01*
X0163949Y0122369D01*
X0163876Y0122348D01*
X0163802Y0122331D01*
X0163727Y0122317D01*
X0163652Y0122308D01*
X0163576Y0122302D01*
X0163500Y0122300D01*
X0146500Y0122300D01*
X0146424Y0122302D01*
X0146348Y0122308D01*
X0146273Y0122317D01*
X0146198Y0122331D01*
X0146124Y0122348D01*
X0146051Y0122369D01*
X0145979Y0122393D01*
X0145908Y0122422D01*
X0145839Y0122453D01*
X0145772Y0122488D01*
X0145707Y0122527D01*
X0145643Y0122569D01*
X0145582Y0122614D01*
X0145523Y0122662D01*
X0145467Y0122713D01*
X0145413Y0122767D01*
X0145362Y0122823D01*
X0145314Y0122882D01*
X0145269Y0122943D01*
X0145227Y0123007D01*
X0145188Y0123072D01*
X0145153Y0123139D01*
X0145122Y0123208D01*
X0145093Y0123279D01*
X0145069Y0123351D01*
X0145048Y0123424D01*
X0145031Y0123498D01*
X0145017Y0123573D01*
X0145008Y0123648D01*
X0145002Y0123724D01*
X0145000Y0123800D01*
X0145000Y0128000D02*
X0145088Y0128002D01*
X0145177Y0128008D01*
X0145265Y0128018D01*
X0145352Y0128031D01*
X0145439Y0128049D01*
X0145525Y0128070D01*
X0145610Y0128095D01*
X0145693Y0128124D01*
X0145776Y0128157D01*
X0145856Y0128193D01*
X0145935Y0128232D01*
X0146013Y0128275D01*
X0146088Y0128322D01*
X0146161Y0128372D01*
X0146232Y0128425D01*
X0146301Y0128481D01*
X0146367Y0128540D01*
X0146430Y0128602D01*
X0146490Y0128666D01*
X0146548Y0128733D01*
X0146602Y0128803D01*
X0146654Y0128875D01*
X0146702Y0128949D01*
X0146747Y0129026D01*
X0146788Y0129104D01*
X0146826Y0129184D01*
X0146860Y0129265D01*
X0146891Y0129348D01*
X0146918Y0129433D01*
X0146941Y0129518D01*
X0146960Y0129604D01*
X0146976Y0129692D01*
X0146988Y0129779D01*
X0146996Y0129867D01*
X0147000Y0129956D01*
X0147000Y0130044D01*
X0146996Y0130133D01*
X0146988Y0130221D01*
X0146976Y0130308D01*
X0146960Y0130396D01*
X0146941Y0130482D01*
X0146918Y0130567D01*
X0146891Y0130652D01*
X0146860Y0130735D01*
X0146826Y0130816D01*
X0146788Y0130896D01*
X0146747Y0130974D01*
X0146702Y0131051D01*
X0146654Y0131125D01*
X0146602Y0131197D01*
X0146548Y0131267D01*
X0146490Y0131334D01*
X0146430Y0131398D01*
X0146367Y0131460D01*
X0146301Y0131519D01*
X0146232Y0131575D01*
X0146161Y0131628D01*
X0146088Y0131678D01*
X0146013Y0131725D01*
X0145935Y0131768D01*
X0145856Y0131807D01*
X0145776Y0131843D01*
X0145693Y0131876D01*
X0145610Y0131905D01*
X0145525Y0131930D01*
X0145439Y0131951D01*
X0145352Y0131969D01*
X0145265Y0131982D01*
X0145177Y0131992D01*
X0145088Y0131998D01*
X0145000Y0132000D01*
X0144000Y0150500D02*
X0142500Y0150500D01*
X0142440Y0150502D01*
X0142379Y0150507D01*
X0142320Y0150516D01*
X0142261Y0150529D01*
X0142202Y0150545D01*
X0142145Y0150565D01*
X0142090Y0150588D01*
X0142035Y0150615D01*
X0141983Y0150644D01*
X0141932Y0150677D01*
X0141883Y0150713D01*
X0141837Y0150751D01*
X0141793Y0150793D01*
X0141751Y0150837D01*
X0141713Y0150883D01*
X0141677Y0150932D01*
X0141644Y0150983D01*
X0141615Y0151035D01*
X0141588Y0151090D01*
X0141565Y0151145D01*
X0141545Y0151202D01*
X0141529Y0151261D01*
X0141516Y0151320D01*
X0141507Y0151379D01*
X0141502Y0151440D01*
X0141500Y0151500D01*
X0141500Y0157500D01*
X0141502Y0157560D01*
X0141507Y0157621D01*
X0141516Y0157680D01*
X0141529Y0157739D01*
X0141545Y0157798D01*
X0141565Y0157855D01*
X0141588Y0157910D01*
X0141615Y0157965D01*
X0141644Y0158017D01*
X0141677Y0158068D01*
X0141713Y0158117D01*
X0141751Y0158163D01*
X0141793Y0158207D01*
X0141837Y0158249D01*
X0141883Y0158287D01*
X0141932Y0158323D01*
X0141983Y0158356D01*
X0142035Y0158385D01*
X0142090Y0158412D01*
X0142145Y0158435D01*
X0142202Y0158455D01*
X0142261Y0158471D01*
X0142320Y0158484D01*
X0142379Y0158493D01*
X0142440Y0158498D01*
X0142500Y0158500D01*
X0144000Y0158500D01*
X0144500Y0158000D01*
X0158500Y0158000D01*
X0159000Y0158500D01*
X0160500Y0158500D01*
X0160560Y0158498D01*
X0160621Y0158493D01*
X0160680Y0158484D01*
X0160739Y0158471D01*
X0160798Y0158455D01*
X0160855Y0158435D01*
X0160910Y0158412D01*
X0160965Y0158385D01*
X0161017Y0158356D01*
X0161068Y0158323D01*
X0161117Y0158287D01*
X0161163Y0158249D01*
X0161207Y0158207D01*
X0161249Y0158163D01*
X0161287Y0158117D01*
X0161323Y0158068D01*
X0161356Y0158017D01*
X0161385Y0157965D01*
X0161412Y0157910D01*
X0161435Y0157855D01*
X0161455Y0157798D01*
X0161471Y0157739D01*
X0161484Y0157680D01*
X0161493Y0157621D01*
X0161498Y0157560D01*
X0161500Y0157500D01*
X0161500Y0151500D01*
X0161498Y0151440D01*
X0161493Y0151379D01*
X0161484Y0151320D01*
X0161471Y0151261D01*
X0161455Y0151202D01*
X0161435Y0151145D01*
X0161412Y0151090D01*
X0161385Y0151035D01*
X0161356Y0150983D01*
X0161323Y0150932D01*
X0161287Y0150883D01*
X0161249Y0150837D01*
X0161207Y0150793D01*
X0161163Y0150751D01*
X0161117Y0150713D01*
X0161068Y0150677D01*
X0161017Y0150644D01*
X0160965Y0150615D01*
X0160910Y0150588D01*
X0160855Y0150565D01*
X0160798Y0150545D01*
X0160739Y0150529D01*
X0160680Y0150516D01*
X0160621Y0150507D01*
X0160560Y0150502D01*
X0160500Y0150500D01*
X0159000Y0150500D01*
X0158500Y0151000D01*
X0144500Y0151000D01*
X0144000Y0150500D01*
X0144000Y0159500D02*
X0142500Y0159500D01*
X0142440Y0159502D01*
X0142379Y0159507D01*
X0142320Y0159516D01*
X0142261Y0159529D01*
X0142202Y0159545D01*
X0142145Y0159565D01*
X0142090Y0159588D01*
X0142035Y0159615D01*
X0141983Y0159644D01*
X0141932Y0159677D01*
X0141883Y0159713D01*
X0141837Y0159751D01*
X0141793Y0159793D01*
X0141751Y0159837D01*
X0141713Y0159883D01*
X0141677Y0159932D01*
X0141644Y0159983D01*
X0141615Y0160035D01*
X0141588Y0160090D01*
X0141565Y0160145D01*
X0141545Y0160202D01*
X0141529Y0160261D01*
X0141516Y0160320D01*
X0141507Y0160379D01*
X0141502Y0160440D01*
X0141500Y0160500D01*
X0141500Y0166500D01*
X0141502Y0166560D01*
X0141507Y0166621D01*
X0141516Y0166680D01*
X0141529Y0166739D01*
X0141545Y0166798D01*
X0141565Y0166855D01*
X0141588Y0166910D01*
X0141615Y0166965D01*
X0141644Y0167017D01*
X0141677Y0167068D01*
X0141713Y0167117D01*
X0141751Y0167163D01*
X0141793Y0167207D01*
X0141837Y0167249D01*
X0141883Y0167287D01*
X0141932Y0167323D01*
X0141983Y0167356D01*
X0142035Y0167385D01*
X0142090Y0167412D01*
X0142145Y0167435D01*
X0142202Y0167455D01*
X0142261Y0167471D01*
X0142320Y0167484D01*
X0142379Y0167493D01*
X0142440Y0167498D01*
X0142500Y0167500D01*
X0144000Y0167500D01*
X0144500Y0167000D01*
X0158500Y0167000D01*
X0159000Y0167500D01*
X0160500Y0167500D01*
X0160560Y0167498D01*
X0160621Y0167493D01*
X0160680Y0167484D01*
X0160739Y0167471D01*
X0160798Y0167455D01*
X0160855Y0167435D01*
X0160910Y0167412D01*
X0160965Y0167385D01*
X0161017Y0167356D01*
X0161068Y0167323D01*
X0161117Y0167287D01*
X0161163Y0167249D01*
X0161207Y0167207D01*
X0161249Y0167163D01*
X0161287Y0167117D01*
X0161323Y0167068D01*
X0161356Y0167017D01*
X0161385Y0166965D01*
X0161412Y0166910D01*
X0161435Y0166855D01*
X0161455Y0166798D01*
X0161471Y0166739D01*
X0161484Y0166680D01*
X0161493Y0166621D01*
X0161498Y0166560D01*
X0161500Y0166500D01*
X0161500Y0160500D01*
X0161498Y0160440D01*
X0161493Y0160379D01*
X0161484Y0160320D01*
X0161471Y0160261D01*
X0161455Y0160202D01*
X0161435Y0160145D01*
X0161412Y0160090D01*
X0161385Y0160035D01*
X0161356Y0159983D01*
X0161323Y0159932D01*
X0161287Y0159883D01*
X0161249Y0159837D01*
X0161207Y0159793D01*
X0161163Y0159751D01*
X0161117Y0159713D01*
X0161068Y0159677D01*
X0161017Y0159644D01*
X0160965Y0159615D01*
X0160910Y0159588D01*
X0160855Y0159565D01*
X0160798Y0159545D01*
X0160739Y0159529D01*
X0160680Y0159516D01*
X0160621Y0159507D01*
X0160560Y0159502D01*
X0160500Y0159500D01*
X0159000Y0159500D01*
X0158500Y0160000D01*
X0144500Y0160000D01*
X0144000Y0159500D01*
X0144000Y0168500D02*
X0142500Y0168500D01*
X0142440Y0168502D01*
X0142379Y0168507D01*
X0142320Y0168516D01*
X0142261Y0168529D01*
X0142202Y0168545D01*
X0142145Y0168565D01*
X0142090Y0168588D01*
X0142035Y0168615D01*
X0141983Y0168644D01*
X0141932Y0168677D01*
X0141883Y0168713D01*
X0141837Y0168751D01*
X0141793Y0168793D01*
X0141751Y0168837D01*
X0141713Y0168883D01*
X0141677Y0168932D01*
X0141644Y0168983D01*
X0141615Y0169035D01*
X0141588Y0169090D01*
X0141565Y0169145D01*
X0141545Y0169202D01*
X0141529Y0169261D01*
X0141516Y0169320D01*
X0141507Y0169379D01*
X0141502Y0169440D01*
X0141500Y0169500D01*
X0141500Y0175500D01*
X0141502Y0175560D01*
X0141507Y0175621D01*
X0141516Y0175680D01*
X0141529Y0175739D01*
X0141545Y0175798D01*
X0141565Y0175855D01*
X0141588Y0175910D01*
X0141615Y0175965D01*
X0141644Y0176017D01*
X0141677Y0176068D01*
X0141713Y0176117D01*
X0141751Y0176163D01*
X0141793Y0176207D01*
X0141837Y0176249D01*
X0141883Y0176287D01*
X0141932Y0176323D01*
X0141983Y0176356D01*
X0142035Y0176385D01*
X0142090Y0176412D01*
X0142145Y0176435D01*
X0142202Y0176455D01*
X0142261Y0176471D01*
X0142320Y0176484D01*
X0142379Y0176493D01*
X0142440Y0176498D01*
X0142500Y0176500D01*
X0144000Y0176500D01*
X0144500Y0176000D01*
X0158500Y0176000D01*
X0159000Y0176500D01*
X0160500Y0176500D01*
X0160560Y0176498D01*
X0160621Y0176493D01*
X0160680Y0176484D01*
X0160739Y0176471D01*
X0160798Y0176455D01*
X0160855Y0176435D01*
X0160910Y0176412D01*
X0160965Y0176385D01*
X0161017Y0176356D01*
X0161068Y0176323D01*
X0161117Y0176287D01*
X0161163Y0176249D01*
X0161207Y0176207D01*
X0161249Y0176163D01*
X0161287Y0176117D01*
X0161323Y0176068D01*
X0161356Y0176017D01*
X0161385Y0175965D01*
X0161412Y0175910D01*
X0161435Y0175855D01*
X0161455Y0175798D01*
X0161471Y0175739D01*
X0161484Y0175680D01*
X0161493Y0175621D01*
X0161498Y0175560D01*
X0161500Y0175500D01*
X0161500Y0169500D01*
X0161498Y0169440D01*
X0161493Y0169379D01*
X0161484Y0169320D01*
X0161471Y0169261D01*
X0161455Y0169202D01*
X0161435Y0169145D01*
X0161412Y0169090D01*
X0161385Y0169035D01*
X0161356Y0168983D01*
X0161323Y0168932D01*
X0161287Y0168883D01*
X0161249Y0168837D01*
X0161207Y0168793D01*
X0161163Y0168751D01*
X0161117Y0168713D01*
X0161068Y0168677D01*
X0161017Y0168644D01*
X0160965Y0168615D01*
X0160910Y0168588D01*
X0160855Y0168565D01*
X0160798Y0168545D01*
X0160739Y0168529D01*
X0160680Y0168516D01*
X0160621Y0168507D01*
X0160560Y0168502D01*
X0160500Y0168500D01*
X0159000Y0168500D01*
X0158500Y0169000D01*
X0144500Y0169000D01*
X0144000Y0168500D01*
X0162580Y0186061D02*
X0174391Y0174250D01*
X0174391Y0016911D01*
X0162580Y0005100D01*
X0167000Y0026500D02*
X0173000Y0026500D01*
X0173060Y0026502D01*
X0173121Y0026507D01*
X0173180Y0026516D01*
X0173239Y0026529D01*
X0173298Y0026545D01*
X0173355Y0026565D01*
X0173410Y0026588D01*
X0173465Y0026615D01*
X0173517Y0026644D01*
X0173568Y0026677D01*
X0173617Y0026713D01*
X0173663Y0026751D01*
X0173707Y0026793D01*
X0173749Y0026837D01*
X0173787Y0026883D01*
X0173823Y0026932D01*
X0173856Y0026983D01*
X0173885Y0027035D01*
X0173912Y0027090D01*
X0173935Y0027145D01*
X0173955Y0027202D01*
X0173971Y0027261D01*
X0173984Y0027320D01*
X0173993Y0027379D01*
X0173998Y0027440D01*
X0174000Y0027500D01*
X0174000Y0029000D01*
X0173500Y0029500D01*
X0173500Y0043500D01*
X0174000Y0044000D01*
X0174000Y0045500D01*
X0173998Y0045560D01*
X0173993Y0045621D01*
X0173984Y0045680D01*
X0173971Y0045739D01*
X0173955Y0045798D01*
X0173935Y0045855D01*
X0173912Y0045910D01*
X0173885Y0045965D01*
X0173856Y0046017D01*
X0173823Y0046068D01*
X0173787Y0046117D01*
X0173749Y0046163D01*
X0173707Y0046207D01*
X0173663Y0046249D01*
X0173617Y0046287D01*
X0173568Y0046323D01*
X0173517Y0046356D01*
X0173465Y0046385D01*
X0173410Y0046412D01*
X0173355Y0046435D01*
X0173298Y0046455D01*
X0173239Y0046471D01*
X0173180Y0046484D01*
X0173121Y0046493D01*
X0173060Y0046498D01*
X0173000Y0046500D01*
X0167000Y0046500D01*
X0166940Y0046498D01*
X0166879Y0046493D01*
X0166820Y0046484D01*
X0166761Y0046471D01*
X0166702Y0046455D01*
X0166645Y0046435D01*
X0166590Y0046412D01*
X0166535Y0046385D01*
X0166483Y0046356D01*
X0166432Y0046323D01*
X0166383Y0046287D01*
X0166337Y0046249D01*
X0166293Y0046207D01*
X0166251Y0046163D01*
X0166213Y0046117D01*
X0166177Y0046068D01*
X0166144Y0046017D01*
X0166115Y0045965D01*
X0166088Y0045910D01*
X0166065Y0045855D01*
X0166045Y0045798D01*
X0166029Y0045739D01*
X0166016Y0045680D01*
X0166007Y0045621D01*
X0166002Y0045560D01*
X0166000Y0045500D01*
X0166000Y0044000D01*
X0166500Y0043500D01*
X0166500Y0029500D01*
X0166000Y0029000D01*
X0166000Y0027500D01*
X0166002Y0027440D01*
X0166007Y0027379D01*
X0166016Y0027320D01*
X0166029Y0027261D01*
X0166045Y0027202D01*
X0166065Y0027145D01*
X0166088Y0027090D01*
X0166115Y0027035D01*
X0166144Y0026983D01*
X0166177Y0026932D01*
X0166213Y0026883D01*
X0166251Y0026837D01*
X0166293Y0026793D01*
X0166337Y0026751D01*
X0166383Y0026713D01*
X0166432Y0026677D01*
X0166483Y0026644D01*
X0166535Y0026615D01*
X0166590Y0026588D01*
X0166645Y0026565D01*
X0166702Y0026545D01*
X0166761Y0026529D01*
X0166820Y0026516D01*
X0166879Y0026507D01*
X0166940Y0026502D01*
X0167000Y0026500D01*
X0167000Y0065000D02*
X0173000Y0065000D01*
X0173060Y0065002D01*
X0173121Y0065007D01*
X0173180Y0065016D01*
X0173239Y0065029D01*
X0173298Y0065045D01*
X0173355Y0065065D01*
X0173410Y0065088D01*
X0173465Y0065115D01*
X0173517Y0065144D01*
X0173568Y0065177D01*
X0173617Y0065213D01*
X0173663Y0065251D01*
X0173707Y0065293D01*
X0173749Y0065337D01*
X0173787Y0065383D01*
X0173823Y0065432D01*
X0173856Y0065483D01*
X0173885Y0065535D01*
X0173912Y0065590D01*
X0173935Y0065645D01*
X0173955Y0065702D01*
X0173971Y0065761D01*
X0173984Y0065820D01*
X0173993Y0065879D01*
X0173998Y0065940D01*
X0174000Y0066000D01*
X0174000Y0067500D01*
X0173500Y0068000D01*
X0173500Y0082000D01*
X0174000Y0082500D01*
X0174000Y0084000D01*
X0173998Y0084060D01*
X0173993Y0084121D01*
X0173984Y0084180D01*
X0173971Y0084239D01*
X0173955Y0084298D01*
X0173935Y0084355D01*
X0173912Y0084410D01*
X0173885Y0084465D01*
X0173856Y0084517D01*
X0173823Y0084568D01*
X0173787Y0084617D01*
X0173749Y0084663D01*
X0173707Y0084707D01*
X0173663Y0084749D01*
X0173617Y0084787D01*
X0173568Y0084823D01*
X0173517Y0084856D01*
X0173465Y0084885D01*
X0173410Y0084912D01*
X0173355Y0084935D01*
X0173298Y0084955D01*
X0173239Y0084971D01*
X0173180Y0084984D01*
X0173121Y0084993D01*
X0173060Y0084998D01*
X0173000Y0085000D01*
X0167000Y0085000D01*
X0166940Y0084998D01*
X0166879Y0084993D01*
X0166820Y0084984D01*
X0166761Y0084971D01*
X0166702Y0084955D01*
X0166645Y0084935D01*
X0166590Y0084912D01*
X0166535Y0084885D01*
X0166483Y0084856D01*
X0166432Y0084823D01*
X0166383Y0084787D01*
X0166337Y0084749D01*
X0166293Y0084707D01*
X0166251Y0084663D01*
X0166213Y0084617D01*
X0166177Y0084568D01*
X0166144Y0084517D01*
X0166115Y0084465D01*
X0166088Y0084410D01*
X0166065Y0084355D01*
X0166045Y0084298D01*
X0166029Y0084239D01*
X0166016Y0084180D01*
X0166007Y0084121D01*
X0166002Y0084060D01*
X0166000Y0084000D01*
X0166000Y0082500D01*
X0166500Y0082000D01*
X0166500Y0068000D01*
X0166000Y0067500D01*
X0166000Y0066000D01*
X0166002Y0065940D01*
X0166007Y0065879D01*
X0166016Y0065820D01*
X0166029Y0065761D01*
X0166045Y0065702D01*
X0166065Y0065645D01*
X0166088Y0065590D01*
X0166115Y0065535D01*
X0166144Y0065483D01*
X0166177Y0065432D01*
X0166213Y0065383D01*
X0166251Y0065337D01*
X0166293Y0065293D01*
X0166337Y0065251D01*
X0166383Y0065213D01*
X0166432Y0065177D01*
X0166483Y0065144D01*
X0166535Y0065115D01*
X0166590Y0065088D01*
X0166645Y0065065D01*
X0166702Y0065045D01*
X0166761Y0065029D01*
X0166820Y0065016D01*
X0166879Y0065007D01*
X0166940Y0065002D01*
X0167000Y0065000D01*
X0167000Y0103500D02*
X0173000Y0103500D01*
X0173060Y0103502D01*
X0173121Y0103507D01*
X0173180Y0103516D01*
X0173239Y0103529D01*
X0173298Y0103545D01*
X0173355Y0103565D01*
X0173410Y0103588D01*
X0173465Y0103615D01*
X0173517Y0103644D01*
X0173568Y0103677D01*
X0173617Y0103713D01*
X0173663Y0103751D01*
X0173707Y0103793D01*
X0173749Y0103837D01*
X0173787Y0103883D01*
X0173823Y0103932D01*
X0173856Y0103983D01*
X0173885Y0104035D01*
X0173912Y0104090D01*
X0173935Y0104145D01*
X0173955Y0104202D01*
X0173971Y0104261D01*
X0173984Y0104320D01*
X0173993Y0104379D01*
X0173998Y0104440D01*
X0174000Y0104500D01*
X0174000Y0106000D01*
X0173500Y0106500D01*
X0173500Y0120500D01*
X0174000Y0121000D01*
X0174000Y0122500D01*
X0173998Y0122560D01*
X0173993Y0122621D01*
X0173984Y0122680D01*
X0173971Y0122739D01*
X0173955Y0122798D01*
X0173935Y0122855D01*
X0173912Y0122910D01*
X0173885Y0122965D01*
X0173856Y0123017D01*
X0173823Y0123068D01*
X0173787Y0123117D01*
X0173749Y0123163D01*
X0173707Y0123207D01*
X0173663Y0123249D01*
X0173617Y0123287D01*
X0173568Y0123323D01*
X0173517Y0123356D01*
X0173465Y0123385D01*
X0173410Y0123412D01*
X0173355Y0123435D01*
X0173298Y0123455D01*
X0173239Y0123471D01*
X0173180Y0123484D01*
X0173121Y0123493D01*
X0173060Y0123498D01*
X0173000Y0123500D01*
X0167000Y0123500D01*
X0166940Y0123498D01*
X0166879Y0123493D01*
X0166820Y0123484D01*
X0166761Y0123471D01*
X0166702Y0123455D01*
X0166645Y0123435D01*
X0166590Y0123412D01*
X0166535Y0123385D01*
X0166483Y0123356D01*
X0166432Y0123323D01*
X0166383Y0123287D01*
X0166337Y0123249D01*
X0166293Y0123207D01*
X0166251Y0123163D01*
X0166213Y0123117D01*
X0166177Y0123068D01*
X0166144Y0123017D01*
X0166115Y0122965D01*
X0166088Y0122910D01*
X0166065Y0122855D01*
X0166045Y0122798D01*
X0166029Y0122739D01*
X0166016Y0122680D01*
X0166007Y0122621D01*
X0166002Y0122560D01*
X0166000Y0122500D01*
X0166000Y0121000D01*
X0166500Y0120500D01*
X0166500Y0106500D01*
X0166000Y0106000D01*
X0166000Y0104500D01*
X0166002Y0104440D01*
X0166007Y0104379D01*
X0166016Y0104320D01*
X0166029Y0104261D01*
X0166045Y0104202D01*
X0166065Y0104145D01*
X0166088Y0104090D01*
X0166115Y0104035D01*
X0166144Y0103983D01*
X0166177Y0103932D01*
X0166213Y0103883D01*
X0166251Y0103837D01*
X0166293Y0103793D01*
X0166337Y0103751D01*
X0166383Y0103713D01*
X0166432Y0103677D01*
X0166483Y0103644D01*
X0166535Y0103615D01*
X0166590Y0103588D01*
X0166645Y0103565D01*
X0166702Y0103545D01*
X0166761Y0103529D01*
X0166820Y0103516D01*
X0166879Y0103507D01*
X0166940Y0103502D01*
X0167000Y0103500D01*
D15*
X0089998Y0085498D03*
X0089997Y0054867D03*
X0090003Y0024875D03*
D16*
X0084753Y0024875D03*
X0115253Y0024875D03*
X0115247Y0054867D03*
X0084747Y0054867D03*
X0084748Y0085498D03*
X0115248Y0085498D03*
D17*
X0080042Y0128496D03*
X0080042Y0149996D03*
X0064993Y0155007D03*
X0064993Y0176507D03*
X0039043Y0176543D03*
X0039043Y0155043D03*
X0170000Y0124250D03*
X0170000Y0102750D03*
X0170000Y0085750D03*
X0170000Y0064250D03*
X0170000Y0047250D03*
X0170000Y0025750D03*
D18*
X0169649Y0028300D02*
X0169649Y0030635D01*
X0170816Y0031891D02*
X0170816Y0032475D01*
X0171400Y0032475D01*
X0171400Y0031891D01*
X0170816Y0031891D01*
X0170816Y0033687D02*
X0171400Y0033687D01*
X0170816Y0033687D02*
X0168481Y0036022D01*
X0167897Y0036022D01*
X0167897Y0033687D01*
X0167897Y0037278D02*
X0171400Y0037278D01*
X0170232Y0037278D02*
X0169065Y0039029D01*
X0170232Y0037278D02*
X0171400Y0039029D01*
X0171400Y0030051D02*
X0167897Y0030051D01*
X0169649Y0028300D01*
X0169649Y0067300D02*
X0169649Y0069635D01*
X0170816Y0070891D02*
X0170816Y0071475D01*
X0171400Y0071475D01*
X0171400Y0070891D01*
X0170816Y0070891D01*
X0170816Y0072687D02*
X0171400Y0072687D01*
X0170816Y0072687D02*
X0168481Y0075022D01*
X0167897Y0075022D01*
X0167897Y0072687D01*
X0167897Y0076278D02*
X0171400Y0076278D01*
X0170232Y0076278D02*
X0169065Y0078029D01*
X0170232Y0076278D02*
X0171400Y0078029D01*
X0171400Y0069051D02*
X0167897Y0069051D01*
X0169649Y0067300D01*
X0170149Y0105800D02*
X0170149Y0108135D01*
X0171316Y0109391D02*
X0171316Y0109975D01*
X0171900Y0109975D01*
X0171900Y0109391D01*
X0171316Y0109391D01*
X0171316Y0111187D02*
X0171900Y0111187D01*
X0171316Y0111187D02*
X0168981Y0113522D01*
X0168397Y0113522D01*
X0168397Y0111187D01*
X0168397Y0114778D02*
X0171900Y0114778D01*
X0170732Y0114778D02*
X0169565Y0116529D01*
X0170732Y0114778D02*
X0171900Y0116529D01*
X0171900Y0107551D02*
X0168397Y0107551D01*
X0170149Y0105800D01*
X0160409Y0153100D02*
X0159241Y0154268D01*
X0159825Y0154268D02*
X0158073Y0154268D01*
X0158073Y0153100D02*
X0158073Y0156603D01*
X0159825Y0156603D01*
X0160409Y0156019D01*
X0160409Y0154851D01*
X0159825Y0154268D01*
X0156817Y0153684D02*
X0156817Y0156019D01*
X0154482Y0153684D01*
X0155066Y0153100D01*
X0156234Y0153100D01*
X0156817Y0153684D01*
X0156817Y0156019D02*
X0156234Y0156603D01*
X0155066Y0156603D01*
X0154482Y0156019D01*
X0154482Y0153684D01*
X0153226Y0153684D02*
X0152643Y0153100D01*
X0151475Y0153100D01*
X0150891Y0153684D01*
X0153226Y0156019D01*
X0153226Y0153684D01*
X0150891Y0153684D02*
X0150891Y0156019D01*
X0151475Y0156603D01*
X0152643Y0156603D01*
X0153226Y0156019D01*
X0149635Y0153100D02*
X0147300Y0153100D01*
X0148468Y0153100D02*
X0148468Y0156603D01*
X0147300Y0155435D01*
X0150384Y0162100D02*
X0149800Y0162684D01*
X0150384Y0162100D02*
X0151551Y0162100D01*
X0152135Y0162684D01*
X0152135Y0163268D01*
X0151551Y0163851D01*
X0150968Y0163851D01*
X0151551Y0163851D02*
X0152135Y0164435D01*
X0152135Y0165019D01*
X0151551Y0165603D01*
X0150384Y0165603D01*
X0149800Y0165019D01*
X0153391Y0165019D02*
X0153975Y0165603D01*
X0155143Y0165603D01*
X0155726Y0165019D01*
X0155726Y0164435D01*
X0155143Y0163851D01*
X0155726Y0163268D01*
X0155726Y0162684D01*
X0155143Y0162100D01*
X0153975Y0162100D01*
X0153391Y0162684D01*
X0154559Y0163851D02*
X0155143Y0163851D01*
X0156982Y0163268D02*
X0158734Y0163268D01*
X0159317Y0163851D01*
X0159317Y0165019D01*
X0158734Y0165603D01*
X0156982Y0165603D01*
X0156982Y0162100D01*
X0158150Y0163268D02*
X0159317Y0162100D01*
X0159317Y0170600D02*
X0158150Y0171768D01*
X0158734Y0171768D02*
X0156982Y0171768D01*
X0156982Y0170600D02*
X0156982Y0174103D01*
X0158734Y0174103D01*
X0159317Y0173519D01*
X0159317Y0172351D01*
X0158734Y0171768D01*
X0155726Y0171768D02*
X0155143Y0172351D01*
X0154559Y0172351D01*
X0155143Y0172351D02*
X0155726Y0172935D01*
X0155726Y0173519D01*
X0155143Y0174103D01*
X0153975Y0174103D01*
X0153391Y0173519D01*
X0152135Y0173519D02*
X0152135Y0172935D01*
X0151551Y0172351D01*
X0152135Y0171768D01*
X0152135Y0171184D01*
X0151551Y0170600D01*
X0150384Y0170600D01*
X0149800Y0171184D01*
X0150968Y0172351D02*
X0151551Y0172351D01*
X0152135Y0173519D02*
X0151551Y0174103D01*
X0150384Y0174103D01*
X0149800Y0173519D01*
X0153391Y0171184D02*
X0153975Y0170600D01*
X0155143Y0170600D01*
X0155726Y0171184D01*
X0155726Y0171768D01*
X0081942Y0142359D02*
X0080774Y0141191D01*
X0080774Y0141775D02*
X0080774Y0140023D01*
X0081942Y0140023D02*
X0078439Y0140023D01*
X0078439Y0141775D01*
X0079023Y0142359D01*
X0080191Y0142359D01*
X0080774Y0141775D01*
X0080774Y0138768D02*
X0080191Y0138184D01*
X0080191Y0137600D01*
X0080191Y0138184D02*
X0079607Y0138768D01*
X0079023Y0138768D01*
X0078439Y0138184D01*
X0078439Y0137016D01*
X0079023Y0136432D01*
X0079023Y0135177D02*
X0079607Y0135177D01*
X0080191Y0134593D01*
X0080774Y0135177D01*
X0081358Y0135177D01*
X0081942Y0134593D01*
X0081942Y0133425D01*
X0081358Y0132841D01*
X0081358Y0131630D02*
X0081942Y0131630D01*
X0081942Y0131046D01*
X0081358Y0131046D01*
X0081358Y0131630D01*
X0079023Y0132841D02*
X0078439Y0133425D01*
X0078439Y0134593D01*
X0079023Y0135177D01*
X0080191Y0134593D02*
X0080191Y0134009D01*
X0081358Y0136432D02*
X0081942Y0137016D01*
X0081942Y0138184D01*
X0081358Y0138768D01*
X0080774Y0138768D01*
X0066907Y0158543D02*
X0066907Y0159127D01*
X0066324Y0159127D01*
X0066324Y0158543D01*
X0066907Y0158543D01*
X0066324Y0160339D02*
X0066907Y0160923D01*
X0066907Y0162090D01*
X0066324Y0162674D01*
X0065740Y0162674D01*
X0065156Y0162090D01*
X0065156Y0161506D01*
X0065156Y0162090D02*
X0064572Y0162674D01*
X0063988Y0162674D01*
X0063405Y0162090D01*
X0063405Y0160923D01*
X0063988Y0160339D01*
X0063988Y0163930D02*
X0063405Y0164514D01*
X0063405Y0165681D01*
X0063988Y0166265D01*
X0064572Y0166265D01*
X0065156Y0165681D01*
X0065740Y0166265D01*
X0066324Y0166265D01*
X0066907Y0165681D01*
X0066907Y0164514D01*
X0066324Y0163930D01*
X0065156Y0165097D02*
X0065156Y0165681D01*
X0065740Y0167521D02*
X0065740Y0169272D01*
X0065156Y0169856D01*
X0063988Y0169856D01*
X0063405Y0169272D01*
X0063405Y0167521D01*
X0066907Y0167521D01*
X0065740Y0168689D02*
X0066907Y0169856D01*
X0040857Y0169820D02*
X0039690Y0168652D01*
X0039690Y0169236D02*
X0039690Y0167484D01*
X0040857Y0167484D02*
X0037354Y0167484D01*
X0037354Y0169236D01*
X0037938Y0169820D01*
X0039106Y0169820D01*
X0039690Y0169236D01*
X0039690Y0166229D02*
X0040273Y0166229D01*
X0040857Y0165645D01*
X0040857Y0164477D01*
X0040273Y0163893D01*
X0040273Y0162638D02*
X0039690Y0162638D01*
X0039106Y0162054D01*
X0039106Y0161470D01*
X0039106Y0162054D02*
X0038522Y0162638D01*
X0037938Y0162638D01*
X0037354Y0162054D01*
X0037354Y0160886D01*
X0037938Y0160302D01*
X0040273Y0160302D02*
X0040857Y0160886D01*
X0040857Y0162054D01*
X0040273Y0162638D01*
X0040273Y0159091D02*
X0040857Y0159091D01*
X0040857Y0158507D01*
X0040273Y0158507D01*
X0040273Y0159091D01*
X0037938Y0163893D02*
X0037354Y0164477D01*
X0037354Y0165645D01*
X0037938Y0166229D01*
X0038522Y0166229D01*
X0039106Y0165645D01*
X0039690Y0166229D01*
X0039106Y0165645D02*
X0039106Y0165061D01*
D19*
X0101993Y0121284D03*
D20*
X0127500Y0103000D02*
X0130000Y0105500D01*
X0131000Y0099000D02*
X0129000Y0097000D01*
X0132500Y0093000D02*
X0130000Y0090500D01*
X0130000Y0076500D02*
X0127500Y0074000D01*
X0131000Y0070000D02*
X0129000Y0068000D01*
X0132500Y0064000D02*
X0130000Y0061500D01*
X0129500Y0045000D02*
X0127000Y0042500D01*
X0130500Y0038500D02*
X0128500Y0036500D01*
X0132000Y0032500D02*
X0129500Y0030000D01*
D21*
X0128300Y0139500D02*
X0128300Y0142500D01*
X0128300Y0145500D01*
X0130800Y0145500D02*
X0130800Y0142500D01*
X0130800Y0139500D01*
D22*
X0140750Y0154500D03*
X0140750Y0163500D03*
X0140750Y0172500D03*
X0162250Y0172500D03*
X0162250Y0163500D03*
X0162250Y0154500D03*
D23*
X0132000Y0160000D02*
X0102000Y0160000D01*
X0102000Y0177500D01*
X0132000Y0177500D01*
X0132000Y0160000D01*
X0132000Y0177500D02*
X0132000Y0185000D01*
X0102000Y0185000D01*
X0102000Y0177500D01*
X0072000Y0177500D01*
X0072000Y0185000D01*
X0102000Y0185000D01*
X0102000Y0177500D01*
X0102000Y0160000D01*
X0072000Y0160000D01*
X0072000Y0177500D01*
D24*
X0019646Y0147600D02*
X0013974Y0147600D01*
X0016810Y0150435D02*
X0016810Y0144764D01*
X0019575Y0041267D02*
X0013903Y0041267D01*
M02*
