G75*
%MOIN*%
%OFA0B0*%
%FSLAX25Y25*%
%IPPOS*%
%LPD*%
%AMOC8*
5,1,8,0,0,1.08239X$1,22.5*
%
%ADD10R,0.06306X0.02369*%
%ADD11R,0.06306X0.02959*%
%ADD12R,0.13392X0.07487*%
%ADD13C,0.05600*%
%ADD14OC8,0.05600*%
%ADD15OC8,0.06700*%
%ADD16C,0.06700*%
%ADD17R,0.03000X0.06400*%
%ADD18C,0.06337*%
%ADD19C,0.00600*%
%ADD20C,0.00500*%
%ADD21R,0.04369X0.04369*%
%ADD22C,0.07800*%
%ADD23C,0.10400*%
%ADD24C,0.05400*%
D10*
X0092833Y0034220D03*
X0092833Y0046031D03*
X0105628Y0046031D03*
X0105628Y0034220D03*
X0106268Y0064267D03*
X0093472Y0064267D03*
X0093472Y0076078D03*
X0106268Y0076078D03*
X0106249Y0094943D03*
X0106249Y0106754D03*
X0093454Y0106754D03*
X0093454Y0094943D03*
D11*
X0106249Y0100849D03*
X0106268Y0070173D03*
X0105628Y0040125D03*
D12*
X0096278Y0040125D03*
X0096917Y0070173D03*
X0096898Y0100849D03*
D13*
X0082598Y0085498D02*
X0077398Y0085498D01*
X0077397Y0054867D02*
X0082597Y0054867D01*
X0082603Y0024875D02*
X0077403Y0024875D01*
X0117403Y0024875D02*
X0122603Y0024875D01*
X0122000Y0034900D02*
X0122000Y0040100D01*
X0122597Y0054867D02*
X0117397Y0054867D01*
X0122500Y0066400D02*
X0122500Y0071600D01*
X0137500Y0071600D02*
X0137500Y0066400D01*
X0122598Y0085498D02*
X0117398Y0085498D01*
X0122500Y0095400D02*
X0122500Y0100600D01*
X0137500Y0100600D02*
X0137500Y0095400D01*
X0137000Y0040100D02*
X0137000Y0034900D01*
D14*
X0150000Y0046000D03*
X0155000Y0038500D03*
X0160000Y0046000D03*
X0170000Y0051500D03*
X0170000Y0060000D03*
X0154000Y0068000D03*
X0149000Y0075500D03*
X0159000Y0075500D03*
X0170000Y0090000D03*
X0170000Y0098500D03*
X0159000Y0101500D03*
X0154000Y0094000D03*
X0149000Y0101500D03*
X0170000Y0128500D03*
X0166500Y0154500D03*
X0166500Y0163500D03*
X0166500Y0172500D03*
X0136500Y0172500D03*
X0136500Y0163500D03*
X0136500Y0154500D03*
X0139500Y0142500D03*
X0119500Y0142500D03*
X0107500Y0142500D03*
X0100000Y0147500D03*
X0107500Y0152500D03*
X0080042Y0154246D03*
X0064993Y0150757D03*
X0039043Y0150793D03*
X0039043Y0180793D03*
X0064993Y0180757D03*
X0080042Y0124246D03*
X0170000Y0021500D03*
D15*
X0092493Y0118634D03*
D16*
X0092493Y0128634D03*
D17*
X0147500Y0118294D03*
X0152500Y0118294D03*
X0157500Y0118294D03*
X0162500Y0118294D03*
X0162500Y0141706D03*
X0157500Y0141706D03*
X0152500Y0141706D03*
X0147500Y0141706D03*
D18*
X0127000Y0169531D02*
X0127000Y0175469D01*
X0117000Y0175469D02*
X0117000Y0169531D01*
X0107000Y0169531D02*
X0107000Y0175469D01*
X0097000Y0175469D02*
X0097000Y0169531D01*
X0087000Y0169531D02*
X0087000Y0175469D01*
X0077000Y0175469D02*
X0077000Y0169531D01*
D19*
X0005100Y0016911D02*
X0016911Y0005100D01*
X0005100Y0016911D02*
X0005100Y0055000D01*
X0032600Y0055000D01*
X0045100Y0041100D01*
X0059100Y0041100D01*
X0072100Y0055100D01*
X0072100Y0136021D01*
X0059100Y0150021D01*
X0045100Y0150021D01*
X0032600Y0136121D01*
X0005100Y0136121D01*
X0005100Y0174250D01*
X0016911Y0186061D01*
X0162580Y0186061D02*
X0174391Y0174250D01*
X0174391Y0016911D01*
X0162580Y0005100D01*
D20*
X0162726Y0005100D02*
X0017100Y0005100D01*
X0017100Y0186021D02*
X0162726Y0186021D01*
D21*
X0024300Y0160900D03*
X0016800Y0160900D03*
X0009300Y0160900D03*
X0009300Y0030400D03*
X0016800Y0030400D03*
X0024300Y0030400D03*
D22*
X0146500Y0181000D03*
X0156500Y0181000D03*
D23*
X0128500Y0153000D03*
X0092000Y0152000D03*
D24*
X0144000Y0112500D03*
X0144500Y0091500D03*
X0144500Y0085000D03*
X0145500Y0064500D03*
X0146500Y0057000D03*
X0147500Y0033000D03*
M02*
