%
M48
M72
T01C0.0120
T02C0.0197
T03C0.0200
T04C0.0320
T05C0.0394
%
T01
X9500Y3445
X9500Y3695
X9500Y3945
X9503Y7451
X9503Y7701
X9503Y7951
X9500Y11449
X9500Y11699
X9500Y11949
T02
X930Y3040
X1730Y3040
X2530Y3040
X2530Y16090
X1730Y16090
X930Y16090
T03
X5400Y15500
X6200Y16850
X8000Y12560
X9200Y9750
X8200Y8300
X9200Y5700
X10875Y4375
X12000Y6000
X13801Y7699
X15900Y7250
X15850Y4250
X13552Y3698
X12000Y2500
X9750Y2500
X11007Y8293
X12000Y10000
X13750Y11750
X15250Y12650
X15750Y13250
X16900Y14050
X16625Y15875
X15601Y15850
X16050Y17686
X14000Y14500
X10900Y12300
T04
X8573Y13995
X8573Y14995
T05
X9200Y17250
X10200Y17250
X11200Y17250
X12200Y17250
M30
